<?xml version="1.0" encoding="us-ascii" standalone="no"?><svg xmlns="http://www.w3.org/2000/svg" xmlns:xlink="http://www.w3.org/1999/xlink" contentStyleType="text/css" height="408px" preserveAspectRatio="none" style="width:693px;height:408px;background:#FFFFFF;" version="1.1" viewBox="0 0 693 408" width="693.6px" zoomAndPan="magnify"><defs/><g><!--class CancelMeetingUI--><g id="elem_CancelMeetingUI"><rect codeLine="2" fill="#F1F1F1" height="36.3492" id="CancelMeetingUI" rx="1.5" ry="1.5" style="stroke:#181818;stroke-width:0.3;" width="82.8" x="230.4" y="4.2"/><ellipse cx="239.4" cy="17.5746" fill="#ADD1B2" rx="6.6" ry="6.6" style="stroke:#181818;stroke-width:0.6;"/><path d="M241.0594,15.0996 Q241.1531,14.9684 241.2656,14.9027 Q241.3781,14.8371 241.5094,14.8371 Q241.7344,14.8371 241.875,14.9965 Q242.0156,15.1465 242.0156,15.5121 L242.0156,16.384 Q242.0156,16.7496 241.875,16.909 Q241.7344,17.0684 241.5094,17.0684 Q241.3031,17.0684 241.1812,16.9465 Q241.0594,16.834 240.9937,16.5246 Q240.9656,16.309 240.8531,16.1965 Q240.6563,15.9715 240.2906,15.8402 Q239.925,15.709 239.55,15.709 Q239.0906,15.709 238.7062,15.9059 Q238.3312,16.1027 238.0313,16.5527 Q237.7406,17.0027 237.7406,17.6215 L237.7406,18.2777 Q237.7406,19.0184 238.275,19.5152 Q238.8094,20.0027 239.7656,20.0027 Q240.3281,20.0027 240.7219,19.8527 Q240.9562,19.759 241.2094,19.4965 Q241.3687,19.3371 241.4531,19.2902 Q241.5469,19.2434 241.6688,19.2434 Q241.8656,19.2434 242.0156,19.4027 Q242.175,19.5527 242.175,19.759 Q242.175,19.9652 241.9688,20.209 Q241.6688,20.5559 241.1906,20.7527 Q240.5438,21.0246 239.7656,21.0246 Q238.8563,21.0246 238.1344,20.6496 Q237.5438,20.3496 237.1313,19.7121 Q236.7188,19.0652 236.7188,18.2965 L236.7188,17.6027 Q236.7188,16.8059 237.0844,16.1215 Q237.4594,15.4277 238.1156,15.0621 Q238.7719,14.6871 239.5125,14.6871 Q239.9531,14.6871 240.3375,14.7902 Q240.7313,14.884 241.0594,15.0996 Z " fill="#000000"/><text fill="#000000" font-family="sans-serif" font-size="7.2" font-style="italic" lengthAdjust="spacing" textLength="16.2" x="271.5" y="14.9695">&#171;UI&#187;</text><text fill="#000000" font-family="sans-serif" font-size="8.4" lengthAdjust="spacing" textLength="63.6" x="247.8" y="25.841">CancelMeetingUI</text><line style="stroke:#181818;stroke-width:0.3;" x1="231" x2="312.6" y1="30.9492" y2="30.9492"/><line style="stroke:#181818;stroke-width:0.3;" x1="231" x2="312.6" y1="35.7492" y2="35.7492"/></g><!--class CancelMeetingController--><g id="elem_CancelMeetingController"><rect codeLine="5" fill="#F1F1F1" height="69.8672" id="CancelMeetingController" rx="1.5" ry="1.5" style="stroke:#181818;stroke-width:0.3;" width="214.8" x="164.4" y="77.4"/><ellipse cx="222.45" cy="90.7746" fill="#ADD1B2" rx="6.6" ry="6.6" style="stroke:#181818;stroke-width:0.6;"/><path d="M224.1094,88.2996 Q224.2031,88.1684 224.3156,88.1027 Q224.4281,88.0371 224.5594,88.0371 Q224.7844,88.0371 224.925,88.1965 Q225.0656,88.3465 225.0656,88.7121 L225.0656,89.584 Q225.0656,89.9496 224.925,90.109 Q224.7844,90.2684 224.5594,90.2684 Q224.3531,90.2684 224.2313,90.1465 Q224.1094,90.034 224.0438,89.7246 Q224.0156,89.509 223.9031,89.3965 Q223.7062,89.1715 223.3406,89.0402 Q222.975,88.909 222.6,88.909 Q222.1406,88.909 221.7563,89.1059 Q221.3813,89.3027 221.0812,89.7527 Q220.7906,90.2027 220.7906,90.8215 L220.7906,91.4777 Q220.7906,92.2184 221.325,92.7152 Q221.8594,93.2027 222.8156,93.2027 Q223.3781,93.2027 223.7719,93.0527 Q224.0063,92.959 224.2594,92.6965 Q224.4188,92.5371 224.5031,92.4902 Q224.5969,92.4434 224.7188,92.4434 Q224.9156,92.4434 225.0656,92.6027 Q225.225,92.7527 225.225,92.959 Q225.225,93.1652 225.0187,93.409 Q224.7188,93.7559 224.2406,93.9527 Q223.5938,94.2246 222.8156,94.2246 Q221.9063,94.2246 221.1844,93.8496 Q220.5938,93.5496 220.1813,92.9121 Q219.7687,92.2652 219.7687,91.4965 L219.7687,90.8027 Q219.7687,90.0059 220.1344,89.3215 Q220.5094,88.6277 221.1656,88.2621 Q221.8219,87.8871 222.5625,87.8871 Q223.0031,87.8871 223.3875,87.9902 Q223.7813,88.084 224.1094,88.2996 Z " fill="#000000"/><text fill="#000000" font-family="sans-serif" font-size="7.2" font-style="italic" lengthAdjust="spacing" textLength="40.8" x="261.15" y="88.1695">&#171;Controller&#187;</text><text fill="#000000" font-family="sans-serif" font-size="8.4" lengthAdjust="spacing" textLength="93.6" x="234.75" y="99.041">CancelMeetingController</text><line style="stroke:#181818;stroke-width:0.3;" x1="165" x2="378.6" y1="104.1492" y2="104.1492"/><line style="stroke:#181818;stroke-width:0.3;" x1="165" x2="378.6" y1="108.9492" y2="108.9492"/><ellipse cx="171" cy="117.8355" fill="#84BE84" rx="1.8" ry="1.8" style="stroke:#038048;stroke-width:0.6;"/><text fill="#000000" font-family="sans-serif" font-size="8.4" lengthAdjust="spacing" textLength="199.2" x="176.4" y="120.4137">List&lt;Meeting&gt;: findMeetingsAvailableToCancel(user)</text><rect fill="#F24D5C" height="3.6" style="stroke:#C82930;stroke-width:0.6;" width="3.6" x="169.2" y="127.2082"/><text fill="#000000" font-family="sans-serif" font-size="8.4" lengthAdjust="spacing" textLength="111" x="176.4" y="131.5863">void: cancelMeeting(meeting)</text><rect fill="#F24D5C" height="3.6" style="stroke:#C82930;stroke-width:0.6;" width="3.6" x="169.2" y="138.3809"/><text fill="#000000" font-family="sans-serif" font-size="8.4" lengthAdjust="spacing" textLength="151.2" x="176.4" y="142.759">void : cancelMeetingsInvitation(meeting)</text></g><!--class MeetingRepository--><g id="elem_MeetingRepository"><rect codeLine="11" fill="#F1F1F1" height="58.6945" id="MeetingRepository" rx="1.5" ry="1.5" style="stroke:#181818;stroke-width:0.3;" width="214.8" x="4.2" y="183.6"/><ellipse cx="73.65" cy="196.9746" fill="#ADD1B2" rx="6.6" ry="6.6" style="stroke:#181818;stroke-width:0.6;"/><path d="M75.3094,194.4996 Q75.4031,194.3684 75.5156,194.3027 Q75.6281,194.2371 75.7594,194.2371 Q75.9844,194.2371 76.125,194.3965 Q76.2656,194.5465 76.2656,194.9121 L76.2656,195.784 Q76.2656,196.1496 76.125,196.309 Q75.9844,196.4684 75.7594,196.4684 Q75.5531,196.4684 75.4312,196.3465 Q75.3094,196.234 75.2437,195.9246 Q75.2156,195.709 75.1031,195.5965 Q74.9063,195.3715 74.5406,195.2402 Q74.175,195.109 73.8,195.109 Q73.3406,195.109 72.9563,195.3059 Q72.5813,195.5027 72.2813,195.9527 Q71.9906,196.4027 71.9906,197.0215 L71.9906,197.6777 Q71.9906,198.4184 72.525,198.9152 Q73.0594,199.4027 74.0156,199.4027 Q74.5781,199.4027 74.9719,199.2527 Q75.2063,199.159 75.4594,198.8965 Q75.6187,198.7371 75.7031,198.6902 Q75.7969,198.6434 75.9188,198.6434 Q76.1156,198.6434 76.2656,198.8027 Q76.425,198.9527 76.425,199.159 Q76.425,199.3652 76.2188,199.609 Q75.9188,199.9559 75.4406,200.1527 Q74.7938,200.4246 74.0156,200.4246 Q73.1063,200.4246 72.3844,200.0496 Q71.7938,199.7496 71.3813,199.1121 Q70.9688,198.4652 70.9688,197.6965 L70.9688,197.0027 Q70.9688,196.2059 71.3344,195.5215 Q71.7094,194.8277 72.3656,194.4621 Q73.0219,194.0871 73.7625,194.0871 Q74.2031,194.0871 74.5875,194.1902 Q74.9813,194.284 75.3094,194.4996 Z " fill="#000000"/><text fill="#000000" font-family="sans-serif" font-size="7.2" font-style="italic" lengthAdjust="spacing" textLength="43.8" x="99.45" y="194.3695">&#171;Repository&#187;</text><text fill="#000000" font-family="sans-serif" font-size="8.4" lengthAdjust="spacing" textLength="70.8" x="85.95" y="205.241">MeetingRepository</text><line style="stroke:#181818;stroke-width:0.3;" x1="4.8" x2="218.4" y1="210.3492" y2="210.3492"/><line style="stroke:#181818;stroke-width:0.3;" x1="4.8" x2="218.4" y1="215.1492" y2="215.1492"/><ellipse cx="10.8" cy="224.0355" fill="#84BE84" rx="1.8" ry="1.8" style="stroke:#038048;stroke-width:0.6;"/><text fill="#000000" font-family="sans-serif" font-size="8.4" lengthAdjust="spacing" textLength="199.2" x="16.2" y="226.6137">List&lt;Meeting&gt;: findMeetingsAvailableToCancel(user)</text><rect fill="#F24D5C" height="3.6" style="stroke:#C82930;stroke-width:0.6;" width="3.6" x="9" y="233.4082"/><text fill="#000000" font-family="sans-serif" font-size="8.4" lengthAdjust="spacing" textLength="76.8" x="16.2" y="237.7863">void : save(meeting)</text></g><!--class Meeting--><g id="elem_Meeting"><rect codeLine="17" fill="#F1F1F1" height="114.5578" id="Meeting" rx="1.5" ry="1.5" style="stroke:#181818;stroke-width:0.3;" width="99" x="128.7" y="289.8"/><ellipse cx="147.69" cy="303.1746" fill="#ADD1B2" rx="6.6" ry="6.6" style="stroke:#181818;stroke-width:0.6;"/><path d="M149.3494,300.6996 Q149.4431,300.5684 149.5556,300.5027 Q149.6681,300.4371 149.7994,300.4371 Q150.0244,300.4371 150.165,300.5965 Q150.3056,300.7465 150.3056,301.1121 L150.3056,301.984 Q150.3056,302.3496 150.165,302.509 Q150.0244,302.6684 149.7994,302.6684 Q149.5931,302.6684 149.4713,302.5465 Q149.3494,302.434 149.2838,302.1246 Q149.2556,301.909 149.1431,301.7965 Q148.9463,301.5715 148.5806,301.4402 Q148.215,301.309 147.84,301.309 Q147.3806,301.309 146.9963,301.5059 Q146.6213,301.7027 146.3213,302.1527 Q146.0306,302.6027 146.0306,303.2215 L146.0306,303.8777 Q146.0306,304.6184 146.565,305.1152 Q147.0994,305.6027 148.0556,305.6027 Q148.6181,305.6027 149.0119,305.4527 Q149.2463,305.359 149.4994,305.0965 Q149.6588,304.9371 149.7431,304.8902 Q149.8369,304.8434 149.9588,304.8434 Q150.1556,304.8434 150.3056,305.0027 Q150.465,305.1527 150.465,305.359 Q150.465,305.5652 150.2588,305.809 Q149.9588,306.1559 149.4806,306.3527 Q148.8338,306.6246 148.0556,306.6246 Q147.1463,306.6246 146.4244,306.2496 Q145.8338,305.9496 145.4213,305.3121 Q145.0088,304.6652 145.0088,303.8965 L145.0088,303.2027 Q145.0088,302.4059 145.3744,301.7215 Q145.7494,301.0277 146.4056,300.6621 Q147.0619,300.2871 147.8025,300.2871 Q148.2431,300.2871 148.6275,300.3902 Q149.0213,300.484 149.3494,300.6996 Z " fill="#000000"/><text fill="#000000" font-family="sans-serif" font-size="7.2" font-style="italic" lengthAdjust="spacing" textLength="60" x="157.11" y="300.5695">&#171;Aggregate Root&#187;</text><text fill="#000000" font-family="sans-serif" font-size="8.4" lengthAdjust="spacing" textLength="30" x="172.11" y="311.441">Meeting</text><line style="stroke:#181818;stroke-width:0.3;" x1="129.3" x2="227.1" y1="316.5492" y2="316.5492"/><text fill="#000000" font-family="sans-serif" font-size="8.4" lengthAdjust="spacing" textLength="68.4" x="132.3" y="328.0137">String: description</text><text fill="#000000" font-family="sans-serif" font-size="8.4" lengthAdjust="spacing" textLength="79.2" x="132.3" y="339.1863">LocalTime: startTime</text><text fill="#000000" font-family="sans-serif" font-size="8.4" lengthAdjust="spacing" textLength="76.8" x="132.3" y="350.359">LocalTime: endTime</text><text fill="#000000" font-family="sans-serif" font-size="8.4" lengthAdjust="spacing" textLength="90.6" x="132.3" y="361.5316">DateInterval: timePeriod</text><text fill="#000000" font-family="sans-serif" font-size="8.4" lengthAdjust="spacing" textLength="39.6" x="132.3" y="372.7043">Date: date</text><text fill="#000000" font-family="sans-serif" font-size="8.4" lengthAdjust="spacing" textLength="57.6" x="132.3" y="383.877">User: organizer</text><line style="stroke:#181818;stroke-width:0.3;" x1="129.3" x2="227.1" y1="388.3852" y2="388.3852"/><rect fill="#F24D5C" height="3.6" style="stroke:#C82930;stroke-width:0.6;" width="3.6" x="133.5" y="395.4715"/><text fill="#000000" font-family="sans-serif" font-size="8.4" lengthAdjust="spacing" textLength="83.4" x="140.7" y="399.8496">void : cancelMeeting()</text></g><!--class MeetingInvitation--><g id="elem_MeetingInvitation"><rect codeLine="27" fill="#F1F1F1" height="69.8672" id="MeetingInvitation" rx="1.5" ry="1.5" style="stroke:#181818;stroke-width:0.3;" width="270" x="270" y="312.3"/><ellipse cx="370.65" cy="325.6746" fill="#ADD1B2" rx="6.6" ry="6.6" style="stroke:#181818;stroke-width:0.6;"/><path d="M372.3094,323.1996 Q372.4031,323.0684 372.5156,323.0027 Q372.6281,322.9371 372.7594,322.9371 Q372.9844,322.9371 373.125,323.0965 Q373.2656,323.2465 373.2656,323.6121 L373.2656,324.484 Q373.2656,324.8496 373.125,325.009 Q372.9844,325.1684 372.7594,325.1684 Q372.5531,325.1684 372.4313,325.0465 Q372.3094,324.934 372.2438,324.6246 Q372.2156,324.409 372.1031,324.2965 Q371.9063,324.0715 371.5406,323.9402 Q371.175,323.809 370.8,323.809 Q370.3406,323.809 369.9563,324.0059 Q369.5813,324.2027 369.2813,324.6527 Q368.9906,325.1027 368.9906,325.7215 L368.9906,326.3777 Q368.9906,327.1184 369.525,327.6152 Q370.0594,328.1027 371.0156,328.1027 Q371.5781,328.1027 371.9719,327.9527 Q372.2063,327.859 372.4594,327.5965 Q372.6188,327.4371 372.7031,327.3902 Q372.7969,327.3434 372.9188,327.3434 Q373.1156,327.3434 373.2656,327.5027 Q373.425,327.6527 373.425,327.859 Q373.425,328.0652 373.2188,328.309 Q372.9188,328.6559 372.4406,328.8527 Q371.7938,329.1246 371.0156,329.1246 Q370.1063,329.1246 369.3844,328.7496 Q368.7938,328.4496 368.3812,327.8121 Q367.9688,327.1652 367.9688,326.3965 L367.9688,325.7027 Q367.9688,324.9059 368.3344,324.2215 Q368.7094,323.5277 369.3656,323.1621 Q370.0219,322.7871 370.7625,322.7871 Q371.2031,322.7871 371.5875,322.8902 Q371.9813,322.984 372.3094,323.1996 Z " fill="#000000"/><text fill="#000000" font-family="sans-serif" font-size="7.2" font-style="italic" lengthAdjust="spacing" textLength="26.4" x="401.55" y="323.0695">&#171;Entity&#187;</text><text fill="#000000" font-family="sans-serif" font-size="8.4" lengthAdjust="spacing" textLength="63.6" x="382.95" y="333.941">MeetingInvitation</text><line style="stroke:#181818;stroke-width:0.3;" x1="270.6" x2="539.4" y1="339.0492" y2="339.0492"/><text fill="#000000" font-family="sans-serif" font-size="8.4" lengthAdjust="spacing" textLength="41.4" x="273.6" y="350.5137">int: inviteID</text><text fill="#000000" font-family="sans-serif" font-size="8.4" lengthAdjust="spacing" textLength="64.8" x="273.6" y="361.6863">Meeting: meeting</text><line style="stroke:#181818;stroke-width:0.3;" x1="270.6" x2="539.4" y1="366.1945" y2="366.1945"/><rect fill="#F24D5C" height="3.6" style="stroke:#C82930;stroke-width:0.6;" width="3.6" x="274.8" y="373.2809"/><text fill="#000000" font-family="sans-serif" font-size="8.4" lengthAdjust="spacing" textLength="254.4" x="282" y="377.659">void : changeMeetingInvitationStatusToCanceled(meetingInvitation)</text></g><!--class MeetingInvitationStatus--><g id="elem_MeetingInvitationStatus"><rect codeLine="35" fill="#F1F1F1" height="73.4906" id="MeetingInvitationStatus" rx="1.5" ry="1.5" style="stroke:#181818;stroke-width:0.3;" width="106.8" x="582.6" y="310.5"/><ellipse cx="591.6" cy="320.1" fill="#EB937F" rx="6.6" ry="6.6" style="stroke:#181818;stroke-width:0.6;"/><path d="M590.9156,320.5781 L590.9156,322.0781 L593.5125,322.0781 L593.5125,321.525 Q593.5125,321.1594 593.6531,321 Q593.8031,320.8406 594.0281,320.8406 Q594.2531,320.8406 594.3938,321 Q594.5344,321.1594 594.5344,321.525 L594.5344,323.1 L589.7344,323.1 Q589.3594,323.1 589.2,322.9594 Q589.05,322.8187 589.05,322.5844 Q589.05,322.3594 589.2094,322.2188 Q589.3688,322.0781 589.7344,322.0781 L589.8938,322.0781 L589.8938,318.0844 L589.7344,318.0844 Q589.3594,318.0844 589.2,317.9437 Q589.05,317.8031 589.05,317.5687 Q589.05,317.3438 589.2,317.2031 Q589.3594,317.0625 589.7344,317.0625 L594.3094,317.0625 L594.3094,318.6188 Q594.3094,318.9844 594.1687,319.1438 Q594.0375,319.2938 593.8031,319.2938 Q593.5781,319.2938 593.4375,319.1438 Q593.2969,318.9844 593.2969,318.6188 L593.2969,318.0844 L590.9156,318.0844 L590.9156,319.5563 L591.8063,319.5563 Q591.8063,319.1625 591.8813,319.05 Q592.0406,318.8063 592.3219,318.8063 Q592.5469,318.8063 592.6875,318.9656 Q592.8281,319.1156 592.8281,319.4813 L592.8281,320.6625 Q592.8281,320.9906 592.7531,321.1031 Q592.5938,321.3375 592.3219,321.3375 Q592.0406,321.3375 591.8813,321.0938 Q591.8063,320.9813 591.8063,320.5781 L590.9156,320.5781 Z " fill="#000000"/><text fill="#000000" font-family="sans-serif" font-size="8.4" lengthAdjust="spacing" textLength="87.6" x="600" y="323.5781">MeetingInvitationStatus</text><line style="stroke:#181818;stroke-width:0.3;" x1="583.2" x2="688.8" y1="329.7" y2="329.7"/><text fill="#000000" font-family="sans-serif" font-size="8.4" lengthAdjust="spacing" textLength="36" x="586.2" y="341.1645">PENDING</text><text fill="#000000" font-family="sans-serif" font-size="8.4" lengthAdjust="spacing" textLength="45" x="586.2" y="352.3371">ACCEPTED</text><text fill="#000000" font-family="sans-serif" font-size="8.4" lengthAdjust="spacing" textLength="40.8" x="586.2" y="363.5098">DECLINED</text><text fill="#000000" font-family="sans-serif" font-size="8.4" lengthAdjust="spacing" textLength="44.4" x="586.2" y="374.6824">CANCELED</text><line style="stroke:#181818;stroke-width:0.3;" x1="583.2" x2="688.8" y1="379.1906" y2="379.1906"/></g><!--class MeetingStatus--><g id="elem_MeetingStatus"><rect codeLine="42" fill="#F1F1F1" height="51.1453" id="MeetingStatus" rx="1.5" ry="1.5" style="stroke:#181818;stroke-width:0.3;" width="73.2" x="13.2" y="321.6"/><ellipse cx="22.2" cy="331.2" fill="#EB937F" rx="6.6" ry="6.6" style="stroke:#181818;stroke-width:0.6;"/><path d="M21.5156,331.6781 L21.5156,333.1781 L24.1125,333.1781 L24.1125,332.625 Q24.1125,332.2594 24.2531,332.1 Q24.4031,331.9406 24.6281,331.9406 Q24.8531,331.9406 24.9938,332.1 Q25.1344,332.2594 25.1344,332.625 L25.1344,334.2 L20.3344,334.2 Q19.9594,334.2 19.8,334.0594 Q19.65,333.9188 19.65,333.6844 Q19.65,333.4594 19.8094,333.3187 Q19.9688,333.1781 20.3344,333.1781 L20.4938,333.1781 L20.4938,329.1844 L20.3344,329.1844 Q19.9594,329.1844 19.8,329.0438 Q19.65,328.9031 19.65,328.6688 Q19.65,328.4437 19.8,328.3031 Q19.9594,328.1625 20.3344,328.1625 L24.9094,328.1625 L24.9094,329.7188 Q24.9094,330.0844 24.7688,330.2438 Q24.6375,330.3938 24.4031,330.3938 Q24.1781,330.3938 24.0375,330.2438 Q23.8969,330.0844 23.8969,329.7188 L23.8969,329.1844 L21.5156,329.1844 L21.5156,330.6563 L22.4063,330.6563 Q22.4063,330.2625 22.4813,330.15 Q22.6406,329.9063 22.9219,329.9063 Q23.1469,329.9063 23.2875,330.0656 Q23.4281,330.2156 23.4281,330.5813 L23.4281,331.7625 Q23.4281,332.0906 23.3531,332.2031 Q23.1937,332.4375 22.9219,332.4375 Q22.6406,332.4375 22.4813,332.1937 Q22.4063,332.0813 22.4063,331.6781 L21.5156,331.6781 Z " fill="#000000"/><text fill="#000000" font-family="sans-serif" font-size="8.4" lengthAdjust="spacing" textLength="54" x="30.6" y="334.6781">MeetingStatus</text><line style="stroke:#181818;stroke-width:0.3;" x1="13.8" x2="85.8" y1="340.8" y2="340.8"/><text fill="#000000" font-family="sans-serif" font-size="8.4" lengthAdjust="spacing" textLength="39.6" x="16.8" y="352.2645">CREATED</text><text fill="#000000" font-family="sans-serif" font-size="8.4" lengthAdjust="spacing" textLength="44.4" x="16.8" y="363.4371">CANCELED</text><line style="stroke:#181818;stroke-width:0.3;" x1="13.8" x2="85.8" y1="367.9453" y2="367.9453"/></g><!--class MeetingInvitationRepository--><g id="elem_MeetingInvitationRepository"><rect codeLine="48" fill="#F1F1F1" height="58.6945" id="MeetingInvitationRepository" rx="1.5" ry="1.5" style="stroke:#181818;stroke-width:0.3;" width="263.4" x="325.5" y="183.6"/><ellipse cx="402.45" cy="196.9746" fill="#ADD1B2" rx="6.6" ry="6.6" style="stroke:#181818;stroke-width:0.6;"/><path d="M404.1094,194.4996 Q404.2031,194.3684 404.3156,194.3027 Q404.4281,194.2371 404.5594,194.2371 Q404.7844,194.2371 404.925,194.3965 Q405.0656,194.5465 405.0656,194.9121 L405.0656,195.784 Q405.0656,196.1496 404.925,196.309 Q404.7844,196.4684 404.5594,196.4684 Q404.3531,196.4684 404.2313,196.3465 Q404.1094,196.234 404.0438,195.9246 Q404.0156,195.709 403.9031,195.5965 Q403.7063,195.3715 403.3406,195.2402 Q402.975,195.109 402.6,195.109 Q402.1406,195.109 401.7562,195.3059 Q401.3812,195.5027 401.0813,195.9527 Q400.7906,196.4027 400.7906,197.0215 L400.7906,197.6777 Q400.7906,198.4184 401.325,198.9152 Q401.8594,199.4027 402.8156,199.4027 Q403.3781,199.4027 403.7719,199.2527 Q404.0062,199.159 404.2594,198.8965 Q404.4188,198.7371 404.5031,198.6902 Q404.5969,198.6434 404.7188,198.6434 Q404.9156,198.6434 405.0656,198.8027 Q405.225,198.9527 405.225,199.159 Q405.225,199.3652 405.0188,199.609 Q404.7188,199.9559 404.2406,200.1527 Q403.5938,200.4246 402.8156,200.4246 Q401.9063,200.4246 401.1844,200.0496 Q400.5938,199.7496 400.1813,199.1121 Q399.7688,198.4652 399.7688,197.6965 L399.7688,197.0027 Q399.7688,196.2059 400.1344,195.5215 Q400.5094,194.8277 401.1656,194.4621 Q401.8219,194.0871 402.5625,194.0871 Q403.0031,194.0871 403.3875,194.1902 Q403.7813,194.284 404.1094,194.4996 Z " fill="#000000"/><text fill="#000000" font-family="sans-serif" font-size="7.2" font-style="italic" lengthAdjust="spacing" textLength="43.8" x="445.05" y="194.3695">&#171;Repository&#187;</text><text fill="#000000" font-family="sans-serif" font-size="8.4" lengthAdjust="spacing" textLength="104.4" x="414.75" y="205.241">MeetingInvitationRepository</text><line style="stroke:#181818;stroke-width:0.3;" x1="326.1" x2="588.3" y1="210.3492" y2="210.3492"/><line style="stroke:#181818;stroke-width:0.3;" x1="326.1" x2="588.3" y1="215.1492" y2="215.1492"/><ellipse cx="332.1" cy="224.0355" fill="#84BE84" rx="1.8" ry="1.8" style="stroke:#038048;stroke-width:0.6;"/><text fill="#000000" font-family="sans-serif" font-size="8.4" lengthAdjust="spacing" textLength="247.8" x="337.5" y="226.6137">List&lt;MeetingInvitation&gt;: findMeetingsInvitationOfMeeting(meeting)</text><rect fill="#F24D5C" height="3.6" style="stroke:#C82930;stroke-width:0.6;" width="3.6" x="330.3" y="233.4082"/><text fill="#000000" font-family="sans-serif" font-size="8.4" lengthAdjust="spacing" textLength="110.4" x="337.5" y="237.7863">void : save(meetingInvitation)</text></g><!--link Meeting to MeetingInvitation--><g id="link_Meeting_MeetingInvitation"><path codeLine="54" d="M227.97,347.1 C239.79,347.1 252.972,347.1 266.67,347.1 " fill="none" id="Meeting-to-MeetingInvitation" style="stroke:#181818;stroke-width:0.6;"/><polygon fill="#181818" points="269.784,347.1,264.384,344.7,266.784,347.1,264.384,349.5,269.784,347.1" style="stroke:#181818;stroke-width:0.6;"/><polygon fill="#000000" points="244.05,339.6873,238.6229,337.9239,238.6229,341.4507,244.05,339.6873" style="stroke:#000000;stroke-width:0.6;"/><text fill="#000000" font-family="sans-serif" font-size="7.8" lengthAdjust="spacing" textLength="12.6" x="246.45" y="342.917">has</text><text fill="#000000" font-family="sans-serif" font-size="7.8" lengthAdjust="spacing" textLength="4.2" x="232.4276" y="344.888">1</text><text fill="#000000" font-family="sans-serif" font-size="7.8" lengthAdjust="spacing" textLength="3" x="262.298" y="345.1481">*</text></g><!--link MeetingInvitation to MeetingInvitationStatus--><g id="link_MeetingInvitation_MeetingInvitationStatus"><path codeLine="55" d="M540.042,347.1 C553.788,347.1 567.15,347.1 579.324,347.1 " fill="none" id="MeetingInvitation-to-MeetingInvitationStatus" style="stroke:#181818;stroke-width:0.6;"/><polygon fill="#181818" points="582.39,347.1,576.99,344.7,579.39,347.1,576.99,349.5,582.39,347.1" style="stroke:#181818;stroke-width:0.6;"/><polygon fill="#000000" points="556.5,339.6873,551.0729,337.9239,551.0729,341.4507,556.5,339.6873" style="stroke:#000000;stroke-width:0.6;"/><text fill="#000000" font-family="sans-serif" font-size="7.8" lengthAdjust="spacing" textLength="12.6" x="558.9" y="342.917">has</text><text fill="#000000" font-family="sans-serif" font-size="7.8" lengthAdjust="spacing" textLength="4.2" x="544.9705" y="345.132">1</text><text fill="#000000" font-family="sans-serif" font-size="7.8" lengthAdjust="spacing" textLength="4.2" x="573.5765" y="344.8898">1</text></g><!--reverse link MeetingStatus to Meeting--><g id="link_MeetingStatus_Meeting"><path codeLine="56" d="M89.532,347.1 C101.88,347.1 115.656,347.1 128.592,347.1 " fill="none" id="MeetingStatus-backto-Meeting" style="stroke:#181818;stroke-width:0.6;"/><polygon fill="#181818" points="86.424,347.1,91.824,349.5,89.424,347.1,91.824,344.7,86.424,347.1" style="stroke:#181818;stroke-width:0.6;"/><polygon fill="#000000" points="96.75,339.6873,102.1771,341.4507,102.1771,337.9239,96.75,339.6873" style="stroke:#000000;stroke-width:0.6;"/><text fill="#000000" font-family="sans-serif" font-size="7.8" lengthAdjust="spacing" textLength="12.6" x="105.15" y="342.917">has</text><text fill="#000000" font-family="sans-serif" font-size="7.8" lengthAdjust="spacing" textLength="4.2" x="91.1435" y="344.6972">1</text><text fill="#000000" font-family="sans-serif" font-size="7.8" lengthAdjust="spacing" textLength="4.2" x="119.6252" y="344.8568">1</text></g><!--link CancelMeetingUI to CancelMeetingController--><g id="link_CancelMeetingUI_CancelMeetingController"><path codeLine="58" d="M271.8,41.01 C271.8,50.52 271.8,62.58 271.8,74.034 " fill="none" id="CancelMeetingUI-to-CancelMeetingController" style="stroke:#181818;stroke-width:0.6;stroke-dasharray:7.0,7.0;"/><polygon fill="#181818" points="271.8,77.244,274.2,71.844,271.8,74.244,269.4,71.844,271.8,77.244" style="stroke:#181818;stroke-width:0.6;"/></g><!--link CancelMeetingController to MeetingRepository--><g id="link_CancelMeetingController_MeetingRepository"><path codeLine="59" d="M216.666,147.078 C198.468,158.394 178.35,170.898 160.638,181.914 " fill="none" id="CancelMeetingController-to-MeetingRepository" style="stroke:#181818;stroke-width:0.6;stroke-dasharray:7.0,7.0;"/><polygon fill="#181818" points="158.04,183.528,163.8944,182.7243,160.5902,181.948,161.3665,178.6439,158.04,183.528" style="stroke:#181818;stroke-width:0.6;"/></g><!--link CancelMeetingController to MeetingInvitationRepository--><g id="link_CancelMeetingController_MeetingInvitationRepository"><path codeLine="60" d="M335.604,147.078 C356.754,158.442 380.136,171 400.698,182.046 " fill="none" id="CancelMeetingController-to-MeetingInvitationRepository" style="stroke:#181818;stroke-width:0.6;stroke-dasharray:7.0,7.0;"/><polygon fill="#181818" points="403.452,183.528,399.8253,178.8625,400.8076,182.1113,397.5587,183.0936,403.452,183.528" style="stroke:#181818;stroke-width:0.6;"/></g><!--link CancelMeetingController to Meeting--><g id="link_CancelMeetingController_Meeting"><path codeLine="62" d="M261.936,147.102 C254.01,173.496 242.1,210.702 229.2,242.4 C223.26,256.992 216.186,272.394 209.22,286.746 " fill="none" id="CancelMeetingController-to-Meeting" style="stroke:#181818;stroke-width:0.6;stroke-dasharray:7.0,7.0;"/><polygon fill="#181818" points="207.834,289.602,212.3521,285.7932,209.1447,286.9035,208.0345,283.6961,207.834,289.602" style="stroke:#181818;stroke-width:0.6;"/></g><!--link CancelMeetingController to MeetingInvitation--><g id="link_CancelMeetingController_MeetingInvitation"><path codeLine="63" d="M279.318,147.072 C286.152,174.126 297.816,212.202 315,242.4 C328.968,266.94 349.218,291.012 366.978,309.816 " fill="none" id="CancelMeetingController-to-MeetingInvitation" style="stroke:#181818;stroke-width:0.6;stroke-dasharray:7.0,7.0;"/><polygon fill="#181818" points="369.132,312.084,367.1562,306.5148,367.0671,309.9077,363.6742,309.8186,369.132,312.084" style="stroke:#181818;stroke-width:0.6;"/></g><!--link MeetingRepository to Meeting--><g id="link_MeetingRepository_Meeting"><path codeLine="65" d="M126.054,242.436 C132.57,255.444 140.526,271.32 148.242,286.716 " fill="none" id="MeetingRepository-to-Meeting" style="stroke:#181818;stroke-width:0.6;"/><polygon fill="#181818" points="149.676,289.584,149.4001,283.6811,148.3309,286.9024,145.1096,285.8332,149.676,289.584" style="stroke:#181818;stroke-width:0.6;"/><polygon fill="#000000" points="143.544,268.8694,142.6892,263.2275,139.5362,264.8074,143.544,268.8694" style="stroke:#000000;stroke-width:0.6;"/><text fill="#000000" font-family="sans-serif" font-size="7.8" lengthAdjust="spacing" textLength="19.8" x="147.6" y="269.417">saves</text></g><!--link MeetingInvitationRepository to MeetingInvitation--><g id="link_MeetingInvitationRepository_MeetingInvitation"><path codeLine="66" d="M445.872,242.436 C438.18,262.02 427.938,288.096 419.634,309.246 " fill="none" id="MeetingInvitationRepository-to-MeetingInvitation" style="stroke:#181818;stroke-width:0.6;"/><polygon fill="#181818" points="418.524,312.066,422.7315,307.9167,419.6204,309.2735,418.2636,306.1624,418.524,312.066" style="stroke:#181818;stroke-width:0.6;"/><polygon fill="#000000" points="438.7034,268.9797,442.3285,264.5728,439.0459,263.2836,438.7034,268.9797" style="stroke:#000000;stroke-width:0.6;"/><text fill="#000000" font-family="sans-serif" font-size="7.8" lengthAdjust="spacing" textLength="19.8" x="445.2" y="269.417">saves</text></g><!--SRC=[hLJRQkCm47tNLmn-IdT9eQyc68nZ5aCs6zBa0xJsn1KeKf4KGtVPVz_ntV6bj50_s1xDEJEZCoEbabiB4LSfof-8JgZydC1cSqw20FwoVuobKqIabJDQIZI4x8sA0VHyXvsmRjEW0nykGcMDPSE22yb_IppfEkZgPj4yLCGr55faFgJ3RAjh_Hr2O8InYIg4uqverSExuXlG4L-r5KwRDogxDxwgRAh9yWBlyjyNG6d3F3UOSuTmrDe5GPtvsHbo-v2XJOruBRTHhUzqokL9N952EsvS-JjseCgwvIq5JfH3Kt3fWwFb0ngXiyv9AUXTcMSgtmTjSgx47pJlYBkQIjdBJNkAbHFkhTsBKCwd5_ansLOh3SU7HXasolN2LOwJmC_qkTbMRSnQNNl40olhGdMxmWAxQUmXtc-J_O_gFuoY-72AwygsSRHBzeqHXVietf4n2bg7gYD5npWypU2NrFdSoFMyqV3rZb-Nzq_5S0A7IfKrjbFeFNcm3i3xvisqquSNRY5WKqzBU_8MvHwHQuh4YxldZT1iVFqyFWPB5mvRkeXApkISVmGzrops4UBdWdVo3qPYlUw0JUjcbPzdtFMivVu7]--></g></svg>