<?xml version="1.0" encoding="us-ascii" standalone="no"?><svg xmlns="http://www.w3.org/2000/svg" xmlns:xlink="http://www.w3.org/1999/xlink" contentStyleType="text/css" height="624px" preserveAspectRatio="none" style="width:1023px;height:624px;background:#FFFFFF;" version="1.1" viewBox="0 0 1023 624" width="1023px" zoomAndPan="magnify"><defs/><g><rect fill="none" height="163.8633" style="stroke:#000000;stroke-width:1.5;" width="739.5" x="277.5" y="303.6621"/><line style="stroke:#181818;stroke-width:0.5;stroke-dasharray:5.0,5.0;" x1="34" x2="34" y1="81.4883" y2="543.1465"/><line style="stroke:#181818;stroke-width:0.5;stroke-dasharray:5.0,5.0;" x1="192.5" x2="192.5" y1="81.4883" y2="543.1465"/><line style="stroke:#181818;stroke-width:0.5;stroke-dasharray:5.0,5.0;" x1="394.5" x2="394.5" y1="81.4883" y2="543.1465"/><line style="stroke:#181818;stroke-width:0.5;stroke-dasharray:5.0,5.0;" x1="623" x2="623" y1="81.4883" y2="543.1465"/><line style="stroke:#181818;stroke-width:0.5;stroke-dasharray:5.0,5.0;" x1="760" x2="760" y1="81.4883" y2="543.1465"/><line style="stroke:#181818;stroke-width:0.5;stroke-dasharray:5.0,5.0;" x1="861" x2="861" y1="81.4883" y2="543.1465"/><line style="stroke:#181818;stroke-width:0.5;stroke-dasharray:5.0,5.0;" x1="960" x2="960" y1="81.4883" y2="543.1465"/><text fill="#000000" font-family="FG Virgil" font-size="14" lengthAdjust="spacing" textLength="53" x="5" y="78.5352">Student</text><ellipse cx="34.5" cy="13.5" fill="#E3E3E3" rx="8" ry="8" style="stroke:#181818;stroke-width:0.5;"/><path d="M34.5,21.5 L34.5,48.5 M21.5,29.5 L47.5,29.5 M34.5,48.5 L21.5,63.5 M34.5,48.5 L47.5,63.5 " fill="none" style="stroke:#181818;stroke-width:0.5;"/><text fill="#000000" font-family="FG Virgil" font-size="14" lengthAdjust="spacing" textLength="53" x="5" y="555.6816">Student</text><ellipse cx="34.5" cy="567.1348" fill="#E3E3E3" rx="8" ry="8" style="stroke:#181818;stroke-width:0.5;"/><path d="M34.5,575.1348 L34.5,602.1348 M21.5,583.1348 L47.5,583.1348 M34.5,602.1348 L21.5,617.1348 M34.5,602.1348 L47.5,617.1348 " fill="none" style="stroke:#181818;stroke-width:0.5;"/><rect fill="#E3E3E3" height="30.4883" rx="2.5" ry="2.5" style="stroke:#181818;stroke-width:0.5;" width="158" x="113.5" y="50"/><text fill="#000000" font-family="FG Virgil" font-size="14" lengthAdjust="spacing" textLength="144" x="120.5" y="70.5352">RequestEnrollmentUI</text><rect fill="#E3E3E3" height="30.4883" rx="2.5" ry="2.5" style="stroke:#181818;stroke-width:0.5;" width="158" x="113.5" y="542.1465"/><text fill="#000000" font-family="FG Virgil" font-size="14" lengthAdjust="spacing" textLength="144" x="120.5" y="562.6816">RequestEnrollmentUI</text><rect fill="#E3E3E3" height="30.4883" rx="2.5" ry="2.5" style="stroke:#181818;stroke-width:0.5;" width="214" x="287.5" y="50"/><text fill="#000000" font-family="FG Virgil" font-size="14" lengthAdjust="spacing" textLength="200" x="294.5" y="70.5352">RequestEnrollmentController</text><rect fill="#E3E3E3" height="30.4883" rx="2.5" ry="2.5" style="stroke:#181818;stroke-width:0.5;" width="214" x="287.5" y="542.1465"/><text fill="#000000" font-family="FG Virgil" font-size="14" lengthAdjust="spacing" textLength="200" x="294.5" y="562.6816">RequestEnrollmentController</text><rect fill="#E3E3E3" height="30.4883" rx="2.5" ry="2.5" style="stroke:#181818;stroke-width:0.5;" width="157" x="545" y="50"/><text fill="#000000" font-family="FG Virgil" font-size="14" lengthAdjust="spacing" textLength="143" x="552" y="70.5352">AuthorizationService</text><rect fill="#E3E3E3" height="30.4883" rx="2.5" ry="2.5" style="stroke:#181818;stroke-width:0.5;" width="157" x="545" y="542.1465"/><text fill="#000000" font-family="FG Virgil" font-size="14" lengthAdjust="spacing" textLength="143" x="552" y="562.6816">AuthorizationService</text><rect fill="#E3E3E3" height="30.4883" rx="2.5" ry="2.5" style="stroke:#181818;stroke-width:0.5;" width="97" x="712" y="50"/><text fill="#000000" font-family="FG Virgil" font-size="14" lengthAdjust="spacing" textLength="83" x="719" y="70.5352">UserSession</text><rect fill="#E3E3E3" height="30.4883" rx="2.5" ry="2.5" style="stroke:#181818;stroke-width:0.5;" width="97" x="712" y="542.1465"/><text fill="#000000" font-family="FG Virgil" font-size="14" lengthAdjust="spacing" textLength="83" x="719" y="562.6816">UserSession</text><rect fill="#E3E3E3" height="30.4883" rx="2.5" ry="2.5" style="stroke:#181818;stroke-width:0.5;" width="85" x="819" y="50"/><text fill="#000000" font-family="FG Virgil" font-size="14" lengthAdjust="spacing" textLength="71" x="826" y="70.5352">ClientUser</text><rect fill="#E3E3E3" height="30.4883" rx="2.5" ry="2.5" style="stroke:#181818;stroke-width:0.5;" width="85" x="819" y="542.1465"/><text fill="#000000" font-family="FG Virgil" font-size="14" lengthAdjust="spacing" textLength="71" x="826" y="562.6816">ClientUser</text><rect fill="#E3E3E3" height="30.4883" rx="2.5" ry="2.5" style="stroke:#181818;stroke-width:0.5;" width="93" x="914" y="50"/><text fill="#000000" font-family="FG Virgil" font-size="14" lengthAdjust="spacing" textLength="79" x="921" y="70.5352">SystemUser</text><rect fill="#E3E3E3" height="30.4883" rx="2.5" ry="2.5" style="stroke:#181818;stroke-width:0.5;" width="93" x="914" y="542.1465"/><text fill="#000000" font-family="FG Virgil" font-size="14" lengthAdjust="spacing" textLength="79" x="921" y="562.6816">SystemUser</text><polygon fill="#181818" points="180.5,108.7988,190.5,112.7988,180.5,116.7988,184.5,112.7988" style="stroke:#181818;stroke-width:1.0;"/><line style="stroke:#181818;stroke-width:1.0;" x1="34.5" x2="186.5" y1="112.7988" y2="112.7988"/><text fill="#000000" font-family="FG Virgil" font-size="13" font-weight="bold" lengthAdjust="spacing" textLength="9" x="41.5" y="108.0566">1</text><text fill="#000000" font-family="FG Virgil" font-size="13" lengthAdjust="spacing" textLength="121" x="54.5" y="108.0566">login in the system</text><polygon fill="#181818" points="382.5,138.1094,392.5,142.1094,382.5,146.1094,386.5,142.1094" style="stroke:#181818;stroke-width:1.0;"/><line style="stroke:#181818;stroke-width:1.0;" x1="192.5" x2="388.5" y1="142.1094" y2="142.1094"/><text fill="#000000" font-family="FG Virgil" font-size="13" font-weight="bold" lengthAdjust="spacing" textLength="9" x="199.5" y="137.3672">2</text><text fill="#000000" font-family="FG Virgil" font-size="13" lengthAdjust="spacing" textLength="147" x="212.5" y="137.3672">theController = create()</text><polygon fill="#181818" points="382.5,167.4199,392.5,171.4199,382.5,175.4199,386.5,171.4199" style="stroke:#181818;stroke-width:1.0;"/><line style="stroke:#181818;stroke-width:1.0;" x1="192.5" x2="388.5" y1="171.4199" y2="171.4199"/><text fill="#000000" font-family="FG Virgil" font-size="13" font-weight="bold" lengthAdjust="spacing" textLength="9" x="199.5" y="166.6777">3</text><text fill="#000000" font-family="FG Virgil" font-size="13" lengthAdjust="spacing" textLength="165" x="212.5" y="166.6777">student = loggedStudent()</text><polygon fill="#181818" points="611.5,196.7305,621.5,200.7305,611.5,204.7305,615.5,200.7305" style="stroke:#181818;stroke-width:1.0;"/><line style="stroke:#181818;stroke-width:1.0;" x1="394.5" x2="617.5" y1="200.7305" y2="200.7305"/><text fill="#000000" font-family="FG Virgil" font-size="13" font-weight="bold" lengthAdjust="spacing" textLength="9" x="401.5" y="195.9883">4</text><text fill="#000000" font-family="FG Virgil" font-size="13" lengthAdjust="spacing" textLength="192" x="414.5" y="195.9883">authorizationService = create()</text><polygon fill="#181818" points="611.5,226.041,621.5,230.041,611.5,234.041,615.5,230.041" style="stroke:#181818;stroke-width:1.0;"/><line style="stroke:#181818;stroke-width:1.0;" x1="394.5" x2="617.5" y1="230.041" y2="230.041"/><text fill="#000000" font-family="FG Virgil" font-size="13" font-weight="bold" lengthAdjust="spacing" textLength="9" x="401.5" y="225.2988">5</text><text fill="#000000" font-family="FG Virgil" font-size="13" lengthAdjust="spacing" textLength="149" x="414.5" y="225.2988">userSession = session()</text><polygon fill="#181818" points="748.5,255.3516,758.5,259.3516,748.5,263.3516,752.5,259.3516" style="stroke:#181818;stroke-width:1.0;"/><line style="stroke:#181818;stroke-width:1.0;" x1="394.5" x2="754.5" y1="259.3516" y2="259.3516"/><text fill="#000000" font-family="FG Virgil" font-size="13" font-weight="bold" lengthAdjust="spacing" textLength="9" x="401.5" y="254.6094">6</text><text fill="#000000" font-family="FG Virgil" font-size="13" lengthAdjust="spacing" textLength="139" x="414.5" y="254.6094">userSession = create()</text><polygon fill="#181818" points="748.5,284.6621,758.5,288.6621,748.5,292.6621,752.5,288.6621" style="stroke:#181818;stroke-width:1.0;"/><line style="stroke:#181818;stroke-width:1.0;" x1="394.5" x2="754.5" y1="288.6621" y2="288.6621"/><text fill="#000000" font-family="FG Virgil" font-size="13" font-weight="bold" lengthAdjust="spacing" textLength="9" x="401.5" y="283.9199">7</text><text fill="#000000" font-family="FG Virgil" font-size="13" lengthAdjust="spacing" textLength="130" x="414.5" y="283.9199">present = isPresent()</text><path d="M277.5,303.6621 L339.5,303.6621 L339.5,310.9727 L329.5,320.9727 L277.5,320.9727 L277.5,303.6621 " fill="#EEEEEE" style="stroke:#000000;stroke-width:1.5;"/><rect fill="none" height="163.8633" style="stroke:#000000;stroke-width:1.5;" width="739.5" x="277.5" y="303.6621"/><text fill="#000000" font-family="FG Virgil" font-size="13" font-weight="bold" lengthAdjust="spacing" textLength="17" x="292.5" y="317.2305">alt</text><text fill="#000000" font-family="FG Virgil" font-size="11" font-weight="bold" lengthAdjust="spacing" textLength="89" x="354.5" y="316.2969">[present is true]</text><polygon fill="#181818" points="748.5,338.2832,758.5,342.2832,748.5,346.2832,752.5,342.2832" style="stroke:#181818;stroke-width:1.0;"/><line style="stroke:#181818;stroke-width:1.0;" x1="394.5" x2="754.5" y1="342.2832" y2="342.2832"/><text fill="#000000" font-family="FG Virgil" font-size="13" font-weight="bold" lengthAdjust="spacing" textLength="9" x="401.5" y="337.541">8</text><text fill="#000000" font-family="FG Virgil" font-size="13" lengthAdjust="spacing" textLength="109" x="414.5" y="337.541">clientUser = get()</text><polygon fill="#181818" points="849.5,367.5938,859.5,371.5938,849.5,375.5938,853.5,371.5938" style="stroke:#181818;stroke-width:1.0;"/><line style="stroke:#181818;stroke-width:1.0;" x1="394.5" x2="855.5" y1="371.5938" y2="371.5938"/><text fill="#000000" font-family="FG Virgil" font-size="13" font-weight="bold" lengthAdjust="spacing" textLength="9" x="401.5" y="366.8516">9</text><text fill="#000000" font-family="FG Virgil" font-size="13" lengthAdjust="spacing" textLength="127" x="414.5" y="366.8516">clientUser = create()</text><polygon fill="#181818" points="849.5,396.9043,859.5,400.9043,849.5,404.9043,853.5,400.9043" style="stroke:#181818;stroke-width:1.0;"/><line style="stroke:#181818;stroke-width:1.0;" x1="394.5" x2="855.5" y1="400.9043" y2="400.9043"/><text fill="#000000" font-family="FG Virgil" font-size="13" font-weight="bold" lengthAdjust="spacing" textLength="18" x="401.5" y="396.1621">10</text><text fill="#000000" font-family="FG Virgil" font-size="13" lengthAdjust="spacing" textLength="188" x="423.5" y="396.1621">student = authenticatedUser()</text><polygon fill="#181818" points="948.5,426.2148,958.5,430.2148,948.5,434.2148,952.5,430.2148" style="stroke:#181818;stroke-width:1.0;"/><line style="stroke:#181818;stroke-width:1.0;" x1="394.5" x2="954.5" y1="430.2148" y2="430.2148"/><text fill="#000000" font-family="FG Virgil" font-size="13" font-weight="bold" lengthAdjust="spacing" textLength="18" x="401.5" y="425.4727">11</text><text fill="#000000" font-family="FG Virgil" font-size="13" lengthAdjust="spacing" textLength="112" x="423.5" y="425.4727">student = create()</text><polygon fill="#181818" points="405.5,455.5254,395.5,459.5254,405.5,463.5254,401.5,459.5254" style="stroke:#181818;stroke-width:1.0;"/><line style="stroke:#181818;stroke-width:1.0;stroke-dasharray:2.0,2.0;" x1="399.5" x2="959.5" y1="459.5254" y2="459.5254"/><text fill="#000000" font-family="FG Virgil" font-size="13" font-weight="bold" lengthAdjust="spacing" textLength="18" x="411.5" y="454.7832">12</text><text fill="#000000" font-family="FG Virgil" font-size="13" lengthAdjust="spacing" textLength="48" x="433.5" y="454.7832">student</text><polygon fill="#181818" points="203.5,491.8359,193.5,495.8359,203.5,499.8359,199.5,495.8359" style="stroke:#181818;stroke-width:1.0;"/><line style="stroke:#181818;stroke-width:1.0;stroke-dasharray:2.0,2.0;" x1="197.5" x2="393.5" y1="495.8359" y2="495.8359"/><text fill="#000000" font-family="FG Virgil" font-size="13" font-weight="bold" lengthAdjust="spacing" textLength="18" x="209.5" y="491.0938">13</text><text fill="#000000" font-family="FG Virgil" font-size="13" lengthAdjust="spacing" textLength="4" x="231.5" y="491.0938">&#160;</text><polygon fill="#181818" points="45.5,521.1465,35.5,525.1465,45.5,529.1465,41.5,525.1465" style="stroke:#181818;stroke-width:1.0;"/><line style="stroke:#181818;stroke-width:1.0;stroke-dasharray:2.0,2.0;" x1="39.5" x2="191.5" y1="525.1465" y2="525.1465"/><text fill="#000000" font-family="FG Virgil" font-size="13" font-weight="bold" lengthAdjust="spacing" textLength="18" x="51.5" y="520.4043">14</text><text fill="#000000" font-family="FG Virgil" font-size="13" lengthAdjust="spacing" textLength="4" x="73.5" y="520.4043">&#160;</text><!--SRC=[dPDDJyCm38Rl-HM-0OTjzqb3GXD3N12Y6lUGUcsqV9JO0OrVJx9EQpULgQFguOqTFtrJEpSrSpEVpHeZ7KThfihR6MsrQsIGTbgpDUAu1EkTLtNm5e53n5wcaMehAonuPn02AkxbIjp8Q7Zb7R_8LBfwWdSTAjqdKorB_wrT1Hjf28MGaRsBzWD3qefzW89ZYOw5E0YOtCCRVaOaVdJ16sDJSFqy1-ChxI2zN2FGZXYj40Cx1m7Bv39h3FDStorX0IgWPBoz-n-D3hONsM25vU4OWxZUPnFs8NBjW_wHhBqhC7nfXNEG0z7B9iTG8s4ea2Z54enQDOAsxkhE8QCTdJ2QWDJ-BaslhSu8QVYOqjIEeO3qNCDMHkUUqRwh5Ux18nZBOzaPeZlXbPHk9d8taz8gWSgS74ahzlDzJZirrEs1oSWf5G9TURbVmzVlZxkHdRRaNm00]--></g></svg>