<?xml version="1.0" encoding="us-ascii" standalone="no"?><svg xmlns="http://www.w3.org/2000/svg" xmlns:xlink="http://www.w3.org/1999/xlink" contentStyleType="text/css" height="337px" preserveAspectRatio="none" style="width:475px;height:337px;background:#FFFFFF;" version="1.1" viewBox="0 0 475 337" width="475px" zoomAndPan="magnify"><defs/><g><!--class ListOfMyGradesUI--><g id="elem_ListOfMyGradesUI"><rect codeLine="2" fill="#F1F1F1" height="56.6211" id="ListOfMyGradesUI" rx="2.5" ry="2.5" style="stroke:#181818;stroke-width:0.5;" width="152" x="161.5" y="7"/><ellipse cx="176.5" cy="27.3105" fill="#ADD1B2" rx="11" ry="11" style="stroke:#181818;stroke-width:1.0;"/><path d="M179.4731,32.9536 Q178.8921,33.2524 178.2529,33.4019 Q177.6138,33.5513 176.9082,33.5513 Q174.4014,33.5513 173.0815,31.8994 Q171.7617,30.2476 171.7617,27.1265 Q171.7617,23.9971 173.0815,22.3452 Q174.4014,20.6934 176.9082,20.6934 Q177.6138,20.6934 178.2612,20.8428 Q178.9087,20.9922 179.4731,21.291 L179.4731,24.0137 Q178.8423,23.4326 178.2488,23.1628 Q177.6553,22.8931 177.0244,22.8931 Q175.6797,22.8931 174.9949,23.9597 Q174.3101,25.0264 174.3101,27.1265 Q174.3101,29.2183 174.9949,30.2849 Q175.6797,31.3516 177.0244,31.3516 Q177.6553,31.3516 178.2488,31.0818 Q178.8423,30.812 179.4731,30.231 Z " fill="#000000"/><text fill="#000000" font-family="sans-serif" font-size="12" font-style="italic" lengthAdjust="spacing" textLength="23" x="239" y="23.6016">&#171;UI&#187;</text><text fill="#000000" font-family="sans-serif" font-size="14" lengthAdjust="spacing" textLength="120" x="190.5" y="39.668">ListOfMyGradesUI</text><line style="stroke:#181818;stroke-width:0.5;" x1="162.5" x2="312.5" y1="47.6211" y2="47.6211"/><line style="stroke:#181818;stroke-width:0.5;" x1="162.5" x2="312.5" y1="55.6211" y2="55.6211"/></g><!--class ListOfMyGradesController--><g id="elem_ListOfMyGradesController"><rect codeLine="5" fill="#F1F1F1" height="73.1094" id="ListOfMyGradesController" rx="2.5" ry="2.5" style="stroke:#181818;stroke-width:0.5;" width="366" x="54.5" y="124"/><ellipse cx="145.25" cy="144.3105" fill="#ADD1B2" rx="11" ry="11" style="stroke:#181818;stroke-width:1.0;"/><path d="M148.2231,149.9536 Q147.6421,150.2524 147.0029,150.4019 Q146.3638,150.5513 145.6582,150.5513 Q143.1514,150.5513 141.8315,148.8994 Q140.5117,147.2476 140.5117,144.1265 Q140.5117,140.9971 141.8315,139.3452 Q143.1514,137.6934 145.6582,137.6934 Q146.3638,137.6934 147.0112,137.8428 Q147.6587,137.9922 148.2231,138.291 L148.2231,141.0137 Q147.5923,140.4326 146.9988,140.1628 Q146.4053,139.8931 145.7744,139.8931 Q144.4297,139.8931 143.7449,140.9597 Q143.0601,142.0264 143.0601,144.1265 Q143.0601,146.2183 143.7449,147.2849 Q144.4297,148.3516 145.7744,148.3516 Q146.4053,148.3516 146.9988,148.0818 Q147.5923,147.812 148.2231,147.231 Z " fill="#000000"/><text fill="#000000" font-family="sans-serif" font-size="12" font-style="italic" lengthAdjust="spacing" textLength="68" x="219.75" y="140.6016">&#171;Controller&#187;</text><text fill="#000000" font-family="sans-serif" font-size="14" lengthAdjust="spacing" textLength="176" x="165.75" y="156.668">ListOfMyGradesController</text><line style="stroke:#181818;stroke-width:0.5;" x1="55.5" x2="419.5" y1="164.6211" y2="164.6211"/><line style="stroke:#181818;stroke-width:0.5;" x1="55.5" x2="419.5" y1="172.6211" y2="172.6211"/><ellipse cx="65.5" cy="186.3652" fill="#84BE84" rx="3" ry="3" style="stroke:#038048;stroke-width:1.0;"/><text fill="#000000" font-family="sans-serif" font-size="14" lengthAdjust="spacing" textLength="340" x="74.5" y="190.1563">Iterable&lt;ExamEnrollment&gt; listMyGrades(student)</text></g><!--class ExamEnrollmentRepository--><g id="elem_ExamEnrollmentRepository"><rect codeLine="9" fill="#F1F1F1" height="73.1094" id="ExamEnrollmentRepository" rx="2.5" ry="2.5" style="stroke:#181818;stroke-width:0.5;" width="461" x="7" y="257"/><ellipse cx="140.25" cy="277.3105" fill="#ADD1B2" rx="11" ry="11" style="stroke:#181818;stroke-width:1.0;"/><path d="M143.2231,282.9536 Q142.6421,283.2524 142.0029,283.4019 Q141.3638,283.5513 140.6582,283.5513 Q138.1514,283.5513 136.8315,281.8994 Q135.5117,280.2476 135.5117,277.1265 Q135.5117,273.9971 136.8315,272.3452 Q138.1514,270.6934 140.6582,270.6934 Q141.3638,270.6934 142.0112,270.8428 Q142.6587,270.9922 143.2231,271.291 L143.2231,274.0137 Q142.5923,273.4326 141.9988,273.1628 Q141.4053,272.8931 140.7744,272.8931 Q139.4297,272.8931 138.7449,273.9597 Q138.0601,275.0264 138.0601,277.1265 Q138.0601,279.2183 138.7449,280.2849 Q139.4297,281.3516 140.7744,281.3516 Q141.4053,281.3516 141.9988,281.0818 Q142.5923,280.812 143.2231,280.231 Z " fill="#000000"/><text fill="#000000" font-family="sans-serif" font-size="12" font-style="italic" lengthAdjust="spacing" textLength="73" x="217.25" y="273.6016">&#171;Repository&#187;</text><text fill="#000000" font-family="sans-serif" font-size="14" lengthAdjust="spacing" textLength="186" x="160.75" y="289.668">ExamEnrollmentRepository</text><line style="stroke:#181818;stroke-width:0.5;" x1="8" x2="467" y1="297.6211" y2="297.6211"/><line style="stroke:#181818;stroke-width:0.5;" x1="8" x2="467" y1="305.6211" y2="305.6211"/><ellipse cx="18" cy="319.3652" fill="#84BE84" rx="3" ry="3" style="stroke:#038048;stroke-width:1.0;"/><text fill="#000000" font-family="sans-serif" font-size="14" lengthAdjust="spacing" textLength="435" x="27" y="323.1563">Iterable&lt;ExamEnrollment&gt; findExamGradesOfStudent(student)</text></g><!--link ListOfMyGradesUI to ListOfMyGradesController--><g id="link_ListOfMyGradesUI_ListOfMyGradesController"><path codeLine="13" d="M237.5,64.41 C237.5,80.2 237.5,100.26 237.5,117.88 " fill="none" id="ListOfMyGradesUI-to-ListOfMyGradesController" style="stroke:#181818;stroke-width:1.0;stroke-dasharray:7.0,7.0;"/><polygon fill="#181818" points="237.5,122.75,241.5,113.75,237.5,117.75,233.5,113.75,237.5,122.75" style="stroke:#181818;stroke-width:1.0;"/></g><!--link ListOfMyGradesController to ExamEnrollmentRepository--><g id="link_ListOfMyGradesController_ExamEnrollmentRepository"><path codeLine="14" d="M237.5,197.3 C237.5,213.9 237.5,233.74 237.5,251 " fill="none" id="ListOfMyGradesController-to-ExamEnrollmentRepository" style="stroke:#181818;stroke-width:1.0;stroke-dasharray:7.0,7.0;"/><polygon fill="#181818" points="237.5,255.75,241.5,246.75,237.5,250.75,233.5,246.75,237.5,255.75" style="stroke:#181818;stroke-width:1.0;"/></g><!--SRC=[Iyv9B2vMyCaiBl5FywrqBqfCIIqEzLImiGdrjBDJgEQgvU9AngB4EJ-lf2W_9oUr2AWKmG5hKG02RGNFajIYnAISL1lNYiHSrpoGV6vgNecTGWxG89Wn6iKbfIb0KKs4FQZAWr8ByeipI_ABAe7s83Z4s9EMcPS24eFOv9yM3B4AnKeCV-lfsU7qAHVE803fmkLkBYu0]--></g></svg>