<?xml version="1.0" encoding="us-ascii" standalone="no"?><svg xmlns="http://www.w3.org/2000/svg" xmlns:xlink="http://www.w3.org/1999/xlink" contentStyleType="text/css" height="444px" preserveAspectRatio="none" style="width:228px;height:444px;background:#FFFFFF;" version="1.1" viewBox="0 0 228 444" width="228px" zoomAndPan="magnify"><defs/><g><!--class DeactivateUserUI--><g id="elem_DeactivateUserUI"><rect codeLine="2" fill="#F1F1F1" height="68.1938" id="DeactivateUserUI" rx="2" ry="2" style="stroke:#181818;stroke-width:0.4000000000000001;" width="112" x="62" y="5.6"/><ellipse cx="74" cy="18.4" fill="#ADD1B2" rx="8.8" ry="8.8" style="stroke:#181818;stroke-width:0.8000000000000002;"/><path d="M76.2125,15.1 Q76.3375,14.925 76.4875,14.8375 Q76.6375,14.75 76.8125,14.75 Q77.1125,14.75 77.3,14.9625 Q77.4875,15.1625 77.4875,15.65 L77.4875,16.8125 Q77.4875,17.3 77.3,17.5125 Q77.1125,17.725 76.8125,17.725 Q76.5375,17.725 76.375,17.5625 Q76.2125,17.4125 76.125,17 Q76.0875,16.7125 75.9375,16.5625 Q75.675,16.2625 75.1875,16.0875 Q74.7,15.9125 74.2,15.9125 Q73.5875,15.9125 73.075,16.175 Q72.575,16.4375 72.175,17.0375 Q71.7875,17.6375 71.7875,18.4625 L71.7875,19.3375 Q71.7875,20.325 72.5,20.9875 Q73.2125,21.6375 74.4875,21.6375 Q75.2375,21.6375 75.7625,21.4375 Q76.075,21.3125 76.4125,20.9625 Q76.625,20.75 76.7375,20.6875 Q76.8625,20.625 77.025,20.625 Q77.2875,20.625 77.4875,20.8375 Q77.7,21.0375 77.7,21.3125 Q77.7,21.5875 77.425,21.9125 Q77.025,22.375 76.3875,22.6375 Q75.525,23 74.4875,23 Q73.275,23 72.3125,22.5 Q71.525,22.1 70.975,21.25 Q70.425,20.3875 70.425,19.3625 L70.425,18.4375 Q70.425,17.375 70.9125,16.4625 Q71.4125,15.5375 72.2875,15.05 Q73.1625,14.55 74.15,14.55 Q74.7375,14.55 75.25,14.6875 Q75.775,14.8125 76.2125,15.1 Z " fill="#000000"/><text fill="#000000" font-family="sans-serif" font-size="11.2" lengthAdjust="spacing" textLength="86.4" x="85.2" y="23.0375">DeactivateUserUI</text><line style="stroke:#181818;stroke-width:0.4000000000000001;" x1="62.8" x2="173.2" y1="31.2" y2="31.2"/><line style="stroke:#181818;stroke-width:0.4000000000000001;" x1="62.8" x2="173.2" y1="37.6" y2="37.6"/><ellipse cx="70.8" cy="49.4484" fill="#84BE84" rx="2.4" ry="2.4" style="stroke:#038048;stroke-width:0.8000000000000002;"/><text fill="#000000" font-family="sans-serif" font-size="11.2" lengthAdjust="spacing" textLength="48" x="78" y="52.8859">doShow()</text><ellipse cx="70.8" cy="64.3453" fill="#84BE84" rx="2.4" ry="2.4" style="stroke:#038048;stroke-width:0.8000000000000002;"/><text fill="#000000" font-family="sans-serif" font-size="11.2" lengthAdjust="spacing" textLength="51.2" x="78" y="67.7828">headline()</text></g><!--class DeactivateUserController--><g id="elem_DeactivateUserController"><rect codeLine="8" fill="#F1F1F1" height="68.1938" id="DeactivateUserController" rx="2" ry="2" style="stroke:#181818;stroke-width:0.4000000000000001;" width="152" x="42" y="122.4"/><ellipse cx="54" cy="135.2" fill="#ADD1B2" rx="8.8" ry="8.8" style="stroke:#181818;stroke-width:0.8000000000000002;"/><path d="M56.2125,131.9 Q56.3375,131.725 56.4875,131.6375 Q56.6375,131.55 56.8125,131.55 Q57.1125,131.55 57.3,131.7625 Q57.4875,131.9625 57.4875,132.45 L57.4875,133.6125 Q57.4875,134.1 57.3,134.3125 Q57.1125,134.525 56.8125,134.525 Q56.5375,134.525 56.375,134.3625 Q56.2125,134.2125 56.125,133.8 Q56.0875,133.5125 55.9375,133.3625 Q55.675,133.0625 55.1875,132.8875 Q54.7,132.7125 54.2,132.7125 Q53.5875,132.7125 53.075,132.975 Q52.575,133.2375 52.175,133.8375 Q51.7875,134.4375 51.7875,135.2625 L51.7875,136.1375 Q51.7875,137.125 52.5,137.7875 Q53.2125,138.4375 54.4875,138.4375 Q55.2375,138.4375 55.7625,138.2375 Q56.075,138.1125 56.4125,137.7625 Q56.625,137.55 56.7375,137.4875 Q56.8625,137.425 57.025,137.425 Q57.2875,137.425 57.4875,137.6375 Q57.7,137.8375 57.7,138.1125 Q57.7,138.3875 57.425,138.7125 Q57.025,139.175 56.3875,139.4375 Q55.525,139.8 54.4875,139.8 Q53.275,139.8 52.3125,139.3 Q51.525,138.9 50.975,138.05 Q50.425,137.1875 50.425,136.1625 L50.425,135.2375 Q50.425,134.175 50.9125,133.2625 Q51.4125,132.3375 52.2875,131.85 Q53.1625,131.35 54.15,131.35 Q54.7375,131.35 55.25,131.4875 Q55.775,131.6125 56.2125,131.9 Z " fill="#000000"/><text fill="#000000" font-family="sans-serif" font-size="11.2" lengthAdjust="spacing" textLength="126.4" x="65.2" y="139.8375">DeactivateUserController</text><line style="stroke:#181818;stroke-width:0.4000000000000001;" x1="42.8" x2="193.2" y1="148" y2="148"/><line style="stroke:#181818;stroke-width:0.4000000000000001;" x1="42.8" x2="193.2" y1="154.4" y2="154.4"/><ellipse cx="50.8" cy="166.2484" fill="#84BE84" rx="2.4" ry="2.4" style="stroke:#038048;stroke-width:0.8000000000000002;"/><text fill="#000000" font-family="sans-serif" font-size="11.2" lengthAdjust="spacing" textLength="66.4" x="58" y="169.6859">activeUsers()</text><ellipse cx="50.8" cy="181.1453" fill="#84BE84" rx="2.4" ry="2.4" style="stroke:#038048;stroke-width:0.8000000000000002;"/><text fill="#000000" font-family="sans-serif" font-size="11.2" lengthAdjust="spacing" textLength="83.2" x="58" y="184.5828">deactivateUser()</text></g><!--class UserRepository--><g id="elem_UserRepository"><rect codeLine="14" fill="#F1F1F1" height="68.1938" id="UserRepository" rx="2" ry="2" style="stroke:#181818;stroke-width:0.4000000000000001;" width="103.2" x="5.6" y="370.4"/><ellipse cx="17.6" cy="383.2" fill="#ADD1B2" rx="8.8" ry="8.8" style="stroke:#181818;stroke-width:0.8000000000000002;"/><path d="M19.8125,379.9 Q19.9375,379.725 20.0875,379.6375 Q20.2375,379.55 20.4125,379.55 Q20.7125,379.55 20.9,379.7625 Q21.0875,379.9625 21.0875,380.45 L21.0875,381.6125 Q21.0875,382.1 20.9,382.3125 Q20.7125,382.525 20.4125,382.525 Q20.1375,382.525 19.975,382.3625 Q19.8125,382.2125 19.725,381.8 Q19.6875,381.5125 19.5375,381.3625 Q19.275,381.0625 18.7875,380.8875 Q18.3,380.7125 17.8,380.7125 Q17.1875,380.7125 16.675,380.975 Q16.175,381.2375 15.775,381.8375 Q15.3875,382.4375 15.3875,383.2625 L15.3875,384.1375 Q15.3875,385.125 16.1,385.7875 Q16.8125,386.4375 18.0875,386.4375 Q18.8375,386.4375 19.3625,386.2375 Q19.675,386.1125 20.0125,385.7625 Q20.225,385.55 20.3375,385.4875 Q20.4625,385.425 20.625,385.425 Q20.8875,385.425 21.0875,385.6375 Q21.3,385.8375 21.3,386.1125 Q21.3,386.3875 21.025,386.7125 Q20.625,387.175 19.9875,387.4375 Q19.125,387.8 18.0875,387.8 Q16.875,387.8 15.9125,387.3 Q15.125,386.9 14.575,386.05 Q14.025,385.1875 14.025,384.1625 L14.025,383.2375 Q14.025,382.175 14.5125,381.2625 Q15.0125,380.3375 15.8875,379.85 Q16.7625,379.35 17.75,379.35 Q18.3375,379.35 18.85,379.4875 Q19.375,379.6125 19.8125,379.9 Z " fill="#000000"/><text fill="#000000" font-family="sans-serif" font-size="11.2" lengthAdjust="spacing" textLength="77.6" x="28.8" y="387.8375">UserRepository</text><line style="stroke:#181818;stroke-width:0.4000000000000001;" x1="6.4" x2="108" y1="396" y2="396"/><line style="stroke:#181818;stroke-width:0.4000000000000001;" x1="6.4" x2="108" y1="402.4" y2="402.4"/><ellipse cx="14.4" cy="414.2484" fill="#84BE84" rx="2.4" ry="2.4" style="stroke:#038048;stroke-width:0.8000000000000002;"/><text fill="#000000" font-family="sans-serif" font-size="11.2" lengthAdjust="spacing" textLength="69.6" x="21.6" y="417.6859">findByActive()</text><ellipse cx="14.4" cy="429.1453" fill="#84BE84" rx="2.4" ry="2.4" style="stroke:#038048;stroke-width:0.8000000000000002;"/><text fill="#000000" font-family="sans-serif" font-size="11.2" lengthAdjust="spacing" textLength="32" x="21.6" y="432.5828">save()</text></g><!--class UserManagementService--><g id="elem_UserManagementService"><rect codeLine="20" fill="#F1F1F1" height="68.1938" id="UserManagementService" rx="2" ry="2" style="stroke:#181818;stroke-width:0.4000000000000001;" width="152" x="42" y="239.2"/><ellipse cx="54" cy="252" fill="#ADD1B2" rx="8.8" ry="8.8" style="stroke:#181818;stroke-width:0.8000000000000002;"/><path d="M56.2125,248.7 Q56.3375,248.525 56.4875,248.4375 Q56.6375,248.35 56.8125,248.35 Q57.1125,248.35 57.3,248.5625 Q57.4875,248.7625 57.4875,249.25 L57.4875,250.4125 Q57.4875,250.9 57.3,251.1125 Q57.1125,251.325 56.8125,251.325 Q56.5375,251.325 56.375,251.1625 Q56.2125,251.0125 56.125,250.6 Q56.0875,250.3125 55.9375,250.1625 Q55.675,249.8625 55.1875,249.6875 Q54.7,249.5125 54.2,249.5125 Q53.5875,249.5125 53.075,249.775 Q52.575,250.0375 52.175,250.6375 Q51.7875,251.2375 51.7875,252.0625 L51.7875,252.9375 Q51.7875,253.925 52.5,254.5875 Q53.2125,255.2375 54.4875,255.2375 Q55.2375,255.2375 55.7625,255.0375 Q56.075,254.9125 56.4125,254.5625 Q56.625,254.35 56.7375,254.2875 Q56.8625,254.225 57.025,254.225 Q57.2875,254.225 57.4875,254.4375 Q57.7,254.6375 57.7,254.9125 Q57.7,255.1875 57.425,255.5125 Q57.025,255.975 56.3875,256.2375 Q55.525,256.6 54.4875,256.6 Q53.275,256.6 52.3125,256.1 Q51.525,255.7 50.975,254.85 Q50.425,253.9875 50.425,252.9625 L50.425,252.0375 Q50.425,250.975 50.9125,250.0625 Q51.4125,249.1375 52.2875,248.65 Q53.1625,248.15 54.15,248.15 Q54.7375,248.15 55.25,248.2875 Q55.775,248.4125 56.2125,248.7 Z " fill="#000000"/><text fill="#000000" font-family="sans-serif" font-size="11.2" lengthAdjust="spacing" textLength="126.4" x="65.2" y="256.6375">UserManagementService</text><line style="stroke:#181818;stroke-width:0.4000000000000001;" x1="42.8" x2="193.2" y1="264.8" y2="264.8"/><line style="stroke:#181818;stroke-width:0.4000000000000001;" x1="42.8" x2="193.2" y1="271.2" y2="271.2"/><ellipse cx="50.8" cy="283.0484" fill="#84BE84" rx="2.4" ry="2.4" style="stroke:#038048;stroke-width:0.8000000000000002;"/><text fill="#000000" font-family="sans-serif" font-size="11.2" lengthAdjust="spacing" textLength="82.4" x="58" y="286.4859">activatedUsers()</text><ellipse cx="50.8" cy="297.9453" fill="#84BE84" rx="2.4" ry="2.4" style="stroke:#038048;stroke-width:0.8000000000000002;"/><text fill="#000000" font-family="sans-serif" font-size="11.2" lengthAdjust="spacing" textLength="83.2" x="58" y="301.3828">deactivateUser()</text></g><!--class SystemUser--><g id="elem_SystemUser"><rect codeLine="25" fill="#F1F1F1" height="68.1938" id="SystemUser" rx="2" ry="2" style="stroke:#181818;stroke-width:0.4000000000000001;" width="85.6" x="136.8" y="370.4"/><ellipse cx="148.8" cy="383.2" fill="#ADD1B2" rx="8.8" ry="8.8" style="stroke:#181818;stroke-width:0.8000000000000002;"/><path d="M151.0125,379.9 Q151.1375,379.725 151.2875,379.6375 Q151.4375,379.55 151.6125,379.55 Q151.9125,379.55 152.1,379.7625 Q152.2875,379.9625 152.2875,380.45 L152.2875,381.6125 Q152.2875,382.1 152.1,382.3125 Q151.9125,382.525 151.6125,382.525 Q151.3375,382.525 151.175,382.3625 Q151.0125,382.2125 150.925,381.8 Q150.8875,381.5125 150.7375,381.3625 Q150.475,381.0625 149.9875,380.8875 Q149.5,380.7125 149,380.7125 Q148.3875,380.7125 147.875,380.975 Q147.375,381.2375 146.975,381.8375 Q146.5875,382.4375 146.5875,383.2625 L146.5875,384.1375 Q146.5875,385.125 147.3,385.7875 Q148.0125,386.4375 149.2875,386.4375 Q150.0375,386.4375 150.5625,386.2375 Q150.875,386.1125 151.2125,385.7625 Q151.425,385.55 151.5375,385.4875 Q151.6625,385.425 151.825,385.425 Q152.0875,385.425 152.2875,385.6375 Q152.5,385.8375 152.5,386.1125 Q152.5,386.3875 152.225,386.7125 Q151.825,387.175 151.1875,387.4375 Q150.325,387.8 149.2875,387.8 Q148.075,387.8 147.1125,387.3 Q146.325,386.9 145.775,386.05 Q145.225,385.1875 145.225,384.1625 L145.225,383.2375 Q145.225,382.175 145.7125,381.2625 Q146.2125,380.3375 147.0875,379.85 Q147.9625,379.35 148.95,379.35 Q149.5375,379.35 150.05,379.4875 Q150.575,379.6125 151.0125,379.9 Z " fill="#000000"/><text fill="#000000" font-family="sans-serif" font-size="11.2" lengthAdjust="spacing" textLength="60" x="160" y="387.8375">SystemUser</text><line style="stroke:#181818;stroke-width:0.4000000000000001;" x1="137.6" x2="221.6" y1="396" y2="396"/><rect fill="none" height="4.8" style="stroke:#C82930;stroke-width:0.8000000000000002;" width="4.8" x="143.2" y="405.4484"/><text fill="#000000" font-family="sans-serif" font-size="11.2" lengthAdjust="spacing" textLength="29.6" x="152.8" y="411.2859">active</text><line style="stroke:#181818;stroke-width:0.4000000000000001;" x1="137.6" x2="221.6" y1="417.2969" y2="417.2969"/><ellipse cx="145.6" cy="429.1453" fill="#84BE84" rx="2.4" ry="2.4" style="stroke:#038048;stroke-width:0.8000000000000002;"/><text fill="#000000" font-family="sans-serif" font-size="11.2" lengthAdjust="spacing" textLength="60" x="152.8" y="432.5828">deactivate()</text></g><!--link DeactivateUserUI to DeactivateUserController--><g id="link_DeactivateUserUI_DeactivateUserController"><path codeLine="31" d="M118,73.72 C118,87.568 118,103.712 118,117.992 " fill="none" id="DeactivateUserUI-to-DeactivateUserController" style="stroke:#181818;stroke-width:0.8000000000000002;stroke-dasharray:7.0,7.0;"/><polygon fill="#181818" points="118,122.352,121.2,115.152,118,118.352,114.8,115.152,118,122.352" style="stroke:#181818;stroke-width:0.8000000000000002;"/></g><!--link DeactivateUserController to UserManagementService--><g id="link_DeactivateUserController_UserManagementService"><path codeLine="33" d="M118,190.52 C118,204.368 118,220.512 118,234.792 " fill="none" id="DeactivateUserController-to-UserManagementService" style="stroke:#181818;stroke-width:0.8000000000000002;stroke-dasharray:7.0,7.0;"/><polygon fill="#181818" points="118,239.152,121.2,231.952,118,235.152,114.8,231.952,118,239.152" style="stroke:#181818;stroke-width:0.8000000000000002;"/></g><!--link UserManagementService to UserRepository--><g id="link_UserManagementService_UserRepository"><path codeLine="35" d="M102.344,307.376 C93.832,325.512 83.288,347.992 74.528,366.656 " fill="none" id="UserManagementService-to-UserRepository" style="stroke:#181818;stroke-width:0.8000000000000002;"/><polygon fill="#181818" points="72.808,370.336,78.7668,365.1811,74.5095,366.7159,72.9747,362.4587,72.808,370.336" style="stroke:#181818;stroke-width:0.8000000000000002;"/><polygon fill="#000000" points="92.3008,342.5376,97.5031,336.9856,93.2462,334.9881,92.3008,342.5376" style="stroke:#000000;stroke-width:0.8000000000000002;"/><text fill="#000000" font-family="sans-serif" font-size="10.4" lengthAdjust="spacing" textLength="22.4" x="101.2" y="343.2227">uses</text></g><!--link UserManagementService to SystemUser--><g id="link_UserManagementService_SystemUser"><path codeLine="37" d="M133.864,307.376 C142.488,325.512 153.168,347.992 162.04,366.656 " fill="none" id="UserManagementService-to-SystemUser" style="stroke:#181818;stroke-width:0.8000000000000002;"/><polygon fill="#181818" points="163.792,370.336,163.5953,362.4594,162.0767,366.7224,157.8136,365.2038,163.792,370.336" style="stroke:#181818;stroke-width:0.8000000000000002;"/><polygon fill="#000000" points="155.7171,342.5291,154.7343,334.9844,150.4873,337.003,155.7171,342.5291" style="stroke:#000000;stroke-width:0.8000000000000002;"/><text fill="#000000" font-family="sans-serif" font-size="10.4" lengthAdjust="spacing" textLength="52" x="161.2" y="343.2227">deactivates</text></g><!--SRC=[XP1D3i8W48Ntd8AbnjG3TD74duqBDpOz087Hab0m3DOqnhlRGfjQhCfkvl6-cJTSCKIw1yQTh9c30i4MXmUXxLi9avVclbY6gWGcbDJGraz229znxensrYW5jYTuqKiuOCJ4CO5rZHDS3KfdRDCZpbABRRFne861h8OFvv5fTe4AjCl1rfB3-mxjEF5tZS3A6tHGTTq0I4A8sDRFZqz7r-liwrNYxwFYRRCf29bjqoJ9eeEbz8Q0DFlb6CEbTCpIcLu0]--></g></svg>