<?xml version="1.0" encoding="us-ascii" standalone="no"?><svg xmlns="http://www.w3.org/2000/svg" xmlns:xlink="http://www.w3.org/1999/xlink" contentStyleType="text/css" height="429.6px" preserveAspectRatio="none" style="width:310px;height:429px;background:#FFFFFF;" version="1.1" viewBox="0 0 310 429" width="310.4px" zoomAndPan="magnify"><defs/><g><!--class ListUsersUI--><g id="elem_ListUsersUI"><rect codeLine="3" fill="#F1F1F1" height="68.1938" id="ListUsersUI" rx="2" ry="2" style="stroke:#181818;stroke-width:0.4000000000000001;" width="81.6" x="40.4" y="5.6"/><ellipse cx="52.4" cy="18.4" fill="#ADD1B2" rx="8.8" ry="8.8" style="stroke:#181818;stroke-width:0.8000000000000002;"/><path d="M54.6125,15.1 Q54.7375,14.925 54.8875,14.8375 Q55.0375,14.75 55.2125,14.75 Q55.5125,14.75 55.7,14.9625 Q55.8875,15.1625 55.8875,15.65 L55.8875,16.8125 Q55.8875,17.3 55.7,17.5125 Q55.5125,17.725 55.2125,17.725 Q54.9375,17.725 54.775,17.5625 Q54.6125,17.4125 54.525,17 Q54.4875,16.7125 54.3375,16.5625 Q54.075,16.2625 53.5875,16.0875 Q53.1,15.9125 52.6,15.9125 Q51.9875,15.9125 51.475,16.175 Q50.975,16.4375 50.575,17.0375 Q50.1875,17.6375 50.1875,18.4625 L50.1875,19.3375 Q50.1875,20.325 50.9,20.9875 Q51.6125,21.6375 52.8875,21.6375 Q53.6375,21.6375 54.1625,21.4375 Q54.475,21.3125 54.8125,20.9625 Q55.025,20.75 55.1375,20.6875 Q55.2625,20.625 55.425,20.625 Q55.6875,20.625 55.8875,20.8375 Q56.1,21.0375 56.1,21.3125 Q56.1,21.5875 55.825,21.9125 Q55.425,22.375 54.7875,22.6375 Q53.925,23 52.8875,23 Q51.675,23 50.7125,22.5 Q49.925,22.1 49.375,21.25 Q48.825,20.3875 48.825,19.3625 L48.825,18.4375 Q48.825,17.375 49.3125,16.4625 Q49.8125,15.5375 50.6875,15.05 Q51.5625,14.55 52.55,14.55 Q53.1375,14.55 53.65,14.6875 Q54.175,14.8125 54.6125,15.1 Z " fill="#000000"/><text fill="#000000" font-family="sans-serif" font-size="11.2" lengthAdjust="spacing" textLength="56" x="63.6" y="23.0375">ListUsersUI</text><line style="stroke:#181818;stroke-width:0.4000000000000001;" x1="41.2" x2="121.2" y1="31.2" y2="31.2"/><line style="stroke:#181818;stroke-width:0.4000000000000001;" x1="41.2" x2="121.2" y1="37.6" y2="37.6"/><ellipse cx="49.2" cy="49.4484" fill="#84BE84" rx="2.4" ry="2.4" style="stroke:#038048;stroke-width:0.8000000000000002;"/><text fill="#000000" font-family="sans-serif" font-size="11.2" lengthAdjust="spacing" textLength="48" x="56.4" y="52.8859">doShow()</text><ellipse cx="49.2" cy="64.3453" fill="#84BE84" rx="2.4" ry="2.4" style="stroke:#038048;stroke-width:0.8000000000000002;"/><text fill="#000000" font-family="sans-serif" font-size="11.2" lengthAdjust="spacing" textLength="55.2" x="56.4" y="67.7828">headLine()</text></g><!--class ListUsersController--><g id="elem_ListUsersController"><rect codeLine="9" fill="#F1F1F1" height="83.0906" id="ListUsersController" rx="2" ry="2" style="stroke:#181818;stroke-width:0.4000000000000001;" width="121.6" x="20.4" y="122.4"/><ellipse cx="32.4" cy="135.2" fill="#ADD1B2" rx="8.8" ry="8.8" style="stroke:#181818;stroke-width:0.8000000000000002;"/><path d="M34.6125,131.9 Q34.7375,131.725 34.8875,131.6375 Q35.0375,131.55 35.2125,131.55 Q35.5125,131.55 35.7,131.7625 Q35.8875,131.9625 35.8875,132.45 L35.8875,133.6125 Q35.8875,134.1 35.7,134.3125 Q35.5125,134.525 35.2125,134.525 Q34.9375,134.525 34.775,134.3625 Q34.6125,134.2125 34.525,133.8 Q34.4875,133.5125 34.3375,133.3625 Q34.075,133.0625 33.5875,132.8875 Q33.1,132.7125 32.6,132.7125 Q31.9875,132.7125 31.475,132.975 Q30.975,133.2375 30.575,133.8375 Q30.1875,134.4375 30.1875,135.2625 L30.1875,136.1375 Q30.1875,137.125 30.9,137.7875 Q31.6125,138.4375 32.8875,138.4375 Q33.6375,138.4375 34.1625,138.2375 Q34.475,138.1125 34.8125,137.7625 Q35.025,137.55 35.1375,137.4875 Q35.2625,137.425 35.425,137.425 Q35.6875,137.425 35.8875,137.6375 Q36.1,137.8375 36.1,138.1125 Q36.1,138.3875 35.825,138.7125 Q35.425,139.175 34.7875,139.4375 Q33.925,139.8 32.8875,139.8 Q31.675,139.8 30.7125,139.3 Q29.925,138.9 29.375,138.05 Q28.825,137.1875 28.825,136.1625 L28.825,135.2375 Q28.825,134.175 29.3125,133.2625 Q29.8125,132.3375 30.6875,131.85 Q31.5625,131.35 32.55,131.35 Q33.1375,131.35 33.65,131.4875 Q34.175,131.6125 34.6125,131.9 Z " fill="#000000"/><text fill="#000000" font-family="sans-serif" font-size="11.2" lengthAdjust="spacing" textLength="96" x="43.6" y="139.8375">ListUsersController</text><line style="stroke:#181818;stroke-width:0.4000000000000001;" x1="21.2" x2="141.2" y1="148" y2="148"/><line style="stroke:#181818;stroke-width:0.4000000000000001;" x1="21.2" x2="141.2" y1="154.4" y2="154.4"/><ellipse cx="29.2" cy="166.2484" fill="#84BE84" rx="2.4" ry="2.4" style="stroke:#038048;stroke-width:0.8000000000000002;"/><text fill="#000000" font-family="sans-serif" font-size="11.2" lengthAdjust="spacing" textLength="52.8" x="36.4" y="169.6859">getRoles()</text><ellipse cx="29.2" cy="181.1453" fill="#84BE84" rx="2.4" ry="2.4" style="stroke:#038048;stroke-width:0.8000000000000002;"/><text fill="#000000" font-family="sans-serif" font-size="11.2" lengthAdjust="spacing" textLength="64.8" x="36.4" y="184.5828">getAllUsers()</text><ellipse cx="29.2" cy="196.0422" fill="#84BE84" rx="2.4" ry="2.4" style="stroke:#038048;stroke-width:0.8000000000000002;"/><text fill="#000000" font-family="sans-serif" font-size="11.2" lengthAdjust="spacing" textLength="100" x="36.4" y="199.4797">getAllUsersOfRole()</text></g><!--class BaseRoles--><g id="elem_BaseRoles"><rect codeLine="15" fill="#F1F1F1" height="53.2969" id="BaseRoles" rx="2" ry="2" style="stroke:#181818;stroke-width:0.4000000000000001;" width="119.2" x="5.6" y="254.4"/><ellipse cx="35.24" cy="267.2" fill="#ADD1B2" rx="8.8" ry="8.8" style="stroke:#181818;stroke-width:0.8000000000000002;"/><path d="M37.4525,263.9 Q37.5775,263.725 37.7275,263.6375 Q37.8775,263.55 38.0525,263.55 Q38.3525,263.55 38.54,263.7625 Q38.7275,263.9625 38.7275,264.45 L38.7275,265.6125 Q38.7275,266.1 38.54,266.3125 Q38.3525,266.525 38.0525,266.525 Q37.7775,266.525 37.615,266.3625 Q37.4525,266.2125 37.365,265.8 Q37.3275,265.5125 37.1775,265.3625 Q36.915,265.0625 36.4275,264.8875 Q35.94,264.7125 35.44,264.7125 Q34.8275,264.7125 34.315,264.975 Q33.815,265.2375 33.415,265.8375 Q33.0275,266.4375 33.0275,267.2625 L33.0275,268.1375 Q33.0275,269.125 33.74,269.7875 Q34.4525,270.4375 35.7275,270.4375 Q36.4775,270.4375 37.0025,270.2375 Q37.315,270.1125 37.6525,269.7625 Q37.865,269.55 37.9775,269.4875 Q38.1025,269.425 38.265,269.425 Q38.5275,269.425 38.7275,269.6375 Q38.94,269.8375 38.94,270.1125 Q38.94,270.3875 38.665,270.7125 Q38.265,271.175 37.6275,271.4375 Q36.765,271.8 35.7275,271.8 Q34.515,271.8 33.5525,271.3 Q32.765,270.9 32.215,270.05 Q31.665,269.1875 31.665,268.1625 L31.665,267.2375 Q31.665,266.175 32.1525,265.2625 Q32.6525,264.3375 33.5275,263.85 Q34.4025,263.35 35.39,263.35 Q35.9775,263.35 36.49,263.4875 Q37.015,263.6125 37.4525,263.9 Z " fill="#000000"/><text fill="#000000" font-family="sans-serif" font-size="11.2" lengthAdjust="spacing" textLength="54.4" x="50.36" y="271.8375">BaseRoles</text><line style="stroke:#181818;stroke-width:0.4000000000000001;" x1="6.4" x2="124" y1="280" y2="280"/><line style="stroke:#181818;stroke-width:0.4000000000000001;" x1="6.4" x2="124" y1="286.4" y2="286.4"/><ellipse cx="14.4" cy="298.2484" fill="#84BE84" rx="2.4" ry="2.4" style="stroke:#038048;stroke-width:0.8000000000000002;"/><text fill="#000000" font-family="sans-serif" font-size="11.2" lengthAdjust="spacing" textLength="98.4" x="21.6" y="301.6859">getAvailableRoles()</text></g><!--class UserManagementService--><g id="elem_UserManagementService"><rect codeLine="19" fill="#F1F1F1" height="53.2969" id="UserManagementService" rx="2" ry="2" style="stroke:#181818;stroke-width:0.4000000000000001;" width="152" x="153.2" y="254.4"/><ellipse cx="165.2" cy="267.2" fill="#ADD1B2" rx="8.8" ry="8.8" style="stroke:#181818;stroke-width:0.8000000000000002;"/><path d="M167.4125,263.9 Q167.5375,263.725 167.6875,263.6375 Q167.8375,263.55 168.0125,263.55 Q168.3125,263.55 168.5,263.7625 Q168.6875,263.9625 168.6875,264.45 L168.6875,265.6125 Q168.6875,266.1 168.5,266.3125 Q168.3125,266.525 168.0125,266.525 Q167.7375,266.525 167.575,266.3625 Q167.4125,266.2125 167.325,265.8 Q167.2875,265.5125 167.1375,265.3625 Q166.875,265.0625 166.3875,264.8875 Q165.9,264.7125 165.4,264.7125 Q164.7875,264.7125 164.275,264.975 Q163.775,265.2375 163.375,265.8375 Q162.9875,266.4375 162.9875,267.2625 L162.9875,268.1375 Q162.9875,269.125 163.7,269.7875 Q164.4125,270.4375 165.6875,270.4375 Q166.4375,270.4375 166.9625,270.2375 Q167.275,270.1125 167.6125,269.7625 Q167.825,269.55 167.9375,269.4875 Q168.0625,269.425 168.225,269.425 Q168.4875,269.425 168.6875,269.6375 Q168.9,269.8375 168.9,270.1125 Q168.9,270.3875 168.625,270.7125 Q168.225,271.175 167.5875,271.4375 Q166.725,271.8 165.6875,271.8 Q164.475,271.8 163.5125,271.3 Q162.725,270.9 162.175,270.05 Q161.625,269.1875 161.625,268.1625 L161.625,267.2375 Q161.625,266.175 162.1125,265.2625 Q162.6125,264.3375 163.4875,263.85 Q164.3625,263.35 165.35,263.35 Q165.9375,263.35 166.45,263.4875 Q166.975,263.6125 167.4125,263.9 Z " fill="#000000"/><text fill="#000000" font-family="sans-serif" font-size="11.2" lengthAdjust="spacing" textLength="126.4" x="176.4" y="271.8375">UserManagementService</text><line style="stroke:#181818;stroke-width:0.4000000000000001;" x1="154" x2="304.4" y1="280" y2="280"/><line style="stroke:#181818;stroke-width:0.4000000000000001;" x1="154" x2="304.4" y1="286.4" y2="286.4"/><ellipse cx="162" cy="298.2484" fill="#84BE84" rx="2.4" ry="2.4" style="stroke:#038048;stroke-width:0.8000000000000002;"/><text fill="#000000" font-family="sans-serif" font-size="11.2" lengthAdjust="spacing" textLength="48" x="169.2" y="301.6859">allUsers()</text></g><!--class UserRepository--><g id="elem_UserRepository"><rect codeLine="25" fill="#F1F1F1" height="53.2969" id="UserRepository" rx="2" ry="2" style="stroke:#181818;stroke-width:0.4000000000000001;" width="103.2" x="177.6" y="371.2"/><ellipse cx="189.6" cy="384" fill="#ADD1B2" rx="8.8" ry="8.8" style="stroke:#181818;stroke-width:0.8000000000000002;"/><path d="M191.8125,380.7 Q191.9375,380.525 192.0875,380.4375 Q192.2375,380.35 192.4125,380.35 Q192.7125,380.35 192.9,380.5625 Q193.0875,380.7625 193.0875,381.25 L193.0875,382.4125 Q193.0875,382.9 192.9,383.1125 Q192.7125,383.325 192.4125,383.325 Q192.1375,383.325 191.975,383.1625 Q191.8125,383.0125 191.725,382.6 Q191.6875,382.3125 191.5375,382.1625 Q191.275,381.8625 190.7875,381.6875 Q190.3,381.5125 189.8,381.5125 Q189.1875,381.5125 188.675,381.775 Q188.175,382.0375 187.775,382.6375 Q187.3875,383.2375 187.3875,384.0625 L187.3875,384.9375 Q187.3875,385.925 188.1,386.5875 Q188.8125,387.2375 190.0875,387.2375 Q190.8375,387.2375 191.3625,387.0375 Q191.675,386.9125 192.0125,386.5625 Q192.225,386.35 192.3375,386.2875 Q192.4625,386.225 192.625,386.225 Q192.8875,386.225 193.0875,386.4375 Q193.3,386.6375 193.3,386.9125 Q193.3,387.1875 193.025,387.5125 Q192.625,387.975 191.9875,388.2375 Q191.125,388.6 190.0875,388.6 Q188.875,388.6 187.9125,388.1 Q187.125,387.7 186.575,386.85 Q186.025,385.9875 186.025,384.9625 L186.025,384.0375 Q186.025,382.975 186.5125,382.0625 Q187.0125,381.1375 187.8875,380.65 Q188.7625,380.15 189.75,380.15 Q190.3375,380.15 190.85,380.2875 Q191.375,380.4125 191.8125,380.7 Z " fill="#000000"/><text fill="#000000" font-family="sans-serif" font-size="11.2" lengthAdjust="spacing" textLength="77.6" x="200.8" y="388.6375">UserRepository</text><line style="stroke:#181818;stroke-width:0.4000000000000001;" x1="178.4" x2="280" y1="396.8" y2="396.8"/><line style="stroke:#181818;stroke-width:0.4000000000000001;" x1="178.4" x2="280" y1="403.2" y2="403.2"/><ellipse cx="186.4" cy="415.0484" fill="#84BE84" rx="2.4" ry="2.4" style="stroke:#038048;stroke-width:0.8000000000000002;"/><text fill="#000000" font-family="sans-serif" font-size="11.2" lengthAdjust="spacing" textLength="38.4" x="193.6" y="418.4859">findAll()</text></g><!--link ListUsersUI to ListUsersController--><g id="link_ListUsersUI_ListUsersController"><path codeLine="30" d="M81.2,73.632 C81.2,87.328 81.2,103.416 81.2,118.152 " fill="none" id="ListUsersUI-to-ListUsersController" style="stroke:#181818;stroke-width:0.8000000000000002;stroke-dasharray:7.0,7.0;"/><polygon fill="#181818" points="81.2,122.272,84.4,115.072,81.2,118.272,78,115.072,81.2,122.272" style="stroke:#181818;stroke-width:0.8000000000000002;"/></g><!--link ListUsersController to BaseRoles--><g id="link_ListUsersController_BaseRoles"><path codeLine="32" d="M75.512,205.88 C73.496,220.464 71.264,236.608 69.392,250.128 " fill="none" id="ListUsersController-to-BaseRoles" style="stroke:#181818;stroke-width:0.8000000000000002;stroke-dasharray:7.0,7.0;"/><polygon fill="#181818" points="68.824,254.232,72.9804,247.5384,69.3721,250.2697,66.6408,246.6614,68.824,254.232" style="stroke:#181818;stroke-width:0.8000000000000002;"/></g><!--link ListUsersController to UserManagementService--><g id="link_ListUsersController_UserManagementService"><path codeLine="33" d="M133.584,205.72 C153.08,220.944 174.768,237.88 192.552,251.776 " fill="none" id="ListUsersController-to-UserManagementService" style="stroke:#181818;stroke-width:0.8000000000000002;stroke-dasharray:7.0,7.0;"/><polygon fill="#181818" points="195.824,254.328,192.1384,247.3641,192.6783,251.8572,188.1852,252.3971,195.824,254.328" style="stroke:#181818;stroke-width:0.8000000000000002;"/></g><!--link UserManagementService to UserRepository--><g id="link_UserManagementService_UserRepository"><path codeLine="35" d="M229.2,308.144 C229.2,325.672 229.2,348.8 229.2,367.096 " fill="none" id="UserManagementService-to-UserRepository" style="stroke:#181818;stroke-width:0.8000000000000002;"/><polygon fill="#181818" points="229.2,371.16,232.4,363.96,229.2,367.16,226,363.96,229.2,371.16" style="stroke:#181818;stroke-width:0.8000000000000002;"/><text fill="#000000" font-family="sans-serif" font-size="10.4" lengthAdjust="spacing" textLength="22.4" x="230" y="344.0227">uses</text></g><!--SRC=[TP3D2i8m48JlUOhSLAJjlGT1FGcAOF41rdPj0zkaPACYuhkR_cYBrjnccFaooQHmhk8uYYe2xIubXQafevI0ESWKv1PA8HefjuhTaT7oSVCGqfzvPfB2tAQpLXK8sLPfzFefVafhevqrH6YxSexkO0ZvNVTwITHaHwpzkGwtw9Qy0iO6qFEMLr049y8t-1Ek6JlGa6E9sYLehoh5hWZzhOFXjNN0oh1onjwxw5dfp2_gNZZu41c6Yx6t3aAzsOG_y_ycHZSBCMhB85XyJOxbXJrTl000]--></g></svg>