<?xml version="1.0" encoding="us-ascii" standalone="no"?><svg xmlns="http://www.w3.org/2000/svg" xmlns:xlink="http://www.w3.org/1999/xlink" contentStyleType="text/css" height="572px" preserveAspectRatio="none" style="width:601px;height:572px;background:#FFFFFF;" version="1.1" viewBox="0 0 601 572" width="601px" zoomAndPan="magnify"><defs/><g><!--class ArchiveSharedBoardUI--><g id="elem_ArchiveSharedBoardUI"><rect codeLine="2" fill="#F1F1F1" height="60.582" id="ArchiveSharedBoardUI" rx="2.5" ry="2.5" style="stroke:#181818;stroke-width:0.5;" width="175" x="279.5" y="7"/><ellipse cx="294.5" cy="29.291" fill="#ADD1B2" rx="11" ry="11" style="stroke:#181818;stroke-width:1.0;"/><path d="M297.2656,25.166 Q297.4219,24.9473 297.6094,24.8379 Q297.7969,24.7285 298.0156,24.7285 Q298.3906,24.7285 298.625,24.9941 Q298.8594,25.2441 298.8594,25.8535 L298.8594,27.3066 Q298.8594,27.916 298.625,28.1816 Q298.3906,28.4473 298.0156,28.4473 Q297.6719,28.4473 297.4688,28.2441 Q297.2656,28.0566 297.1563,27.541 Q297.1094,27.1816 296.9219,26.9941 Q296.5938,26.6191 295.9844,26.4004 Q295.375,26.1816 294.75,26.1816 Q293.9844,26.1816 293.3438,26.5098 Q292.7188,26.8379 292.2188,27.5879 Q291.7344,28.3379 291.7344,29.3691 L291.7344,30.4629 Q291.7344,31.6973 292.625,32.5254 Q293.5156,33.3379 295.1094,33.3379 Q296.0469,33.3379 296.7031,33.0879 Q297.0938,32.9316 297.5156,32.4941 Q297.7813,32.2285 297.9219,32.1504 Q298.0781,32.0723 298.2813,32.0723 Q298.6094,32.0723 298.8594,32.3379 Q299.125,32.5879 299.125,32.9316 Q299.125,33.2754 298.7813,33.6816 Q298.2813,34.2598 297.4844,34.5879 Q296.4063,35.041 295.1094,35.041 Q293.5938,35.041 292.3906,34.416 Q291.4063,33.916 290.7188,32.8535 Q290.0313,31.7754 290.0313,30.4941 L290.0313,29.3379 Q290.0313,28.0098 290.6406,26.8691 Q291.2656,25.7129 292.3594,25.1035 Q293.4531,24.4785 294.6875,24.4785 Q295.4219,24.4785 296.0625,24.6504 Q296.7188,24.8066 297.2656,25.166 Z " fill="#000000"/><text fill="#000000" font-family="sans-serif" font-size="12" font-style="italic" lengthAdjust="spacing" textLength="27" x="366.5" y="24.9492">&#171;UI&#187;</text><text fill="#000000" font-family="sans-serif" font-size="14" lengthAdjust="spacing" textLength="143" x="308.5" y="43.0684">ArchiveSharedBoardUI</text><line style="stroke:#181818;stroke-width:0.5;" x1="280.5" x2="453.5" y1="51.582" y2="51.582"/><line style="stroke:#181818;stroke-width:0.5;" x1="280.5" x2="453.5" y1="59.582" y2="59.582"/></g><!--class ArchiveSharedBoardController--><g id="elem_ArchiveSharedBoardController"><rect codeLine="5" fill="#F1F1F1" height="116.4453" id="ArchiveSharedBoardController" rx="2.5" ry="2.5" style="stroke:#181818;stroke-width:0.5;" width="343" x="195.5" y="128"/><ellipse cx="266.25" cy="150.291" fill="#ADD1B2" rx="11" ry="11" style="stroke:#181818;stroke-width:1.0;"/><path d="M269.0156,146.166 Q269.1719,145.9473 269.3594,145.8379 Q269.5469,145.7285 269.7656,145.7285 Q270.1406,145.7285 270.375,145.9941 Q270.6094,146.2441 270.6094,146.8535 L270.6094,148.3066 Q270.6094,148.916 270.375,149.1816 Q270.1406,149.4473 269.7656,149.4473 Q269.4219,149.4473 269.2188,149.2441 Q269.0156,149.0566 268.9063,148.541 Q268.8594,148.1816 268.6719,147.9941 Q268.3438,147.6191 267.7344,147.4004 Q267.125,147.1816 266.5,147.1816 Q265.7344,147.1816 265.0938,147.5098 Q264.4688,147.8379 263.9688,148.5879 Q263.4844,149.3379 263.4844,150.3691 L263.4844,151.4629 Q263.4844,152.6973 264.375,153.5254 Q265.2656,154.3379 266.8594,154.3379 Q267.7969,154.3379 268.4531,154.0879 Q268.8438,153.9316 269.2656,153.4941 Q269.5313,153.2285 269.6719,153.1504 Q269.8281,153.0723 270.0313,153.0723 Q270.3594,153.0723 270.6094,153.3379 Q270.875,153.5879 270.875,153.9316 Q270.875,154.2754 270.5313,154.6816 Q270.0313,155.2598 269.2344,155.5879 Q268.1563,156.041 266.8594,156.041 Q265.3438,156.041 264.1406,155.416 Q263.1563,154.916 262.4688,153.8535 Q261.7813,152.7754 261.7813,151.4941 L261.7813,150.3379 Q261.7813,149.0098 262.3906,147.8691 Q263.0156,146.7129 264.1094,146.1035 Q265.2031,145.4785 266.4375,145.4785 Q267.1719,145.4785 267.8125,145.6504 Q268.4688,145.8066 269.0156,146.166 Z " fill="#000000"/><text fill="#000000" font-family="sans-serif" font-size="12" font-style="italic" lengthAdjust="spacing" textLength="68" x="349.25" y="145.9492">&#171;Controller&#187;</text><text fill="#000000" font-family="sans-serif" font-size="14" lengthAdjust="spacing" textLength="193" x="286.75" y="164.0684">ArchiveSharedBoardController</text><line style="stroke:#181818;stroke-width:0.5;" x1="196.5" x2="537.5" y1="172.582" y2="172.582"/><line style="stroke:#181818;stroke-width:0.5;" x1="196.5" x2="537.5" y1="180.582" y2="180.582"/><ellipse cx="206.5" cy="195.3926" fill="#84BE84" rx="3" ry="3" style="stroke:#038048;stroke-width:1.0;"/><text fill="#000000" font-family="sans-serif" font-size="14" lengthAdjust="spacing" textLength="205" x="215.5" y="199.6895">boolean listSharedBoards (user)</text><ellipse cx="206.5" cy="214.0137" fill="#84BE84" rx="3" ry="3" style="stroke:#038048;stroke-width:1.0;"/><text fill="#000000" font-family="sans-serif" font-size="14" lengthAdjust="spacing" textLength="212" x="215.5" y="218.3105">List&lt;String&gt; extractList(response)</text><ellipse cx="206.5" cy="232.6348" fill="#84BE84" rx="3" ry="3" style="stroke:#038048;stroke-width:1.0;"/><text fill="#000000" font-family="sans-serif" font-size="14" lengthAdjust="spacing" textLength="317" x="215.5" y="236.9316">boolean: archiveSharedBoard(user, sharedBoard)</text></g><!--class TcpServerMessageHandler--><g id="elem_TcpServerMessageHandler"><rect codeLine="11" fill="#F1F1F1" height="85.2422" id="TcpServerMessageHandler" rx="2.5" ry="2.5" style="stroke:#181818;stroke-width:0.5;" width="354" x="190" y="304"/><ellipse cx="276.75" cy="320" fill="#ADD1B2" rx="11" ry="11" style="stroke:#181818;stroke-width:1.0;"/><path d="M279.5156,315.875 Q279.6719,315.6563 279.8594,315.5469 Q280.0469,315.4375 280.2656,315.4375 Q280.6406,315.4375 280.875,315.7031 Q281.1094,315.9531 281.1094,316.5625 L281.1094,318.0156 Q281.1094,318.625 280.875,318.8906 Q280.6406,319.1563 280.2656,319.1563 Q279.9219,319.1563 279.7188,318.9531 Q279.5156,318.7656 279.4063,318.25 Q279.3594,317.8906 279.1719,317.7031 Q278.8438,317.3281 278.2344,317.1094 Q277.625,316.8906 277,316.8906 Q276.2344,316.8906 275.5938,317.2188 Q274.9688,317.5469 274.4688,318.2969 Q273.9844,319.0469 273.9844,320.0781 L273.9844,321.1719 Q273.9844,322.4063 274.875,323.2344 Q275.7656,324.0469 277.3594,324.0469 Q278.2969,324.0469 278.9531,323.7969 Q279.3438,323.6406 279.7656,323.2031 Q280.0313,322.9375 280.1719,322.8594 Q280.3281,322.7813 280.5313,322.7813 Q280.8594,322.7813 281.1094,323.0469 Q281.375,323.2969 281.375,323.6406 Q281.375,323.9844 281.0313,324.3906 Q280.5313,324.9688 279.7344,325.2969 Q278.6563,325.75 277.3594,325.75 Q275.8438,325.75 274.6406,325.125 Q273.6563,324.625 272.9688,323.5625 Q272.2813,322.4844 272.2813,321.2031 L272.2813,320.0469 Q272.2813,318.7188 272.8906,317.5781 Q273.5156,316.4219 274.6094,315.8125 Q275.7031,315.1875 276.9375,315.1875 Q277.6719,315.1875 278.3125,315.3594 Q278.9688,315.5156 279.5156,315.875 Z " fill="#000000"/><text fill="#000000" font-family="sans-serif" font-size="14" lengthAdjust="spacing" textLength="172" x="297.25" y="325.7969">TcpServerMessageHandler</text><line style="stroke:#181818;stroke-width:0.5;" x1="191" x2="543" y1="336" y2="336"/><line style="stroke:#181818;stroke-width:0.5;" x1="191" x2="543" y1="344" y2="344"/><ellipse cx="201" cy="358.8105" fill="#84BE84" rx="3" ry="3" style="stroke:#038048;stroke-width:1.0;"/><text fill="#000000" font-family="sans-serif" font-size="14" lengthAdjust="spacing" textLength="328" x="210" y="363.1074">void: findSharedBoardsOfOwner(version, data, out);</text><ellipse cx="201" cy="377.4316" fill="#84BE84" rx="3" ry="3" style="stroke:#038048;stroke-width:1.0;"/><text fill="#000000" font-family="sans-serif" font-size="14" lengthAdjust="spacing" textLength="288" x="210" y="381.7285">void: archiveSharedBoard(version, data, out);</text></g><!--class UserRepository--><g id="elem_UserRepository"><rect codeLine="17" fill="#F1F1F1" height="79.2031" id="UserRepository" rx="2.5" ry="2.5" style="stroke:#181818;stroke-width:0.5;" width="148" x="7" y="307"/><ellipse cx="30.55" cy="329.291" fill="#ADD1B2" rx="11" ry="11" style="stroke:#181818;stroke-width:1.0;"/><path d="M33.3156,325.166 Q33.4719,324.9473 33.6594,324.8379 Q33.8469,324.7285 34.0656,324.7285 Q34.4406,324.7285 34.675,324.9941 Q34.9094,325.2441 34.9094,325.8535 L34.9094,327.3066 Q34.9094,327.916 34.675,328.1816 Q34.4406,328.4473 34.0656,328.4473 Q33.7219,328.4473 33.5188,328.2441 Q33.3156,328.0566 33.2063,327.541 Q33.1594,327.1816 32.9719,326.9941 Q32.6438,326.6191 32.0344,326.4004 Q31.425,326.1816 30.8,326.1816 Q30.0344,326.1816 29.3938,326.5098 Q28.7688,326.8379 28.2688,327.5879 Q27.7844,328.3379 27.7844,329.3691 L27.7844,330.4629 Q27.7844,331.6973 28.675,332.5254 Q29.5656,333.3379 31.1594,333.3379 Q32.0969,333.3379 32.7531,333.0879 Q33.1438,332.9316 33.5656,332.4941 Q33.8313,332.2285 33.9719,332.1504 Q34.1281,332.0723 34.3313,332.0723 Q34.6594,332.0723 34.9094,332.3379 Q35.175,332.5879 35.175,332.9316 Q35.175,333.2754 34.8313,333.6816 Q34.3313,334.2598 33.5344,334.5879 Q32.4563,335.041 31.1594,335.041 Q29.6438,335.041 28.4406,334.416 Q27.4563,333.916 26.7688,332.8535 Q26.0813,331.7754 26.0813,330.4941 L26.0813,329.3379 Q26.0813,328.0098 26.6906,326.8691 Q27.3156,325.7129 28.4094,325.1035 Q29.5031,324.4785 30.7375,324.4785 Q31.4719,324.4785 32.1125,324.6504 Q32.7688,324.8066 33.3156,325.166 Z " fill="#000000"/><text fill="#000000" font-family="sans-serif" font-size="12" font-style="italic" lengthAdjust="spacing" textLength="73" x="58.45" y="324.9492">&#171;Repository&#187;</text><text fill="#000000" font-family="sans-serif" font-size="14" lengthAdjust="spacing" textLength="97" x="46.45" y="343.0684">UserRepository</text><line style="stroke:#181818;stroke-width:0.5;" x1="8" x2="154" y1="351.582" y2="351.582"/><line style="stroke:#181818;stroke-width:0.5;" x1="8" x2="154" y1="359.582" y2="359.582"/><ellipse cx="18" cy="374.3926" fill="#84BE84" rx="3" ry="3" style="stroke:#038048;stroke-width:1.0;"/><text fill="#000000" font-family="sans-serif" font-size="14" lengthAdjust="spacing" textLength="122" x="27" y="378.6895">void: findById(user)</text></g><!--class SharedBoardRepository--><g id="elem_SharedBoardRepository"><rect codeLine="21" fill="#F1F1F1" height="116.4453" id="SharedBoardRepository" rx="2.5" ry="2.5" style="stroke:#181818;stroke-width:0.5;" width="341" x="51.5" y="449"/><ellipse cx="141.75" cy="471.291" fill="#ADD1B2" rx="11" ry="11" style="stroke:#181818;stroke-width:1.0;"/><path d="M144.5156,467.166 Q144.6719,466.9473 144.8594,466.8379 Q145.0469,466.7285 145.2656,466.7285 Q145.6406,466.7285 145.875,466.9941 Q146.1094,467.2441 146.1094,467.8535 L146.1094,469.3066 Q146.1094,469.916 145.875,470.1816 Q145.6406,470.4473 145.2656,470.4473 Q144.9219,470.4473 144.7188,470.2441 Q144.5156,470.0566 144.4063,469.541 Q144.3594,469.1816 144.1719,468.9941 Q143.8438,468.6191 143.2344,468.4004 Q142.625,468.1816 142,468.1816 Q141.2344,468.1816 140.5938,468.5098 Q139.9688,468.8379 139.4688,469.5879 Q138.9844,470.3379 138.9844,471.3691 L138.9844,472.4629 Q138.9844,473.6973 139.875,474.5254 Q140.7656,475.3379 142.3594,475.3379 Q143.2969,475.3379 143.9531,475.0879 Q144.3438,474.9316 144.7656,474.4941 Q145.0313,474.2285 145.1719,474.1504 Q145.3281,474.0723 145.5313,474.0723 Q145.8594,474.0723 146.1094,474.3379 Q146.375,474.5879 146.375,474.9316 Q146.375,475.2754 146.0313,475.6816 Q145.5313,476.2598 144.7344,476.5879 Q143.6563,477.041 142.3594,477.041 Q140.8438,477.041 139.6406,476.416 Q138.6563,475.916 137.9688,474.8535 Q137.2813,473.7754 137.2813,472.4941 L137.2813,471.3379 Q137.2813,470.0098 137.8906,468.8691 Q138.5156,467.7129 139.6094,467.1035 Q140.7031,466.4785 141.9375,466.4785 Q142.6719,466.4785 143.3125,466.6504 Q143.9688,466.8066 144.5156,467.166 Z " fill="#000000"/><text fill="#000000" font-family="sans-serif" font-size="12" font-style="italic" lengthAdjust="spacing" textLength="73" x="201.75" y="466.9492">&#171;Repository&#187;</text><text fill="#000000" font-family="sans-serif" font-size="14" lengthAdjust="spacing" textLength="152" x="162.25" y="485.0684">SharedBoardRepository</text><line style="stroke:#181818;stroke-width:0.5;" x1="52.5" x2="391.5" y1="493.582" y2="493.582"/><line style="stroke:#181818;stroke-width:0.5;" x1="52.5" x2="391.5" y1="501.582" y2="501.582"/><ellipse cx="62.5" cy="516.3926" fill="#84BE84" rx="3" ry="3" style="stroke:#038048;stroke-width:1.0;"/><text fill="#000000" font-family="sans-serif" font-size="14" lengthAdjust="spacing" textLength="315" x="71.5" y="520.6895">List&lt;SharedBoard&gt; findSharedBoardOfUser(user)</text><ellipse cx="62.5" cy="535.0137" fill="#84BE84" rx="3" ry="3" style="stroke:#038048;stroke-width:1.0;"/><text fill="#000000" font-family="sans-serif" font-size="14" lengthAdjust="spacing" textLength="247" x="71.5" y="539.3105">SharedBoard: findSharedBoardById(id)</text><ellipse cx="62.5" cy="553.6348" fill="#84BE84" rx="3" ry="3" style="stroke:#038048;stroke-width:1.0;"/><text fill="#000000" font-family="sans-serif" font-size="14" lengthAdjust="spacing" textLength="156" x="71.5" y="557.9316">void: save(sharedBoard)</text></g><!--class SharedBoard--><g id="elem_SharedBoard"><rect codeLine="27" fill="#F1F1F1" height="85.2422" id="SharedBoard" rx="2.5" ry="2.5" style="stroke:#181818;stroke-width:0.5;" width="167" x="427.5" y="464.5"/><ellipse cx="465.45" cy="480.5" fill="#ADD1B2" rx="11" ry="11" style="stroke:#181818;stroke-width:1.0;"/><path d="M468.2156,476.375 Q468.3719,476.1563 468.5594,476.0469 Q468.7469,475.9375 468.9656,475.9375 Q469.3406,475.9375 469.575,476.2031 Q469.8094,476.4531 469.8094,477.0625 L469.8094,478.5156 Q469.8094,479.125 469.575,479.3906 Q469.3406,479.6563 468.9656,479.6563 Q468.6219,479.6563 468.4188,479.4531 Q468.2156,479.2656 468.1063,478.75 Q468.0594,478.3906 467.8719,478.2031 Q467.5438,477.8281 466.9344,477.6094 Q466.325,477.3906 465.7,477.3906 Q464.9344,477.3906 464.2938,477.7188 Q463.6688,478.0469 463.1688,478.7969 Q462.6844,479.5469 462.6844,480.5781 L462.6844,481.6719 Q462.6844,482.9063 463.575,483.7344 Q464.4656,484.5469 466.0594,484.5469 Q466.9969,484.5469 467.6531,484.2969 Q468.0438,484.1406 468.4656,483.7031 Q468.7313,483.4375 468.8719,483.3594 Q469.0281,483.2813 469.2313,483.2813 Q469.5594,483.2813 469.8094,483.5469 Q470.075,483.7969 470.075,484.1406 Q470.075,484.4844 469.7313,484.8906 Q469.2313,485.4688 468.4344,485.7969 Q467.3563,486.25 466.0594,486.25 Q464.5438,486.25 463.3406,485.625 Q462.3563,485.125 461.6688,484.0625 Q460.9813,482.9844 460.9813,481.7031 L460.9813,480.5469 Q460.9813,479.2188 461.5906,478.0781 Q462.2156,476.9219 463.3094,476.3125 Q464.4031,475.6875 465.6375,475.6875 Q466.3719,475.6875 467.0125,475.8594 Q467.6688,476.0156 468.2156,476.375 Z " fill="#000000"/><text fill="#000000" font-family="sans-serif" font-size="14" lengthAdjust="spacing" textLength="84" x="484.55" y="486.2969">SharedBoard</text><line style="stroke:#181818;stroke-width:0.5;" x1="428.5" x2="593.5" y1="496.5" y2="496.5"/><ellipse cx="438.5" cy="511.3105" fill="none" rx="3" ry="3" style="stroke:#038048;stroke-width:1.0;"/><text fill="#000000" font-family="sans-serif" font-size="14" lengthAdjust="spacing" textLength="106" x="447.5" y="515.6074">String: getOwner</text><line style="stroke:#181818;stroke-width:0.5;" x1="428.5" x2="593.5" y1="523.1211" y2="523.1211"/><ellipse cx="438.5" cy="537.9316" fill="#84BE84" rx="3" ry="3" style="stroke:#038048;stroke-width:1.0;"/><text fill="#000000" font-family="sans-serif" font-size="14" lengthAdjust="spacing" textLength="141" x="447.5" y="542.2285">void: setStatus(status)</text></g><!--link ArchiveSharedBoardUI to ArchiveSharedBoardController--><g id="link_ArchiveSharedBoardUI_ArchiveSharedBoardController"><path codeLine="37" d="M367,68.15 C367,83.81 367,103.66 367,122.54 " fill="none" id="ArchiveSharedBoardUI-to-ArchiveSharedBoardController" style="stroke:#181818;stroke-width:1.0;stroke-dasharray:7.0,7.0;"/><polygon fill="#181818" points="367,127.83,371,118.83,367,122.83,363,118.83,367,127.83" style="stroke:#181818;stroke-width:1.0;"/></g><!--link ArchiveSharedBoardController to TcpServerMessageHandler--><g id="link_ArchiveSharedBoardController_TcpServerMessageHandler"><path codeLine="38" d="M367,244.22 C367,262.06 367,281.52 367,298.57 " fill="none" id="ArchiveSharedBoardController-to-TcpServerMessageHandler" style="stroke:#181818;stroke-width:1.0;stroke-dasharray:7.0,7.0;"/><polygon fill="#181818" points="367,303.78,371,294.78,367,298.78,363,294.78,367,303.78" style="stroke:#181818;stroke-width:1.0;"/></g><!--link TcpServerMessageHandler to SharedBoardRepository--><g id="link_TcpServerMessageHandler_SharedBoardRepository"><path codeLine="39" d="M328.9,389.14 C313.25,406.26 294.81,426.41 277.69,445.12 " fill="none" id="TcpServerMessageHandler-to-SharedBoardRepository" style="stroke:#181818;stroke-width:1.0;stroke-dasharray:7.0,7.0;"/><polygon fill="#181818" points="274.29,448.84,283.3243,444.918,277.6725,445.1578,277.4327,439.506,274.29,448.84" style="stroke:#181818;stroke-width:1.0;"/></g><!--reverse link UserRepository to TcpServerMessageHandler--><g id="link_UserRepository_TcpServerMessageHandler"><path codeLine="40" d="M160.18,346.5 C170.05,346.5 179.92,346.5 189.79,346.5 " fill="none" id="UserRepository-backto-TcpServerMessageHandler" style="stroke:#181818;stroke-width:1.0;stroke-dasharray:7.0,7.0;"/><polygon fill="#181818" points="155.01,346.5,164.01,350.5,160.01,346.5,164.01,342.5,155.01,346.5" style="stroke:#181818;stroke-width:1.0;"/></g><!--link TcpServerMessageHandler to SharedBoard--><g id="link_TcpServerMessageHandler_SharedBoard"><path codeLine="41" d="M404.83,389.14 C424.76,411.08 449.24,438.02 469.67,460.5 " fill="none" id="TcpServerMessageHandler-to-SharedBoard" style="stroke:#181818;stroke-width:1.0;stroke-dasharray:7.0,7.0;"/><polygon fill="#181818" points="473.17,464.36,470.0649,455.0134,469.8024,460.6642,464.1516,460.4016,473.17,464.36" style="stroke:#181818;stroke-width:1.0;"/></g><!--SRC=[VPB1Ri8m38RlVGeVMu5u08OgZLs6n8IqZWV86XSYLGcoJJU4zkvB0w8fjEHInV7lVlxjibRCy4hbtZHOx1MXNZf5Uhk2nMAxodCu9tz9KewalJahvEeQoQTtbo03VoRmxLoDoa9jM28XGtfafEoQjVQlYqB8s5qE-2kaIcbZAI4Vd6NC-kNce1vOGi4fS1V9ElIlyb0WDKWVoAns-AwiRgalc31fdD5pg8pLCUIcslnOfDJhs3Wx1Qr4JS4T9Nlf2GTe1ZMUvmgqzR2VU71inD79kzTT8lSwhELffQ-MtPgAVZTQwjnpk1FazyrkgXQfDvNezS6Rm6DqrWDbrM0wF818UklkCl0vx522p_rQA8KeENBAuHDgXJEuhRDP_dG_awVBswf7LYGPYNl9eFzZ-J2hiPByRl3ZsPuegk_R_WS0]--></g></svg>