<?xml version="1.0" encoding="us-ascii" standalone="no"?><svg xmlns="http://www.w3.org/2000/svg" xmlns:xlink="http://www.w3.org/1999/xlink" contentStyleType="text/css" height="1152.8px" preserveAspectRatio="none" style="width:1796px;height:1152px;background:#FFFFFF;" version="1.1" viewBox="0 0 1796 1152" width="1796px" zoomAndPan="magnify"><defs/><g><rect fill="#FFFFFF" height="997.6766" style="stroke:#181818;stroke-width:0.8000000000000002;" width="8" x="14" y="74.8969"/><rect fill="#FFFFFF" height="986.2438" style="stroke:#181818;stroke-width:0.8000000000000002;" width="8" x="214.8" y="93.5297"/><rect fill="#FFFFFF" height="420.4234" style="stroke:#181818;stroke-width:0.8000000000000002;" width="8" x="642" y="118.5625"/><rect fill="#FFFFFF" height="433.4563" style="stroke:#181818;stroke-width:0.8000000000000002;" width="8" x="642" y="614.0844"/><rect fill="#FFFFFF" height="299.0266" style="stroke:#181818;stroke-width:0.8000000000000002;" width="8" x="804" y="214.9266"/><rect fill="#FFFFFF" height="298.2266" style="stroke:#181818;stroke-width:0.8000000000000002;" width="8" x="804" y="724.2813"/><rect fill="#FFFFFF" height="25.0328" style="stroke:#181818;stroke-width:0.8000000000000002;" width="8" x="963.2" y="239.9594"/><rect fill="#FFFFFF" height="25.0328" style="stroke:#181818;stroke-width:0.8000000000000002;" width="8" x="963.2" y="749.3141"/><rect fill="#FFFFFF" height="25.0328" style="stroke:#181818;stroke-width:0.8000000000000002;" width="8" x="1093.6" y="290.025"/><rect fill="#FFFFFF" height="25.0328" style="stroke:#181818;stroke-width:0.8000000000000002;" width="8" x="1093.6" y="799.3797"/><rect fill="#FFFFFF" height="25.0328" style="stroke:#181818;stroke-width:0.8000000000000002;" width="8" x="1093.6" y="895.5109"/><rect fill="none" height="77.4984" style="stroke:#000000;stroke-width:1.2000000000000002;" width="288.8" x="717.6" y="327.0578"/><rect fill="none" height="50.8656" style="stroke:#000000;stroke-width:1.2000000000000002;" width="272.8" x="725.6" y="348.0906"/><rect fill="none" height="90.5313" style="stroke:#000000;stroke-width:1.2000000000000002;" width="1065.6" x="725.6" y="836.4125"/><line style="stroke:#181818;stroke-width:0.4000000000000001;stroke-dasharray:5.0,5.0;" x1="17.6" x2="17.6" y1="66.8969" y2="1086.9734"/><line style="stroke:#181818;stroke-width:0.4000000000000001;stroke-dasharray:5.0,5.0;" x1="218.4" x2="218.4" y1="66.8969" y2="1086.9734"/><line style="stroke:#181818;stroke-width:0.4000000000000001;stroke-dasharray:5.0,5.0;" x1="645.6" x2="645.6" y1="66.8969" y2="1086.9734"/><line style="stroke:#181818;stroke-width:0.4000000000000001;stroke-dasharray:5.0,5.0;" x1="808" x2="808" y1="66.8969" y2="1086.9734"/><line style="stroke:#181818;stroke-width:0.4000000000000001;stroke-dasharray:5.0,5.0;" x1="966.8" x2="966.8" y1="66.8969" y2="1086.9734"/><line style="stroke:#181818;stroke-width:0.4000000000000001;stroke-dasharray:5.0,5.0;" x1="1097.6" x2="1097.6" y1="66.8969" y2="1086.9734"/><line style="stroke:#181818;stroke-width:0.4000000000000001;stroke-dasharray:5.0,5.0;" x1="1218.4" x2="1218.4" y1="66.8969" y2="1086.9734"/><line style="stroke:#181818;stroke-width:0.4000000000000001;stroke-dasharray:5.0,5.0;" x1="1316" x2="1316" y1="66.8969" y2="1086.9734"/><line style="stroke:#181818;stroke-width:0.4000000000000001;stroke-dasharray:5.0,5.0;" x1="1381.6" x2="1381.6" y1="66.8969" y2="1086.9734"/><line style="stroke:#181818;stroke-width:0.4000000000000001;stroke-dasharray:5.0,5.0;" x1="1459.2" x2="1459.2" y1="66.8969" y2="1086.9734"/><line style="stroke:#181818;stroke-width:0.4000000000000001;stroke-dasharray:5.0,5.0;" x1="1585.6" x2="1585.6" y1="66.8969" y2="1086.9734"/><line style="stroke:#181818;stroke-width:0.4000000000000001;stroke-dasharray:5.0,5.0;" x1="1676.8" x2="1676.8" y1="66.8969" y2="1086.9734"/><line style="stroke:#181818;stroke-width:0.4000000000000001;stroke-dasharray:5.0,5.0;" x1="1744" x2="1744" y1="66.8969" y2="1086.9734"/><text fill="#000000" font-family="FG Virgil" font-size="11.2" lengthAdjust="spacing" textLength="23.2" x="4" y="64.0859">User</text><ellipse cx="18" cy="10.8" fill="#E3E3E3" rx="6.4" ry="6.4" style="stroke:#181818;stroke-width:0.4000000000000001;"/><path d="M18,17.2 L18,38.8 M7.6,23.6 L28.4,23.6 M18,38.8 L7.6,50.8 M18,38.8 L28.4,50.8 " fill="none" style="stroke:#181818;stroke-width:0.4000000000000001;"/><text fill="#000000" font-family="FG Virgil" font-size="11.2" lengthAdjust="spacing" textLength="23.2" x="4" y="1098.2594">User</text><ellipse cx="18" cy="1107.8703" fill="#E3E3E3" rx="6.4" ry="6.4" style="stroke:#181818;stroke-width:0.4000000000000001;"/><path d="M18,1114.2703 L18,1135.8703 M7.6,1120.6703 L28.4,1120.6703 M18,1135.8703 L7.6,1147.8703 M18,1135.8703 L28.4,1147.8703 " fill="none" style="stroke:#181818;stroke-width:0.4000000000000001;"/><rect fill="#E3E3E3" height="40.9938" rx="2" ry="2" style="stroke:#181818;stroke-width:0.4000000000000001;" width="125.6" x="156" y="25.1031"/><text fill="#000000" font-family="FG Virgil" font-size="11.2" font-style="italic" lengthAdjust="spacing" textLength="76" x="180.8" y="42.7891">&#171;presentation&#187;</text><text fill="#000000" font-family="FG Virgil" font-size="11.2" lengthAdjust="spacing" textLength="114.4" x="161.6" y="57.6859">ArchiveSharedBoardUI</text><rect fill="#E3E3E3" height="40.9938" rx="2" ry="2" style="stroke:#181818;stroke-width:0.4000000000000001;" width="125.6" x="156" y="1086.1734"/><text fill="#000000" font-family="FG Virgil" font-size="11.2" font-style="italic" lengthAdjust="spacing" textLength="76" x="180.8" y="1103.8594">&#171;presentation&#187;</text><text fill="#000000" font-family="FG Virgil" font-size="11.2" lengthAdjust="spacing" textLength="114.4" x="161.6" y="1118.7563">ArchiveSharedBoardUI</text><text fill="#000000" font-family="FG Virgil" font-size="11.2" font-style="italic" lengthAdjust="spacing" textLength="67.2" x="610" y="49.1891">&#171;application&#187;</text><text fill="#000000" font-family="FG Virgil" font-size="11.2" lengthAdjust="spacing" textLength="154.4" x="566.4" y="64.0859">ArchiveSharedBoardController</text><ellipse cx="646" cy="24.3031" fill="#E3E3E3" rx="9.6" ry="9.6" style="stroke:#181818;stroke-width:0.4000000000000001;"/><polygon fill="#181818" points="642.8,14.7031,647.6,10.7031,646,14.7031,647.6,18.7031,642.8,14.7031" style="stroke:#181818;stroke-width:0.8000000000000002;"/><text fill="#000000" font-family="FG Virgil" font-size="11.2" font-style="italic" lengthAdjust="spacing" textLength="67.2" x="610" y="1098.2594">&#171;application&#187;</text><text fill="#000000" font-family="FG Virgil" font-size="11.2" lengthAdjust="spacing" textLength="154.4" x="566.4" y="1113.1563">ArchiveSharedBoardController</text><ellipse cx="646" cy="1128.7672" fill="#E3E3E3" rx="9.6" ry="9.6" style="stroke:#181818;stroke-width:0.4000000000000001;"/><polygon fill="#181818" points="642.8,1119.1672,647.6,1115.1672,646,1119.1672,647.6,1123.1672,642.8,1119.1672" style="stroke:#181818;stroke-width:0.8000000000000002;"/><rect fill="#E3E3E3" height="26.0969" rx="2" ry="2" style="stroke:#181818;stroke-width:0.4000000000000001;" width="148.8" x="733.6" y="40"/><text fill="#000000" font-family="FG Virgil" font-size="11.2" lengthAdjust="spacing" textLength="137.6" x="739.2" y="57.6859">TcpServerMessageHandler</text><rect fill="#E3E3E3" height="26.0969" rx="2" ry="2" style="stroke:#181818;stroke-width:0.4000000000000001;" width="148.8" x="733.6" y="1086.1734"/><text fill="#000000" font-family="FG Virgil" font-size="11.2" lengthAdjust="spacing" textLength="137.6" x="739.2" y="1103.8594">TcpServerMessageHandler</text><rect fill="#E3E3E3" height="26.0969" rx="2" ry="2" style="stroke:#181818;stroke-width:0.4000000000000001;" width="88.8" x="922.8" y="40"/><text fill="#000000" font-family="FG Virgil" font-size="11.2" lengthAdjust="spacing" textLength="77.6" x="928.4" y="57.6859">UserRepository</text><rect fill="#E3E3E3" height="26.0969" rx="2" ry="2" style="stroke:#181818;stroke-width:0.4000000000000001;" width="88.8" x="922.8" y="1086.1734"/><text fill="#000000" font-family="FG Virgil" font-size="11.2" lengthAdjust="spacing" textLength="77.6" x="928.4" y="1103.8594">UserRepository</text><rect fill="#E3E3E3" height="26.0969" rx="2" ry="2" style="stroke:#181818;stroke-width:0.4000000000000001;" width="132.8" x="1031.2" y="40"/><text fill="#000000" font-family="FG Virgil" font-size="11.2" lengthAdjust="spacing" textLength="121.6" x="1036.8" y="57.6859">SharedBoardRepository</text><rect fill="#E3E3E3" height="26.0969" rx="2" ry="2" style="stroke:#181818;stroke-width:0.4000000000000001;" width="132.8" x="1031.2" y="1086.1734"/><text fill="#000000" font-family="FG Virgil" font-size="11.2" lengthAdjust="spacing" textLength="121.6" x="1036.8" y="1103.8594">SharedBoardRepository</text><rect fill="#E3E3E3" height="26.0969" rx="2" ry="2" style="stroke:#181818;stroke-width:0.4000000000000001;" width="93.6" x="1172" y="40"/><text fill="#000000" font-family="FG Virgil" font-size="11.2" lengthAdjust="spacing" textLength="82.4" x="1177.6" y="57.6859">PostItRepository</text><rect fill="#E3E3E3" height="26.0969" rx="2" ry="2" style="stroke:#181818;stroke-width:0.4000000000000001;" width="93.6" x="1172" y="1086.1734"/><text fill="#000000" font-family="FG Virgil" font-size="11.2" lengthAdjust="spacing" textLength="82.4" x="1177.6" y="1103.8594">PostItRepository</text><rect fill="#E3E3E3" height="26.0969" rx="2" ry="2" style="stroke:#181818;stroke-width:0.4000000000000001;" width="84.8" x="1273.6" y="40"/><text fill="#000000" font-family="FG Virgil" font-size="11.2" lengthAdjust="spacing" textLength="73.6" x="1279.2" y="57.6859">CellRepository</text><rect fill="#E3E3E3" height="26.0969" rx="2" ry="2" style="stroke:#181818;stroke-width:0.4000000000000001;" width="84.8" x="1273.6" y="1086.1734"/><text fill="#000000" font-family="FG Virgil" font-size="11.2" lengthAdjust="spacing" textLength="73.6" x="1279.2" y="1103.8594">CellRepository</text><rect fill="#E3E3E3" height="26.0969" rx="2" ry="2" style="stroke:#181818;stroke-width:0.4000000000000001;" width="30.4" x="1366.4" y="40"/><text fill="#000000" font-family="FG Virgil" font-size="11.2" lengthAdjust="spacing" textLength="19.2" x="1372" y="57.6859">Cell</text><rect fill="#E3E3E3" height="26.0969" rx="2" ry="2" style="stroke:#181818;stroke-width:0.4000000000000001;" width="30.4" x="1366.4" y="1086.1734"/><text fill="#000000" font-family="FG Virgil" font-size="11.2" lengthAdjust="spacing" textLength="19.2" x="1372" y="1103.8594">Cell</text><rect fill="#E3E3E3" height="26.0969" rx="2" ry="2" style="stroke:#181818;stroke-width:0.4000000000000001;" width="108.8" x="1404.8" y="40"/><text fill="#000000" font-family="FG Virgil" font-size="11.2" lengthAdjust="spacing" textLength="97.6" x="1410.4" y="57.6859">PostItHistoryBuilder</text><rect fill="#E3E3E3" height="26.0969" rx="2" ry="2" style="stroke:#181818;stroke-width:0.4000000000000001;" width="108.8" x="1404.8" y="1086.1734"/><text fill="#000000" font-family="FG Virgil" font-size="11.2" lengthAdjust="spacing" textLength="97.6" x="1410.4" y="1103.8594">PostItHistoryBuilder</text><rect fill="#E3E3E3" height="26.0969" rx="2" ry="2" style="stroke:#181818;stroke-width:0.4000000000000001;" width="128" x="1521.6" y="40"/><text fill="#000000" font-family="FG Virgil" font-size="11.2" lengthAdjust="spacing" textLength="116.8" x="1527.2" y="57.6859">PostItHistoryRepository</text><rect fill="#E3E3E3" height="26.0969" rx="2" ry="2" style="stroke:#181818;stroke-width:0.4000000000000001;" width="128" x="1521.6" y="1086.1734"/><text fill="#000000" font-family="FG Virgil" font-size="11.2" lengthAdjust="spacing" textLength="116.8" x="1527.2" y="1103.8594">PostItHistoryRepository</text><rect fill="#E3E3E3" height="26.0969" rx="2" ry="2" style="stroke:#181818;stroke-width:0.4000000000000001;" width="39.2" x="1657.6" y="40"/><text fill="#000000" font-family="FG Virgil" font-size="11.2" lengthAdjust="spacing" textLength="28" x="1663.2" y="57.6859">PostIt</text><rect fill="#E3E3E3" height="26.0969" rx="2" ry="2" style="stroke:#181818;stroke-width:0.4000000000000001;" width="39.2" x="1657.6" y="1086.1734"/><text fill="#000000" font-family="FG Virgil" font-size="11.2" lengthAdjust="spacing" textLength="28" x="1663.2" y="1103.8594">PostIt</text><rect fill="#E3E3E3" height="26.0969" rx="2" ry="2" style="stroke:#181818;stroke-width:0.4000000000000001;" width="78.4" x="1704.8" y="40"/><text fill="#000000" font-family="FG Virgil" font-size="11.2" lengthAdjust="spacing" textLength="67.2" x="1710.4" y="57.6859">SharedBoard</text><rect fill="#E3E3E3" height="26.0969" rx="2" ry="2" style="stroke:#181818;stroke-width:0.4000000000000001;" width="78.4" x="1704.8" y="1086.1734"/><text fill="#000000" font-family="FG Virgil" font-size="11.2" lengthAdjust="spacing" textLength="67.2" x="1710.4" y="1103.8594">SharedBoard</text><rect fill="#FFFFFF" height="997.6766" style="stroke:#181818;stroke-width:0.8000000000000002;" width="8" x="14" y="74.8969"/><rect fill="#FFFFFF" height="986.2438" style="stroke:#181818;stroke-width:0.8000000000000002;" width="8" x="214.8" y="93.5297"/><rect fill="#FFFFFF" height="420.4234" style="stroke:#181818;stroke-width:0.8000000000000002;" width="8" x="642" y="118.5625"/><rect fill="#FFFFFF" height="433.4563" style="stroke:#181818;stroke-width:0.8000000000000002;" width="8" x="642" y="614.0844"/><rect fill="#FFFFFF" height="299.0266" style="stroke:#181818;stroke-width:0.8000000000000002;" width="8" x="804" y="214.9266"/><rect fill="#FFFFFF" height="298.2266" style="stroke:#181818;stroke-width:0.8000000000000002;" width="8" x="804" y="724.2813"/><rect fill="#FFFFFF" height="25.0328" style="stroke:#181818;stroke-width:0.8000000000000002;" width="8" x="963.2" y="239.9594"/><rect fill="#FFFFFF" height="25.0328" style="stroke:#181818;stroke-width:0.8000000000000002;" width="8" x="963.2" y="749.3141"/><rect fill="#FFFFFF" height="25.0328" style="stroke:#181818;stroke-width:0.8000000000000002;" width="8" x="1093.6" y="290.025"/><rect fill="#FFFFFF" height="25.0328" style="stroke:#181818;stroke-width:0.8000000000000002;" width="8" x="1093.6" y="799.3797"/><rect fill="#FFFFFF" height="25.0328" style="stroke:#181818;stroke-width:0.8000000000000002;" width="8" x="1093.6" y="895.5109"/><polygon fill="#181818" points="205.2,90.3297,213.2,93.5297,205.2,96.7297,208.4,93.5297" style="stroke:#181818;stroke-width:0.8000000000000002;"/><line style="stroke:#181818;stroke-width:0.8000000000000002;" x1="22" x2="210" y1="93.5297" y2="93.5297"/><text fill="#000000" font-family="FG Virgil" font-size="10.4" font-weight="bold" lengthAdjust="spacing" textLength="5.6" x="27.6" y="89.3195">1</text><text fill="#000000" font-family="FG Virgil" font-size="10.4" lengthAdjust="spacing" textLength="146.4" x="36.4" y="89.3195">wants to archive a shared board</text><polygon fill="#181818" points="632.4,115.3625,640.4,118.5625,632.4,121.7625,635.6,118.5625" style="stroke:#181818;stroke-width:0.8000000000000002;"/><line style="stroke:#181818;stroke-width:0.8000000000000002;" x1="222.8" x2="637.2" y1="118.5625" y2="118.5625"/><text fill="#000000" font-family="FG Virgil" font-size="10.4" font-weight="bold" lengthAdjust="spacing" textLength="5.6" x="228.4" y="114.3523">2</text><text fill="#000000" font-family="FG Virgil" font-size="10.4" lengthAdjust="spacing" textLength="222.4" x="237.2" y="114.3523">listSharedBoards(SharedBoardClient.userName)</text><path d="M653.6,128.9625 L653.6,192.1625 L844.8,192.1625 L844.8,136.9625 L836.8,128.9625 L653.6,128.9625 " fill="#FAFAFA" style="stroke:#181818;stroke-width:0.4000000000000001;"/><path d="M836.8,128.9625 L836.8,136.9625 L844.8,136.9625 L836.8,128.9625 " fill="#FAFAFA" style="stroke:#181818;stroke-width:0.4000000000000001;"/><text fill="#000000" font-family="FG Virgil" font-size="10.4" lengthAdjust="spacing" textLength="122.4" x="658.4" y="144.1852">request is created with the</text><text fill="#000000" font-family="FG Virgil" font-size="10.4" lengthAdjust="spacing" textLength="136.8" x="658.4" y="158.018">class RequestMessage using</text><text fill="#000000" font-family="FG Virgil" font-size="10.4" lengthAdjust="spacing" textLength="174.4" x="658.4" y="171.8508">code SHARED_BOARD_OWNER(21)</text><text fill="#000000" font-family="FG Virgil" font-size="10.4" lengthAdjust="spacing" textLength="109.6" x="661.6" y="185.6836">pass by parameter user</text><polygon fill="#181818" points="794.4,211.7266,802.4,214.9266,794.4,218.1266,797.6,214.9266" style="stroke:#181818;stroke-width:0.8000000000000002;"/><line style="stroke:#181818;stroke-width:0.8000000000000002;" x1="650" x2="799.2" y1="214.9266" y2="214.9266"/><text fill="#000000" font-family="FG Virgil" font-size="10.4" font-weight="bold" lengthAdjust="spacing" textLength="5.6" x="655.6" y="210.7164">3</text><text fill="#000000" font-family="FG Virgil" font-size="10.4" lengthAdjust="spacing" textLength="63.2" x="664.4" y="210.7164">send(request)</text><polygon fill="#181818" points="953.6,236.7594,961.6,239.9594,953.6,243.1594,956.8,239.9594" style="stroke:#181818;stroke-width:0.8000000000000002;"/><line style="stroke:#181818;stroke-width:0.8000000000000002;" x1="812" x2="958.4" y1="239.9594" y2="239.9594"/><text fill="#000000" font-family="FG Virgil" font-size="10.4" font-weight="bold" lengthAdjust="spacing" textLength="5.6" x="817.6" y="235.7492">4</text><text fill="#000000" font-family="FG Virgil" font-size="10.4" lengthAdjust="spacing" textLength="121.6" x="826.4" y="235.7492">user = findById(username)</text><polygon fill="#181818" points="820.8,261.7922,812.8,264.9922,820.8,268.1922,817.6,264.9922" style="stroke:#181818;stroke-width:0.8000000000000002;"/><line style="stroke:#181818;stroke-width:0.8000000000000002;stroke-dasharray:2.0,2.0;" x1="816" x2="966.4" y1="264.9922" y2="264.9922"/><text fill="#000000" font-family="FG Virgil" font-size="10.4" font-weight="bold" lengthAdjust="spacing" textLength="5.6" x="825.6" y="260.782">5</text><text fill="#000000" font-family="FG Virgil" font-size="10.4" lengthAdjust="spacing" textLength="92.8" x="834.4" y="260.782">returns SystemUser</text><polygon fill="#181818" points="1084,286.825,1092,290.025,1084,293.225,1087.2,290.025" style="stroke:#181818;stroke-width:0.8000000000000002;"/><line style="stroke:#181818;stroke-width:0.8000000000000002;" x1="812" x2="1088.8" y1="290.025" y2="290.025"/><text fill="#000000" font-family="FG Virgil" font-size="10.4" font-weight="bold" lengthAdjust="spacing" textLength="5.6" x="817.6" y="285.8148">6</text><text fill="#000000" font-family="FG Virgil" font-size="10.4" lengthAdjust="spacing" textLength="257.6" x="826.4" y="285.8148">availableSharedBoards = findSharedBoardsOfUser(user)</text><polygon fill="#181818" points="820.8,311.8578,812.8,315.0578,820.8,318.2578,817.6,315.0578" style="stroke:#181818;stroke-width:0.8000000000000002;"/><line style="stroke:#181818;stroke-width:0.8000000000000002;stroke-dasharray:2.0,2.0;" x1="816" x2="1096.8" y1="315.0578" y2="315.0578"/><text fill="#000000" font-family="FG Virgil" font-size="10.4" font-weight="bold" lengthAdjust="spacing" textLength="5.6" x="825.6" y="310.8477">7</text><text fill="#000000" font-family="FG Virgil" font-size="10.4" lengthAdjust="spacing" textLength="124.8" x="834.4" y="310.8477">returns List&lt;SharedBoard&gt;</text><path d="M717.6,327.0578 L766.4,327.0578 L766.4,334.4906 L758.4,342.4906 L717.6,342.4906 L717.6,327.0578 " fill="#EEEEEE" style="stroke:#000000;stroke-width:1.2000000000000002;"/><rect fill="none" height="77.4984" style="stroke:#000000;stroke-width:1.2000000000000002;" width="288.8" x="717.6" y="327.0578"/><text fill="#000000" font-family="FG Virgil" font-size="10.4" font-weight="bold" lengthAdjust="spacing" textLength="12.8" x="729.6" y="339.0805">alt</text><text fill="#000000" font-family="FG Virgil" font-size="8.8" font-weight="bold" lengthAdjust="spacing" textLength="158.4" x="778.4" y="338.1539">[if(!availableSharedBoards.isEmpty)]</text><path d="M725.6,348.0906 L774.4,348.0906 L774.4,355.5234 L766.4,363.5234 L725.6,363.5234 L725.6,348.0906 " fill="#EEEEEE" style="stroke:#000000;stroke-width:1.2000000000000002;"/><rect fill="none" height="50.8656" style="stroke:#000000;stroke-width:1.2000000000000002;" width="272.8" x="725.6" y="348.0906"/><text fill="#000000" font-family="FG Virgil" font-size="10.4" font-weight="bold" lengthAdjust="spacing" textLength="12.8" x="737.6" y="360.1133">alt</text><text fill="#000000" font-family="FG Virgil" font-size="8.8" font-weight="bold" lengthAdjust="spacing" textLength="208" x="786.4" y="359.1867">[for (SharedBoard list : availableSharedBoards)]</text><line style="stroke:#181818;stroke-width:0.8000000000000002;" x1="812" x2="845.6" y1="382.1563" y2="382.1563"/><line style="stroke:#181818;stroke-width:0.8000000000000002;" x1="845.6" x2="845.6" y1="382.1563" y2="392.5563"/><line style="stroke:#181818;stroke-width:0.8000000000000002;" x1="812.8" x2="845.6" y1="392.5563" y2="392.5563"/><polygon fill="#181818" points="820.8,389.3563,812.8,392.5563,820.8,395.7563,817.6,392.5563" style="stroke:#181818;stroke-width:0.8000000000000002;"/><text fill="#000000" font-family="FG Virgil" font-size="10.4" font-weight="bold" lengthAdjust="spacing" textLength="5.6" x="817.6" y="377.9461">8</text><text fill="#000000" font-family="FG Virgil" font-size="10.4" lengthAdjust="spacing" textLength="123.2" x="826.4" y="377.9461">sharedBoards += list.title()</text><path d="M653.6,414.1563 L653.6,490.9563 L824,490.9563 L824,422.1563 L816,414.1563 L653.6,414.1563 " fill="#FAFAFA" style="stroke:#181818;stroke-width:0.4000000000000001;"/><path d="M816,414.1563 L816,422.1563 L824,422.1563 L816,414.1563 " fill="#FAFAFA" style="stroke:#181818;stroke-width:0.4000000000000001;"/><text fill="#000000" font-family="FG Virgil" font-size="10.4" lengthAdjust="spacing" textLength="130.4" x="658.4" y="429.3789">response is created with the</text><text fill="#000000" font-family="FG Virgil" font-size="10.4" lengthAdjust="spacing" textLength="136.8" x="658.4" y="443.2117">class RequestMessage using</text><text fill="#000000" font-family="FG Virgil" font-size="10.4" lengthAdjust="spacing" textLength="150.4" x="658.4" y="457.0445">code SEND_MESSAGE(6) pass</text><text fill="#000000" font-family="FG Virgil" font-size="10.4" lengthAdjust="spacing" textLength="91.2" x="658.4" y="470.8773">by parameter String</text><text fill="#000000" font-family="FG Virgil" font-size="10.4" lengthAdjust="spacing" textLength="104.8" x="658.4" y="484.7102">availableSharedBoards</text><polygon fill="#181818" points="658.8,510.7531,650.8,513.9531,658.8,517.1531,655.6,513.9531" style="stroke:#181818;stroke-width:0.8000000000000002;"/><line style="stroke:#181818;stroke-width:0.8000000000000002;stroke-dasharray:2.0,2.0;" x1="654" x2="807.2" y1="513.9531" y2="513.9531"/><text fill="#000000" font-family="FG Virgil" font-size="10.4" font-weight="bold" lengthAdjust="spacing" textLength="5.6" x="663.6" y="509.743">9</text><text fill="#000000" font-family="FG Virgil" font-size="10.4" lengthAdjust="spacing" textLength="71.2" x="672.4" y="509.743">send(response)</text><polygon fill="#181818" points="231.6,535.7859,223.6,538.9859,231.6,542.1859,228.4,538.9859" style="stroke:#181818;stroke-width:0.8000000000000002;"/><line style="stroke:#181818;stroke-width:0.8000000000000002;stroke-dasharray:2.0,2.0;" x1="226.8" x2="645.2" y1="538.9859" y2="538.9859"/><text fill="#000000" font-family="FG Virgil" font-size="10.4" font-weight="bold" lengthAdjust="spacing" textLength="11.2" x="236.4" y="534.7758">10</text><text fill="#000000" font-family="FG Virgil" font-size="10.4" lengthAdjust="spacing" textLength="140.8" x="250.8" y="534.7758">returns String sharedBoardList</text><polygon fill="#181818" points="30.8,560.8188,22.8,564.0188,30.8,567.2188,27.6,564.0188" style="stroke:#181818;stroke-width:0.8000000000000002;"/><line style="stroke:#181818;stroke-width:0.8000000000000002;stroke-dasharray:2.0,2.0;" x1="26" x2="214" y1="564.0188" y2="564.0188"/><text fill="#000000" font-family="FG Virgil" font-size="10.4" font-weight="bold" lengthAdjust="spacing" textLength="11.2" x="35.6" y="559.8086">11</text><text fill="#000000" font-family="FG Virgil" font-size="10.4" lengthAdjust="spacing" textLength="144.8" x="50" y="559.8086">Asks to choose a shared board</text><polygon fill="#181818" points="205.2,585.8516,213.2,589.0516,205.2,592.2516,208.4,589.0516" style="stroke:#181818;stroke-width:0.8000000000000002;"/><line style="stroke:#181818;stroke-width:0.8000000000000002;" x1="22" x2="210" y1="589.0516" y2="589.0516"/><text fill="#000000" font-family="FG Virgil" font-size="10.4" font-weight="bold" lengthAdjust="spacing" textLength="11.2" x="27.6" y="584.8414">12</text><text fill="#000000" font-family="FG Virgil" font-size="10.4" lengthAdjust="spacing" textLength="107.2" x="42" y="584.8414">Selects a shared board</text><polygon fill="#181818" points="632.4,610.8844,640.4,614.0844,632.4,617.2844,635.6,614.0844" style="stroke:#181818;stroke-width:0.8000000000000002;"/><line style="stroke:#181818;stroke-width:0.8000000000000002;" x1="222.8" x2="637.2" y1="614.0844" y2="614.0844"/><text fill="#000000" font-family="FG Virgil" font-size="10.4" font-weight="bold" lengthAdjust="spacing" textLength="11.2" x="228.4" y="609.8742">13</text><text fill="#000000" font-family="FG Virgil" font-size="10.4" lengthAdjust="spacing" textLength="389.6" x="242.8" y="609.8742">archiveSharedBoard(SharedBoardClient.userName, SharedBoardClient.sharedBoard)</text><path d="M653.6,624.4844 L653.6,701.2844 L844.8,701.2844 L844.8,632.4844 L836.8,624.4844 L653.6,624.4844 " fill="#FAFAFA" style="stroke:#181818;stroke-width:0.4000000000000001;"/><path d="M836.8,624.4844 L836.8,632.4844 L844.8,632.4844 L836.8,624.4844 " fill="#FAFAFA" style="stroke:#181818;stroke-width:0.4000000000000001;"/><text fill="#000000" font-family="FG Virgil" font-size="10.4" lengthAdjust="spacing" textLength="122.4" x="658.4" y="639.707">request is created with the</text><text fill="#000000" font-family="FG Virgil" font-size="10.4" lengthAdjust="spacing" textLength="136.8" x="658.4" y="653.5398">class RequestMessage using</text><text fill="#000000" font-family="FG Virgil" font-size="10.4" lengthAdjust="spacing" textLength="174.4" x="658.4" y="667.3727">code ARCHIVE_SHAREDBOARD(18)</text><text fill="#000000" font-family="FG Virgil" font-size="10.4" lengthAdjust="spacing" textLength="129.6" x="661.6" y="681.2055">pass by parameter user and</text><text fill="#000000" font-family="FG Virgil" font-size="10.4" lengthAdjust="spacing" textLength="58.4" x="658.4" y="695.0383">sharedBoard</text><polygon fill="#181818" points="794.4,721.0813,802.4,724.2813,794.4,727.4813,797.6,724.2813" style="stroke:#181818;stroke-width:0.8000000000000002;"/><line style="stroke:#181818;stroke-width:0.8000000000000002;" x1="650" x2="799.2" y1="724.2813" y2="724.2813"/><text fill="#000000" font-family="FG Virgil" font-size="10.4" font-weight="bold" lengthAdjust="spacing" textLength="11.2" x="655.6" y="720.0711">14</text><text fill="#000000" font-family="FG Virgil" font-size="10.4" lengthAdjust="spacing" textLength="63.2" x="670" y="720.0711">send(request)</text><polygon fill="#181818" points="953.6,746.1141,961.6,749.3141,953.6,752.5141,956.8,749.3141" style="stroke:#181818;stroke-width:0.8000000000000002;"/><line style="stroke:#181818;stroke-width:0.8000000000000002;" x1="812" x2="958.4" y1="749.3141" y2="749.3141"/><text fill="#000000" font-family="FG Virgil" font-size="10.4" font-weight="bold" lengthAdjust="spacing" textLength="11.2" x="817.6" y="745.1039">15</text><text fill="#000000" font-family="FG Virgil" font-size="10.4" lengthAdjust="spacing" textLength="121.6" x="832" y="745.1039">user = findById(username)</text><polygon fill="#181818" points="820.8,771.1469,812.8,774.3469,820.8,777.5469,817.6,774.3469" style="stroke:#181818;stroke-width:0.8000000000000002;"/><line style="stroke:#181818;stroke-width:0.8000000000000002;stroke-dasharray:2.0,2.0;" x1="816" x2="966.4" y1="774.3469" y2="774.3469"/><text fill="#000000" font-family="FG Virgil" font-size="10.4" font-weight="bold" lengthAdjust="spacing" textLength="11.2" x="825.6" y="770.1367">16</text><text fill="#000000" font-family="FG Virgil" font-size="10.4" lengthAdjust="spacing" textLength="92.8" x="840" y="770.1367">returns SystemUser</text><polygon fill="#181818" points="1084,796.1797,1092,799.3797,1084,802.5797,1087.2,799.3797" style="stroke:#181818;stroke-width:0.8000000000000002;"/><line style="stroke:#181818;stroke-width:0.8000000000000002;" x1="812" x2="1088.8" y1="799.3797" y2="799.3797"/><text fill="#000000" font-family="FG Virgil" font-size="10.4" font-weight="bold" lengthAdjust="spacing" textLength="11.2" x="817.6" y="795.1695">17</text><text fill="#000000" font-family="FG Virgil" font-size="10.4" lengthAdjust="spacing" textLength="231.2" x="832" y="795.1695">sharedBoard = findSharedBoard(sharedBoardTitle)</text><polygon fill="#181818" points="820.8,821.2125,812.8,824.4125,820.8,827.6125,817.6,824.4125" style="stroke:#181818;stroke-width:0.8000000000000002;"/><line style="stroke:#181818;stroke-width:0.8000000000000002;stroke-dasharray:2.0,2.0;" x1="816" x2="1096.8" y1="824.4125" y2="824.4125"/><text fill="#000000" font-family="FG Virgil" font-size="10.4" font-weight="bold" lengthAdjust="spacing" textLength="11.2" x="825.6" y="820.2023">18</text><text fill="#000000" font-family="FG Virgil" font-size="10.4" lengthAdjust="spacing" textLength="95.2" x="840" y="820.2023">returns SharedBoard</text><path d="M725.6,836.4125 L774.4,836.4125 L774.4,843.8453 L766.4,851.8453 L725.6,851.8453 L725.6,836.4125 " fill="#EEEEEE" style="stroke:#000000;stroke-width:1.2000000000000002;"/><rect fill="none" height="90.5313" style="stroke:#000000;stroke-width:1.2000000000000002;" width="1065.6" x="725.6" y="836.4125"/><text fill="#000000" font-family="FG Virgil" font-size="10.4" font-weight="bold" lengthAdjust="spacing" textLength="12.8" x="737.6" y="848.4352">alt</text><text fill="#000000" font-family="FG Virgil" font-size="8.8" font-weight="bold" lengthAdjust="spacing" textLength="140.8" x="786.4" y="847.5086">[if user and sharedBoard != null]</text><polygon fill="#181818" points="1734.4,867.2781,1742.4,870.4781,1734.4,873.6781,1737.6,870.4781" style="stroke:#181818;stroke-width:0.8000000000000002;"/><line style="stroke:#181818;stroke-width:0.8000000000000002;" x1="812" x2="1739.2" y1="870.4781" y2="870.4781"/><text fill="#000000" font-family="FG Virgil" font-size="10.4" font-weight="bold" lengthAdjust="spacing" textLength="11.2" x="817.6" y="866.268">19</text><text fill="#000000" font-family="FG Virgil" font-size="10.4" lengthAdjust="spacing" textLength="259.2" x="832" y="866.268">sharedBoard.setStatus(SharedBoardStatus.ARCHIVED)</text><polygon fill="#181818" points="1084,892.3109,1092,895.5109,1084,898.7109,1087.2,895.5109" style="stroke:#181818;stroke-width:0.8000000000000002;"/><line style="stroke:#181818;stroke-width:0.8000000000000002;" x1="812" x2="1088.8" y1="895.5109" y2="895.5109"/><text fill="#000000" font-family="FG Virgil" font-size="10.4" font-weight="bold" lengthAdjust="spacing" textLength="11.2" x="817.6" y="891.3008">20</text><text fill="#000000" font-family="FG Virgil" font-size="10.4" lengthAdjust="spacing" textLength="85.6" x="832" y="891.3008">save(sharedBoard)</text><polygon fill="#181818" points="820.8,917.3438,812.8,920.5438,820.8,923.7438,817.6,920.5438" style="stroke:#181818;stroke-width:0.8000000000000002;"/><line style="stroke:#181818;stroke-width:0.8000000000000002;stroke-dasharray:2.0,2.0;" x1="816" x2="1096.8" y1="920.5438" y2="920.5438"/><text fill="#000000" font-family="FG Virgil" font-size="10.4" font-weight="bold" lengthAdjust="spacing" textLength="11.2" x="825.6" y="916.3336">21</text><text fill="#000000" font-family="FG Virgil" font-size="10.4" lengthAdjust="spacing" textLength="95.2" x="840" y="916.3336">returns SharedBoard</text><path d="M653.6,936.5438 L653.6,999.7438 L810.4,999.7438 L810.4,944.5438 L802.4,936.5438 L653.6,936.5438 " fill="#FAFAFA" style="stroke:#181818;stroke-width:0.4000000000000001;"/><path d="M802.4,936.5438 L802.4,944.5438 L810.4,944.5438 L802.4,936.5438 " fill="#FAFAFA" style="stroke:#181818;stroke-width:0.4000000000000001;"/><text fill="#000000" font-family="FG Virgil" font-size="10.4" lengthAdjust="spacing" textLength="130.4" x="658.4" y="951.7664">response is created with the</text><text fill="#000000" font-family="FG Virgil" font-size="10.4" lengthAdjust="spacing" textLength="136.8" x="658.4" y="965.5992">class RequestMessage using</text><text fill="#000000" font-family="FG Virgil" font-size="10.4" lengthAdjust="spacing" textLength="129.6" x="658.4" y="979.432">code ACK(2) if success and</text><text fill="#000000" font-family="FG Virgil" font-size="10.4" lengthAdjust="spacing" textLength="65.6" x="658.4" y="993.2648">ERR(3) if error</text><polygon fill="#181818" points="658.8,1019.3078,650.8,1022.5078,658.8,1025.7078,655.6,1022.5078" style="stroke:#181818;stroke-width:0.8000000000000002;"/><line style="stroke:#181818;stroke-width:0.8000000000000002;stroke-dasharray:2.0,2.0;" x1="654" x2="807.2" y1="1022.5078" y2="1022.5078"/><text fill="#000000" font-family="FG Virgil" font-size="10.4" font-weight="bold" lengthAdjust="spacing" textLength="11.2" x="663.6" y="1018.2977">22</text><text fill="#000000" font-family="FG Virgil" font-size="10.4" lengthAdjust="spacing" textLength="71.2" x="678" y="1018.2977">send(response)</text><polygon fill="#181818" points="231.6,1044.3406,223.6,1047.5406,231.6,1050.7406,228.4,1047.5406" style="stroke:#181818;stroke-width:0.8000000000000002;"/><line style="stroke:#181818;stroke-width:0.8000000000000002;stroke-dasharray:2.0,2.0;" x1="226.8" x2="645.2" y1="1047.5406" y2="1047.5406"/><text fill="#000000" font-family="FG Virgil" font-size="10.4" font-weight="bold" lengthAdjust="spacing" textLength="11.2" x="236.4" y="1043.3305">23</text><text fill="#000000" font-family="FG Virgil" font-size="10.4" lengthAdjust="spacing" textLength="71.2" x="250.8" y="1043.3305">send(response)</text><polygon fill="#181818" points="26.8,1069.3734,18.8,1072.5734,26.8,1075.7734,23.6,1072.5734" style="stroke:#181818;stroke-width:0.8000000000000002;"/><line style="stroke:#181818;stroke-width:0.8000000000000002;stroke-dasharray:2.0,2.0;" x1="22" x2="214" y1="1072.5734" y2="1072.5734"/><text fill="#000000" font-family="FG Virgil" font-size="10.4" font-weight="bold" lengthAdjust="spacing" textLength="11.2" x="31.6" y="1068.3633">24</text><text fill="#000000" font-family="FG Virgil" font-size="10.4" lengthAdjust="spacing" textLength="159.2" x="46" y="1068.3633">Shows if operation was successful</text><!--SRC=[pLTTRzis57tNhxXzcepD3je1ms0a1Xp7ROoroI35xKk0W97eY0WjQYJbmF- -bwHYax7as4qBJ0-6HTx3-tsF-5kXTJKyEQauANMzv8DCB4_K8oih8iboKEWbZpQli1Ibo0efbXIqhActKv7iaJpGLAyv1KapxUtbT45ghZ-AKbyHX7xy15-PV63-oQeWkNXYvGCi25SqYaYjHLalxwd4_vaM4kQAIY0AnkOjGfXc6QlGR1ZBh60hcXP4qlnS49dFPqOIVqzFAqaLBJNHJ9IZKPIX5LBm5ip4xN2dPNAJV4OqgIhEicUmh_Gcgr8gLrH-eKgXwvUap1jinrO0Dzuaj1AAeJThQssm4WXxLeQOreq0-gzGUgP3rCkr032Xd8VYuSgEyBD8YzfBfWpal6OyTw5fM-y6jfczizK2tqhRuc4hecbJDu2F_TSVpMT3U4AG0Ys0k7e0OaeHOmht9gXMV7F2V6RVvxF-o9J743ZQugL0nNuvSOPbDwWngwRgU-5H1X-L0lz9zb1e40jmHqhwNqsL1gOWanH5StXYkW1TKBWjCqwKWiJ9DDK5jJ9zWviYfv1UZfFfnTtvzJYvkBl-TZLDuW_lUxSbTYWYxzTW-urgJ8SnpLfb7rlm_L5NyGu1koYF6_DwqHQuyQchx3UINIs3MiFY7rhRu0mMhCpFrxCyDk_b9eoXtXUD0_xpeitw-noKLDUonAPQAqsNyo0wEUrITv1xhNqw1B8YZ9DxxeyXrRZjBrqlZ58RXBO0j4-180xj4-IWS7p68Z_ryAFMg1nW0-5OreluNQlN0wQcoqgl_ShoWGja0B-zREz1HmZR3jcJdUwIzzFo-vdLET1CSnhtTZLWVqJT2w_6ohEvVJ2eIfIA_lXac5vTt7sPfkduqpJ-g-S6mcqPZ8HKIuTe3UiXjOxXTFOsuy8PxIV42yIh4yCD9JCVPbv_EYEzv9WIRLLWnwpRmOy1Sv2T_KCOgqSxzhD22DKwzPqaDBfJol6ZHhKADeS_EqvslYpsqC8ViBldERQjij2b_ONoDWOP9vFBsTVfdMCIIoJn-x-xAGGmQOZrhDuc-qXIEPfIVYgZ748eFubFkkdanyd4Iy0kXSJUxeqPO2rklpx2ty0Y7ZGwcZuSSsohpNVrtHcKDNvz7XUu85m3HNMADuGw-81pAuEc7IvwRqaDMT5uVrl_VuFlizWl8QRnv9_uGyyaMDLPXXBDH9acIVodNQTI2XaToEYT5FGIVmmHUVEixsuEXnyUJ6oyFFH73GcbXNXInZzHKMdlc7WVKSzHMDGySeztbhl4V0S0]--></g></svg>