<?xml version="1.0" encoding="us-ascii" standalone="no"?><svg xmlns="http://www.w3.org/2000/svg" xmlns:xlink="http://www.w3.org/1999/xlink" contentStyleType="text/css" height="593px" preserveAspectRatio="none" style="width:1239px;height:593px;background:#FFFFFF;" version="1.1" viewBox="0 0 1239 593" width="1239px" zoomAndPan="magnify"><defs/><g><!--class ShareSharedBoardUI--><g id="elem_ShareSharedBoardUI"><rect codeLine="2" fill="#F1F1F1" height="56.6211" id="ShareSharedBoardUI" rx="2.5" ry="2.5" style="stroke:#181818;stroke-width:0.5;" width="173" x="466" y="7"/><ellipse cx="481" cy="27.3105" fill="#ADD1B2" rx="11" ry="11" style="stroke:#181818;stroke-width:1.0;"/><path d="M483.9731,32.9536 Q483.3921,33.2524 482.7529,33.4019 Q482.1138,33.5513 481.4082,33.5513 Q478.9014,33.5513 477.5815,31.8994 Q476.2617,30.2476 476.2617,27.1265 Q476.2617,23.9971 477.5815,22.3452 Q478.9014,20.6934 481.4082,20.6934 Q482.1138,20.6934 482.7612,20.8428 Q483.4087,20.9922 483.9731,21.291 L483.9731,24.0137 Q483.3423,23.4326 482.7488,23.1628 Q482.1553,22.8931 481.5244,22.8931 Q480.1797,22.8931 479.4949,23.9597 Q478.8101,25.0264 478.8101,27.1265 Q478.8101,29.2183 479.4949,30.2849 Q480.1797,31.3516 481.5244,31.3516 Q482.1553,31.3516 482.7488,31.0818 Q483.3423,30.812 483.9731,30.231 Z " fill="#000000"/><text fill="#000000" font-family="sans-serif" font-size="12" font-style="italic" lengthAdjust="spacing" textLength="23" x="554" y="23.6016">&#171;UI&#187;</text><text fill="#000000" font-family="sans-serif" font-size="14" lengthAdjust="spacing" textLength="141" x="495" y="39.668">ShareSharedBoardUI</text><line style="stroke:#181818;stroke-width:0.5;" x1="467" x2="638" y1="47.6211" y2="47.6211"/><line style="stroke:#181818;stroke-width:0.5;" x1="467" x2="638" y1="55.6211" y2="55.6211"/></g><!--class ShareSharedBoardController--><g id="elem_ShareSharedBoardController"><rect codeLine="5" fill="#F1F1F1" height="122.5742" id="ShareSharedBoardController" rx="2.5" ry="2.5" style="stroke:#181818;stroke-width:0.5;" width="498" x="303.5" y="124"/><ellipse cx="449.75" cy="144.3105" fill="#ADD1B2" rx="11" ry="11" style="stroke:#181818;stroke-width:1.0;"/><path d="M452.7231,149.9536 Q452.1421,150.2524 451.5029,150.4019 Q450.8638,150.5513 450.1582,150.5513 Q447.6514,150.5513 446.3315,148.8994 Q445.0117,147.2476 445.0117,144.1265 Q445.0117,140.9971 446.3315,139.3452 Q447.6514,137.6934 450.1582,137.6934 Q450.8638,137.6934 451.5112,137.8428 Q452.1587,137.9922 452.7231,138.291 L452.7231,141.0137 Q452.0923,140.4326 451.4988,140.1628 Q450.9053,139.8931 450.2744,139.8931 Q448.9297,139.8931 448.2449,140.9597 Q447.5601,142.0264 447.5601,144.1265 Q447.5601,146.2183 448.2449,147.2849 Q448.9297,148.3516 450.2744,148.3516 Q450.9053,148.3516 451.4988,148.0818 Q452.0923,147.812 452.7231,147.231 Z " fill="#000000"/><text fill="#000000" font-family="sans-serif" font-size="12" font-style="italic" lengthAdjust="spacing" textLength="68" x="534.75" y="140.6016">&#171;Controller&#187;</text><text fill="#000000" font-family="sans-serif" font-size="14" lengthAdjust="spacing" textLength="197" x="470.25" y="156.668">ShareSharedBoardController</text><line style="stroke:#181818;stroke-width:0.5;" x1="304.5" x2="800.5" y1="164.6211" y2="164.6211"/><line style="stroke:#181818;stroke-width:0.5;" x1="304.5" x2="800.5" y1="172.6211" y2="172.6211"/><ellipse cx="314.5" cy="186.3652" fill="#84BE84" rx="3" ry="3" style="stroke:#038048;stroke-width:1.0;"/><text fill="#000000" font-family="sans-serif" font-size="14" lengthAdjust="spacing" textLength="287" x="323.5" y="190.1563">boolean: sendRequestToShare(username)</text><ellipse cx="314.5" cy="202.8535" fill="#84BE84" rx="3" ry="3" style="stroke:#038048;stroke-width:1.0;"/><text fill="#000000" font-family="sans-serif" font-size="14" lengthAdjust="spacing" textLength="257" x="323.5" y="206.6445">boolean: listUsers(user, sharedBoard)</text><ellipse cx="314.5" cy="219.3418" fill="#84BE84" rx="3" ry="3" style="stroke:#038048;stroke-width:1.0;"/><text fill="#000000" font-family="sans-serif" font-size="14" lengthAdjust="spacing" textLength="472" x="323.5" y="223.1328">boolean: createSharedBoardInvitation(user, sharedBoard, permission</text><ellipse cx="314.5" cy="235.8301" fill="#84BE84" rx="3" ry="3" style="stroke:#038048;stroke-width:1.0;"/><text fill="#000000" font-family="sans-serif" font-size="14" lengthAdjust="spacing" textLength="234" x="323.5" y="239.6211">List&lt;String&gt; extractList(response)</text></g><!--class TcpServerMessageHandler--><g id="elem_TcpServerMessageHandler"><rect codeLine="12" fill="#F1F1F1" height="97.4648" id="TcpServerMessageHandler" rx="2.5" ry="2.5" style="stroke:#181818;stroke-width:0.5;" width="390" x="357.5" y="307"/><ellipse cx="457.75" cy="323" fill="#ADD1B2" rx="11" ry="11" style="stroke:#181818;stroke-width:1.0;"/><path d="M460.7231,328.6431 Q460.1421,328.9419 459.5029,329.0913 Q458.8638,329.2407 458.1582,329.2407 Q455.6514,329.2407 454.3315,327.5889 Q453.0117,325.937 453.0117,322.8159 Q453.0117,319.6865 454.3315,318.0347 Q455.6514,316.3828 458.1582,316.3828 Q458.8638,316.3828 459.5112,316.5322 Q460.1587,316.6816 460.7231,316.9805 L460.7231,319.7031 Q460.0923,319.1221 459.4988,318.8523 Q458.9053,318.5825 458.2744,318.5825 Q456.9297,318.5825 456.2449,319.6492 Q455.5601,320.7158 455.5601,322.8159 Q455.5601,324.9077 456.2449,325.9744 Q456.9297,327.041 458.2744,327.041 Q458.9053,327.041 459.4988,326.7712 Q460.0923,326.5015 460.7231,325.9204 Z " fill="#000000"/><text fill="#000000" font-family="sans-serif" font-size="14" lengthAdjust="spacing" textLength="181" x="478.25" y="328.291">TcpServerMessageHandler</text><line style="stroke:#181818;stroke-width:0.5;" x1="358.5" x2="746.5" y1="339" y2="339"/><line style="stroke:#181818;stroke-width:0.5;" x1="358.5" x2="746.5" y1="347" y2="347"/><ellipse cx="368.5" cy="360.7441" fill="#84BE84" rx="3" ry="3" style="stroke:#038048;stroke-width:1.0;"/><text fill="#000000" font-family="sans-serif" font-size="14" lengthAdjust="spacing" textLength="364" x="377.5" y="364.5352">void: findSharedBoardsUserCreate(version, data, out)</text><ellipse cx="368.5" cy="377.2324" fill="#84BE84" rx="3" ry="3" style="stroke:#038048;stroke-width:1.0;"/><text fill="#000000" font-family="sans-serif" font-size="14" lengthAdjust="spacing" textLength="220" x="377.5" y="381.0234">void listUsers(version, data, out)</text><ellipse cx="368.5" cy="393.7207" fill="#84BE84" rx="3" ry="3" style="stroke:#038048;stroke-width:1.0;"/><text fill="#000000" font-family="sans-serif" font-size="14" lengthAdjust="spacing" textLength="356" x="377.5" y="397.5117">void createSharedBoardInvitation(version, data, out)</text></g><!--class SharedBoardInvitationRepository--><g id="elem_SharedBoardInvitationRepository"><rect codeLine="17" fill="#F1F1F1" height="73.1094" id="SharedBoardInvitationRepository" rx="2.5" ry="2.5" style="stroke:#181818;stroke-width:0.5;" width="283" x="7" y="489"/><ellipse cx="33.7" cy="509.3105" fill="#ADD1B2" rx="11" ry="11" style="stroke:#181818;stroke-width:1.0;"/><path d="M36.6731,514.9536 Q36.0921,515.2524 35.4529,515.4019 Q34.8138,515.5513 34.1082,515.5513 Q31.6014,515.5513 30.2815,513.8994 Q28.9617,512.2476 28.9617,509.1265 Q28.9617,505.9971 30.2815,504.3452 Q31.6014,502.6934 34.1082,502.6934 Q34.8138,502.6934 35.4612,502.8428 Q36.1087,502.9922 36.6731,503.291 L36.6731,506.0137 Q36.0423,505.4326 35.4488,505.1628 Q34.8553,504.8931 34.2244,504.8931 Q32.8797,504.8931 32.1949,505.9597 Q31.5101,507.0264 31.5101,509.1265 Q31.5101,511.2183 32.1949,512.2849 Q32.8797,513.3516 34.2244,513.3516 Q34.8553,513.3516 35.4488,513.0818 Q36.0423,512.812 36.6731,512.231 Z " fill="#000000"/><text fill="#000000" font-family="sans-serif" font-size="12" font-style="italic" lengthAdjust="spacing" textLength="73" x="126.3" y="505.6016">&#171;Repository&#187;</text><text fill="#000000" font-family="sans-serif" font-size="14" lengthAdjust="spacing" textLength="225" x="50.3" y="521.668">SharedBoardInvitationRepository</text><line style="stroke:#181818;stroke-width:0.5;" x1="8" x2="289" y1="529.6211" y2="529.6211"/><line style="stroke:#181818;stroke-width:0.5;" x1="8" x2="289" y1="537.6211" y2="537.6211"/><ellipse cx="18" cy="551.3652" fill="#84BE84" rx="3" ry="3" style="stroke:#038048;stroke-width:1.0;"/><text fill="#000000" font-family="sans-serif" font-size="14" lengthAdjust="spacing" textLength="257" x="27" y="555.1563">void: save(newSharedBoardInvitation)</text></g><!--class UserRepository--><g id="elem_UserRepository"><rect codeLine="21" fill="#F1F1F1" height="73.1094" id="UserRepository" rx="2.5" ry="2.5" style="stroke:#181818;stroke-width:0.5;" width="158" x="325.5" y="489"/><ellipse cx="350.4" cy="509.3105" fill="#ADD1B2" rx="11" ry="11" style="stroke:#181818;stroke-width:1.0;"/><path d="M353.3731,514.9536 Q352.7921,515.2524 352.1529,515.4019 Q351.5138,515.5513 350.8082,515.5513 Q348.3014,515.5513 346.9815,513.8994 Q345.6617,512.2476 345.6617,509.1265 Q345.6617,505.9971 346.9815,504.3452 Q348.3014,502.6934 350.8082,502.6934 Q351.5138,502.6934 352.1612,502.8428 Q352.8087,502.9922 353.3731,503.291 L353.3731,506.0137 Q352.7423,505.4326 352.1488,505.1628 Q351.5553,504.8931 350.9244,504.8931 Q349.5797,504.8931 348.8949,505.9597 Q348.2101,507.0264 348.2101,509.1265 Q348.2101,511.2183 348.8949,512.2849 Q349.5797,513.3516 350.9244,513.3516 Q351.5553,513.3516 352.1488,513.0818 Q352.7423,512.812 353.3731,512.231 Z " fill="#000000"/><text fill="#000000" font-family="sans-serif" font-size="12" font-style="italic" lengthAdjust="spacing" textLength="73" x="382.1" y="505.6016">&#171;Repository&#187;</text><text fill="#000000" font-family="sans-serif" font-size="14" lengthAdjust="spacing" textLength="104" x="366.6" y="521.668">UserRepository</text><line style="stroke:#181818;stroke-width:0.5;" x1="326.5" x2="482.5" y1="529.6211" y2="529.6211"/><line style="stroke:#181818;stroke-width:0.5;" x1="326.5" x2="482.5" y1="537.6211" y2="537.6211"/><ellipse cx="336.5" cy="551.3652" fill="#84BE84" rx="3" ry="3" style="stroke:#038048;stroke-width:1.0;"/><text fill="#000000" font-family="sans-serif" font-size="14" lengthAdjust="spacing" textLength="132" x="345.5" y="555.1563">void: findById(user)</text></g><!--class SharedBoardRepository--><g id="elem_SharedBoardRepository"><rect codeLine="25" fill="#F1F1F1" height="64.4883" id="SharedBoardRepository" rx="2.5" ry="2.5" style="stroke:#181818;stroke-width:0.5;" width="365" x="519" y="493.5"/><ellipse cx="616.75" cy="509.5" fill="#ADD1B2" rx="11" ry="11" style="stroke:#181818;stroke-width:1.0;"/><path d="M619.7231,515.1431 Q619.1421,515.4419 618.5029,515.5913 Q617.8638,515.7407 617.1582,515.7407 Q614.6514,515.7407 613.3315,514.0889 Q612.0117,512.437 612.0117,509.3159 Q612.0117,506.1865 613.3315,504.5347 Q614.6514,502.8828 617.1582,502.8828 Q617.8638,502.8828 618.5112,503.0322 Q619.1587,503.1816 619.7231,503.4805 L619.7231,506.2031 Q619.0923,505.6221 618.4988,505.3523 Q617.9053,505.0825 617.2744,505.0825 Q615.9297,505.0825 615.2449,506.1492 Q614.5601,507.2158 614.5601,509.3159 Q614.5601,511.4077 615.2449,512.4744 Q615.9297,513.541 617.2744,513.541 Q617.9053,513.541 618.4988,513.2712 Q619.0923,513.0015 619.7231,512.4204 Z " fill="#000000"/><text fill="#000000" font-family="sans-serif" font-size="14" lengthAdjust="spacing" textLength="161" x="637.25" y="514.791">SharedBoardRepository</text><line style="stroke:#181818;stroke-width:0.5;" x1="520" x2="883" y1="525.5" y2="525.5"/><line style="stroke:#181818;stroke-width:0.5;" x1="520" x2="883" y1="533.5" y2="533.5"/><ellipse cx="530" cy="547.2441" fill="#84BE84" rx="3" ry="3" style="stroke:#038048;stroke-width:1.0;"/><text fill="#000000" font-family="sans-serif" font-size="14" lengthAdjust="spacing" textLength="339" x="539" y="551.0352">List&lt;SharedBoard&gt; findSharedBoardOfUser(user)</text></g><!--class SharedBoardInvitationBuilder--><g id="elem_SharedBoardInvitationBuilder"><rect codeLine="30" fill="#F1F1F1" height="122.5742" id="SharedBoardInvitationBuilder" rx="2.5" ry="2.5" style="stroke:#181818;stroke-width:0.5;" width="313" x="919" y="464"/><ellipse cx="971.25" cy="484.3105" fill="#ADD1B2" rx="11" ry="11" style="stroke:#181818;stroke-width:1.0;"/><path d="M974.2231,489.9536 Q973.6421,490.2524 973.0029,490.4019 Q972.3638,490.5513 971.6582,490.5513 Q969.1514,490.5513 967.8315,488.8994 Q966.5117,487.2476 966.5117,484.1265 Q966.5117,480.9971 967.8315,479.3452 Q969.1514,477.6934 971.6582,477.6934 Q972.3638,477.6934 973.0112,477.8428 Q973.6587,477.9922 974.2231,478.291 L974.2231,481.0137 Q973.5923,480.4326 972.9988,480.1628 Q972.4053,479.8931 971.7744,479.8931 Q970.4297,479.8931 969.7449,480.9597 Q969.0601,482.0264 969.0601,484.1265 Q969.0601,486.2183 969.7449,487.2849 Q970.4297,488.3516 971.7744,488.3516 Q972.4053,488.3516 972.9988,488.0818 Q973.5923,487.812 974.2231,487.231 Z " fill="#000000"/><text fill="#000000" font-family="sans-serif" font-size="12" font-style="italic" lengthAdjust="spacing" textLength="53" x="1065.25" y="480.6016">&#171;builder&#187;</text><text fill="#000000" font-family="sans-serif" font-size="14" lengthAdjust="spacing" textLength="200" x="991.75" y="496.668">SharedBoardInvitationBuilder</text><line style="stroke:#181818;stroke-width:0.5;" x1="920" x2="1231" y1="504.6211" y2="504.6211"/><line style="stroke:#181818;stroke-width:0.5;" x1="920" x2="1231" y1="512.6211" y2="512.6211"/><ellipse cx="930" cy="526.3652" fill="#84BE84" rx="3" ry="3" style="stroke:#038048;stroke-width:1.0;"/><text fill="#000000" font-family="sans-serif" font-size="14" lengthAdjust="spacing" textLength="251" x="939" y="530.1563">void: withSharedBoard(sharedBoard)</text><ellipse cx="930" cy="542.8535" fill="#84BE84" rx="3" ry="3" style="stroke:#038048;stroke-width:1.0;"/><text fill="#000000" font-family="sans-serif" font-size="14" lengthAdjust="spacing" textLength="137" x="939" y="546.6445">void: withUser(user)</text><ellipse cx="930" cy="559.3418" fill="#84BE84" rx="3" ry="3" style="stroke:#038048;stroke-width:1.0;"/><text fill="#000000" font-family="sans-serif" font-size="14" lengthAdjust="spacing" textLength="287" x="939" y="563.1328">void: withUserPermission(userPermission)</text><ellipse cx="930" cy="575.8301" fill="#84BE84" rx="3" ry="3" style="stroke:#038048;stroke-width:1.0;"/><text fill="#000000" font-family="sans-serif" font-size="14" lengthAdjust="spacing" textLength="82" x="939" y="579.6211">void: build()</text></g><!--link ShareSharedBoardUI to ShareSharedBoardController--><g id="link_ShareSharedBoardUI_ShareSharedBoardController"><path codeLine="37" d="M552.5,64.34 C552.5,79.51 552.5,99 552.5,117.85 " fill="none" id="ShareSharedBoardUI-to-ShareSharedBoardController" style="stroke:#181818;stroke-width:1.0;stroke-dasharray:7.0,7.0;"/><polygon fill="#181818" points="552.5,122.68,556.5,113.68,552.5,117.68,548.5,113.68,552.5,122.68" style="stroke:#181818;stroke-width:1.0;"/></g><!--link ShareSharedBoardController to TcpServerMessageHandler--><g id="link_ShareSharedBoardController_TcpServerMessageHandler"><path codeLine="38" d="M552.5,247.15 C552.5,264.72 552.5,283.76 552.5,300.86 " fill="none" id="ShareSharedBoardController-to-TcpServerMessageHandler" style="stroke:#181818;stroke-width:1.0;stroke-dasharray:7.0,7.0;"/><polygon fill="#181818" points="552.5,305.58,556.5,296.58,552.5,300.58,548.5,296.58,552.5,305.58" style="stroke:#181818;stroke-width:1.0;"/></g><!--link TcpServerMessageHandler to UserRepository--><g id="link_TcpServerMessageHandler_UserRepository"><path codeLine="39" d="M510.49,404.19 C488.2,429.49 461.12,460.23 439.91,484.3 " fill="none" id="TcpServerMessageHandler-to-UserRepository" style="stroke:#181818;stroke-width:1.0;stroke-dasharray:7.0,7.0;"/><polygon fill="#181818" points="437.03,487.71,445.9824,483.6046,440.3367,483.9596,439.9817,478.3139,437.03,487.71" style="stroke:#181818;stroke-width:1.0;"/></g><!--link TcpServerMessageHandler to SharedBoardRepository--><g id="link_TcpServerMessageHandler_SharedBoardRepository"><path codeLine="40" d="M594.8,404.19 C618.71,431.15 648.1,464.29 669.98,488.96 " fill="none" id="TcpServerMessageHandler-to-SharedBoardRepository" style="stroke:#181818;stroke-width:1.0;stroke-dasharray:7.0,7.0;"/><polygon fill="#181818" points="672.7,492.15,669.7282,482.7602,669.3853,488.4067,663.7388,488.0638,672.7,492.15" style="stroke:#181818;stroke-width:1.0;"/></g><!--link TcpServerMessageHandler to SharedBoardInvitationRepository--><g id="link_TcpServerMessageHandler_SharedBoardInvitationRepository"><path codeLine="41" d="M437.27,404.42 C374.79,430.4 298.63,462.07 240.21,486.36 " fill="none" id="TcpServerMessageHandler-to-SharedBoardInvitationRepository" style="stroke:#181818;stroke-width:1.0;stroke-dasharray:7.0,7.0;"/><polygon fill="#181818" points="235.97,488.54,245.8158,488.7859,240.5883,486.624,242.7502,481.3966,235.97,488.54" style="stroke:#181818;stroke-width:1.0;"/></g><!--link TcpServerMessageHandler to SharedBoardInvitationBuilder--><g id="link_TcpServerMessageHandler_SharedBoardInvitationBuilder"><path codeLine="42" d="M712.29,404.4 C771.83,422.6 839.9,443.81 901.5,464 C905.28,465.24 909.1,466.5 912.95,467.78 " fill="none" id="TcpServerMessageHandler-to-SharedBoardInvitationBuilder" style="stroke:#181818;stroke-width:1.0;stroke-dasharray:7.0,7.0;"/><polygon fill="#181818" points="917.61,469.66,910.3248,463.0324,912.8637,468.0874,907.8087,470.6264,917.61,469.66" style="stroke:#181818;stroke-width:1.0;"/></g><!--SRC=[bLFBRi8m4BpdAtmCQiG789G3N1gfLIiU7s3Y1Im5E_KweGZnxxKTX4qmQPj35CSpkpEUTLbHHBBSKmNknMQIAhOko7IwBlASd9DBafHHq5mAhMHLWJ9Wlt0aOfuNif6o0Yec146m1NmrW7ebNOcqGL227c3KnrOSzTfieeDa17t71sofWEfGKo5QhgdcKZooCrA3Ed14itijz6PwJPTQSR7B2NnhHKjj_wKAi9O2ZRgR_LLPBq6reDu1aUxWbGfclNTcJR5MSZOXMovO80YjbRcJcHgkxPqHHZNDY6pqAEG6pdz33lcESIzXX7t60cg9N4jrCZdwHP1Zvmnf2wc0OxH8S53MmbzhsjEQdGhcqXhrPgthuTddkzGy8kyV-iVMQl0rXzpF6bunDyARxkj1uv7hVK1D8mFfWK7ZsDRdRG8To2_luKvAwhH7hkPud0zSncJWdbhcapbEdistvTn7EWYD9lTNHcme_y-zHfeaFm00]--></g></svg>