<?xml version="1.0" encoding="us-ascii" standalone="no"?><svg xmlns="http://www.w3.org/2000/svg" xmlns:xlink="http://www.w3.org/1999/xlink" contentStyleType="text/css" height="2633px" preserveAspectRatio="none" style="width:2185px;height:2633px;background:#FFFFFF;" version="1.1" viewBox="0 0 2185 2633" width="2185px" zoomAndPan="magnify"><defs/><g><rect fill="#FFFFFF" height="2414.6387" style="stroke:#181818;stroke-width:1.0;" width="10" x="391.5" y="115.2871"/><rect fill="#FFFFFF" height="487.9004" style="stroke:#181818;stroke-width:1.0;" width="10" x="905.5" y="219.5742"/><rect fill="#FFFFFF" height="721.0742" style="stroke:#181818;stroke-width:1.0;" width="10" x="905.5" y="902.6484"/><rect fill="#FFFFFF" height="668.0742" style="stroke:#181818;stroke-width:1.0;" width="10" x="905.5" y="1794.5859"/><rect fill="#FFFFFF" height="348.0371" style="stroke:#181818;stroke-width:1.0;" width="10" x="1114.5" y="330.127"/><rect fill="#FFFFFF" height="565.9004" style="stroke:#181818;stroke-width:1.0;" width="10" x="1114.5" y="1028.5117"/><rect fill="#FFFFFF" height="432.3242" style="stroke:#181818;stroke-width:1.0;" width="10" x="1114.5" y="1971.7148"/><rect fill="#FFFFFF" height="29.3105" style="stroke:#181818;stroke-width:1.0;" width="10" x="1457.5" y="359.4375"/><rect fill="#FFFFFF" height="87.9316" style="stroke:#181818;stroke-width:1.0;" width="10" x="1457.5" y="1057.8223"/><rect fill="#FFFFFF" height="29.3105" style="stroke:#181818;stroke-width:1.0;" width="10" x="1457.5" y="2001.0254"/><rect fill="#FFFFFF" height="29.3105" style="stroke:#181818;stroke-width:1.0;" width="10" x="1606" y="418.0586"/><rect fill="#FFFFFF" height="29.3105" style="stroke:#181818;stroke-width:1.0;" width="10" x="1606" y="1217.375"/><rect fill="#FFFFFF" height="29.3105" style="stroke:#181818;stroke-width:1.0;" width="10" x="1606" y="2059.6465"/><rect fill="#FFFFFF" height="29.3105" style="stroke:#181818;stroke-width:1.0;" width="10" x="1815" y="1275.9961"/><rect fill="none" height="90.9316" style="stroke:#000000;stroke-width:1.5;" width="366" x="1002" y="462.3691"/><rect fill="none" height="59.6211" style="stroke:#000000;stroke-width:1.5;" width="346" x="1012" y="486.6797"/><rect fill="none" height="1740.8301" style="stroke:#000000;stroke-width:1.5;" width="2169.5" x="10" y="781.0957"/><rect fill="none" height="1650.8984" style="stroke:#000000;stroke-width:1.5;" width="2149.5" x="20" y="864.0273"/><rect fill="none" height="59.6211" style="stroke:#000000;stroke-width:1.5;" width="450.5" x="1012" y="1320.3066"/><rect fill="none" height="90.9316" style="stroke:#000000;stroke-width:1.5;" width="345.5" x="1002" y="1393.9277"/><rect fill="none" height="59.6211" style="stroke:#000000;stroke-width:1.5;" width="325.5" x="1012" y="1418.2383"/><rect fill="none" height="90.8867" style="stroke:#000000;stroke-width:1.5;" width="713" x="309" y="1755.9648"/><line style="stroke:#181818;stroke-width:0.5;stroke-dasharray:5.0,5.0;" x1="48" x2="48" y1="83.9766" y2="2538.9258"/><line style="stroke:#181818;stroke-width:0.5;stroke-dasharray:5.0,5.0;" x1="396" x2="396" y1="83.9766" y2="2538.9258"/><line style="stroke:#181818;stroke-width:0.5;stroke-dasharray:5.0,5.0;" x1="910" x2="910" y1="170.7754" y2="2538.9258"/><line style="stroke:#181818;stroke-width:0.5;stroke-dasharray:5.0,5.0;" x1="1119" x2="1119" y1="83.9766" y2="2538.9258"/><line style="stroke:#181818;stroke-width:0.5;stroke-dasharray:5.0,5.0;" x1="1462.5" x2="1462.5" y1="83.9766" y2="2538.9258"/><line style="stroke:#181818;stroke-width:0.5;stroke-dasharray:5.0,5.0;" x1="1610.5" x2="1610.5" y1="83.9766" y2="2538.9258"/><line style="stroke:#181818;stroke-width:0.5;stroke-dasharray:5.0,5.0;" x1="1819.5" x2="1819.5" y1="83.9766" y2="2538.9258"/><line style="stroke:#181818;stroke-width:0.5;stroke-dasharray:5.0,5.0;" x1="2052.5" x2="2052.5" y1="2135.9453" y2="2538.9258"/><text fill="#000000" font-family="FG Virgil" font-size="14" lengthAdjust="spacing" textLength="31" x="30" y="81.0234">User</text><ellipse cx="48.5" cy="15.9883" fill="#E3E3E3" rx="8" ry="8" style="stroke:#181818;stroke-width:0.5;"/><path d="M48.5,23.9883 L48.5,50.9883 M35.5,31.9883 L61.5,31.9883 M48.5,50.9883 L35.5,65.9883 M48.5,50.9883 L61.5,65.9883 " fill="none" style="stroke:#181818;stroke-width:0.5;"/><text fill="#000000" font-family="FG Virgil" font-size="14" lengthAdjust="spacing" textLength="31" x="30" y="2551.4609">User</text><ellipse cx="48.5" cy="2562.9141" fill="#E3E3E3" rx="8" ry="8" style="stroke:#181818;stroke-width:0.5;"/><path d="M48.5,2570.9141 L48.5,2597.9141 M35.5,2578.9141 L61.5,2578.9141 M48.5,2597.9141 L35.5,2612.9141 M48.5,2597.9141 L61.5,2612.9141 " fill="none" style="stroke:#181818;stroke-width:0.5;"/><rect fill="#E3E3E3" height="46.9766" rx="2.5" ry="2.5" style="stroke:#181818;stroke-width:0.5;" width="155" x="319" y="36"/><text fill="#000000" font-family="FG Virgil" font-size="14" font-style="italic" lengthAdjust="spacing" textLength="101" x="346" y="56.5352">&#171;presentation&#187;</text><text fill="#000000" font-family="FG Virgil" font-size="14" lengthAdjust="spacing" textLength="141" x="326" y="73.0234">ShareSharedBoardUI</text><rect fill="#E3E3E3" height="46.9766" rx="2.5" ry="2.5" style="stroke:#181818;stroke-width:0.5;" width="155" x="319" y="2537.9258"/><text fill="#000000" font-family="FG Virgil" font-size="14" font-style="italic" lengthAdjust="spacing" textLength="101" x="346" y="2558.4609">&#171;presentation&#187;</text><text fill="#000000" font-family="FG Virgil" font-size="14" lengthAdjust="spacing" textLength="141" x="326" y="2574.9492">ShareSharedBoardUI</text><text fill="#000000" font-family="FG Virgil" font-size="14" font-style="italic" lengthAdjust="spacing" textLength="90" x="862.5" y="2551.4609">&#171;application&#187;</text><text fill="#000000" font-family="FG Virgil" font-size="14" lengthAdjust="spacing" textLength="197" x="809" y="2567.9492">ShareSharedBoardController</text><ellipse cx="910.5" cy="2586.9023" fill="#E3E3E3" rx="12" ry="12" style="stroke:#181818;stroke-width:0.5;"/><polygon fill="#181818" points="906.5,2574.9023,912.5,2569.9023,910.5,2574.9023,912.5,2579.9023,906.5,2574.9023" style="stroke:#181818;stroke-width:1.0;"/><rect fill="#E3E3E3" height="30.4883" rx="2.5" ry="2.5" style="stroke:#181818;stroke-width:0.5;" width="195" x="1022" y="52.4883"/><text fill="#000000" font-family="FG Virgil" font-size="14" lengthAdjust="spacing" textLength="181" x="1029" y="73.0234">TcpServerMessageHandler</text><rect fill="#E3E3E3" height="30.4883" rx="2.5" ry="2.5" style="stroke:#181818;stroke-width:0.5;" width="195" x="1022" y="2537.9258"/><text fill="#000000" font-family="FG Virgil" font-size="14" lengthAdjust="spacing" textLength="181" x="1029" y="2558.4609">TcpServerMessageHandler</text><text fill="#000000" font-family="FG Virgil" font-size="14" font-style="italic" lengthAdjust="spacing" textLength="84" x="1417.5" y="64.5352">&#171;repository&#187;</text><text fill="#000000" font-family="FG Virgil" font-size="14" lengthAdjust="spacing" textLength="104" x="1407.5" y="81.0234">UserRepository</text><path d="M1444.5,15 C1444.5,5 1462.5,5 1462.5,5 C1462.5,5 1480.5,5 1480.5,15 L1480.5,41 C1480.5,51 1462.5,51 1462.5,51 C1462.5,51 1444.5,51 1444.5,41 L1444.5,15 " fill="#E3E3E3" style="stroke:#181818;stroke-width:1.5;"/><path d="M1444.5,15 C1444.5,25 1462.5,25 1462.5,25 C1462.5,25 1480.5,25 1480.5,15 " fill="none" style="stroke:#181818;stroke-width:1.5;"/><text fill="#000000" font-family="FG Virgil" font-size="14" font-style="italic" lengthAdjust="spacing" textLength="84" x="1417.5" y="2551.4609">&#171;repository&#187;</text><text fill="#000000" font-family="FG Virgil" font-size="14" lengthAdjust="spacing" textLength="104" x="1407.5" y="2567.9492">UserRepository</text><path d="M1444.5,2580.9023 C1444.5,2570.9023 1462.5,2570.9023 1462.5,2570.9023 C1462.5,2570.9023 1480.5,2570.9023 1480.5,2580.9023 L1480.5,2606.9023 C1480.5,2616.9023 1462.5,2616.9023 1462.5,2616.9023 C1462.5,2616.9023 1444.5,2616.9023 1444.5,2606.9023 L1444.5,2580.9023 " fill="#E3E3E3" style="stroke:#181818;stroke-width:1.5;"/><path d="M1444.5,2580.9023 C1444.5,2590.9023 1462.5,2590.9023 1462.5,2590.9023 C1462.5,2590.9023 1480.5,2590.9023 1480.5,2580.9023 " fill="none" style="stroke:#181818;stroke-width:1.5;"/><text fill="#000000" font-family="FG Virgil" font-size="14" font-style="italic" lengthAdjust="spacing" textLength="84" x="1566" y="64.5352">&#171;repository&#187;</text><text fill="#000000" font-family="FG Virgil" font-size="14" lengthAdjust="spacing" textLength="161" x="1527.5" y="81.0234">SharedBoardRepository</text><path d="M1593,15 C1593,5 1611,5 1611,5 C1611,5 1629,5 1629,15 L1629,41 C1629,51 1611,51 1611,51 C1611,51 1593,51 1593,41 L1593,15 " fill="#E3E3E3" style="stroke:#181818;stroke-width:1.5;"/><path d="M1593,15 C1593,25 1611,25 1611,25 C1611,25 1629,25 1629,15 " fill="none" style="stroke:#181818;stroke-width:1.5;"/><text fill="#000000" font-family="FG Virgil" font-size="14" font-style="italic" lengthAdjust="spacing" textLength="84" x="1566" y="2551.4609">&#171;repository&#187;</text><text fill="#000000" font-family="FG Virgil" font-size="14" lengthAdjust="spacing" textLength="161" x="1527.5" y="2567.9492">SharedBoardRepository</text><path d="M1593,2580.9023 C1593,2570.9023 1611,2570.9023 1611,2570.9023 C1611,2570.9023 1629,2570.9023 1629,2580.9023 L1629,2606.9023 C1629,2616.9023 1611,2616.9023 1611,2616.9023 C1611,2616.9023 1593,2616.9023 1593,2606.9023 L1593,2580.9023 " fill="#E3E3E3" style="stroke:#181818;stroke-width:1.5;"/><path d="M1593,2580.9023 C1593,2590.9023 1611,2590.9023 1611,2590.9023 C1611,2590.9023 1629,2590.9023 1629,2580.9023 " fill="none" style="stroke:#181818;stroke-width:1.5;"/><text fill="#000000" font-family="FG Virgil" font-size="14" font-style="italic" lengthAdjust="spacing" textLength="84" x="1775" y="64.5352">&#171;repository&#187;</text><text fill="#000000" font-family="FG Virgil" font-size="14" lengthAdjust="spacing" textLength="225" x="1704.5" y="81.0234">SharedBoardInvitationRepository</text><path d="M1802,15 C1802,5 1820,5 1820,5 C1820,5 1838,5 1838,15 L1838,41 C1838,51 1820,51 1820,51 C1820,51 1802,51 1802,41 L1802,15 " fill="#E3E3E3" style="stroke:#181818;stroke-width:1.5;"/><path d="M1802,15 C1802,25 1820,25 1820,25 C1820,25 1838,25 1838,15 " fill="none" style="stroke:#181818;stroke-width:1.5;"/><text fill="#000000" font-family="FG Virgil" font-size="14" font-style="italic" lengthAdjust="spacing" textLength="84" x="1775" y="2551.4609">&#171;repository&#187;</text><text fill="#000000" font-family="FG Virgil" font-size="14" lengthAdjust="spacing" textLength="225" x="1704.5" y="2567.9492">SharedBoardInvitationRepository</text><path d="M1802,2580.9023 C1802,2570.9023 1820,2570.9023 1820,2570.9023 C1820,2570.9023 1838,2570.9023 1838,2580.9023 L1838,2606.9023 C1838,2616.9023 1820,2616.9023 1820,2616.9023 C1820,2616.9023 1802,2616.9023 1802,2606.9023 L1802,2580.9023 " fill="#E3E3E3" style="stroke:#181818;stroke-width:1.5;"/><path d="M1802,2580.9023 C1802,2590.9023 1820,2590.9023 1820,2590.9023 C1820,2590.9023 1838,2590.9023 1838,2580.9023 " fill="none" style="stroke:#181818;stroke-width:1.5;"/><rect fill="#E3E3E3" height="46.9766" rx="2.5" ry="2.5" style="stroke:#181818;stroke-width:0.5;" width="214" x="1945.5" y="2537.9258"/><text fill="#000000" font-family="FG Virgil" font-size="14" font-style="italic" lengthAdjust="spacing" textLength="62" x="2021.5" y="2558.4609">&#171;Builder&#187;</text><text fill="#000000" font-family="FG Virgil" font-size="14" lengthAdjust="spacing" textLength="200" x="1952.5" y="2574.9492">SharedBoardInvitationBuilder</text><rect fill="#FFFFFF" height="2414.6387" style="stroke:#181818;stroke-width:1.0;" width="10" x="391.5" y="115.2871"/><rect fill="#FFFFFF" height="487.9004" style="stroke:#181818;stroke-width:1.0;" width="10" x="905.5" y="219.5742"/><rect fill="#FFFFFF" height="721.0742" style="stroke:#181818;stroke-width:1.0;" width="10" x="905.5" y="902.6484"/><rect fill="#FFFFFF" height="668.0742" style="stroke:#181818;stroke-width:1.0;" width="10" x="905.5" y="1794.5859"/><rect fill="#FFFFFF" height="348.0371" style="stroke:#181818;stroke-width:1.0;" width="10" x="1114.5" y="330.127"/><rect fill="#FFFFFF" height="565.9004" style="stroke:#181818;stroke-width:1.0;" width="10" x="1114.5" y="1028.5117"/><rect fill="#FFFFFF" height="432.3242" style="stroke:#181818;stroke-width:1.0;" width="10" x="1114.5" y="1971.7148"/><rect fill="#FFFFFF" height="29.3105" style="stroke:#181818;stroke-width:1.0;" width="10" x="1457.5" y="359.4375"/><rect fill="#FFFFFF" height="87.9316" style="stroke:#181818;stroke-width:1.0;" width="10" x="1457.5" y="1057.8223"/><rect fill="#FFFFFF" height="29.3105" style="stroke:#181818;stroke-width:1.0;" width="10" x="1457.5" y="2001.0254"/><rect fill="#FFFFFF" height="29.3105" style="stroke:#181818;stroke-width:1.0;" width="10" x="1606" y="418.0586"/><rect fill="#FFFFFF" height="29.3105" style="stroke:#181818;stroke-width:1.0;" width="10" x="1606" y="1217.375"/><rect fill="#FFFFFF" height="29.3105" style="stroke:#181818;stroke-width:1.0;" width="10" x="1606" y="2059.6465"/><rect fill="#FFFFFF" height="29.3105" style="stroke:#181818;stroke-width:1.0;" width="10" x="1815" y="1275.9961"/><polygon fill="#181818" points="379.5,111.2871,389.5,115.2871,379.5,119.2871,383.5,115.2871" style="stroke:#181818;stroke-width:1.0;"/><line style="stroke:#181818;stroke-width:1.0;" x1="48.5" x2="385.5" y1="115.2871" y2="115.2871"/><text fill="#000000" font-family="FG Virgil" font-size="13" lengthAdjust="spacing" textLength="253" x="55.5" y="110.5449">Wants to share one of his shared boards</text><polygon fill="#181818" points="797,140.5977,807,144.5977,797,148.5977,801,144.5977" style="stroke:#181818;stroke-width:1.0;"/><line style="stroke:#181818;stroke-width:1.0;" x1="401.5" x2="803" y1="144.5977" y2="144.5977"/><text fill="#000000" font-family="FG Virgil" font-size="13" lengthAdjust="spacing" textLength="46" x="408.5" y="139.8555">create()</text><text fill="#000000" font-family="FG Virgil" font-size="14" font-style="italic" lengthAdjust="spacing" textLength="90" x="862.5" y="168.8223">&#171;application&#187;</text><text fill="#000000" font-family="FG Virgil" font-size="14" lengthAdjust="spacing" textLength="197" x="809" y="185.3105">ShareSharedBoardController</text><ellipse cx="910.5" cy="139.2871" fill="#E3E3E3" rx="12" ry="12" style="stroke:#181818;stroke-width:0.5;"/><polygon fill="#181818" points="906.5,127.2871,912.5,122.2871,910.5,127.2871,912.5,132.2871,906.5,127.2871" style="stroke:#181818;stroke-width:1.0;"/><polygon fill="#181818" points="893.5,215.5742,903.5,219.5742,893.5,223.5742,897.5,219.5742" style="stroke:#181818;stroke-width:1.0;"/><line style="stroke:#181818;stroke-width:1.0;" x1="401.5" x2="899.5" y1="219.5742" y2="219.5742"/><text fill="#000000" font-family="FG Virgil" font-size="13" lengthAdjust="spacing" textLength="199" x="408.5" y="214.832">sendRequestToShare(username)</text><path d="M920,232.5742 L920,303.5742 L1141,303.5742 L1141,242.5742 L1131,232.5742 L920,232.5742 " fill="#FAFAFA" style="stroke:#181818;stroke-width:0.5;"/><path d="M1131,232.5742 L1131,242.5742 L1141,242.5742 L1131,232.5742 " fill="#FAFAFA" style="stroke:#181818;stroke-width:0.5;"/><text fill="#000000" font-family="FG Virgil" font-size="13" lengthAdjust="spacing" textLength="167" x="926" y="250.1426">request is created with the</text><text fill="#000000" font-family="FG Virgil" font-size="13" lengthAdjust="spacing" textLength="179" x="926" y="265.4531">class RequestMessage using</text><text fill="#000000" font-family="FG Virgil" font-size="13" lengthAdjust="spacing" textLength="200" x="926" y="280.7637">code SHAREDBOARD_CREATE(7)</text><text fill="#000000" font-family="FG Virgil" font-size="13" lengthAdjust="spacing" textLength="146" x="930" y="296.0742">pass by parameter user</text><polygon fill="#181818" points="1102.5,326.127,1112.5,330.127,1102.5,334.127,1106.5,330.127" style="stroke:#181818;stroke-width:1.0;"/><line style="stroke:#181818;stroke-width:1.0;" x1="915.5" x2="1108.5" y1="330.127" y2="330.127"/><text fill="#000000" font-family="FG Virgil" font-size="13" lengthAdjust="spacing" textLength="85" x="922.5" y="325.3848">send(request)</text><polygon fill="#181818" points="1445.5,355.4375,1455.5,359.4375,1445.5,363.4375,1449.5,359.4375" style="stroke:#181818;stroke-width:1.0;"/><line style="stroke:#181818;stroke-width:1.0;" x1="1124.5" x2="1451.5" y1="359.4375" y2="359.4375"/><text fill="#000000" font-family="FG Virgil" font-size="13" lengthAdjust="spacing" textLength="165" x="1131.5" y="354.6953">user = findById(username)</text><polygon fill="#181818" points="1135.5,384.748,1125.5,388.748,1135.5,392.748,1131.5,388.748" style="stroke:#181818;stroke-width:1.0;"/><line style="stroke:#181818;stroke-width:1.0;stroke-dasharray:2.0,2.0;" x1="1129.5" x2="1461.5" y1="388.748" y2="388.748"/><text fill="#000000" font-family="FG Virgil" font-size="13" lengthAdjust="spacing" textLength="122" x="1141.5" y="384.0059">returns SystemUser</text><polygon fill="#181818" points="1594,414.0586,1604,418.0586,1594,422.0586,1598,418.0586" style="stroke:#181818;stroke-width:1.0;"/><line style="stroke:#181818;stroke-width:1.0;" x1="1124.5" x2="1600" y1="418.0586" y2="418.0586"/><text fill="#000000" font-family="FG Virgil" font-size="13" lengthAdjust="spacing" textLength="344" x="1131.5" y="413.3164">availableSharedBoards = findSharedBoardsOfUser(user)</text><polygon fill="#181818" points="1135.5,443.3691,1125.5,447.3691,1135.5,451.3691,1131.5,447.3691" style="stroke:#181818;stroke-width:1.0;"/><line style="stroke:#181818;stroke-width:1.0;stroke-dasharray:2.0,2.0;" x1="1129.5" x2="1610" y1="447.3691" y2="447.3691"/><text fill="#000000" font-family="FG Virgil" font-size="13" lengthAdjust="spacing" textLength="169" x="1141.5" y="442.627">returns List&lt;SharedBoard&gt;</text><path d="M1002,462.3691 L1064,462.3691 L1064,469.6797 L1054,479.6797 L1002,479.6797 L1002,462.3691 " fill="#EEEEEE" style="stroke:#000000;stroke-width:1.5;"/><rect fill="none" height="90.9316" style="stroke:#000000;stroke-width:1.5;" width="366" x="1002" y="462.3691"/><text fill="#000000" font-family="FG Virgil" font-size="13" font-weight="bold" lengthAdjust="spacing" textLength="17" x="1017" y="475.9375">alt</text><text fill="#000000" font-family="FG Virgil" font-size="11" font-weight="bold" lengthAdjust="spacing" textLength="201" x="1079" y="475.0039">[if(!availableSharedBoards.isEmpty)]</text><path d="M1012,486.6797 L1074,486.6797 L1074,493.9902 L1064,503.9902 L1012,503.9902 L1012,486.6797 " fill="#EEEEEE" style="stroke:#000000;stroke-width:1.5;"/><rect fill="none" height="59.6211" style="stroke:#000000;stroke-width:1.5;" width="346" x="1012" y="486.6797"/><text fill="#000000" font-family="FG Virgil" font-size="13" font-weight="bold" lengthAdjust="spacing" textLength="17" x="1027" y="500.248">alt</text><text fill="#000000" font-family="FG Virgil" font-size="11" font-weight="bold" lengthAdjust="spacing" textLength="264" x="1089" y="499.3145">[for (SharedBoard list : availableSharedBoards)]</text><line style="stroke:#181818;stroke-width:1.0;" x1="1124.5" x2="1166.5" y1="525.3008" y2="525.3008"/><line style="stroke:#181818;stroke-width:1.0;" x1="1166.5" x2="1166.5" y1="525.3008" y2="538.3008"/><line style="stroke:#181818;stroke-width:1.0;" x1="1125.5" x2="1166.5" y1="538.3008" y2="538.3008"/><polygon fill="#181818" points="1135.5,534.3008,1125.5,538.3008,1135.5,542.3008,1131.5,538.3008" style="stroke:#181818;stroke-width:1.0;"/><text fill="#000000" font-family="FG Virgil" font-size="13" lengthAdjust="spacing" textLength="169" x="1131.5" y="520.5586">sharedBoards += list.title()</text><path d="M920,565.3008 L920,651.3008 L1126,651.3008 L1126,575.3008 L1116,565.3008 L920,565.3008 " fill="#FAFAFA" style="stroke:#181818;stroke-width:0.5;"/><path d="M1116,565.3008 L1116,575.3008 L1126,575.3008 L1116,565.3008 " fill="#FAFAFA" style="stroke:#181818;stroke-width:0.5;"/><text fill="#000000" font-family="FG Virgil" font-size="13" lengthAdjust="spacing" textLength="177" x="926" y="582.8691">response is created with the</text><text fill="#000000" font-family="FG Virgil" font-size="13" lengthAdjust="spacing" textLength="179" x="926" y="598.1797">class RequestMessage using</text><text fill="#000000" font-family="FG Virgil" font-size="13" lengthAdjust="spacing" textLength="181" x="926" y="613.4902">code SEND_MESSAGE(6) pass</text><text fill="#000000" font-family="FG Virgil" font-size="13" lengthAdjust="spacing" textLength="123" x="926" y="628.8008">by parameter String</text><text fill="#000000" font-family="FG Virgil" font-size="13" lengthAdjust="spacing" textLength="139" x="926" y="644.1113">availableSharedBoards</text><polygon fill="#181818" points="926.5,674.1641,916.5,678.1641,926.5,682.1641,922.5,678.1641" style="stroke:#181818;stroke-width:1.0;"/><line style="stroke:#181818;stroke-width:1.0;stroke-dasharray:2.0,2.0;" x1="920.5" x2="1118.5" y1="678.1641" y2="678.1641"/><text fill="#000000" font-family="FG Virgil" font-size="13" lengthAdjust="spacing" textLength="95" x="932.5" y="673.4219">send(response)</text><polygon fill="#181818" points="412.5,703.4746,402.5,707.4746,412.5,711.4746,408.5,707.4746" style="stroke:#181818;stroke-width:1.0;"/><line style="stroke:#181818;stroke-width:1.0;stroke-dasharray:2.0,2.0;" x1="406.5" x2="909.5" y1="707.4746" y2="707.4746"/><text fill="#000000" font-family="FG Virgil" font-size="13" lengthAdjust="spacing" textLength="190" x="418.5" y="702.7324">returns String sharedBoardList</text><polygon fill="#181818" points="59.5,732.7852,49.5,736.7852,59.5,740.7852,55.5,736.7852" style="stroke:#181818;stroke-width:1.0;"/><line style="stroke:#181818;stroke-width:1.0;stroke-dasharray:2.0,2.0;" x1="53.5" x2="390.5" y1="736.7852" y2="736.7852"/><text fill="#000000" font-family="FG Virgil" font-size="13" lengthAdjust="spacing" textLength="124" x="65.5" y="732.043">Asks to choose one</text><polygon fill="#181818" points="379.5,762.0957,389.5,766.0957,379.5,770.0957,383.5,766.0957" style="stroke:#181818;stroke-width:1.0;"/><line style="stroke:#181818;stroke-width:1.0;" x1="48.5" x2="385.5" y1="766.0957" y2="766.0957"/><text fill="#000000" font-family="FG Virgil" font-size="13" lengthAdjust="spacing" textLength="71" x="55.5" y="761.3535">Selects one</text><path d="M10,781.0957 L72,781.0957 L72,788.4063 L62,798.4063 L10,798.4063 L10,781.0957 " fill="#EEEEEE" style="stroke:#000000;stroke-width:1.5;"/><rect fill="none" height="1740.8301" style="stroke:#000000;stroke-width:1.5;" width="2169.5" x="10" y="781.0957"/><text fill="#000000" font-family="FG Virgil" font-size="13" font-weight="bold" lengthAdjust="spacing" textLength="17" x="25" y="794.6641">alt</text><text fill="#000000" font-family="FG Virgil" font-size="11" font-weight="bold" lengthAdjust="spacing" textLength="187" x="87" y="793.7305">[while keepAddingUsers == true]</text><polygon fill="#181818" points="59.5,815.7168,49.5,819.7168,59.5,823.7168,55.5,819.7168" style="stroke:#181818;stroke-width:1.0;"/><line style="stroke:#181818;stroke-width:1.0;stroke-dasharray:2.0,2.0;" x1="53.5" x2="390.5" y1="819.7168" y2="819.7168"/><text fill="#000000" font-family="FG Virgil" font-size="13" lengthAdjust="spacing" textLength="319" x="65.5" y="814.9746">Asks if wants to add more users or if wants to exit</text><polygon fill="#181818" points="379.5,845.0273,389.5,849.0273,379.5,853.0273,383.5,849.0273" style="stroke:#181818;stroke-width:1.0;"/><line style="stroke:#181818;stroke-width:1.0;" x1="48.5" x2="385.5" y1="849.0273" y2="849.0273"/><text fill="#000000" font-family="FG Virgil" font-size="13" lengthAdjust="spacing" textLength="89" x="55.5" y="844.2852">Selects option</text><path d="M20,864.0273 L82,864.0273 L82,871.3379 L72,881.3379 L20,881.3379 L20,864.0273 " fill="#EEEEEE" style="stroke:#000000;stroke-width:1.5;"/><rect fill="none" height="1650.8984" style="stroke:#000000;stroke-width:1.5;" width="2149.5" x="20" y="864.0273"/><text fill="#000000" font-family="FG Virgil" font-size="13" font-weight="bold" lengthAdjust="spacing" textLength="17" x="35" y="877.5957">alt</text><text fill="#000000" font-family="FG Virgil" font-size="11" font-weight="bold" lengthAdjust="spacing" textLength="208" x="97" y="876.6621">[if option == Share with other users]</text><polygon fill="#181818" points="893.5,898.6484,903.5,902.6484,893.5,906.6484,897.5,902.6484" style="stroke:#181818;stroke-width:1.0;"/><line style="stroke:#181818;stroke-width:1.0;" x1="401.5" x2="899.5" y1="902.6484" y2="902.6484"/><text fill="#000000" font-family="FG Virgil" font-size="13" lengthAdjust="spacing" textLength="224" x="408.5" y="897.9063">listSharedBoards(user, sharedBoard)</text><path d="M920,915.6484 L920,1001.6484 L1125,1001.6484 L1125,925.6484 L1115,915.6484 L920,915.6484 " fill="#FAFAFA" style="stroke:#181818;stroke-width:0.5;"/><path d="M1115,915.6484 L1115,925.6484 L1125,925.6484 L1115,915.6484 " fill="#FAFAFA" style="stroke:#181818;stroke-width:0.5;"/><text fill="#000000" font-family="FG Virgil" font-size="13" lengthAdjust="spacing" textLength="167" x="926" y="933.2168">request is created with the</text><text fill="#000000" font-family="FG Virgil" font-size="13" lengthAdjust="spacing" textLength="179" x="926" y="948.5273">class RequestMessage using</text><text fill="#000000" font-family="FG Virgil" font-size="13" lengthAdjust="spacing" textLength="129" x="926" y="963.8379">code LIST_USERS(10)</text><text fill="#000000" font-family="FG Virgil" font-size="13" lengthAdjust="spacing" textLength="180" x="926" y="979.1484">pass by parameter the String</text><text fill="#000000" font-family="FG Virgil" font-size="13" lengthAdjust="spacing" textLength="169" x="926" y="994.459">username and sharedBoard</text><polygon fill="#181818" points="1102.5,1024.5117,1112.5,1028.5117,1102.5,1032.5117,1106.5,1028.5117" style="stroke:#181818;stroke-width:1.0;"/><line style="stroke:#181818;stroke-width:1.0;" x1="915.5" x2="1108.5" y1="1028.5117" y2="1028.5117"/><text fill="#000000" font-family="FG Virgil" font-size="13" lengthAdjust="spacing" textLength="85" x="922.5" y="1023.7695">send(request)</text><polygon fill="#181818" points="1445.5,1053.8223,1455.5,1057.8223,1445.5,1061.8223,1449.5,1057.8223" style="stroke:#181818;stroke-width:1.0;"/><line style="stroke:#181818;stroke-width:1.0;" x1="1124.5" x2="1451.5" y1="1057.8223" y2="1057.8223"/><text fill="#000000" font-family="FG Virgil" font-size="13" lengthAdjust="spacing" textLength="131" x="1131.5" y="1053.0801">user = findById(user)</text><polygon fill="#181818" points="1135.5,1083.1328,1125.5,1087.1328,1135.5,1091.1328,1131.5,1087.1328" style="stroke:#181818;stroke-width:1.0;"/><line style="stroke:#181818;stroke-width:1.0;stroke-dasharray:2.0,2.0;" x1="1129.5" x2="1456.5" y1="1087.1328" y2="1087.1328"/><text fill="#000000" font-family="FG Virgil" font-size="13" lengthAdjust="spacing" textLength="122" x="1141.5" y="1082.3906">returns SystemUser</text><polygon fill="#181818" points="1445.5,1112.4434,1455.5,1116.4434,1445.5,1120.4434,1449.5,1116.4434" style="stroke:#181818;stroke-width:1.0;"/><line style="stroke:#181818;stroke-width:1.0;" x1="1124.5" x2="1451.5" y1="1116.4434" y2="1116.4434"/><text fill="#000000" font-family="FG Virgil" font-size="13" lengthAdjust="spacing" textLength="118" x="1131.5" y="1111.7012">allUsers = findAll()</text><polygon fill="#181818" points="1135.5,1141.7539,1125.5,1145.7539,1135.5,1149.7539,1131.5,1145.7539" style="stroke:#181818;stroke-width:1.0;"/><line style="stroke:#181818;stroke-width:1.0;stroke-dasharray:2.0,2.0;" x1="1129.5" x2="1461.5" y1="1145.7539" y2="1145.7539"/><text fill="#000000" font-family="FG Virgil" font-size="13" lengthAdjust="spacing" textLength="165" x="1141.5" y="1141.0117">returns List&lt;SystemUser&gt;</text><line style="stroke:#181818;stroke-width:1.0;" x1="1124.5" x2="1166.5" y1="1175.0645" y2="1175.0645"/><line style="stroke:#181818;stroke-width:1.0;" x1="1166.5" x2="1166.5" y1="1175.0645" y2="1188.0645"/><line style="stroke:#181818;stroke-width:1.0;" x1="1125.5" x2="1166.5" y1="1188.0645" y2="1188.0645"/><polygon fill="#181818" points="1135.5,1184.0645,1125.5,1188.0645,1135.5,1192.0645,1131.5,1188.0645" style="stroke:#181818;stroke-width:1.0;"/><text fill="#000000" font-family="FG Virgil" font-size="13" lengthAdjust="spacing" textLength="135" x="1131.5" y="1170.3223">allUsers.remove(user)</text><polygon fill="#181818" points="1594,1213.375,1604,1217.375,1594,1221.375,1598,1217.375" style="stroke:#181818;stroke-width:1.0;"/><line style="stroke:#181818;stroke-width:1.0;" x1="1124.5" x2="1600" y1="1217.375" y2="1217.375"/><text fill="#000000" font-family="FG Virgil" font-size="13" lengthAdjust="spacing" textLength="282" x="1131.5" y="1212.6328">sharedBoard = findSharedBoard(sharedBoard)</text><polygon fill="#181818" points="1135.5,1242.6855,1125.5,1246.6855,1135.5,1250.6855,1131.5,1246.6855" style="stroke:#181818;stroke-width:1.0;"/><line style="stroke:#181818;stroke-width:1.0;stroke-dasharray:2.0,2.0;" x1="1129.5" x2="1610" y1="1246.6855" y2="1246.6855"/><text fill="#000000" font-family="FG Virgil" font-size="13" lengthAdjust="spacing" textLength="126" x="1141.5" y="1241.9434">returns SharedBoard</text><polygon fill="#181818" points="1803,1271.9961,1813,1275.9961,1803,1279.9961,1807,1275.9961" style="stroke:#181818;stroke-width:1.0;"/><line style="stroke:#181818;stroke-width:1.0;" x1="1124.5" x2="1809" y1="1275.9961" y2="1275.9961"/><text fill="#000000" font-family="FG Virgil" font-size="13" lengthAdjust="spacing" textLength="384" x="1131.5" y="1271.2539">list = findSharedBoardInvitationsOfSharedBoard(sharedBoard)</text><polygon fill="#181818" points="1135.5,1301.3066,1125.5,1305.3066,1135.5,1309.3066,1131.5,1305.3066" style="stroke:#181818;stroke-width:1.0;"/><line style="stroke:#181818;stroke-width:1.0;stroke-dasharray:2.0,2.0;" x1="1129.5" x2="1819" y1="1305.3066" y2="1305.3066"/><text fill="#000000" font-family="FG Virgil" font-size="13" lengthAdjust="spacing" textLength="253" x="1141.5" y="1300.5645">returns Iterable&lt;SharedBoardInvitation&gt;</text><path d="M1012,1320.3066 L1074,1320.3066 L1074,1327.6172 L1064,1337.6172 L1012,1337.6172 L1012,1320.3066 " fill="#EEEEEE" style="stroke:#000000;stroke-width:1.5;"/><rect fill="none" height="59.6211" style="stroke:#000000;stroke-width:1.5;" width="450.5" x="1012" y="1320.3066"/><text fill="#000000" font-family="FG Virgil" font-size="13" font-weight="bold" lengthAdjust="spacing" textLength="17" x="1027" y="1333.875">alt</text><text fill="#000000" font-family="FG Virgil" font-size="11" font-weight="bold" lengthAdjust="spacing" textLength="316" x="1089" y="1332.9414">[for (SharedBoardInvitation sharedBoardInvitation : list)]</text><line style="stroke:#181818;stroke-width:1.0;" x1="1124.5" x2="1166.5" y1="1358.9277" y2="1358.9277"/><line style="stroke:#181818;stroke-width:1.0;" x1="1166.5" x2="1166.5" y1="1358.9277" y2="1371.9277"/><line style="stroke:#181818;stroke-width:1.0;" x1="1125.5" x2="1166.5" y1="1371.9277" y2="1371.9277"/><polygon fill="#181818" points="1135.5,1367.9277,1125.5,1371.9277,1135.5,1375.9277,1131.5,1371.9277" style="stroke:#181818;stroke-width:1.0;"/><text fill="#000000" font-family="FG Virgil" font-size="13" lengthAdjust="spacing" textLength="319" x="1131.5" y="1354.1855">allUsers.remove(sharedBoardInvitation.userInvite())</text><path d="M1002,1393.9277 L1064,1393.9277 L1064,1401.2383 L1054,1411.2383 L1002,1411.2383 L1002,1393.9277 " fill="#EEEEEE" style="stroke:#000000;stroke-width:1.5;"/><rect fill="none" height="90.9316" style="stroke:#000000;stroke-width:1.5;" width="345.5" x="1002" y="1393.9277"/><text fill="#000000" font-family="FG Virgil" font-size="13" font-weight="bold" lengthAdjust="spacing" textLength="17" x="1017" y="1407.4961">alt</text><text fill="#000000" font-family="FG Virgil" font-size="11" font-weight="bold" lengthAdjust="spacing" textLength="129" x="1079" y="1406.5625">[if(!allUsers.isEmpty())]</text><path d="M1012,1418.2383 L1074,1418.2383 L1074,1425.5488 L1064,1435.5488 L1012,1435.5488 L1012,1418.2383 " fill="#EEEEEE" style="stroke:#000000;stroke-width:1.5;"/><rect fill="none" height="59.6211" style="stroke:#000000;stroke-width:1.5;" width="325.5" x="1012" y="1418.2383"/><text fill="#000000" font-family="FG Virgil" font-size="13" font-weight="bold" lengthAdjust="spacing" textLength="17" x="1027" y="1431.8066">alt</text><text fill="#000000" font-family="FG Virgil" font-size="11" font-weight="bold" lengthAdjust="spacing" textLength="210" x="1089" y="1430.873">[for (SystemUser listUsers : allUsers)]</text><line style="stroke:#181818;stroke-width:1.0;" x1="1124.5" x2="1166.5" y1="1456.8594" y2="1456.8594"/><line style="stroke:#181818;stroke-width:1.0;" x1="1166.5" x2="1166.5" y1="1456.8594" y2="1469.8594"/><line style="stroke:#181818;stroke-width:1.0;" x1="1125.5" x2="1166.5" y1="1469.8594" y2="1469.8594"/><polygon fill="#181818" points="1135.5,1465.8594,1125.5,1469.8594,1135.5,1473.8594,1131.5,1469.8594" style="stroke:#181818;stroke-width:1.0;"/><text fill="#000000" font-family="FG Virgil" font-size="13" lengthAdjust="spacing" textLength="194" x="1131.5" y="1452.1172">users += listUsers.username();</text><path d="M920,1496.8594 L920,1567.8594 L1159,1567.8594 L1159,1506.8594 L1149,1496.8594 L920,1496.8594 " fill="#FAFAFA" style="stroke:#181818;stroke-width:0.5;"/><path d="M1149,1496.8594 L1149,1506.8594 L1159,1506.8594 L1149,1496.8594 " fill="#FAFAFA" style="stroke:#181818;stroke-width:0.5;"/><text fill="#000000" font-family="FG Virgil" font-size="13" lengthAdjust="spacing" textLength="177" x="926" y="1514.4277">response is created with the</text><text fill="#000000" font-family="FG Virgil" font-size="13" lengthAdjust="spacing" textLength="179" x="926" y="1529.7383">class RequestMessage using</text><text fill="#000000" font-family="FG Virgil" font-size="13" lengthAdjust="spacing" textLength="148" x="926" y="1545.0488">code SEND_MESSAGE(6)</text><text fill="#000000" font-family="FG Virgil" font-size="13" lengthAdjust="spacing" textLength="218" x="926" y="1560.3594">pass by parameter the String users</text><polygon fill="#181818" points="926.5,1590.4121,916.5,1594.4121,926.5,1598.4121,922.5,1594.4121" style="stroke:#181818;stroke-width:1.0;"/><line style="stroke:#181818;stroke-width:1.0;stroke-dasharray:2.0,2.0;" x1="920.5" x2="1118.5" y1="1594.4121" y2="1594.4121"/><text fill="#000000" font-family="FG Virgil" font-size="13" lengthAdjust="spacing" textLength="95" x="932.5" y="1589.6699">send(response)</text><polygon fill="#181818" points="412.5,1619.7227,402.5,1623.7227,412.5,1627.7227,408.5,1623.7227" style="stroke:#181818;stroke-width:1.0;"/><line style="stroke:#181818;stroke-width:1.0;stroke-dasharray:2.0,2.0;" x1="406.5" x2="909.5" y1="1623.7227" y2="1623.7227"/><text fill="#000000" font-family="FG Virgil" font-size="13" lengthAdjust="spacing" textLength="124" x="418.5" y="1618.9805">returns String users</text><polygon fill="#181818" points="59.5,1649.0332,49.5,1653.0332,59.5,1657.0332,55.5,1653.0332" style="stroke:#181818;stroke-width:1.0;"/><line style="stroke:#181818;stroke-width:1.0;stroke-dasharray:2.0,2.0;" x1="53.5" x2="390.5" y1="1653.0332" y2="1653.0332"/><text fill="#000000" font-family="FG Virgil" font-size="13" lengthAdjust="spacing" textLength="124" x="65.5" y="1648.291">Asks to choose one</text><polygon fill="#181818" points="379.5,1678.3438,389.5,1682.3438,379.5,1686.3438,383.5,1682.3438" style="stroke:#181818;stroke-width:1.0;"/><line style="stroke:#181818;stroke-width:1.0;" x1="48.5" x2="385.5" y1="1682.3438" y2="1682.3438"/><text fill="#000000" font-family="FG Virgil" font-size="13" lengthAdjust="spacing" textLength="71" x="55.5" y="1677.6016">Selects one</text><polygon fill="#181818" points="59.5,1707.6543,49.5,1711.6543,59.5,1715.6543,55.5,1711.6543" style="stroke:#181818;stroke-width:1.0;"/><line style="stroke:#181818;stroke-width:1.0;stroke-dasharray:2.0,2.0;" x1="53.5" x2="390.5" y1="1711.6543" y2="1711.6543"/><text fill="#000000" font-family="FG Virgil" font-size="13" lengthAdjust="spacing" textLength="136" x="65.5" y="1706.9121">Asks user permission</text><polygon fill="#181818" points="379.5,1736.9648,389.5,1740.9648,379.5,1744.9648,383.5,1740.9648" style="stroke:#181818;stroke-width:1.0;"/><line style="stroke:#181818;stroke-width:1.0;" x1="48.5" x2="385.5" y1="1740.9648" y2="1740.9648"/><text fill="#000000" font-family="FG Virgil" font-size="13" lengthAdjust="spacing" textLength="89" x="55.5" y="1736.2227">Selects option</text><path d="M309,1755.9648 L371,1755.9648 L371,1763.2754 L361,1773.2754 L309,1773.2754 L309,1755.9648 " fill="#EEEEEE" style="stroke:#000000;stroke-width:1.5;"/><rect fill="none" height="90.8867" style="stroke:#000000;stroke-width:1.5;" width="713" x="309" y="1755.9648"/><text fill="#000000" font-family="FG Virgil" font-size="13" font-weight="bold" lengthAdjust="spacing" textLength="17" x="324" y="1769.5332">alt</text><text fill="#000000" font-family="FG Virgil" font-size="11" font-weight="bold" lengthAdjust="spacing" textLength="112" x="386" y="1768.5996">[if option == Write]</text><polygon fill="#181818" points="893.5,1790.5859,903.5,1794.5859,893.5,1798.5859,897.5,1794.5859" style="stroke:#181818;stroke-width:1.0;"/><line style="stroke:#181818;stroke-width:1.0;" x1="401.5" x2="899.5" y1="1794.5859" y2="1794.5859"/><text fill="#000000" font-family="FG Virgil" font-size="13" lengthAdjust="spacing" textLength="442" x="408.5" y="1789.8438">createSharedBoardInvitation(user, sharedBoard, UserPermission.WRITE)</text><line style="stroke:#000000;stroke-width:1.0;stroke-dasharray:2.0,2.0;" x1="309" x2="1022" y1="1803.5859" y2="1803.5859"/><text fill="#000000" font-family="FG Virgil" font-size="11" font-weight="bold" lengthAdjust="spacing" textLength="140" x="314" y="1814.2207">[if option == Read Only]</text><polygon fill="#181818" points="893.5,1834.8516,903.5,1838.8516,893.5,1842.8516,897.5,1838.8516" style="stroke:#181818;stroke-width:1.0;"/><line style="stroke:#181818;stroke-width:1.0;" x1="401.5" x2="899.5" y1="1838.8516" y2="1838.8516"/><text fill="#000000" font-family="FG Virgil" font-size="13" lengthAdjust="spacing" textLength="480" x="408.5" y="1834.1094">createSharedBoardInvitation(user, sharedBoard, UserPermission.READ_ONLY)</text><path d="M920,1858.8516 L920,1944.8516 L1134,1944.8516 L1134,1868.8516 L1124,1858.8516 L920,1858.8516 " fill="#FAFAFA" style="stroke:#181818;stroke-width:0.5;"/><path d="M1124,1858.8516 L1124,1868.8516 L1134,1868.8516 L1124,1858.8516 " fill="#FAFAFA" style="stroke:#181818;stroke-width:0.5;"/><text fill="#000000" font-family="FG Virgil" font-size="13" lengthAdjust="spacing" textLength="167" x="926" y="1876.4199">request is created with the</text><text fill="#000000" font-family="FG Virgil" font-size="13" lengthAdjust="spacing" textLength="179" x="926" y="1891.7305">class RequestMessage using</text><text fill="#000000" font-family="FG Virgil" font-size="13" lengthAdjust="spacing" textLength="193" x="926" y="1907.041">code SHARE_SHAREDBOARD(9)</text><text fill="#000000" font-family="FG Virgil" font-size="13" lengthAdjust="spacing" textLength="150" x="926" y="1922.3516">pass by parameter user,</text><text fill="#000000" font-family="FG Virgil" font-size="13" lengthAdjust="spacing" textLength="181" x="926" y="1937.6621">sharedBoard, userPermission</text><polygon fill="#181818" points="1102.5,1967.7148,1112.5,1971.7148,1102.5,1975.7148,1106.5,1971.7148" style="stroke:#181818;stroke-width:1.0;"/><line style="stroke:#181818;stroke-width:1.0;" x1="915.5" x2="1108.5" y1="1971.7148" y2="1971.7148"/><text fill="#000000" font-family="FG Virgil" font-size="13" lengthAdjust="spacing" textLength="85" x="922.5" y="1966.9727">send(request)</text><polygon fill="#181818" points="1445.5,1997.0254,1455.5,2001.0254,1445.5,2005.0254,1449.5,2001.0254" style="stroke:#181818;stroke-width:1.0;"/><line style="stroke:#181818;stroke-width:1.0;" x1="1124.5" x2="1451.5" y1="2001.0254" y2="2001.0254"/><text fill="#000000" font-family="FG Virgil" font-size="13" lengthAdjust="spacing" textLength="131" x="1131.5" y="1996.2832">user = findById(user)</text><polygon fill="#181818" points="1135.5,2026.3359,1125.5,2030.3359,1135.5,2034.3359,1131.5,2030.3359" style="stroke:#181818;stroke-width:1.0;"/><line style="stroke:#181818;stroke-width:1.0;stroke-dasharray:2.0,2.0;" x1="1129.5" x2="1461.5" y1="2030.3359" y2="2030.3359"/><text fill="#000000" font-family="FG Virgil" font-size="13" lengthAdjust="spacing" textLength="122" x="1141.5" y="2025.5938">returns SystemUser</text><polygon fill="#181818" points="1594,2055.6465,1604,2059.6465,1594,2063.6465,1598,2059.6465" style="stroke:#181818;stroke-width:1.0;"/><line style="stroke:#181818;stroke-width:1.0;" x1="1124.5" x2="1600" y1="2059.6465" y2="2059.6465"/><text fill="#000000" font-family="FG Virgil" font-size="13" lengthAdjust="spacing" textLength="282" x="1131.5" y="2054.9043">sharedBoard = findSharedBoard(sharedBoard)</text><polygon fill="#181818" points="1135.5,2084.957,1125.5,2088.957,1135.5,2092.957,1131.5,2088.957" style="stroke:#181818;stroke-width:1.0;"/><line style="stroke:#181818;stroke-width:1.0;stroke-dasharray:2.0,2.0;" x1="1129.5" x2="1610" y1="2088.957" y2="2088.957"/><text fill="#000000" font-family="FG Virgil" font-size="13" lengthAdjust="spacing" textLength="126" x="1141.5" y="2084.2148">returns SharedBoard</text><polygon fill="#181818" points="1933.5,2114.2676,1943.5,2118.2676,1933.5,2122.2676,1937.5,2118.2676" style="stroke:#181818;stroke-width:1.0;"/><line style="stroke:#181818;stroke-width:1.0;" x1="1124.5" x2="1939.5" y1="2118.2676" y2="2118.2676"/><text fill="#000000" font-family="FG Virgil" font-size="13" lengthAdjust="spacing" textLength="46" x="1131.5" y="2113.5254">create()</text><rect fill="#E3E3E3" height="46.9766" rx="2.5" ry="2.5" style="stroke:#181818;stroke-width:0.5;" width="214" x="1945.5" y="2096.957"/><text fill="#000000" font-family="FG Virgil" font-size="14" font-style="italic" lengthAdjust="spacing" textLength="62" x="2021.5" y="2117.4922">&#171;Builder&#187;</text><text fill="#000000" font-family="FG Virgil" font-size="14" lengthAdjust="spacing" textLength="200" x="1952.5" y="2133.9805">SharedBoardInvitationBuilder</text><polygon fill="#181818" points="2040.5,2172.2441,2050.5,2176.2441,2040.5,2180.2441,2044.5,2176.2441" style="stroke:#181818;stroke-width:1.0;"/><line style="stroke:#181818;stroke-width:1.0;" x1="1124.5" x2="2046.5" y1="2176.2441" y2="2176.2441"/><text fill="#000000" font-family="FG Virgil" font-size="13" lengthAdjust="spacing" textLength="189" x="1131.5" y="2171.502">withSharedBoard(sharedBoard)</text><polygon fill="#181818" points="2040.5,2201.5547,2050.5,2205.5547,2040.5,2209.5547,2044.5,2205.5547" style="stroke:#181818;stroke-width:1.0;"/><line style="stroke:#181818;stroke-width:1.0;" x1="1124.5" x2="2046.5" y1="2205.5547" y2="2205.5547"/><text fill="#000000" font-family="FG Virgil" font-size="13" lengthAdjust="spacing" textLength="90" x="1131.5" y="2200.8125">withUser(user)</text><polygon fill="#181818" points="2040.5,2230.8652,2050.5,2234.8652,2040.5,2238.8652,2044.5,2234.8652" style="stroke:#181818;stroke-width:1.0;"/><line style="stroke:#181818;stroke-width:1.0;" x1="1124.5" x2="2046.5" y1="2234.8652" y2="2234.8652"/><text fill="#000000" font-family="FG Virgil" font-size="13" lengthAdjust="spacing" textLength="228" x="1131.5" y="2230.123">withUserPermission(userPermission)</text><polygon fill="#181818" points="2040.5,2260.1758,2050.5,2264.1758,2040.5,2268.1758,2044.5,2264.1758" style="stroke:#181818;stroke-width:1.0;"/><line style="stroke:#181818;stroke-width:1.0;" x1="1124.5" x2="2046.5" y1="2264.1758" y2="2264.1758"/><text fill="#000000" font-family="FG Virgil" font-size="13" lengthAdjust="spacing" textLength="40" x="1131.5" y="2259.4336">build()</text><polygon fill="#181818" points="1831,2289.4863,1821,2293.4863,1831,2297.4863,1827,2293.4863" style="stroke:#181818;stroke-width:1.0;"/><line style="stroke:#181818;stroke-width:1.0;" x1="1825" x2="2051.5" y1="2293.4863" y2="2293.4863"/><text fill="#000000" font-family="FG Virgil" font-size="13" lengthAdjust="spacing" textLength="173" x="1837" y="2288.7441">save(sharedBoardInvitation)</text><path d="M920,2306.4863 L920,2377.4863 L1124,2377.4863 L1124,2316.4863 L1114,2306.4863 L920,2306.4863 " fill="#FAFAFA" style="stroke:#181818;stroke-width:0.5;"/><path d="M1114,2306.4863 L1114,2316.4863 L1124,2316.4863 L1114,2306.4863 " fill="#FAFAFA" style="stroke:#181818;stroke-width:0.5;"/><text fill="#000000" font-family="FG Virgil" font-size="13" lengthAdjust="spacing" textLength="177" x="926" y="2324.0547">response is created with the</text><text fill="#000000" font-family="FG Virgil" font-size="13" lengthAdjust="spacing" textLength="179" x="926" y="2339.3652">class RequestMessage using</text><text fill="#000000" font-family="FG Virgil" font-size="13" lengthAdjust="spacing" textLength="170" x="926" y="2354.6758">code ACK(2) if success and</text><text fill="#000000" font-family="FG Virgil" font-size="13" lengthAdjust="spacing" textLength="86" x="926" y="2369.9863">ERR(3) if error</text><polygon fill="#181818" points="926.5,2400.0391,916.5,2404.0391,926.5,2408.0391,922.5,2404.0391" style="stroke:#181818;stroke-width:1.0;"/><line style="stroke:#181818;stroke-width:1.0;stroke-dasharray:2.0,2.0;" x1="920.5" x2="1118.5" y1="2404.0391" y2="2404.0391"/><text fill="#000000" font-family="FG Virgil" font-size="13" lengthAdjust="spacing" textLength="95" x="932.5" y="2399.2969">send(response)</text><polygon fill="#181818" points="412.5,2429.3496,402.5,2433.3496,412.5,2437.3496,408.5,2433.3496" style="stroke:#181818;stroke-width:1.0;"/><line style="stroke:#181818;stroke-width:1.0;stroke-dasharray:2.0,2.0;" x1="406.5" x2="904.5" y1="2433.3496" y2="2433.3496"/><text fill="#000000" font-family="FG Virgil" font-size="13" lengthAdjust="spacing" textLength="95" x="418.5" y="2428.6074">send(response)</text><polygon fill="#181818" points="59.5,2458.6602,49.5,2462.6602,59.5,2466.6602,55.5,2462.6602" style="stroke:#181818;stroke-width:1.0;"/><line style="stroke:#181818;stroke-width:1.0;stroke-dasharray:2.0,2.0;" x1="53.5" x2="390.5" y1="2462.6602" y2="2462.6602"/><text fill="#000000" font-family="FG Virgil" font-size="13" lengthAdjust="spacing" textLength="256" x="65.5" y="2457.918">Indicates that the invitation was created!</text><line style="stroke:#000000;stroke-width:1.0;stroke-dasharray:2.0,2.0;" x1="20" x2="2169.5" y1="2471.6602" y2="2471.6602"/><text fill="#000000" font-family="FG Virgil" font-size="11" font-weight="bold" lengthAdjust="spacing" textLength="104" x="25" y="2482.2949">[if option == Exit]</text><polygon fill="#181818" points="59.5,2502.9258,49.5,2506.9258,59.5,2510.9258,55.5,2506.9258" style="stroke:#181818;stroke-width:1.0;"/><line style="stroke:#181818;stroke-width:1.0;stroke-dasharray:2.0,2.0;" x1="53.5" x2="390.5" y1="2506.9258" y2="2506.9258"/><text fill="#000000" font-family="FG Virgil" font-size="13" lengthAdjust="spacing" textLength="104" x="65.5" y="2502.1836">Returns to menu</text><!--SRC=[pLbjJ-Cu4FwUN-7zTCdURhaNwKxNAvNAajsjZeLJ2uTEGa8cSOc5c-Hi5wx__iPE6XpYl4BX8b6Qs1xFF9wNPzBl8YdJyS51od0iDsis2fBrWRYZSOevNeyYkMPESOlMIPm44K_M14c-8SP8YeCxV4kMSii8uYIGnbX8LdZ3vESabgSObdx-WlwY_9QQaaM4m-I1nhTeXPaWZeC3cN1q8GX7MA2PkdDWggG1JK5Lj8mm9_eZF4em3o_cQXvyJYOf9uB44akQnDEf4y2-F66L5P-ovopReM5qCi5focYm4sYgSHwaIyBl2Vz6X000lk8uX3LEY2M-mO9e2nOaJGG52xOWYnSt8AgOPkpSR_OylgUPgVNhAhWzNNgqeIpKbkRVO96ZCKSVfm3g65t2Me5aeWwA4vJ4yBT24HNPWn3TA8b27HkznnBidZi8BZWGaD24xlltOnHm0cjSprXIlsACu7G1fNysHCZpHCznDm1p3CwLYIYqg9UYvwahJc0UfxUHL1OrRSkpBH4OdIaSeWSg8oGZWgxYW64XKAvMxWre8vHBms0IWZ9VPml_-EXijZY-_hJmP-U- -wjt5KFimCARBTAHG2HWegmf56p03d2gSS0C93TNsIk45SZKEUvkOisuzeUIIu-rjkWGhMWS7ctduPEpAErQNbgCwsCl1yh79jiuaHiUGz1kXIJh2nEjaBHjrc2PDGh72DzZol0DCqz1v1QRZyvMQajjlyLsg_0I1FOaq0c94ohan5W_jG7IhW5cuDuhzvtLuX4L_ZgLMw-qPBTi1Sd2DQOZ1YgX6l2g8XfEfTx5pUFu_b3lE99KibqgCIy81wVklZD6VPA5I9COSlNWRE6V7bz_yvVBsHVV_SNBiiHLNCeJIycp5LQGsps-GvvrTuPuDhJQiaXJxiehIn7BcIt6cIgVTcp7Kv_GLUq0kRfqZT5CtEcQ5KH98dJHqfDAXMr96B0LKGmgLtw8AB2OEqBIMHY2KYgg8TuFCz9J9ApgNdI57dQ54eSXy2LET7e4-RmqIlwbif1aLoXLbTafHsR-LEcYGSXSAW6Voeg6AAVKragg8iPq6PsxFfY7K0waFeNrzGlioNnvVdsnz1TBzySVF7XQhQnAL14rkqA5m6jDcoicxAKKLv9erw2oNSyirrwZy2xbstQzK4b_0PinOtaGQxjdZBdUNjJFwd1XmxHnatQkqjFiMlLszeyuMIVtfCEPzsT9HW1LkP5Rcr9gdQsThTI6w30EjUoG0Nepgc6ushgwB5jNeNsS2mJqnI2tQT07V6jVskaOvf2d5PMPMALD1nnDRrjiVFPHYEdfnjFiVBpdfAtEyMlLOAIYMjy2_stMuoaPjW6W-u3TlZdrRvDR1gz8WngPB04_sj8kQIXQ6UFA6u9C_rsfTxtVMxTj0wTj_0sRX1RAKwM8dU4UrYeqn6TNbjE_XQXQsRs1Q23trKQYcRy_cMIHg9bOIlYQ2c5o_QuzWRKlkEGG_nKKsrk1pF-i2Q_Q5NpGXENFGlNHvM9-xbjU3FI4dJ0L3AOv2u93T1QpxQkRjF1dnzTdfoT_UqvRz0zfYzxWtUEryGRI_Ssp9GiDorLSmcLJmiLvrSPeS5EqjuPe26NVKoFKltzu4rR_3BQyPpO_cCdtPV7vpogLtpfUKFPO9uJUX_EitIolkrzS_cFcSSk9Q0zxtgWl3KVJ-EDPbmvEu3hoxZdE_u1FpZxzuVxagGeiDa40C_IhiQlONopSd_Lpmdao8Ei-dpuEe8uTwME7pSlaRHw7wjTW0fmmmbA3In_xm0TSWF_EQSiuTgxWrFCXttnnN5LjaMS_8Ajh4c-Sfwn5_NUS_m00]--></g></svg>