<?xml version="1.0" encoding="us-ascii" standalone="no"?><svg xmlns="http://www.w3.org/2000/svg" xmlns:xlink="http://www.w3.org/1999/xlink" contentStyleType="text/css" height="536px" preserveAspectRatio="none" style="width:411px;height:536px;background:#FFFFFF;" version="1.1" viewBox="0 0 411 536" width="411px" zoomAndPan="magnify"><defs/><g><rect fill="none" height="284.0605" style="stroke:#000000;stroke-width:1.5;" width="395.5" x="10" y="200.041"/><rect fill="none" height="208.1289" style="stroke:#000000;stroke-width:1.5;" width="375.5" x="20" y="268.9727"/><line style="stroke:#181818;stroke-width:0.5;stroke-dasharray:5.0,5.0;" x1="52" x2="52" y1="36.4883" y2="501.1016"/><line style="stroke:#181818;stroke-width:0.5;stroke-dasharray:5.0,5.0;" x1="354.5" x2="354.5" y1="36.4883" y2="501.1016"/><rect fill="#E2E2F0" height="30.4883" rx="2.5" ry="2.5" style="stroke:#181818;stroke-width:0.5;" width="45" x="30" y="5"/><text fill="#000000" font-family="sans-serif" font-size="14" lengthAdjust="spacing" textLength="31" x="37" y="25.5352">User</text><rect fill="#E2E2F0" height="30.4883" rx="2.5" ry="2.5" style="stroke:#181818;stroke-width:0.5;" width="45" x="30" y="500.1016"/><text fill="#000000" font-family="sans-serif" font-size="14" lengthAdjust="spacing" textLength="31" x="37" y="520.6367">User</text><rect fill="#E2E2F0" height="30.4883" rx="2.5" ry="2.5" style="stroke:#181818;stroke-width:0.5;" width="62" x="323.5" y="5"/><text fill="#000000" font-family="sans-serif" font-size="14" lengthAdjust="spacing" textLength="48" x="330.5" y="25.5352">System</text><rect fill="#E2E2F0" height="30.4883" rx="2.5" ry="2.5" style="stroke:#181818;stroke-width:0.5;" width="62" x="323.5" y="500.1016"/><text fill="#000000" font-family="sans-serif" font-size="14" lengthAdjust="spacing" textLength="48" x="330.5" y="520.6367">System</text><polygon fill="#181818" points="342.5,63.7988,352.5,67.7988,342.5,71.7988,346.5,67.7988" style="stroke:#181818;stroke-width:1.0;"/><line style="stroke:#181818;stroke-width:1.0;" x1="52.5" x2="348.5" y1="67.7988" y2="67.7988"/><text fill="#000000" font-family="sans-serif" font-size="13" font-weight="bold" lengthAdjust="spacing" textLength="9" x="59.5" y="63.0566">1</text><text fill="#000000" font-family="sans-serif" font-size="13" lengthAdjust="spacing" textLength="147" x="72.5" y="63.0566">Authentication Request</text><polygon fill="#181818" points="63.5,93.1094,53.5,97.1094,63.5,101.1094,59.5,97.1094" style="stroke:#181818;stroke-width:1.0;"/><line style="stroke:#181818;stroke-width:1.0;stroke-dasharray:2.0,2.0;" x1="57.5" x2="353.5" y1="97.1094" y2="97.1094"/><text fill="#000000" font-family="sans-serif" font-size="13" font-weight="bold" lengthAdjust="spacing" textLength="9" x="69.5" y="92.3672">2</text><text fill="#000000" font-family="sans-serif" font-size="13" lengthAdjust="spacing" textLength="157" x="82.5" y="92.3672">Authentication Response</text><polygon fill="#181818" points="342.5,122.4199,352.5,126.4199,342.5,130.4199,346.5,126.4199" style="stroke:#181818;stroke-width:1.0;"/><line style="stroke:#181818;stroke-width:1.0;" x1="52.5" x2="348.5" y1="126.4199" y2="126.4199"/><text fill="#000000" font-family="sans-serif" font-size="13" font-weight="bold" lengthAdjust="spacing" textLength="9" x="59.5" y="121.6777">3</text><text fill="#000000" font-family="sans-serif" font-size="13" lengthAdjust="spacing" textLength="207" x="72.5" y="121.6777">Wants to share one of his boards</text><polygon fill="#181818" points="63.5,151.7305,53.5,155.7305,63.5,159.7305,59.5,155.7305" style="stroke:#181818;stroke-width:1.0;"/><line style="stroke:#181818;stroke-width:1.0;stroke-dasharray:2.0,2.0;" x1="57.5" x2="353.5" y1="155.7305" y2="155.7305"/><text fill="#000000" font-family="sans-serif" font-size="13" font-weight="bold" lengthAdjust="spacing" textLength="9" x="69.5" y="150.9883">4</text><text fill="#000000" font-family="sans-serif" font-size="13" lengthAdjust="spacing" textLength="117" x="82.5" y="150.9883">Ask to choose one</text><polygon fill="#181818" points="342.5,181.041,352.5,185.041,342.5,189.041,346.5,185.041" style="stroke:#181818;stroke-width:1.0;"/><line style="stroke:#181818;stroke-width:1.0;" x1="52.5" x2="348.5" y1="185.041" y2="185.041"/><text fill="#000000" font-family="sans-serif" font-size="13" font-weight="bold" lengthAdjust="spacing" textLength="9" x="59.5" y="180.2988">5</text><text fill="#000000" font-family="sans-serif" font-size="13" lengthAdjust="spacing" textLength="71" x="72.5" y="180.2988">Selects one</text><path d="M10,200.041 L72,200.041 L72,207.3516 L62,217.3516 L10,217.3516 L10,200.041 " fill="#EEEEEE" style="stroke:#000000;stroke-width:1.5;"/><rect fill="none" height="284.0605" style="stroke:#000000;stroke-width:1.5;" width="395.5" x="10" y="200.041"/><text fill="#000000" font-family="sans-serif" font-size="13" font-weight="bold" lengthAdjust="spacing" textLength="17" x="25" y="213.6094">alt</text><text fill="#000000" font-family="sans-serif" font-size="11" font-weight="bold" lengthAdjust="spacing" textLength="187" x="87" y="212.6758">[while keepAddingUsers == true]</text><polygon fill="#181818" points="63.5,249.9727,53.5,253.9727,63.5,257.9727,59.5,253.9727" style="stroke:#181818;stroke-width:1.0;"/><line style="stroke:#181818;stroke-width:1.0;stroke-dasharray:2.0,2.0;" x1="57.5" x2="353.5" y1="253.9727" y2="253.9727"/><text fill="#000000" font-family="sans-serif" font-size="13" font-weight="bold" lengthAdjust="spacing" textLength="9" x="69.5" y="241.5752">6</text><text fill="#000000" font-family="sans-serif" font-size="13" lengthAdjust="spacing" textLength="165" x="82.5" y="233.9199">Asks if wants to add more</text><text fill="#000000" font-family="sans-serif" font-size="13" lengthAdjust="spacing" textLength="150" x="82.5" y="249.2305">users or if wants to exit</text><path d="M20,268.9727 L82,268.9727 L82,276.2832 L72,286.2832 L20,286.2832 L20,268.9727 " fill="#EEEEEE" style="stroke:#000000;stroke-width:1.5;"/><rect fill="none" height="208.1289" style="stroke:#000000;stroke-width:1.5;" width="375.5" x="20" y="268.9727"/><text fill="#000000" font-family="sans-serif" font-size="13" font-weight="bold" lengthAdjust="spacing" textLength="17" x="35" y="282.541">alt</text><text fill="#000000" font-family="sans-serif" font-size="11" font-weight="bold" lengthAdjust="spacing" textLength="208" x="97" y="281.6074">[if option == Share with other users]</text><polygon fill="#181818" points="63.5,303.5938,53.5,307.5938,63.5,311.5938,59.5,307.5938" style="stroke:#181818;stroke-width:1.0;"/><line style="stroke:#181818;stroke-width:1.0;stroke-dasharray:2.0,2.0;" x1="57.5" x2="353.5" y1="307.5938" y2="307.5938"/><text fill="#000000" font-family="sans-serif" font-size="13" font-weight="bold" lengthAdjust="spacing" textLength="9" x="69.5" y="302.8516">7</text><text fill="#000000" font-family="sans-serif" font-size="13" lengthAdjust="spacing" textLength="124" x="82.5" y="302.8516">Asks to choose one</text><polygon fill="#181818" points="342.5,332.9043,352.5,336.9043,342.5,340.9043,346.5,336.9043" style="stroke:#181818;stroke-width:1.0;"/><line style="stroke:#181818;stroke-width:1.0;" x1="52.5" x2="348.5" y1="336.9043" y2="336.9043"/><text fill="#000000" font-family="sans-serif" font-size="13" font-weight="bold" lengthAdjust="spacing" textLength="9" x="59.5" y="332.1621">8</text><text fill="#000000" font-family="sans-serif" font-size="13" lengthAdjust="spacing" textLength="71" x="72.5" y="332.1621">Selects one</text><polygon fill="#181818" points="63.5,362.2148,53.5,366.2148,63.5,370.2148,59.5,366.2148" style="stroke:#181818;stroke-width:1.0;"/><line style="stroke:#181818;stroke-width:1.0;stroke-dasharray:2.0,2.0;" x1="57.5" x2="353.5" y1="366.2148" y2="366.2148"/><text fill="#000000" font-family="sans-serif" font-size="13" font-weight="bold" lengthAdjust="spacing" textLength="9" x="69.5" y="361.4727">9</text><text fill="#000000" font-family="sans-serif" font-size="13" lengthAdjust="spacing" textLength="136" x="82.5" y="361.4727">Asks user permission</text><polygon fill="#181818" points="342.5,391.5254,352.5,395.5254,342.5,399.5254,346.5,395.5254" style="stroke:#181818;stroke-width:1.0;"/><line style="stroke:#181818;stroke-width:1.0;" x1="52.5" x2="348.5" y1="395.5254" y2="395.5254"/><text fill="#000000" font-family="sans-serif" font-size="13" font-weight="bold" lengthAdjust="spacing" textLength="18" x="59.5" y="390.7832">10</text><text fill="#000000" font-family="sans-serif" font-size="13" lengthAdjust="spacing" textLength="71" x="81.5" y="390.7832">Selects one</text><polygon fill="#181818" points="63.5,420.8359,53.5,424.8359,63.5,428.8359,59.5,424.8359" style="stroke:#181818;stroke-width:1.0;"/><line style="stroke:#181818;stroke-width:1.0;stroke-dasharray:2.0,2.0;" x1="57.5" x2="353.5" y1="424.8359" y2="424.8359"/><text fill="#000000" font-family="sans-serif" font-size="13" font-weight="bold" lengthAdjust="spacing" textLength="18" x="69.5" y="420.0938">11</text><text fill="#000000" font-family="sans-serif" font-size="13" lengthAdjust="spacing" textLength="256" x="91.5" y="420.0938">Indicates that the \invitation eas created</text><line style="stroke:#000000;stroke-width:1.0;stroke-dasharray:2.0,2.0;" x1="20" x2="395.5" y1="433.8359" y2="433.8359"/><text fill="#000000" font-family="sans-serif" font-size="11" font-weight="bold" lengthAdjust="spacing" textLength="104" x="25" y="444.4707">[if option == Exit]</text><polygon fill="#181818" points="63.5,465.1016,53.5,469.1016,63.5,473.1016,59.5,469.1016" style="stroke:#181818;stroke-width:1.0;"/><line style="stroke:#181818;stroke-width:1.0;stroke-dasharray:2.0,2.0;" x1="57.5" x2="353.5" y1="469.1016" y2="469.1016"/><text fill="#000000" font-family="sans-serif" font-size="13" font-weight="bold" lengthAdjust="spacing" textLength="18" x="69.5" y="464.3594">12</text><text fill="#000000" font-family="sans-serif" font-size="13" lengthAdjust="spacing" textLength="104" x="91.5" y="464.3594">Returns to menu</text><!--SRC=[fL4nRW8n4EpzYkrINUXHY4IH8Yq8fKbZpWksEAyltdL8Vf-rJ-Y4I6XYoMvsPdPc_E15Hbuk5kDWIKeS7liK5umV1Qd7pWLxp3OQOuiaAd6FsPWTOuRk6RRVB1YNi2xYaIJqLa8Ys5GoYvd6q2coCdx1yPY8yLRmJQqmI0BsDYCaqdi07nZsoMR74-6fwsOBVAhutgV4ZN2ZkSK1UrMjCsC7WRCF0y89SLmx5-XO2Goh5KWkQ43FRG0-COG3d2_-h7CGarfyfzBeAL_DyIj8aweBTP36bboNR5koSn0FILl9qFWD-_VgwuGNxBsaz_NgJXWnny2illwd-4gk_YogJMz57sqbq6UGwRVHClGP5U1C4y51Srnryd9fQzQVvJSe9LFh82ALIOASqVi3]--></g></svg>