<?xml version="1.0" encoding="us-ascii" standalone="no"?><svg xmlns="http://www.w3.org/2000/svg" xmlns:xlink="http://www.w3.org/1999/xlink" contentStyleType="text/css" height="539.7px" preserveAspectRatio="none" style="width:651px;height:539px;background:#FFFFFF;" version="1.1" viewBox="0 0 651 539" width="651.7px" zoomAndPan="magnify"><defs/><g><!--class ViewBoardHistoryOfUpdatesUI--><g id="elem_ViewBoardHistoryOfUpdatesUI"><rect codeLine="2" fill="#F1F1F1" height="42.4074" id="ViewBoardHistoryOfUpdatesUI" rx="1.75" ry="1.75" style="stroke:#181818;stroke-width:0.3499999999999999;" width="154.7" x="286.65" y="4.9"/><ellipse cx="297.15" cy="20.5037" fill="#ADD1B2" rx="7.7" ry="7.7" style="stroke:#181818;stroke-width:0.6999999999999998;"/><path d="M299.0859,17.6162 Q299.1953,17.4631 299.3266,17.3865 Q299.4578,17.31 299.6109,17.31 Q299.8734,17.31 300.0375,17.4959 Q300.2016,17.6709 300.2016,18.0975 L300.2016,19.1146 Q300.2016,19.5412 300.0375,19.7271 Q299.8734,19.9131 299.6109,19.9131 Q299.3703,19.9131 299.2281,19.7709 Q299.0859,19.6396 299.0094,19.2787 Q298.9766,19.0271 298.8453,18.8959 Q298.6156,18.6334 298.1891,18.4803 Q297.7625,18.3271 297.325,18.3271 Q296.7891,18.3271 296.3406,18.5568 Q295.9031,18.7865 295.5531,19.3115 Q295.2141,19.8365 295.2141,20.5584 L295.2141,21.324 Q295.2141,22.1881 295.8375,22.7678 Q296.4609,23.3365 297.5766,23.3365 Q298.2328,23.3365 298.6922,23.1615 Q298.9656,23.0521 299.2609,22.7459 Q299.4469,22.56 299.5453,22.5053 Q299.6547,22.4506 299.7969,22.4506 Q300.0266,22.4506 300.2016,22.6365 Q300.3875,22.8115 300.3875,23.0521 Q300.3875,23.2928 300.1469,23.5771 Q299.7969,23.9818 299.2391,24.2115 Q298.4844,24.5287 297.5766,24.5287 Q296.5156,24.5287 295.6734,24.0912 Q294.9844,23.7412 294.5031,22.9975 Q294.0219,22.2428 294.0219,21.3459 L294.0219,20.5365 Q294.0219,19.6068 294.4484,18.8084 Q294.8859,17.999 295.6516,17.5725 Q296.4172,17.135 297.2812,17.135 Q297.7953,17.135 298.2437,17.2553 Q298.7031,17.3646 299.0859,17.6162 Z " fill="#000000"/><text fill="#000000" font-family="sans-serif" font-size="8.4" font-style="italic" lengthAdjust="spacing" textLength="18.9" x="363.65" y="17.4645">&#171;UI&#187;</text><text fill="#000000" font-family="sans-serif" font-size="9.8" lengthAdjust="spacing" textLength="132.3" x="306.95" y="30.1479">ViewBoardHistoryOfUpdatesUI</text><line style="stroke:#181818;stroke-width:0.3499999999999999;" x1="287.35" x2="440.65" y1="36.1074" y2="36.1074"/><line style="stroke:#181818;stroke-width:0.3499999999999999;" x1="287.35" x2="440.65" y1="41.7074" y2="41.7074"/></g><!--class ViewBoardHistoryOfUpdatesController--><g id="elem_ViewBoardHistoryOfUpdatesController"><rect codeLine="5" fill="#F1F1F1" height="68.477" id="ViewBoardHistoryOfUpdatesController" rx="1.75" ry="1.75" style="stroke:#181818;stroke-width:0.3499999999999999;" width="295.4" x="216.3" y="90.3"/><ellipse cx="277.375" cy="105.9037" fill="#ADD1B2" rx="7.7" ry="7.7" style="stroke:#181818;stroke-width:0.6999999999999998;"/><path d="M279.3109,103.0162 Q279.4203,102.8631 279.5516,102.7865 Q279.6828,102.71 279.8359,102.71 Q280.0984,102.71 280.2625,102.8959 Q280.4266,103.0709 280.4266,103.4975 L280.4266,104.5146 Q280.4266,104.9412 280.2625,105.1271 Q280.0984,105.3131 279.8359,105.3131 Q279.5953,105.3131 279.4531,105.1709 Q279.3109,105.0396 279.2344,104.6787 Q279.2016,104.4271 279.0703,104.2959 Q278.8406,104.0334 278.4141,103.8803 Q277.9875,103.7271 277.55,103.7271 Q277.0141,103.7271 276.5656,103.9568 Q276.1281,104.1865 275.7781,104.7115 Q275.4391,105.2365 275.4391,105.9584 L275.4391,106.724 Q275.4391,107.5881 276.0625,108.1678 Q276.6859,108.7365 277.8016,108.7365 Q278.4578,108.7365 278.9172,108.5615 Q279.1906,108.4521 279.4859,108.1459 Q279.6719,107.96 279.7703,107.9053 Q279.8797,107.8506 280.0219,107.8506 Q280.2516,107.8506 280.4266,108.0365 Q280.6125,108.2115 280.6125,108.4521 Q280.6125,108.6928 280.3719,108.9771 Q280.0219,109.3818 279.4641,109.6115 Q278.7094,109.9287 277.8016,109.9287 Q276.7406,109.9287 275.8984,109.4912 Q275.2094,109.1412 274.7281,108.3975 Q274.2469,107.6428 274.2469,106.7459 L274.2469,105.9365 Q274.2469,105.0068 274.6734,104.2084 Q275.1109,103.399 275.8766,102.9725 Q276.6422,102.535 277.5062,102.535 Q278.0203,102.535 278.4687,102.6553 Q278.9281,102.7646 279.3109,103.0162 Z " fill="#000000"/><text fill="#000000" font-family="sans-serif" font-size="8.4" font-style="italic" lengthAdjust="spacing" textLength="45.5" x="352.625" y="102.8645">&#171;controller&#187;</text><text fill="#000000" font-family="sans-serif" font-size="9.8" lengthAdjust="spacing" textLength="167.3" x="291.725" y="115.5479">ViewBoardHistoryOfUpdatesController</text><line style="stroke:#181818;stroke-width:0.3499999999999999;" x1="217" x2="511" y1="121.5074" y2="121.5074"/><line style="stroke:#181818;stroke-width:0.3499999999999999;" x1="217" x2="511" y1="127.1074" y2="127.1074"/><ellipse cx="224" cy="137.4748" fill="#84BE84" rx="2.1" ry="2.1" style="stroke:#038048;stroke-width:0.6999999999999998;"/><text fill="#000000" font-family="sans-serif" font-size="9.8" lengthAdjust="spacing" textLength="187.6" x="230.3" y="140.4826">List&lt;String&gt; : listSharedBoards(username)</text><ellipse cx="224" cy="150.5096" fill="#84BE84" rx="2.1" ry="2.1" style="stroke:#038048;stroke-width:0.6999999999999998;"/><text fill="#000000" font-family="sans-serif" font-size="9.8" lengthAdjust="spacing" textLength="277.2" x="230.3" y="153.5174">List&lt;String&gt; : findHistoryOfSharedBoardUpdates(sharedBoard)</text></g><!--class TcpServerMessageHandler--><g id="elem_TcpServerMessageHandler"><rect codeLine="10" fill="#F1F1F1" height="59.6695" id="TcpServerMessageHandler" rx="1.75" ry="1.75" style="stroke:#181818;stroke-width:0.3499999999999999;" width="236.6" x="245.7" y="201.6"/><ellipse cx="300.825" cy="212.8" fill="#ADD1B2" rx="7.7" ry="7.7" style="stroke:#181818;stroke-width:0.6999999999999998;"/><path d="M302.7609,209.9125 Q302.8703,209.7594 303.0016,209.6828 Q303.1328,209.6062 303.2859,209.6062 Q303.5484,209.6062 303.7125,209.7922 Q303.8766,209.9672 303.8766,210.3937 L303.8766,211.4109 Q303.8766,211.8375 303.7125,212.0234 Q303.5484,212.2094 303.2859,212.2094 Q303.0453,212.2094 302.9031,212.0672 Q302.7609,211.9359 302.6844,211.575 Q302.6516,211.3234 302.5203,211.1922 Q302.2906,210.9297 301.8641,210.7766 Q301.4375,210.6234 301,210.6234 Q300.4641,210.6234 300.0156,210.8531 Q299.5781,211.0828 299.2281,211.6078 Q298.8891,212.1328 298.8891,212.8547 L298.8891,213.6203 Q298.8891,214.4844 299.5125,215.0641 Q300.1359,215.6328 301.2516,215.6328 Q301.9078,215.6328 302.3672,215.4578 Q302.6406,215.3484 302.9359,215.0422 Q303.1219,214.8562 303.2203,214.8016 Q303.3297,214.7469 303.4719,214.7469 Q303.7016,214.7469 303.8766,214.9328 Q304.0625,215.1078 304.0625,215.3484 Q304.0625,215.5891 303.8219,215.8734 Q303.4719,216.2781 302.9141,216.5078 Q302.1594,216.825 301.2516,216.825 Q300.1906,216.825 299.3484,216.3875 Q298.6594,216.0375 298.1781,215.2937 Q297.6969,214.5391 297.6969,213.6422 L297.6969,212.8328 Q297.6969,211.9031 298.1234,211.1047 Q298.5609,210.2953 299.3266,209.8687 Q300.0922,209.4312 300.9562,209.4312 Q301.4703,209.4312 301.9187,209.5516 Q302.3781,209.6609 302.7609,209.9125 Z " fill="#000000"/><text fill="#000000" font-family="sans-serif" font-size="9.8" lengthAdjust="spacing" textLength="120.4" x="315.175" y="216.8578">TcpServerMessageHandler</text><line style="stroke:#181818;stroke-width:0.3499999999999999;" x1="246.4" x2="481.6" y1="224" y2="224"/><line style="stroke:#181818;stroke-width:0.3499999999999999;" x1="246.4" x2="481.6" y1="229.6" y2="229.6"/><ellipse cx="253.4" cy="239.9674" fill="#84BE84" rx="2.1" ry="2.1" style="stroke:#038048;stroke-width:0.6999999999999998;"/><text fill="#000000" font-family="sans-serif" font-size="9.8" lengthAdjust="spacing" textLength="218.4" x="259.7" y="242.9752">void: findSharedBoardsOfUser(version, data, out)</text><ellipse cx="253.4" cy="253.0021" fill="#84BE84" rx="2.1" ry="2.1" style="stroke:#038048;stroke-width:0.6999999999999998;"/><text fill="#000000" font-family="sans-serif" font-size="9.8" lengthAdjust="spacing" textLength="181.3" x="259.7" y="256.01">void: findPostItHistory(version, data, out);</text></g><!--class UserRepository--><g id="elem_UserRepository"><rect codeLine="15" fill="#F1F1F1" height="55.4422" id="UserRepository" rx="1.75" ry="1.75" style="stroke:#181818;stroke-width:0.3499999999999999;" width="128.8" x="4.9" y="303.8"/><ellipse cx="32.725" cy="319.4037" fill="#ADD1B2" rx="7.7" ry="7.7" style="stroke:#181818;stroke-width:0.6999999999999998;"/><path d="M34.6609,316.5162 Q34.7703,316.3631 34.9016,316.2865 Q35.0328,316.21 35.1859,316.21 Q35.4484,316.21 35.6125,316.3959 Q35.7766,316.5709 35.7766,316.9975 L35.7766,318.0146 Q35.7766,318.4412 35.6125,318.6271 Q35.4484,318.8131 35.1859,318.8131 Q34.9453,318.8131 34.8031,318.6709 Q34.6609,318.5396 34.5844,318.1787 Q34.5516,317.9271 34.4203,317.7959 Q34.1906,317.5334 33.7641,317.3803 Q33.3375,317.2271 32.9,317.2271 Q32.3641,317.2271 31.9156,317.4568 Q31.4781,317.6865 31.1281,318.2115 Q30.7891,318.7365 30.7891,319.4584 L30.7891,320.224 Q30.7891,321.0881 31.4125,321.6678 Q32.0359,322.2365 33.1516,322.2365 Q33.8078,322.2365 34.2672,322.0615 Q34.5406,321.9521 34.8359,321.6459 Q35.0219,321.46 35.1203,321.4053 Q35.2297,321.3506 35.3719,321.3506 Q35.6016,321.3506 35.7766,321.5365 Q35.9625,321.7115 35.9625,321.9521 Q35.9625,322.1928 35.7219,322.4771 Q35.3719,322.8818 34.8141,323.1115 Q34.0594,323.4287 33.1516,323.4287 Q32.0906,323.4287 31.2484,322.9912 Q30.5594,322.6412 30.0781,321.8975 Q29.5969,321.1428 29.5969,320.2459 L29.5969,319.4365 Q29.5969,318.5068 30.0234,317.7084 Q30.4609,316.899 31.2266,316.4725 Q31.9922,316.035 32.8562,316.035 Q33.3703,316.035 33.8187,316.1553 Q34.2781,316.2646 34.6609,316.5162 Z " fill="#000000"/><text fill="#000000" font-family="sans-serif" font-size="8.4" font-style="italic" lengthAdjust="spacing" textLength="47.6" x="56.525" y="316.3645">&#171;repository&#187;</text><text fill="#000000" font-family="sans-serif" font-size="9.8" lengthAdjust="spacing" textLength="67.9" x="46.375" y="329.0479">UserRepository</text><line style="stroke:#181818;stroke-width:0.3499999999999999;" x1="5.6" x2="133" y1="335.0074" y2="335.0074"/><line style="stroke:#181818;stroke-width:0.3499999999999999;" x1="5.6" x2="133" y1="340.6074" y2="340.6074"/><ellipse cx="12.6" cy="350.9748" fill="#84BE84" rx="2.1" ry="2.1" style="stroke:#038048;stroke-width:0.6999999999999998;"/><text fill="#000000" font-family="sans-serif" font-size="9.8" lengthAdjust="spacing" textLength="110.6" x="18.9" y="353.9826">SystemUser : findById(id)</text></g><!--class SharedBoardRepository--><g id="elem_SharedBoardRepository"><rect codeLine="19" fill="#F1F1F1" height="55.4422" id="SharedBoardRepository" rx="1.75" ry="1.75" style="stroke:#181818;stroke-width:0.3499999999999999;" width="182.7" x="158.55" y="303.8"/><ellipse cx="193.725" cy="319.4037" fill="#ADD1B2" rx="7.7" ry="7.7" style="stroke:#181818;stroke-width:0.6999999999999998;"/><path d="M195.6609,316.5162 Q195.7703,316.3631 195.9016,316.2865 Q196.0328,316.21 196.1859,316.21 Q196.4484,316.21 196.6125,316.3959 Q196.7766,316.5709 196.7766,316.9975 L196.7766,318.0146 Q196.7766,318.4412 196.6125,318.6271 Q196.4484,318.8131 196.1859,318.8131 Q195.9453,318.8131 195.8031,318.6709 Q195.6609,318.5396 195.5844,318.1787 Q195.5516,317.9271 195.4203,317.7959 Q195.1906,317.5334 194.7641,317.3803 Q194.3375,317.2271 193.9,317.2271 Q193.3641,317.2271 192.9156,317.4568 Q192.4781,317.6865 192.1281,318.2115 Q191.7891,318.7365 191.7891,319.4584 L191.7891,320.224 Q191.7891,321.0881 192.4125,321.6678 Q193.0359,322.2365 194.1516,322.2365 Q194.8078,322.2365 195.2672,322.0615 Q195.5406,321.9521 195.8359,321.6459 Q196.0219,321.46 196.1203,321.4053 Q196.2297,321.3506 196.3719,321.3506 Q196.6016,321.3506 196.7766,321.5365 Q196.9625,321.7115 196.9625,321.9521 Q196.9625,322.1928 196.7219,322.4771 Q196.3719,322.8818 195.8141,323.1115 Q195.0594,323.4287 194.1516,323.4287 Q193.0906,323.4287 192.2484,322.9912 Q191.5594,322.6412 191.0781,321.8975 Q190.5969,321.1428 190.5969,320.2459 L190.5969,319.4365 Q190.5969,318.5068 191.0234,317.7084 Q191.4609,316.899 192.2266,316.4725 Q192.9922,316.035 193.8562,316.035 Q194.3703,316.035 194.8187,316.1553 Q195.2781,316.2646 195.6609,316.5162 Z " fill="#000000"/><text fill="#000000" font-family="sans-serif" font-size="8.4" font-style="italic" lengthAdjust="spacing" textLength="47.6" x="237.475" y="316.3645">&#171;repository&#187;</text><text fill="#000000" font-family="sans-serif" font-size="9.8" lengthAdjust="spacing" textLength="106.4" x="208.075" y="329.0479">SharedBoardRepository</text><line style="stroke:#181818;stroke-width:0.3499999999999999;" x1="159.25" x2="340.55" y1="335.0074" y2="335.0074"/><line style="stroke:#181818;stroke-width:0.3499999999999999;" x1="159.25" x2="340.55" y1="340.6074" y2="340.6074"/><ellipse cx="166.25" cy="350.9748" fill="#84BE84" rx="2.1" ry="2.1" style="stroke:#038048;stroke-width:0.6999999999999998;"/><text fill="#000000" font-family="sans-serif" font-size="9.8" lengthAdjust="spacing" textLength="164.5" x="172.55" y="353.9826">SharedBoard : findSharedBoard(title)</text></g><!--class PostItHistoryRepository--><g id="elem_PostItHistoryRepository"><rect codeLine="23" fill="#F1F1F1" height="55.4422" id="PostItHistoryRepository" rx="1.75" ry="1.75" style="stroke:#181818;stroke-width:0.3499999999999999;" width="225.4" x="366.1" y="303.8"/><ellipse cx="424.725" cy="319.4037" fill="#ADD1B2" rx="7.7" ry="7.7" style="stroke:#181818;stroke-width:0.6999999999999998;"/><path d="M426.6609,316.5162 Q426.7703,316.3631 426.9016,316.2865 Q427.0328,316.21 427.1859,316.21 Q427.4484,316.21 427.6125,316.3959 Q427.7766,316.5709 427.7766,316.9975 L427.7766,318.0146 Q427.7766,318.4412 427.6125,318.6271 Q427.4484,318.8131 427.1859,318.8131 Q426.9453,318.8131 426.8031,318.6709 Q426.6609,318.5396 426.5844,318.1787 Q426.5516,317.9271 426.4203,317.7959 Q426.1906,317.5334 425.7641,317.3803 Q425.3375,317.2271 424.9,317.2271 Q424.3641,317.2271 423.9156,317.4568 Q423.4781,317.6865 423.1281,318.2115 Q422.7891,318.7365 422.7891,319.4584 L422.7891,320.224 Q422.7891,321.0881 423.4125,321.6678 Q424.0359,322.2365 425.1516,322.2365 Q425.8078,322.2365 426.2672,322.0615 Q426.5406,321.9521 426.8359,321.6459 Q427.0219,321.46 427.1203,321.4053 Q427.2297,321.3506 427.3719,321.3506 Q427.6016,321.3506 427.7766,321.5365 Q427.9625,321.7115 427.9625,321.9521 Q427.9625,322.1928 427.7219,322.4771 Q427.3719,322.8818 426.8141,323.1115 Q426.0594,323.4287 425.1516,323.4287 Q424.0906,323.4287 423.2484,322.9912 Q422.5594,322.6412 422.0781,321.8975 Q421.5969,321.1428 421.5969,320.2459 L421.5969,319.4365 Q421.5969,318.5068 422.0234,317.7084 Q422.4609,316.899 423.2266,316.4725 Q423.9922,316.035 424.8562,316.035 Q425.3703,316.035 425.8187,316.1553 Q426.2781,316.2646 426.6609,316.5162 Z " fill="#000000"/><text fill="#000000" font-family="sans-serif" font-size="8.4" font-style="italic" lengthAdjust="spacing" textLength="47.6" x="466.375" y="316.3645">&#171;repository&#187;</text><text fill="#000000" font-family="sans-serif" font-size="9.8" lengthAdjust="spacing" textLength="102.2" x="439.075" y="329.0479">PostItHistoryRepository</text><line style="stroke:#181818;stroke-width:0.3499999999999999;" x1="366.8" x2="590.8" y1="335.0074" y2="335.0074"/><line style="stroke:#181818;stroke-width:0.3499999999999999;" x1="366.8" x2="590.8" y1="340.6074" y2="340.6074"/><ellipse cx="373.8" cy="350.9748" fill="#84BE84" rx="2.1" ry="2.1" style="stroke:#038048;stroke-width:0.6999999999999998;"/><text fill="#000000" font-family="sans-serif" font-size="9.8" lengthAdjust="spacing" textLength="207.2" x="380.1" y="353.9826">PostItHistory : findUpdatesOfSharedBoard(title)</text></g><!--class PostItHistory--><g id="elem_PostItHistory"><rect codeLine="27" fill="#F1F1F1" height="120.616" id="PostItHistory" rx="1.75" ry="1.75" style="stroke:#181818;stroke-width:0.3499999999999999;" width="119.7" x="499.45" y="414.4"/><ellipse cx="529.165" cy="430.0037" fill="#ADD1B2" rx="7.7" ry="7.7" style="stroke:#181818;stroke-width:0.6999999999999998;"/><path d="M531.1009,427.1162 Q531.2103,426.9631 531.3416,426.8865 Q531.4728,426.81 531.6259,426.81 Q531.8884,426.81 532.0525,426.9959 Q532.2166,427.1709 532.2166,427.5975 L532.2166,428.6146 Q532.2166,429.0412 532.0525,429.2271 Q531.8884,429.4131 531.6259,429.4131 Q531.3853,429.4131 531.2431,429.2709 Q531.1009,429.1396 531.0244,428.7787 Q530.9916,428.5271 530.8603,428.3959 Q530.6306,428.1334 530.2041,427.9803 Q529.7775,427.8271 529.34,427.8271 Q528.8041,427.8271 528.3556,428.0568 Q527.9181,428.2865 527.5681,428.8115 Q527.2291,429.3365 527.2291,430.0584 L527.2291,430.824 Q527.2291,431.6881 527.8525,432.2678 Q528.4759,432.8365 529.5916,432.8365 Q530.2478,432.8365 530.7072,432.6615 Q530.9806,432.5521 531.2759,432.2459 Q531.4619,432.06 531.5603,432.0053 Q531.6697,431.9506 531.8119,431.9506 Q532.0416,431.9506 532.2166,432.1365 Q532.4025,432.3115 532.4025,432.5521 Q532.4025,432.7928 532.1619,433.0771 Q531.8119,433.4818 531.2541,433.7115 Q530.4994,434.0287 529.5916,434.0287 Q528.5306,434.0287 527.6884,433.5912 Q526.9994,433.2412 526.5181,432.4975 Q526.0369,431.7428 526.0369,430.8459 L526.0369,430.0365 Q526.0369,429.1068 526.4634,428.3084 Q526.9009,427.499 527.6666,427.0725 Q528.4322,426.635 529.2962,426.635 Q529.8103,426.635 530.2588,426.7553 Q530.7181,426.8646 531.1009,427.1162 Z " fill="#000000"/><text fill="#000000" font-family="sans-serif" font-size="8.4" font-style="italic" lengthAdjust="spacing" textLength="39.2" x="550.935" y="426.9645">&#171;domain&#187;</text><text fill="#000000" font-family="sans-serif" font-size="9.8" lengthAdjust="spacing" textLength="54.6" x="543.235" y="439.6479">PostItHistory</text><line style="stroke:#181818;stroke-width:0.3499999999999999;" x1="500.15" x2="618.45" y1="445.6074" y2="445.6074"/><rect fill="none" height="4.2" style="stroke:#C82930;stroke-width:0.6999999999999998;" width="4.2" x="505.05" y="453.8748"/><text fill="#000000" font-family="sans-serif" font-size="9.8" lengthAdjust="spacing" textLength="56.7" x="513.45" y="458.9826">PostIt : postIt</text><rect fill="none" height="4.2" style="stroke:#C82930;stroke-width:0.6999999999999998;" width="4.2" x="505.05" y="466.9096"/><text fill="#000000" font-family="sans-serif" font-size="9.8" lengthAdjust="spacing" textLength="75.6" x="513.45" y="472.0174">Date : timeStamp</text><rect fill="none" height="4.2" style="stroke:#C82930;stroke-width:0.6999999999999998;" width="4.2" x="505.05" y="479.9443"/><text fill="#000000" font-family="sans-serif" font-size="9.8" lengthAdjust="spacing" textLength="97.3" x="513.45" y="485.0521">String : oldDescrpition</text><rect fill="none" height="4.2" style="stroke:#C82930;stroke-width:0.6999999999999998;" width="4.2" x="505.05" y="492.9791"/><text fill="#000000" font-family="sans-serif" font-size="9.8" lengthAdjust="spacing" textLength="101.5" x="513.45" y="498.0869">String : newDescrpition</text><rect fill="none" height="4.2" style="stroke:#C82930;stroke-width:0.6999999999999998;" width="4.2" x="505.05" y="506.0139"/><text fill="#000000" font-family="sans-serif" font-size="9.8" lengthAdjust="spacing" textLength="52.5" x="513.45" y="511.1217">Cell: oldCell</text><rect fill="none" height="4.2" style="stroke:#C82930;stroke-width:0.6999999999999998;" width="4.2" x="505.05" y="519.0486"/><text fill="#000000" font-family="sans-serif" font-size="9.8" lengthAdjust="spacing" textLength="62.3" x="513.45" y="524.1564">Cell : new Cell</text><line style="stroke:#181818;stroke-width:0.3499999999999999;" x1="500.15" x2="618.45" y1="529.416" y2="529.416"/></g><!--link ViewBoardHistoryOfUpdatesUI to ViewBoardHistoryOfUpdatesController--><g id="link_ViewBoardHistoryOfUpdatesUI_ViewBoardHistoryOfUpdatesController"><path codeLine="36" d="M364,47.747 C364,59.038 364,73.339 364,86.492 " fill="none" id="ViewBoardHistoryOfUpdatesUI-to-ViewBoardHistoryOfUpdatesController" style="stroke:#181818;stroke-width:0.6999999999999998;stroke-dasharray:7.0,7.0;"/><polygon fill="#181818" points="364,90.174,366.8,83.874,364,86.674,361.2,83.874,364,90.174" style="stroke:#181818;stroke-width:0.6999999999999998;"/></g><!--link ViewBoardHistoryOfUpdatesController to TcpServerMessageHandler--><g id="link_ViewBoardHistoryOfUpdatesController_TcpServerMessageHandler"><path codeLine="37" d="M364,158.921 C364,171.367 364,185.444 364,197.82 " fill="none" id="ViewBoardHistoryOfUpdatesController-to-TcpServerMessageHandler" style="stroke:#181818;stroke-width:0.6999999999999998;stroke-dasharray:7.0,7.0;"/><polygon fill="#181818" points="364,201.6,366.8,195.3,364,198.1,361.2,195.3,364,201.6" style="stroke:#181818;stroke-width:0.6999999999999998;"/></g><!--link TcpServerMessageHandler to UserRepository--><g id="link_TcpServerMessageHandler_UserRepository"><path codeLine="38" d="M274.379,261.177 C235.025,274.078 188.314,289.527 146.3,303.8 C143.297,304.822 140.231,305.872 137.13,306.929 " fill="none" id="TcpServerMessageHandler-to-UserRepository" style="stroke:#181818;stroke-width:0.6999999999999998;"/><polygon fill="#181818" points="133.763,308.091,140.6298,308.7054,137.0753,306.9602,138.8205,303.4057,133.763,308.091" style="stroke:#181818;stroke-width:0.6999999999999998;"/></g><!--link TcpServerMessageHandler to SharedBoardRepository--><g id="link_TcpServerMessageHandler_SharedBoardRepository"><path codeLine="39" d="M330.386,261.128 C315.714,273.819 298.55,288.666 283.843,301.385 " fill="none" id="TcpServerMessageHandler-to-SharedBoardRepository" style="stroke:#181818;stroke-width:0.6999999999999998;"/><polygon fill="#181818" points="281.127,303.737,287.7245,301.7364,283.7752,301.4486,284.063,297.4992,281.127,303.737" style="stroke:#181818;stroke-width:0.6999999999999998;"/></g><!--link TcpServerMessageHandler to PostItHistoryRepository--><g id="link_TcpServerMessageHandler_PostItHistoryRepository"><path codeLine="40" d="M397.824,261.128 C412.58,273.819 429.849,288.666 444.647,301.385 " fill="none" id="TcpServerMessageHandler-to-PostItHistoryRepository" style="stroke:#181818;stroke-width:0.6999999999999998;"/><polygon fill="#181818" points="447.377,303.737,444.4275,297.5056,444.7238,301.4543,440.7752,301.7506,447.377,303.737" style="stroke:#181818;stroke-width:0.6999999999999998;"/></g><!--link PostItHistoryRepository to PostItHistory--><g id="link_PostItHistoryRepository_PostItHistory"><path codeLine="41" d="M494.13,359.149 C502.495,373.877 513.233,392.777 523.565,410.97 " fill="none" id="PostItHistoryRepository-to-PostItHistory" style="stroke:#181818;stroke-width:0.6999999999999998;"/><polygon fill="#181818" points="525.35,414.12,524.6676,407.2597,523.6189,411.0781,519.8005,410.0294,525.35,414.12" style="stroke:#181818;stroke-width:0.6999999999999998;"/><polygon fill="#000000" points="517.6286,389.8952,516.2903,383.3737,512.7127,385.4058,517.6286,389.8952" style="stroke:#000000;stroke-width:0.6999999999999998;"/><text fill="#000000" font-family="sans-serif" font-size="9.1" lengthAdjust="spacing" textLength="14.7" x="522.2" y="390.6198">has</text></g><!--link TcpServerMessageHandler to PostItHistory--><g id="link_TcpServerMessageHandler_PostItHistory"><path codeLine="42" d="M482.405,253.757 C534.73,265.986 587.923,283.003 603.4,303.8 C626.43,334.74 615.958,376.607 599.459,411.061 " fill="none" id="TcpServerMessageHandler-to-PostItHistory" style="stroke:#181818;stroke-width:0.6999999999999998;"/><polygon fill="#181818" points="597.842,414.365,603.1301,409.9416,599.3832,411.2226,598.1022,407.4757,597.842,414.365" style="stroke:#181818;stroke-width:0.6999999999999998;"/><polygon fill="#000000" points="622.9894,334.3598,620.8601,328.0521,617.5592,330.5084,622.9894,334.3598" style="stroke:#000000;stroke-width:0.6999999999999998;"/><text fill="#000000" font-family="sans-serif" font-size="9.1" lengthAdjust="spacing" textLength="18.9" x="627.2" y="335.3198">finds</text></g><!--SRC=[ZLD1Ri8m4Bpd5Ju65NX0Yt803aHgrQeflLln0fOSE_8Q4Ahwzww3Im8X8JavwvdPMNkSAux8lYKSvuPRiPBeZ3szRzQbu0vmdRBPR9qc2Vk9VgCexqSlZ7RMA0MMMFdbfs8p-fxOAp5ccRDIRnFsp1JzPZjkGLHw6EyHhEO5ZExZDrBNJHl4q3_6kZIg_NxbPGRs0FOD4FaMLbmBx_7VrC58STPkUg6fo4nCD9H6Znbru6DczcxKedqOTAaBnkunNcepNlGJIeFIW-cSxEMdSKxP2HqK7XkcdfzI4SlcL0sl0_HgC6kD6Zlf53Iah-PvB7u53_BXHgvkgRyFgGjJSAalofC08CcoMeJgafIfvcG1cUD56ShdcD26KM89cDjIEhg7srqDn_Rk0fIgY7xHg9tnrTBRxdidqsaov6L4GrwFr-f8RTILviaakGbNB_HkV7eP7Qc8kjBIuj1XxZYoP7YN42RF-GC0]--></g></svg>