<?xml version="1.0" encoding="us-ascii" standalone="no"?><svg xmlns="http://www.w3.org/2000/svg" xmlns:xlink="http://www.w3.org/1999/xlink" contentStyleType="text/css" height="601px" preserveAspectRatio="none" style="width:1078px;height:601px;background:#FFFFFF;" version="1.1" viewBox="0 0 1078 601" width="1078px" zoomAndPan="magnify"><defs/><g><!--class ShareBoardClient--><g id="elem_ShareBoardClient"><rect codeLine="2" fill="#F1F1F1" height="48" id="ShareBoardClient" rx="2.5" ry="2.5" style="stroke:#181818;stroke-width:0.5;" width="151" x="357.5" y="7"/><ellipse cx="372.5" cy="23" fill="#ADD1B2" rx="11" ry="11" style="stroke:#181818;stroke-width:1.0;"/><path d="M375.4731,28.6431 Q374.8921,28.9419 374.2529,29.0913 Q373.6138,29.2407 372.9082,29.2407 Q370.4014,29.2407 369.0815,27.5889 Q367.7617,25.937 367.7617,22.8159 Q367.7617,19.6865 369.0815,18.0347 Q370.4014,16.3828 372.9082,16.3828 Q373.6138,16.3828 374.2612,16.5322 Q374.9087,16.6816 375.4731,16.9805 L375.4731,19.7031 Q374.8423,19.1221 374.2488,18.8523 Q373.6553,18.5825 373.0244,18.5825 Q371.6797,18.5825 370.9949,19.6492 Q370.3101,20.7158 370.3101,22.8159 Q370.3101,24.9077 370.9949,25.9744 Q371.6797,27.041 373.0244,27.041 Q373.6553,27.041 374.2488,26.7712 Q374.8423,26.5015 375.4731,25.9204 Z " fill="#000000"/><text fill="#000000" font-family="sans-serif" font-size="14" lengthAdjust="spacing" textLength="119" x="386.5" y="28.291">ShareBoardClient</text><line style="stroke:#181818;stroke-width:0.5;" x1="358.5" x2="507.5" y1="39" y2="39"/><line style="stroke:#181818;stroke-width:0.5;" x1="358.5" x2="507.5" y1="47" y2="47"/></g><!--class BrowserThread--><g id="elem_BrowserThread"><rect codeLine="5" fill="#F1F1F1" height="48" id="BrowserThread" rx="2.5" ry="2.5" style="stroke:#181818;stroke-width:0.5;" width="136" x="365" y="115"/><ellipse cx="380" cy="131" fill="#ADD1B2" rx="11" ry="11" style="stroke:#181818;stroke-width:1.0;"/><path d="M382.9731,136.6431 Q382.3921,136.9419 381.7529,137.0913 Q381.1138,137.2407 380.4082,137.2407 Q377.9014,137.2407 376.5815,135.5889 Q375.2617,133.937 375.2617,130.8159 Q375.2617,127.6865 376.5815,126.0347 Q377.9014,124.3828 380.4082,124.3828 Q381.1138,124.3828 381.7612,124.5322 Q382.4087,124.6816 382.9731,124.9805 L382.9731,127.7031 Q382.3423,127.1221 381.7488,126.8523 Q381.1553,126.5825 380.5244,126.5825 Q379.1797,126.5825 378.4949,127.6492 Q377.8101,128.7158 377.8101,130.8159 Q377.8101,132.9077 378.4949,133.9744 Q379.1797,135.041 380.5244,135.041 Q381.1553,135.041 381.7488,134.7712 Q382.3423,134.5015 382.9731,133.9204 Z " fill="#000000"/><text fill="#000000" font-family="sans-serif" font-size="14" lengthAdjust="spacing" textLength="104" x="394" y="136.291">BrowserThread</text><line style="stroke:#181818;stroke-width:0.5;" x1="366" x2="500" y1="147" y2="147"/><line style="stroke:#181818;stroke-width:0.5;" x1="366" x2="500" y1="155" y2="155"/></g><!--class ShareBoardClientController--><g id="elem_ShareBoardClientController"><rect codeLine="8" fill="#F1F1F1" height="80.9766" id="ShareBoardClientController" rx="2.5" ry="2.5" style="stroke:#181818;stroke-width:0.5;" width="363" x="251.5" y="223"/><ellipse cx="334.25" cy="239" fill="#ADD1B2" rx="11" ry="11" style="stroke:#181818;stroke-width:1.0;"/><path d="M337.2231,244.6431 Q336.6421,244.9419 336.0029,245.0913 Q335.3638,245.2407 334.6582,245.2407 Q332.1514,245.2407 330.8315,243.5889 Q329.5117,241.937 329.5117,238.8159 Q329.5117,235.6865 330.8315,234.0347 Q332.1514,232.3828 334.6582,232.3828 Q335.3638,232.3828 336.0112,232.5322 Q336.6587,232.6816 337.2231,232.9805 L337.2231,235.7031 Q336.5923,235.1221 335.9988,234.8523 Q335.4053,234.5825 334.7744,234.5825 Q333.4297,234.5825 332.7449,235.6492 Q332.0601,236.7158 332.0601,238.8159 Q332.0601,240.9077 332.7449,241.9744 Q333.4297,243.041 334.7744,243.041 Q335.4053,243.041 335.9988,242.7712 Q336.5923,242.5015 337.2231,241.9204 Z " fill="#000000"/><text fill="#000000" font-family="sans-serif" font-size="14" lengthAdjust="spacing" textLength="189" x="354.75" y="244.291">ShareBoardClientController</text><line style="stroke:#181818;stroke-width:0.5;" x1="252.5" x2="613.5" y1="255" y2="255"/><line style="stroke:#181818;stroke-width:0.5;" x1="252.5" x2="613.5" y1="263" y2="263"/><ellipse cx="262.5" cy="276.7441" fill="#84BE84" rx="3" ry="3" style="stroke:#038048;stroke-width:1.0;"/><text fill="#000000" font-family="sans-serif" font-size="14" lengthAdjust="spacing" textLength="204" x="271.5" y="280.5352">String: listSharedBoards(user)</text><ellipse cx="262.5" cy="293.2324" fill="#84BE84" rx="3" ry="3" style="stroke:#038048;stroke-width:1.0;"/><text fill="#000000" font-family="sans-serif" font-size="14" lengthAdjust="spacing" textLength="337" x="271.5" y="297.0234">String: findMySharedBoardInfo(sharedBoardTitle)</text></g><!--class TcpServerMessageHandler--><g id="elem_TcpServerMessageHandler"><rect codeLine="13" fill="#F1F1F1" height="80.9766" id="TcpServerMessageHandler" rx="2.5" ry="2.5" style="stroke:#181818;stroke-width:0.5;" width="368" x="249" y="364"/><ellipse cx="338.25" cy="380" fill="#ADD1B2" rx="11" ry="11" style="stroke:#181818;stroke-width:1.0;"/><path d="M341.2231,385.6431 Q340.6421,385.9419 340.0029,386.0913 Q339.3638,386.2407 338.6582,386.2407 Q336.1514,386.2407 334.8315,384.5889 Q333.5117,382.937 333.5117,379.8159 Q333.5117,376.6865 334.8315,375.0347 Q336.1514,373.3828 338.6582,373.3828 Q339.3638,373.3828 340.0112,373.5322 Q340.6587,373.6816 341.2231,373.9805 L341.2231,376.7031 Q340.5923,376.1221 339.9988,375.8523 Q339.4053,375.5825 338.7744,375.5825 Q337.4297,375.5825 336.7449,376.6492 Q336.0601,377.7158 336.0601,379.8159 Q336.0601,381.9077 336.7449,382.9744 Q337.4297,384.041 338.7744,384.041 Q339.4053,384.041 339.9988,383.7712 Q340.5923,383.5015 341.2231,382.9204 Z " fill="#000000"/><text fill="#000000" font-family="sans-serif" font-size="14" lengthAdjust="spacing" textLength="181" x="358.75" y="385.291">TcpServerMessageHandler</text><line style="stroke:#181818;stroke-width:0.5;" x1="250" x2="616" y1="396" y2="396"/><line style="stroke:#181818;stroke-width:0.5;" x1="250" x2="616" y1="404" y2="404"/><ellipse cx="260" cy="417.7441" fill="#84BE84" rx="3" ry="3" style="stroke:#038048;stroke-width:1.0;"/><text fill="#000000" font-family="sans-serif" font-size="14" lengthAdjust="spacing" textLength="342" x="269" y="421.5352">void: findSharedBoardsForUser(version, data, out)</text><ellipse cx="260" cy="434.2324" fill="#84BE84" rx="3" ry="3" style="stroke:#038048;stroke-width:1.0;"/><text fill="#000000" font-family="sans-serif" font-size="14" lengthAdjust="spacing" textLength="274" x="269" y="438.0234">void: mySharedBoard(version, data, out)</text></g><!--class UserRepository--><g id="elem_UserRepository"><rect codeLine="19" fill="#F1F1F1" height="73.1094" id="UserRepository" rx="2.5" ry="2.5" style="stroke:#181818;stroke-width:0.5;" width="208" x="7" y="513.5"/><ellipse cx="54.75" cy="533.8105" fill="#ADD1B2" rx="11" ry="11" style="stroke:#181818;stroke-width:1.0;"/><path d="M57.7231,539.4536 Q57.1421,539.7524 56.5029,539.9019 Q55.8638,540.0513 55.1582,540.0513 Q52.6514,540.0513 51.3315,538.3994 Q50.0117,536.7476 50.0117,533.6265 Q50.0117,530.4971 51.3315,528.8452 Q52.6514,527.1934 55.1582,527.1934 Q55.8638,527.1934 56.5112,527.3428 Q57.1587,527.4922 57.7231,527.791 L57.7231,530.5137 Q57.0923,529.9326 56.4988,529.6628 Q55.9053,529.3931 55.2744,529.3931 Q53.9297,529.3931 53.2449,530.4597 Q52.5601,531.5264 52.5601,533.6265 Q52.5601,535.7183 53.2449,536.7849 Q53.9297,537.8516 55.2744,537.8516 Q55.9053,537.8516 56.4988,537.5818 Q57.0923,537.312 57.7231,536.731 Z " fill="#000000"/><text fill="#000000" font-family="sans-serif" font-size="12" font-style="italic" lengthAdjust="spacing" textLength="73" x="90.75" y="530.1016">&#171;Repository&#187;</text><text fill="#000000" font-family="sans-serif" font-size="14" lengthAdjust="spacing" textLength="104" x="75.25" y="546.168">UserRepository</text><line style="stroke:#181818;stroke-width:0.5;" x1="8" x2="214" y1="554.1211" y2="554.1211"/><line style="stroke:#181818;stroke-width:0.5;" x1="8" x2="214" y1="562.1211" y2="562.1211"/><ellipse cx="18" cy="575.8652" fill="#84BE84" rx="3" ry="3" style="stroke:#038048;stroke-width:1.0;"/><text fill="#000000" font-family="sans-serif" font-size="14" lengthAdjust="spacing" textLength="182" x="27" y="579.6563">SystemUser: findById(user)</text></g><!--class SharedBoardRepository--><g id="elem_SharedBoardRepository"><rect codeLine="23" fill="#F1F1F1" height="89.5977" id="SharedBoardRepository" rx="2.5" ry="2.5" style="stroke:#181818;stroke-width:0.5;" width="365" x="250.5" y="505"/><ellipse cx="348.25" cy="525.3105" fill="#ADD1B2" rx="11" ry="11" style="stroke:#181818;stroke-width:1.0;"/><path d="M351.2231,530.9536 Q350.6421,531.2524 350.0029,531.4019 Q349.3638,531.5513 348.6582,531.5513 Q346.1514,531.5513 344.8315,529.8994 Q343.5117,528.2476 343.5117,525.1265 Q343.5117,521.9971 344.8315,520.3452 Q346.1514,518.6934 348.6582,518.6934 Q349.3638,518.6934 350.0112,518.8428 Q350.6587,518.9922 351.2231,519.291 L351.2231,522.0137 Q350.5923,521.4326 349.9988,521.1628 Q349.4053,520.8931 348.7744,520.8931 Q347.4297,520.8931 346.7449,521.9597 Q346.0601,523.0264 346.0601,525.1265 Q346.0601,527.2183 346.7449,528.2849 Q347.4297,529.3516 348.7744,529.3516 Q349.4053,529.3516 349.9988,529.0818 Q350.5923,528.812 351.2231,528.231 Z " fill="#000000"/><text fill="#000000" font-family="sans-serif" font-size="12" font-style="italic" lengthAdjust="spacing" textLength="73" x="412.75" y="521.6016">&#171;Repository&#187;</text><text fill="#000000" font-family="sans-serif" font-size="14" lengthAdjust="spacing" textLength="161" x="368.75" y="537.668">SharedBoardRepository</text><line style="stroke:#181818;stroke-width:0.5;" x1="251.5" x2="614.5" y1="545.6211" y2="545.6211"/><line style="stroke:#181818;stroke-width:0.5;" x1="251.5" x2="614.5" y1="553.6211" y2="553.6211"/><ellipse cx="261.5" cy="567.3652" fill="#84BE84" rx="3" ry="3" style="stroke:#038048;stroke-width:1.0;"/><text fill="#000000" font-family="sans-serif" font-size="14" lengthAdjust="spacing" textLength="339" x="270.5" y="571.1563">List&lt;SharedBoard&gt; findSharedBoardOfUser(user)</text><ellipse cx="261.5" cy="583.8535" fill="#84BE84" rx="3" ry="3" style="stroke:#038048;stroke-width:1.0;"/><text fill="#000000" font-family="sans-serif" font-size="14" lengthAdjust="spacing" textLength="312" x="270.5" y="587.6445">SharedBoard : findSharedBoard(sharedBoard)</text></g><!--class SharedBoardInvitationRepository--><g id="elem_SharedBoardInvitationRepository"><rect codeLine="28" fill="#F1F1F1" height="73.1094" id="SharedBoardInvitationRepository" rx="2.5" ry="2.5" style="stroke:#181818;stroke-width:0.5;" width="420" x="651" y="513.5"/><ellipse cx="744.25" cy="533.8105" fill="#ADD1B2" rx="11" ry="11" style="stroke:#181818;stroke-width:1.0;"/><path d="M747.2231,539.4536 Q746.6421,539.7524 746.0029,539.9019 Q745.3638,540.0513 744.6582,540.0513 Q742.1514,540.0513 740.8315,538.3994 Q739.5117,536.7476 739.5117,533.6265 Q739.5117,530.4971 740.8315,528.8452 Q742.1514,527.1934 744.6582,527.1934 Q745.3638,527.1934 746.0112,527.3428 Q746.6587,527.4922 747.2231,527.791 L747.2231,530.5137 Q746.5923,529.9326 745.9988,529.6628 Q745.4053,529.3931 744.7744,529.3931 Q743.4297,529.3931 742.7449,530.4597 Q742.0601,531.5264 742.0601,533.6265 Q742.0601,535.7183 742.7449,536.7849 Q743.4297,537.8516 744.7744,537.8516 Q745.4053,537.8516 745.9988,537.5818 Q746.5923,537.312 747.2231,536.731 Z " fill="#000000"/><text fill="#000000" font-family="sans-serif" font-size="12" font-style="italic" lengthAdjust="spacing" textLength="73" x="840.75" y="530.1016">&#171;Repository&#187;</text><text fill="#000000" font-family="sans-serif" font-size="14" lengthAdjust="spacing" textLength="225" x="764.75" y="546.168">SharedBoardInvitationRepository</text><line style="stroke:#181818;stroke-width:0.5;" x1="652" x2="1070" y1="554.1211" y2="554.1211"/><line style="stroke:#181818;stroke-width:0.5;" x1="652" x2="1070" y1="562.1211" y2="562.1211"/><ellipse cx="662" cy="575.8652" fill="#84BE84" rx="3" ry="3" style="stroke:#038048;stroke-width:1.0;"/><text fill="#000000" font-family="sans-serif" font-size="14" lengthAdjust="spacing" textLength="394" x="671" y="579.6563">List&lt;SharedBoard&gt; findSharedBoardsUserWasInvite(user)</text></g><!--link ShareBoardClient to BrowserThread--><g id="link_ShareBoardClient_BrowserThread"><path codeLine="32" d="M433,55.26 C433,71.14 433,92.28 433,109.22 " fill="none" id="ShareBoardClient-to-BrowserThread" style="stroke:#181818;stroke-width:1.0;stroke-dasharray:7.0,7.0;"/><polygon fill="#181818" points="433,113.79,437,104.79,433,108.79,429,104.79,433,113.79" style="stroke:#181818;stroke-width:1.0;"/></g><!--link BrowserThread to ShareBoardClientController--><g id="link_BrowserThread_ShareBoardClientController"><path codeLine="33" d="M433,163.33 C433,178.55 433,198.93 433,217.25 " fill="none" id="BrowserThread-to-ShareBoardClientController" style="stroke:#181818;stroke-width:1.0;stroke-dasharray:7.0,7.0;"/><polygon fill="#181818" points="433,221.87,437,212.87,433,216.87,429,212.87,433,221.87" style="stroke:#181818;stroke-width:1.0;"/></g><!--link ShareBoardClientController to TcpServerMessageHandler--><g id="link_ShareBoardClientController_TcpServerMessageHandler"><path codeLine="34" d="M433,304.33 C433,321.05 433,340.6 433,357.89 " fill="none" id="ShareBoardClientController-to-TcpServerMessageHandler" style="stroke:#181818;stroke-width:1.0;"/><polygon fill="#181818" points="433,362.66,437,353.66,433,357.66,429,353.66,433,362.66" style="stroke:#181818;stroke-width:1.0;"/></g><!--link TcpServerMessageHandler to UserRepository--><g id="link_TcpServerMessageHandler_UserRepository"><path codeLine="36" d="M343.31,445.47 C297.62,465.83 242.33,490.47 197.15,510.61 " fill="none" id="TcpServerMessageHandler-to-UserRepository" style="stroke:#181818;stroke-width:1.0;"/><polygon fill="#181818" points="192.69,513.04,202.5389,513.0457,197.2602,511.012,199.294,505.7333,192.69,513.04" style="stroke:#181818;stroke-width:1.0;"/></g><!--link TcpServerMessageHandler to SharedBoardRepository--><g id="link_TcpServerMessageHandler_SharedBoardRepository"><path codeLine="37" d="M433,445.47 C433,462.01 433,481.38 433,498.86 " fill="none" id="TcpServerMessageHandler-to-SharedBoardRepository" style="stroke:#181818;stroke-width:1.0;"/><polygon fill="#181818" points="433,503.7,437,494.7,433,498.7,429,494.7,433,503.7" style="stroke:#181818;stroke-width:1.0;"/></g><!--link TcpServerMessageHandler to SharedBoardInvitationRepository--><g id="link_TcpServerMessageHandler_SharedBoardInvitationRepository"><path codeLine="38" d="M552.22,445.47 C613.57,466.04 687.93,490.97 748.31,511.22 " fill="none" id="TcpServerMessageHandler-to-SharedBoardInvitationRepository" style="stroke:#181818;stroke-width:1.0;"/><polygon fill="#181818" points="752.74,513.04,745.4908,506.373,748.0023,511.4417,742.9336,513.9533,752.74,513.04" style="stroke:#181818;stroke-width:1.0;"/></g><!--SRC=[fLBBQiCm4BphAtIqQP8FACO71qeD3ONQfMTXhHE18uLTnSM4_dlbHx3isgLGtLOxEpCQRL498fwT149Y1CfzfK3R6_jYhEXQ2PfF0inF249wz_EHlT4MJLK1tXXtvo6pgFJnaLUAR0UM7Pg2gwCBfvXIQNbeF5IgInFGMEVALX2EwdbnoG1hm0CGYICy2osTD1-qQwDap-ehFnbyTzg16oDbz8PBOSM6cwiD_R6pRsGHx6mCFbg-DxWOKjPWmwDeBEBuxePd3LaujzZULDAaSeXXccUlkKfuvtjnaKRUG3n_wclPFTHBskVdFwBnerxsbEfQMM5T4lztHwsv3q4T9un1p5UAxtRnTF_Of7BjzIrawwtjDbxP7yPM6cva-jM_01T_yc_ufPJPDm00]--></g></svg>