<?xml version="1.0" encoding="us-ascii" standalone="no"?><svg xmlns="http://www.w3.org/2000/svg" xmlns:xlink="http://www.w3.org/1999/xlink" contentStyleType="text/css" height="1328px" preserveAspectRatio="none" style="width:1322px;height:1328px;background:#FFFFFF;" version="1.1" viewBox="0 0 1322 1328" width="1322px" zoomAndPan="magnify"><defs/><g><!--class ScheduleExtraordinaryClassUI--><g id="elem_ScheduleExtraordinaryClassUI"><rect codeLine="2" fill="#F1F1F1" height="157.4844" id="ScheduleExtraordinaryClassUI" rx="2.5" ry="2.5" style="stroke:#181818;stroke-width:0.5;" width="291" x="731.5" y="7"/><ellipse cx="777.75" cy="23" fill="#ADD1B2" rx="11" ry="11" style="stroke:#181818;stroke-width:1.0;"/><path d="M780.5156,18.875 Q780.6719,18.6563 780.8594,18.5469 Q781.0469,18.4375 781.2656,18.4375 Q781.6406,18.4375 781.875,18.7031 Q782.1094,18.9531 782.1094,19.5625 L782.1094,21.0156 Q782.1094,21.625 781.875,21.8906 Q781.6406,22.1563 781.2656,22.1563 Q780.9219,22.1563 780.7188,21.9531 Q780.5156,21.7656 780.4063,21.25 Q780.3594,20.8906 780.1719,20.7031 Q779.8438,20.3281 779.2344,20.1094 Q778.625,19.8906 778,19.8906 Q777.2344,19.8906 776.5938,20.2188 Q775.9688,20.5469 775.4688,21.2969 Q774.9844,22.0469 774.9844,23.0781 L774.9844,24.1719 Q774.9844,25.4063 775.875,26.2344 Q776.7656,27.0469 778.3594,27.0469 Q779.2969,27.0469 779.9531,26.7969 Q780.3438,26.6406 780.7656,26.2031 Q781.0313,25.9375 781.1719,25.8594 Q781.3281,25.7813 781.5313,25.7813 Q781.8594,25.7813 782.1094,26.0469 Q782.375,26.2969 782.375,26.6406 Q782.375,26.9844 782.0313,27.3906 Q781.5313,27.9688 780.7344,28.2969 Q779.6563,28.75 778.3594,28.75 Q776.8438,28.75 775.6406,28.125 Q774.6563,27.625 773.9688,26.5625 Q773.2813,25.4844 773.2813,24.2031 L773.2813,23.0469 Q773.2813,21.7188 773.8906,20.5781 Q774.5156,19.4219 775.6094,18.8125 Q776.7031,18.1875 777.9375,18.1875 Q778.6719,18.1875 779.3125,18.3594 Q779.9688,18.5156 780.5156,18.875 Z " fill="#000000"/><text fill="#000000" font-family="sans-serif" font-size="14" lengthAdjust="spacing" textLength="190" x="798.25" y="27.8535">ScheduleExtraordinaryClassUI</text><line style="stroke:#181818;stroke-width:0.5;" x1="732.5" x2="1021.5" y1="39" y2="39"/><text fill="#000000" font-family="sans-serif" font-size="14" lengthAdjust="spacing" textLength="163" x="737.5" y="55.6738">userWeekdayInput: String</text><line style="stroke:#181818;stroke-width:0.5;" x1="732.5" x2="1021.5" y1="62.6406" y2="62.6406"/><ellipse cx="742.5" cy="75.9609" fill="#84BE84" rx="3" ry="3" style="stroke:#038048;stroke-width:1.0;"/><text fill="#000000" font-family="sans-serif" font-size="14" lengthAdjust="spacing" textLength="204" x="751.5" y="79.3145">ScheduleExtraordinaryClassUI():</text><polygon fill="#FFFF44" points="742.5,86.6016,746.5,90.6016,742.5,94.6016,738.5,90.6016" style="stroke:#B38D22;stroke-width:1.0;"/><text fill="#000000" font-family="sans-serif" font-size="14" lengthAdjust="spacing" textLength="119" x="751.5" y="94.9551">doShow(): boolean</text><ellipse cx="742.5" cy="107.2422" fill="#84BE84" rx="3" ry="3" style="stroke:#038048;stroke-width:1.0;"/><text fill="#000000" font-family="sans-serif" font-size="14" lengthAdjust="spacing" textLength="109" x="751.5" y="110.5957">headline(): String</text><rect fill="#F24D5C" height="6" style="stroke:#C82930;stroke-width:1.0;" width="6" x="739.5" y="119.8828"/><text fill="#000000" font-family="sans-serif" font-size="14" lengthAdjust="spacing" textLength="180" x="751.5" y="126.2363">readTime(String): LocalTime</text><rect fill="#F24D5C" height="6" style="stroke:#C82930;stroke-width:1.0;" width="6" x="739.5" y="135.5234"/><text fill="#000000" font-family="sans-serif" font-size="14" lengthAdjust="spacing" textLength="265" x="751.5" y="141.877">chooseCourse(Iterable&lt;Course&gt;): Course</text><rect fill="#F24D5C" height="6" style="stroke:#C82930;stroke-width:1.0;" width="6" x="739.5" y="151.1641"/><text fill="#000000" font-family="sans-serif" font-size="14" lengthAdjust="spacing" textLength="254" x="751.5" y="157.5176">chooseStudent((List&lt;Student&gt;): Student</text></g><!--class CheckIfUserIsFreeService--><g id="elem_CheckIfUserIsFreeService"><rect codeLine="76" fill="#F1F1F1" height="133.25" id="CheckIfUserIsFreeService" rx="2.5" ry="2.5" style="stroke:#181818;stroke-width:0.5;" width="782" x="7" y="535"/><ellipse cx="312.25" cy="554.5234" fill="#ADD1B2" rx="11" ry="11" style="stroke:#181818;stroke-width:1.0;"/><path d="M315.0156,550.3984 Q315.1719,550.1797 315.3594,550.0703 Q315.5469,549.9609 315.7656,549.9609 Q316.1406,549.9609 316.375,550.2266 Q316.6094,550.4766 316.6094,551.0859 L316.6094,552.5391 Q316.6094,553.1484 316.375,553.4141 Q316.1406,553.6797 315.7656,553.6797 Q315.4219,553.6797 315.2188,553.4766 Q315.0156,553.2891 314.9063,552.7734 Q314.8594,552.4141 314.6719,552.2266 Q314.3438,551.8516 313.7344,551.6328 Q313.125,551.4141 312.5,551.4141 Q311.7344,551.4141 311.0938,551.7422 Q310.4688,552.0703 309.9688,552.8203 Q309.4844,553.5703 309.4844,554.6016 L309.4844,555.6953 Q309.4844,556.9297 310.375,557.7578 Q311.2656,558.5703 312.8594,558.5703 Q313.7969,558.5703 314.4531,558.3203 Q314.8438,558.1641 315.2656,557.7266 Q315.5313,557.4609 315.6719,557.3828 Q315.8281,557.3047 316.0313,557.3047 Q316.3594,557.3047 316.6094,557.5703 Q316.875,557.8203 316.875,558.1641 Q316.875,558.5078 316.5313,558.9141 Q316.0313,559.4922 315.2344,559.8203 Q314.1563,560.2734 312.8594,560.2734 Q311.3438,560.2734 310.1406,559.6484 Q309.1563,559.1484 308.4688,558.0859 Q307.7813,557.0078 307.7813,555.7266 L307.7813,554.5703 Q307.7813,553.2422 308.3906,552.1016 Q309.0156,550.9453 310.1094,550.3359 Q311.2031,549.7109 312.4375,549.7109 Q313.1719,549.7109 313.8125,549.8828 Q314.4688,550.0391 315.0156,550.3984 Z " fill="#000000"/><text fill="#000000" font-family="sans-serif" font-size="12" font-style="italic" lengthAdjust="spacing" textLength="55" x="386.75" y="550.8633">&#171;Service&#187;</text><text fill="#000000" font-family="sans-serif" font-size="14" lengthAdjust="spacing" textLength="163" x="332.75" y="566.0801">CheckIfUserIsFreeService</text><line style="stroke:#181818;stroke-width:0.5;" x1="8" x2="788" y1="574.0469" y2="574.0469"/><line style="stroke:#181818;stroke-width:0.5;" x1="8" x2="788" y1="582.0469" y2="582.0469"/><ellipse cx="18" cy="595.3672" fill="#84BE84" rx="3" ry="3" style="stroke:#038048;stroke-width:1.0;"/><text fill="#000000" font-family="sans-serif" font-size="14" lengthAdjust="spacing" textLength="250" x="27" y="598.7207">checkIfUserIsFree(user, date) : boolean</text><ellipse cx="18" cy="611.0078" fill="#84BE84" rx="3" ry="3" style="stroke:#038048;stroke-width:1.0;"/><text fill="#000000" font-family="sans-serif" font-size="14" lengthAdjust="spacing" textLength="177" x="27" y="614.3613">CheckIfUserIsFreeService():</text><rect fill="#F24D5C" height="6" style="stroke:#C82930;stroke-width:1.0;" width="6" x="15" y="623.6484"/><text fill="#000000" font-family="sans-serif" font-size="14" lengthAdjust="spacing" textLength="756" x="27" y="630.002">checkIfDatesCoincide(Date, LocalTime, LocalTime, List&lt;CourseClass&gt;, List&lt;Meeting&gt;, List&lt;MeetingInvitation&gt;): boolean</text><rect fill="#F24D5C" height="6" style="stroke:#C82930;stroke-width:1.0;" width="6" x="15" y="639.2891"/><text fill="#000000" font-family="sans-serif" font-size="14" lengthAdjust="spacing" textLength="444" x="27" y="645.6426">isTimeOverlap(LocalTime, LocalTime, LocalTime, LocalTime): boolean</text><ellipse cx="18" cy="657.9297" fill="#84BE84" rx="3" ry="3" style="stroke:#038048;stroke-width:1.0;"/><text fill="#000000" font-family="sans-serif" font-size="14" lengthAdjust="spacing" textLength="462" x="27" y="661.2832">checkIfUserIsNotFree(SystemUser, Date, LocalTime, LocalTime): boolean</text></g><!--class CourseClass--><g id="elem_CourseClass"><rect codeLine="18" fill="#F1F1F1" height="329.5313" id="CourseClass" rx="2.5" ry="2.5" style="stroke:#181818;stroke-width:0.5;" width="360" x="733" y="992"/><ellipse cx="868.25" cy="1008" fill="#ADD1B2" rx="11" ry="11" style="stroke:#181818;stroke-width:1.0;"/><path d="M871.0156,1003.875 Q871.1719,1003.6563 871.3594,1003.5469 Q871.5469,1003.4375 871.7656,1003.4375 Q872.1406,1003.4375 872.375,1003.7031 Q872.6094,1003.9531 872.6094,1004.5625 L872.6094,1006.0156 Q872.6094,1006.625 872.375,1006.8906 Q872.1406,1007.1563 871.7656,1007.1563 Q871.4219,1007.1563 871.2188,1006.9531 Q871.0156,1006.7656 870.9063,1006.25 Q870.8594,1005.8906 870.6719,1005.7031 Q870.3438,1005.3281 869.7344,1005.1094 Q869.125,1004.8906 868.5,1004.8906 Q867.7344,1004.8906 867.0938,1005.2188 Q866.4688,1005.5469 865.9688,1006.2969 Q865.4844,1007.0469 865.4844,1008.0781 L865.4844,1009.1719 Q865.4844,1010.4063 866.375,1011.2344 Q867.2656,1012.0469 868.8594,1012.0469 Q869.7969,1012.0469 870.4531,1011.7969 Q870.8438,1011.6406 871.2656,1011.2031 Q871.5313,1010.9375 871.6719,1010.8594 Q871.8281,1010.7813 872.0313,1010.7813 Q872.3594,1010.7813 872.6094,1011.0469 Q872.875,1011.2969 872.875,1011.6406 Q872.875,1011.9844 872.5313,1012.3906 Q872.0313,1012.9688 871.2344,1013.2969 Q870.1563,1013.75 868.8594,1013.75 Q867.3438,1013.75 866.1406,1013.125 Q865.1563,1012.625 864.4688,1011.5625 Q863.7813,1010.4844 863.7813,1009.2031 L863.7813,1008.0469 Q863.7813,1006.7188 864.3906,1005.5781 Q865.0156,1004.4219 866.1094,1003.8125 Q867.2031,1003.1875 868.4375,1003.1875 Q869.1719,1003.1875 869.8125,1003.3594 Q870.4688,1003.5156 871.0156,1003.875 Z " fill="#000000"/><text fill="#000000" font-family="sans-serif" font-size="14" lengthAdjust="spacing" textLength="81" x="888.75" y="1012.8535">CourseClass</text><line style="stroke:#181818;stroke-width:0.5;" x1="734" x2="1092" y1="1024" y2="1024"/><rect fill="none" height="6" style="stroke:#C82930;stroke-width:1.0;" width="6" x="741" y="1034.3203"/><text fill="#000000" font-family="sans-serif" font-size="14" lengthAdjust="spacing" textLength="104" x="753" y="1040.6738">classTitle: String</text><rect fill="none" height="6" style="stroke:#C82930;stroke-width:1.0;" width="6" x="741" y="1049.9609"/><text fill="#000000" font-family="sans-serif" font-size="14" lengthAdjust="spacing" textLength="97" x="753" y="1056.3145">course: Course</text><rect fill="none" height="6" style="stroke:#C82930;stroke-width:1.0;" width="6" x="741" y="1065.6016"/><text fill="#000000" font-family="sans-serif" font-size="14" lengthAdjust="spacing" textLength="162" x="753" y="1071.9551">dateOfCourseClass: Date</text><rect fill="none" height="6" style="stroke:#C82930;stroke-width:1.0;" width="6" x="741" y="1081.2422"/><text fill="#000000" font-family="sans-serif" font-size="14" lengthAdjust="spacing" textLength="128" x="753" y="1087.5957">endTime: LocalTime</text><rect fill="none" height="6" style="stroke:#C82930;stroke-width:1.0;" width="6" x="741" y="1096.8828"/><text fill="#000000" font-family="sans-serif" font-size="14" lengthAdjust="spacing" textLength="51" x="753" y="1103.2363">id: Long</text><rect fill="none" height="6" style="stroke:#C82930;stroke-width:1.0;" width="6" x="741" y="1112.5234"/><text fill="#000000" font-family="sans-serif" font-size="14" lengthAdjust="spacing" textLength="132" x="753" y="1118.877">startTime: LocalTime</text><rect fill="none" height="6" style="stroke:#C82930;stroke-width:1.0;" width="6" x="741" y="1128.1641"/><text fill="#000000" font-family="sans-serif" font-size="14" lengthAdjust="spacing" textLength="178" x="753" y="1134.5176">students: List&amp;lt;Student&amp;gt;</text><rect fill="none" height="6" style="stroke:#C82930;stroke-width:1.0;" width="6" x="741" y="1143.8047"/><text fill="#000000" font-family="sans-serif" font-size="14" lengthAdjust="spacing" textLength="109" x="753" y="1150.1582">teacher: Teacher</text><rect fill="none" height="6" style="stroke:#C82930;stroke-width:1.0;" width="6" x="741" y="1159.4453"/><text fill="#000000" font-family="sans-serif" font-size="14" lengthAdjust="spacing" textLength="86" x="753" y="1165.7988">version: Long</text><rect fill="none" height="6" style="stroke:#C82930;stroke-width:1.0;" width="6" x="741" y="1175.0859"/><text fill="#000000" font-family="sans-serif" font-size="14" lengthAdjust="spacing" textLength="102" x="753" y="1181.4395">weekDay: String</text><line style="stroke:#181818;stroke-width:0.5;" x1="734" x2="1092" y1="1188.4063" y2="1188.4063"/><ellipse cx="744" cy="1201.7266" fill="#84BE84" rx="3" ry="3" style="stroke:#038048;stroke-width:1.0;"/><text fill="#000000" font-family="sans-serif" font-size="14" lengthAdjust="spacing" textLength="114" x="753" y="1205.0801">classTitle(): String</text><rect fill="#F24D5C" height="6" style="stroke:#C82930;stroke-width:1.0;" width="6" x="741" y="1214.3672"/><text fill="#000000" font-family="sans-serif" font-size="14" lengthAdjust="spacing" textLength="334" x="753" y="1220.7207">getDurationInMinutes(startTime: LocalTime, endTime</text><ellipse cx="744" cy="1233.0078" fill="#84BE84" rx="3" ry="3" style="stroke:#038048;stroke-width:1.0;"/><text fill="#000000" font-family="sans-serif" font-size="14" lengthAdjust="spacing" textLength="95" x="753" y="1236.3613">identity(): Long</text><rect fill="#F24D5C" height="6" style="stroke:#C82930;stroke-width:1.0;" width="6" x="741" y="1245.6484"/><text fill="#000000" font-family="sans-serif" font-size="14" lengthAdjust="spacing" textLength="283" x="753" y="1252.002">isDateAfterCurrentDate(date: Date): boolean</text><ellipse cx="744" cy="1264.2891" fill="#84BE84" rx="3" ry="3" style="stroke:#038048;stroke-width:1.0;"/><text fill="#000000" font-family="sans-serif" font-size="14" lengthAdjust="spacing" textLength="269" x="753" y="1267.6426">isValidWeekday(weekday: String): boolean</text><ellipse cx="744" cy="1279.9297" fill="#84BE84" rx="3" ry="3" style="stroke:#038048;stroke-width:1.0;"/><text fill="#000000" font-family="sans-serif" font-size="14" lengthAdjust="spacing" textLength="201" x="753" y="1283.2832">sameAs(other: Object): boolean</text><rect fill="#F24D5C" height="6" style="stroke:#C82930;stroke-width:1.0;" width="6" x="741" y="1292.5703"/><text fill="#000000" font-family="sans-serif" font-size="14" lengthAdjust="spacing" textLength="319" x="753" y="1298.9238">validateClassTime(startTime: LocalTime, endTime:</text><rect fill="#F24D5C" height="6" style="stroke:#C82930;stroke-width:1.0;" width="6" x="741" y="1308.2109"/><text fill="#000000" font-family="sans-serif" font-size="14" lengthAdjust="spacing" textLength="212" x="753" y="1314.5645">validateTitle(title: String): boolean</text></g><!--class ScheduleExtraordinaryClassController--><g id="elem_ScheduleExtraordinaryClassController"><rect codeLine="41" fill="#F1F1F1" height="251.3281" id="ScheduleExtraordinaryClassController" rx="2.5" ry="2.5" style="stroke:#181818;stroke-width:0.5;" width="667" x="543.5" y="224"/><ellipse cx="752.75" cy="240" fill="#ADD1B2" rx="11" ry="11" style="stroke:#181818;stroke-width:1.0;"/><path d="M755.5156,235.875 Q755.6719,235.6563 755.8594,235.5469 Q756.0469,235.4375 756.2656,235.4375 Q756.6406,235.4375 756.875,235.7031 Q757.1094,235.9531 757.1094,236.5625 L757.1094,238.0156 Q757.1094,238.625 756.875,238.8906 Q756.6406,239.1563 756.2656,239.1563 Q755.9219,239.1563 755.7188,238.9531 Q755.5156,238.7656 755.4063,238.25 Q755.3594,237.8906 755.1719,237.7031 Q754.8438,237.3281 754.2344,237.1094 Q753.625,236.8906 753,236.8906 Q752.2344,236.8906 751.5938,237.2188 Q750.9688,237.5469 750.4688,238.2969 Q749.9844,239.0469 749.9844,240.0781 L749.9844,241.1719 Q749.9844,242.4063 750.875,243.2344 Q751.7656,244.0469 753.3594,244.0469 Q754.2969,244.0469 754.9531,243.7969 Q755.3438,243.6406 755.7656,243.2031 Q756.0313,242.9375 756.1719,242.8594 Q756.3281,242.7813 756.5313,242.7813 Q756.8594,242.7813 757.1094,243.0469 Q757.375,243.2969 757.375,243.6406 Q757.375,243.9844 757.0313,244.3906 Q756.5313,244.9688 755.7344,245.2969 Q754.6563,245.75 753.3594,245.75 Q751.8438,245.75 750.6406,245.125 Q749.6563,244.625 748.9688,243.5625 Q748.2813,242.4844 748.2813,241.2031 L748.2813,240.0469 Q748.2813,238.7188 748.8906,237.5781 Q749.5156,236.4219 750.6094,235.8125 Q751.7031,235.1875 752.9375,235.1875 Q753.6719,235.1875 754.3125,235.3594 Q754.9688,235.5156 755.5156,235.875 Z " fill="#000000"/><text fill="#000000" font-family="sans-serif" font-size="14" lengthAdjust="spacing" textLength="240" x="773.25" y="244.8535">ScheduleExtraordinaryClassController</text><line style="stroke:#181818;stroke-width:0.5;" x1="544.5" x2="1209.5" y1="256" y2="256"/><text fill="#000000" font-family="sans-serif" font-size="14" lengthAdjust="spacing" textLength="109" x="549.5" y="272.6738">teacher: Teacher</text><line style="stroke:#181818;stroke-width:0.5;" x1="544.5" x2="1209.5" y1="279.6406" y2="279.6406"/><ellipse cx="554.5" cy="292.9609" fill="#84BE84" rx="3" ry="3" style="stroke:#038048;stroke-width:1.0;"/><text fill="#000000" font-family="sans-serif" font-size="14" lengthAdjust="spacing" textLength="254" x="563.5" y="296.3145">ScheduleExtraordinaryClassController():</text><ellipse cx="554.5" cy="308.6016" fill="#84BE84" rx="3" ry="3" style="stroke:#038048;stroke-width:1.0;"/><text fill="#000000" font-family="sans-serif" font-size="14" lengthAdjust="spacing" textLength="197" x="563.5" y="311.9551">listCourses(): Iterable&lt;Course&gt;</text><ellipse cx="554.5" cy="324.2422" fill="#84BE84" rx="3" ry="3" style="stroke:#038048;stroke-width:1.0;"/><text fill="#000000" font-family="sans-serif" font-size="14" lengthAdjust="spacing" textLength="200" x="563.5" y="327.5957">checkAndGetDate(String): Date</text><ellipse cx="554.5" cy="339.8828" fill="#84BE84" rx="3" ry="3" style="stroke:#038048;stroke-width:1.0;"/><text fill="#000000" font-family="sans-serif" font-size="14" lengthAdjust="spacing" textLength="641" x="563.5" y="343.2363">createCourseClass(Teacher, String, Date, String, LocalTime, LocalTime, Course, List&lt;Student&gt;): void</text><ellipse cx="554.5" cy="355.5234" fill="#84BE84" rx="3" ry="3" style="stroke:#038048;stroke-width:1.0;"/><text fill="#000000" font-family="sans-serif" font-size="14" lengthAdjust="spacing" textLength="191" x="563.5" y="358.877">getScheduleOfTeacher(): void</text><ellipse cx="554.5" cy="371.1641" fill="#84BE84" rx="3" ry="3" style="stroke:#038048;stroke-width:1.0;"/><text fill="#000000" font-family="sans-serif" font-size="14" lengthAdjust="spacing" textLength="286" x="563.5" y="374.5176">listStudentsByCourse(Course): List&lt;Student&gt;</text><ellipse cx="554.5" cy="386.8047" fill="#84BE84" rx="3" ry="3" style="stroke:#038048;stroke-width:1.0;"/><text fill="#000000" font-family="sans-serif" font-size="14" lengthAdjust="spacing" textLength="321" x="563.5" y="390.1582">isTimeRangeValid(LocalTime, LocalTime): boolean</text><ellipse cx="554.5" cy="402.4453" fill="#84BE84" rx="3" ry="3" style="stroke:#038048;stroke-width:1.0;"/><text fill="#000000" font-family="sans-serif" font-size="14" lengthAdjust="spacing" textLength="529" x="563.5" y="405.7988">checkCourseClass(List&lt;SystemUser&gt;, String, Date, LocalTime, LocalTime): boolean</text><rect fill="#F24D5C" height="6" style="stroke:#C82930;stroke-width:1.0;" width="6" x="551.5" y="415.0859"/><text fill="#000000" font-family="sans-serif" font-size="14" lengthAdjust="spacing" textLength="330" x="563.5" y="421.4395">appendScheduleEntries(StringBuilder, List&lt;?&gt;): void</text><ellipse cx="554.5" cy="433.7266" fill="#84BE84" rx="3" ry="3" style="stroke:#038048;stroke-width:1.0;"/><text fill="#000000" font-family="sans-serif" font-size="14" lengthAdjust="spacing" textLength="227" x="563.5" y="437.0801">getWeekdayFromDate(Date): String</text><ellipse cx="554.5" cy="449.3672" fill="#84BE84" rx="3" ry="3" style="stroke:#038048;stroke-width:1.0;"/><text fill="#000000" font-family="sans-serif" font-size="14" lengthAdjust="spacing" textLength="174" x="563.5" y="452.7207">isTitleValid(String): boolean</text><rect fill="#F24D5C" height="6" style="stroke:#C82930;stroke-width:1.0;" width="6" x="551.5" y="462.0078"/><text fill="#000000" font-family="sans-serif" font-size="14" lengthAdjust="spacing" textLength="228" x="563.5" y="468.3613">formatScheduleEntry(Object): String</text></g><!--class CourseClassBuilder--><g id="elem_CourseClassBuilder"><rect codeLine="61" fill="#F1F1F1" height="204.4063" id="CourseClassBuilder" rx="2.5" ry="2.5" style="stroke:#181818;stroke-width:0.5;" width="349" x="966.5" y="728"/><ellipse cx="1074.25" cy="744" fill="#ADD1B2" rx="11" ry="11" style="stroke:#181818;stroke-width:1.0;"/><path d="M1077.0156,739.875 Q1077.1719,739.6563 1077.3594,739.5469 Q1077.5469,739.4375 1077.7656,739.4375 Q1078.1406,739.4375 1078.375,739.7031 Q1078.6094,739.9531 1078.6094,740.5625 L1078.6094,742.0156 Q1078.6094,742.625 1078.375,742.8906 Q1078.1406,743.1563 1077.7656,743.1563 Q1077.4219,743.1563 1077.2188,742.9531 Q1077.0156,742.7656 1076.9063,742.25 Q1076.8594,741.8906 1076.6719,741.7031 Q1076.3438,741.3281 1075.7344,741.1094 Q1075.125,740.8906 1074.5,740.8906 Q1073.7344,740.8906 1073.0938,741.2188 Q1072.4688,741.5469 1071.9688,742.2969 Q1071.4844,743.0469 1071.4844,744.0781 L1071.4844,745.1719 Q1071.4844,746.4063 1072.375,747.2344 Q1073.2656,748.0469 1074.8594,748.0469 Q1075.7969,748.0469 1076.4531,747.7969 Q1076.8438,747.6406 1077.2656,747.2031 Q1077.5313,746.9375 1077.6719,746.8594 Q1077.8281,746.7813 1078.0313,746.7813 Q1078.3594,746.7813 1078.6094,747.0469 Q1078.875,747.2969 1078.875,747.6406 Q1078.875,747.9844 1078.5313,748.3906 Q1078.0313,748.9688 1077.2344,749.2969 Q1076.1563,749.75 1074.8594,749.75 Q1073.3438,749.75 1072.1406,749.125 Q1071.1563,748.625 1070.4688,747.5625 Q1069.7813,746.4844 1069.7813,745.2031 L1069.7813,744.0469 Q1069.7813,742.7188 1070.3906,741.5781 Q1071.0156,740.4219 1072.1094,739.8125 Q1073.2031,739.1875 1074.4375,739.1875 Q1075.1719,739.1875 1075.8125,739.3594 Q1076.4688,739.5156 1077.0156,739.875 Z " fill="#000000"/><text fill="#000000" font-family="sans-serif" font-size="14" lengthAdjust="spacing" textLength="125" x="1094.75" y="748.8535">CourseClassBuilder</text><line style="stroke:#181818;stroke-width:0.5;" x1="967.5" x2="1314.5" y1="760" y2="760"/><line style="stroke:#181818;stroke-width:0.5;" x1="967.5" x2="1314.5" y1="768" y2="768"/><ellipse cx="977.5" cy="781.3203" fill="#84BE84" rx="3" ry="3" style="stroke:#038048;stroke-width:1.0;"/><text fill="#000000" font-family="sans-serif" font-size="14" lengthAdjust="spacing" textLength="139" x="986.5" y="784.6738">CourseClassBuilder():</text><ellipse cx="977.5" cy="796.9609" fill="#84BE84" rx="3" ry="3" style="stroke:#038048;stroke-width:1.0;"/><text fill="#000000" font-family="sans-serif" font-size="14" lengthAdjust="spacing" textLength="323" x="986.5" y="800.3145">withDateOfCourseClass(Date): CourseClassBuilder</text><ellipse cx="977.5" cy="812.6016" fill="#84BE84" rx="3" ry="3" style="stroke:#038048;stroke-width:1.0;"/><text fill="#000000" font-family="sans-serif" font-size="14" lengthAdjust="spacing" textLength="259" x="986.5" y="815.9551">withCourse(Course): CourseClassBuilder</text><ellipse cx="977.5" cy="828.2422" fill="#84BE84" rx="3" ry="3" style="stroke:#038048;stroke-width:1.0;"/><text fill="#000000" font-family="sans-serif" font-size="14" lengthAdjust="spacing" textLength="273" x="986.5" y="831.5957">withTeacher(Teacher): CourseClassBuilder</text><ellipse cx="977.5" cy="843.8828" fill="#84BE84" rx="3" ry="3" style="stroke:#038048;stroke-width:1.0;"/><text fill="#000000" font-family="sans-serif" font-size="14" lengthAdjust="spacing" textLength="129" x="986.5" y="847.2363">build(): CourseClass</text><ellipse cx="977.5" cy="859.5234" fill="#84BE84" rx="3" ry="3" style="stroke:#038048;stroke-width:1.0;"/><text fill="#000000" font-family="sans-serif" font-size="14" lengthAdjust="spacing" textLength="310" x="986.5" y="862.877">withStudents(List&lt;Student&gt;): CourseClassBuilder</text><ellipse cx="977.5" cy="875.1641" fill="#84BE84" rx="3" ry="3" style="stroke:#038048;stroke-width:1.0;"/><text fill="#000000" font-family="sans-serif" font-size="14" lengthAdjust="spacing" textLength="272" x="986.5" y="878.5176">withWeekDays(String): CourseClassBuilder</text><ellipse cx="977.5" cy="890.8047" fill="#84BE84" rx="3" ry="3" style="stroke:#038048;stroke-width:1.0;"/><text fill="#000000" font-family="sans-serif" font-size="14" lengthAdjust="spacing" textLength="266" x="986.5" y="894.1582">withClassTitle(String): CourseClassBuilder</text><ellipse cx="977.5" cy="906.4453" fill="#84BE84" rx="3" ry="3" style="stroke:#038048;stroke-width:1.0;"/><text fill="#000000" font-family="sans-serif" font-size="14" lengthAdjust="spacing" textLength="293" x="986.5" y="909.7988">withStartTime(LocalTime): CourseClassBuilder</text><ellipse cx="977.5" cy="922.0859" fill="#84BE84" rx="3" ry="3" style="stroke:#038048;stroke-width:1.0;"/><text fill="#000000" font-family="sans-serif" font-size="14" lengthAdjust="spacing" textLength="288" x="986.5" y="925.4395">withEndTime(LocalTime): CourseClassBuilder</text></g><!--class CourseClassRepository--><g id="elem_CourseClassRepository"><rect codeLine="86" fill="#F1F1F1" height="164.5313" id="CourseClassRepository" rx="2.5" ry="2.5" style="stroke:#181818;stroke-width:0.5;" width="469" x="390.5" y="747.5"/><ellipse cx="546.25" cy="767.0234" fill="#B4A7E5" rx="11" ry="11" style="stroke:#181818;stroke-width:1.0;"/><path d="M547.2031,763.6641 L547.2031,770.3203 L548.9219,770.3203 Q549.5313,770.3203 549.7969,770.5547 Q550.0625,770.7891 550.0625,771.1797 Q550.0625,771.5547 549.7969,771.7891 Q549.5313,772.0234 548.9219,772.0234 L543.7813,772.0234 Q543.1719,772.0234 542.9063,771.7891 Q542.6406,771.5547 542.6406,771.1641 Q542.6406,770.7891 542.9063,770.5547 Q543.1719,770.3203 543.7813,770.3203 L545.5,770.3203 L545.5,763.6641 L543.7813,763.6641 Q543.1719,763.6641 542.9063,763.4297 Q542.6406,763.1953 542.6406,762.8047 Q542.6406,762.4297 542.9063,762.1953 Q543.1719,761.9609 543.7813,761.9609 L548.9219,761.9609 Q549.5313,761.9609 549.7969,762.1953 Q550.0625,762.4297 550.0625,762.8047 Q550.0625,763.1953 549.7969,763.4297 Q549.5313,763.6641 548.9219,763.6641 L547.2031,763.6641 Z " fill="#000000"/><text fill="#000000" font-family="sans-serif" font-size="12" font-style="italic" lengthAdjust="spacing" textLength="61" x="610.75" y="763.3633">&#171;interface&#187;</text><text fill="#000000" font-family="sans-serif" font-size="14" font-style="italic" lengthAdjust="spacing" textLength="149" x="566.75" y="778.5801">CourseClassRepository</text><line style="stroke:#181818;stroke-width:0.5;" x1="391.5" x2="858.5" y1="786.5469" y2="786.5469"/><line style="stroke:#181818;stroke-width:0.5;" x1="391.5" x2="858.5" y1="794.5469" y2="794.5469"/><ellipse cx="401.5" cy="807.8672" fill="#84BE84" rx="3" ry="3" style="stroke:#038048;stroke-width:1.0;"/><text fill="#000000" font-family="sans-serif" font-size="14" lengthAdjust="spacing" textLength="348" x="410.5" y="811.2207">findClassesOfStudent(Student): Iterable&lt;CourseClass&gt;</text><ellipse cx="401.5" cy="823.5078" fill="#84BE84" rx="3" ry="3" style="stroke:#038048;stroke-width:1.0;"/><text fill="#000000" font-family="sans-serif" font-size="14" lengthAdjust="spacing" textLength="392" x="410.5" y="826.8613">findClassOfTitleAndDate(String, Date): Iterable&lt;CourseClass&gt;</text><ellipse cx="401.5" cy="839.1484" fill="#84BE84" rx="3" ry="3" style="stroke:#038048;stroke-width:1.0;"/><text fill="#000000" font-family="sans-serif" font-size="14" lengthAdjust="spacing" textLength="443" x="410.5" y="842.502">findClassesOfTeacherOnDate(Teacher, Date): Iterable&lt;CourseClass&gt;</text><ellipse cx="401.5" cy="854.7891" fill="#84BE84" rx="3" ry="3" style="stroke:#038048;stroke-width:1.0;"/><text fill="#000000" font-family="sans-serif" font-size="14" lengthAdjust="spacing" textLength="435" x="410.5" y="858.1426">findClassesOfStudentOnDate(Student, Date): Iterable&lt;CourseClass&gt;</text><ellipse cx="401.5" cy="870.4297" fill="#84BE84" rx="3" ry="3" style="stroke:#038048;stroke-width:1.0;"/><text fill="#000000" font-family="sans-serif" font-size="14" lengthAdjust="spacing" textLength="296" x="410.5" y="873.7832">findAllCourseClasses(): Iterable&lt;CourseClass&gt;</text><ellipse cx="401.5" cy="886.0703" fill="#84BE84" rx="3" ry="3" style="stroke:#038048;stroke-width:1.0;"/><text fill="#000000" font-family="sans-serif" font-size="14" lengthAdjust="spacing" textLength="283" x="410.5" y="889.4238">findCourseClassByTitle(String): CourseClass</text><ellipse cx="401.5" cy="901.7109" fill="#84BE84" rx="3" ry="3" style="stroke:#038048;stroke-width:1.0;"/><text fill="#000000" font-family="sans-serif" font-size="14" lengthAdjust="spacing" textLength="356" x="410.5" y="905.0645">findClassesOfTeacher(Teacher): Iterable&lt;CourseClass&gt;</text></g><!--link ScheduleExtraordinaryClassUI to ScheduleExtraordinaryClassController--><g id="link_ScheduleExtraordinaryClassUI_ScheduleExtraordinaryClassController"><path codeLine="101" d="M877,164.05 C877,181.29 877,200.02 877,218.72 " fill="none" id="ScheduleExtraordinaryClassUI-to-ScheduleExtraordinaryClassController" style="stroke:#181818;stroke-width:1.0;stroke-dasharray:7.0,7.0;"/><polygon fill="#181818" points="877,223.99,881,214.99,877,218.99,873,214.99,877,223.99" style="stroke:#181818;stroke-width:1.0;"/></g><!--link ScheduleExtraordinaryClassController to CourseClassBuilder--><g id="link_ScheduleExtraordinaryClassController_CourseClassBuilder"><path codeLine="102" d="M945.85,475.28 C988.3,552.24 1042.16,649.86 1082.54,723.04 " fill="none" id="ScheduleExtraordinaryClassController-to-CourseClassBuilder" style="stroke:#181818;stroke-width:1.0;stroke-dasharray:7.0,7.0;"/><polygon fill="#181818" points="1085.18,727.83,1084.3439,718.0167,1082.7688,723.4498,1077.3356,721.8747,1085.18,727.83" style="stroke:#181818;stroke-width:1.0;"/></g><!--link ScheduleExtraordinaryClassController to CourseClass--><g id="link_ScheduleExtraordinaryClassController_CourseClass"><path codeLine="103" d="M882.57,475.03 C888.7,612.18 898.59,833.5 905.42,986.41 " fill="none" id="ScheduleExtraordinaryClassController-to-CourseClass" style="stroke:#181818;stroke-width:1.0;stroke-dasharray:7.0,7.0;"/><polygon fill="#181818" points="905.66,991.83,909.2448,982.6567,905.4317,986.8352,901.2532,983.0221,905.66,991.83" style="stroke:#181818;stroke-width:1.0;"/></g><!--link ScheduleExtraordinaryClassController to CourseClassRepository--><g id="link_ScheduleExtraordinaryClassController_CourseClassRepository"><path codeLine="104" d="M867.22,475.04 C858.05,536.48 840.3,609.71 806,668 C789.6,695.87 766.72,721.52 742.74,743.77 " fill="none" id="ScheduleExtraordinaryClassController-to-CourseClassRepository" style="stroke:#181818;stroke-width:1.0;stroke-dasharray:7.0,7.0;"/><polygon fill="#181818" points="738.88,747.31,748.214,744.1673,742.5622,743.9275,742.802,738.2757,738.88,747.31" style="stroke:#181818;stroke-width:1.0;"/></g><!--link ScheduleExtraordinaryClassController to CheckIfUserIsFreeService--><g id="link_ScheduleExtraordinaryClassController_CheckIfUserIsFreeService"><path codeLine="105" d="M638.2,475.13 C600.3,494.92 562.37,514.71 528.22,532.53 " fill="none" id="ScheduleExtraordinaryClassController-to-CheckIfUserIsFreeService" style="stroke:#181818;stroke-width:1.0;stroke-dasharray:7.0,7.0;"/><polygon fill="#181818" points="523.64,534.92,533.4691,534.2967,528.0714,532.6042,529.7639,527.2065,523.64,534.92" style="stroke:#181818;stroke-width:1.0;"/></g><!--link CheckIfUserIsFreeService to CourseClassRepository--><g id="link_CheckIfUserIsFreeService_CourseClassRepository"><path codeLine="106" d="M463.66,668.01 C487.25,691.55 514.21,718.45 539.25,743.44 " fill="none" id="CheckIfUserIsFreeService-to-CourseClassRepository" style="stroke:#181818;stroke-width:1.0;stroke-dasharray:7.0,7.0;"/><polygon fill="#181818" points="542.93,747.11,539.3945,737.9176,539.3945,743.5745,533.7376,743.5745,542.93,747.11" style="stroke:#181818;stroke-width:1.0;"/></g><!--link CourseClassRepository to CourseClass--><g id="link_CourseClassRepository_CourseClass"><path codeLine="107" d="M697.3,912.59 C717.79,935.71 740.88,961.76 764.13,988.01 " fill="none" id="CourseClassRepository-to-CourseClass" style="stroke:#181818;stroke-width:1.0;stroke-dasharray:7.0,7.0;"/><polygon fill="#181818" points="767.56,991.88,764.5882,982.4902,764.2453,988.1367,758.5988,987.7938,767.56,991.88" style="stroke:#181818;stroke-width:1.0;"/></g><!--link CourseClassBuilder to CourseClass--><g id="link_CourseClassBuilder_CourseClass"><path codeLine="108" d="M1070.11,932.05 C1057.71,949.72 1044.52,968.53 1031.25,987.44 " fill="none" id="CourseClassBuilder-to-CourseClass" style="stroke:#181818;stroke-width:1.0;stroke-dasharray:7.0,7.0;"/><polygon fill="#181818" points="1028.24,991.74,1036.6876,986.6766,1031.115,987.6492,1030.1424,982.0766,1028.24,991.74" style="stroke:#181818;stroke-width:1.0;"/></g><!--SRC=[dLRRJkCm47tFLrXQ2HdHyW45TLKAh2h1LgBiycoIAVMIsfNjb8rM_FkEBqdSD2c5fzZZyHdFyPbnqfnfJHRf2h8YXvk_HZ6fCYwOAgTswTUC_4i8EJleGaz7wFEDP7Anacyu8yzIvi24sxa2bkLSWBKlZEBY1Sr3ej3yoDT0lGqNxsJAScjow-bAIWrJMIWDT6P0iUSSBlryZDv-5BakJ961C9JUSMqkmspiWheXkf92Wte2UCrOEHERmjGdUa-Ir54nNK7wEbl-GiUPlbK02r1RdWAvl0oZyTXHObDBsyxK1XYGZ1au9GqDIOJlZks8GvGXmZZx8pSvDFmuk_Di4hKs2pnVHXWZSeqclmZ24Rf3fBNpp9egM6sOCfr-slE4c9R1aznS1EPENio5Tp70C6Sr8ez-uArRK9fB4KTvGvAlMLbdT1Qb6GbXI5x0N1UA6Tm_4_TS50OqxJhZeCeFiRWz5JSbFGqnXuHhIyHaYKAP5ahXkfrJIvZdA58b0kZVBETPa09zyz_gM3kkcgrXegaqBk_vynz8JUGm95kBX06cFa5KzC7ZZw8jdWuJttq4RKKJLDDVVLCfZ99v3kh3GcrSVS6UaHplsOj9MohRLPRK6f-8x0TuHkjZUk5P3onb0v4eQL378EGqSBxDB28b6dg00McNxrRopCL1gLJ9pPSX18qTR3fXexugG-lmdzFHBgxpv-ww7fXu0IS7sdMmLZTpTCIvUjXI6rZRFZ1k9_qXvf2mpGR5KLyStXB72_4mLmNFCqkbY_EzJKXGyAsIQtSxGUbrd_L9ehvyWdiQi-6NKgsPYSENjDPvZRHV-rQUIKTV2qSEUjnVgDJtnitgkjtGgWpsjzLxsXTxmBLIIVZsEp_RCTrThr4gJUszB0SYF_a6g1lA3sNKzCPZt1TLVw6neWvikF6jvoFtz-Ww-vx1SAazo_vgXzN3QEyIsmuNANPisbyFGTtHaSR1T0zWa8_MT2QstBWtOzpIiY_fERv8ETlGdbX7LdcLtqzftDlU5FcHjUqBX0jigqk6t4NvFS16QcwaAl77WZGkuUVYZ2ovo9mdwFco-hK9t_rMxJdRtOWzqYeAMtVKjmVLMtW4W8qS2cSk74RTrpy74euTGCBiI919daVspdUg7JOITjbVLBsvHisYEr3eUyd1l-Rpy_5HJt5orDDkqJeAzYjxlxIfaUidjlVqYAItj_G7xQwSTcOTRr3R9Kd-0m00]--></g></svg>