<?xml version="1.0" encoding="us-ascii" standalone="no"?><svg xmlns="http://www.w3.org/2000/svg" xmlns:xlink="http://www.w3.org/1999/xlink" contentStyleType="text/css" height="2237px" preserveAspectRatio="none" style="width:1967px;height:2237px;background:#FFFFFF;" version="1.1" viewBox="0 0 1967 2237" width="1967px" zoomAndPan="magnify"><defs/><g><rect fill="#FFFFFF" height="2011.6348" style="stroke:#181818;stroke-width:1.0;" width="10" x="213.5" y="134.2031"/><rect fill="#FFFFFF" height="1891.7617" style="stroke:#181818;stroke-width:1.0;" width="10" x="574.5" y="254.0762"/><rect fill="#FFFFFF" height="686.9844" style="stroke:#181818;stroke-width:1.0;" width="10" x="928.5" y="690.2383"/><rect fill="#FFFFFF" height="406.6563" style="stroke:#181818;stroke-width:1.0;" width="10" x="928.5" y="1513.7266"/><rect fill="#FFFFFF" height="374.2012" style="stroke:#181818;stroke-width:1.0;" width="10" x="1129.5" y="810.6934"/><rect fill="#FFFFFF" height="254.9102" style="stroke:#181818;stroke-width:1.0;" width="10" x="1129.5" y="1634.1816"/><rect fill="#FFFFFF" height="31.291" style="stroke:#181818;stroke-width:1.0;" width="10" x="1462.5" y="841.9844"/><rect fill="#FFFFFF" height="31.291" style="stroke:#181818;stroke-width:1.0;" width="10" x="1639" y="904.5664"/><rect fill="#FFFFFF" height="31.291" style="stroke:#181818;stroke-width:1.0;" width="10" x="1843" y="967.1484"/><rect fill="#FFFFFF" height="31.291" style="stroke:#181818;stroke-width:1.0;" width="10" x="1843" y="1665.4727"/><rect fill="none" height="1717.5977" style="stroke:#000000;stroke-width:1.5;" width="1467" x="494" y="313.3672"/><rect fill="none" height="1551.4336" style="stroke:#000000;stroke-width:1.5;" width="1447" x="504" y="472.5313"/><rect fill="none" height="1474.5215" style="stroke:#000000;stroke-width:1.5;" width="1427" x="514" y="542.4434"/><rect fill="none" height="96.873" style="stroke:#000000;stroke-width:1.5;" width="361" x="1021.5" y="1057.7305"/><rect fill="none" height="63.582" style="stroke:#000000;stroke-width:1.5;" width="341" x="1031.5" y="1084.0215"/><line style="stroke:#181818;stroke-width:0.5;stroke-dasharray:5.0,5.0;" x1="22" x2="22" y1="83.6211" y2="2154.8379"/><line style="stroke:#181818;stroke-width:0.5;stroke-dasharray:5.0,5.0;" x1="218.5" x2="218.5" y1="83.6211" y2="2154.8379"/><line style="stroke:#181818;stroke-width:0.5;stroke-dasharray:5.0,5.0;" x1="579" x2="579" y1="83.6211" y2="2154.8379"/><line style="stroke:#181818;stroke-width:0.5;stroke-dasharray:5.0,5.0;" x1="933.5" x2="933.5" y1="523.6328" y2="2154.8379"/><line style="stroke:#181818;stroke-width:0.5;stroke-dasharray:5.0,5.0;" x1="1134.5" x2="1134.5" y1="83.6211" y2="2154.8379"/><line style="stroke:#181818;stroke-width:0.5;stroke-dasharray:5.0,5.0;" x1="1467" x2="1467" y1="83.6211" y2="2154.8379"/><line style="stroke:#181818;stroke-width:0.5;stroke-dasharray:5.0,5.0;" x1="1644" x2="1644" y1="83.6211" y2="2154.8379"/><line style="stroke:#181818;stroke-width:0.5;stroke-dasharray:5.0,5.0;" x1="1848" x2="1848" y1="83.6211" y2="2154.8379"/><text fill="#000000" font-family="sans-serif" font-size="14" lengthAdjust="spacing" textLength="29" x="5" y="80.1074">User</text><ellipse cx="22.5" cy="13.5" fill="#E2E2F0" rx="8" ry="8" style="stroke:#181818;stroke-width:0.5;"/><path d="M22.5,21.5 L22.5,48.5 M9.5,29.5 L35.5,29.5 M22.5,48.5 L9.5,63.5 M22.5,48.5 L35.5,63.5 " fill="none" style="stroke:#181818;stroke-width:0.5;"/><text fill="#000000" font-family="sans-serif" font-size="14" lengthAdjust="spacing" textLength="29" x="5" y="2168.9453">User</text><ellipse cx="22.5" cy="2180.959" fill="#E2E2F0" rx="8" ry="8" style="stroke:#181818;stroke-width:0.5;"/><path d="M22.5,2188.959 L22.5,2215.959 M9.5,2196.959 L35.5,2196.959 M22.5,2215.959 L9.5,2230.959 M22.5,2215.959 L35.5,2230.959 " fill="none" style="stroke:#181818;stroke-width:0.5;"/><rect fill="#E2E2F0" height="32.6211" rx="2.5" ry="2.5" style="stroke:#181818;stroke-width:0.5;" width="134" x="151.5" y="50"/><text fill="#000000" font-family="sans-serif" font-size="14" lengthAdjust="spacing" textLength="120" x="158.5" y="72.1074">SharedBoardClient</text><rect fill="#E2E2F0" height="32.6211" rx="2.5" ry="2.5" style="stroke:#181818;stroke-width:0.5;" width="134" x="151.5" y="2153.8379"/><text fill="#000000" font-family="sans-serif" font-size="14" lengthAdjust="spacing" textLength="120" x="158.5" y="2175.9453">SharedBoardClient</text><rect fill="#E2E2F0" height="32.6211" rx="2.5" ry="2.5" style="stroke:#181818;stroke-width:0.5;" width="111" x="524" y="50"/><text fill="#000000" font-family="sans-serif" font-size="14" lengthAdjust="spacing" textLength="97" x="531" y="72.1074">BrowserThread</text><rect fill="#E2E2F0" height="32.6211" rx="2.5" ry="2.5" style="stroke:#181818;stroke-width:0.5;" width="111" x="524" y="2153.8379"/><text fill="#000000" font-family="sans-serif" font-size="14" lengthAdjust="spacing" textLength="97" x="531" y="2175.9453">BrowserThread</text><rect fill="#E2E2F0" height="32.6211" rx="2.5" ry="2.5" style="stroke:#181818;stroke-width:0.5;" width="196" x="835.5" y="2153.8379"/><text fill="#000000" font-family="sans-serif" font-size="14" lengthAdjust="spacing" textLength="182" x="842.5" y="2175.9453">SharedBoardClientController</text><rect fill="#E2E2F0" height="32.6211" rx="2.5" ry="2.5" style="stroke:#181818;stroke-width:0.5;" width="186" x="1041.5" y="50"/><text fill="#000000" font-family="sans-serif" font-size="14" lengthAdjust="spacing" textLength="172" x="1048.5" y="72.1074">TcpServerMessageHandler</text><rect fill="#E2E2F0" height="32.6211" rx="2.5" ry="2.5" style="stroke:#181818;stroke-width:0.5;" width="186" x="1041.5" y="2153.8379"/><text fill="#000000" font-family="sans-serif" font-size="14" lengthAdjust="spacing" textLength="172" x="1048.5" y="2175.9453">TcpServerMessageHandler</text><rect fill="#E2E2F0" height="32.6211" rx="2.5" ry="2.5" style="stroke:#181818;stroke-width:0.5;" width="111" x="1412" y="50"/><text fill="#000000" font-family="sans-serif" font-size="14" lengthAdjust="spacing" textLength="97" x="1419" y="72.1074">UserRepository</text><rect fill="#E2E2F0" height="32.6211" rx="2.5" ry="2.5" style="stroke:#181818;stroke-width:0.5;" width="111" x="1412" y="2153.8379"/><text fill="#000000" font-family="sans-serif" font-size="14" lengthAdjust="spacing" textLength="97" x="1419" y="2175.9453">UserRepository</text><rect fill="#E2E2F0" height="32.6211" rx="2.5" ry="2.5" style="stroke:#181818;stroke-width:0.5;" width="222" x="1533" y="50"/><text fill="#000000" font-family="sans-serif" font-size="14" lengthAdjust="spacing" textLength="208" x="1540" y="72.1074">SharedBoardInvitationRepository</text><rect fill="#E2E2F0" height="32.6211" rx="2.5" ry="2.5" style="stroke:#181818;stroke-width:0.5;" width="222" x="1533" y="2153.8379"/><text fill="#000000" font-family="sans-serif" font-size="14" lengthAdjust="spacing" textLength="208" x="1540" y="2175.9453">SharedBoardInvitationRepository</text><rect fill="#E2E2F0" height="32.6211" rx="2.5" ry="2.5" style="stroke:#181818;stroke-width:0.5;" width="166" x="1765" y="50"/><text fill="#000000" font-family="sans-serif" font-size="14" lengthAdjust="spacing" textLength="152" x="1772" y="72.1074">SharedBoardRepository</text><rect fill="#E2E2F0" height="32.6211" rx="2.5" ry="2.5" style="stroke:#181818;stroke-width:0.5;" width="166" x="1765" y="2153.8379"/><text fill="#000000" font-family="sans-serif" font-size="14" lengthAdjust="spacing" textLength="152" x="1772" y="2175.9453">SharedBoardRepository</text><rect fill="#FFFFFF" height="2011.6348" style="stroke:#181818;stroke-width:1.0;" width="10" x="213.5" y="134.2031"/><rect fill="#FFFFFF" height="1891.7617" style="stroke:#181818;stroke-width:1.0;" width="10" x="574.5" y="254.0762"/><rect fill="#FFFFFF" height="686.9844" style="stroke:#181818;stroke-width:1.0;" width="10" x="928.5" y="690.2383"/><rect fill="#FFFFFF" height="406.6563" style="stroke:#181818;stroke-width:1.0;" width="10" x="928.5" y="1513.7266"/><rect fill="#FFFFFF" height="374.2012" style="stroke:#181818;stroke-width:1.0;" width="10" x="1129.5" y="810.6934"/><rect fill="#FFFFFF" height="254.9102" style="stroke:#181818;stroke-width:1.0;" width="10" x="1129.5" y="1634.1816"/><rect fill="#FFFFFF" height="31.291" style="stroke:#181818;stroke-width:1.0;" width="10" x="1462.5" y="841.9844"/><rect fill="#FFFFFF" height="31.291" style="stroke:#181818;stroke-width:1.0;" width="10" x="1639" y="904.5664"/><rect fill="#FFFFFF" height="31.291" style="stroke:#181818;stroke-width:1.0;" width="10" x="1843" y="967.1484"/><rect fill="#FFFFFF" height="31.291" style="stroke:#181818;stroke-width:1.0;" width="10" x="1843" y="1665.4727"/><polygon fill="#181818" points="201.5,130.2031,211.5,134.2031,201.5,138.2031,205.5,134.2031" style="stroke:#181818;stroke-width:1.0;"/><line style="stroke:#181818;stroke-width:1.0;" x1="22.5" x2="207.5" y1="134.2031" y2="134.2031"/><text fill="#000000" font-family="sans-serif" font-size="13" lengthAdjust="spacing" textLength="149" x="29.5" y="111.6494">wants to view, in real time</text><text fill="#000000" font-family="sans-serif" font-size="13" lengthAdjust="spacing" textLength="172" x="29.5" y="128.9404">the updates in a shared board</text><line style="stroke:#181818;stroke-width:1.0;" x1="223.5" x2="265.5" y1="165.4941" y2="165.4941"/><line style="stroke:#181818;stroke-width:1.0;" x1="265.5" x2="265.5" y1="165.4941" y2="178.4941"/><line style="stroke:#181818;stroke-width:1.0;" x1="224.5" x2="265.5" y1="178.4941" y2="178.4941"/><polygon fill="#181818" points="234.5,174.4941,224.5,178.4941,234.5,182.4941,230.5,178.4941" style="stroke:#181818;stroke-width:1.0;"/><text fill="#000000" font-family="sans-serif" font-size="13" lengthAdjust="spacing" textLength="337" x="230.5" y="160.2314">sOut = new DataOutputStream(socket.getOutputStream())</text><line style="stroke:#181818;stroke-width:1.0;" x1="223.5" x2="265.5" y1="209.7852" y2="209.7852"/><line style="stroke:#181818;stroke-width:1.0;" x1="265.5" x2="265.5" y1="209.7852" y2="222.7852"/><line style="stroke:#181818;stroke-width:1.0;" x1="224.5" x2="265.5" y1="222.7852" y2="222.7852"/><polygon fill="#181818" points="234.5,218.7852,224.5,222.7852,234.5,226.7852,230.5,222.7852" style="stroke:#181818;stroke-width:1.0;"/><text fill="#000000" font-family="sans-serif" font-size="13" lengthAdjust="spacing" textLength="304" x="230.5" y="204.5225">sIn = new DataInputStream(socket.getInputStream())</text><polygon fill="#181818" points="562.5,250.0762,572.5,254.0762,562.5,258.0762,566.5,254.0762" style="stroke:#181818;stroke-width:1.0;"/><line style="stroke:#181818;stroke-width:1.0;" x1="223.5" x2="568.5" y1="254.0762" y2="254.0762"/><text fill="#000000" font-family="sans-serif" font-size="13" lengthAdjust="spacing" textLength="225" x="230.5" y="248.8135">new Thread(new BrowserThread.start())</text><line style="stroke:#181818;stroke-width:1.0;" x1="584.5" x2="626.5" y1="285.3672" y2="285.3672"/><line style="stroke:#181818;stroke-width:1.0;" x1="626.5" x2="626.5" y1="285.3672" y2="298.3672"/><line style="stroke:#181818;stroke-width:1.0;" x1="585.5" x2="626.5" y1="298.3672" y2="298.3672"/><polygon fill="#181818" points="595.5,294.3672,585.5,298.3672,595.5,302.3672,591.5,298.3672" style="stroke:#181818;stroke-width:1.0;"/><text fill="#000000" font-family="sans-serif" font-size="13" lengthAdjust="spacing" textLength="216" x="591.5" y="280.1045">serverHTTP = new ServerSocket(port)</text><path d="M494,313.3672 L567,313.3672 L567,322.6582 L557,332.6582 L494,332.6582 L494,313.3672 " fill="#EEEEEE" style="stroke:#000000;stroke-width:1.5;"/><rect fill="none" height="1717.5977" style="stroke:#000000;stroke-width:1.5;" width="1467" x="494" y="313.3672"/><text fill="#000000" font-family="sans-serif" font-size="13" font-weight="bold" lengthAdjust="spacing" textLength="28" x="509" y="328.3955">loop</text><line style="stroke:#181818;stroke-width:1.0;" x1="584.5" x2="626.5" y1="355.9492" y2="355.9492"/><line style="stroke:#181818;stroke-width:1.0;" x1="626.5" x2="626.5" y1="355.9492" y2="368.9492"/><line style="stroke:#181818;stroke-width:1.0;" x1="585.5" x2="626.5" y1="368.9492" y2="368.9492"/><polygon fill="#181818" points="595.5,364.9492,585.5,368.9492,595.5,372.9492,591.5,368.9492" style="stroke:#181818;stroke-width:1.0;"/><text fill="#000000" font-family="sans-serif" font-size="13" lengthAdjust="spacing" textLength="217" x="591.5" y="350.6865">Socket socket = serverHTTP.accept()</text><line style="stroke:#181818;stroke-width:1.0;" x1="584.5" x2="626.5" y1="400.2402" y2="400.2402"/><line style="stroke:#181818;stroke-width:1.0;" x1="626.5" x2="626.5" y1="400.2402" y2="413.2402"/><line style="stroke:#181818;stroke-width:1.0;" x1="585.5" x2="626.5" y1="413.2402" y2="413.2402"/><polygon fill="#181818" points="595.5,409.2402,585.5,413.2402,595.5,417.2402,591.5,413.2402" style="stroke:#181818;stroke-width:1.0;"/><text fill="#000000" font-family="sans-serif" font-size="13" lengthAdjust="spacing" textLength="287" x="591.5" y="394.9775">HTTPMessage request = new HTTPMessage(inS)</text><line style="stroke:#181818;stroke-width:1.0;" x1="584.5" x2="626.5" y1="444.5313" y2="444.5313"/><line style="stroke:#181818;stroke-width:1.0;" x1="626.5" x2="626.5" y1="444.5313" y2="457.5313"/><line style="stroke:#181818;stroke-width:1.0;" x1="585.5" x2="626.5" y1="457.5313" y2="457.5313"/><polygon fill="#181818" points="595.5,453.5313,585.5,457.5313,595.5,461.5313,591.5,457.5313" style="stroke:#181818;stroke-width:1.0;"/><text fill="#000000" font-family="sans-serif" font-size="13" lengthAdjust="spacing" textLength="278" x="591.5" y="439.2686">HTTPMessage response = new HTTPMessage()</text><path d="M504,472.5313 L565,472.5313 L565,481.8223 L555,491.8223 L504,491.8223 L504,472.5313 " fill="#EEEEEE" style="stroke:#000000;stroke-width:1.5;"/><rect fill="none" height="1551.4336" style="stroke:#000000;stroke-width:1.5;" width="1447" x="504" y="472.5313"/><text fill="#000000" font-family="sans-serif" font-size="13" font-weight="bold" lengthAdjust="spacing" textLength="16" x="519" y="487.5596">alt</text><text fill="#000000" font-family="sans-serif" font-size="11" font-weight="bold" lengthAdjust="spacing" textLength="172" x="580" y="486.4014">[if request.getMethod() == GET]</text><polygon fill="#181818" points="823.5,511.1133,833.5,515.1133,823.5,519.1133,827.5,515.1133" style="stroke:#181818;stroke-width:1.0;"/><line style="stroke:#181818;stroke-width:1.0;" x1="584.5" x2="829.5" y1="515.1133" y2="515.1133"/><text fill="#000000" font-family="sans-serif" font-size="13" lengthAdjust="spacing" textLength="44" x="591.5" y="509.8506">create()</text><rect fill="#E2E2F0" height="32.6211" rx="2.5" ry="2.5" style="stroke:#181818;stroke-width:0.5;" width="196" x="835.5" y="491.8223"/><text fill="#000000" font-family="sans-serif" font-size="14" lengthAdjust="spacing" textLength="182" x="842.5" y="513.9297">SharedBoardClientController</text><path d="M514,542.4434 L575,542.4434 L575,551.7344 L565,561.7344 L514,561.7344 L514,542.4434 " fill="#EEEEEE" style="stroke:#000000;stroke-width:1.5;"/><rect fill="none" height="1474.5215" style="stroke:#000000;stroke-width:1.5;" width="1427" x="514" y="542.4434"/><text fill="#000000" font-family="sans-serif" font-size="13" font-weight="bold" lengthAdjust="spacing" textLength="16" x="529" y="557.4717">alt</text><text fill="#000000" font-family="sans-serif" font-size="11" font-weight="bold" lengthAdjust="spacing" textLength="219" x="590" y="556.3135">[if SharedBoardClient.username == null]</text><line style="stroke:#181818;stroke-width:1.0;" x1="584.5" x2="626.5" y1="585.0254" y2="585.0254"/><line style="stroke:#181818;stroke-width:1.0;" x1="626.5" x2="626.5" y1="585.0254" y2="598.0254"/><line style="stroke:#181818;stroke-width:1.0;" x1="585.5" x2="626.5" y1="598.0254" y2="598.0254"/><polygon fill="#181818" points="595.5,594.0254,585.5,598.0254,595.5,602.0254,591.5,598.0254" style="stroke:#181818;stroke-width:1.0;"/><text fill="#000000" font-family="sans-serif" font-size="13" lengthAdjust="spacing" textLength="248" x="591.5" y="579.7627">response.setContentFromString(login.html)</text><line style="stroke:#181818;stroke-width:1.0;" x1="584.5" x2="626.5" y1="629.3164" y2="629.3164"/><line style="stroke:#181818;stroke-width:1.0;" x1="626.5" x2="626.5" y1="629.3164" y2="642.3164"/><line style="stroke:#181818;stroke-width:1.0;" x1="585.5" x2="626.5" y1="642.3164" y2="642.3164"/><polygon fill="#181818" points="595.5,638.3164,585.5,642.3164,595.5,646.3164,591.5,642.3164" style="stroke:#181818;stroke-width:1.0;"/><text fill="#000000" font-family="sans-serif" font-size="13" lengthAdjust="spacing" textLength="330" x="591.5" y="624.0537">response.setResponseStatus("405 Method Not Allowed")</text><line style="stroke:#000000;stroke-width:1.0;stroke-dasharray:2.0,2.0;" x1="514" x2="1941" y1="651.3164" y2="651.3164"/><text fill="#000000" font-family="sans-serif" font-size="11" font-weight="bold" lengthAdjust="spacing" textLength="259" x="519" y="663.1865">[if request.getURI.startsWith("/sharedBoards")]</text><polygon fill="#181818" points="916.5,686.2383,926.5,690.2383,916.5,694.2383,920.5,690.2383" style="stroke:#181818;stroke-width:1.0;"/><line style="stroke:#181818;stroke-width:1.0;" x1="584.5" x2="922.5" y1="690.2383" y2="690.2383"/><text fill="#000000" font-family="sans-serif" font-size="13" lengthAdjust="spacing" textLength="132" x="591.5" y="684.9756">listSharedBoards(user)</text><path d="M943,703.2383 L943,782.2383 L1139,782.2383 L1139,713.2383 L1129,703.2383 L943,703.2383 " fill="#FEFFDD" style="stroke:#181818;stroke-width:0.5;"/><path d="M1129,703.2383 L1129,713.2383 L1139,713.2383 L1129,703.2383 " fill="#FEFFDD" style="stroke:#181818;stroke-width:0.5;"/><text fill="#000000" font-family="sans-serif" font-size="13" lengthAdjust="spacing" textLength="153" x="949" y="722.2666">request is created with the</text><text fill="#000000" font-family="sans-serif" font-size="13" lengthAdjust="spacing" textLength="171" x="949" y="739.5576">class RequestMessage using</text><text fill="#000000" font-family="sans-serif" font-size="13" lengthAdjust="spacing" textLength="139" x="949" y="756.8486">code ALL_BOARDS(20)</text><text fill="#000000" font-family="sans-serif" font-size="13" lengthAdjust="spacing" textLength="137" x="953" y="774.1396">pass by parameter user</text><polygon fill="#181818" points="1117.5,806.6934,1127.5,810.6934,1117.5,814.6934,1121.5,810.6934" style="stroke:#181818;stroke-width:1.0;"/><line style="stroke:#181818;stroke-width:1.0;" x1="938.5" x2="1123.5" y1="810.6934" y2="810.6934"/><text fill="#000000" font-family="sans-serif" font-size="13" lengthAdjust="spacing" textLength="79" x="945.5" y="805.4307">send(request)</text><polygon fill="#181818" points="1450.5,837.9844,1460.5,841.9844,1450.5,845.9844,1454.5,841.9844" style="stroke:#181818;stroke-width:1.0;"/><line style="stroke:#181818;stroke-width:1.0;" x1="1139.5" x2="1456.5" y1="841.9844" y2="841.9844"/><text fill="#000000" font-family="sans-serif" font-size="13" lengthAdjust="spacing" textLength="152" x="1146.5" y="836.7217">user = findById(username)</text><polygon fill="#181818" points="1150.5,869.2754,1140.5,873.2754,1150.5,877.2754,1146.5,873.2754" style="stroke:#181818;stroke-width:1.0;"/><line style="stroke:#181818;stroke-width:1.0;stroke-dasharray:2.0,2.0;" x1="1144.5" x2="1466.5" y1="873.2754" y2="873.2754"/><text fill="#000000" font-family="sans-serif" font-size="13" lengthAdjust="spacing" textLength="116" x="1156.5" y="868.0127">returns SystemUser</text><polygon fill="#181818" points="1627,900.5664,1637,904.5664,1627,908.5664,1631,904.5664" style="stroke:#181818;stroke-width:1.0;"/><line style="stroke:#181818;stroke-width:1.0;" x1="1139.5" x2="1633" y1="904.5664" y2="904.5664"/><text fill="#000000" font-family="sans-serif" font-size="13" lengthAdjust="spacing" textLength="364" x="1146.5" y="899.3037">sharedBoardListInvited = findSharedBoardsUserWasInvite(user)</text><polygon fill="#181818" points="1150.5,931.8574,1140.5,935.8574,1150.5,939.8574,1146.5,935.8574" style="stroke:#181818;stroke-width:1.0;"/><line style="stroke:#181818;stroke-width:1.0;stroke-dasharray:2.0,2.0;" x1="1144.5" x2="1643" y1="935.8574" y2="935.8574"/><text fill="#000000" font-family="sans-serif" font-size="13" lengthAdjust="spacing" textLength="206" x="1156.5" y="930.5947">returns List&lt;SharedBoardInvitation&gt;</text><polygon fill="#181818" points="1831,963.1484,1841,967.1484,1831,971.1484,1835,967.1484" style="stroke:#181818;stroke-width:1.0;"/><line style="stroke:#181818;stroke-width:1.0;" x1="1139.5" x2="1837" y1="967.1484" y2="967.1484"/><text fill="#000000" font-family="sans-serif" font-size="13" lengthAdjust="spacing" textLength="315" x="1146.5" y="961.8857">availableSharedBoards = findSharedBoardOfUser(user)</text><polygon fill="#181818" points="1150.5,994.4395,1140.5,998.4395,1150.5,1002.4395,1146.5,998.4395" style="stroke:#181818;stroke-width:1.0;"/><line style="stroke:#181818;stroke-width:1.0;stroke-dasharray:2.0,2.0;" x1="1144.5" x2="1847" y1="998.4395" y2="998.4395"/><text fill="#000000" font-family="sans-serif" font-size="13" lengthAdjust="spacing" textLength="156" x="1156.5" y="993.1768">returns List&lt;SharedBoard&gt;</text><line style="stroke:#181818;stroke-width:1.0;stroke-dasharray:2.0,2.0;" x1="1139.5" x2="1181.5" y1="1029.7305" y2="1029.7305"/><line style="stroke:#181818;stroke-width:1.0;stroke-dasharray:2.0,2.0;" x1="1181.5" x2="1181.5" y1="1029.7305" y2="1042.7305"/><line style="stroke:#181818;stroke-width:1.0;stroke-dasharray:2.0,2.0;" x1="1140.5" x2="1181.5" y1="1042.7305" y2="1042.7305"/><polygon fill="#181818" points="1150.5,1038.7305,1140.5,1042.7305,1150.5,1046.7305,1146.5,1042.7305" style="stroke:#181818;stroke-width:1.0;"/><text fill="#000000" font-family="sans-serif" font-size="13" lengthAdjust="spacing" textLength="309" x="1146.5" y="1024.4678">availableSharedBoards.addAll(sharedBoardListInvited)</text><path d="M1021.5,1057.7305 L1082.5,1057.7305 L1082.5,1067.0215 L1072.5,1077.0215 L1021.5,1077.0215 L1021.5,1057.7305 " fill="#EEEEEE" style="stroke:#000000;stroke-width:1.5;"/><rect fill="none" height="96.873" style="stroke:#000000;stroke-width:1.5;" width="361" x="1021.5" y="1057.7305"/><text fill="#000000" font-family="sans-serif" font-size="13" font-weight="bold" lengthAdjust="spacing" textLength="16" x="1036.5" y="1072.7588">alt</text><text fill="#000000" font-family="sans-serif" font-size="11" font-weight="bold" lengthAdjust="spacing" textLength="198" x="1097.5" y="1071.6006">[if(!availableSharedBoards.isEmpty)]</text><path d="M1031.5,1084.0215 L1092.5,1084.0215 L1092.5,1093.3125 L1082.5,1103.3125 L1031.5,1103.3125 L1031.5,1084.0215 " fill="#EEEEEE" style="stroke:#000000;stroke-width:1.5;"/><rect fill="none" height="63.582" style="stroke:#000000;stroke-width:1.5;" width="341" x="1031.5" y="1084.0215"/><text fill="#000000" font-family="sans-serif" font-size="13" font-weight="bold" lengthAdjust="spacing" textLength="16" x="1046.5" y="1099.0498">alt</text><text fill="#000000" font-family="sans-serif" font-size="11" font-weight="bold" lengthAdjust="spacing" textLength="260" x="1107.5" y="1097.8916">[for (SharedBoard list : availableSharedBoards)]</text><line style="stroke:#181818;stroke-width:1.0;" x1="1139.5" x2="1181.5" y1="1126.6035" y2="1126.6035"/><line style="stroke:#181818;stroke-width:1.0;" x1="1181.5" x2="1181.5" y1="1126.6035" y2="1139.6035"/><line style="stroke:#181818;stroke-width:1.0;" x1="1140.5" x2="1181.5" y1="1139.6035" y2="1139.6035"/><polygon fill="#181818" points="1150.5,1135.6035,1140.5,1139.6035,1150.5,1143.6035,1146.5,1139.6035" style="stroke:#181818;stroke-width:1.0;"/><text fill="#000000" font-family="sans-serif" font-size="13" lengthAdjust="spacing" textLength="154" x="1146.5" y="1121.3408">sharedBoards += list.title()</text><polygon fill="#181818" points="949.5,1180.8945,939.5,1184.8945,949.5,1188.8945,945.5,1184.8945" style="stroke:#181818;stroke-width:1.0;"/><line style="stroke:#181818;stroke-width:1.0;stroke-dasharray:2.0,2.0;" x1="943.5" x2="1133.5" y1="1184.8945" y2="1184.8945"/><text fill="#000000" font-family="sans-serif" font-size="13" lengthAdjust="spacing" textLength="89" x="955.5" y="1179.6318">send(response)</text><path d="M943,1197.8945 L943,1293.8945 L1156,1293.8945 L1156,1207.8945 L1146,1197.8945 L943,1197.8945 " fill="#FEFFDD" style="stroke:#181818;stroke-width:0.5;"/><path d="M1146,1197.8945 L1146,1207.8945 L1156,1207.8945 L1146,1197.8945 " fill="#FEFFDD" style="stroke:#181818;stroke-width:0.5;"/><text fill="#000000" font-family="sans-serif" font-size="13" lengthAdjust="spacing" textLength="163" x="949" y="1216.9229">response is created with the</text><text fill="#000000" font-family="sans-serif" font-size="13" lengthAdjust="spacing" textLength="171" x="949" y="1234.2139">class RequestMessage using</text><text fill="#000000" font-family="sans-serif" font-size="13" lengthAdjust="spacing" textLength="188" x="949" y="1251.5049">code SEND_MESSAGE(6) pass</text><text fill="#000000" font-family="sans-serif" font-size="13" lengthAdjust="spacing" textLength="114" x="949" y="1268.7959">by parameter String</text><text fill="#000000" font-family="sans-serif" font-size="13" lengthAdjust="spacing" textLength="131" x="949" y="1286.0869">availableSharedBoards</text><path d="M589,1304.3496 L589,1348.3496 L855,1348.3496 L855,1314.3496 L845,1304.3496 L589,1304.3496 " fill="#FEFFDD" style="stroke:#181818;stroke-width:0.5;"/><path d="M845,1304.3496 L845,1314.3496 L855,1314.3496 L845,1304.3496 " fill="#FEFFDD" style="stroke:#181818;stroke-width:0.5;"/><text fill="#000000" font-family="sans-serif" font-size="13" lengthAdjust="spacing" textLength="241" x="595" y="1323.3779">when we receive the list of shared boards,</text><text fill="#000000" font-family="sans-serif" font-size="13" lengthAdjust="spacing" textLength="178" x="595" y="1340.6689">we transform it in an html page</text><polygon fill="#181818" points="595.5,1373.2227,585.5,1377.2227,595.5,1381.2227,591.5,1377.2227" style="stroke:#181818;stroke-width:1.0;"/><line style="stroke:#181818;stroke-width:1.0;" x1="589.5" x2="932.5" y1="1377.2227" y2="1377.2227"/><text fill="#000000" font-family="sans-serif" font-size="13" lengthAdjust="spacing" textLength="105" x="601.5" y="1371.96">returns html string</text><line style="stroke:#181818;stroke-width:1.0;" x1="584.5" x2="626.5" y1="1408.5137" y2="1408.5137"/><line style="stroke:#181818;stroke-width:1.0;" x1="626.5" x2="626.5" y1="1408.5137" y2="1421.5137"/><line style="stroke:#181818;stroke-width:1.0;" x1="585.5" x2="626.5" y1="1421.5137" y2="1421.5137"/><polygon fill="#181818" points="595.5,1417.5137,585.5,1421.5137,595.5,1425.5137,591.5,1421.5137" style="stroke:#181818;stroke-width:1.0;"/><text fill="#000000" font-family="sans-serif" font-size="13" lengthAdjust="spacing" textLength="286" x="591.5" y="1403.251">response.setContentFromString(html, "text/html)"</text><line style="stroke:#181818;stroke-width:1.0;" x1="584.5" x2="626.5" y1="1452.8047" y2="1452.8047"/><line style="stroke:#181818;stroke-width:1.0;" x1="626.5" x2="626.5" y1="1452.8047" y2="1465.8047"/><line style="stroke:#181818;stroke-width:1.0;" x1="585.5" x2="626.5" y1="1465.8047" y2="1465.8047"/><polygon fill="#181818" points="595.5,1461.8047,585.5,1465.8047,595.5,1469.8047,591.5,1465.8047" style="stroke:#181818;stroke-width:1.0;"/><text fill="#000000" font-family="sans-serif" font-size="13" lengthAdjust="spacing" textLength="231" x="591.5" y="1447.542">response.setResponseStatus("200 Ok")</text><line style="stroke:#000000;stroke-width:1.0;stroke-dasharray:2.0,2.0;" x1="514" x2="1941" y1="1474.8047" y2="1474.8047"/><text fill="#000000" font-family="sans-serif" font-size="11" font-weight="bold" lengthAdjust="spacing" textLength="255" x="519" y="1486.6748">[if request.getURI.startsWith("/sharedBoard/")]</text><polygon fill="#181818" points="916.5,1509.7266,926.5,1513.7266,916.5,1517.7266,920.5,1513.7266" style="stroke:#181818;stroke-width:1.0;"/><line style="stroke:#181818;stroke-width:1.0;" x1="584.5" x2="922.5" y1="1513.7266" y2="1513.7266"/><text fill="#000000" font-family="sans-serif" font-size="13" lengthAdjust="spacing" textLength="238" x="591.5" y="1508.4639">findMySharedBoardInfo(sharedBoardTitle)</text><path d="M943,1526.7266 L943,1605.7266 L1174,1605.7266 L1174,1536.7266 L1164,1526.7266 L943,1526.7266 " fill="#FEFFDD" style="stroke:#181818;stroke-width:0.5;"/><path d="M1164,1526.7266 L1164,1536.7266 L1174,1536.7266 L1164,1526.7266 " fill="#FEFFDD" style="stroke:#181818;stroke-width:0.5;"/><text fill="#000000" font-family="sans-serif" font-size="13" lengthAdjust="spacing" textLength="153" x="949" y="1545.7549">request is created with the</text><text fill="#000000" font-family="sans-serif" font-size="13" lengthAdjust="spacing" textLength="171" x="949" y="1563.0459">class RequestMessage using</text><text fill="#000000" font-family="sans-serif" font-size="13" lengthAdjust="spacing" textLength="210" x="949" y="1580.3369">code FIND_MYSHAREDBOARD(19)</text><text fill="#000000" font-family="sans-serif" font-size="13" lengthAdjust="spacing" textLength="185" x="953" y="1597.6279">pass by parameter sharedBoard</text><polygon fill="#181818" points="1117.5,1630.1816,1127.5,1634.1816,1117.5,1638.1816,1121.5,1634.1816" style="stroke:#181818;stroke-width:1.0;"/><line style="stroke:#181818;stroke-width:1.0;" x1="938.5" x2="1123.5" y1="1634.1816" y2="1634.1816"/><text fill="#000000" font-family="sans-serif" font-size="13" lengthAdjust="spacing" textLength="79" x="945.5" y="1628.9189">send(request)</text><polygon fill="#181818" points="1831,1661.4727,1841,1665.4727,1831,1669.4727,1835,1665.4727" style="stroke:#181818;stroke-width:1.0;"/><line style="stroke:#181818;stroke-width:1.0;" x1="1139.5" x2="1837" y1="1665.4727" y2="1665.4727"/><text fill="#000000" font-family="sans-serif" font-size="13" lengthAdjust="spacing" textLength="265" x="1146.5" y="1660.21">sharedBoard = findSharedBoard(sharedBoard)</text><polygon fill="#181818" points="1150.5,1692.7637,1140.5,1696.7637,1150.5,1700.7637,1146.5,1696.7637" style="stroke:#181818;stroke-width:1.0;"/><line style="stroke:#181818;stroke-width:1.0;stroke-dasharray:2.0,2.0;" x1="1144.5" x2="1847" y1="1696.7637" y2="1696.7637"/><text fill="#000000" font-family="sans-serif" font-size="13" lengthAdjust="spacing" textLength="119" x="1156.5" y="1691.501">returns SharedBoard</text><path d="M1144,1709.7637 L1144,1770.7637 L1417,1770.7637 L1417,1719.7637 L1407,1709.7637 L1144,1709.7637 " fill="#FEFFDD" style="stroke:#181818;stroke-width:0.5;"/><path d="M1407,1709.7637 L1407,1719.7637 L1417,1719.7637 L1407,1709.7637 " fill="#FEFFDD" style="stroke:#181818;stroke-width:0.5;"/><text fill="#000000" font-family="sans-serif" font-size="13" lengthAdjust="spacing" textLength="219" x="1150" y="1728.792">Here is created the html page that will</text><text fill="#000000" font-family="sans-serif" font-size="13" lengthAdjust="spacing" textLength="248" x="1150" y="1746.083">be returned containing all the information of</text><text fill="#000000" font-family="sans-serif" font-size="13" lengthAdjust="spacing" textLength="150" x="1150" y="1763.374">the selected shared board</text><path d="M943,1781.6367 L943,1860.6367 L1156,1860.6367 L1156,1791.6367 L1146,1781.6367 L943,1781.6367 " fill="#FEFFDD" style="stroke:#181818;stroke-width:0.5;"/><path d="M1146,1781.6367 L1146,1791.6367 L1156,1791.6367 L1146,1781.6367 " fill="#FEFFDD" style="stroke:#181818;stroke-width:0.5;"/><text fill="#000000" font-family="sans-serif" font-size="13" lengthAdjust="spacing" textLength="163" x="949" y="1800.665">response is created with the</text><text fill="#000000" font-family="sans-serif" font-size="13" lengthAdjust="spacing" textLength="171" x="949" y="1817.9561">class RequestMessage using</text><text fill="#000000" font-family="sans-serif" font-size="13" lengthAdjust="spacing" textLength="188" x="949" y="1835.2471">code SEND_MESSAGE(6) pass</text><text fill="#000000" font-family="sans-serif" font-size="13" lengthAdjust="spacing" textLength="143" x="949" y="1852.5381">by parameter String html</text><polygon fill="#181818" points="949.5,1885.0918,939.5,1889.0918,949.5,1893.0918,945.5,1889.0918" style="stroke:#181818;stroke-width:1.0;"/><line style="stroke:#181818;stroke-width:1.0;stroke-dasharray:2.0,2.0;" x1="943.5" x2="1133.5" y1="1889.0918" y2="1889.0918"/><text fill="#000000" font-family="sans-serif" font-size="13" lengthAdjust="spacing" textLength="89" x="955.5" y="1883.8291">send(response)</text><polygon fill="#181818" points="595.5,1916.3828,585.5,1920.3828,595.5,1924.3828,591.5,1920.3828" style="stroke:#181818;stroke-width:1.0;"/><line style="stroke:#181818;stroke-width:1.0;stroke-dasharray:2.0,2.0;" x1="589.5" x2="932.5" y1="1920.3828" y2="1920.3828"/><text fill="#000000" font-family="sans-serif" font-size="13" lengthAdjust="spacing" textLength="112" x="601.5" y="1915.1201">returns html1 string</text><line style="stroke:#181818;stroke-width:1.0;" x1="584.5" x2="626.5" y1="1951.6738" y2="1951.6738"/><line style="stroke:#181818;stroke-width:1.0;" x1="626.5" x2="626.5" y1="1951.6738" y2="1964.6738"/><line style="stroke:#181818;stroke-width:1.0;" x1="585.5" x2="626.5" y1="1964.6738" y2="1964.6738"/><polygon fill="#181818" points="595.5,1960.6738,585.5,1964.6738,595.5,1968.6738,591.5,1964.6738" style="stroke:#181818;stroke-width:1.0;"/><text fill="#000000" font-family="sans-serif" font-size="13" lengthAdjust="spacing" textLength="293" x="591.5" y="1946.4111">response.setContentFromString(html1, "text/html)"</text><line style="stroke:#181818;stroke-width:1.0;" x1="584.5" x2="626.5" y1="1995.9648" y2="1995.9648"/><line style="stroke:#181818;stroke-width:1.0;" x1="626.5" x2="626.5" y1="1995.9648" y2="2008.9648"/><line style="stroke:#181818;stroke-width:1.0;" x1="585.5" x2="626.5" y1="2008.9648" y2="2008.9648"/><polygon fill="#181818" points="595.5,2004.9648,585.5,2008.9648,595.5,2012.9648,591.5,2008.9648" style="stroke:#181818;stroke-width:1.0;"/><text fill="#000000" font-family="sans-serif" font-size="13" lengthAdjust="spacing" textLength="231" x="591.5" y="1990.7021">response.setResponseStatus("200 Ok")</text><line style="stroke:#181818;stroke-width:1.0;" x1="584.5" x2="626.5" y1="2061.2559" y2="2061.2559"/><line style="stroke:#181818;stroke-width:1.0;" x1="626.5" x2="626.5" y1="2061.2559" y2="2074.2559"/><line style="stroke:#181818;stroke-width:1.0;" x1="585.5" x2="626.5" y1="2074.2559" y2="2074.2559"/><polygon fill="#181818" points="595.5,2070.2559,585.5,2074.2559,595.5,2078.2559,591.5,2074.2559" style="stroke:#181818;stroke-width:1.0;"/><text fill="#000000" font-family="sans-serif" font-size="13" lengthAdjust="spacing" textLength="120" x="591.5" y="2055.9932">response.send(outS)</text><polygon fill="#181818" points="234.5,2101.5469,224.5,2105.5469,234.5,2109.5469,230.5,2105.5469" style="stroke:#181818;stroke-width:1.0;"/><line style="stroke:#181818;stroke-width:1.0;stroke-dasharray:2.0,2.0;" x1="228.5" x2="573.5" y1="2105.5469" y2="2105.5469"/><text fill="#000000" font-family="sans-serif" font-size="13" lengthAdjust="spacing" textLength="25" x="240.5" y="2100.2842">data</text><polygon fill="#181818" points="33.5,2132.8379,23.5,2136.8379,33.5,2140.8379,29.5,2136.8379" style="stroke:#181818;stroke-width:1.0;"/><line style="stroke:#181818;stroke-width:1.0;stroke-dasharray:2.0,2.0;" x1="27.5" x2="212.5" y1="2136.8379" y2="2136.8379"/><text fill="#000000" font-family="sans-serif" font-size="13" lengthAdjust="spacing" textLength="67" x="39.5" y="2131.5752">Display info</text><!--SRC=[vLdTRzf847_dhvZZoRGfIQgxamvTAf526wIagJ1HTLAaQcCliEgow_CESFptDxi6iWwsCOM7zcuVmEp7RxvtPWoBKAVmO7ZQi1_mvXs4KvRo-5gpD7ul1LVOWILJQ00rB0HVde5Ga78c0SMCmwF2AOTv4ZFanYunC0u1dYn40sYm2CM2rdUntR8TEoibh9ZxES8LABw47aD6lv8vXaZyp0AZesySsnEEkUbMwt0g0-KH6QWY6lxiFXBNgLwIUaTJsXrt773s7DZ7t6hR84lHHzngBxTlksn7RgM083qkU7ep6drUYnMwYT094oGwnLOEJsgTv2Rg4CdG8DCGqNacscPHn1CIwc1CU_gE6yCcd7pkxpat6-jxAu5GuR7G9j7Ay0BiNM0c4SHumuvrXJkEKnq7BRYwWe_zqSw9GdPs7EMzLfXgANdwwbK78jg7HUGz5dOWsdCYeHY59N6Yvb8MdgwZdOr6seOxnWZyGwfdvEz2JGAf9qArfpYJhPDG6AwVGsGuDq7prulV85CgVD88NIdraiVDSc9Sal7oHdaO3h9OCby4JeFckNdMbgc0EjHO7P32eBV11DOArGJARyHdu4e0EvGcW5HCfWXwNCtY9dQ4MJjM34lI2jYx-r55aXa3mspF9YRcXYnj5tNCeNjx-_NwlZliXS7RYzQZWiIUU5hHTqhkXfGwhD1xMQvWqgfv52NPpRHcueQfsF5lk8g3jH2jlLIssYt1smjWHybPowPDbKEUQ2CeUwuwJdIwEiP2nTUhGHnieh1LYz2MspnihRDsv8_1coezfXpdgJ8GhWposOEfgOkO7yDaXIOzVnYeXQ3m5rhvglM2zfR2p6qYvysKxGUTvUiBCzc66X5O5Ob5hDGsnnwSUlQnilvPYFJkK8Fja-k49lGDnnPCIFOakM-aNRlTZwtXZhJNSLOwrZR7MEHKaLJ5Tw4bsYoEAQq6nV5LqnIk2Wb-AIOWJ7-MuAfLsoGMRapTIE31kDmA9JBKXzxZmkLfn_VTrrUEcpOAb6M5MM5jekB6AVTLEK5b4R1EebcfLO__WqgCTGtzlJL6sF_K-thN3yFkntxmUoihCHvLhiZ8wa-QBNI8nW51-BsbGLuZBshQvPGhMDf-8k9YmPtepeDfgzyLcpCIWVPXofGXdv-1GDSxAx15DGayuSVMKZlbTdPxENpZrDWu_Buwg4OzhiUmZ9v14_a_UEuwZUR9YBriDzvUNC3zjzEr5-SdRIzinhnRvTBuMFiNzyXUIF-jVkF3mDu5VuKttM6_vngFuFAFuhx3KyJ_fFqegRWyHUpMMRw__2o5LdY0PKzMOkMTl9J76vxcCfrrxEtLJRyOaiDBQVCNNmj4ko9oDoQKTNH6Y_QGKFR-TqMv9PYzJZLSyiZ2xhnA_KaJjbND3rNSrAm4ZhjHghFmvUdIy5vMZq_5bpzCBYufaulc_Ra3c29FqdFqtYc_E5lyfq7Ca5Nz3R1-STI1dZ29P2iN-ly2]--></g></svg>