<?xml version="1.0" encoding="us-ascii" standalone="no"?><svg xmlns="http://www.w3.org/2000/svg" xmlns:xlink="http://www.w3.org/1999/xlink" contentStyleType="text/css" height="681px" preserveAspectRatio="none" style="width:970px;height:681px;background:#FFFFFF;" version="1.1" viewBox="0 0 970 681" width="970px" zoomAndPan="magnify"><defs/><g><!--class ListExamGradesUI--><g id="elem_ListExamGradesUI"><rect codeLine="2" fill="#F1F1F1" height="60.582" id="ListExamGradesUI" rx="2.5" ry="2.5" style="stroke:#181818;stroke-width:0.5;" width="147" x="512" y="7"/><ellipse cx="527" cy="29.291" fill="#ADD1B2" rx="11" ry="11" style="stroke:#181818;stroke-width:1.0;"/><path d="M529.7656,25.166 Q529.9219,24.9473 530.1094,24.8379 Q530.2969,24.7285 530.5156,24.7285 Q530.8906,24.7285 531.125,24.9941 Q531.3594,25.2441 531.3594,25.8535 L531.3594,27.3066 Q531.3594,27.916 531.125,28.1816 Q530.8906,28.4473 530.5156,28.4473 Q530.1719,28.4473 529.9688,28.2441 Q529.7656,28.0566 529.6563,27.541 Q529.6094,27.1816 529.4219,26.9941 Q529.0938,26.6191 528.4844,26.4004 Q527.875,26.1816 527.25,26.1816 Q526.4844,26.1816 525.8438,26.5098 Q525.2188,26.8379 524.7188,27.5879 Q524.2344,28.3379 524.2344,29.3691 L524.2344,30.4629 Q524.2344,31.6973 525.125,32.5254 Q526.0156,33.3379 527.6094,33.3379 Q528.5469,33.3379 529.2031,33.0879 Q529.5938,32.9316 530.0156,32.4941 Q530.2813,32.2285 530.4219,32.1504 Q530.5781,32.0723 530.7813,32.0723 Q531.1094,32.0723 531.3594,32.3379 Q531.625,32.5879 531.625,32.9316 Q531.625,33.2754 531.2813,33.6816 Q530.7813,34.2598 529.9844,34.5879 Q528.9063,35.041 527.6094,35.041 Q526.0938,35.041 524.8906,34.416 Q523.9063,33.916 523.2188,32.8535 Q522.5313,31.7754 522.5313,30.4941 L522.5313,29.3379 Q522.5313,28.0098 523.1406,26.8691 Q523.7656,25.7129 524.8594,25.1035 Q525.9531,24.4785 527.1875,24.4785 Q527.9219,24.4785 528.5625,24.6504 Q529.2188,24.8066 529.7656,25.166 Z " fill="#000000"/><text fill="#000000" font-family="sans-serif" font-size="12" font-style="italic" lengthAdjust="spacing" textLength="27" x="585" y="24.9492">&#171;UI&#187;</text><text fill="#000000" font-family="sans-serif" font-size="14" lengthAdjust="spacing" textLength="115" x="541" y="43.0684">ListExamGradesUI</text><line style="stroke:#181818;stroke-width:0.5;" x1="513" x2="658" y1="51.582" y2="51.582"/><line style="stroke:#181818;stroke-width:0.5;" x1="513" x2="658" y1="59.582" y2="59.582"/></g><!--class ListExamGradesController--><g id="elem_ListExamGradesController"><rect codeLine="5" fill="#F1F1F1" height="97.8242" id="ListExamGradesController" rx="2.5" ry="2.5" style="stroke:#181818;stroke-width:0.5;" width="416" x="377.5" y="129"/><ellipse cx="498.75" cy="151.291" fill="#ADD1B2" rx="11" ry="11" style="stroke:#181818;stroke-width:1.0;"/><path d="M501.5156,147.166 Q501.6719,146.9473 501.8594,146.8379 Q502.0469,146.7285 502.2656,146.7285 Q502.6406,146.7285 502.875,146.9941 Q503.1094,147.2441 503.1094,147.8535 L503.1094,149.3066 Q503.1094,149.916 502.875,150.1816 Q502.6406,150.4473 502.2656,150.4473 Q501.9219,150.4473 501.7188,150.2441 Q501.5156,150.0566 501.4063,149.541 Q501.3594,149.1816 501.1719,148.9941 Q500.8438,148.6191 500.2344,148.4004 Q499.625,148.1816 499,148.1816 Q498.2344,148.1816 497.5938,148.5098 Q496.9688,148.8379 496.4688,149.5879 Q495.9844,150.3379 495.9844,151.3691 L495.9844,152.4629 Q495.9844,153.6973 496.875,154.5254 Q497.7656,155.3379 499.3594,155.3379 Q500.2969,155.3379 500.9531,155.0879 Q501.3438,154.9316 501.7656,154.4941 Q502.0313,154.2285 502.1719,154.1504 Q502.3281,154.0723 502.5313,154.0723 Q502.8594,154.0723 503.1094,154.3379 Q503.375,154.5879 503.375,154.9316 Q503.375,155.2754 503.0313,155.6816 Q502.5313,156.2598 501.7344,156.5879 Q500.6563,157.041 499.3594,157.041 Q497.8438,157.041 496.6406,156.416 Q495.6563,155.916 494.9688,154.8535 Q494.2813,153.7754 494.2813,152.4941 L494.2813,151.3379 Q494.2813,150.0098 494.8906,148.8691 Q495.5156,147.7129 496.6094,147.1035 Q497.7031,146.4785 498.9375,146.4785 Q499.6719,146.4785 500.3125,146.6504 Q500.9688,146.8066 501.5156,147.166 Z " fill="#000000"/><text fill="#000000" font-family="sans-serif" font-size="12" font-style="italic" lengthAdjust="spacing" textLength="68" x="567.75" y="146.9492">&#171;Controller&#187;</text><text fill="#000000" font-family="sans-serif" font-size="14" lengthAdjust="spacing" textLength="165" x="519.25" y="165.0684">ListExamGradesController</text><line style="stroke:#181818;stroke-width:0.5;" x1="378.5" x2="792.5" y1="173.582" y2="173.582"/><line style="stroke:#181818;stroke-width:0.5;" x1="378.5" x2="792.5" y1="181.582" y2="181.582"/><ellipse cx="388.5" cy="196.3926" fill="#84BE84" rx="3" ry="3" style="stroke:#038048;stroke-width:1.0;"/><text fill="#000000" font-family="sans-serif" font-size="14" lengthAdjust="spacing" textLength="343" x="397.5" y="200.6895">Iterable &lt;Course&gt; : findCoursesAvailableForTeacher()</text><ellipse cx="388.5" cy="215.0137" fill="#84BE84" rx="3" ry="3" style="stroke:#038048;stroke-width:1.0;"/><text fill="#000000" font-family="sans-serif" font-size="14" lengthAdjust="spacing" textLength="390" x="397.5" y="219.3105">Iterable&lt;ExamEnrollment&gt; : findExamEnrollsOfCourse(course)</text></g><!--class ListAvailableCoursesController--><g id="elem_ListAvailableCoursesController"><rect codeLine="10" fill="#F1F1F1" height="79.2031" id="ListAvailableCoursesController" rx="2.5" ry="2.5" style="stroke:#181818;stroke-width:0.5;" width="369" x="7" y="288"/><ellipse cx="90.25" cy="310.291" fill="#ADD1B2" rx="11" ry="11" style="stroke:#181818;stroke-width:1.0;"/><path d="M93.0156,306.166 Q93.1719,305.9473 93.3594,305.8379 Q93.5469,305.7285 93.7656,305.7285 Q94.1406,305.7285 94.375,305.9941 Q94.6094,306.2441 94.6094,306.8535 L94.6094,308.3066 Q94.6094,308.916 94.375,309.1816 Q94.1406,309.4473 93.7656,309.4473 Q93.4219,309.4473 93.2188,309.2441 Q93.0156,309.0566 92.9063,308.541 Q92.8594,308.1816 92.6719,307.9941 Q92.3438,307.6191 91.7344,307.4004 Q91.125,307.1816 90.5,307.1816 Q89.7344,307.1816 89.0938,307.5098 Q88.4688,307.8379 87.9688,308.5879 Q87.4844,309.3379 87.4844,310.3691 L87.4844,311.4629 Q87.4844,312.6973 88.375,313.5254 Q89.2656,314.3379 90.8594,314.3379 Q91.7969,314.3379 92.4531,314.0879 Q92.8438,313.9316 93.2656,313.4941 Q93.5313,313.2285 93.6719,313.1504 Q93.8281,313.0723 94.0313,313.0723 Q94.3594,313.0723 94.6094,313.3379 Q94.875,313.5879 94.875,313.9316 Q94.875,314.2754 94.5313,314.6816 Q94.0313,315.2598 93.2344,315.5879 Q92.1563,316.041 90.8594,316.041 Q89.3438,316.041 88.1406,315.416 Q87.1563,314.916 86.4688,313.8535 Q85.7813,312.7754 85.7813,311.4941 L85.7813,310.3379 Q85.7813,309.0098 86.3906,307.8691 Q87.0156,306.7129 88.1094,306.1035 Q89.2031,305.4785 90.4375,305.4785 Q91.1719,305.4785 91.8125,305.6504 Q92.4688,305.8066 93.0156,306.166 Z " fill="#000000"/><text fill="#000000" font-family="sans-serif" font-size="12" font-style="italic" lengthAdjust="spacing" textLength="68" x="173.75" y="305.9492">&#171;Controller&#187;</text><text fill="#000000" font-family="sans-serif" font-size="14" lengthAdjust="spacing" textLength="194" x="110.75" y="324.0684">ListAvailableCoursesController</text><line style="stroke:#181818;stroke-width:0.5;" x1="8" x2="375" y1="332.582" y2="332.582"/><line style="stroke:#181818;stroke-width:0.5;" x1="8" x2="375" y1="340.582" y2="340.582"/><ellipse cx="18" cy="355.3926" fill="#84BE84" rx="3" ry="3" style="stroke:#038048;stroke-width:1.0;"/><text fill="#000000" font-family="sans-serif" font-size="14" lengthAdjust="spacing" textLength="343" x="27" y="359.6895">Iterable &lt;Course&gt; : findCoursesAvailableForTeacher()</text></g><!--class Exam--><g id="elem_Exam"><rect codeLine="14" fill="#F1F1F1" height="228.1719" id="Exam" rx="2.5" ry="2.5" style="stroke:#181818;stroke-width:0.5;" width="186" x="777.5" y="446"/><ellipse cx="839.25" cy="468.291" fill="#ADD1B2" rx="11" ry="11" style="stroke:#181818;stroke-width:1.0;"/><path d="M842.0156,464.166 Q842.1719,463.9473 842.3594,463.8379 Q842.5469,463.7285 842.7656,463.7285 Q843.1406,463.7285 843.375,463.9941 Q843.6094,464.2441 843.6094,464.8535 L843.6094,466.3066 Q843.6094,466.916 843.375,467.1816 Q843.1406,467.4473 842.7656,467.4473 Q842.4219,467.4473 842.2188,467.2441 Q842.0156,467.0566 841.9063,466.541 Q841.8594,466.1816 841.6719,465.9941 Q841.3438,465.6191 840.7344,465.4004 Q840.125,465.1816 839.5,465.1816 Q838.7344,465.1816 838.0938,465.5098 Q837.4688,465.8379 836.9688,466.5879 Q836.4844,467.3379 836.4844,468.3691 L836.4844,469.4629 Q836.4844,470.6973 837.375,471.5254 Q838.2656,472.3379 839.8594,472.3379 Q840.7969,472.3379 841.4531,472.0879 Q841.8438,471.9316 842.2656,471.4941 Q842.5313,471.2285 842.6719,471.1504 Q842.8281,471.0723 843.0313,471.0723 Q843.3594,471.0723 843.6094,471.3379 Q843.875,471.5879 843.875,471.9316 Q843.875,472.2754 843.5313,472.6816 Q843.0313,473.2598 842.2344,473.5879 Q841.1563,474.041 839.8594,474.041 Q838.3438,474.041 837.1406,473.416 Q836.1563,472.916 835.4688,471.8535 Q834.7813,470.7754 834.7813,469.4941 L834.7813,468.3379 Q834.7813,467.0098 835.3906,465.8691 Q836.0156,464.7129 837.1094,464.1035 Q838.2031,463.4785 839.4375,463.4785 Q840.1719,463.4785 840.8125,463.6504 Q841.4688,463.8066 842.0156,464.166 Z " fill="#000000"/><text fill="#000000" font-family="sans-serif" font-size="12" font-style="italic" lengthAdjust="spacing" textLength="58" x="857.75" y="463.9492">&#171;Domain&#187;</text><text fill="#000000" font-family="sans-serif" font-size="14" lengthAdjust="spacing" textLength="34" x="869.75" y="482.0684">Exam</text><line style="stroke:#181818;stroke-width:0.5;" x1="778.5" x2="962.5" y1="490.582" y2="490.582"/><rect fill="none" height="6" style="stroke:#C82930;stroke-width:1.0;" width="6" x="785.5" y="502.3926"/><text fill="#000000" font-family="sans-serif" font-size="14" lengthAdjust="spacing" textLength="90" x="797.5" y="509.6895">Long : examID</text><rect fill="none" height="6" style="stroke:#C82930;stroke-width:1.0;" width="6" x="785.5" y="521.0137"/><text fill="#000000" font-family="sans-serif" font-size="14" lengthAdjust="spacing" textLength="101" x="797.5" y="528.3105">Course : course</text><rect fill="none" height="6" style="stroke:#C82930;stroke-width:1.0;" width="6" x="785.5" y="539.6348"/><text fill="#000000" font-family="sans-serif" font-size="14" lengthAdjust="spacing" textLength="118" x="797.5" y="546.9316">String : description</text><rect fill="none" height="6" style="stroke:#C82930;stroke-width:1.0;" width="6" x="785.5" y="558.2559"/><text fill="#000000" font-family="sans-serif" font-size="14" lengthAdjust="spacing" textLength="104" x="797.5" y="565.5527">Date : openDate</text><rect fill="none" height="6" style="stroke:#C82930;stroke-width:1.0;" width="6" x="785.5" y="576.877"/><text fill="#000000" font-family="sans-serif" font-size="14" lengthAdjust="spacing" textLength="105" x="797.5" y="584.1738">Date : closeDate</text><rect fill="none" height="6" style="stroke:#C82930;stroke-width:1.0;" width="6" x="785.5" y="595.498"/><text fill="#000000" font-family="sans-serif" font-size="14" lengthAdjust="spacing" textLength="135" x="797.5" y="602.7949">Language : language</text><rect fill="none" height="6" style="stroke:#C82930;stroke-width:1.0;" width="6" x="785.5" y="614.1191"/><text fill="#000000" font-family="sans-serif" font-size="14" lengthAdjust="spacing" textLength="103" x="797.5" y="621.416">Header : header</text><rect fill="none" height="6" style="stroke:#C82930;stroke-width:1.0;" width="6" x="785.5" y="632.7402"/><text fill="#000000" font-family="sans-serif" font-size="14" lengthAdjust="spacing" textLength="126" x="797.5" y="640.0371">Structure : structure</text><rect fill="none" height="6" style="stroke:#C82930;stroke-width:1.0;" width="6" x="785.5" y="651.3613"/><text fill="#000000" font-family="sans-serif" font-size="14" lengthAdjust="spacing" textLength="160" x="797.5" y="658.6582">ExamStatus : ExamStatus</text><line style="stroke:#181818;stroke-width:0.5;" x1="778.5" x2="962.5" y1="666.1719" y2="666.1719"/></g><!--class ExamEnrollment--><g id="elem_ExamEnrollment"><rect codeLine="26" fill="#F1F1F1" height="135.0664" id="ExamEnrollment" rx="2.5" ry="2.5" style="stroke:#181818;stroke-width:0.5;" width="319" x="423" y="492.5"/><ellipse cx="527.75" cy="514.791" fill="#ADD1B2" rx="11" ry="11" style="stroke:#181818;stroke-width:1.0;"/><path d="M530.5156,510.666 Q530.6719,510.4473 530.8594,510.3379 Q531.0469,510.2285 531.2656,510.2285 Q531.6406,510.2285 531.875,510.4941 Q532.1094,510.7441 532.1094,511.3535 L532.1094,512.8066 Q532.1094,513.416 531.875,513.6816 Q531.6406,513.9473 531.2656,513.9473 Q530.9219,513.9473 530.7188,513.7441 Q530.5156,513.5566 530.4063,513.041 Q530.3594,512.6816 530.1719,512.4941 Q529.8438,512.1191 529.2344,511.9004 Q528.625,511.6816 528,511.6816 Q527.2344,511.6816 526.5938,512.0098 Q525.9688,512.3379 525.4688,513.0879 Q524.9844,513.8379 524.9844,514.8691 L524.9844,515.9629 Q524.9844,517.1973 525.875,518.0254 Q526.7656,518.8379 528.3594,518.8379 Q529.2969,518.8379 529.9531,518.5879 Q530.3438,518.4316 530.7656,517.9941 Q531.0313,517.7285 531.1719,517.6504 Q531.3281,517.5723 531.5313,517.5723 Q531.8594,517.5723 532.1094,517.8379 Q532.375,518.0879 532.375,518.4316 Q532.375,518.7754 532.0313,519.1816 Q531.5313,519.7598 530.7344,520.0879 Q529.6563,520.541 528.3594,520.541 Q526.8438,520.541 525.6406,519.916 Q524.6563,519.416 523.9688,518.3535 Q523.2813,517.2754 523.2813,515.9941 L523.2813,514.8379 Q523.2813,513.5098 523.8906,512.3691 Q524.5156,511.2129 525.6094,510.6035 Q526.7031,509.9785 527.9375,509.9785 Q528.6719,509.9785 529.3125,510.1504 Q529.9688,510.3066 530.5156,510.666 Z " fill="#000000"/><text fill="#000000" font-family="sans-serif" font-size="12" font-style="italic" lengthAdjust="spacing" textLength="58" x="569.75" y="510.4492">&#171;Domain&#187;</text><text fill="#000000" font-family="sans-serif" font-size="14" lengthAdjust="spacing" textLength="101" x="548.25" y="528.5684">ExamEnrollment</text><line style="stroke:#181818;stroke-width:0.5;" x1="424" x2="741" y1="537.082" y2="537.082"/><rect fill="none" height="6" style="stroke:#C82930;stroke-width:1.0;" width="6" x="431" y="548.8926"/><text fill="#000000" font-family="sans-serif" font-size="14" lengthAdjust="spacing" textLength="157" x="443" y="556.1895">Long : examEnrollmentID</text><rect fill="none" height="6" style="stroke:#C82930;stroke-width:1.0;" width="6" x="431" y="567.5137"/><text fill="#000000" font-family="sans-serif" font-size="14" lengthAdjust="spacing" textLength="145" x="443" y="574.8105">Enrollment : enrollment</text><rect fill="none" height="6" style="stroke:#C82930;stroke-width:1.0;" width="6" x="431" y="586.1348"/><text fill="#000000" font-family="sans-serif" font-size="14" lengthAdjust="spacing" textLength="125" x="443" y="593.4316">Grade : examGrade</text><rect fill="none" height="6" style="stroke:#C82930;stroke-width:1.0;" width="6" x="431" y="604.7559"/><text fill="#000000" font-family="sans-serif" font-size="14" lengthAdjust="spacing" textLength="293" x="443" y="612.0527">ExamEnrollmentStatus : examEnrollmentStatus</text><line style="stroke:#181818;stroke-width:0.5;" x1="424" x2="741" y1="619.5664" y2="619.5664"/></g><!--class ExamEnrollmentRepository--><g id="elem_ExamEnrollmentRepository"><rect codeLine="33" fill="#F1F1F1" height="66.6211" id="ExamEnrollmentRepository" rx="2.5" ry="2.5" style="stroke:#181818;stroke-width:0.5;" width="349" x="411" y="294"/><ellipse cx="496.75" cy="310" fill="#ADD1B2" rx="11" ry="11" style="stroke:#181818;stroke-width:1.0;"/><path d="M499.5156,305.875 Q499.6719,305.6563 499.8594,305.5469 Q500.0469,305.4375 500.2656,305.4375 Q500.6406,305.4375 500.875,305.7031 Q501.1094,305.9531 501.1094,306.5625 L501.1094,308.0156 Q501.1094,308.625 500.875,308.8906 Q500.6406,309.1563 500.2656,309.1563 Q499.9219,309.1563 499.7188,308.9531 Q499.5156,308.7656 499.4063,308.25 Q499.3594,307.8906 499.1719,307.7031 Q498.8438,307.3281 498.2344,307.1094 Q497.625,306.8906 497,306.8906 Q496.2344,306.8906 495.5938,307.2188 Q494.9688,307.5469 494.4688,308.2969 Q493.9844,309.0469 493.9844,310.0781 L493.9844,311.1719 Q493.9844,312.4063 494.875,313.2344 Q495.7656,314.0469 497.3594,314.0469 Q498.2969,314.0469 498.9531,313.7969 Q499.3438,313.6406 499.7656,313.2031 Q500.0313,312.9375 500.1719,312.8594 Q500.3281,312.7813 500.5313,312.7813 Q500.8594,312.7813 501.1094,313.0469 Q501.375,313.2969 501.375,313.6406 Q501.375,313.9844 501.0313,314.3906 Q500.5313,314.9688 499.7344,315.2969 Q498.6563,315.75 497.3594,315.75 Q495.8438,315.75 494.6406,315.125 Q493.6563,314.625 492.9688,313.5625 Q492.2813,312.4844 492.2813,311.2031 L492.2813,310.0469 Q492.2813,308.7188 492.8906,307.5781 Q493.5156,306.4219 494.6094,305.8125 Q495.7031,305.1875 496.9375,305.1875 Q497.6719,305.1875 498.3125,305.3594 Q498.9688,305.5156 499.5156,305.875 Z " fill="#000000"/><text fill="#000000" font-family="sans-serif" font-size="14" lengthAdjust="spacing" textLength="169" x="517.25" y="315.7969">ExamEnrollmentRepository</text><line style="stroke:#181818;stroke-width:0.5;" x1="412" x2="759" y1="326" y2="326"/><line style="stroke:#181818;stroke-width:0.5;" x1="412" x2="759" y1="334" y2="334"/><ellipse cx="422" cy="348.8105" fill="#84BE84" rx="3" ry="3" style="stroke:#038048;stroke-width:1.0;"/><text fill="#000000" font-family="sans-serif" font-size="14" lengthAdjust="spacing" textLength="323" x="431" y="353.1074">Iterable&lt;Exam&gt; : findExamEnrollsOfCourse(course)</text></g><!--class ExamRepository--><g id="elem_ExamRepository"><rect fill="#F1F1F1" height="48" id="ExamRepository" rx="2.5" ry="2.5" style="stroke:#181818;stroke-width:0.5;" width="134" x="798.5" y="303.5"/><ellipse cx="813.5" cy="319.5" fill="#ADD1B2" rx="11" ry="11" style="stroke:#181818;stroke-width:1.0;"/><path d="M816.2656,315.375 Q816.4219,315.1563 816.6094,315.0469 Q816.7969,314.9375 817.0156,314.9375 Q817.3906,314.9375 817.625,315.2031 Q817.8594,315.4531 817.8594,316.0625 L817.8594,317.5156 Q817.8594,318.125 817.625,318.3906 Q817.3906,318.6563 817.0156,318.6563 Q816.6719,318.6563 816.4688,318.4531 Q816.2656,318.2656 816.1563,317.75 Q816.1094,317.3906 815.9219,317.2031 Q815.5938,316.8281 814.9844,316.6094 Q814.375,316.3906 813.75,316.3906 Q812.9844,316.3906 812.3438,316.7188 Q811.7188,317.0469 811.2188,317.7969 Q810.7344,318.5469 810.7344,319.5781 L810.7344,320.6719 Q810.7344,321.9063 811.625,322.7344 Q812.5156,323.5469 814.1094,323.5469 Q815.0469,323.5469 815.7031,323.2969 Q816.0938,323.1406 816.5156,322.7031 Q816.7813,322.4375 816.9219,322.3594 Q817.0781,322.2813 817.2813,322.2813 Q817.6094,322.2813 817.8594,322.5469 Q818.125,322.7969 818.125,323.1406 Q818.125,323.4844 817.7813,323.8906 Q817.2813,324.4688 816.4844,324.7969 Q815.4063,325.25 814.1094,325.25 Q812.5938,325.25 811.3906,324.625 Q810.4063,324.125 809.7188,323.0625 Q809.0313,321.9844 809.0313,320.7031 L809.0313,319.5469 Q809.0313,318.2188 809.6406,317.0781 Q810.2656,315.9219 811.3594,315.3125 Q812.4531,314.6875 813.6875,314.6875 Q814.4219,314.6875 815.0625,314.8594 Q815.7188,315.0156 816.2656,315.375 Z " fill="#000000"/><text fill="#000000" font-family="sans-serif" font-size="14" lengthAdjust="spacing" textLength="102" x="827.5" y="325.2969">ExamRepository</text><line style="stroke:#181818;stroke-width:0.5;" x1="799.5" x2="931.5" y1="335.5" y2="335.5"/><line style="stroke:#181818;stroke-width:0.5;" x1="799.5" x2="931.5" y1="343.5" y2="343.5"/></g><!--link ListExamGradesUI to ListExamGradesController--><g id="link_ListExamGradesUI_ListExamGradesController"><path codeLine="38" d="M585.5,68.21 C585.5,84.34 585.5,104.77 585.5,123.56 " fill="none" id="ListExamGradesUI-to-ListExamGradesController" style="stroke:#181818;stroke-width:1.0;stroke-dasharray:7.0,7.0;"/><polygon fill="#181818" points="585.5,128.82,589.5,119.82,585.5,123.82,581.5,119.82,585.5,128.82" style="stroke:#181818;stroke-width:1.0;"/></g><!--link ListExamGradesController to ListAvailableCoursesController--><g id="link_ListExamGradesController_ListAvailableCoursesController"><path codeLine="39" d="M457.03,227.09 C406.02,246.19 348,267.91 299.24,286.17 " fill="none" id="ListExamGradesController-to-ListAvailableCoursesController" style="stroke:#181818;stroke-width:1.0;"/><polygon fill="#181818" points="294.55,287.92,304.3815,288.5052,299.2316,286.1644,301.5725,281.0146,294.55,287.92" style="stroke:#181818;stroke-width:1.0;"/></g><!--link ListExamGradesController to ExamRepository--><g id="link_ListExamGradesController_ExamRepository"><path codeLine="40" d="M676.8,227.09 C723.57,251.73 778.63,280.74 817.16,301.03 " fill="none" id="ListExamGradesController-to-ExamRepository" style="stroke:#181818;stroke-width:1.0;"/><polygon fill="#181818" points="821.77,303.47,815.6759,295.7329,817.3476,301.1371,811.9434,302.8088,821.77,303.47" style="stroke:#181818;stroke-width:1.0;"/></g><!--link ExamRepository to Exam--><g id="link_ExamRepository_Exam"><path codeLine="41" d="M866.01,351.87 C866.47,373.36 867.2,406.95 867.94,440.86 " fill="none" id="ExamRepository-to-Exam" style="stroke:#181818;stroke-width:1.0;"/><polygon fill="#181818" points="868.05,445.87,871.8433,436.7809,867.9357,440.8713,863.8454,436.9638,868.05,445.87" style="stroke:#181818;stroke-width:1.0;"/><polygon fill="#000000" points="872.6084,411.6443,875.3505,402.5376,869.4741,402.6651,872.6084,411.6443" style="stroke:#000000;stroke-width:1.0;"/><text fill="#000000" font-family="sans-serif" font-size="13" lengthAdjust="spacing" textLength="49" x="881.5" y="412.0283">contains</text></g><!--link ListExamGradesController to ExamEnrollmentRepository--><g id="link_ListExamGradesController_ExamEnrollmentRepository"><path codeLine="42" d="M585.5,227.3 C585.5,247.26 585.5,270.07 585.5,288.77 " fill="none" id="ListExamGradesController-to-ExamEnrollmentRepository" style="stroke:#181818;stroke-width:1.0;"/><polygon fill="#181818" points="585.5,293.94,589.5,284.94,585.5,288.94,581.5,284.94,585.5,293.94" style="stroke:#181818;stroke-width:1.0;"/></g><!--link ExamEnrollmentRepository to ExamEnrollment--><g id="link_ExamEnrollmentRepository_ExamEnrollment"><path codeLine="43" d="M585.08,361.04 C584.65,393.71 583.98,445.13 583.43,487.38 " fill="none" id="ExamEnrollmentRepository-to-ExamEnrollment" style="stroke:#181818;stroke-width:1.0;"/><polygon fill="#181818" points="583.37,492.48,587.4982,483.5381,583.4414,487.4805,579.499,483.4238,583.37,492.48" style="stroke:#181818;stroke-width:1.0;"/><polygon fill="#000000" points="590.4347,411.6451,593.4915,402.6391,587.6141,402.5624,590.4347,411.6451" style="stroke:#000000;stroke-width:1.0;"/><text fill="#000000" font-family="sans-serif" font-size="13" lengthAdjust="spacing" textLength="49" x="599.5" y="412.0283">contains</text></g><!--SRC=[jLF1JiCm3BtdAtBSXBeFG5CbH0TKceJ4s0U4pDiYPScKf0Y4-7USD4jMrj9TwAMsdz-pupXSCclfKbYt-627HyCsODSrdS_NTLdIB_9D2Ez9kTVA6Iqb64pDJg1G_6vexS2mDmaKuSPOAEajtGgrQJrxzyw4zFY3Dg_0-1xCPFgBElVr5ifB7q2vaqAEskTjApVXuJVjjfjgn9h_r7IgwHj3vKeVc519jQ1BhNOe10ZNLOorYXXjEu_HbJCYvEA8kH579xIAKCMSJzT7KDxiHhdK5ix2IwPs3TjvI4Op8a-0rsSmlWz6hjjmrnXFi2SxOlvKAyTSOn7CJlVO-PP61f0JqoZEk9YJd8Y6VOlaO9-rbPcfGUW93xNw0aTjXTFcys81mkfTkN3aulNCPkNWUo633waeof6r_PlhWNmaqdLJHbWvvV22B2t71VkcHGR7UCdgbYC_]--></g></svg>