<?xml version="1.0" encoding="us-ascii" standalone="no"?><svg xmlns="http://www.w3.org/2000/svg" xmlns:xlink="http://www.w3.org/1999/xlink" contentStyleType="text/css" height="958px" preserveAspectRatio="none" style="width:1229px;height:958px;background:#FFFFFF;" version="1.1" viewBox="0 0 1229 958" width="1229px" zoomAndPan="magnify"><defs/><g><rect fill="#FFFFFF" height="727.6641" style="stroke:#181818;stroke-width:1.0;" width="10" x="296.5" y="121.5332"/><rect fill="#FFFFFF" height="131.1641" style="stroke:#181818;stroke-width:1.0;" width="10" x="540.5" y="152.8242"/><rect fill="#FFFFFF" height="93.873" style="stroke:#181818;stroke-width:1.0;" width="10" x="540.5" y="510.3164"/><rect fill="#FFFFFF" height="93.873" style="stroke:#181818;stroke-width:1.0;" width="10" x="540.5" y="678.4023"/><rect fill="#FFFFFF" height="68.582" style="stroke:#181818;stroke-width:1.0;" width="10" x="784.5" y="184.1152"/><rect fill="#FFFFFF" height="31.291" style="stroke:#181818;stroke-width:1.0;" width="10" x="1100" y="541.6074"/><rect fill="#FFFFFF" height="31.291" style="stroke:#181818;stroke-width:1.0;" width="10" x="1100" y="709.6934"/><rect fill="none" height="543.209" style="stroke:#000000;stroke-width:1.5;" width="1212.5" x="10" y="298.9883"/><rect fill="none" height="382.123" style="stroke:#000000;stroke-width:1.5;" width="1192.5" x="20" y="405.1523"/><rect fill="none" height="144.4551" style="stroke:#000000;stroke-width:1.5;" width="975.5" x="227" y="635.8203"/><line style="stroke:#181818;stroke-width:0.5;stroke-dasharray:5.0,5.0;" x1="59" x2="59" y1="88.2422" y2="859.1973"/><line style="stroke:#181818;stroke-width:0.5;stroke-dasharray:5.0,5.0;" x1="301" x2="301" y1="88.2422" y2="859.1973"/><line style="stroke:#181818;stroke-width:0.5;stroke-dasharray:5.0,5.0;" x1="545" x2="545" y1="88.2422" y2="859.1973"/><line style="stroke:#181818;stroke-width:0.5;stroke-dasharray:5.0,5.0;" x1="789.5" x2="789.5" y1="88.2422" y2="859.1973"/><line style="stroke:#181818;stroke-width:0.5;stroke-dasharray:5.0,5.0;" x1="953.5" x2="953.5" y1="88.2422" y2="859.1973"/><line style="stroke:#181818;stroke-width:0.5;stroke-dasharray:5.0,5.0;" x1="1104.5" x2="1104.5" y1="88.2422" y2="859.1973"/><text fill="#000000" font-family="FG Virgil" font-size="14" lengthAdjust="spacing" textLength="53" x="30" y="84.7285">Teacher</text><ellipse cx="59.5" cy="18.1211" fill="#E3E3E3" rx="8" ry="8" style="stroke:#181818;stroke-width:0.5;"/><path d="M59.5,26.1211 L59.5,53.1211 M46.5,34.1211 L72.5,34.1211 M59.5,53.1211 L46.5,68.1211 M59.5,53.1211 L72.5,68.1211 " fill="none" style="stroke:#181818;stroke-width:0.5;"/><text fill="#000000" font-family="FG Virgil" font-size="14" lengthAdjust="spacing" textLength="53" x="30" y="873.3047">Teacher</text><ellipse cx="59.5" cy="885.3184" fill="#E3E3E3" rx="8" ry="8" style="stroke:#181818;stroke-width:0.5;"/><path d="M59.5,893.3184 L59.5,920.3184 M46.5,901.3184 L72.5,901.3184 M59.5,920.3184 L46.5,935.3184 M59.5,920.3184 L72.5,935.3184 " fill="none" style="stroke:#181818;stroke-width:0.5;"/><rect fill="#E3E3E3" height="51.2422" rx="2.5" ry="2.5" style="stroke:#181818;stroke-width:0.5;" width="129" x="237" y="36"/><text fill="#000000" font-family="FG Virgil" font-size="14" font-style="italic" lengthAdjust="spacing" textLength="95" x="254" y="58.1074">&#171;presentation&#187;</text><text fill="#000000" font-family="FG Virgil" font-size="14" lengthAdjust="spacing" textLength="115" x="244" y="76.7285">ListExamGradesUI</text><rect fill="#E3E3E3" height="51.2422" rx="2.5" ry="2.5" style="stroke:#181818;stroke-width:0.5;" width="129" x="237" y="858.1973"/><text fill="#000000" font-family="FG Virgil" font-size="14" font-style="italic" lengthAdjust="spacing" textLength="95" x="254" y="880.3047">&#171;presentation&#187;</text><text fill="#000000" font-family="FG Virgil" font-size="14" lengthAdjust="spacing" textLength="115" x="244" y="898.9258">ListExamGradesUI</text><text fill="#000000" font-family="FG Virgil" font-size="14" font-style="italic" lengthAdjust="spacing" textLength="84" x="500.5" y="66.1074">&#171;application&#187;</text><text fill="#000000" font-family="FG Virgil" font-size="14" lengthAdjust="spacing" textLength="165" x="460" y="84.7285">ListExamGradesController</text><ellipse cx="545.5" cy="35" fill="#E3E3E3" rx="12" ry="12" style="stroke:#181818;stroke-width:0.5;"/><polygon fill="#181818" points="541.5,23,547.5,18,545.5,23,547.5,28,541.5,23" style="stroke:#181818;stroke-width:1.0;"/><text fill="#000000" font-family="FG Virgil" font-size="14" font-style="italic" lengthAdjust="spacing" textLength="84" x="500.5" y="873.3047">&#171;application&#187;</text><text fill="#000000" font-family="FG Virgil" font-size="14" lengthAdjust="spacing" textLength="165" x="460" y="891.9258">ListExamGradesController</text><ellipse cx="545.5" cy="911.4395" fill="#E3E3E3" rx="12" ry="12" style="stroke:#181818;stroke-width:0.5;"/><polygon fill="#181818" points="541.5,899.4395,547.5,894.4395,545.5,899.4395,547.5,904.4395,541.5,899.4395" style="stroke:#181818;stroke-width:1.0;"/><text fill="#000000" font-family="FG Virgil" font-size="14" font-style="italic" lengthAdjust="spacing" textLength="84" x="744.5" y="66.1074">&#171;application&#187;</text><text fill="#000000" font-family="FG Virgil" font-size="14" lengthAdjust="spacing" textLength="194" x="689.5" y="84.7285">ListAvailableCoursesController</text><ellipse cx="789.5" cy="35" fill="#E3E3E3" rx="12" ry="12" style="stroke:#181818;stroke-width:0.5;"/><polygon fill="#181818" points="785.5,23,791.5,18,789.5,23,791.5,28,785.5,23" style="stroke:#181818;stroke-width:1.0;"/><text fill="#000000" font-family="FG Virgil" font-size="14" font-style="italic" lengthAdjust="spacing" textLength="84" x="744.5" y="873.3047">&#171;application&#187;</text><text fill="#000000" font-family="FG Virgil" font-size="14" lengthAdjust="spacing" textLength="194" x="689.5" y="891.9258">ListAvailableCoursesController</text><ellipse cx="789.5" cy="911.4395" fill="#E3E3E3" rx="12" ry="12" style="stroke:#181818;stroke-width:0.5;"/><polygon fill="#181818" points="785.5,899.4395,791.5,894.4395,789.5,899.4395,791.5,904.4395,785.5,899.4395" style="stroke:#181818;stroke-width:1.0;"/><text fill="#000000" font-family="FG Virgil" font-size="14" font-style="italic" lengthAdjust="spacing" textLength="79" x="911" y="66.1074">&#171;repository&#187;</text><text fill="#000000" font-family="FG Virgil" font-size="14" lengthAdjust="spacing" textLength="102" x="899.5" y="84.7285">ExamRepository</text><path d="M935.5,15 C935.5,5 953.5,5 953.5,5 C953.5,5 971.5,5 971.5,15 L971.5,41 C971.5,51 953.5,51 953.5,51 C953.5,51 935.5,51 935.5,41 L935.5,15 " fill="#E3E3E3" style="stroke:#181818;stroke-width:1.5;"/><path d="M935.5,15 C935.5,25 953.5,25 953.5,25 C953.5,25 971.5,25 971.5,15 " fill="none" style="stroke:#181818;stroke-width:1.5;"/><text fill="#000000" font-family="FG Virgil" font-size="14" font-style="italic" lengthAdjust="spacing" textLength="79" x="911" y="873.3047">&#171;repository&#187;</text><text fill="#000000" font-family="FG Virgil" font-size="14" lengthAdjust="spacing" textLength="102" x="899.5" y="891.9258">ExamRepository</text><path d="M935.5,905.4395 C935.5,895.4395 953.5,895.4395 953.5,895.4395 C953.5,895.4395 971.5,895.4395 971.5,905.4395 L971.5,931.4395 C971.5,941.4395 953.5,941.4395 953.5,941.4395 C953.5,941.4395 935.5,941.4395 935.5,931.4395 L935.5,905.4395 " fill="#E3E3E3" style="stroke:#181818;stroke-width:1.5;"/><path d="M935.5,905.4395 C935.5,915.4395 953.5,915.4395 953.5,915.4395 C953.5,915.4395 971.5,915.4395 971.5,905.4395 " fill="none" style="stroke:#181818;stroke-width:1.5;"/><text fill="#000000" font-family="FG Virgil" font-size="14" font-style="italic" lengthAdjust="spacing" textLength="79" x="1062.5" y="66.1074">&#171;repository&#187;</text><text fill="#000000" font-family="FG Virgil" font-size="14" lengthAdjust="spacing" textLength="169" x="1017.5" y="84.7285">ExamEnrollmentRepository</text><path d="M1087,15 C1087,5 1105,5 1105,5 C1105,5 1123,5 1123,15 L1123,41 C1123,51 1105,51 1105,51 C1105,51 1087,51 1087,41 L1087,15 " fill="#E3E3E3" style="stroke:#181818;stroke-width:1.5;"/><path d="M1087,15 C1087,25 1105,25 1105,25 C1105,25 1123,25 1123,15 " fill="none" style="stroke:#181818;stroke-width:1.5;"/><text fill="#000000" font-family="FG Virgil" font-size="14" font-style="italic" lengthAdjust="spacing" textLength="79" x="1062.5" y="873.3047">&#171;repository&#187;</text><text fill="#000000" font-family="FG Virgil" font-size="14" lengthAdjust="spacing" textLength="169" x="1017.5" y="891.9258">ExamEnrollmentRepository</text><path d="M1087,905.4395 C1087,895.4395 1105,895.4395 1105,895.4395 C1105,895.4395 1123,895.4395 1123,905.4395 L1123,931.4395 C1123,941.4395 1105,941.4395 1105,941.4395 C1105,941.4395 1087,941.4395 1087,931.4395 L1087,905.4395 " fill="#E3E3E3" style="stroke:#181818;stroke-width:1.5;"/><path d="M1087,905.4395 C1087,915.4395 1105,915.4395 1105,915.4395 C1105,915.4395 1123,915.4395 1123,905.4395 " fill="none" style="stroke:#181818;stroke-width:1.5;"/><rect fill="#FFFFFF" height="727.6641" style="stroke:#181818;stroke-width:1.0;" width="10" x="296.5" y="121.5332"/><rect fill="#FFFFFF" height="131.1641" style="stroke:#181818;stroke-width:1.0;" width="10" x="540.5" y="152.8242"/><rect fill="#FFFFFF" height="93.873" style="stroke:#181818;stroke-width:1.0;" width="10" x="540.5" y="510.3164"/><rect fill="#FFFFFF" height="93.873" style="stroke:#181818;stroke-width:1.0;" width="10" x="540.5" y="678.4023"/><rect fill="#FFFFFF" height="68.582" style="stroke:#181818;stroke-width:1.0;" width="10" x="784.5" y="184.1152"/><rect fill="#FFFFFF" height="31.291" style="stroke:#181818;stroke-width:1.0;" width="10" x="1100" y="541.6074"/><rect fill="#FFFFFF" height="31.291" style="stroke:#181818;stroke-width:1.0;" width="10" x="1100" y="709.6934"/><polygon fill="#181818" points="284.5,117.5332,294.5,121.5332,284.5,125.5332,288.5,121.5332" style="stroke:#181818;stroke-width:1.0;"/><line style="stroke:#181818;stroke-width:1.0;" x1="59.5" x2="290.5" y1="121.5332" y2="121.5332"/><text fill="#000000" font-family="FG Virgil" font-size="13" font-weight="bold" lengthAdjust="spacing" textLength="7" x="66.5" y="116.2705">1</text><text fill="#000000" font-family="FG Virgil" font-size="13" lengthAdjust="spacing" textLength="199" x="77.5" y="116.2705">asks to view list of grades of exam</text><polygon fill="#181818" points="528.5,148.8242,538.5,152.8242,528.5,156.8242,532.5,152.8242" style="stroke:#181818;stroke-width:1.0;"/><line style="stroke:#181818;stroke-width:1.0;" x1="306.5" x2="534.5" y1="152.8242" y2="152.8242"/><text fill="#000000" font-family="FG Virgil" font-size="13" font-weight="bold" lengthAdjust="spacing" textLength="7" x="313.5" y="147.5615">2</text><text fill="#000000" font-family="FG Virgil" font-size="13" lengthAdjust="spacing" textLength="192" x="324.5" y="147.5615">findCoursesAvailableForTeacher()</text><polygon fill="#181818" points="772.5,180.1152,782.5,184.1152,772.5,188.1152,776.5,184.1152" style="stroke:#181818;stroke-width:1.0;"/><line style="stroke:#181818;stroke-width:1.0;" x1="550.5" x2="778.5" y1="184.1152" y2="184.1152"/><text fill="#000000" font-family="FG Virgil" font-size="13" font-weight="bold" lengthAdjust="spacing" textLength="7" x="557.5" y="178.8525">3</text><text fill="#000000" font-family="FG Virgil" font-size="13" lengthAdjust="spacing" textLength="192" x="568.5" y="178.8525">findCoursesAvailableForTeacher()</text><path d="M799,197.1152 L799,224.1152 L1150,224.1152 L1150,207.1152 L1140,197.1152 L799,197.1152 " fill="#FAFAFA" style="stroke:#181818;stroke-width:0.5;"/><path d="M1140,197.1152 L1140,207.1152 L1150,207.1152 L1140,197.1152 " fill="#FAFAFA" style="stroke:#181818;stroke-width:0.5;"/><text fill="#000000" font-family="FG Virgil" font-size="13" lengthAdjust="spacing" textLength="330" x="805" y="216.1436">this controller belongs to US 1006. Check documentation</text><polygon fill="#181818" points="561.5,248.6973,551.5,252.6973,561.5,256.6973,557.5,252.6973" style="stroke:#181818;stroke-width:1.0;"/><line style="stroke:#181818;stroke-width:1.0;stroke-dasharray:2.0,2.0;" x1="555.5" x2="788.5" y1="252.6973" y2="252.6973"/><text fill="#000000" font-family="FG Virgil" font-size="13" font-weight="bold" lengthAdjust="spacing" textLength="7" x="567.5" y="247.4346">4</text><text fill="#000000" font-family="FG Virgil" font-size="13" lengthAdjust="spacing" textLength="199" x="578.5" y="247.4346">list of courses available for teacher</text><polygon fill="#181818" points="317.5,279.9883,307.5,283.9883,317.5,287.9883,313.5,283.9883" style="stroke:#181818;stroke-width:1.0;"/><line style="stroke:#181818;stroke-width:1.0;stroke-dasharray:2.0,2.0;" x1="311.5" x2="544.5" y1="283.9883" y2="283.9883"/><text fill="#000000" font-family="FG Virgil" font-size="13" font-weight="bold" lengthAdjust="spacing" textLength="7" x="323.5" y="278.7256">5</text><text fill="#000000" font-family="FG Virgil" font-size="13" lengthAdjust="spacing" textLength="199" x="334.5" y="278.7256">list of courses available for teacher</text><path d="M10,298.9883 L71,298.9883 L71,308.2793 L61,318.2793 L10,318.2793 L10,298.9883 " fill="#EEEEEE" style="stroke:#000000;stroke-width:1.5;"/><rect fill="none" height="543.209" style="stroke:#000000;stroke-width:1.5;" width="1212.5" x="10" y="298.9883"/><text fill="#000000" font-family="FG Virgil" font-size="13" font-weight="bold" lengthAdjust="spacing" textLength="16" x="25" y="314.0166">alt</text><text fill="#000000" font-family="FG Virgil" font-size="11" font-weight="bold" lengthAdjust="spacing" textLength="263" x="86" y="312.8584">[if course available for teacher list is not empty]</text><polygon fill="#181818" points="70.5,354.8613,60.5,358.8613,70.5,362.8613,66.5,358.8613" style="stroke:#181818;stroke-width:1.0;"/><line style="stroke:#181818;stroke-width:1.0;stroke-dasharray:2.0,2.0;" x1="64.5" x2="295.5" y1="358.8613" y2="358.8613"/><text fill="#000000" font-family="FG Virgil" font-size="13" font-weight="bold" lengthAdjust="spacing" textLength="7" x="76.5" y="344.9531">6</text><text fill="#000000" font-family="FG Virgil" font-size="13" lengthAdjust="spacing" textLength="146" x="87.5" y="336.3076">asks to select one option</text><text fill="#000000" font-family="FG Virgil" font-size="13" lengthAdjust="spacing" textLength="202" x="87.5" y="353.5986">view grades of a course/all courses</text><polygon fill="#181818" points="284.5,386.1523,294.5,390.1523,284.5,394.1523,288.5,390.1523" style="stroke:#181818;stroke-width:1.0;"/><line style="stroke:#181818;stroke-width:1.0;" x1="59.5" x2="290.5" y1="390.1523" y2="390.1523"/><text fill="#000000" font-family="FG Virgil" font-size="13" font-weight="bold" lengthAdjust="spacing" textLength="7" x="66.5" y="384.8896">7</text><text fill="#000000" font-family="FG Virgil" font-size="13" lengthAdjust="spacing" textLength="106" x="77.5" y="384.8896">selects one option</text><path d="M20,405.1523 L81,405.1523 L81,414.4434 L71,424.4434 L20,424.4434 L20,405.1523 " fill="#EEEEEE" style="stroke:#000000;stroke-width:1.5;"/><rect fill="none" height="382.123" style="stroke:#000000;stroke-width:1.5;" width="1192.5" x="20" y="405.1523"/><text fill="#000000" font-family="FG Virgil" font-size="13" font-weight="bold" lengthAdjust="spacing" textLength="16" x="35" y="420.1807">alt</text><text fill="#000000" font-family="FG Virgil" font-size="11" font-weight="bold" lengthAdjust="spacing" textLength="202" x="96" y="419.0225">[if option is view grades of a course]</text><polygon fill="#181818" points="70.5,443.7344,60.5,447.7344,70.5,451.7344,66.5,447.7344" style="stroke:#181818;stroke-width:1.0;"/><line style="stroke:#181818;stroke-width:1.0;stroke-dasharray:2.0,2.0;" x1="64.5" x2="295.5" y1="447.7344" y2="447.7344"/><text fill="#000000" font-family="FG Virgil" font-size="13" font-weight="bold" lengthAdjust="spacing" textLength="7" x="76.5" y="442.4717">8</text><text fill="#000000" font-family="FG Virgil" font-size="13" lengthAdjust="spacing" textLength="129" x="87.5" y="442.4717">ask to select a course</text><polygon fill="#181818" points="284.5,475.0254,294.5,479.0254,284.5,483.0254,288.5,479.0254" style="stroke:#181818;stroke-width:1.0;"/><line style="stroke:#181818;stroke-width:1.0;" x1="59.5" x2="290.5" y1="479.0254" y2="479.0254"/><text fill="#000000" font-family="FG Virgil" font-size="13" font-weight="bold" lengthAdjust="spacing" textLength="7" x="66.5" y="473.7627">9</text><text fill="#000000" font-family="FG Virgil" font-size="13" lengthAdjust="spacing" textLength="89" x="77.5" y="473.7627">select a course</text><polygon fill="#181818" points="528.5,506.3164,538.5,510.3164,528.5,514.3164,532.5,510.3164" style="stroke:#181818;stroke-width:1.0;"/><line style="stroke:#181818;stroke-width:1.0;" x1="306.5" x2="534.5" y1="510.3164" y2="510.3164"/><text fill="#000000" font-family="FG Virgil" font-size="13" font-weight="bold" lengthAdjust="spacing" textLength="14" x="313.5" y="505.0537">10</text><text fill="#000000" font-family="FG Virgil" font-size="13" lengthAdjust="spacing" textLength="163" x="331.5" y="505.0537">findGradesOfCourse(course)</text><polygon fill="#181818" points="1088,537.6074,1098,541.6074,1088,545.6074,1092,541.6074" style="stroke:#181818;stroke-width:1.0;"/><line style="stroke:#181818;stroke-width:1.0;" x1="550.5" x2="1094" y1="541.6074" y2="541.6074"/><text fill="#000000" font-family="FG Virgil" font-size="13" font-weight="bold" lengthAdjust="spacing" textLength="14" x="557.5" y="536.3447">11</text><text fill="#000000" font-family="FG Virgil" font-size="13" lengthAdjust="spacing" textLength="195" x="575.5" y="536.3447">findExamEnrollsOfCourse(course)</text><polygon fill="#181818" points="561.5,568.8984,551.5,572.8984,561.5,576.8984,557.5,572.8984" style="stroke:#181818;stroke-width:1.0;"/><line style="stroke:#181818;stroke-width:1.0;" x1="555.5" x2="1104" y1="572.8984" y2="572.8984"/><text fill="#000000" font-family="FG Virgil" font-size="13" font-weight="bold" lengthAdjust="spacing" textLength="14" x="567.5" y="567.6357">12</text><text fill="#000000" font-family="FG Virgil" font-size="13" lengthAdjust="spacing" textLength="213" x="585.5" y="567.6357">exam enrollments of course selected</text><polygon fill="#181818" points="317.5,600.1895,307.5,604.1895,317.5,608.1895,313.5,604.1895" style="stroke:#181818;stroke-width:1.0;"/><line style="stroke:#181818;stroke-width:1.0;stroke-dasharray:2.0,2.0;" x1="311.5" x2="544.5" y1="604.1895" y2="604.1895"/><text fill="#000000" font-family="FG Virgil" font-size="13" font-weight="bold" lengthAdjust="spacing" textLength="14" x="323.5" y="598.9268">13</text><text fill="#000000" font-family="FG Virgil" font-size="13" lengthAdjust="spacing" textLength="149" x="341.5" y="598.9268">grades of course selected</text><line style="stroke:#000000;stroke-width:1.0;stroke-dasharray:2.0,2.0;" x1="20" x2="1212.5" y1="613.1895" y2="613.1895"/><text fill="#000000" font-family="FG Virgil" font-size="11" font-weight="bold" lengthAdjust="spacing" textLength="215" x="25" y="625.0596">[if option is view grades of all courses]</text><path d="M227,635.8203 L300,635.8203 L300,645.1113 L290,655.1113 L227,655.1113 L227,635.8203 " fill="#EEEEEE" style="stroke:#000000;stroke-width:1.5;"/><rect fill="none" height="144.4551" style="stroke:#000000;stroke-width:1.5;" width="975.5" x="227" y="635.8203"/><text fill="#000000" font-family="FG Virgil" font-size="13" font-weight="bold" lengthAdjust="spacing" textLength="28" x="242" y="650.8486">loop</text><text fill="#000000" font-family="FG Virgil" font-size="11" font-weight="bold" lengthAdjust="spacing" textLength="212" x="315" y="649.6904">[for course in list of courses available]</text><polygon fill="#181818" points="528.5,674.4023,538.5,678.4023,528.5,682.4023,532.5,678.4023" style="stroke:#181818;stroke-width:1.0;"/><line style="stroke:#181818;stroke-width:1.0;" x1="306.5" x2="534.5" y1="678.4023" y2="678.4023"/><text fill="#000000" font-family="FG Virgil" font-size="13" font-weight="bold" lengthAdjust="spacing" textLength="14" x="313.5" y="673.1396">14</text><text fill="#000000" font-family="FG Virgil" font-size="13" lengthAdjust="spacing" textLength="163" x="331.5" y="673.1396">findGradesOfCourse(course)</text><polygon fill="#181818" points="1088,705.6934,1098,709.6934,1088,713.6934,1092,709.6934" style="stroke:#181818;stroke-width:1.0;"/><line style="stroke:#181818;stroke-width:1.0;" x1="550.5" x2="1094" y1="709.6934" y2="709.6934"/><text fill="#000000" font-family="FG Virgil" font-size="13" font-weight="bold" lengthAdjust="spacing" textLength="14" x="557.5" y="704.4307">15</text><text fill="#000000" font-family="FG Virgil" font-size="13" lengthAdjust="spacing" textLength="195" x="575.5" y="704.4307">findExamEnrollsOfCourse(course)</text><polygon fill="#181818" points="561.5,736.9844,551.5,740.9844,561.5,744.9844,557.5,740.9844" style="stroke:#181818;stroke-width:1.0;"/><line style="stroke:#181818;stroke-width:1.0;" x1="555.5" x2="1104" y1="740.9844" y2="740.9844"/><text fill="#000000" font-family="FG Virgil" font-size="13" font-weight="bold" lengthAdjust="spacing" textLength="14" x="567.5" y="735.7217">16</text><text fill="#000000" font-family="FG Virgil" font-size="13" lengthAdjust="spacing" textLength="213" x="585.5" y="735.7217">exam enrollments of course selected</text><polygon fill="#181818" points="317.5,768.2754,307.5,772.2754,317.5,776.2754,313.5,772.2754" style="stroke:#181818;stroke-width:1.0;"/><line style="stroke:#181818;stroke-width:1.0;stroke-dasharray:2.0,2.0;" x1="311.5" x2="544.5" y1="772.2754" y2="772.2754"/><text fill="#000000" font-family="FG Virgil" font-size="13" font-weight="bold" lengthAdjust="spacing" textLength="14" x="323.5" y="767.0127">17</text><text fill="#000000" font-family="FG Virgil" font-size="13" lengthAdjust="spacing" textLength="149" x="341.5" y="767.0127">grades of course selected</text><line style="stroke:#000000;stroke-width:1.0;stroke-dasharray:2.0,2.0;" x1="10" x2="1222.5" y1="795.2754" y2="795.2754"/><text fill="#000000" font-family="FG Virgil" font-size="11" font-weight="bold" lengthAdjust="spacing" textLength="240" x="15" y="807.1455">[if exams available for teacher list is empty]</text><polygon fill="#181818" points="70.5,830.1973,60.5,834.1973,70.5,838.1973,66.5,834.1973" style="stroke:#181818;stroke-width:1.0;"/><line style="stroke:#181818;stroke-width:1.0;" x1="64.5" x2="295.5" y1="834.1973" y2="834.1973"/><text fill="#000000" font-family="FG Virgil" font-size="13" font-weight="bold" lengthAdjust="spacing" textLength="14" x="76.5" y="828.9346">18</text><text fill="#000000" font-family="FG Virgil" font-size="13" lengthAdjust="spacing" textLength="185" x="94.5" y="828.9346">inform about no exams available</text><!--SRC=[xLPDZzem4BtdLyojkuU5xQK7X91MQ5bLgbgfs-sfby4PY8LZHxR3bd_VSKm-20dGQrKVK6BxlJSUlvdm8VE-c4sdXKBjornDXCcdRYTrWHRpIUPpbJIla1jjH6PDJk1jIPsL0iKEj_Jg3uh0al2TjPGsM2g_Cjf_HOQkNk2dj5lPPNOPfkPTwYriK3bAiFH6b_cQR9AWyCR23qAHaGLqy1Gc4WPwAMJ1WSCNwVppRynVBARatZw7NVmxdnUM76cFNXgzM2I2Ox16zVOluwoAx9st-HoBGaan17_QerIuLhGqfNLzaYix-iGfUboZ8mX1VQV2ECb7F0IctinyRfkNFl1P1_gSptjECRZM8qkgnCB38kHkniYT0szWB-aT51y8p0QsLSR24p5hk1kvHq-CI8070ndUEUaCDbAdnmmq6LaPUxpFk_iAr_2qq6e-Z0uRSr_9x8rw9vgNAPlzOMZ3-wtSPbKohiRYC-b0j3DhKaPlgwo-lSB7nyTF4rXc97QG6b7cjLDF9A-8FFJpNT-KY5i1Qoni-79zJ4EZaDBVfg6dNLdbTisENeyRbGTPKmmpH1rEALy3K5xuGnDLC1v74ntSUjUHucO4HXEO8gJsbwxitDeOZufJLAgEls4zBOX8vZfihPTYy74sH3YYSdApvp5tGXv43CKppZrGYB7XVTl4wxsBmFiJvALI72x9qVuIDTlboy8ducESPuWmHWFefo3qBA1cfsizUqmcfMS27SVU7DHGZRHckAGuNXzX47yRB_jimCGyb355LKX7QQd7I_Q_ZVvv6rLMqYsYVgxj5SxdhhJWy_RRTZAf6P43hatfkLVt-P9QinCb_t_u0m00]--></g></svg>