<?xml version="1.0" encoding="us-ascii" standalone="no"?><svg xmlns="http://www.w3.org/2000/svg" xmlns:xlink="http://www.w3.org/1999/xlink" contentStyleType="text/css" height="474px" preserveAspectRatio="none" style="width:412px;height:474px;background:#FFFFFF;" version="1.1" viewBox="0 0 412 474" width="412px" zoomAndPan="magnify"><defs/><g><rect fill="none" height="242.2988" style="stroke:#000000;stroke-width:1.5;" width="395.5" x="10" y="131.9121"/><rect fill="none" height="98.5039" style="stroke:#000000;stroke-width:1.5;" width="375.5" x="20" y="220.7852"/><line style="stroke:#181818;stroke-width:0.5;stroke-dasharray:5.0,5.0;" x1="59" x2="59" y1="83.6211" y2="391.2109"/><line style="stroke:#181818;stroke-width:0.5;stroke-dasharray:5.0,5.0;" x1="355.5" x2="355.5" y1="83.6211" y2="391.2109"/><text fill="#000000" font-family="sans-serif" font-size="14" lengthAdjust="spacing" textLength="53" x="30" y="80.1074">Teacher</text><ellipse cx="59.5" cy="13.5" fill="#E2E2F0" rx="8" ry="8" style="stroke:#181818;stroke-width:0.5;"/><path d="M59.5,21.5 L59.5,48.5 M46.5,29.5 L72.5,29.5 M59.5,48.5 L46.5,63.5 M59.5,48.5 L72.5,63.5 " fill="none" style="stroke:#181818;stroke-width:0.5;"/><text fill="#000000" font-family="sans-serif" font-size="14" lengthAdjust="spacing" textLength="53" x="30" y="405.3184">Teacher</text><ellipse cx="59.5" cy="417.332" fill="#E2E2F0" rx="8" ry="8" style="stroke:#181818;stroke-width:0.5;"/><path d="M59.5,425.332 L59.5,452.332 M46.5,433.332 L72.5,433.332 M59.5,452.332 L46.5,467.332 M59.5,452.332 L72.5,467.332 " fill="none" style="stroke:#181818;stroke-width:0.5;"/><rect fill="#E2E2F0" height="32.6211" rx="2.5" ry="2.5" style="stroke:#181818;stroke-width:0.5;" width="60" x="325.5" y="50"/><text fill="#000000" font-family="sans-serif" font-size="14" lengthAdjust="spacing" textLength="46" x="332.5" y="72.1074">System</text><rect fill="#E2E2F0" height="32.6211" rx="2.5" ry="2.5" style="stroke:#181818;stroke-width:0.5;" width="60" x="325.5" y="390.2109"/><text fill="#000000" font-family="sans-serif" font-size="14" lengthAdjust="spacing" textLength="46" x="332.5" y="412.3184">System</text><polygon fill="#181818" points="343.5,112.9121,353.5,116.9121,343.5,120.9121,347.5,116.9121" style="stroke:#181818;stroke-width:1.0;"/><line style="stroke:#181818;stroke-width:1.0;" x1="59.5" x2="349.5" y1="116.9121" y2="116.9121"/><text fill="#000000" font-family="sans-serif" font-size="13" font-weight="bold" lengthAdjust="spacing" textLength="7" x="66.5" y="111.6494">1</text><text fill="#000000" font-family="sans-serif" font-size="13" lengthAdjust="spacing" textLength="199" x="77.5" y="111.6494">asks to view list of grades of exam</text><path d="M10,131.9121 L71,131.9121 L71,141.2031 L61,151.2031 L10,151.2031 L10,131.9121 " fill="#EEEEEE" style="stroke:#000000;stroke-width:1.5;"/><rect fill="none" height="242.2988" style="stroke:#000000;stroke-width:1.5;" width="395.5" x="10" y="131.9121"/><text fill="#000000" font-family="sans-serif" font-size="13" font-weight="bold" lengthAdjust="spacing" textLength="16" x="25" y="146.9404">alt</text><text fill="#000000" font-family="sans-serif" font-size="11" font-weight="bold" lengthAdjust="spacing" textLength="261" x="86" y="145.7822">[if exams available for teacher list is not empty]</text><polygon fill="#181818" points="70.5,170.4941,60.5,174.4941,70.5,178.4941,66.5,174.4941" style="stroke:#181818;stroke-width:1.0;"/><line style="stroke:#181818;stroke-width:1.0;stroke-dasharray:2.0,2.0;" x1="64.5" x2="354.5" y1="174.4941" y2="174.4941"/><text fill="#000000" font-family="sans-serif" font-size="13" font-weight="bold" lengthAdjust="spacing" textLength="7" x="76.5" y="169.2314">2</text><text fill="#000000" font-family="sans-serif" font-size="13" lengthAdjust="spacing" textLength="136" x="87.5" y="169.2314">asks to select on exam</text><polygon fill="#181818" points="343.5,201.7852,353.5,205.7852,343.5,209.7852,347.5,205.7852" style="stroke:#181818;stroke-width:1.0;"/><line style="stroke:#181818;stroke-width:1.0;" x1="59.5" x2="349.5" y1="205.7852" y2="205.7852"/><text fill="#000000" font-family="sans-serif" font-size="13" font-weight="bold" lengthAdjust="spacing" textLength="7" x="66.5" y="200.5225">3</text><text fill="#000000" font-family="sans-serif" font-size="13" lengthAdjust="spacing" textLength="96" x="77.5" y="200.5225">selects on exam</text><path d="M20,220.7852 L81,220.7852 L81,230.0762 L71,240.0762 L20,240.0762 L20,220.7852 " fill="#EEEEEE" style="stroke:#000000;stroke-width:1.5;"/><rect fill="none" height="98.5039" style="stroke:#000000;stroke-width:1.5;" width="375.5" x="20" y="220.7852"/><text fill="#000000" font-family="sans-serif" font-size="13" font-weight="bold" lengthAdjust="spacing" textLength="16" x="35" y="235.8135">alt</text><text fill="#000000" font-family="sans-serif" font-size="11" font-weight="bold" lengthAdjust="spacing" textLength="182" x="96" y="234.6553">[if exam grades list is not empty]</text><polygon fill="#181818" points="70.5,259.3672,60.5,263.3672,70.5,267.3672,66.5,263.3672" style="stroke:#181818;stroke-width:1.0;"/><line style="stroke:#181818;stroke-width:1.0;stroke-dasharray:2.0,2.0;" x1="64.5" x2="354.5" y1="263.3672" y2="263.3672"/><text fill="#000000" font-family="sans-serif" font-size="13" font-weight="bold" lengthAdjust="spacing" textLength="7" x="76.5" y="258.1045">4</text><text fill="#000000" font-family="sans-serif" font-size="13" lengthAdjust="spacing" textLength="136" x="87.5" y="258.1045">output exam grades list</text><line style="stroke:#000000;stroke-width:1.0;stroke-dasharray:2.0,2.0;" x1="20" x2="395.5" y1="272.3672" y2="272.3672"/><text fill="#000000" font-family="sans-serif" font-size="11" font-weight="bold" lengthAdjust="spacing" textLength="161" x="25" y="284.2373">[if exam grades list is empty]</text><polygon fill="#181818" points="70.5,307.2891,60.5,311.2891,70.5,315.2891,66.5,311.2891" style="stroke:#181818;stroke-width:1.0;"/><line style="stroke:#181818;stroke-width:1.0;stroke-dasharray:2.0,2.0;" x1="64.5" x2="354.5" y1="311.2891" y2="311.2891"/><text fill="#000000" font-family="sans-serif" font-size="13" font-weight="bold" lengthAdjust="spacing" textLength="7" x="76.5" y="306.0264">5</text><text fill="#000000" font-family="sans-serif" font-size="13" lengthAdjust="spacing" textLength="261" x="87.5" y="306.0264">inform about no grades for the exam selected</text><line style="stroke:#000000;stroke-width:1.0;stroke-dasharray:2.0,2.0;" x1="10" x2="405.5" y1="327.2891" y2="327.2891"/><text fill="#000000" font-family="sans-serif" font-size="11" font-weight="bold" lengthAdjust="spacing" textLength="240" x="15" y="339.1592">[if exams available for teacher list is empty]</text><polygon fill="#181818" points="70.5,362.2109,60.5,366.2109,70.5,370.2109,66.5,366.2109" style="stroke:#181818;stroke-width:1.0;"/><line style="stroke:#181818;stroke-width:1.0;stroke-dasharray:2.0,2.0;" x1="64.5" x2="354.5" y1="366.2109" y2="366.2109"/><text fill="#000000" font-family="sans-serif" font-size="13" font-weight="bold" lengthAdjust="spacing" textLength="7" x="76.5" y="360.9482">6</text><text fill="#000000" font-family="sans-serif" font-size="13" lengthAdjust="spacing" textLength="185" x="87.5" y="360.9482">inform about no exams available</text><!--SRC=[XP3DJiD038Jl-nI-SGgvLmY9Pu0NS98fMR4_8VOM-lOuMIf2I-cUBCipt-pSZQgJxDfs2foqn73VvzWAtWjIZsRm_3fpT8vxpJEzWFiHCx7GqxAmVT6SIknWyxgYvf6UZwA8jBExDo7DTF3ueE15AU_930V8Ck7Jh3ae-JeByO5zu2w0zcQbtxXLwOLILaASzEZ8NiKzDCqbJn3G6onLnC_rDbmzabzNcp2dd7_3hmJ8HQUY5_fLWY2uPdxJs2Sh919tHh0e9_tQqeZgMJ-4eTBIuBR4Mzt-s-iv_SpGBR0l]--></g></svg>