<?xml version="1.0" encoding="us-ascii" standalone="no"?><svg xmlns="http://www.w3.org/2000/svg" xmlns:xlink="http://www.w3.org/1999/xlink" contentStyleType="text/css" height="946px" preserveAspectRatio="none" style="width:1418px;height:946px;background:#FFFFFF;" version="1.1" viewBox="0 0 1418 946" width="1418px" zoomAndPan="magnify"><defs/><g><rect fill="#FFFFFF" height="718.4531" style="stroke:#181818;stroke-width:1.0;" width="10" x="291" y="115.2871"/><rect fill="#FFFFFF" height="286.7949" style="stroke:#181818;stroke-width:1.0;" width="10" x="642" y="144.5977"/><rect fill="#FFFFFF" height="269.7949" style="stroke:#181818;stroke-width:1.0;" width="10" x="642" y="534.6348"/><rect fill="#FFFFFF" height="29.3105" style="stroke:#181818;stroke-width:1.0;" width="10" x="923" y="173.9082"/><rect fill="#FFFFFF" height="29.3105" style="stroke:#181818;stroke-width:1.0;" width="10" x="1089" y="716.498"/><rect fill="#FFFFFF" height="29.3105" style="stroke:#181818;stroke-width:1.0;" width="10" x="1335.5" y="232.5293"/><rect fill="none" height="90.9316" style="stroke:#000000;stroke-width:1.5;" width="783" x="524" y="312.1504"/><rect fill="none" height="59.6211" style="stroke:#000000;stroke-width:1.5;" width="763" x="534" y="336.4609"/><line style="stroke:#181818;stroke-width:0.5;stroke-dasharray:5.0,5.0;" x1="38" x2="38" y1="83.9766" y2="851.7402"/><line style="stroke:#181818;stroke-width:0.5;stroke-dasharray:5.0,5.0;" x1="296" x2="296" y1="83.9766" y2="851.7402"/><line style="stroke:#181818;stroke-width:0.5;stroke-dasharray:5.0,5.0;" x1="647" x2="647" y1="83.9766" y2="851.7402"/><line style="stroke:#181818;stroke-width:0.5;stroke-dasharray:5.0,5.0;" x1="928" x2="928" y1="83.9766" y2="851.7402"/><line style="stroke:#181818;stroke-width:0.5;stroke-dasharray:5.0,5.0;" x1="1093.5" x2="1093.5" y1="83.9766" y2="851.7402"/><line style="stroke:#181818;stroke-width:0.5;stroke-dasharray:5.0,5.0;" x1="1212.5" x2="1212.5" y1="83.9766" y2="851.7402"/><line style="stroke:#181818;stroke-width:0.5;stroke-dasharray:5.0,5.0;" x1="1340.5" x2="1340.5" y1="83.9766" y2="851.7402"/><text fill="#000000" font-family="FG Virgil" font-size="14" lengthAdjust="spacing" textLength="60" x="5" y="81.0234">Manager</text><ellipse cx="38" cy="15.9883" fill="#E3E3E3" rx="8" ry="8" style="stroke:#181818;stroke-width:0.5;"/><path d="M38,23.9883 L38,50.9883 M25,31.9883 L51,31.9883 M38,50.9883 L25,65.9883 M38,50.9883 L51,65.9883 " fill="none" style="stroke:#181818;stroke-width:0.5;"/><text fill="#000000" font-family="FG Virgil" font-size="14" lengthAdjust="spacing" textLength="60" x="5" y="864.2754">Manager</text><ellipse cx="38" cy="875.7285" fill="#E3E3E3" rx="8" ry="8" style="stroke:#181818;stroke-width:0.5;"/><path d="M38,883.7285 L38,910.7285 M25,891.7285 L51,891.7285 M38,910.7285 L25,925.7285 M38,910.7285 L51,925.7285 " fill="none" style="stroke:#181818;stroke-width:0.5;"/><rect fill="#E3E3E3" height="46.9766" rx="2.5" ry="2.5" style="stroke:#181818;stroke-width:0.5;" width="158" x="217" y="36"/><text fill="#000000" font-family="FG Virgil" font-size="14" font-style="italic" lengthAdjust="spacing" textLength="101" x="245.5" y="56.5352">&#171;presentation&#187;</text><text fill="#000000" font-family="FG Virgil" font-size="14" lengthAdjust="spacing" textLength="144" x="224" y="73.0234">RequestEnrollmentUI</text><rect fill="#E3E3E3" height="46.9766" rx="2.5" ry="2.5" style="stroke:#181818;stroke-width:0.5;" width="158" x="217" y="850.7402"/><text fill="#000000" font-family="FG Virgil" font-size="14" font-style="italic" lengthAdjust="spacing" textLength="101" x="245.5" y="871.2754">&#171;presentation&#187;</text><text fill="#000000" font-family="FG Virgil" font-size="14" lengthAdjust="spacing" textLength="144" x="224" y="887.7637">RequestEnrollmentUI</text><text fill="#000000" font-family="FG Virgil" font-size="14" font-style="italic" lengthAdjust="spacing" textLength="90" x="599" y="64.5352">&#171;application&#187;</text><text fill="#000000" font-family="FG Virgil" font-size="14" lengthAdjust="spacing" textLength="200" x="544" y="81.0234">RequestEnrollmentController</text><ellipse cx="647" cy="35" fill="#E3E3E3" rx="12" ry="12" style="stroke:#181818;stroke-width:0.5;"/><polygon fill="#181818" points="643,23,649,18,647,23,649,28,643,23" style="stroke:#181818;stroke-width:1.0;"/><text fill="#000000" font-family="FG Virgil" font-size="14" font-style="italic" lengthAdjust="spacing" textLength="90" x="599" y="864.2754">&#171;application&#187;</text><text fill="#000000" font-family="FG Virgil" font-size="14" lengthAdjust="spacing" textLength="200" x="544" y="880.7637">RequestEnrollmentController</text><ellipse cx="647" cy="899.7168" fill="#E3E3E3" rx="12" ry="12" style="stroke:#181818;stroke-width:0.5;"/><polygon fill="#181818" points="643,887.7168,649,882.7168,647,887.7168,649,892.7168,643,887.7168" style="stroke:#181818;stroke-width:1.0;"/><text fill="#000000" font-family="FG Virgil" font-size="14" font-style="italic" lengthAdjust="spacing" textLength="84" x="883" y="64.5352">&#171;repository&#187;</text><text fill="#000000" font-family="FG Virgil" font-size="14" lengthAdjust="spacing" textLength="122" x="864" y="81.0234">CourseRepository</text><path d="M910,15 C910,5 928,5 928,5 C928,5 946,5 946,15 L946,41 C946,51 928,51 928,51 C928,51 910,51 910,41 L910,15 " fill="#E3E3E3" style="stroke:#181818;stroke-width:1.5;"/><path d="M910,15 C910,25 928,25 928,25 C928,25 946,25 946,15 " fill="none" style="stroke:#181818;stroke-width:1.5;"/><text fill="#000000" font-family="FG Virgil" font-size="14" font-style="italic" lengthAdjust="spacing" textLength="84" x="883" y="864.2754">&#171;repository&#187;</text><text fill="#000000" font-family="FG Virgil" font-size="14" lengthAdjust="spacing" textLength="122" x="864" y="880.7637">CourseRepository</text><path d="M910,893.7168 C910,883.7168 928,883.7168 928,883.7168 C928,883.7168 946,883.7168 946,893.7168 L946,919.7168 C946,929.7168 928,929.7168 928,929.7168 C928,929.7168 910,929.7168 910,919.7168 L910,893.7168 " fill="#E3E3E3" style="stroke:#181818;stroke-width:1.5;"/><path d="M910,893.7168 C910,903.7168 928,903.7168 928,903.7168 C928,903.7168 946,903.7168 946,893.7168 " fill="none" style="stroke:#181818;stroke-width:1.5;"/><rect fill="#E3E3E3" height="46.9766" rx="2.5" ry="2.5" style="stroke:#181818;stroke-width:0.5;" width="137" x="1025.5" y="36"/><text fill="#000000" font-family="FG Virgil" font-size="14" font-style="italic" lengthAdjust="spacing" textLength="63" x="1062.5" y="56.5352">&#171;builder&#187;</text><text fill="#000000" font-family="FG Virgil" font-size="14" lengthAdjust="spacing" textLength="123" x="1032.5" y="73.0234">EnrollmentBuilder</text><rect fill="#E3E3E3" height="46.9766" rx="2.5" ry="2.5" style="stroke:#181818;stroke-width:0.5;" width="137" x="1025.5" y="850.7402"/><text fill="#000000" font-family="FG Virgil" font-size="14" font-style="italic" lengthAdjust="spacing" textLength="63" x="1062.5" y="871.2754">&#171;builder&#187;</text><text fill="#000000" font-family="FG Virgil" font-size="14" lengthAdjust="spacing" textLength="123" x="1032.5" y="887.7637">EnrollmentBuilder</text><text fill="#000000" font-family="FG Virgil" font-size="14" font-style="italic" lengthAdjust="spacing" textLength="67" x="1176.5" y="64.5352">&#171;Domain&#187;</text><text fill="#000000" font-family="FG Virgil" font-size="14" lengthAdjust="spacing" textLength="75" x="1172.5" y="81.0234">Enrollment</text><ellipse cx="1213" cy="35" fill="#E3E3E3" rx="12" ry="12" style="stroke:#181818;stroke-width:0.5;"/><line style="stroke:#181818;stroke-width:0.5;" x1="1201" x2="1225" y1="49" y2="49"/><text fill="#000000" font-family="FG Virgil" font-size="14" font-style="italic" lengthAdjust="spacing" textLength="67" x="1176.5" y="864.2754">&#171;Domain&#187;</text><text fill="#000000" font-family="FG Virgil" font-size="14" lengthAdjust="spacing" textLength="75" x="1172.5" y="880.7637">Enrollment</text><ellipse cx="1213" cy="899.7168" fill="#E3E3E3" rx="12" ry="12" style="stroke:#181818;stroke-width:0.5;"/><line style="stroke:#181818;stroke-width:0.5;" x1="1201" x2="1225" y1="913.7168" y2="913.7168"/><text fill="#000000" font-family="FG Virgil" font-size="14" font-style="italic" lengthAdjust="spacing" textLength="84" x="1295.5" y="64.5352">&#171;repository&#187;</text><text fill="#000000" font-family="FG Virgil" font-size="14" lengthAdjust="spacing" textLength="148" x="1263.5" y="81.0234">EnrollmentRepository</text><path d="M1322.5,15 C1322.5,5 1340.5,5 1340.5,5 C1340.5,5 1358.5,5 1358.5,15 L1358.5,41 C1358.5,51 1340.5,51 1340.5,51 C1340.5,51 1322.5,51 1322.5,41 L1322.5,15 " fill="#E3E3E3" style="stroke:#181818;stroke-width:1.5;"/><path d="M1322.5,15 C1322.5,25 1340.5,25 1340.5,25 C1340.5,25 1358.5,25 1358.5,15 " fill="none" style="stroke:#181818;stroke-width:1.5;"/><text fill="#000000" font-family="FG Virgil" font-size="14" font-style="italic" lengthAdjust="spacing" textLength="84" x="1295.5" y="864.2754">&#171;repository&#187;</text><text fill="#000000" font-family="FG Virgil" font-size="14" lengthAdjust="spacing" textLength="148" x="1263.5" y="880.7637">EnrollmentRepository</text><path d="M1322.5,893.7168 C1322.5,883.7168 1340.5,883.7168 1340.5,883.7168 C1340.5,883.7168 1358.5,883.7168 1358.5,893.7168 L1358.5,919.7168 C1358.5,929.7168 1340.5,929.7168 1340.5,929.7168 C1340.5,929.7168 1322.5,929.7168 1322.5,919.7168 L1322.5,893.7168 " fill="#E3E3E3" style="stroke:#181818;stroke-width:1.5;"/><path d="M1322.5,893.7168 C1322.5,903.7168 1340.5,903.7168 1340.5,903.7168 C1340.5,903.7168 1358.5,903.7168 1358.5,893.7168 " fill="none" style="stroke:#181818;stroke-width:1.5;"/><rect fill="#FFFFFF" height="718.4531" style="stroke:#181818;stroke-width:1.0;" width="10" x="291" y="115.2871"/><rect fill="#FFFFFF" height="286.7949" style="stroke:#181818;stroke-width:1.0;" width="10" x="642" y="144.5977"/><rect fill="#FFFFFF" height="269.7949" style="stroke:#181818;stroke-width:1.0;" width="10" x="642" y="534.6348"/><rect fill="#FFFFFF" height="29.3105" style="stroke:#181818;stroke-width:1.0;" width="10" x="923" y="173.9082"/><rect fill="#FFFFFF" height="29.3105" style="stroke:#181818;stroke-width:1.0;" width="10" x="1089" y="716.498"/><rect fill="#FFFFFF" height="29.3105" style="stroke:#181818;stroke-width:1.0;" width="10" x="1335.5" y="232.5293"/><polygon fill="#181818" points="279,111.2871,289,115.2871,279,119.2871,283,115.2871" style="stroke:#181818;stroke-width:1.0;"/><line style="stroke:#181818;stroke-width:1.0;" x1="38" x2="285" y1="115.2871" y2="115.2871"/><text fill="#000000" font-family="FG Virgil" font-size="13" font-weight="bold" lengthAdjust="spacing" textLength="9" x="45" y="110.5449">1</text><text fill="#000000" font-family="FG Virgil" font-size="13" lengthAdjust="spacing" textLength="159" x="58" y="110.5449">asks to enroll in a course</text><polygon fill="#181818" points="630,140.5977,640,144.5977,630,148.5977,634,144.5977" style="stroke:#181818;stroke-width:1.0;"/><line style="stroke:#181818;stroke-width:1.0;" x1="301" x2="636" y1="144.5977" y2="144.5977"/><text fill="#000000" font-family="FG Virgil" font-size="13" font-weight="bold" lengthAdjust="spacing" textLength="9" x="308" y="139.8555">2</text><text fill="#000000" font-family="FG Virgil" font-size="13" lengthAdjust="spacing" textLength="309" x="321" y="139.8555">findCoursesAvailableForStudentToEnroll(student)</text><polygon fill="#181818" points="911,169.9082,921,173.9082,911,177.9082,915,173.9082" style="stroke:#181818;stroke-width:1.0;"/><line style="stroke:#181818;stroke-width:1.0;" x1="652" x2="917" y1="173.9082" y2="173.9082"/><text fill="#000000" font-family="FG Virgil" font-size="13" font-weight="bold" lengthAdjust="spacing" textLength="9" x="659" y="169.166">3</text><text fill="#000000" font-family="FG Virgil" font-size="13" lengthAdjust="spacing" textLength="195" x="672" y="169.166">findCoursesInEnrollmentStatus</text><polygon fill="#181818" points="663,199.2188,653,203.2188,663,207.2188,659,203.2188" style="stroke:#181818;stroke-width:1.0;"/><line style="stroke:#181818;stroke-width:1.0;stroke-dasharray:2.0,2.0;" x1="657" x2="927" y1="203.2188" y2="203.2188"/><text fill="#000000" font-family="FG Virgil" font-size="13" font-weight="bold" lengthAdjust="spacing" textLength="9" x="669" y="198.4766">4</text><text fill="#000000" font-family="FG Virgil" font-size="13" lengthAdjust="spacing" textLength="4" x="682" y="198.4766">&#160;</text><polygon fill="#181818" points="1323.5,228.5293,1333.5,232.5293,1323.5,236.5293,1327.5,232.5293" style="stroke:#181818;stroke-width:1.0;"/><line style="stroke:#181818;stroke-width:1.0;" x1="652" x2="1329.5" y1="232.5293" y2="232.5293"/><text fill="#000000" font-family="FG Virgil" font-size="13" font-weight="bold" lengthAdjust="spacing" textLength="9" x="659" y="227.7871">5</text><text fill="#000000" font-family="FG Virgil" font-size="13" lengthAdjust="spacing" textLength="219" x="672" y="227.7871">findEnrollmentsOfStudent(student)</text><polygon fill="#181818" points="663,257.8398,653,261.8398,663,265.8398,659,261.8398" style="stroke:#181818;stroke-width:1.0;"/><line style="stroke:#181818;stroke-width:1.0;stroke-dasharray:2.0,2.0;" x1="657" x2="1339.5" y1="261.8398" y2="261.8398"/><text fill="#000000" font-family="FG Virgil" font-size="13" font-weight="bold" lengthAdjust="spacing" textLength="9" x="669" y="257.0977">6</text><text fill="#000000" font-family="FG Virgil" font-size="13" lengthAdjust="spacing" textLength="4" x="682" y="257.0977">&#160;</text><path d="M657,274.8398 L657,299.8398 L1372,299.8398 L1372,284.8398 L1362,274.8398 L657,274.8398 " fill="#FAFAFA" style="stroke:#181818;stroke-width:0.5;"/><path d="M1362,274.8398 L1362,284.8398 L1372,284.8398 L1362,274.8398 " fill="#FAFAFA" style="stroke:#181818;stroke-width:0.5;"/><text fill="#000000" font-family="FG Virgil" font-size="13" lengthAdjust="spacing" textLength="694" x="663" y="292.4082">For each cycle used to remove the courses where the student is already enrolled/already requested to enroll at</text><path d="M524,312.1504 L586,312.1504 L586,319.4609 L576,329.4609 L524,329.4609 L524,312.1504 " fill="#EEEEEE" style="stroke:#000000;stroke-width:1.5;"/><rect fill="none" height="90.9316" style="stroke:#000000;stroke-width:1.5;" width="783" x="524" y="312.1504"/><text fill="#000000" font-family="FG Virgil" font-size="13" font-weight="bold" lengthAdjust="spacing" textLength="17" x="539" y="325.7188">alt</text><text fill="#000000" font-family="FG Virgil" font-size="11" font-weight="bold" lengthAdjust="spacing" textLength="304" x="601" y="324.7852">[for Enrollment enrollment : studentEnrollmentsList()]</text><path d="M534,336.4609 L596,336.4609 L596,343.7715 L586,353.7715 L534,353.7715 L534,336.4609 " fill="#EEEEEE" style="stroke:#000000;stroke-width:1.5;"/><rect fill="none" height="59.6211" style="stroke:#000000;stroke-width:1.5;" width="763" x="534" y="336.4609"/><text fill="#000000" font-family="FG Virgil" font-size="13" font-weight="bold" lengthAdjust="spacing" textLength="17" x="549" y="350.0293">alt</text><text fill="#000000" font-family="FG Virgil" font-size="11" font-weight="bold" lengthAdjust="spacing" textLength="681" x="611" y="349.0957">[if coursesList.contains(enrollment.course) and (enrollment.enrollmentStatus is 'ACCEPTED' or 'UNDER_APPRECIATION')]</text><line style="stroke:#181818;stroke-width:1.0;" x1="652" x2="694" y1="375.082" y2="375.082"/><line style="stroke:#181818;stroke-width:1.0;" x1="694" x2="694" y1="375.082" y2="388.082"/><line style="stroke:#181818;stroke-width:1.0;" x1="653" x2="694" y1="388.082" y2="388.082"/><polygon fill="#181818" points="663,384.082,653,388.082,663,392.082,659,388.082" style="stroke:#181818;stroke-width:1.0;"/><text fill="#000000" font-family="FG Virgil" font-size="13" font-weight="bold" lengthAdjust="spacing" textLength="9" x="659" y="370.3398">7</text><text fill="#000000" font-family="FG Virgil" font-size="13" lengthAdjust="spacing" textLength="244" x="672" y="370.3398">coursesList.remove(enrollment.course)</text><polygon fill="#181818" points="312,427.3926,302,431.3926,312,435.3926,308,431.3926" style="stroke:#181818;stroke-width:1.0;"/><line style="stroke:#181818;stroke-width:1.0;stroke-dasharray:2.0,2.0;" x1="306" x2="646" y1="431.3926" y2="431.3926"/><text fill="#000000" font-family="FG Virgil" font-size="13" font-weight="bold" lengthAdjust="spacing" textLength="9" x="318" y="426.6504">8</text><text fill="#000000" font-family="FG Virgil" font-size="13" lengthAdjust="spacing" textLength="4" x="331" y="426.6504">&#160;</text><polygon fill="#181818" points="49,472.0137,39,476.0137,49,480.0137,45,476.0137" style="stroke:#181818;stroke-width:1.0;"/><line style="stroke:#181818;stroke-width:1.0;stroke-dasharray:2.0,2.0;" x1="43" x2="290" y1="476.0137" y2="476.0137"/><text fill="#000000" font-family="FG Virgil" font-size="13" font-weight="bold" lengthAdjust="spacing" textLength="9" x="55" y="463.6162">9</text><text fill="#000000" font-family="FG Virgil" font-size="13" lengthAdjust="spacing" textLength="176" x="68" y="455.9609">shows available courses list</text><text fill="#000000" font-family="FG Virgil" font-size="13" lengthAdjust="spacing" textLength="141" x="68" y="471.2715">asks to choose course</text><polygon fill="#181818" points="279,501.3242,289,505.3242,279,509.3242,283,505.3242" style="stroke:#181818;stroke-width:1.0;"/><line style="stroke:#181818;stroke-width:1.0;" x1="38" x2="285" y1="505.3242" y2="505.3242"/><text fill="#000000" font-family="FG Virgil" font-size="13" font-weight="bold" lengthAdjust="spacing" textLength="18" x="45" y="500.582">10</text><text fill="#000000" font-family="FG Virgil" font-size="13" lengthAdjust="spacing" textLength="98" x="67" y="500.582">chooses course</text><polygon fill="#181818" points="630,530.6348,640,534.6348,630,538.6348,634,534.6348" style="stroke:#181818;stroke-width:1.0;"/><line style="stroke:#181818;stroke-width:1.0;" x1="301" x2="636" y1="534.6348" y2="534.6348"/><text fill="#000000" font-family="FG Virgil" font-size="13" font-weight="bold" lengthAdjust="spacing" textLength="18" x="308" y="529.8926">11</text><text fill="#000000" font-family="FG Virgil" font-size="13" lengthAdjust="spacing" textLength="156" x="330" y="529.8926">createEnrollment(course)</text><polygon fill="#181818" points="1082,559.9453,1092,563.9453,1082,567.9453,1086,563.9453" style="stroke:#181818;stroke-width:1.0;"/><line style="stroke:#181818;stroke-width:1.0;" x1="652" x2="1088" y1="563.9453" y2="563.9453"/><text fill="#000000" font-family="FG Virgil" font-size="13" font-weight="bold" lengthAdjust="spacing" textLength="18" x="659" y="559.2031">12</text><text fill="#000000" font-family="FG Virgil" font-size="13" lengthAdjust="spacing" textLength="38" x="681" y="559.2031">create</text><polygon fill="#181818" points="1082,589.2559,1092,593.2559,1082,597.2559,1086,593.2559" style="stroke:#181818;stroke-width:1.0;"/><line style="stroke:#181818;stroke-width:1.0;" x1="652" x2="1088" y1="593.2559" y2="593.2559"/><text fill="#000000" font-family="FG Virgil" font-size="13" font-weight="bold" lengthAdjust="spacing" textLength="18" x="659" y="588.5137">13</text><text fill="#000000" font-family="FG Virgil" font-size="13" lengthAdjust="spacing" textLength="396" x="681" y="588.5137">withEnrollmentStatus(EnrollmentStatus.UNDER_APPRECIATION)</text><path d="M657,606.2559 L657,631.2559 L910,631.2559 L910,616.2559 L900,606.2559 L657,606.2559 " fill="#FAFAFA" style="stroke:#181818;stroke-width:0.5;"/><path d="M900,606.2559 L900,616.2559 L910,616.2559 L900,606.2559 " fill="#FAFAFA" style="stroke:#181818;stroke-width:0.5;"/><text fill="#000000" font-family="FG Virgil" font-size="13" lengthAdjust="spacing" textLength="232" x="663" y="623.8242">get the student logged in the system</text><polygon fill="#181818" points="1082,653.877,1092,657.877,1082,661.877,1086,657.877" style="stroke:#181818;stroke-width:1.0;"/><line style="stroke:#181818;stroke-width:1.0;" x1="652" x2="1088" y1="657.877" y2="657.877"/><text fill="#000000" font-family="FG Virgil" font-size="13" font-weight="bold" lengthAdjust="spacing" textLength="18" x="659" y="653.1348">14</text><text fill="#000000" font-family="FG Virgil" font-size="13" lengthAdjust="spacing" textLength="117" x="681" y="653.1348">ofStudent(student)</text><polygon fill="#181818" points="1082,683.1875,1092,687.1875,1082,691.1875,1086,687.1875" style="stroke:#181818;stroke-width:1.0;"/><line style="stroke:#181818;stroke-width:1.0;" x1="652" x2="1088" y1="687.1875" y2="687.1875"/><text fill="#000000" font-family="FG Virgil" font-size="13" font-weight="bold" lengthAdjust="spacing" textLength="18" x="659" y="682.4453">15</text><text fill="#000000" font-family="FG Virgil" font-size="13" lengthAdjust="spacing" textLength="106" x="681" y="682.4453">inCourse(course)</text><polygon fill="#181818" points="1077,712.498,1087,716.498,1077,720.498,1081,716.498" style="stroke:#181818;stroke-width:1.0;"/><line style="stroke:#181818;stroke-width:1.0;" x1="652" x2="1083" y1="716.498" y2="716.498"/><text fill="#000000" font-family="FG Virgil" font-size="13" font-weight="bold" lengthAdjust="spacing" textLength="18" x="659" y="711.7559">16</text><text fill="#000000" font-family="FG Virgil" font-size="13" lengthAdjust="spacing" textLength="40" x="681" y="711.7559">build()</text><polygon fill="#181818" points="663,741.8086,653,745.8086,663,749.8086,659,745.8086" style="stroke:#181818;stroke-width:1.0;"/><line style="stroke:#181818;stroke-width:1.0;stroke-dasharray:2.0,2.0;" x1="657" x2="1093" y1="745.8086" y2="745.8086"/><text fill="#000000" font-family="FG Virgil" font-size="13" font-weight="bold" lengthAdjust="spacing" textLength="18" x="669" y="741.0664">17</text><text fill="#000000" font-family="FG Virgil" font-size="13" lengthAdjust="spacing" textLength="4" x="691" y="741.0664">&#160;</text><polygon fill="#181818" points="1328.5,771.1191,1338.5,775.1191,1328.5,779.1191,1332.5,775.1191" style="stroke:#181818;stroke-width:1.0;"/><line style="stroke:#181818;stroke-width:1.0;" x1="652" x2="1334.5" y1="775.1191" y2="775.1191"/><text fill="#000000" font-family="FG Virgil" font-size="13" font-weight="bold" lengthAdjust="spacing" textLength="18" x="659" y="770.377">18</text><text fill="#000000" font-family="FG Virgil" font-size="13" lengthAdjust="spacing" textLength="129" x="681" y="770.377">save(newEnrollment)</text><polygon fill="#181818" points="312,800.4297,302,804.4297,312,808.4297,308,804.4297" style="stroke:#181818;stroke-width:1.0;"/><line style="stroke:#181818;stroke-width:1.0;stroke-dasharray:2.0,2.0;" x1="306" x2="646" y1="804.4297" y2="804.4297"/><text fill="#000000" font-family="FG Virgil" font-size="13" font-weight="bold" lengthAdjust="spacing" textLength="18" x="318" y="799.6875">19</text><text fill="#000000" font-family="FG Virgil" font-size="13" lengthAdjust="spacing" textLength="4" x="340" y="799.6875">&#160;</text><polygon fill="#181818" points="49,829.7402,39,833.7402,49,837.7402,45,833.7402" style="stroke:#181818;stroke-width:1.0;"/><line style="stroke:#181818;stroke-width:1.0;stroke-dasharray:2.0,2.0;" x1="43" x2="295" y1="833.7402" y2="833.7402"/><text fill="#000000" font-family="FG Virgil" font-size="13" font-weight="bold" lengthAdjust="spacing" textLength="18" x="55" y="828.998">20</text><text fill="#000000" font-family="FG Virgil" font-size="13" lengthAdjust="spacing" textLength="207" x="77" y="828.998">informs about operation success</text><!--SRC=[fLPBR-8m4BxdLyoDS2ZSKLI9fR12scqhskvffPL99iIgOsTjfuX_lvEO43lGqceve6GUttppX55XRJMRJYl1fArBCKbLEJMlN5PCit9Is594frSebLHfeLM9O7MDdgPYwIlRuPCz20IDgVLq6UQi5dQbfBrdvBhw3h-utd4VsHGiKtikTv0pOJ1YjLMoBhUeeuYbLcduoIG5qC0Cp1j1H8wMfxmYuh31lpKQkvHQ2L6Yj2_hnf2-awJIQ4Z2B5VozZPAYGPPdRiid4Au6DvRah2g4Zpj439csPOP99jQ6znWfGmdHWVdDv0bYJwzaBFFke_zhUOYSu7FXKcoTK_aJc9k3vvHw4AsTwfaFA3PgqEg5-K3kb5RQxYvfLhEoEdLW5M0hITm2GpIDk6cIVoDMIIx2EX3fIUdleepoBdCN7NC_8rnmRO2Lqe_sJeZ2i_AqOcDUn-tA2VK7gYLDn-lGssaGTs3W6lP9_j4er2R4umN8aGuMRXW0_YR8BkJRORNyKBY5xlWoFSgyv0VwnJM9qZW4bAGnCLGrnFv45Sgij1yLrXGkP_Q3AYvG2W5f8UKha9jC6k6HsEftkY057YS7GFx0hMJ7BC3Re09ZImx78SDisadq6vp7Tfn59djwo4iv1JQsmhi7sTT2A-uFxYnyJWeLGF2yuvWOp1f3WTjbebxj8dJZu7937mv3gQjoMSqNooMZy_Bkn4Gkz7B_TroysV- -BXPBjRpv_N3_IYaS6d6lUhwr5n9Bn0B055cqQLdFqYxwD7P90VZqQmssRMNWSfPg3qrgzleKqy54VijkukH5agPJjcY18V5gOsl7nwG9cNglyM-SR6VvUTFnVc5xQ2_uB3djXZUb7Wec9mtUVoPpTcX3RP1gDsEnftkRIizqF2NN-2gtZyUrvsvT8Si7exKTTVsPol-y58TZTyvKntKLsxK4F5JrzOmMX-9-rxjMF_FQhIreqDKqdPiLKrThb2t_o70r6cAnaGU447_0m00]--></g></svg>