<?xml version="1.0" encoding="us-ascii" standalone="no"?><svg xmlns="http://www.w3.org/2000/svg" xmlns:xlink="http://www.w3.org/1999/xlink" contentStyleType="text/css" height="761px" preserveAspectRatio="none" style="width:326px;height:761px;background:#FFFFFF;" version="1.1" viewBox="0 0 326 761" width="326px" zoomAndPan="magnify"><defs/><g><rect fill="#FFFFFF" height="581.4688" style="stroke:#181818;stroke-width:1.0;" width="10" x="54.5" y="90.6406"/><rect fill="#FFFFFF" height="28.5234" style="stroke:#181818;stroke-width:1.0;" width="10" x="269.5" y="111.1641"/><rect fill="#FFFFFF" height="28.5234" style="stroke:#181818;stroke-width:1.0;" width="10" x="269.5" y="191.7344"/><rect fill="#FFFFFF" height="28.5234" style="stroke:#181818;stroke-width:1.0;" width="10" x="269.5" y="248.7813"/><rect fill="#FFFFFF" height="28.5234" style="stroke:#181818;stroke-width:1.0;" width="10" x="269.5" y="305.8281"/><rect fill="#FFFFFF" height="28.5234" style="stroke:#181818;stroke-width:1.0;" width="10" x="269.5" y="362.875"/><rect fill="#FFFFFF" height="28.5234" style="stroke:#181818;stroke-width:1.0;" width="10" x="269.5" y="419.9219"/><rect fill="#FFFFFF" height="28.5234" style="stroke:#181818;stroke-width:1.0;" width="10" x="269.5" y="500.4922"/><rect fill="#FFFFFF" height="68.0469" style="stroke:#181818;stroke-width:1.0;" width="10" x="269.5" y="588.0625"/><rect fill="none" height="509.4219" style="stroke:#000000;stroke-width:1.5;" width="309" x="10" y="154.6875"/><rect fill="none" height="73.5703" style="stroke:#000000;stroke-width:1.5;" width="289" x="20" y="463.4453"/><rect fill="none" height="75.5703" style="stroke:#000000;stroke-width:1.5;" width="289" x="20" y="551.0156"/><line style="stroke:#181818;stroke-width:0.5;stroke-dasharray:5.0,5.0;" x1="59" x2="59" y1="80.6406" y2="681.1094"/><line style="stroke:#181818;stroke-width:0.5;stroke-dasharray:5.0,5.0;" x1="274" x2="274" y1="80.6406" y2="681.1094"/><text fill="#000000" font-family="sans-serif" font-size="14" lengthAdjust="spacing" textLength="53" x="30" y="77.6738">Teacher</text><ellipse cx="59.5" cy="13.5" fill="#E2E2F0" rx="8" ry="8" style="stroke:#181818;stroke-width:0.5;"/><path d="M59.5,21.5 L59.5,48.5 M46.5,29.5 L72.5,29.5 M59.5,48.5 L46.5,63.5 M59.5,48.5 L72.5,63.5 " fill="none" style="stroke:#181818;stroke-width:0.5;"/><text fill="#000000" font-family="sans-serif" font-size="14" lengthAdjust="spacing" textLength="53" x="30" y="692.7832">Teacher</text><ellipse cx="59.5" cy="704.25" fill="#E2E2F0" rx="8" ry="8" style="stroke:#181818;stroke-width:0.5;"/><path d="M59.5,712.25 L59.5,739.25 M46.5,720.25 L72.5,720.25 M59.5,739.25 L46.5,754.25 M59.5,739.25 L72.5,754.25 " fill="none" style="stroke:#181818;stroke-width:0.5;"/><text fill="#000000" font-family="sans-serif" font-size="14" lengthAdjust="spacing" textLength="12" x="265.5" y="77.6738">UI</text><path d="M254,37 L254,61 M254,49 L271,49 " fill="none" style="stroke:#181818;stroke-width:0.5;"/><ellipse cx="283" cy="49" fill="#E2E2F0" rx="12" ry="12" style="stroke:#181818;stroke-width:0.5;"/><text fill="#000000" font-family="sans-serif" font-size="14" lengthAdjust="spacing" textLength="12" x="265.5" y="692.7832">UI</text><path d="M254,699.75 L254,723.75 M254,711.75 L271,711.75 " fill="none" style="stroke:#181818;stroke-width:0.5;"/><ellipse cx="283" cy="711.75" fill="#E2E2F0" rx="12" ry="12" style="stroke:#181818;stroke-width:0.5;"/><rect fill="#FFFFFF" height="581.4688" style="stroke:#181818;stroke-width:1.0;" width="10" x="54.5" y="90.6406"/><rect fill="#FFFFFF" height="28.5234" style="stroke:#181818;stroke-width:1.0;" width="10" x="269.5" y="111.1641"/><rect fill="#FFFFFF" height="28.5234" style="stroke:#181818;stroke-width:1.0;" width="10" x="269.5" y="191.7344"/><rect fill="#FFFFFF" height="28.5234" style="stroke:#181818;stroke-width:1.0;" width="10" x="269.5" y="248.7813"/><rect fill="#FFFFFF" height="28.5234" style="stroke:#181818;stroke-width:1.0;" width="10" x="269.5" y="305.8281"/><rect fill="#FFFFFF" height="28.5234" style="stroke:#181818;stroke-width:1.0;" width="10" x="269.5" y="362.875"/><rect fill="#FFFFFF" height="28.5234" style="stroke:#181818;stroke-width:1.0;" width="10" x="269.5" y="419.9219"/><rect fill="#FFFFFF" height="28.5234" style="stroke:#181818;stroke-width:1.0;" width="10" x="269.5" y="500.4922"/><rect fill="#FFFFFF" height="68.0469" style="stroke:#181818;stroke-width:1.0;" width="10" x="269.5" y="588.0625"/><polygon fill="#181818" points="257.5,107.1641,267.5,111.1641,257.5,115.1641,261.5,111.1641" style="stroke:#181818;stroke-width:1.0;"/><line style="stroke:#181818;stroke-width:1.0;" x1="64.5" x2="263.5" y1="111.1641" y2="111.1641"/><text fill="#000000" font-family="sans-serif" font-size="13" lengthAdjust="spacing" textLength="186" x="71.5" y="106.4092">Schedule an extraordinary class</text><polygon fill="#181818" points="75.5,135.6875,65.5,139.6875,75.5,143.6875,71.5,139.6875" style="stroke:#181818;stroke-width:1.0;"/><line style="stroke:#181818;stroke-width:1.0;stroke-dasharray:2.0,2.0;" x1="69.5" x2="273.5" y1="139.6875" y2="139.6875"/><text fill="#000000" font-family="sans-serif" font-size="13" lengthAdjust="spacing" textLength="116" x="81.5" y="134.9326">Authorization status</text><path d="M10,154.6875 L71,154.6875 L71,161.2109 L61,171.2109 L10,171.2109 L10,154.6875 " fill="#EEEEEE" style="stroke:#000000;stroke-width:1.5;"/><rect fill="none" height="509.4219" style="stroke:#000000;stroke-width:1.5;" width="309" x="10" y="154.6875"/><text fill="#000000" font-family="sans-serif" font-size="13" font-weight="bold" lengthAdjust="spacing" textLength="16" x="25" y="167.4561">alt</text><text fill="#000000" font-family="sans-serif" font-size="11" font-weight="bold" lengthAdjust="spacing" textLength="77" x="86" y="166.6455">[if authorized]</text><polygon fill="#181818" points="75.5,187.7344,65.5,191.7344,75.5,195.7344,71.5,191.7344" style="stroke:#181818;stroke-width:1.0;"/><line style="stroke:#181818;stroke-width:1.0;stroke-dasharray:2.0,2.0;" x1="69.5" x2="268.5" y1="191.7344" y2="191.7344"/><text fill="#000000" font-family="sans-serif" font-size="13" lengthAdjust="spacing" textLength="62" x="81.5" y="186.9795">Course list</text><polygon fill="#181818" points="262.5,216.2578,272.5,220.2578,262.5,224.2578,266.5,220.2578" style="stroke:#181818;stroke-width:1.0;"/><line style="stroke:#181818;stroke-width:1.0;" x1="64.5" x2="268.5" y1="220.2578" y2="220.2578"/><text fill="#000000" font-family="sans-serif" font-size="13" lengthAdjust="spacing" textLength="97" x="71.5" y="215.5029">Course selection</text><polygon fill="#181818" points="75.5,244.7813,65.5,248.7813,75.5,252.7813,71.5,248.7813" style="stroke:#181818;stroke-width:1.0;"/><line style="stroke:#181818;stroke-width:1.0;stroke-dasharray:2.0,2.0;" x1="69.5" x2="268.5" y1="248.7813" y2="248.7813"/><text fill="#000000" font-family="sans-serif" font-size="13" lengthAdjust="spacing" textLength="113" x="81.5" y="244.0264">Asks for Class Title</text><polygon fill="#181818" points="262.5,273.3047,272.5,277.3047,262.5,281.3047,266.5,277.3047" style="stroke:#181818;stroke-width:1.0;"/><line style="stroke:#181818;stroke-width:1.0;" x1="64.5" x2="268.5" y1="277.3047" y2="277.3047"/><text fill="#000000" font-family="sans-serif" font-size="13" lengthAdjust="spacing" textLength="61" x="71.5" y="272.5498">Class Title</text><polygon fill="#181818" points="75.5,301.8281,65.5,305.8281,75.5,309.8281,71.5,305.8281" style="stroke:#181818;stroke-width:1.0;"/><line style="stroke:#181818;stroke-width:1.0;" x1="69.5" x2="268.5" y1="305.8281" y2="305.8281"/><text fill="#000000" font-family="sans-serif" font-size="13" lengthAdjust="spacing" textLength="116" x="81.5" y="301.0732">Asks for Class Date</text><polygon fill="#181818" points="262.5,330.3516,272.5,334.3516,262.5,338.3516,266.5,334.3516" style="stroke:#181818;stroke-width:1.0;"/><line style="stroke:#181818;stroke-width:1.0;" x1="64.5" x2="268.5" y1="334.3516" y2="334.3516"/><text fill="#000000" font-family="sans-serif" font-size="13" lengthAdjust="spacing" textLength="64" x="71.5" y="329.5967">Class Date</text><polygon fill="#181818" points="75.5,358.875,65.5,362.875,75.5,366.875,71.5,362.875" style="stroke:#181818;stroke-width:1.0;"/><line style="stroke:#181818;stroke-width:1.0;" x1="69.5" x2="268.5" y1="362.875" y2="362.875"/><text fill="#000000" font-family="sans-serif" font-size="13" lengthAdjust="spacing" textLength="149" x="81.5" y="358.1201">Asks for Class Start Time</text><polygon fill="#181818" points="262.5,387.3984,272.5,391.3984,262.5,395.3984,266.5,391.3984" style="stroke:#181818;stroke-width:1.0;"/><line style="stroke:#181818;stroke-width:1.0;" x1="64.5" x2="268.5" y1="391.3984" y2="391.3984"/><text fill="#000000" font-family="sans-serif" font-size="13" lengthAdjust="spacing" textLength="97" x="71.5" y="386.6436">Class Start Time</text><polygon fill="#181818" points="75.5,415.9219,65.5,419.9219,75.5,423.9219,71.5,419.9219" style="stroke:#181818;stroke-width:1.0;"/><line style="stroke:#181818;stroke-width:1.0;" x1="69.5" x2="268.5" y1="419.9219" y2="419.9219"/><text fill="#000000" font-family="sans-serif" font-size="13" lengthAdjust="spacing" textLength="144" x="81.5" y="415.167">Asks for Class End Time</text><polygon fill="#181818" points="262.5,444.4453,272.5,448.4453,262.5,452.4453,266.5,448.4453" style="stroke:#181818;stroke-width:1.0;"/><line style="stroke:#181818;stroke-width:1.0;" x1="64.5" x2="268.5" y1="448.4453" y2="448.4453"/><text fill="#000000" font-family="sans-serif" font-size="13" lengthAdjust="spacing" textLength="92" x="71.5" y="443.6904">Class End Time</text><path d="M20,463.4453 L93,463.4453 L93,469.9688 L83,479.9688 L20,479.9688 L20,463.4453 " fill="#EEEEEE" style="stroke:#000000;stroke-width:1.5;"/><rect fill="none" height="73.5703" style="stroke:#000000;stroke-width:1.5;" width="289" x="20" y="463.4453"/><text fill="#000000" font-family="sans-serif" font-size="13" font-weight="bold" lengthAdjust="spacing" textLength="28" x="35" y="476.2139">loop</text><text fill="#000000" font-family="sans-serif" font-size="11" font-weight="bold" lengthAdjust="spacing" textLength="184" x="108" y="475.4033">[while list of students not empty]</text><polygon fill="#181818" points="75.5,496.4922,65.5,500.4922,75.5,504.4922,71.5,500.4922" style="stroke:#181818;stroke-width:1.0;"/><line style="stroke:#181818;stroke-width:1.0;" x1="69.5" x2="268.5" y1="500.4922" y2="500.4922"/><text fill="#000000" font-family="sans-serif" font-size="13" lengthAdjust="spacing" textLength="155" x="81.5" y="495.7373">Asks for Student Selection</text><polygon fill="#181818" points="262.5,525.0156,272.5,529.0156,262.5,533.0156,266.5,529.0156" style="stroke:#181818;stroke-width:1.0;"/><line style="stroke:#181818;stroke-width:1.0;" x1="64.5" x2="268.5" y1="529.0156" y2="529.0156"/><text fill="#000000" font-family="sans-serif" font-size="13" lengthAdjust="spacing" textLength="103" x="71.5" y="524.2607">Student Selection</text><path d="M20,551.0156 L81,551.0156 L81,557.5391 L71,567.5391 L20,567.5391 L20,551.0156 " fill="#EEEEEE" style="stroke:#000000;stroke-width:1.5;"/><rect fill="none" height="75.5703" style="stroke:#000000;stroke-width:1.5;" width="289" x="20" y="551.0156"/><text fill="#000000" font-family="sans-serif" font-size="13" font-weight="bold" lengthAdjust="spacing" textLength="16" x="35" y="563.7842">alt</text><text fill="#000000" font-family="sans-serif" font-size="11" font-weight="bold" lengthAdjust="spacing" textLength="107" x="96" y="562.9736">[if user is available]</text><polygon fill="#181818" points="75.5,584.0625,65.5,588.0625,75.5,592.0625,71.5,588.0625" style="stroke:#181818;stroke-width:1.0;"/><line style="stroke:#181818;stroke-width:1.0;" x1="69.5" x2="268.5" y1="588.0625" y2="588.0625"/><text fill="#000000" font-family="sans-serif" font-size="13" lengthAdjust="spacing" textLength="123" x="81.5" y="583.3076">Class creation status</text><line style="stroke:#000000;stroke-width:1.0;stroke-dasharray:2.0,2.0;" x1="20" x2="309" y1="597.0625" y2="597.0625"/><polygon fill="#181818" points="75.5,614.5859,65.5,618.5859,75.5,622.5859,71.5,618.5859" style="stroke:#181818;stroke-width:1.0;"/><line style="stroke:#181818;stroke-width:1.0;" x1="69.5" x2="268.5" y1="618.5859" y2="618.5859"/><text fill="#000000" font-family="sans-serif" font-size="13" lengthAdjust="spacing" textLength="153" x="81.5" y="613.8311">Inform user is not available</text><line style="stroke:#000000;stroke-width:1.0;stroke-dasharray:2.0,2.0;" x1="10" x2="319" y1="634.5859" y2="634.5859"/><polygon fill="#181818" points="75.5,652.1094,65.5,656.1094,75.5,660.1094,71.5,656.1094" style="stroke:#181818;stroke-width:1.0;"/><line style="stroke:#181818;stroke-width:1.0;" x1="69.5" x2="273.5" y1="656.1094" y2="656.1094"/><text fill="#000000" font-family="sans-serif" font-size="13" lengthAdjust="spacing" textLength="164" x="81.5" y="651.3545">Inform user is not authorized</text><!--SRC=[bPD1Si8m34NtEOKkm0LOT8QXNR0E743Ook2fiHbBXjBJrqv2m0Heo2QJw7-zhqH69Jx0cb3jA00oBFABQkkZqnZEi5bL5IenHnJgQrLxWzb7AiwXJaOTBG4we1y9w8CsBbkLHUQhENNQh62MRAr_3eieEn_CBuhn3bXG8bUQRWre1Km3s2j9Lv2kiitIny04rh2qrLj_VYxIzc8cIofZMqN971CM_CtGf2RBF16iZLYQWBeJbvG1yupocOHJ8OFsyIJF4BLWa9HmFnbqvtWFz-NqMx12FqPPxmzmsXdR_NlmJTgXgCa9W_C2j3_8-KMekXD3NUp2oroFBUDevBf5xTStSZfQXW6FQ2nkqpwqrL6qRcmLg3WH5-a8OfaUzrcvDDz-mEQFSKLVyWtsVwtbuIkdpPt-0000]--></g></svg>