<?xml version="1.0" encoding="us-ascii" standalone="no"?><svg xmlns="http://www.w3.org/2000/svg" xmlns:xlink="http://www.w3.org/1999/xlink" contentStyleType="text/css" height="1163px" preserveAspectRatio="none" style="width:936px;height:1163px;background:#FFFFFF;" version="1.1" viewBox="0 0 936 1163" width="936px" zoomAndPan="magnify"><defs/><g><!--class CreateUpdateAutoExamUI--><g id="elem_CreateUpdateAutoExamUI"><rect codeLine="2" fill="#F1F1F1" height="60.582" id="CreateUpdateAutoExamUI" rx="2.5" ry="2.5" style="stroke:#181818;stroke-width:0.5;" width="195" x="542" y="7"/><ellipse cx="557" cy="29.291" fill="#ADD1B2" rx="11" ry="11" style="stroke:#181818;stroke-width:1.0;"/><path d="M559.7656,25.166 Q559.9219,24.9473 560.1094,24.8379 Q560.2969,24.7285 560.5156,24.7285 Q560.8906,24.7285 561.125,24.9941 Q561.3594,25.2441 561.3594,25.8535 L561.3594,27.3066 Q561.3594,27.916 561.125,28.1816 Q560.8906,28.4473 560.5156,28.4473 Q560.1719,28.4473 559.9688,28.2441 Q559.7656,28.0566 559.6563,27.541 Q559.6094,27.1816 559.4219,26.9941 Q559.0938,26.6191 558.4844,26.4004 Q557.875,26.1816 557.25,26.1816 Q556.4844,26.1816 555.8438,26.5098 Q555.2188,26.8379 554.7188,27.5879 Q554.2344,28.3379 554.2344,29.3691 L554.2344,30.4629 Q554.2344,31.6973 555.125,32.5254 Q556.0156,33.3379 557.6094,33.3379 Q558.5469,33.3379 559.2031,33.0879 Q559.5938,32.9316 560.0156,32.4941 Q560.2813,32.2285 560.4219,32.1504 Q560.5781,32.0723 560.7813,32.0723 Q561.1094,32.0723 561.3594,32.3379 Q561.625,32.5879 561.625,32.9316 Q561.625,33.2754 561.2813,33.6816 Q560.7813,34.2598 559.9844,34.5879 Q558.9063,35.041 557.6094,35.041 Q556.0938,35.041 554.8906,34.416 Q553.9063,33.916 553.2188,32.8535 Q552.5313,31.7754 552.5313,30.4941 L552.5313,29.3379 Q552.5313,28.0098 553.1406,26.8691 Q553.7656,25.7129 554.8594,25.1035 Q555.9531,24.4785 557.1875,24.4785 Q557.9219,24.4785 558.5625,24.6504 Q559.2188,24.8066 559.7656,25.166 Z " fill="#000000"/><text fill="#000000" font-family="sans-serif" font-size="12" font-style="italic" lengthAdjust="spacing" textLength="27" x="639" y="24.9492">&#171;UI&#187;</text><text fill="#000000" font-family="sans-serif" font-size="14" lengthAdjust="spacing" textLength="163" x="571" y="43.0684">CreateUpdateAutoExamUI</text><line style="stroke:#181818;stroke-width:0.5;" x1="543" x2="736" y1="51.582" y2="51.582"/><line style="stroke:#181818;stroke-width:0.5;" x1="543" x2="736" y1="59.582" y2="59.582"/></g><!--class CreateUpdateAutoExamController--><g id="elem_CreateUpdateAutoExamController"><rect codeLine="5" fill="#F1F1F1" height="97.8242" id="CreateUpdateAutoExamController" rx="2.5" ry="2.5" style="stroke:#181818;stroke-width:0.5;" width="245" x="517" y="129"/><ellipse cx="532" cy="151.291" fill="#ADD1B2" rx="11" ry="11" style="stroke:#181818;stroke-width:1.0;"/><path d="M534.7656,147.166 Q534.9219,146.9473 535.1094,146.8379 Q535.2969,146.7285 535.5156,146.7285 Q535.8906,146.7285 536.125,146.9941 Q536.3594,147.2441 536.3594,147.8535 L536.3594,149.3066 Q536.3594,149.916 536.125,150.1816 Q535.8906,150.4473 535.5156,150.4473 Q535.1719,150.4473 534.9688,150.2441 Q534.7656,150.0566 534.6563,149.541 Q534.6094,149.1816 534.4219,148.9941 Q534.0938,148.6191 533.4844,148.4004 Q532.875,148.1816 532.25,148.1816 Q531.4844,148.1816 530.8438,148.5098 Q530.2188,148.8379 529.7188,149.5879 Q529.2344,150.3379 529.2344,151.3691 L529.2344,152.4629 Q529.2344,153.6973 530.125,154.5254 Q531.0156,155.3379 532.6094,155.3379 Q533.5469,155.3379 534.2031,155.0879 Q534.5938,154.9316 535.0156,154.4941 Q535.2813,154.2285 535.4219,154.1504 Q535.5781,154.0723 535.7813,154.0723 Q536.1094,154.0723 536.3594,154.3379 Q536.625,154.5879 536.625,154.9316 Q536.625,155.2754 536.2813,155.6816 Q535.7813,156.2598 534.9844,156.5879 Q533.9063,157.041 532.6094,157.041 Q531.0938,157.041 529.8906,156.416 Q528.9063,155.916 528.2188,154.8535 Q527.5313,153.7754 527.5313,152.4941 L527.5313,151.3379 Q527.5313,150.0098 528.1406,148.8691 Q528.7656,147.7129 529.8594,147.1035 Q530.9531,146.4785 532.1875,146.4785 Q532.9219,146.4785 533.5625,146.6504 Q534.2188,146.8066 534.7656,147.166 Z " fill="#000000"/><text fill="#000000" font-family="sans-serif" font-size="12" font-style="italic" lengthAdjust="spacing" textLength="68" x="618.5" y="146.9492">&#171;Controller&#187;</text><text fill="#000000" font-family="sans-serif" font-size="14" lengthAdjust="spacing" textLength="213" x="546" y="165.0684">CreateUpdateAutoExamController</text><line style="stroke:#181818;stroke-width:0.5;" x1="518" x2="761" y1="173.582" y2="173.582"/><line style="stroke:#181818;stroke-width:0.5;" x1="518" x2="761" y1="181.582" y2="181.582"/><ellipse cx="528" cy="196.3926" fill="#84BE84" rx="3" ry="3" style="stroke:#038048;stroke-width:1.0;"/><text fill="#000000" font-family="sans-serif" font-size="14" lengthAdjust="spacing" textLength="135" x="537" y="200.6895">File : importFile(path)</text><ellipse cx="528" cy="215.0137" fill="#84BE84" rx="3" ry="3" style="stroke:#038048;stroke-width:1.0;"/><text fill="#000000" font-family="sans-serif" font-size="14" lengthAdjust="spacing" textLength="177" x="537" y="219.3105">Exam : createAutoExam(file)</text></g><!--class CreateUpdateExamService--><g id="elem_CreateUpdateExamService"><rect codeLine="10" fill="#F1F1F1" height="103.8633" id="CreateUpdateExamService" rx="2.5" ry="2.5" style="stroke:#181818;stroke-width:0.5;" width="271" x="504" y="288"/><ellipse cx="550.75" cy="304" fill="#ADD1B2" rx="11" ry="11" style="stroke:#181818;stroke-width:1.0;"/><path d="M553.5156,299.875 Q553.6719,299.6563 553.8594,299.5469 Q554.0469,299.4375 554.2656,299.4375 Q554.6406,299.4375 554.875,299.7031 Q555.1094,299.9531 555.1094,300.5625 L555.1094,302.0156 Q555.1094,302.625 554.875,302.8906 Q554.6406,303.1563 554.2656,303.1563 Q553.9219,303.1563 553.7188,302.9531 Q553.5156,302.7656 553.4063,302.25 Q553.3594,301.8906 553.1719,301.7031 Q552.8438,301.3281 552.2344,301.1094 Q551.625,300.8906 551,300.8906 Q550.2344,300.8906 549.5938,301.2188 Q548.9688,301.5469 548.4688,302.2969 Q547.9844,303.0469 547.9844,304.0781 L547.9844,305.1719 Q547.9844,306.4063 548.875,307.2344 Q549.7656,308.0469 551.3594,308.0469 Q552.2969,308.0469 552.9531,307.7969 Q553.3438,307.6406 553.7656,307.2031 Q554.0313,306.9375 554.1719,306.8594 Q554.3281,306.7813 554.5313,306.7813 Q554.8594,306.7813 555.1094,307.0469 Q555.375,307.2969 555.375,307.6406 Q555.375,307.9844 555.0313,308.3906 Q554.5313,308.9688 553.7344,309.2969 Q552.6563,309.75 551.3594,309.75 Q549.8438,309.75 548.6406,309.125 Q547.6563,308.625 546.9688,307.5625 Q546.2813,306.4844 546.2813,305.2031 L546.2813,304.0469 Q546.2813,302.7188 546.8906,301.5781 Q547.5156,300.4219 548.6094,299.8125 Q549.7031,299.1875 550.9375,299.1875 Q551.6719,299.1875 552.3125,299.3594 Q552.9688,299.5156 553.5156,299.875 Z " fill="#000000"/><text fill="#000000" font-family="sans-serif" font-size="14" lengthAdjust="spacing" textLength="169" x="571.25" y="309.7969">CreateUpdateExamService</text><line style="stroke:#181818;stroke-width:0.5;" x1="505" x2="774" y1="320" y2="320"/><line style="stroke:#181818;stroke-width:0.5;" x1="505" x2="774" y1="328" y2="328"/><ellipse cx="515" cy="342.8105" fill="#84BE84" rx="3" ry="3" style="stroke:#038048;stroke-width:1.0;"/><text fill="#000000" font-family="sans-serif" font-size="14" lengthAdjust="spacing" textLength="135" x="524" y="347.1074">File : importFile(path)</text><ellipse cx="515" cy="361.4316" fill="#84BE84" rx="3" ry="3" style="stroke:#038048;stroke-width:1.0;"/><text fill="#000000" font-family="sans-serif" font-size="14" lengthAdjust="spacing" textLength="177" x="524" y="365.7285">Exam : createAutoExam(file)</text><ellipse cx="515" cy="380.0527" fill="#84BE84" rx="3" ry="3" style="stroke:#038048;stroke-width:1.0;"/><text fill="#000000" font-family="sans-serif" font-size="14" lengthAdjust="spacing" textLength="245" x="524" y="384.3496">Exam : generateAutoExam(file, course)</text></g><!--class AutoExamEvalVisitor--><g id="elem_AutoExamEvalVisitor"><rect codeLine="16" fill="#F1F1F1" height="79.2031" id="AutoExamEvalVisitor" rx="2.5" ry="2.5" style="stroke:#181818;stroke-width:0.5;" width="222" x="425.5" y="453"/><ellipse cx="467.95" cy="475.291" fill="#ADD1B2" rx="11" ry="11" style="stroke:#181818;stroke-width:1.0;"/><path d="M470.7156,471.166 Q470.8719,470.9473 471.0594,470.8379 Q471.2469,470.7285 471.4656,470.7285 Q471.8406,470.7285 472.075,470.9941 Q472.3094,471.2441 472.3094,471.8535 L472.3094,473.3066 Q472.3094,473.916 472.075,474.1816 Q471.8406,474.4473 471.4656,474.4473 Q471.1219,474.4473 470.9188,474.2441 Q470.7156,474.0566 470.6063,473.541 Q470.5594,473.1816 470.3719,472.9941 Q470.0438,472.6191 469.4344,472.4004 Q468.825,472.1816 468.2,472.1816 Q467.4344,472.1816 466.7938,472.5098 Q466.1688,472.8379 465.6688,473.5879 Q465.1844,474.3379 465.1844,475.3691 L465.1844,476.4629 Q465.1844,477.6973 466.075,478.5254 Q466.9656,479.3379 468.5594,479.3379 Q469.4969,479.3379 470.1531,479.0879 Q470.5438,478.9316 470.9656,478.4941 Q471.2313,478.2285 471.3719,478.1504 Q471.5281,478.0723 471.7313,478.0723 Q472.0594,478.0723 472.3094,478.3379 Q472.575,478.5879 472.575,478.9316 Q472.575,479.2754 472.2313,479.6816 Q471.7313,480.2598 470.9344,480.5879 Q469.8563,481.041 468.5594,481.041 Q467.0438,481.041 465.8406,480.416 Q464.8563,479.916 464.1688,478.8535 Q463.4813,477.7754 463.4813,476.4941 L463.4813,475.3379 Q463.4813,474.0098 464.0906,472.8691 Q464.7156,471.7129 465.8094,471.1035 Q466.9031,470.4785 468.1375,470.4785 Q468.8719,470.4785 469.5125,470.6504 Q470.1688,470.8066 470.7156,471.166 Z " fill="#000000"/><text fill="#000000" font-family="sans-serif" font-size="12" font-style="italic" lengthAdjust="spacing" textLength="48" x="528.55" y="470.9492">&#171;Visitor&#187;</text><text fill="#000000" font-family="sans-serif" font-size="14" lengthAdjust="spacing" textLength="129" x="488.05" y="489.0684">AutoExamEvalVisitor</text><line style="stroke:#181818;stroke-width:0.5;" x1="426.5" x2="646.5" y1="497.582" y2="497.582"/><line style="stroke:#181818;stroke-width:0.5;" x1="426.5" x2="646.5" y1="505.582" y2="505.582"/><ellipse cx="436.5" cy="520.3926" fill="#84BE84" rx="3" ry="3" style="stroke:#038048;stroke-width:1.0;"/><text fill="#000000" font-family="sans-serif" font-size="14" lengthAdjust="spacing" textLength="196" x="445.5" y="524.6895">Exam : buildExam(tree, course)</text></g><!--class ExamBuilder--><g id="elem_ExamBuilder"><rect codeLine="20" fill="#F1F1F1" height="190.9297" id="ExamBuilder" rx="2.5" ry="2.5" style="stroke:#181818;stroke-width:0.5;" width="290" x="391.5" y="696"/><ellipse cx="493.25" cy="718.291" fill="#ADD1B2" rx="11" ry="11" style="stroke:#181818;stroke-width:1.0;"/><path d="M496.0156,714.166 Q496.1719,713.9473 496.3594,713.8379 Q496.5469,713.7285 496.7656,713.7285 Q497.1406,713.7285 497.375,713.9941 Q497.6094,714.2441 497.6094,714.8535 L497.6094,716.3066 Q497.6094,716.916 497.375,717.1816 Q497.1406,717.4473 496.7656,717.4473 Q496.4219,717.4473 496.2188,717.2441 Q496.0156,717.0566 495.9063,716.541 Q495.8594,716.1816 495.6719,715.9941 Q495.3438,715.6191 494.7344,715.4004 Q494.125,715.1816 493.5,715.1816 Q492.7344,715.1816 492.0938,715.5098 Q491.4688,715.8379 490.9688,716.5879 Q490.4844,717.3379 490.4844,718.3691 L490.4844,719.4629 Q490.4844,720.6973 491.375,721.5254 Q492.2656,722.3379 493.8594,722.3379 Q494.7969,722.3379 495.4531,722.0879 Q495.8438,721.9316 496.2656,721.4941 Q496.5313,721.2285 496.6719,721.1504 Q496.8281,721.0723 497.0313,721.0723 Q497.3594,721.0723 497.6094,721.3379 Q497.875,721.5879 497.875,721.9316 Q497.875,722.2754 497.5313,722.6816 Q497.0313,723.2598 496.2344,723.5879 Q495.1563,724.041 493.8594,724.041 Q492.3438,724.041 491.1406,723.416 Q490.1563,722.916 489.4688,721.8535 Q488.7813,720.7754 488.7813,719.4941 L488.7813,718.3379 Q488.7813,717.0098 489.3906,715.8691 Q490.0156,714.7129 491.1094,714.1035 Q492.2031,713.4785 493.4375,713.4785 Q494.1719,713.4785 494.8125,713.6504 Q495.4688,713.8066 496.0156,714.166 Z " fill="#000000"/><text fill="#000000" font-family="sans-serif" font-size="12" font-style="italic" lengthAdjust="spacing" textLength="53" x="526.25" y="713.9492">&#171;Builder&#187;</text><text fill="#000000" font-family="sans-serif" font-size="14" lengthAdjust="spacing" textLength="78" x="513.75" y="732.0684">ExamBuilder</text><line style="stroke:#181818;stroke-width:0.5;" x1="392.5" x2="680.5" y1="740.582" y2="740.582"/><line style="stroke:#181818;stroke-width:0.5;" x1="392.5" x2="680.5" y1="748.582" y2="748.582"/><ellipse cx="402.5" cy="763.3926" fill="#84BE84" rx="3" ry="3" style="stroke:#038048;stroke-width:1.0;"/><text fill="#000000" font-family="sans-serif" font-size="14" lengthAdjust="spacing" textLength="201" x="411.5" y="767.6895">ExamBuilder : ofCourse(course)</text><ellipse cx="402.5" cy="782.0137" fill="#84BE84" rx="3" ry="3" style="stroke:#038048;stroke-width:1.0;"/><text fill="#000000" font-family="sans-serif" font-size="14" lengthAdjust="spacing" textLength="173" x="411.5" y="786.3105">ExamBuilder : withTitle(title)</text><ellipse cx="402.5" cy="800.6348" fill="#84BE84" rx="3" ry="3" style="stroke:#038048;stroke-width:1.0;"/><text fill="#000000" font-family="sans-serif" font-size="14" lengthAdjust="spacing" textLength="264" x="411.5" y="804.9316">ExamBuilder : withDescription(description)</text><ellipse cx="402.5" cy="819.2559" fill="#84BE84" rx="3" ry="3" style="stroke:#038048;stroke-width:1.0;"/><text fill="#000000" font-family="sans-serif" font-size="14" lengthAdjust="spacing" textLength="247" x="411.5" y="823.5527">ExamBuilder : withLanguage(language)</text><ellipse cx="402.5" cy="837.877" fill="#84BE84" rx="3" ry="3" style="stroke:#038048;stroke-width:1.0;"/><text fill="#000000" font-family="sans-serif" font-size="14" lengthAdjust="spacing" textLength="238" x="411.5" y="842.1738">ExamBuilder : withStructure(structure)</text><ellipse cx="402.5" cy="856.498" fill="#84BE84" rx="3" ry="3" style="stroke:#038048;stroke-width:1.0;"/><text fill="#000000" font-family="sans-serif" font-size="14" lengthAdjust="spacing" textLength="215" x="411.5" y="860.7949">ExamBuilder : withHeader(header)</text><ellipse cx="402.5" cy="875.1191" fill="#84BE84" rx="3" ry="3" style="stroke:#038048;stroke-width:1.0;"/><text fill="#000000" font-family="sans-serif" font-size="14" lengthAdjust="spacing" textLength="115" x="411.5" y="879.416">Exam : buildAuto()</text></g><!--class HeaderBuilder--><g id="elem_HeaderBuilder"><rect codeLine="30" fill="#F1F1F1" height="135.0664" id="HeaderBuilder" rx="2.5" ry="2.5" style="stroke:#181818;stroke-width:0.5;" width="349" x="7" y="724"/><ellipse cx="132.25" cy="746.291" fill="#ADD1B2" rx="11" ry="11" style="stroke:#181818;stroke-width:1.0;"/><path d="M135.0156,742.166 Q135.1719,741.9473 135.3594,741.8379 Q135.5469,741.7285 135.7656,741.7285 Q136.1406,741.7285 136.375,741.9941 Q136.6094,742.2441 136.6094,742.8535 L136.6094,744.3066 Q136.6094,744.916 136.375,745.1816 Q136.1406,745.4473 135.7656,745.4473 Q135.4219,745.4473 135.2188,745.2441 Q135.0156,745.0566 134.9063,744.541 Q134.8594,744.1816 134.6719,743.9941 Q134.3438,743.6191 133.7344,743.4004 Q133.125,743.1816 132.5,743.1816 Q131.7344,743.1816 131.0938,743.5098 Q130.4688,743.8379 129.9688,744.5879 Q129.4844,745.3379 129.4844,746.3691 L129.4844,747.4629 Q129.4844,748.6973 130.375,749.5254 Q131.2656,750.3379 132.8594,750.3379 Q133.7969,750.3379 134.4531,750.0879 Q134.8438,749.9316 135.2656,749.4941 Q135.5313,749.2285 135.6719,749.1504 Q135.8281,749.0723 136.0313,749.0723 Q136.3594,749.0723 136.6094,749.3379 Q136.875,749.5879 136.875,749.9316 Q136.875,750.2754 136.5313,750.6816 Q136.0313,751.2598 135.2344,751.5879 Q134.1563,752.041 132.8594,752.041 Q131.3438,752.041 130.1406,751.416 Q129.1563,750.916 128.4688,749.8535 Q127.7813,748.7754 127.7813,747.4941 L127.7813,746.3379 Q127.7813,745.0098 128.3906,743.8691 Q129.0156,742.7129 130.1094,742.1035 Q131.2031,741.4785 132.4375,741.4785 Q133.1719,741.4785 133.8125,741.6504 Q134.4688,741.8066 135.0156,742.166 Z " fill="#000000"/><text fill="#000000" font-family="sans-serif" font-size="12" font-style="italic" lengthAdjust="spacing" textLength="53" x="171.25" y="741.9492">&#171;Builder&#187;</text><text fill="#000000" font-family="sans-serif" font-size="14" lengthAdjust="spacing" textLength="90" x="152.75" y="760.0684">HeaderBuilder</text><line style="stroke:#181818;stroke-width:0.5;" x1="8" x2="355" y1="768.582" y2="768.582"/><line style="stroke:#181818;stroke-width:0.5;" x1="8" x2="355" y1="776.582" y2="776.582"/><ellipse cx="18" cy="791.3926" fill="#84BE84" rx="3" ry="3" style="stroke:#038048;stroke-width:1.0;"/><text fill="#000000" font-family="sans-serif" font-size="14" lengthAdjust="spacing" textLength="323" x="27" y="795.6895">HeaderBuilder : withDescription(headerDescription)</text><ellipse cx="18" cy="810.0137" fill="#84BE84" rx="3" ry="3" style="stroke:#038048;stroke-width:1.0;"/><text fill="#000000" font-family="sans-serif" font-size="14" lengthAdjust="spacing" textLength="321" x="27" y="814.3105">HeaderBuilder : withFeedbackType(feedbackType)</text><ellipse cx="18" cy="828.6348" fill="#84BE84" rx="3" ry="3" style="stroke:#038048;stroke-width:1.0;"/><text fill="#000000" font-family="sans-serif" font-size="14" lengthAdjust="spacing" textLength="277" x="27" y="832.9316">HeaderBuilder : withGradeType(gradeType)</text><ellipse cx="18" cy="847.2559" fill="#84BE84" rx="3" ry="3" style="stroke:#038048;stroke-width:1.0;"/><text fill="#000000" font-family="sans-serif" font-size="14" lengthAdjust="spacing" textLength="98" x="27" y="851.5527">Header : build()</text></g><!--class Exam--><g id="elem_Exam"><rect codeLine="37" fill="#F1F1F1" height="190.9297" id="Exam" rx="2.5" ry="2.5" style="stroke:#181818;stroke-width:0.5;" width="186" x="584.5" y="966"/><ellipse cx="646.25" cy="988.291" fill="#ADD1B2" rx="11" ry="11" style="stroke:#181818;stroke-width:1.0;"/><path d="M649.0156,984.166 Q649.1719,983.9473 649.3594,983.8379 Q649.5469,983.7285 649.7656,983.7285 Q650.1406,983.7285 650.375,983.9941 Q650.6094,984.2441 650.6094,984.8535 L650.6094,986.3066 Q650.6094,986.916 650.375,987.1816 Q650.1406,987.4473 649.7656,987.4473 Q649.4219,987.4473 649.2188,987.2441 Q649.0156,987.0566 648.9063,986.541 Q648.8594,986.1816 648.6719,985.9941 Q648.3438,985.6191 647.7344,985.4004 Q647.125,985.1816 646.5,985.1816 Q645.7344,985.1816 645.0938,985.5098 Q644.4688,985.8379 643.9688,986.5879 Q643.4844,987.3379 643.4844,988.3691 L643.4844,989.4629 Q643.4844,990.6973 644.375,991.5254 Q645.2656,992.3379 646.8594,992.3379 Q647.7969,992.3379 648.4531,992.0879 Q648.8438,991.9316 649.2656,991.4941 Q649.5313,991.2285 649.6719,991.1504 Q649.8281,991.0723 650.0313,991.0723 Q650.3594,991.0723 650.6094,991.3379 Q650.875,991.5879 650.875,991.9316 Q650.875,992.2754 650.5313,992.6816 Q650.0313,993.2598 649.2344,993.5879 Q648.1563,994.041 646.8594,994.041 Q645.3438,994.041 644.1406,993.416 Q643.1563,992.916 642.4688,991.8535 Q641.7813,990.7754 641.7813,989.4941 L641.7813,988.3379 Q641.7813,987.0098 642.3906,985.8691 Q643.0156,984.7129 644.1094,984.1035 Q645.2031,983.4785 646.4375,983.4785 Q647.1719,983.4785 647.8125,983.6504 Q648.4688,983.8066 649.0156,984.166 Z " fill="#000000"/><text fill="#000000" font-family="sans-serif" font-size="12" font-style="italic" lengthAdjust="spacing" textLength="58" x="664.75" y="983.9492">&#171;Domain&#187;</text><text fill="#000000" font-family="sans-serif" font-size="14" lengthAdjust="spacing" textLength="34" x="676.75" y="1002.0684">Exam</text><line style="stroke:#181818;stroke-width:0.5;" x1="585.5" x2="769.5" y1="1010.582" y2="1010.582"/><rect fill="none" height="6" style="stroke:#C82930;stroke-width:1.0;" width="6" x="592.5" y="1022.3926"/><text fill="#000000" font-family="sans-serif" font-size="14" lengthAdjust="spacing" textLength="90" x="604.5" y="1029.6895">Long : examID</text><rect fill="none" height="6" style="stroke:#C82930;stroke-width:1.0;" width="6" x="592.5" y="1041.0137"/><text fill="#000000" font-family="sans-serif" font-size="14" lengthAdjust="spacing" textLength="101" x="604.5" y="1048.3105">Course : course</text><rect fill="none" height="6" style="stroke:#C82930;stroke-width:1.0;" width="6" x="592.5" y="1059.6348"/><text fill="#000000" font-family="sans-serif" font-size="14" lengthAdjust="spacing" textLength="118" x="604.5" y="1066.9316">String : description</text><rect fill="none" height="6" style="stroke:#C82930;stroke-width:1.0;" width="6" x="592.5" y="1078.2559"/><text fill="#000000" font-family="sans-serif" font-size="14" lengthAdjust="spacing" textLength="135" x="604.5" y="1085.5527">Language : language</text><rect fill="none" height="6" style="stroke:#C82930;stroke-width:1.0;" width="6" x="592.5" y="1096.877"/><text fill="#000000" font-family="sans-serif" font-size="14" lengthAdjust="spacing" textLength="103" x="604.5" y="1104.1738">Header : header</text><rect fill="none" height="6" style="stroke:#C82930;stroke-width:1.0;" width="6" x="592.5" y="1115.498"/><text fill="#000000" font-family="sans-serif" font-size="14" lengthAdjust="spacing" textLength="126" x="604.5" y="1122.7949">Structure : structure</text><rect fill="none" height="6" style="stroke:#C82930;stroke-width:1.0;" width="6" x="592.5" y="1134.1191"/><text fill="#000000" font-family="sans-serif" font-size="14" lengthAdjust="spacing" textLength="160" x="604.5" y="1141.416">ExamStatus : ExamStatus</text><line style="stroke:#181818;stroke-width:0.5;" x1="585.5" x2="769.5" y1="1148.9297" y2="1148.9297"/></g><!--class Header--><g id="elem_Header"><rect codeLine="47" fill="#F1F1F1" height="116.4453" id="Header" rx="2.5" ry="2.5" style="stroke:#181818;stroke-width:0.5;" width="223" x="70" y="1003.5"/><ellipse cx="150.25" cy="1025.791" fill="#ADD1B2" rx="11" ry="11" style="stroke:#181818;stroke-width:1.0;"/><path d="M153.0156,1021.666 Q153.1719,1021.4473 153.3594,1021.3379 Q153.5469,1021.2285 153.7656,1021.2285 Q154.1406,1021.2285 154.375,1021.4941 Q154.6094,1021.7441 154.6094,1022.3535 L154.6094,1023.8066 Q154.6094,1024.416 154.375,1024.6816 Q154.1406,1024.9473 153.7656,1024.9473 Q153.4219,1024.9473 153.2188,1024.7441 Q153.0156,1024.5566 152.9063,1024.041 Q152.8594,1023.6816 152.6719,1023.4941 Q152.3438,1023.1191 151.7344,1022.9004 Q151.125,1022.6816 150.5,1022.6816 Q149.7344,1022.6816 149.0938,1023.0098 Q148.4688,1023.3379 147.9688,1024.0879 Q147.4844,1024.8379 147.4844,1025.8691 L147.4844,1026.9629 Q147.4844,1028.1973 148.375,1029.0254 Q149.2656,1029.8379 150.8594,1029.8379 Q151.7969,1029.8379 152.4531,1029.5879 Q152.8438,1029.4316 153.2656,1028.9941 Q153.5313,1028.7285 153.6719,1028.6504 Q153.8281,1028.5723 154.0313,1028.5723 Q154.3594,1028.5723 154.6094,1028.8379 Q154.875,1029.0879 154.875,1029.4316 Q154.875,1029.7754 154.5313,1030.1816 Q154.0313,1030.7598 153.2344,1031.0879 Q152.1563,1031.541 150.8594,1031.541 Q149.3438,1031.541 148.1406,1030.916 Q147.1563,1030.416 146.4688,1029.3535 Q145.7813,1028.2754 145.7813,1026.9941 L145.7813,1025.8379 Q145.7813,1024.5098 146.3906,1023.3691 Q147.0156,1022.2129 148.1094,1021.6035 Q149.2031,1020.9785 150.4375,1020.9785 Q151.1719,1020.9785 151.8125,1021.1504 Q152.4688,1021.3066 153.0156,1021.666 Z " fill="#000000"/><text fill="#000000" font-family="sans-serif" font-size="12" font-style="italic" lengthAdjust="spacing" textLength="58" x="168.75" y="1021.4492">&#171;Domain&#187;</text><text fill="#000000" font-family="sans-serif" font-size="14" lengthAdjust="spacing" textLength="46" x="174.75" y="1039.5684">Header</text><line style="stroke:#181818;stroke-width:0.5;" x1="71" x2="292" y1="1048.082" y2="1048.082"/><rect fill="none" height="6" style="stroke:#C82930;stroke-width:1.0;" width="6" x="78" y="1059.8926"/><text fill="#000000" font-family="sans-serif" font-size="14" lengthAdjust="spacing" textLength="118" x="90" y="1067.1895">String : description</text><rect fill="none" height="6" style="stroke:#C82930;stroke-width:1.0;" width="6" x="78" y="1078.5137"/><text fill="#000000" font-family="sans-serif" font-size="14" lengthAdjust="spacing" textLength="197" x="90" y="1085.8105">FeedbackType : feedbackType</text><rect fill="none" height="6" style="stroke:#C82930;stroke-width:1.0;" width="6" x="78" y="1097.1348"/><text fill="#000000" font-family="sans-serif" font-size="14" lengthAdjust="spacing" textLength="167" x="90" y="1104.4316">HeaderType : headerType</text><line style="stroke:#181818;stroke-width:0.5;" x1="71" x2="292" y1="1111.9453" y2="1111.9453"/></g><!--class ExamRepository--><g id="elem_ExamRepository"><rect codeLine="53" fill="#F1F1F1" height="103.8633" id="ExamRepository" rx="2.5" ry="2.5" style="stroke:#181818;stroke-width:0.5;" width="365" x="564" y="562"/><ellipse cx="691.25" cy="578" fill="#ADD1B2" rx="11" ry="11" style="stroke:#181818;stroke-width:1.0;"/><path d="M694.0156,573.875 Q694.1719,573.6563 694.3594,573.5469 Q694.5469,573.4375 694.7656,573.4375 Q695.1406,573.4375 695.375,573.7031 Q695.6094,573.9531 695.6094,574.5625 L695.6094,576.0156 Q695.6094,576.625 695.375,576.8906 Q695.1406,577.1563 694.7656,577.1563 Q694.4219,577.1563 694.2188,576.9531 Q694.0156,576.7656 693.9063,576.25 Q693.8594,575.8906 693.6719,575.7031 Q693.3438,575.3281 692.7344,575.1094 Q692.125,574.8906 691.5,574.8906 Q690.7344,574.8906 690.0938,575.2188 Q689.4688,575.5469 688.9688,576.2969 Q688.4844,577.0469 688.4844,578.0781 L688.4844,579.1719 Q688.4844,580.4063 689.375,581.2344 Q690.2656,582.0469 691.8594,582.0469 Q692.7969,582.0469 693.4531,581.7969 Q693.8438,581.6406 694.2656,581.2031 Q694.5313,580.9375 694.6719,580.8594 Q694.8281,580.7813 695.0313,580.7813 Q695.3594,580.7813 695.6094,581.0469 Q695.875,581.2969 695.875,581.6406 Q695.875,581.9844 695.5313,582.3906 Q695.0313,582.9688 694.2344,583.2969 Q693.1563,583.75 691.8594,583.75 Q690.3438,583.75 689.1406,583.125 Q688.1563,582.625 687.4688,581.5625 Q686.7813,580.4844 686.7813,579.2031 L686.7813,578.0469 Q686.7813,576.7188 687.3906,575.5781 Q688.0156,574.4219 689.1094,573.8125 Q690.2031,573.1875 691.4375,573.1875 Q692.1719,573.1875 692.8125,573.3594 Q693.4688,573.5156 694.0156,573.875 Z " fill="#000000"/><text fill="#000000" font-family="sans-serif" font-size="14" lengthAdjust="spacing" textLength="102" x="711.75" y="583.7969">ExamRepository</text><line style="stroke:#181818;stroke-width:0.5;" x1="565" x2="928" y1="594" y2="594"/><line style="stroke:#181818;stroke-width:0.5;" x1="565" x2="928" y1="602" y2="602"/><ellipse cx="575" cy="616.8105" fill="#84BE84" rx="3" ry="3" style="stroke:#038048;stroke-width:1.0;"/><text fill="#000000" font-family="sans-serif" font-size="14" lengthAdjust="spacing" textLength="339" x="584" y="621.1074">Iterable&lt;Exam&gt; : findByCourseAndType(course, type)</text><ellipse cx="575" cy="635.4316" fill="#84BE84" rx="3" ry="3" style="stroke:#038048;stroke-width:1.0;"/><text fill="#000000" font-family="sans-serif" font-size="14" lengthAdjust="spacing" textLength="115" x="584" y="639.7285">void : save (exam)</text><ellipse cx="575" cy="654.0527" fill="#84BE84" rx="3" ry="3" style="stroke:#038048;stroke-width:1.0;"/><text fill="#000000" font-family="sans-serif" font-size="14" lengthAdjust="spacing" textLength="124" x="584" y="658.3496">void : delete (exam)</text></g><!--link CreateUpdateAutoExamUI to CreateUpdateAutoExamController--><g id="link_CreateUpdateAutoExamUI_CreateUpdateAutoExamController"><path codeLine="61" d="M639.5,68.21 C639.5,84.34 639.5,104.77 639.5,123.56 " fill="none" id="CreateUpdateAutoExamUI-to-CreateUpdateAutoExamController" style="stroke:#181818;stroke-width:1.0;stroke-dasharray:7.0,7.0;"/><polygon fill="#181818" points="639.5,128.82,643.5,119.82,639.5,123.82,635.5,119.82,639.5,128.82" style="stroke:#181818;stroke-width:1.0;"/></g><!--link CreateUpdateAutoExamController to CreateUpdateExamService--><g id="link_CreateUpdateAutoExamController_CreateUpdateExamService"><path codeLine="62" d="M639.5,227.01 C639.5,244.59 639.5,264.64 639.5,282.88 " fill="none" id="CreateUpdateAutoExamController-to-CreateUpdateExamService" style="stroke:#181818;stroke-width:1.0;stroke-dasharray:7.0,7.0;"/><polygon fill="#181818" points="639.5,287.97,643.5,278.97,639.5,282.97,635.5,278.97,639.5,287.97" style="stroke:#181818;stroke-width:1.0;"/></g><!--link CreateUpdateExamService to ExamRepository--><g id="link_CreateUpdateExamService_ExamRepository"><path codeLine="63" d="M659.63,392.16 C678.06,439.03 705.3,508.27 724.35,556.69 " fill="none" id="CreateUpdateExamService-to-ExamRepository" style="stroke:#181818;stroke-width:1.0;"/><polygon fill="#181818" points="726.28,561.61,726.714,551.7707,724.4526,556.9559,719.2674,554.6945,726.28,561.61" style="stroke:#181818;stroke-width:1.0;"/></g><!--link ExamRepository to Exam--><g id="link_ExamRepository_Exam"><path codeLine="64" d="M738.58,666.1 C727.5,737.66 707.13,869.18 692.98,960.57 " fill="none" id="ExamRepository-to-Exam" style="stroke:#181818;stroke-width:1.0;"/><polygon fill="#181818" points="692.18,965.71,697.4966,957.4194,692.9371,960.7676,689.5888,956.2081,692.18,965.71" style="stroke:#181818;stroke-width:1.0;"/><text fill="#000000" font-family="sans-serif" font-size="13" lengthAdjust="spacing" textLength="33" x="733.5" y="797.0283">saves</text></g><!--link CreateUpdateExamService to AutoExamEvalVisitor--><g id="link_CreateUpdateExamService_AutoExamEvalVisitor"><path codeLine="65" d="M604.34,392.37 C591.88,410.58 577.99,430.88 566.04,448.34 " fill="none" id="CreateUpdateExamService-to-AutoExamEvalVisitor" style="stroke:#181818;stroke-width:1.0;"/><polygon fill="#181818" points="563.05,452.71,571.4327,447.5399,565.8729,448.5831,564.8297,443.0233,563.05,452.71" style="stroke:#181818;stroke-width:1.0;"/></g><!--link AutoExamEvalVisitor to ExamBuilder--><g id="link_AutoExamEvalVisitor_ExamBuilder"><path codeLine="66" d="M536.5,532.02 C536.5,572.01 536.5,636.21 536.5,690.62 " fill="none" id="AutoExamEvalVisitor-to-ExamBuilder" style="stroke:#181818;stroke-width:1.0;"/><polygon fill="#181818" points="536.5,695.85,540.5,686.85,536.5,690.85,532.5,686.85,536.5,695.85" style="stroke:#181818;stroke-width:1.0;"/></g><!--link ExamBuilder to Exam--><g id="link_ExamBuilder_Exam"><path codeLine="67" d="M586.41,887.36 C599.01,911.32 612.58,937.11 625.29,961.27 " fill="none" id="ExamBuilder-to-Exam" style="stroke:#181818;stroke-width:1.0;"/><polygon fill="#181818" points="627.66,965.76,627.0119,955.9325,625.333,961.3345,619.931,959.6556,627.66,965.76" style="stroke:#181818;stroke-width:1.0;"/><polygon fill="#000000" points="617.8278,931.0706,616.2178,921.6973,611.0158,924.4338,617.8278,931.0706" style="stroke:#000000;stroke-width:1.0;"/><text fill="#000000" font-family="sans-serif" font-size="13" lengthAdjust="spacing" textLength="43" x="624.5" y="932.0283">creates</text></g><!--link AutoExamEvalVisitor to HeaderBuilder--><g id="link_AutoExamEvalVisitor_HeaderBuilder"><path codeLine="68" d="M490.45,532.02 C433.52,579.65 335.55,661.62 265.18,720.49 " fill="none" id="AutoExamEvalVisitor-to-HeaderBuilder" style="stroke:#181818;stroke-width:1.0;"/><polygon fill="#181818" points="261.01,723.98,270.4798,721.2739,264.8453,720.7721,265.3471,715.1375,261.01,723.98" style="stroke:#181818;stroke-width:1.0;"/></g><!--link HeaderBuilder to Header--><g id="link_HeaderBuilder_Header"><path codeLine="69" d="M181.5,859.09 C181.5,901.7 181.5,956.59 181.5,998.31 " fill="none" id="HeaderBuilder-to-Header" style="stroke:#181818;stroke-width:1.0;"/><polygon fill="#181818" points="181.5,1003.33,185.5,994.33,181.5,998.33,177.5,994.33,181.5,1003.33" style="stroke:#181818;stroke-width:1.0;"/><polygon fill="#000000" points="186.5,931.6455,189.4389,922.6004,183.5611,922.6004,186.5,931.6455" style="stroke:#000000;stroke-width:1.0;"/><text fill="#000000" font-family="sans-serif" font-size="13" lengthAdjust="spacing" textLength="43" x="195.5" y="932.0283">creates</text></g><!--SRC=[hLJ1RkCW4Btp5Ho9slG3giXIcxIxaNhQDhqJU-AW9SO2d6sqsd_lWC76hfrUDWTdu3qUp1kON79Zw5e3jx2h2_m-D5OzVV3JRajNgzqso-XVye-GV9QuLfNLIahGkA0V-8KKVpVqMKYWzrISQgMj6x2Qs-CYe4u3qTnBHr5sGDfYUcE7lu8-Ynp-mnO3HWaLw37dbkQgqIOzJiIVpbo-2oEiSic7ACayoEuR8GklPpLCwJdiqP6yYI4QwKJydgh3sWkmg3D5-YFiyKrOTCAwxpnf0oRNehP2LQpeu_a5Bxmg6ru2ao6OfxvQtUIsqS1CZER9Fu7ZW1tztsB2GUSwIrnh5rppRSZucc-xr-PhrbCBdm6AFSz_lrrgO8TaS6tH3urpVaKPeo4z9iT6rm7psQWJ5rMNpfA-gAf4FY2ytOIvzYgus-s3C8l62yzDAXf5GjKGZ0KCI7UWrfPUggqS0bqL0-QVekMsCGZsWt69fdAvSiBKQ2IaLWzE6l1ZD_3emCLVK2l_A2_TdTXQVE9x2Ik7PqvVLCNZfVNneIfyiLepRwbDwdLMed0Uy3DGvcem0WgGO3i8Zq78J6Ezkyk-QQNacquxLaXw8fdhbSjbDlA4Z2oAZ92bkIerqGF9L5-Cek5TaFJX9nkspTdGR5PayBp8yB7r-43g4m00]--></g></svg>