<?xml version="1.0" encoding="us-ascii" standalone="no"?><svg xmlns="http://www.w3.org/2000/svg" xmlns:xlink="http://www.w3.org/1999/xlink" contentStyleType="text/css" height="419px" preserveAspectRatio="none" style="width:1447px;height:419px;background:#FFFFFF;" version="1.1" viewBox="0 0 1447 419" width="1447px" zoomAndPan="magnify"><defs/><g><!--class RequestEnrollmentUI--><g id="elem_RequestEnrollmentUI"><rect codeLine="2" fill="#F1F1F1" height="56.6211" id="RequestEnrollmentUI" rx="2.5" ry="2.5" style="stroke:#181818;stroke-width:0.5;" width="176" x="754" y="7"/><ellipse cx="769" cy="27.3105" fill="#ADD1B2" rx="11" ry="11" style="stroke:#181818;stroke-width:1.0;"/><path d="M771.9731,32.9536 Q771.3921,33.2524 770.7529,33.4019 Q770.1138,33.5513 769.4082,33.5513 Q766.9014,33.5513 765.5815,31.8994 Q764.2617,30.2476 764.2617,27.1265 Q764.2617,23.9971 765.5815,22.3452 Q766.9014,20.6934 769.4082,20.6934 Q770.1138,20.6934 770.7612,20.8428 Q771.4087,20.9922 771.9731,21.291 L771.9731,24.0137 Q771.3423,23.4326 770.7488,23.1628 Q770.1553,22.8931 769.5244,22.8931 Q768.1797,22.8931 767.4949,23.9597 Q766.8101,25.0264 766.8101,27.1265 Q766.8101,29.2183 767.4949,30.2849 Q768.1797,31.3516 769.5244,31.3516 Q770.1553,31.3516 770.7488,31.0818 Q771.3423,30.812 771.9731,30.231 Z " fill="#000000"/><text fill="#000000" font-family="sans-serif" font-size="12" font-style="italic" lengthAdjust="spacing" textLength="23" x="843.5" y="23.6016">&#171;UI&#187;</text><text fill="#000000" font-family="sans-serif" font-size="14" lengthAdjust="spacing" textLength="144" x="783" y="39.668">RequestEnrollmentUI</text><line style="stroke:#181818;stroke-width:0.5;" x1="755" x2="929" y1="47.6211" y2="47.6211"/><line style="stroke:#181818;stroke-width:0.5;" x1="755" x2="929" y1="55.6211" y2="55.6211"/></g><!--class RequestEnrollmentController--><g id="elem_RequestEnrollmentController"><rect codeLine="5" fill="#F1F1F1" height="106.0859" id="RequestEnrollmentController" rx="2.5" ry="2.5" style="stroke:#181818;stroke-width:0.5;" width="911" x="386.5" y="124"/><ellipse cx="737.75" cy="144.3105" fill="#ADD1B2" rx="11" ry="11" style="stroke:#181818;stroke-width:1.0;"/><path d="M740.7231,149.9536 Q740.1421,150.2524 739.5029,150.4019 Q738.8638,150.5513 738.1582,150.5513 Q735.6514,150.5513 734.3315,148.8994 Q733.0117,147.2476 733.0117,144.1265 Q733.0117,140.9971 734.3315,139.3452 Q735.6514,137.6934 738.1582,137.6934 Q738.8638,137.6934 739.5112,137.8428 Q740.1587,137.9922 740.7231,138.291 L740.7231,141.0137 Q740.0923,140.4326 739.4988,140.1628 Q738.9053,139.8931 738.2744,139.8931 Q736.9297,139.8931 736.2449,140.9597 Q735.5601,142.0264 735.5601,144.1265 Q735.5601,146.2183 736.2449,147.2849 Q736.9297,148.3516 738.2744,148.3516 Q738.9053,148.3516 739.4988,148.0818 Q740.0923,147.812 740.7231,147.231 Z " fill="#000000"/><text fill="#000000" font-family="sans-serif" font-size="12" font-style="italic" lengthAdjust="spacing" textLength="68" x="824.25" y="140.6016">&#171;Controller&#187;</text><text fill="#000000" font-family="sans-serif" font-size="14" lengthAdjust="spacing" textLength="200" x="758.25" y="156.668">RequestEnrollmentController</text><line style="stroke:#181818;stroke-width:0.5;" x1="387.5" x2="1296.5" y1="164.6211" y2="164.6211"/><line style="stroke:#181818;stroke-width:0.5;" x1="387.5" x2="1296.5" y1="172.6211" y2="172.6211"/><ellipse cx="397.5" cy="186.3652" fill="#84BE84" rx="3" ry="3" style="stroke:#038048;stroke-width:1.0;"/><text fill="#000000" font-family="sans-serif" font-size="14" lengthAdjust="spacing" textLength="584" x="406.5" y="190.1563">Iterable&lt;Course&gt; : listCoursesWhereStudentCanEnroll(coursesWhereStudentIsEnroll)</text><ellipse cx="397.5" cy="202.8535" fill="#84BE84" rx="3" ry="3" style="stroke:#038048;stroke-width:1.0;"/><text fill="#000000" font-family="sans-serif" font-size="14" lengthAdjust="spacing" textLength="885" x="406.5" y="206.6445">Iterable&lt;Course&gt; : removeCoursesWhereStudentIsAlreadyEnrolled(coursesWhereStudentIsEnroll, oursesWhereStudentCanEnroll)</text><ellipse cx="397.5" cy="219.3418" fill="#84BE84" rx="3" ry="3" style="stroke:#038048;stroke-width:1.0;"/><text fill="#000000" font-family="sans-serif" font-size="14" lengthAdjust="spacing" textLength="214" x="406.5" y="223.1328">void : createEnrollment(course)</text></g><!--class CourseRepository--><g id="elem_CourseRepository"><rect codeLine="11" fill="#F1F1F1" height="73.1094" id="CourseRepository" rx="2.5" ry="2.5" style="stroke:#181818;stroke-width:0.5;" width="474" x="7" y="315"/><ellipse cx="178.75" cy="335.3105" fill="#ADD1B2" rx="11" ry="11" style="stroke:#181818;stroke-width:1.0;"/><path d="M181.7231,340.9536 Q181.1421,341.2524 180.5029,341.4019 Q179.8638,341.5513 179.1582,341.5513 Q176.6514,341.5513 175.3315,339.8994 Q174.0117,338.2476 174.0117,335.1265 Q174.0117,331.9971 175.3315,330.3452 Q176.6514,328.6934 179.1582,328.6934 Q179.8638,328.6934 180.5112,328.8428 Q181.1587,328.9922 181.7231,329.291 L181.7231,332.0137 Q181.0923,331.4326 180.4988,331.1628 Q179.9053,330.8931 179.2744,330.8931 Q177.9297,330.8931 177.2449,331.9597 Q176.5601,333.0264 176.5601,335.1265 Q176.5601,337.2183 177.2449,338.2849 Q177.9297,339.3516 179.2744,339.3516 Q179.9053,339.3516 180.4988,339.0818 Q181.0923,338.812 181.7231,338.231 Z " fill="#000000"/><text fill="#000000" font-family="sans-serif" font-size="12" font-style="italic" lengthAdjust="spacing" textLength="73" x="223.75" y="331.6016">&#171;Repository&#187;</text><text fill="#000000" font-family="sans-serif" font-size="14" lengthAdjust="spacing" textLength="122" x="199.25" y="347.668">CourseRepository</text><line style="stroke:#181818;stroke-width:0.5;" x1="8" x2="480" y1="355.6211" y2="355.6211"/><line style="stroke:#181818;stroke-width:0.5;" x1="8" x2="480" y1="363.6211" y2="363.6211"/><ellipse cx="18" cy="377.3652" fill="#84BE84" rx="3" ry="3" style="stroke:#038048;stroke-width:1.0;"/><text fill="#000000" font-family="sans-serif" font-size="14" lengthAdjust="spacing" textLength="448" x="27" y="381.1563">Iterable&lt;Course&gt; : findCourseListForStudentWhereHeCanEnroll()</text></g><!--class EnrollmentBuilder--><g id="elem_EnrollmentBuilder"><rect codeLine="15" fill="#F1F1F1" height="122.5742" id="EnrollmentBuilder" rx="2.5" ry="2.5" style="stroke:#181818;stroke-width:0.5;" width="340" x="516" y="290"/><ellipse cx="620.25" cy="310.3105" fill="#ADD1B2" rx="11" ry="11" style="stroke:#181818;stroke-width:1.0;"/><path d="M623.2231,315.9536 Q622.6421,316.2524 622.0029,316.4019 Q621.3638,316.5513 620.6582,316.5513 Q618.1514,316.5513 616.8315,314.8994 Q615.5117,313.2476 615.5117,310.1265 Q615.5117,306.9971 616.8315,305.3452 Q618.1514,303.6934 620.6582,303.6934 Q621.3638,303.6934 622.0112,303.8428 Q622.6587,303.9922 623.2231,304.291 L623.2231,307.0137 Q622.5923,306.4326 621.9988,306.1628 Q621.4053,305.8931 620.7744,305.8931 Q619.4297,305.8931 618.7449,306.9597 Q618.0601,308.0264 618.0601,310.1265 Q618.0601,312.2183 618.7449,313.2849 Q619.4297,314.3516 620.7744,314.3516 Q621.4053,314.3516 621.9988,314.0818 Q622.5923,313.812 623.2231,313.231 Z " fill="#000000"/><text fill="#000000" font-family="sans-serif" font-size="12" font-style="italic" lengthAdjust="spacing" textLength="52" x="676.25" y="306.6016">&#171;Builder&#187;</text><text fill="#000000" font-family="sans-serif" font-size="14" lengthAdjust="spacing" textLength="123" x="640.75" y="322.668">EnrollmentBuilder</text><line style="stroke:#181818;stroke-width:0.5;" x1="517" x2="855" y1="330.6211" y2="330.6211"/><line style="stroke:#181818;stroke-width:0.5;" x1="517" x2="855" y1="338.6211" y2="338.6211"/><ellipse cx="527" cy="352.3652" fill="#84BE84" rx="3" ry="3" style="stroke:#038048;stroke-width:1.0;"/><text fill="#000000" font-family="sans-serif" font-size="14" lengthAdjust="spacing" textLength="314" x="536" y="356.1563">void : withEnrollmentStatus(enrollmentStatus)</text><ellipse cx="527" cy="368.8535" fill="#84BE84" rx="3" ry="3" style="stroke:#038048;stroke-width:1.0;"/><text fill="#000000" font-family="sans-serif" font-size="14" lengthAdjust="spacing" textLength="170" x="536" y="372.6445">void : ofStudent(student)</text><ellipse cx="527" cy="385.3418" fill="#84BE84" rx="3" ry="3" style="stroke:#038048;stroke-width:1.0;"/><text fill="#000000" font-family="sans-serif" font-size="14" lengthAdjust="spacing" textLength="159" x="536" y="389.1328">void : inCourse(course)</text><ellipse cx="527" cy="401.8301" fill="#84BE84" rx="3" ry="3" style="stroke:#038048;stroke-width:1.0;"/><text fill="#000000" font-family="sans-serif" font-size="14" lengthAdjust="spacing" textLength="132" x="536" y="405.6211">Enrollment : build()</text></g><!--class EnrollmentRepository--><g id="elem_EnrollmentRepository"><rect codeLine="22" fill="#F1F1F1" height="73.1094" id="EnrollmentRepository" rx="2.5" ry="2.5" style="stroke:#181818;stroke-width:0.5;" width="214" x="891" y="315"/><ellipse cx="921.3" cy="335.3105" fill="#ADD1B2" rx="11" ry="11" style="stroke:#181818;stroke-width:1.0;"/><path d="M924.2731,340.9536 Q923.6921,341.2524 923.0529,341.4019 Q922.4138,341.5513 921.7082,341.5513 Q919.2014,341.5513 917.8815,339.8994 Q916.5617,338.2476 916.5617,335.1265 Q916.5617,331.9971 917.8815,330.3452 Q919.2014,328.6934 921.7082,328.6934 Q922.4138,328.6934 923.0612,328.8428 Q923.7087,328.9922 924.2731,329.291 L924.2731,332.0137 Q923.6423,331.4326 923.0488,331.1628 Q922.4553,330.8931 921.8244,330.8931 Q920.4797,330.8931 919.7949,331.9597 Q919.1101,333.0264 919.1101,335.1265 Q919.1101,337.2183 919.7949,338.2849 Q920.4797,339.3516 921.8244,339.3516 Q922.4553,339.3516 923.0488,339.0818 Q923.6423,338.812 924.2731,338.231 Z " fill="#000000"/><text fill="#000000" font-family="sans-serif" font-size="12" font-style="italic" lengthAdjust="spacing" textLength="73" x="976.2" y="331.6016">&#171;Repository&#187;</text><text fill="#000000" font-family="sans-serif" font-size="14" lengthAdjust="spacing" textLength="148" x="938.7" y="347.668">EnrollmentRepository</text><line style="stroke:#181818;stroke-width:0.5;" x1="892" x2="1104" y1="355.6211" y2="355.6211"/><line style="stroke:#181818;stroke-width:0.5;" x1="892" x2="1104" y1="363.6211" y2="363.6211"/><ellipse cx="902" cy="377.3652" fill="#84BE84" rx="3" ry="3" style="stroke:#038048;stroke-width:1.0;"/><text fill="#000000" font-family="sans-serif" font-size="14" lengthAdjust="spacing" textLength="188" x="911" y="381.1563">void : save (newEnrollment)</text></g><!--class StudentRepository--><g id="elem_StudentRepository"><rect codeLine="26" fill="#F1F1F1" height="73.1094" id="StudentRepository" rx="2.5" ry="2.5" style="stroke:#181818;stroke-width:0.5;" width="300" x="1140" y="315"/><ellipse cx="1222.75" cy="335.3105" fill="#ADD1B2" rx="11" ry="11" style="stroke:#181818;stroke-width:1.0;"/><path d="M1225.7231,340.9536 Q1225.1421,341.2524 1224.5029,341.4019 Q1223.8638,341.5513 1223.1582,341.5513 Q1220.6514,341.5513 1219.3315,339.8994 Q1218.0117,338.2476 1218.0117,335.1265 Q1218.0117,331.9971 1219.3315,330.3452 Q1220.6514,328.6934 1223.1582,328.6934 Q1223.8638,328.6934 1224.5112,328.8428 Q1225.1587,328.9922 1225.7231,329.291 L1225.7231,332.0137 Q1225.0923,331.4326 1224.4988,331.1628 Q1223.9053,330.8931 1223.2744,330.8931 Q1221.9297,330.8931 1221.2449,331.9597 Q1220.5601,333.0264 1220.5601,335.1265 Q1220.5601,337.2183 1221.2449,338.2849 Q1221.9297,339.3516 1223.2744,339.3516 Q1223.9053,339.3516 1224.4988,339.0818 Q1225.0923,338.812 1225.7231,338.231 Z " fill="#000000"/><text fill="#000000" font-family="sans-serif" font-size="12" font-style="italic" lengthAdjust="spacing" textLength="73" x="1269.75" y="331.6016">&#171;Repository&#187;</text><text fill="#000000" font-family="sans-serif" font-size="14" lengthAdjust="spacing" textLength="126" x="1243.25" y="347.668">StudentRepository</text><line style="stroke:#181818;stroke-width:0.5;" x1="1141" x2="1439" y1="355.6211" y2="355.6211"/><line style="stroke:#181818;stroke-width:0.5;" x1="1141" x2="1439" y1="363.6211" y2="363.6211"/><ellipse cx="1151" cy="377.3652" fill="#84BE84" rx="3" ry="3" style="stroke:#038048;stroke-width:1.0;"/><text fill="#000000" font-family="sans-serif" font-size="14" lengthAdjust="spacing" textLength="274" x="1160" y="381.1563">Student : findBySystemUser(systemUser)</text></g><!--link RequestEnrollmentUI to RequestEnrollmentController--><g id="link_RequestEnrollmentUI_RequestEnrollmentController"><path codeLine="30" d="M842,64.39 C842,79.74 842,99.38 842,117.89 " fill="none" id="RequestEnrollmentUI-to-RequestEnrollmentController" style="stroke:#181818;stroke-width:1.0;stroke-dasharray:7.0,7.0;"/><polygon fill="#181818" points="842,122.6,846,113.6,842,117.6,838,113.6,842,122.6" style="stroke:#181818;stroke-width:1.0;"/></g><!--link RequestEnrollmentController to CourseRepository--><g id="link_RequestEnrollmentController_CourseRepository"><path codeLine="31" d="M660.14,230.46 C567.94,257.06 458.08,288.75 374.4,312.89 " fill="none" id="RequestEnrollmentController-to-CourseRepository" style="stroke:#181818;stroke-width:1.0;"/><polygon fill="#181818" points="369.67,314.54,379.4263,315.8868,374.4738,313.1532,377.2074,308.2007,369.67,314.54" style="stroke:#181818;stroke-width:1.0;"/></g><!--link RequestEnrollmentController to EnrollmentRepository--><g id="link_RequestEnrollmentController_EnrollmentRepository"><path codeLine="32" d="M889.23,230.22 C912.44,255.9 939.99,286.36 961.56,310.2 " fill="none" id="RequestEnrollmentController-to-EnrollmentRepository" style="stroke:#181818;stroke-width:1.0;"/><polygon fill="#181818" points="964.51,313.57,961.4247,304.2169,961.1502,309.8671,955.5,309.5926,964.51,313.57" style="stroke:#181818;stroke-width:1.0;"/></g><!--link RequestEnrollmentController to StudentRepository--><g id="link_RequestEnrollmentController_StudentRepository"><path codeLine="33" d="M978.24,230.46 C1046.97,256.92 1128.8,288.43 1191.37,312.52 " fill="none" id="RequestEnrollmentController-to-StudentRepository" style="stroke:#181818;stroke-width:1.0;"/><polygon fill="#181818" points="1195.6,314.54,1188.6473,307.5644,1190.9362,312.7374,1185.7632,315.0264,1195.6,314.54" style="stroke:#181818;stroke-width:1.0;"/></g><!--link RequestEnrollmentController to EnrollmentBuilder--><g id="link_RequestEnrollmentController_EnrollmentBuilder"><path codeLine="34" d="M794.77,230.22 C779.01,247.65 761.26,267.28 744.74,285.55 " fill="none" id="RequestEnrollmentController-to-EnrollmentBuilder" style="stroke:#181818;stroke-width:1.0;"/><polygon fill="#181818" points="742.01,288.67,751.0115,284.6735,745.3619,284.9599,745.0754,279.3104,742.01,288.67" style="stroke:#181818;stroke-width:1.0;"/></g><!--SRC=[bLF1ReCm3Btp5JbIRUq7J1NIYZODQQSYj7DAN3LIIBOuKA5f_xv0iWO11OqBTco_ztZ4fQ28v0XVDQ1vaLe9KO4qHKRs-o9B4l8T_KHHET-LAccw6BJj3aa_HUppG383cfu4s6gj4HBoH0H7upByk826tDIimwBI0SVbj9YXgstkmsgeL0FftEopq41Pwo20BH4yaWLbV-oDuimobXRLG733usw2OKxD4JuLSgDqQrqAoR9BPowPozwjNwzAUp6zi3S8RWteWfH3pGNh_ugF1cHU_PMRInZ83JKrnZ0w67snEdiLCRhtgCwbatnpmbK3ZUqvTOASwdIa-gvH8-b86o2nX6iO7U1vYQjWlizxVMZp5WrK1OAEyHRsk7FRiTibI_iGBUtATfjChiRgm9nDgqCJB_v1uszEz0i0]--></g></svg>