<?xml version="1.0" encoding="us-ascii" standalone="no"?><svg xmlns="http://www.w3.org/2000/svg" xmlns:xlink="http://www.w3.org/1999/xlink" contentStyleType="text/css" height="989px" preserveAspectRatio="none" style="width:365px;height:989px;background:#FFFFFF;" version="1.1" viewBox="0 0 365 989" width="365px" zoomAndPan="magnify"><defs/><g><!--class ChangeEnrollmentsStatusUI--><g id="elem_ChangeEnrollmentsStatusUI"><rect codeLine="2" fill="#F1F1F1" height="56.6211" id="ChangeEnrollmentsStatusUI" rx="2.5" ry="2.5" style="stroke:#181818;stroke-width:0.5;" width="223" x="71" y="7"/><ellipse cx="86" cy="27.3105" fill="#ADD1B2" rx="11" ry="11" style="stroke:#181818;stroke-width:1.0;"/><path d="M88.9731,32.9536 Q88.3921,33.2524 87.7529,33.4019 Q87.1138,33.5513 86.4082,33.5513 Q83.9014,33.5513 82.5815,31.8994 Q81.2617,30.2476 81.2617,27.1265 Q81.2617,23.9971 82.5815,22.3452 Q83.9014,20.6934 86.4082,20.6934 Q87.1138,20.6934 87.7612,20.8428 Q88.4087,20.9922 88.9731,21.291 L88.9731,24.0137 Q88.3423,23.4326 87.7488,23.1628 Q87.1553,22.8931 86.5244,22.8931 Q85.1797,22.8931 84.4949,23.9597 Q83.8101,25.0264 83.8101,27.1265 Q83.8101,29.2183 84.4949,30.2849 Q85.1797,31.3516 86.5244,31.3516 Q87.1553,31.3516 87.7488,31.0818 Q88.3423,30.812 88.9731,30.231 Z " fill="#000000"/><text fill="#000000" font-family="sans-serif" font-size="12" font-style="italic" lengthAdjust="spacing" textLength="23" x="184" y="23.6016">&#171;UI&#187;</text><text fill="#000000" font-family="sans-serif" font-size="14" lengthAdjust="spacing" textLength="191" x="100" y="39.668">ChangeEnrollmentsStatusUI</text><line style="stroke:#181818;stroke-width:0.5;" x1="72" x2="293" y1="47.6211" y2="47.6211"/><line style="stroke:#181818;stroke-width:0.5;" x1="72" x2="293" y1="55.6211" y2="55.6211"/></g><!--class ChangeEnrollmentsStatusController--><g id="elem_ChangeEnrollmentsStatusController"><rect codeLine="5" fill="#F1F1F1" height="139.0625" id="ChangeEnrollmentsStatusController" rx="2.5" ry="2.5" style="stroke:#181818;stroke-width:0.5;" width="341" x="12" y="125"/><ellipse cx="54.9" cy="145.3105" fill="#ADD1B2" rx="11" ry="11" style="stroke:#181818;stroke-width:1.0;"/><path d="M57.8731,150.9536 Q57.2921,151.2524 56.6529,151.4019 Q56.0138,151.5513 55.3082,151.5513 Q52.8014,151.5513 51.4815,149.8994 Q50.1617,148.2476 50.1617,145.1265 Q50.1617,141.9971 51.4815,140.3452 Q52.8014,138.6934 55.3082,138.6934 Q56.0138,138.6934 56.6612,138.8428 Q57.3087,138.9922 57.8731,139.291 L57.8731,142.0137 Q57.2423,141.4326 56.6488,141.1628 Q56.0553,140.8931 55.4244,140.8931 Q54.0797,140.8931 53.3949,141.9597 Q52.7101,143.0264 52.7101,145.1265 Q52.7101,147.2183 53.3949,148.2849 Q54.0797,149.3516 55.4244,149.3516 Q56.0553,149.3516 56.6488,149.0818 Q57.2423,148.812 57.8731,148.231 Z " fill="#000000"/><text fill="#000000" font-family="sans-serif" font-size="12" font-style="italic" lengthAdjust="spacing" textLength="68" x="164.6" y="141.6016">&#171;Controller&#187;</text><text fill="#000000" font-family="sans-serif" font-size="14" lengthAdjust="spacing" textLength="247" x="75.1" y="157.668">ChangeEnrollmentsStatusController</text><line style="stroke:#181818;stroke-width:0.5;" x1="13" x2="352" y1="165.6211" y2="165.6211"/><line style="stroke:#181818;stroke-width:0.5;" x1="13" x2="352" y1="173.6211" y2="173.6211"/><ellipse cx="23" cy="187.3652" fill="#84BE84" rx="3" ry="3" style="stroke:#038048;stroke-width:1.0;"/><text fill="#000000" font-family="sans-serif" font-size="14" lengthAdjust="spacing" textLength="254" x="32" y="191.1563">Iterable&lt;Course&gt;: listOpenCourses()</text><ellipse cx="23" cy="203.8535" fill="#84BE84" rx="3" ry="3" style="stroke:#038048;stroke-width:1.0;"/><text fill="#000000" font-family="sans-serif" font-size="14" lengthAdjust="spacing" textLength="253" x="32" y="207.6445">Iterable&lt;Course&gt; listEnrollCourses()</text><ellipse cx="23" cy="220.3418" fill="#84BE84" rx="3" ry="3" style="stroke:#038048;stroke-width:1.0;"/><text fill="#000000" font-family="sans-serif" font-size="14" lengthAdjust="spacing" textLength="309" x="32" y="224.1328">boolean: validateDate(course, endDateEnroll)</text><ellipse cx="23" cy="236.8301" fill="#84BE84" rx="3" ry="3" style="stroke:#038048;stroke-width:1.0;"/><text fill="#000000" font-family="sans-serif" font-size="14" lengthAdjust="spacing" textLength="315" x="32" y="240.6211">void: openEnrollments(course, endDateEnroll)</text><ellipse cx="23" cy="253.3184" fill="#84BE84" rx="3" ry="3" style="stroke:#038048;stroke-width:1.0;"/><text fill="#000000" font-family="sans-serif" font-size="14" lengthAdjust="spacing" textLength="210" x="32" y="257.1094">void: closeEnrollments(course)</text></g><!--class CourseRepository--><g id="elem_CourseRepository"><rect codeLine="13" fill="#F1F1F1" height="106.0859" id="CourseRepository" rx="2.5" ry="2.5" style="stroke:#181818;stroke-width:0.5;" width="351" x="7" y="325"/><ellipse cx="117.25" cy="345.3105" fill="#ADD1B2" rx="11" ry="11" style="stroke:#181818;stroke-width:1.0;"/><path d="M120.2231,350.9536 Q119.6421,351.2524 119.0029,351.4019 Q118.3638,351.5513 117.6582,351.5513 Q115.1514,351.5513 113.8315,349.8994 Q112.5117,348.2476 112.5117,345.1265 Q112.5117,341.9971 113.8315,340.3452 Q115.1514,338.6934 117.6582,338.6934 Q118.3638,338.6934 119.0112,338.8428 Q119.6587,338.9922 120.2231,339.291 L120.2231,342.0137 Q119.5923,341.4326 118.9988,341.1628 Q118.4053,340.8931 117.7744,340.8931 Q116.4297,340.8931 115.7449,341.9597 Q115.0601,343.0264 115.0601,345.1265 Q115.0601,347.2183 115.7449,348.2849 Q116.4297,349.3516 117.7744,349.3516 Q118.4053,349.3516 118.9988,349.0818 Q119.5923,348.812 120.2231,348.231 Z " fill="#000000"/><text fill="#000000" font-family="sans-serif" font-size="12" font-style="italic" lengthAdjust="spacing" textLength="73" x="162.25" y="341.6016">&#171;Repository&#187;</text><text fill="#000000" font-family="sans-serif" font-size="14" lengthAdjust="spacing" textLength="122" x="137.75" y="357.668">CourseRepository</text><line style="stroke:#181818;stroke-width:0.5;" x1="8" x2="357" y1="365.6211" y2="365.6211"/><line style="stroke:#181818;stroke-width:0.5;" x1="8" x2="357" y1="373.6211" y2="373.6211"/><ellipse cx="18" cy="387.3652" fill="#84BE84" rx="3" ry="3" style="stroke:#038048;stroke-width:1.0;"/><text fill="#000000" font-family="sans-serif" font-size="14" lengthAdjust="spacing" textLength="322" x="27" y="391.1563">Iterable&lt;Course&gt; findCourseWithOpenStatus()</text><ellipse cx="18" cy="403.8535" fill="#84BE84" rx="3" ry="3" style="stroke:#038048;stroke-width:1.0;"/><text fill="#000000" font-family="sans-serif" font-size="14" lengthAdjust="spacing" textLength="325" x="27" y="407.6445">Iterable&lt;Course&gt; findCourseWithEnrollStatus()</text><ellipse cx="18" cy="420.3418" fill="#84BE84" rx="3" ry="3" style="stroke:#038048;stroke-width:1.0;"/><text fill="#000000" font-family="sans-serif" font-size="14" lengthAdjust="spacing" textLength="123" x="27" y="424.1328">void: save(course)</text></g><!--class Course--><g id="elem_Course"><rect codeLine="19" fill="#F1F1F1" height="237.9922" id="Course" rx="2.5" ry="2.5" style="stroke:#181818;stroke-width:0.5;" width="287" x="39" y="508"/><ellipse cx="153.75" cy="528.3105" fill="#ADD1B2" rx="11" ry="11" style="stroke:#181818;stroke-width:1.0;"/><path d="M156.7231,533.9536 Q156.1421,534.2524 155.5029,534.4019 Q154.8638,534.5513 154.1582,534.5513 Q151.6514,534.5513 150.3315,532.8994 Q149.0117,531.2476 149.0117,528.1265 Q149.0117,524.9971 150.3315,523.3452 Q151.6514,521.6934 154.1582,521.6934 Q154.8638,521.6934 155.5112,521.8428 Q156.1587,521.9922 156.7231,522.291 L156.7231,525.0137 Q156.0923,524.4326 155.4988,524.1628 Q154.9053,523.8931 154.2744,523.8931 Q152.9297,523.8931 152.2449,524.9597 Q151.5601,526.0264 151.5601,528.1265 Q151.5601,530.2183 152.2449,531.2849 Q152.9297,532.3516 154.2744,532.3516 Q154.9053,532.3516 155.4988,532.0818 Q156.0923,531.812 156.7231,531.231 Z " fill="#000000"/><text fill="#000000" font-family="sans-serif" font-size="12" font-style="italic" lengthAdjust="spacing" textLength="43" x="177.25" y="524.6016">&#171;Entity&#187;</text><text fill="#000000" font-family="sans-serif" font-size="14" lengthAdjust="spacing" textLength="49" x="174.25" y="540.668">Course</text><line style="stroke:#181818;stroke-width:0.5;" x1="40" x2="325" y1="548.6211" y2="548.6211"/><rect fill="none" height="6" style="stroke:#C82930;stroke-width:1.0;" width="6" x="47" y="559.3652"/><text fill="#000000" font-family="sans-serif" font-size="14" lengthAdjust="spacing" textLength="131" x="59" y="566.1563">String: courseCode</text><rect fill="none" height="6" style="stroke:#C82930;stroke-width:1.0;" width="6" x="47" y="575.8535"/><text fill="#000000" font-family="sans-serif" font-size="14" lengthAdjust="spacing" textLength="126" x="59" y="582.6445">String: description</text><rect fill="none" height="6" style="stroke:#C82930;stroke-width:1.0;" width="6" x="47" y="592.3418"/><text fill="#000000" font-family="sans-serif" font-size="14" lengthAdjust="spacing" textLength="143" x="59" y="599.1328">Integer: minStudents</text><rect fill="none" height="6" style="stroke:#C82930;stroke-width:1.0;" width="6" x="47" y="608.8301"/><text fill="#000000" font-family="sans-serif" font-size="14" lengthAdjust="spacing" textLength="147" x="59" y="615.6211">Integer: maxStudents</text><rect fill="none" height="6" style="stroke:#C82930;stroke-width:1.0;" width="6" x="47" y="625.3184"/><text fill="#000000" font-family="sans-serif" font-size="14" lengthAdjust="spacing" textLength="177" x="59" y="632.1094">Teacher: teacherInCharge</text><rect fill="none" height="6" style="stroke:#C82930;stroke-width:1.0;" width="6" x="47" y="641.8066"/><text fill="#000000" font-family="sans-serif" font-size="14" lengthAdjust="spacing" textLength="154" x="59" y="648.5977">Date: openCourseDate</text><rect fill="none" height="6" style="stroke:#C82930;stroke-width:1.0;" width="6" x="47" y="658.2949"/><text fill="#000000" font-family="sans-serif" font-size="14" lengthAdjust="spacing" textLength="154" x="59" y="665.0859">Date: closeCourseDate</text><rect fill="none" height="6" style="stroke:#C82930;stroke-width:1.0;" width="6" x="47" y="674.7832"/><text fill="#000000" font-family="sans-serif" font-size="14" lengthAdjust="spacing" textLength="187" x="59" y="681.5742">Date: openEnrollmentsDate</text><rect fill="none" height="6" style="stroke:#C82930;stroke-width:1.0;" width="6" x="47" y="691.2715"/><text fill="#000000" font-family="sans-serif" font-size="14" lengthAdjust="spacing" textLength="187" x="59" y="698.0625">Date: closeEnrollmentsDate</text><line style="stroke:#181818;stroke-width:0.5;" x1="40" x2="325" y1="705.0156" y2="705.0156"/><ellipse cx="50" cy="718.7598" fill="#84BE84" rx="3" ry="3" style="stroke:#038048;stroke-width:1.0;"/><text fill="#000000" font-family="sans-serif" font-size="14" lengthAdjust="spacing" textLength="261" x="59" y="722.5508">void: openEnrollments(endDateEnroll)</text><ellipse cx="50" cy="735.248" fill="#84BE84" rx="3" ry="3" style="stroke:#038048;stroke-width:1.0;"/><text fill="#000000" font-family="sans-serif" font-size="14" lengthAdjust="spacing" textLength="164" x="59" y="739.0391">void: closeEnrollments()</text></g><!--class CourseName--><g id="elem_CourseName"><rect codeLine="33" fill="#F1F1F1" height="73.1094" id="CourseName" rx="2.5" ry="2.5" style="stroke:#181818;stroke-width:0.5;" width="146" x="24.5" y="889.5"/><ellipse cx="51.2" cy="909.8105" fill="#ADD1B2" rx="11" ry="11" style="stroke:#181818;stroke-width:1.0;"/><path d="M54.1731,915.4536 Q53.5921,915.7524 52.9529,915.9019 Q52.3138,916.0513 51.6082,916.0513 Q49.1014,916.0513 47.7815,914.3994 Q46.4617,912.7476 46.4617,909.6265 Q46.4617,906.4971 47.7815,904.8452 Q49.1014,903.1934 51.6082,903.1934 Q52.3138,903.1934 52.9612,903.3428 Q53.6087,903.4922 54.1731,903.791 L54.1731,906.5137 Q53.5423,905.9326 52.9488,905.6628 Q52.3553,905.3931 51.7244,905.3931 Q50.3797,905.3931 49.6949,906.4597 Q49.0101,907.5264 49.0101,909.6265 Q49.0101,911.7183 49.6949,912.7849 Q50.3797,913.8516 51.7244,913.8516 Q52.3553,913.8516 52.9488,913.5818 Q53.5423,913.312 54.1731,912.731 Z " fill="#000000"/><text fill="#000000" font-family="sans-serif" font-size="12" font-style="italic" lengthAdjust="spacing" textLength="86" x="68.8" y="906.1016">&#171;Value Object&#187;</text><text fill="#000000" font-family="sans-serif" font-size="14" lengthAdjust="spacing" textLength="88" x="67.8" y="922.168">CourseName</text><line style="stroke:#181818;stroke-width:0.5;" x1="25.5" x2="169.5" y1="930.1211" y2="930.1211"/><text fill="#000000" font-family="sans-serif" font-size="14" lengthAdjust="spacing" textLength="134" x="30.5" y="947.6563">String: courseName</text><line style="stroke:#181818;stroke-width:0.5;" x1="25.5" x2="169.5" y1="954.6094" y2="954.6094"/></g><!--class CourseStatus--><g id="elem_CourseStatus"><rect codeLine="37" fill="#F1F1F1" height="113.9531" id="CourseStatus" rx="2.5" ry="2.5" style="stroke:#181818;stroke-width:0.5;" width="123" x="206" y="869"/><ellipse cx="221" cy="885" fill="#EB937F" rx="11" ry="11" style="stroke:#181818;stroke-width:1.0;"/><path d="M225.1143,891 L217.3945,891 L217.3945,878.6069 L225.1143,878.6069 L225.1143,880.7651 L219.8433,880.7651 L219.8433,883.438 L224.6162,883.438 L224.6162,885.5962 L219.8433,885.5962 L219.8433,888.8418 L225.1143,888.8418 Z " fill="#000000"/><text fill="#000000" font-family="sans-serif" font-size="14" lengthAdjust="spacing" textLength="91" x="235" y="890.291">CourseStatus</text><line style="stroke:#181818;stroke-width:0.5;" x1="207" x2="328" y1="901" y2="901"/><text fill="#000000" font-family="sans-serif" font-size="14" lengthAdjust="spacing" textLength="44" x="212" y="918.5352">CLOSE</text><text fill="#000000" font-family="sans-serif" font-size="14" lengthAdjust="spacing" textLength="37" x="212" y="935.0234">OPEN</text><text fill="#000000" font-family="sans-serif" font-size="14" lengthAdjust="spacing" textLength="52" x="212" y="951.5117">ENROLL</text><text fill="#000000" font-family="sans-serif" font-size="14" lengthAdjust="spacing" textLength="92" x="212" y="968">IN_PROGRESS</text><line style="stroke:#181818;stroke-width:0.5;" x1="207" x2="328" y1="974.9531" y2="974.9531"/></g><!--link ChangeEnrollmentsStatusUI to ChangeEnrollmentsStatusController--><g id="link_ChangeEnrollmentsStatusUI_ChangeEnrollmentsStatusController"><path codeLine="44" d="M182.5,64.21 C182.5,79.51 182.5,99.33 182.5,118.83 " fill="none" id="ChangeEnrollmentsStatusUI-to-ChangeEnrollmentsStatusController" style="stroke:#181818;stroke-width:1.0;stroke-dasharray:7.0,7.0;"/><polygon fill="#181818" points="182.5,123.59,186.5,114.59,182.5,118.59,178.5,114.59,182.5,123.59" style="stroke:#181818;stroke-width:1.0;"/></g><!--link ChangeEnrollmentsStatusController to CourseRepository--><g id="link_ChangeEnrollmentsStatusController_CourseRepository"><path codeLine="45" d="M182.5,264.38 C182.5,282.31 182.5,301.45 182.5,318.77 " fill="none" id="ChangeEnrollmentsStatusController-to-CourseRepository" style="stroke:#181818;stroke-width:1.0;stroke-dasharray:7.0,7.0;"/><polygon fill="#181818" points="182.5,323.57,186.5,314.57,182.5,318.57,178.5,314.57,182.5,323.57" style="stroke:#181818;stroke-width:1.0;"/></g><!--link CourseRepository to Course--><g id="link_CourseRepository_Course"><path codeLine="46" d="M182.5,431.38 C182.5,452.1 182.5,476.86 182.5,501.67 " fill="none" id="CourseRepository-to-Course" style="stroke:#181818;stroke-width:1.0;"/><polygon fill="#181818" points="182.5,506.63,186.5,497.63,182.5,501.63,178.5,497.63,182.5,506.63" style="stroke:#181818;stroke-width:1.0;"/><polygon fill="#000000" points="187.5,474.6553,190.4389,465.6102,184.5611,465.6102,187.5,474.6553" style="stroke:#000000;stroke-width:1.0;"/><text fill="#000000" font-family="sans-serif" font-size="13" lengthAdjust="spacing" textLength="35" x="196.5" y="474.5684">saves</text></g><!--link Course to CourseName--><g id="link_Course_CourseName"><path codeLine="47" d="M148.66,746.24 C135.71,791.51 121.63,840.69 111.53,875.99 " fill="none" id="Course-to-CourseName" style="stroke:#181818;stroke-width:1.0;"/><polygon fill="#181818" points="107.72,888.28,113.2144,883.6097,111.0167,876.7417,105.5222,881.412,107.72,888.28" style="stroke:#181818;stroke-width:1.0;"/></g><!--link Course to CourseStatus--><g id="link_Course_CourseStatus"><path codeLine="48" d="M216.34,746.24 C227.81,786.31 240.16,829.46 249.85,863.32 " fill="none" id="Course-to-CourseStatus" style="stroke:#181818;stroke-width:1.0;"/><polygon fill="#181818" points="251.38,867.68,252.7613,857.9285,250.0102,862.8713,245.0673,860.1202,251.38,867.68" style="stroke:#181818;stroke-width:1.0;"/><text fill="#000000" font-family="sans-serif" font-size="13" lengthAdjust="spacing" textLength="8" x="210.1584" y="766.5413">1</text><text fill="#000000" font-family="sans-serif" font-size="13" lengthAdjust="spacing" textLength="8" x="240.9279" y="858.3702">1</text></g><!--SRC=[ZLHTQy8m57tlhmW-wROAUotI5rT6GQpOkJsEsDxLZ9X8SYiRO_zz-V2ZLgih579ppabkxhb9mQdMPBoYee94ACdv6WJg72dMUf6IqMYHnZ7v2Nw3eBZ67Kk1TWgKqHm3foNckoSfWg9B3WQjbOOu8fnfp3OW_8Jk3pgOZkXtR5ENKdAW8Y9Robb94PxCtoySwu60A6tifNl9Lh8o8jBispZ4VoG5bnhEDOD6RTp473PICvJgsvJY65mf1VbWelJZDuOhMnDVrUwId2fyLYsDprhJBNHbQl9B138yvcQ_aEIecAZCYHrhB4ku09QW2yKsoAHeeAb0g415PCtC6UhI5keYJBykm2z0YvM5qGzIOTfDLStjhJlUFdy66v_1pgehUClzxZMwI5rjTA5zhhRGcILJkhQsl59U0ycMdr3WmPnJMopJga7KwvtODq33ol4aovD3bCsIwI58flDiCZc4wVHzDi-UvqcUsqMxNuJXCBxz1WItNmctJkk-16SNA0ptBE9RMPDunp9OUDUesdwwzzYpKEm6pRe4Vm00]--></g></svg>