<?xml version="1.0" encoding="us-ascii" standalone="no"?><svg xmlns="http://www.w3.org/2000/svg" xmlns:xlink="http://www.w3.org/1999/xlink" contentStyleType="text/css" height="763px" preserveAspectRatio="none" style="width:596px;height:763px;background:#FFFFFF;" version="1.1" viewBox="0 0 596 763" width="596px" zoomAndPan="magnify"><defs/><g><rect fill="none" height="481.834" style="stroke:#000000;stroke-width:1.5;" width="579.5" x="10" y="200.041"/><rect fill="none" height="286.0605" style="stroke:#000000;stroke-width:1.5;" width="559.5" x="20" y="224.3516"/><rect fill="none" height="107.2422" style="stroke:#000000;stroke-width:1.5;" width="539.5" x="30" y="351.9043"/><rect fill="none" height="46.6211" style="stroke:#000000;stroke-width:1.5;" width="519.5" x="40" y="405.5254"/><rect fill="none" height="135.5078" style="stroke:#000000;stroke-width:1.5;" width="519.5" x="40" y="539.3672"/><line style="stroke:#181818;stroke-width:0.5;stroke-dasharray:5.0,5.0;" x1="75" x2="75" y1="36.4883" y2="728.1855"/><line style="stroke:#181818;stroke-width:0.5;stroke-dasharray:5.0,5.0;" x1="518.5" x2="518.5" y1="36.4883" y2="728.1855"/><rect fill="#E2E2F0" height="30.4883" rx="2.5" ry="2.5" style="stroke:#181818;stroke-width:0.5;" width="51" x="50" y="5"/><text fill="#000000" font-family="sans-serif" font-size="14" lengthAdjust="spacing" textLength="37" x="57" y="25.5352">Actor</text><rect fill="#E2E2F0" height="30.4883" rx="2.5" ry="2.5" style="stroke:#181818;stroke-width:0.5;" width="51" x="50" y="727.1855"/><text fill="#000000" font-family="sans-serif" font-size="14" lengthAdjust="spacing" textLength="37" x="57" y="747.7207">Actor</text><rect fill="#E2E2F0" height="30.4883" rx="2.5" ry="2.5" style="stroke:#181818;stroke-width:0.5;" width="62" x="487.5" y="5"/><text fill="#000000" font-family="sans-serif" font-size="14" lengthAdjust="spacing" textLength="48" x="494.5" y="25.5352">System</text><rect fill="#E2E2F0" height="30.4883" rx="2.5" ry="2.5" style="stroke:#181818;stroke-width:0.5;" width="62" x="487.5" y="727.1855"/><text fill="#000000" font-family="sans-serif" font-size="14" lengthAdjust="spacing" textLength="48" x="494.5" y="747.7207">System</text><polygon fill="#181818" points="506.5,63.7988,516.5,67.7988,506.5,71.7988,510.5,67.7988" style="stroke:#181818;stroke-width:1.0;"/><line style="stroke:#181818;stroke-width:1.0;" x1="75.5" x2="512.5" y1="67.7988" y2="67.7988"/><text fill="#000000" font-family="sans-serif" font-size="13" font-weight="bold" lengthAdjust="spacing" textLength="9" x="82.5" y="63.0566">1</text><text fill="#000000" font-family="sans-serif" font-size="13" lengthAdjust="spacing" textLength="147" x="95.5" y="63.0566">Authentication Request</text><polygon fill="#181818" points="86.5,93.1094,76.5,97.1094,86.5,101.1094,82.5,97.1094" style="stroke:#181818;stroke-width:1.0;"/><line style="stroke:#181818;stroke-width:1.0;stroke-dasharray:2.0,2.0;" x1="80.5" x2="517.5" y1="97.1094" y2="97.1094"/><text fill="#000000" font-family="sans-serif" font-size="13" font-weight="bold" lengthAdjust="spacing" textLength="9" x="92.5" y="92.3672">2</text><text fill="#000000" font-family="sans-serif" font-size="13" lengthAdjust="spacing" textLength="157" x="105.5" y="92.3672">Authentication Response</text><polygon fill="#181818" points="506.5,122.4199,516.5,126.4199,506.5,130.4199,510.5,126.4199" style="stroke:#181818;stroke-width:1.0;"/><line style="stroke:#181818;stroke-width:1.0;" x1="75.5" x2="512.5" y1="126.4199" y2="126.4199"/><text fill="#000000" font-family="sans-serif" font-size="13" font-weight="bold" lengthAdjust="spacing" textLength="9" x="82.5" y="121.6777">3</text><text fill="#000000" font-family="sans-serif" font-size="13" lengthAdjust="spacing" textLength="223" x="95.5" y="121.6777">Wants to open or close enrollments</text><polygon fill="#181818" points="86.5,151.7305,76.5,155.7305,86.5,159.7305,82.5,155.7305" style="stroke:#181818;stroke-width:1.0;"/><line style="stroke:#181818;stroke-width:1.0;stroke-dasharray:2.0,2.0;" x1="80.5" x2="517.5" y1="155.7305" y2="155.7305"/><text fill="#000000" font-family="sans-serif" font-size="13" font-weight="bold" lengthAdjust="spacing" textLength="9" x="92.5" y="150.9883">4</text><text fill="#000000" font-family="sans-serif" font-size="13" lengthAdjust="spacing" textLength="280" x="105.5" y="150.9883">Asks if wants to OPEN or CLOSE enrollments</text><polygon fill="#181818" points="506.5,181.041,516.5,185.041,506.5,189.041,510.5,185.041" style="stroke:#181818;stroke-width:1.0;"/><line style="stroke:#181818;stroke-width:1.0;" x1="75.5" x2="512.5" y1="185.041" y2="185.041"/><text fill="#000000" font-family="sans-serif" font-size="13" font-weight="bold" lengthAdjust="spacing" textLength="9" x="82.5" y="180.2988">5</text><text fill="#000000" font-family="sans-serif" font-size="13" lengthAdjust="spacing" textLength="89" x="95.5" y="180.2988">Selects option</text><path d="M10,200.041 L72,200.041 L72,207.3516 L62,217.3516 L10,217.3516 L10,200.041 " fill="#EEEEEE" style="stroke:#000000;stroke-width:1.5;"/><rect fill="none" height="481.834" style="stroke:#000000;stroke-width:1.5;" width="579.5" x="10" y="200.041"/><text fill="#000000" font-family="sans-serif" font-size="13" font-weight="bold" lengthAdjust="spacing" textLength="17" x="25" y="213.6094">alt</text><text fill="#000000" font-family="sans-serif" font-size="11" font-weight="bold" lengthAdjust="spacing" textLength="114" x="87" y="212.6758">[if option == OPEN]</text><path d="M20,224.3516 L82,224.3516 L82,231.6621 L72,241.6621 L20,241.6621 L20,224.3516 " fill="#EEEEEE" style="stroke:#000000;stroke-width:1.5;"/><rect fill="none" height="286.0605" style="stroke:#000000;stroke-width:1.5;" width="559.5" x="20" y="224.3516"/><text fill="#000000" font-family="sans-serif" font-size="13" font-weight="bold" lengthAdjust="spacing" textLength="17" x="35" y="237.9199">alt</text><text fill="#000000" font-family="sans-serif" font-size="11" font-weight="bold" lengthAdjust="spacing" textLength="160" x="97" y="236.9863">[if courses list is not empty]</text><polygon fill="#181818" points="86.5,274.2832,76.5,278.2832,86.5,282.2832,82.5,278.2832" style="stroke:#181818;stroke-width:1.0;"/><line style="stroke:#181818;stroke-width:1.0;stroke-dasharray:2.0,2.0;" x1="80.5" x2="517.5" y1="278.2832" y2="278.2832"/><text fill="#000000" font-family="sans-serif" font-size="13" font-weight="bold" lengthAdjust="spacing" textLength="9" x="92.5" y="265.8857">6</text><text fill="#000000" font-family="sans-serif" font-size="13" lengthAdjust="spacing" textLength="169" x="105.5" y="258.2305">Ask user to choose Course</text><text fill="#000000" font-family="sans-serif" font-size="13" lengthAdjust="spacing" textLength="91" x="105.5" y="273.541">Type Selection</text><polygon fill="#181818" points="506.5,303.5938,516.5,307.5938,506.5,311.5938,510.5,307.5938" style="stroke:#181818;stroke-width:1.0;"/><line style="stroke:#181818;stroke-width:1.0;" x1="75.5" x2="512.5" y1="307.5938" y2="307.5938"/><text fill="#000000" font-family="sans-serif" font-size="13" font-weight="bold" lengthAdjust="spacing" textLength="9" x="82.5" y="302.8516">7</text><text fill="#000000" font-family="sans-serif" font-size="13" lengthAdjust="spacing" textLength="85" x="95.5" y="302.8516">Select Course</text><polygon fill="#181818" points="86.5,332.9043,76.5,336.9043,86.5,340.9043,82.5,336.9043" style="stroke:#181818;stroke-width:1.0;"/><line style="stroke:#181818;stroke-width:1.0;stroke-dasharray:2.0,2.0;" x1="80.5" x2="517.5" y1="336.9043" y2="336.9043"/><text fill="#000000" font-family="sans-serif" font-size="13" font-weight="bold" lengthAdjust="spacing" textLength="9" x="92.5" y="332.1621">8</text><text fill="#000000" font-family="sans-serif" font-size="13" lengthAdjust="spacing" textLength="132" x="105.5" y="332.1621">asks for closing date</text><path d="M30,351.9043 L92,351.9043 L92,359.2148 L82,369.2148 L30,369.2148 L30,351.9043 " fill="#EEEEEE" style="stroke:#000000;stroke-width:1.5;"/><rect fill="none" height="107.2422" style="stroke:#000000;stroke-width:1.5;" width="539.5" x="30" y="351.9043"/><text fill="#000000" font-family="sans-serif" font-size="13" font-weight="bold" lengthAdjust="spacing" textLength="17" x="45" y="365.4727">alt</text><text fill="#000000" font-family="sans-serif" font-size="11" font-weight="bold" lengthAdjust="spacing" textLength="133" x="107" y="364.5391">[while date is not valid]</text><polygon fill="#181818" points="506.5,386.5254,516.5,390.5254,506.5,394.5254,510.5,390.5254" style="stroke:#181818;stroke-width:1.0;"/><line style="stroke:#181818;stroke-width:1.0;" x1="75.5" x2="512.5" y1="390.5254" y2="390.5254"/><text fill="#000000" font-family="sans-serif" font-size="13" font-weight="bold" lengthAdjust="spacing" textLength="9" x="82.5" y="385.7832">9</text><text fill="#000000" font-family="sans-serif" font-size="13" lengthAdjust="spacing" textLength="124" x="95.5" y="385.7832">inserts closing date</text><path d="M40,405.5254 L102,405.5254 L102,412.8359 L92,422.8359 L40,422.8359 L40,405.5254 " fill="#EEEEEE" style="stroke:#000000;stroke-width:1.5;"/><rect fill="none" height="46.6211" style="stroke:#000000;stroke-width:1.5;" width="519.5" x="40" y="405.5254"/><text fill="#000000" font-family="sans-serif" font-size="13" font-weight="bold" lengthAdjust="spacing" textLength="17" x="55" y="419.0938">alt</text><text fill="#000000" font-family="sans-serif" font-size="11" font-weight="bold" lengthAdjust="spacing" textLength="112" x="117" y="418.1602">[if date is not valid]</text><polygon fill="#181818" points="86.5,440.1465,76.5,444.1465,86.5,448.1465,82.5,444.1465" style="stroke:#181818;stroke-width:1.0;"/><line style="stroke:#181818;stroke-width:1.0;stroke-dasharray:2.0,2.0;" x1="80.5" x2="517.5" y1="444.1465" y2="444.1465"/><text fill="#000000" font-family="sans-serif" font-size="13" font-weight="bold" lengthAdjust="spacing" textLength="18" x="92.5" y="439.4043">10</text><text fill="#000000" font-family="sans-serif" font-size="13" lengthAdjust="spacing" textLength="179" x="114.5" y="439.4043">informs about date not valid</text><line style="stroke:#000000;stroke-width:1.0;stroke-dasharray:2.0,2.0;" x1="20" x2="579.5" y1="467.1465" y2="467.1465"/><text fill="#000000" font-family="sans-serif" font-size="11" font-weight="bold" lengthAdjust="spacing" textLength="132" x="25" y="477.7813">[if course list is empty]</text><polygon fill="#181818" points="86.5,498.4121,76.5,502.4121,86.5,506.4121,82.5,502.4121" style="stroke:#181818;stroke-width:1.0;"/><line style="stroke:#181818;stroke-width:1.0;stroke-dasharray:2.0,2.0;" x1="80.5" x2="517.5" y1="502.4121" y2="502.4121"/><text fill="#000000" font-family="sans-serif" font-size="13" font-weight="bold" lengthAdjust="spacing" textLength="18" x="92.5" y="497.6699">11</text><text fill="#000000" font-family="sans-serif" font-size="13" lengthAdjust="spacing" textLength="395" x="114.5" y="497.6699">informs there are no courses available to open the enrollments</text><line style="stroke:#000000;stroke-width:1.0;stroke-dasharray:2.0,2.0;" x1="10" x2="589.5" y1="518.4121" y2="518.4121"/><text fill="#000000" font-family="sans-serif" font-size="11" font-weight="bold" lengthAdjust="spacing" textLength="119" x="15" y="529.0469">[if option == CLOSE]</text><path d="M40,539.3672 L102,539.3672 L102,546.6777 L92,556.6777 L40,556.6777 L40,539.3672 " fill="#EEEEEE" style="stroke:#000000;stroke-width:1.5;"/><rect fill="none" height="135.5078" style="stroke:#000000;stroke-width:1.5;" width="519.5" x="40" y="539.3672"/><text fill="#000000" font-family="sans-serif" font-size="13" font-weight="bold" lengthAdjust="spacing" textLength="17" x="55" y="552.9355">alt</text><text fill="#000000" font-family="sans-serif" font-size="11" font-weight="bold" lengthAdjust="spacing" textLength="160" x="117" y="552.002">[if courses list is not empty]</text><polygon fill="#181818" points="86.5,589.2988,76.5,593.2988,86.5,597.2988,82.5,593.2988" style="stroke:#181818;stroke-width:1.0;"/><line style="stroke:#181818;stroke-width:1.0;stroke-dasharray:2.0,2.0;" x1="80.5" x2="517.5" y1="593.2988" y2="593.2988"/><text fill="#000000" font-family="sans-serif" font-size="13" font-weight="bold" lengthAdjust="spacing" textLength="18" x="92.5" y="580.9014">12</text><text fill="#000000" font-family="sans-serif" font-size="13" lengthAdjust="spacing" textLength="169" x="114.5" y="573.2461">Ask user to choose Course</text><text fill="#000000" font-family="sans-serif" font-size="13" lengthAdjust="spacing" textLength="91" x="114.5" y="588.5566">Type Selection</text><polygon fill="#181818" points="506.5,618.6094,516.5,622.6094,506.5,626.6094,510.5,622.6094" style="stroke:#181818;stroke-width:1.0;"/><line style="stroke:#181818;stroke-width:1.0;" x1="75.5" x2="512.5" y1="622.6094" y2="622.6094"/><text fill="#000000" font-family="sans-serif" font-size="13" font-weight="bold" lengthAdjust="spacing" textLength="18" x="82.5" y="617.8672">13</text><text fill="#000000" font-family="sans-serif" font-size="13" lengthAdjust="spacing" textLength="85" x="104.5" y="617.8672">Select Course</text><line style="stroke:#000000;stroke-width:1.0;stroke-dasharray:2.0,2.0;" x1="40" x2="559.5" y1="631.6094" y2="631.6094"/><text fill="#000000" font-family="sans-serif" font-size="11" font-weight="bold" lengthAdjust="spacing" textLength="138" x="45" y="642.2441">[if courses list is empty]</text><polygon fill="#181818" points="86.5,662.875,76.5,666.875,86.5,670.875,82.5,666.875" style="stroke:#181818;stroke-width:1.0;"/><line style="stroke:#181818;stroke-width:1.0;stroke-dasharray:2.0,2.0;" x1="80.5" x2="517.5" y1="666.875" y2="666.875"/><text fill="#000000" font-family="sans-serif" font-size="13" font-weight="bold" lengthAdjust="spacing" textLength="18" x="92.5" y="662.1328">14</text><text fill="#000000" font-family="sans-serif" font-size="13" lengthAdjust="spacing" textLength="397" x="114.5" y="662.1328">informs there are no courses available to close the enrollments</text><polygon fill="#181818" points="86.5,706.1855,76.5,710.1855,86.5,714.1855,82.5,710.1855" style="stroke:#181818;stroke-width:1.0;"/><line style="stroke:#181818;stroke-width:1.0;stroke-dasharray:2.0,2.0;" x1="80.5" x2="517.5" y1="710.1855" y2="710.1855"/><text fill="#000000" font-family="sans-serif" font-size="13" font-weight="bold" lengthAdjust="spacing" textLength="18" x="92.5" y="705.4434">15</text><text fill="#000000" font-family="sans-serif" font-size="13" lengthAdjust="spacing" textLength="86" x="114.5" y="705.4434">back to menu</text><!--SRC=[pLJBJiCm4BpdA_R6AVHUjKXLrHkYY29nuUAuMsBLZ-2rM_NlMITnIcc04nAH8iNnpEnuTfEREeI6ffD9euKDqUXRwSo4y3sYbLXkbNZpmXI5YC7PQ2hqHR6GmNaexs1pee1c2eiOQhH1IH6Ki_2Ks1IARXjAHhQK4I0rpXAEIBwm6uBWm3LeWVUaTeI0rZkj3MlGbJnC5xGdK3iuPlBwSVMGoClxzMPrGSxiMPczRL2ZP9fhaZS-iGv9grl2VDwA5S1NloDTz8G4MX6l2QmBWAO9fnQKhf40Q0-Hq2TpidRfICjM1bxjywd1taKoa4MkekaWFUyBR5QMkUeKH8fZrsUdx1jiHJWJqYcEjTBOliu7E0YjjWDcf3xhAcwPvwH6PJy5zBFkTJZAibb382eNGySUfw8zh_CpQWvnwChGbDyQacloN7e4uLF9eRFY89GM5KUK1v5X5sEK7UJgvsbfH-v_ZijbLFG7MNKVwxTXyJtoSwY4t2SoWsDHV000]--></g></svg>