<?xml version="1.0" encoding="us-ascii" standalone="no"?><svg xmlns="http://www.w3.org/2000/svg" xmlns:xlink="http://www.w3.org/1999/xlink" contentStyleType="text/css" height="669px" preserveAspectRatio="none" style="width:1132px;height:669px;background:#FFFFFF;" version="1.1" viewBox="0 0 1132 669" width="1132px" zoomAndPan="magnify"><defs/><g><rect fill="#FFFFFF" height="440.9688" style="stroke:#181818;stroke-width:1.0;" width="10" x="318" y="115.2871"/><rect fill="#FFFFFF" height="263.7949" style="stroke:#181818;stroke-width:1.0;" width="10" x="689" y="263.1504"/><line style="stroke:#181818;stroke-width:0.5;stroke-dasharray:5.0,5.0;" x1="38" x2="38" y1="83.9766" y2="574.2559"/><line style="stroke:#181818;stroke-width:0.5;stroke-dasharray:5.0,5.0;" x1="323" x2="323" y1="83.9766" y2="574.2559"/><line style="stroke:#181818;stroke-width:0.5;stroke-dasharray:5.0,5.0;" x1="694" x2="694" y1="83.9766" y2="574.2559"/><line style="stroke:#181818;stroke-width:0.5;stroke-dasharray:5.0,5.0;" x1="937.5" x2="937.5" y1="83.9766" y2="574.2559"/><line style="stroke:#181818;stroke-width:0.5;stroke-dasharray:5.0,5.0;" x1="1067.5" x2="1067.5" y1="83.9766" y2="574.2559"/><text fill="#000000" font-family="FG Virgil" font-size="14" lengthAdjust="spacing" textLength="60" x="5" y="81.0234">Manager</text><ellipse cx="38" cy="15.9883" fill="#E3E3E3" rx="8" ry="8" style="stroke:#181818;stroke-width:0.5;"/><path d="M38,23.9883 L38,50.9883 M25,31.9883 L51,31.9883 M38,50.9883 L25,65.9883 M38,50.9883 L51,65.9883 " fill="none" style="stroke:#181818;stroke-width:0.5;"/><text fill="#000000" font-family="FG Virgil" font-size="14" lengthAdjust="spacing" textLength="60" x="5" y="586.791">Manager</text><ellipse cx="38" cy="598.2441" fill="#E3E3E3" rx="8" ry="8" style="stroke:#181818;stroke-width:0.5;"/><path d="M38,606.2441 L38,633.2441 M25,614.2441 L51,614.2441 M38,633.2441 L25,648.2441 M38,633.2441 L51,648.2441 " fill="none" style="stroke:#181818;stroke-width:0.5;"/><rect fill="#E3E3E3" height="46.9766" rx="2.5" ry="2.5" style="stroke:#181818;stroke-width:0.5;" width="122" x="262" y="36"/><text fill="#000000" font-family="FG Virgil" font-size="14" font-style="italic" lengthAdjust="spacing" textLength="101" x="272.5" y="56.5352">&#171;presentation&#187;</text><text fill="#000000" font-family="FG Virgil" font-size="14" lengthAdjust="spacing" textLength="108" x="269" y="73.0234">CreateCourseUI</text><rect fill="#E3E3E3" height="46.9766" rx="2.5" ry="2.5" style="stroke:#181818;stroke-width:0.5;" width="122" x="262" y="573.2559"/><text fill="#000000" font-family="FG Virgil" font-size="14" font-style="italic" lengthAdjust="spacing" textLength="101" x="272.5" y="593.791">&#171;presentation&#187;</text><text fill="#000000" font-family="FG Virgil" font-size="14" lengthAdjust="spacing" textLength="108" x="269" y="610.2793">CreateCourseUI</text><rect fill="#E3E3E3" height="46.9766" rx="2.5" ry="2.5" style="stroke:#181818;stroke-width:0.5;" width="178" x="605" y="36"/><text fill="#000000" font-family="FG Virgil" font-size="14" font-style="italic" lengthAdjust="spacing" textLength="90" x="649" y="56.5352">&#171;application&#187;</text><text fill="#000000" font-family="FG Virgil" font-size="14" lengthAdjust="spacing" textLength="164" x="612" y="73.0234">CreateCourseController</text><rect fill="#E3E3E3" height="46.9766" rx="2.5" ry="2.5" style="stroke:#181818;stroke-width:0.5;" width="178" x="605" y="573.2559"/><text fill="#000000" font-family="FG Virgil" font-size="14" font-style="italic" lengthAdjust="spacing" textLength="90" x="649" y="593.791">&#171;application&#187;</text><text fill="#000000" font-family="FG Virgil" font-size="14" lengthAdjust="spacing" textLength="164" x="612" y="610.2793">CreateCourseController</text><rect fill="#E3E3E3" height="46.9766" rx="2.5" ry="2.5" style="stroke:#181818;stroke-width:0.5;" width="111" x="882.5" y="36"/><text fill="#000000" font-family="FG Virgil" font-size="14" font-style="italic" lengthAdjust="spacing" textLength="63" x="906.5" y="56.5352">&#171;builder&#187;</text><text fill="#000000" font-family="FG Virgil" font-size="14" lengthAdjust="spacing" textLength="97" x="889.5" y="73.0234">CourseBuilder</text><rect fill="#E3E3E3" height="46.9766" rx="2.5" ry="2.5" style="stroke:#181818;stroke-width:0.5;" width="111" x="882.5" y="573.2559"/><text fill="#000000" font-family="FG Virgil" font-size="14" font-style="italic" lengthAdjust="spacing" textLength="63" x="906.5" y="593.791">&#171;builder&#187;</text><text fill="#000000" font-family="FG Virgil" font-size="14" lengthAdjust="spacing" textLength="97" x="889.5" y="610.2793">CourseBuilder</text><text fill="#000000" font-family="FG Virgil" font-size="14" font-style="italic" lengthAdjust="spacing" textLength="84" x="1022.5" y="64.5352">&#171;repository&#187;</text><text fill="#000000" font-family="FG Virgil" font-size="14" lengthAdjust="spacing" textLength="122" x="1003.5" y="81.0234">CourseRepository</text><path d="M1049.5,15 C1049.5,5 1067.5,5 1067.5,5 C1067.5,5 1085.5,5 1085.5,15 L1085.5,41 C1085.5,51 1067.5,51 1067.5,51 C1067.5,51 1049.5,51 1049.5,41 L1049.5,15 " fill="#E3E3E3" style="stroke:#181818;stroke-width:1.5;"/><path d="M1049.5,15 C1049.5,25 1067.5,25 1067.5,25 C1067.5,25 1085.5,25 1085.5,15 " fill="none" style="stroke:#181818;stroke-width:1.5;"/><text fill="#000000" font-family="FG Virgil" font-size="14" font-style="italic" lengthAdjust="spacing" textLength="84" x="1022.5" y="586.791">&#171;repository&#187;</text><text fill="#000000" font-family="FG Virgil" font-size="14" lengthAdjust="spacing" textLength="122" x="1003.5" y="603.2793">CourseRepository</text><path d="M1049.5,616.2324 C1049.5,606.2324 1067.5,606.2324 1067.5,606.2324 C1067.5,606.2324 1085.5,606.2324 1085.5,616.2324 L1085.5,642.2324 C1085.5,652.2324 1067.5,652.2324 1067.5,652.2324 C1067.5,652.2324 1049.5,652.2324 1049.5,642.2324 L1049.5,616.2324 " fill="#E3E3E3" style="stroke:#181818;stroke-width:1.5;"/><path d="M1049.5,616.2324 C1049.5,626.2324 1067.5,626.2324 1067.5,626.2324 C1067.5,626.2324 1085.5,626.2324 1085.5,616.2324 " fill="none" style="stroke:#181818;stroke-width:1.5;"/><rect fill="#FFFFFF" height="440.9688" style="stroke:#181818;stroke-width:1.0;" width="10" x="318" y="115.2871"/><rect fill="#FFFFFF" height="263.7949" style="stroke:#181818;stroke-width:1.0;" width="10" x="689" y="263.1504"/><polygon fill="#181818" points="306,111.2871,316,115.2871,306,119.2871,310,115.2871" style="stroke:#181818;stroke-width:1.0;"/><line style="stroke:#181818;stroke-width:1.0;stroke-dasharray:2.0,2.0;" x1="38" x2="312" y1="115.2871" y2="115.2871"/><text fill="#000000" font-family="FG Virgil" font-size="13" font-weight="bold" lengthAdjust="spacing" textLength="9" x="45" y="110.5449">1</text><text fill="#000000" font-family="FG Virgil" font-size="13" lengthAdjust="spacing" textLength="86" x="58" y="110.5449">Create course</text><polygon fill="#181818" points="682,140.5977,692,144.5977,682,148.5977,686,144.5977" style="stroke:#181818;stroke-width:1.0;"/><line style="stroke:#181818;stroke-width:1.0;" x1="328" x2="688" y1="144.5977" y2="144.5977"/><text fill="#000000" font-family="FG Virgil" font-size="13" font-weight="bold" lengthAdjust="spacing" textLength="9" x="335" y="139.8555">2</text><text fill="#000000" font-family="FG Virgil" font-size="13" lengthAdjust="spacing" textLength="38" x="348" y="139.8555">create</text><polygon fill="#181818" points="49,169.9082,39,173.9082,49,177.9082,45,173.9082" style="stroke:#181818;stroke-width:1.0;"/><line style="stroke:#181818;stroke-width:1.0;stroke-dasharray:2.0,2.0;" x1="43" x2="317" y1="173.9082" y2="173.9082"/><text fill="#000000" font-family="FG Virgil" font-size="13" font-weight="bold" lengthAdjust="spacing" textLength="9" x="55" y="169.166">3</text><text fill="#000000" font-family="FG Virgil" font-size="13" lengthAdjust="spacing" textLength="148" x="68" y="169.166">Ask course information</text><polygon fill="#181818" points="306,214.5293,316,218.5293,306,222.5293,310,218.5293" style="stroke:#181818;stroke-width:1.0;"/><line style="stroke:#181818;stroke-width:1.0;stroke-dasharray:2.0,2.0;" x1="38" x2="312" y1="218.5293" y2="218.5293"/><text fill="#000000" font-family="FG Virgil" font-size="13" font-weight="bold" lengthAdjust="spacing" textLength="9" x="45" y="206.1318">4</text><text fill="#000000" font-family="FG Virgil" font-size="13" lengthAdjust="spacing" textLength="239" x="58" y="198.4766">courseCode, courseName, description</text><text fill="#000000" font-family="FG Virgil" font-size="13" lengthAdjust="spacing" textLength="169" x="62" y="213.7871">minStudents, maxStudents</text><polygon fill="#181818" points="677,259.1504,687,263.1504,677,267.1504,681,263.1504" style="stroke:#181818;stroke-width:1.0;"/><line style="stroke:#181818;stroke-width:1.0;" x1="328" x2="683" y1="263.1504" y2="263.1504"/><text fill="#000000" font-family="FG Virgil" font-size="13" font-weight="bold" lengthAdjust="spacing" textLength="9" x="335" y="250.7529">5</text><text fill="#000000" font-family="FG Virgil" font-size="13" lengthAdjust="spacing" textLength="325" x="348" y="243.0977">createCourse(courseCode, courseName, description</text><text fill="#000000" font-family="FG Virgil" font-size="13" lengthAdjust="spacing" textLength="173" x="352" y="258.4082">minStudents, maxStudents)</text><polygon fill="#181818" points="926,288.4609,936,292.4609,926,296.4609,930,292.4609" style="stroke:#181818;stroke-width:1.0;"/><line style="stroke:#181818;stroke-width:1.0;" x1="699" x2="932" y1="292.4609" y2="292.4609"/><text fill="#000000" font-family="FG Virgil" font-size="13" font-weight="bold" lengthAdjust="spacing" textLength="9" x="706" y="287.7188">6</text><text fill="#000000" font-family="FG Virgil" font-size="13" lengthAdjust="spacing" textLength="38" x="719" y="287.7188">create</text><polygon fill="#181818" points="926,317.7715,936,321.7715,926,325.7715,930,321.7715" style="stroke:#181818;stroke-width:1.0;"/><line style="stroke:#181818;stroke-width:1.0;" x1="699" x2="932" y1="321.7715" y2="321.7715"/><text fill="#000000" font-family="FG Virgil" font-size="13" font-weight="bold" lengthAdjust="spacing" textLength="9" x="706" y="317.0293">7</text><text fill="#000000" font-family="FG Virgil" font-size="13" lengthAdjust="spacing" textLength="141" x="719" y="317.0293">withCode(courseCode)</text><polygon fill="#181818" points="926,347.082,936,351.082,926,355.082,930,351.082" style="stroke:#181818;stroke-width:1.0;"/><line style="stroke:#181818;stroke-width:1.0;" x1="699" x2="932" y1="351.082" y2="351.082"/><text fill="#000000" font-family="FG Virgil" font-size="13" font-weight="bold" lengthAdjust="spacing" textLength="9" x="706" y="346.3398">8</text><text fill="#000000" font-family="FG Virgil" font-size="13" lengthAdjust="spacing" textLength="149" x="719" y="346.3398">withName(courseName)</text><polygon fill="#181818" points="926,376.3926,936,380.3926,926,384.3926,930,380.3926" style="stroke:#181818;stroke-width:1.0;"/><line style="stroke:#181818;stroke-width:1.0;" x1="699" x2="932" y1="380.3926" y2="380.3926"/><text fill="#000000" font-family="FG Virgil" font-size="13" font-weight="bold" lengthAdjust="spacing" textLength="9" x="706" y="375.6504">9</text><text fill="#000000" font-family="FG Virgil" font-size="13" lengthAdjust="spacing" textLength="179" x="719" y="375.6504">withDescription(description)</text><polygon fill="#181818" points="926,405.7031,936,409.7031,926,413.7031,930,409.7031" style="stroke:#181818;stroke-width:1.0;"/><line style="stroke:#181818;stroke-width:1.0;" x1="699" x2="932" y1="409.7031" y2="409.7031"/><text fill="#000000" font-family="FG Virgil" font-size="13" font-weight="bold" lengthAdjust="spacing" textLength="18" x="706" y="404.9609">10</text><text fill="#000000" font-family="FG Virgil" font-size="13" lengthAdjust="spacing" textLength="187" x="728" y="404.9609">hasMinStudents(minStudents)</text><polygon fill="#181818" points="926,435.0137,936,439.0137,926,443.0137,930,439.0137" style="stroke:#181818;stroke-width:1.0;"/><line style="stroke:#181818;stroke-width:1.0;" x1="699" x2="932" y1="439.0137" y2="439.0137"/><text fill="#000000" font-family="FG Virgil" font-size="13" font-weight="bold" lengthAdjust="spacing" textLength="18" x="706" y="434.2715">11</text><text fill="#000000" font-family="FG Virgil" font-size="13" lengthAdjust="spacing" textLength="193" x="728" y="434.2715">hasMaxStudents(maxStudents)</text><polygon fill="#181818" points="926,464.3242,936,468.3242,926,472.3242,930,468.3242" style="stroke:#181818;stroke-width:1.0;"/><line style="stroke:#181818;stroke-width:1.0;" x1="699" x2="932" y1="468.3242" y2="468.3242"/><text fill="#000000" font-family="FG Virgil" font-size="13" font-weight="bold" lengthAdjust="spacing" textLength="18" x="706" y="463.582">12</text><text fill="#000000" font-family="FG Virgil" font-size="13" lengthAdjust="spacing" textLength="40" x="728" y="463.582">build()</text><polygon fill="#181818" points="1055.5,493.6348,1065.5,497.6348,1055.5,501.6348,1059.5,497.6348" style="stroke:#181818;stroke-width:1.0;"/><line style="stroke:#181818;stroke-width:1.0;" x1="699" x2="1061.5" y1="497.6348" y2="497.6348"/><text fill="#000000" font-family="FG Virgil" font-size="13" font-weight="bold" lengthAdjust="spacing" textLength="18" x="706" y="492.8926">13</text><text fill="#000000" font-family="FG Virgil" font-size="13" lengthAdjust="spacing" textLength="105" x="728" y="492.8926">save(newCourse)</text><polygon fill="#181818" points="339,522.9453,329,526.9453,339,530.9453,335,526.9453" style="stroke:#181818;stroke-width:1.0;"/><line style="stroke:#181818;stroke-width:1.0;stroke-dasharray:2.0,2.0;" x1="333" x2="693" y1="526.9453" y2="526.9453"/><text fill="#000000" font-family="FG Virgil" font-size="13" font-weight="bold" lengthAdjust="spacing" textLength="18" x="345" y="522.2031">14</text><text fill="#000000" font-family="FG Virgil" font-size="13" lengthAdjust="spacing" textLength="4" x="367" y="522.2031">&#160;</text><polygon fill="#181818" points="49,552.2559,39,556.2559,49,560.2559,45,556.2559" style="stroke:#181818;stroke-width:1.0;"/><line style="stroke:#181818;stroke-width:1.0;stroke-dasharray:2.0,2.0;" x1="43" x2="322" y1="556.2559" y2="556.2559"/><text fill="#000000" font-family="FG Virgil" font-size="13" font-weight="bold" lengthAdjust="spacing" textLength="18" x="55" y="551.5137">15</text><text fill="#000000" font-family="FG Virgil" font-size="13" lengthAdjust="spacing" textLength="4" x="77" y="551.5137">&#160;</text><!--SRC=[fL9DRzim3BthL_0s1qYRks44w39qoA4xhCXEkp2o4WlH5oIvMV_zADcrLInD0ym7GnJV8nyVzQMBqTMhbLDeOg_LFRTw5KxIEFIexxke5Pj2qDPOtdch1KJVYoBZa9_mA9xZgnBW1Oz5hXK7x5Lyj2R-GA8-VeTVqXzbMJbqsDgpD4Sue0g2CUoZDRtU2qzd7gs79pJKmGC6U4WNZ9XHSkb8EMoym2WsjlT1xBO9G_-cSLu4OI96QSrw_I5ZGzAyLMgeNaHDWyufoIyMoDIllLJjm7ixDir-E16XnOXx3694_nJE1adYNnEXY9h6Jm7H6CiZmjtTcWQfHx70Sv7aXtn9yMxBW3uQbN2px1funaz9okPwDJo4qrW5f3bOh_Da6VY-8n-DQSLoFAVTBMcPWNlf4Wj-6z3IFCU-9O_34ZJ-UGjeWglI1Zkg_-ooo3qcE-Os-JvznIv9nxYXT_vSGPrbx9AsGkRY5awQePh7kOdpRPwuAgR_bDjXU9hTgGgdRgBENbR_-7g5cXzujM0VuEQ7NKF05r4PSHusVhboVdCvqufBsvn8korXXwVC2kXk-nS0]--></g></svg>