<?xml version="1.0" encoding="us-ascii" standalone="no"?><svg xmlns="http://www.w3.org/2000/svg" xmlns:xlink="http://www.w3.org/1999/xlink" contentStyleType="text/css" height="793px" preserveAspectRatio="none" style="width:349px;height:793px;background:#FFFFFF;" version="1.1" viewBox="0 0 349 793" width="349px" zoomAndPan="magnify"><defs/><g><rect fill="#FFFFFF" height="613.9922" style="stroke:#181818;stroke-width:1.0;" width="10" x="42.5" y="90.6406"/><rect fill="#FFFFFF" height="28.5234" style="stroke:#181818;stroke-width:1.0;" width="10" x="288.5" y="111.1641"/><rect fill="#FFFFFF" height="28.5234" style="stroke:#181818;stroke-width:1.0;" width="10" x="288.5" y="191.7344"/><rect fill="#FFFFFF" height="28.5234" style="stroke:#181818;stroke-width:1.0;" width="10" x="288.5" y="248.7813"/><rect fill="#FFFFFF" height="28.5234" style="stroke:#181818;stroke-width:1.0;" width="10" x="288.5" y="305.8281"/><rect fill="#FFFFFF" height="28.5234" style="stroke:#181818;stroke-width:1.0;" width="10" x="288.5" y="362.875"/><rect fill="#FFFFFF" height="30.5234" style="stroke:#181818;stroke-width:1.0;" width="10" x="288.5" y="443.4453"/><rect fill="#FFFFFF" height="43.5234" style="stroke:#181818;stroke-width:1.0;" width="10" x="288.5" y="533.0156"/><rect fill="#FFFFFF" height="68.0469" style="stroke:#181818;stroke-width:1.0;" width="10" x="288.5" y="620.5859"/><rect fill="none" height="541.9453" style="stroke:#000000;stroke-width:1.5;" width="332" x="10" y="154.6875"/><rect fill="none" height="75.5703" style="stroke:#000000;stroke-width:1.5;" width="308" x="20" y="406.3984"/><rect fill="none" height="73.5703" style="stroke:#000000;stroke-width:1.5;" width="312" x="20" y="495.9688"/><rect fill="none" height="75.5703" style="stroke:#000000;stroke-width:1.5;" width="308" x="20" y="583.5391"/><line style="stroke:#181818;stroke-width:0.5;stroke-dasharray:5.0,5.0;" x1="47" x2="47" y1="80.6406" y2="713.6328"/><line style="stroke:#181818;stroke-width:0.5;stroke-dasharray:5.0,5.0;" x1="293" x2="293" y1="80.6406" y2="713.6328"/><text fill="#000000" font-family="sans-serif" font-size="14" lengthAdjust="spacing" textLength="29" x="30" y="77.6738">User</text><ellipse cx="47.5" cy="13.5" fill="#E2E2F0" rx="8" ry="8" style="stroke:#181818;stroke-width:0.5;"/><path d="M47.5,21.5 L47.5,48.5 M34.5,29.5 L60.5,29.5 M47.5,48.5 L34.5,63.5 M47.5,48.5 L60.5,63.5 " fill="none" style="stroke:#181818;stroke-width:0.5;"/><text fill="#000000" font-family="sans-serif" font-size="14" lengthAdjust="spacing" textLength="29" x="30" y="725.3066">User</text><ellipse cx="47.5" cy="736.7734" fill="#E2E2F0" rx="8" ry="8" style="stroke:#181818;stroke-width:0.5;"/><path d="M47.5,744.7734 L47.5,771.7734 M34.5,752.7734 L60.5,752.7734 M47.5,771.7734 L34.5,786.7734 M47.5,771.7734 L60.5,786.7734 " fill="none" style="stroke:#181818;stroke-width:0.5;"/><text fill="#000000" font-family="sans-serif" font-size="14" lengthAdjust="spacing" textLength="12" x="284.5" y="77.6738">UI</text><path d="M273,37 L273,61 M273,49 L290,49 " fill="none" style="stroke:#181818;stroke-width:0.5;"/><ellipse cx="302" cy="49" fill="#E2E2F0" rx="12" ry="12" style="stroke:#181818;stroke-width:0.5;"/><text fill="#000000" font-family="sans-serif" font-size="14" lengthAdjust="spacing" textLength="12" x="284.5" y="725.3066">UI</text><path d="M273,732.2734 L273,756.2734 M273,744.2734 L290,744.2734 " fill="none" style="stroke:#181818;stroke-width:0.5;"/><ellipse cx="302" cy="744.2734" fill="#E2E2F0" rx="12" ry="12" style="stroke:#181818;stroke-width:0.5;"/><rect fill="#FFFFFF" height="613.9922" style="stroke:#181818;stroke-width:1.0;" width="10" x="42.5" y="90.6406"/><rect fill="#FFFFFF" height="28.5234" style="stroke:#181818;stroke-width:1.0;" width="10" x="288.5" y="111.1641"/><rect fill="#FFFFFF" height="28.5234" style="stroke:#181818;stroke-width:1.0;" width="10" x="288.5" y="191.7344"/><rect fill="#FFFFFF" height="28.5234" style="stroke:#181818;stroke-width:1.0;" width="10" x="288.5" y="248.7813"/><rect fill="#FFFFFF" height="28.5234" style="stroke:#181818;stroke-width:1.0;" width="10" x="288.5" y="305.8281"/><rect fill="#FFFFFF" height="28.5234" style="stroke:#181818;stroke-width:1.0;" width="10" x="288.5" y="362.875"/><rect fill="#FFFFFF" height="30.5234" style="stroke:#181818;stroke-width:1.0;" width="10" x="288.5" y="443.4453"/><rect fill="#FFFFFF" height="43.5234" style="stroke:#181818;stroke-width:1.0;" width="10" x="288.5" y="533.0156"/><rect fill="#FFFFFF" height="68.0469" style="stroke:#181818;stroke-width:1.0;" width="10" x="288.5" y="620.5859"/><polygon fill="#181818" points="276.5,107.1641,286.5,111.1641,276.5,115.1641,280.5,111.1641" style="stroke:#181818;stroke-width:1.0;"/><line style="stroke:#181818;stroke-width:1.0;" x1="52.5" x2="282.5" y1="111.1641" y2="111.1641"/><text fill="#000000" font-family="sans-serif" font-size="13" lengthAdjust="spacing" textLength="115" x="59.5" y="106.4092">Schedule a meeting</text><polygon fill="#181818" points="63.5,135.6875,53.5,139.6875,63.5,143.6875,59.5,139.6875" style="stroke:#181818;stroke-width:1.0;"/><line style="stroke:#181818;stroke-width:1.0;stroke-dasharray:2.0,2.0;" x1="57.5" x2="292.5" y1="139.6875" y2="139.6875"/><text fill="#000000" font-family="sans-serif" font-size="13" lengthAdjust="spacing" textLength="116" x="69.5" y="134.9326">Authorization status</text><path d="M10,154.6875 L71,154.6875 L71,161.2109 L61,171.2109 L10,171.2109 L10,154.6875 " fill="#EEEEEE" style="stroke:#000000;stroke-width:1.5;"/><rect fill="none" height="541.9453" style="stroke:#000000;stroke-width:1.5;" width="332" x="10" y="154.6875"/><text fill="#000000" font-family="sans-serif" font-size="13" font-weight="bold" lengthAdjust="spacing" textLength="16" x="25" y="167.4561">alt</text><text fill="#000000" font-family="sans-serif" font-size="11" font-weight="bold" lengthAdjust="spacing" textLength="77" x="86" y="166.6455">[if authorized]</text><polygon fill="#181818" points="63.5,187.7344,53.5,191.7344,63.5,195.7344,59.5,191.7344" style="stroke:#181818;stroke-width:1.0;"/><line style="stroke:#181818;stroke-width:1.0;stroke-dasharray:2.0,2.0;" x1="57.5" x2="287.5" y1="191.7344" y2="191.7344"/><text fill="#000000" font-family="sans-serif" font-size="13" lengthAdjust="spacing" textLength="165" x="69.5" y="186.9795">Asks for meeting description</text><polygon fill="#181818" points="281.5,216.2578,291.5,220.2578,281.5,224.2578,285.5,220.2578" style="stroke:#181818;stroke-width:1.0;"/><line style="stroke:#181818;stroke-width:1.0;" x1="52.5" x2="287.5" y1="220.2578" y2="220.2578"/><text fill="#000000" font-family="sans-serif" font-size="13" lengthAdjust="spacing" textLength="113" x="59.5" y="215.5029">meeting description</text><polygon fill="#181818" points="63.5,244.7813,53.5,248.7813,63.5,252.7813,59.5,248.7813" style="stroke:#181818;stroke-width:1.0;"/><line style="stroke:#181818;stroke-width:1.0;" x1="57.5" x2="287.5" y1="248.7813" y2="248.7813"/><text fill="#000000" font-family="sans-serif" font-size="13" lengthAdjust="spacing" textLength="129" x="69.5" y="244.0264">Asks for meeting Date</text><polygon fill="#181818" points="281.5,273.3047,291.5,277.3047,281.5,281.3047,285.5,277.3047" style="stroke:#181818;stroke-width:1.0;"/><line style="stroke:#181818;stroke-width:1.0;" x1="52.5" x2="287.5" y1="277.3047" y2="277.3047"/><text fill="#000000" font-family="sans-serif" font-size="13" lengthAdjust="spacing" textLength="77" x="59.5" y="272.5498">meeting Date</text><polygon fill="#181818" points="63.5,301.8281,53.5,305.8281,63.5,309.8281,59.5,305.8281" style="stroke:#181818;stroke-width:1.0;"/><line style="stroke:#181818;stroke-width:1.0;" x1="57.5" x2="287.5" y1="305.8281" y2="305.8281"/><text fill="#000000" font-family="sans-serif" font-size="13" lengthAdjust="spacing" textLength="162" x="69.5" y="301.0732">Asks for meeting Start Time</text><polygon fill="#181818" points="281.5,330.3516,291.5,334.3516,281.5,338.3516,285.5,334.3516" style="stroke:#181818;stroke-width:1.0;"/><line style="stroke:#181818;stroke-width:1.0;" x1="52.5" x2="287.5" y1="334.3516" y2="334.3516"/><text fill="#000000" font-family="sans-serif" font-size="13" lengthAdjust="spacing" textLength="110" x="59.5" y="329.5967">meeting Start Time</text><polygon fill="#181818" points="63.5,358.875,53.5,362.875,63.5,366.875,59.5,362.875" style="stroke:#181818;stroke-width:1.0;"/><line style="stroke:#181818;stroke-width:1.0;" x1="57.5" x2="287.5" y1="362.875" y2="362.875"/><text fill="#000000" font-family="sans-serif" font-size="13" lengthAdjust="spacing" textLength="157" x="69.5" y="358.1201">Asks for meeting End Time</text><polygon fill="#181818" points="281.5,387.3984,291.5,391.3984,281.5,395.3984,285.5,391.3984" style="stroke:#181818;stroke-width:1.0;"/><line style="stroke:#181818;stroke-width:1.0;" x1="52.5" x2="287.5" y1="391.3984" y2="391.3984"/><text fill="#000000" font-family="sans-serif" font-size="13" lengthAdjust="spacing" textLength="105" x="59.5" y="386.6436">meeting End Time</text><path d="M20,406.3984 L81,406.3984 L81,412.9219 L71,422.9219 L20,422.9219 L20,406.3984 " fill="#EEEEEE" style="stroke:#000000;stroke-width:1.5;"/><rect fill="none" height="75.5703" style="stroke:#000000;stroke-width:1.5;" width="308" x="20" y="406.3984"/><text fill="#000000" font-family="sans-serif" font-size="13" font-weight="bold" lengthAdjust="spacing" textLength="16" x="35" y="419.167">alt</text><text fill="#000000" font-family="sans-serif" font-size="11" font-weight="bold" lengthAdjust="spacing" textLength="134" x="96" y="418.3564">[if organizer is available]</text><polygon fill="#181818" points="63.5,439.4453,53.5,443.4453,63.5,447.4453,59.5,443.4453" style="stroke:#181818;stroke-width:1.0;"/><line style="stroke:#181818;stroke-width:1.0;" x1="57.5" x2="287.5" y1="443.4453" y2="443.4453"/><text fill="#000000" font-family="sans-serif" font-size="13" lengthAdjust="spacing" textLength="136" x="69.5" y="438.6904">Meeting creation status</text><line style="stroke:#000000;stroke-width:1.0;stroke-dasharray:2.0,2.0;" x1="20" x2="328" y1="452.4453" y2="452.4453"/><polygon fill="#181818" points="63.5,469.9688,53.5,473.9688,63.5,477.9688,59.5,473.9688" style="stroke:#181818;stroke-width:1.0;"/><line style="stroke:#181818;stroke-width:1.0;" x1="57.5" x2="292.5" y1="473.9688" y2="473.9688"/><text fill="#000000" font-family="sans-serif" font-size="13" lengthAdjust="spacing" textLength="181" x="69.5" y="469.2139">Inform organizer is not available</text><path d="M20,495.9688 L93,495.9688 L93,502.4922 L83,512.4922 L20,512.4922 L20,495.9688 " fill="#EEEEEE" style="stroke:#000000;stroke-width:1.5;"/><rect fill="none" height="73.5703" style="stroke:#000000;stroke-width:1.5;" width="312" x="20" y="495.9688"/><text fill="#000000" font-family="sans-serif" font-size="13" font-weight="bold" lengthAdjust="spacing" textLength="28" x="35" y="508.7373">loop</text><text fill="#000000" font-family="sans-serif" font-size="11" font-weight="bold" lengthAdjust="spacing" textLength="219" x="108" y="507.9268">[while user wants to invite participants]</text><polygon fill="#181818" points="63.5,529.0156,53.5,533.0156,63.5,537.0156,59.5,533.0156" style="stroke:#181818;stroke-width:1.0;"/><line style="stroke:#181818;stroke-width:1.0;" x1="57.5" x2="287.5" y1="533.0156" y2="533.0156"/><text fill="#000000" font-family="sans-serif" font-size="13" lengthAdjust="spacing" textLength="217" x="69.5" y="528.2607">Shows a list with participants to invite</text><polygon fill="#181818" points="276.5,557.5391,286.5,561.5391,276.5,565.5391,280.5,561.5391" style="stroke:#181818;stroke-width:1.0;"/><line style="stroke:#181818;stroke-width:1.0;" x1="52.5" x2="282.5" y1="561.5391" y2="561.5391"/><text fill="#000000" font-family="sans-serif" font-size="13" lengthAdjust="spacing" textLength="113" x="59.5" y="556.7842">selects participants</text><path d="M20,583.5391 L81,583.5391 L81,590.0625 L71,600.0625 L20,600.0625 L20,583.5391 " fill="#EEEEEE" style="stroke:#000000;stroke-width:1.5;"/><rect fill="none" height="75.5703" style="stroke:#000000;stroke-width:1.5;" width="308" x="20" y="583.5391"/><text fill="#000000" font-family="sans-serif" font-size="13" font-weight="bold" lengthAdjust="spacing" textLength="16" x="35" y="596.3076">alt</text><text fill="#000000" font-family="sans-serif" font-size="11" font-weight="bold" lengthAdjust="spacing" textLength="106" x="96" y="595.4971">[if invitees not null]</text><polygon fill="#181818" points="63.5,616.5859,53.5,620.5859,63.5,624.5859,59.5,620.5859" style="stroke:#181818;stroke-width:1.0;"/><line style="stroke:#181818;stroke-width:1.0;" x1="57.5" x2="287.5" y1="620.5859" y2="620.5859"/><text fill="#000000" font-family="sans-serif" font-size="13" lengthAdjust="spacing" textLength="186" x="69.5" y="615.8311">MeetingInvitation creation status</text><line style="stroke:#000000;stroke-width:1.0;stroke-dasharray:2.0,2.0;" x1="20" x2="328" y1="629.5859" y2="629.5859"/><polygon fill="#181818" points="63.5,647.1094,53.5,651.1094,63.5,655.1094,59.5,651.1094" style="stroke:#181818;stroke-width:1.0;"/><line style="stroke:#181818;stroke-width:1.0;" x1="57.5" x2="287.5" y1="651.1094" y2="651.1094"/><text fill="#000000" font-family="sans-serif" font-size="13" lengthAdjust="spacing" textLength="153" x="69.5" y="646.3545">Inform user is not available</text><line style="stroke:#000000;stroke-width:1.0;stroke-dasharray:2.0,2.0;" x1="10" x2="342" y1="667.1094" y2="667.1094"/><polygon fill="#181818" points="63.5,684.6328,53.5,688.6328,63.5,692.6328,59.5,688.6328" style="stroke:#181818;stroke-width:1.0;"/><line style="stroke:#181818;stroke-width:1.0;" x1="57.5" x2="292.5" y1="688.6328" y2="688.6328"/><text fill="#000000" font-family="sans-serif" font-size="13" lengthAdjust="spacing" textLength="164" x="69.5" y="683.8779">Inform user is not authorized</text><!--SRC=[dPD1SeCm34NtFeKka0jaqPdCj0iMNT4SGB6LeAbZCxQ0QKzV6-Wa9ZHfksB0N_z9NmQr-03xI04mmYw_gOFldC7m0VjAATJ2FGhDPsfymEOf7MwXrWsPpX8Wd8c4tUcYJyNx2ZP9EPPiOTT9umD_eh1t40MbYyhGTG5Q0Ju2paeoIulu7k6O-3CD34KTkCsE1RdeSarSSjN8-Hdpd7IF_KTLQNpVjXOC0czylcE-9luBuyMP1uGRvJ8RzRqN7qxeqbe2S0JiaIqUB2t2UvtjTA1YqzUUP2ELLPLBJPzBWlDoHLbqHSuewtqBGyFf0dRv1W_e989uODTpqhKfCTRSviybhcxya4O0or5WO6aAxSMYwBgCBP8bdRG597K5kQkR3ES49rUQPdETjQlPLLarXVUl5CSmRWASCljbrUKFN8oIFRu0]--></g></svg>