<?xml version="1.0" encoding="us-ascii" standalone="no"?><svg xmlns="http://www.w3.org/2000/svg" xmlns:xlink="http://www.w3.org/1999/xlink" contentStyleType="text/css" height="430px" preserveAspectRatio="none" style="width:474px;height:430px;background:#FFFFFF;" version="1.1" viewBox="0 0 474 430" width="474.5px" zoomAndPan="magnify"><defs/><g><!--class ListFutureExamsUI--><g id="elem_ListFutureExamsUI"><rect codeLine="2" fill="#F1F1F1" height="30.291" id="ListFutureExamsUI" rx="1.25" ry="1.25" style="stroke:#181818;stroke-width:0.25;" width="74.5" x="219.75" y="3.5"/><ellipse cx="227.25" cy="14.6455" fill="#ADD1B2" rx="5.5" ry="5.5" style="stroke:#181818;stroke-width:0.5;"/><path d="M228.6328,12.583 Q228.7109,12.4736 228.8047,12.4189 Q228.8984,12.3643 229.0078,12.3643 Q229.1953,12.3643 229.3125,12.4971 Q229.4297,12.6221 229.4297,12.9268 L229.4297,13.6533 Q229.4297,13.958 229.3125,14.0908 Q229.1953,14.2236 229.0078,14.2236 Q228.8359,14.2236 228.7344,14.1221 Q228.6328,14.0283 228.5781,13.7705 Q228.5547,13.5908 228.4609,13.4971 Q228.2969,13.3096 227.9922,13.2002 Q227.6875,13.0908 227.375,13.0908 Q226.9922,13.0908 226.6719,13.2549 Q226.3594,13.4189 226.1094,13.7939 Q225.8672,14.1689 225.8672,14.6846 L225.8672,15.2314 Q225.8672,15.8486 226.3125,16.2627 Q226.7578,16.6689 227.5547,16.6689 Q228.0234,16.6689 228.3516,16.5439 Q228.5469,16.4658 228.7578,16.2471 Q228.8906,16.1143 228.9609,16.0752 Q229.0391,16.0361 229.1406,16.0361 Q229.3047,16.0361 229.4297,16.1689 Q229.5625,16.2939 229.5625,16.4658 Q229.5625,16.6377 229.3906,16.8408 Q229.1406,17.1299 228.7422,17.2939 Q228.2031,17.5205 227.5547,17.5205 Q226.7969,17.5205 226.1953,17.208 Q225.7031,16.958 225.3594,16.4268 Q225.0156,15.8877 225.0156,15.2471 L225.0156,14.6689 Q225.0156,14.0049 225.3203,13.4346 Q225.6328,12.8564 226.1797,12.5518 Q226.7266,12.2393 227.3438,12.2393 Q227.7109,12.2393 228.0313,12.3252 Q228.3594,12.4033 228.6328,12.583 Z " fill="#000000"/><text fill="#000000" font-family="sans-serif" font-size="6" font-style="italic" lengthAdjust="spacing" textLength="13.5" x="256.75" y="12.4746">&#171;UI&#187;</text><text fill="#000000" font-family="sans-serif" font-size="7" lengthAdjust="spacing" textLength="58.5" x="234.25" y="21.5342">ListFutureExamsUI</text><line style="stroke:#181818;stroke-width:0.25;" x1="220.25" x2="293.75" y1="25.791" y2="25.791"/><line style="stroke:#181818;stroke-width:0.25;" x1="220.25" x2="293.75" y1="29.791" y2="29.791"/></g><!--class ListFutureExamsController--><g id="elem_ListFutureExamsController"><rect codeLine="5" fill="#F1F1F1" height="39.6016" id="ListFutureExamsController" rx="1.25" ry="1.25" style="stroke:#181818;stroke-width:0.25;" width="180" x="167" y="64.5"/><ellipse cx="213.125" cy="75.6455" fill="#ADD1B2" rx="5.5" ry="5.5" style="stroke:#181818;stroke-width:0.5;"/><path d="M214.5078,73.583 Q214.5859,73.4736 214.6797,73.4189 Q214.7734,73.3643 214.8828,73.3643 Q215.0703,73.3643 215.1875,73.4971 Q215.3047,73.6221 215.3047,73.9268 L215.3047,74.6533 Q215.3047,74.958 215.1875,75.0908 Q215.0703,75.2236 214.8828,75.2236 Q214.7109,75.2236 214.6094,75.1221 Q214.5078,75.0283 214.4531,74.7705 Q214.4297,74.5908 214.3359,74.4971 Q214.1719,74.3096 213.8672,74.2002 Q213.5625,74.0908 213.25,74.0908 Q212.8672,74.0908 212.5469,74.2549 Q212.2344,74.4189 211.9844,74.7939 Q211.7422,75.1689 211.7422,75.6846 L211.7422,76.2314 Q211.7422,76.8486 212.1875,77.2627 Q212.6328,77.6689 213.4297,77.6689 Q213.8984,77.6689 214.2266,77.5439 Q214.4219,77.4658 214.6328,77.2471 Q214.7656,77.1143 214.8359,77.0752 Q214.9141,77.0361 215.0156,77.0361 Q215.1797,77.0361 215.3047,77.1689 Q215.4375,77.2939 215.4375,77.4658 Q215.4375,77.6377 215.2656,77.8408 Q215.0156,78.1299 214.6172,78.2939 Q214.0781,78.5205 213.4297,78.5205 Q212.6719,78.5205 212.0703,78.208 Q211.5781,77.958 211.2344,77.4268 Q210.8906,76.8877 210.8906,76.2471 L210.8906,75.6689 Q210.8906,75.0049 211.1953,74.4346 Q211.5078,73.8564 212.0547,73.5518 Q212.6016,73.2393 213.2188,73.2393 Q213.5859,73.2393 213.9063,73.3252 Q214.2344,73.4033 214.5078,73.583 Z " fill="#000000"/><text fill="#000000" font-family="sans-serif" font-size="6" font-style="italic" lengthAdjust="spacing" textLength="34" x="248.125" y="73.4746">&#171;Controller&#187;</text><text fill="#000000" font-family="sans-serif" font-size="7" lengthAdjust="spacing" textLength="83.5" x="223.375" y="82.5342">ListFutureExamsController</text><line style="stroke:#181818;stroke-width:0.25;" x1="167.5" x2="346.5" y1="86.791" y2="86.791"/><line style="stroke:#181818;stroke-width:0.25;" x1="167.5" x2="346.5" y1="90.791" y2="90.791"/><ellipse cx="172.5" cy="98.1963" fill="#84BE84" rx="1.5" ry="1.5" style="stroke:#038048;stroke-width:0.5;"/><text fill="#000000" font-family="sans-serif" font-size="7" lengthAdjust="spacing" textLength="167" x="177" y="100.3447">List&lt;ExamEnrollment&gt;: findListStudentFutureExams()</text></g><!--class ListFutureExamsService--><g id="elem_ListFutureExamsService"><rect codeLine="9" fill="#F1F1F1" height="33.3105" id="ListFutureExamsService" rx="1.25" ry="1.25" style="stroke:#181818;stroke-width:0.25;" width="130" x="192" y="134.5"/><ellipse cx="216.875" cy="142.5" fill="#ADD1B2" rx="5.5" ry="5.5" style="stroke:#181818;stroke-width:0.5;"/><path d="M218.2578,140.4375 Q218.3359,140.3281 218.4297,140.2734 Q218.5234,140.2188 218.6328,140.2188 Q218.8203,140.2188 218.9375,140.3516 Q219.0547,140.4766 219.0547,140.7813 L219.0547,141.5078 Q219.0547,141.8125 218.9375,141.9453 Q218.8203,142.0781 218.6328,142.0781 Q218.4609,142.0781 218.3594,141.9766 Q218.2578,141.8828 218.2031,141.625 Q218.1797,141.4453 218.0859,141.3516 Q217.9219,141.1641 217.6172,141.0547 Q217.3125,140.9453 217,140.9453 Q216.6172,140.9453 216.2969,141.1094 Q215.9844,141.2734 215.7344,141.6484 Q215.4922,142.0234 215.4922,142.5391 L215.4922,143.0859 Q215.4922,143.7031 215.9375,144.1172 Q216.3828,144.5234 217.1797,144.5234 Q217.6484,144.5234 217.9766,144.3984 Q218.1719,144.3203 218.3828,144.1016 Q218.5156,143.9688 218.5859,143.9297 Q218.6641,143.8906 218.7656,143.8906 Q218.9297,143.8906 219.0547,144.0234 Q219.1875,144.1484 219.1875,144.3203 Q219.1875,144.4922 219.0156,144.6953 Q218.7656,144.9844 218.3672,145.1484 Q217.8281,145.375 217.1797,145.375 Q216.4219,145.375 215.8203,145.0625 Q215.3281,144.8125 214.9844,144.2813 Q214.6406,143.7422 214.6406,143.1016 L214.6406,142.5234 Q214.6406,141.8594 214.9453,141.2891 Q215.2578,140.7109 215.8047,140.4063 Q216.3516,140.0938 216.9688,140.0938 Q217.3359,140.0938 217.6563,140.1797 Q217.9844,140.2578 218.2578,140.4375 Z " fill="#000000"/><text fill="#000000" font-family="sans-serif" font-size="7" lengthAdjust="spacing" textLength="76" x="227.125" y="145.3984">ListFutureExamsService</text><line style="stroke:#181818;stroke-width:0.25;" x1="192.5" x2="321.5" y1="150.5" y2="150.5"/><line style="stroke:#181818;stroke-width:0.25;" x1="192.5" x2="321.5" y1="154.5" y2="154.5"/><ellipse cx="197.5" cy="161.9053" fill="#84BE84" rx="1.5" ry="1.5" style="stroke:#038048;stroke-width:0.5;"/><text fill="#000000" font-family="sans-serif" font-size="7" lengthAdjust="spacing" textLength="117" x="202" y="164.0537">findListStudentFutureExams(student)</text></g><!--class ExamEnrollmentRepository--><g id="elem_ExamEnrollmentRepository"><rect codeLine="13" fill="#F1F1F1" height="39.6016" id="ExamEnrollmentRepository" rx="1.25" ry="1.25" style="stroke:#181818;stroke-width:0.25;" width="265" x="3.5" y="198.5"/><ellipse cx="91.625" cy="209.6455" fill="#ADD1B2" rx="5.5" ry="5.5" style="stroke:#181818;stroke-width:0.5;"/><path d="M93.0078,207.583 Q93.0859,207.4736 93.1797,207.4189 Q93.2734,207.3643 93.3828,207.3643 Q93.5703,207.3643 93.6875,207.4971 Q93.8047,207.6221 93.8047,207.9268 L93.8047,208.6533 Q93.8047,208.958 93.6875,209.0908 Q93.5703,209.2236 93.3828,209.2236 Q93.2109,209.2236 93.1094,209.1221 Q93.0078,209.0283 92.9531,208.7705 Q92.9297,208.5908 92.8359,208.4971 Q92.6719,208.3096 92.3672,208.2002 Q92.0625,208.0908 91.75,208.0908 Q91.3672,208.0908 91.0469,208.2549 Q90.7344,208.4189 90.4844,208.7939 Q90.2422,209.1689 90.2422,209.6846 L90.2422,210.2314 Q90.2422,210.8486 90.6875,211.2627 Q91.1328,211.6689 91.9297,211.6689 Q92.3984,211.6689 92.7266,211.5439 Q92.9219,211.4658 93.1328,211.2471 Q93.2656,211.1143 93.3359,211.0752 Q93.4141,211.0361 93.5156,211.0361 Q93.6797,211.0361 93.8047,211.1689 Q93.9375,211.2939 93.9375,211.4658 Q93.9375,211.6377 93.7656,211.8408 Q93.5156,212.1299 93.1172,212.2939 Q92.5781,212.5205 91.9297,212.5205 Q91.1719,212.5205 90.5703,212.208 Q90.0781,211.958 89.7344,211.4268 Q89.3906,210.8877 89.3906,210.2471 L89.3906,209.6689 Q89.3906,209.0049 89.6953,208.4346 Q90.0078,207.8564 90.5547,207.5518 Q91.1016,207.2393 91.7188,207.2393 Q92.0859,207.2393 92.4063,207.3252 Q92.7344,207.4033 93.0078,207.583 Z " fill="#000000"/><text fill="#000000" font-family="sans-serif" font-size="6" font-style="italic" lengthAdjust="spacing" textLength="36.5" x="125.875" y="207.4746">&#171;Repository&#187;</text><text fill="#000000" font-family="sans-serif" font-size="7" lengthAdjust="spacing" textLength="84.5" x="101.875" y="216.5342">ExamEnrollmentRepository</text><line style="stroke:#181818;stroke-width:0.25;" x1="4" x2="268" y1="220.791" y2="220.791"/><line style="stroke:#181818;stroke-width:0.25;" x1="4" x2="268" y1="224.791" y2="224.791"/><ellipse cx="9" cy="232.1963" fill="#84BE84" rx="1.5" ry="1.5" style="stroke:#038048;stroke-width:0.5;"/><text fill="#000000" font-family="sans-serif" font-size="7" lengthAdjust="spacing" textLength="252" x="13.5" y="234.3447">List&lt;ExamEnrollment&gt;: findStudentExamEnrollmentsWithEnrolledStatus(student)</text></g><!--class ExamEnrollment--><g id="elem_ExamEnrollment"><rect codeLine="18" fill="#F1F1F1" height="58.2227" id="ExamEnrollment" rx="1.25" ry="1.25" style="stroke:#181818;stroke-width:0.25;" width="76.5" x="97.75" y="277.5"/><ellipse cx="109.75" cy="288.6455" fill="#ADD1B2" rx="5.5" ry="5.5" style="stroke:#181818;stroke-width:0.5;"/><path d="M111.1328,286.583 Q111.2109,286.4736 111.3047,286.4189 Q111.3984,286.3643 111.5078,286.3643 Q111.6953,286.3643 111.8125,286.4971 Q111.9297,286.6221 111.9297,286.9268 L111.9297,287.6533 Q111.9297,287.958 111.8125,288.0908 Q111.6953,288.2236 111.5078,288.2236 Q111.3359,288.2236 111.2344,288.1221 Q111.1328,288.0283 111.0781,287.7705 Q111.0547,287.5908 110.9609,287.4971 Q110.7969,287.3096 110.4922,287.2002 Q110.1875,287.0908 109.875,287.0908 Q109.4922,287.0908 109.1719,287.2549 Q108.8594,287.4189 108.6094,287.7939 Q108.3672,288.1689 108.3672,288.6846 L108.3672,289.2314 Q108.3672,289.8486 108.8125,290.2627 Q109.2578,290.6689 110.0547,290.6689 Q110.5234,290.6689 110.8516,290.5439 Q111.0469,290.4658 111.2578,290.2471 Q111.3906,290.1143 111.4609,290.0752 Q111.5391,290.0361 111.6406,290.0361 Q111.8047,290.0361 111.9297,290.1689 Q112.0625,290.2939 112.0625,290.4658 Q112.0625,290.6377 111.8906,290.8408 Q111.6406,291.1299 111.2422,291.2939 Q110.7031,291.5205 110.0547,291.5205 Q109.2969,291.5205 108.6953,291.208 Q108.2031,290.958 107.8594,290.4268 Q107.5156,289.8877 107.5156,289.2471 L107.5156,288.6689 Q107.5156,288.0049 107.8203,287.4346 Q108.1328,286.8564 108.6797,286.5518 Q109.2266,286.2393 109.8438,286.2393 Q110.2109,286.2393 110.5313,286.3252 Q110.8594,286.4033 111.1328,286.583 Z " fill="#000000"/><text fill="#000000" font-family="sans-serif" font-size="6" font-style="italic" lengthAdjust="spacing" textLength="22" x="132" y="286.4746">&#171;Entity&#187;</text><text fill="#000000" font-family="sans-serif" font-size="7" lengthAdjust="spacing" textLength="50.5" x="117.75" y="295.5342">ExamEnrollment</text><line style="stroke:#181818;stroke-width:0.25;" x1="98.25" x2="173.75" y1="299.791" y2="299.791"/><text fill="#000000" font-family="sans-serif" font-size="7" lengthAdjust="spacing" textLength="45.5" x="100.75" y="309.3447">String: examID</text><text fill="#000000" font-family="sans-serif" font-size="7" lengthAdjust="spacing" textLength="70.5" x="100.75" y="318.6553">Enrollment: enrollment</text><text fill="#000000" font-family="sans-serif" font-size="7" lengthAdjust="spacing" textLength="60.5" x="100.75" y="327.9658">Grade: examGrade</text><line style="stroke:#181818;stroke-width:0.25;" x1="98.25" x2="173.75" y1="331.7227" y2="331.7227"/></g><!--class ExamEnrollmentStatus--><g id="elem_ExamEnrollmentStatus"><rect codeLine="24" fill="#F1F1F1" height="51.9316" id="ExamEnrollmentStatus" rx="1.25" ry="1.25" style="stroke:#181818;stroke-width:0.25;" width="86.5" x="92.75" y="375"/><ellipse cx="100.25" cy="383" fill="#EB937F" rx="5.5" ry="5.5" style="stroke:#181818;stroke-width:0.5;"/><path d="M99.6797,383.3984 L99.6797,384.6484 L101.8438,384.6484 L101.8438,384.1875 Q101.8438,383.8828 101.9609,383.75 Q102.0859,383.6172 102.2734,383.6172 Q102.4609,383.6172 102.5781,383.75 Q102.6953,383.8828 102.6953,384.1875 L102.6953,385.5 L98.6953,385.5 Q98.3828,385.5 98.25,385.3828 Q98.125,385.2656 98.125,385.0703 Q98.125,384.8828 98.2578,384.7656 Q98.3906,384.6484 98.6953,384.6484 L98.8281,384.6484 L98.8281,381.3203 L98.6953,381.3203 Q98.3828,381.3203 98.25,381.2031 Q98.125,381.0859 98.125,380.8906 Q98.125,380.7031 98.25,380.5859 Q98.3828,380.4688 98.6953,380.4688 L102.5078,380.4688 L102.5078,381.7656 Q102.5078,382.0703 102.3906,382.2031 Q102.2813,382.3281 102.0859,382.3281 Q101.8984,382.3281 101.7813,382.2031 Q101.6641,382.0703 101.6641,381.7656 L101.6641,381.3203 L99.6797,381.3203 L99.6797,382.5469 L100.4219,382.5469 Q100.4219,382.2188 100.4844,382.125 Q100.6172,381.9219 100.8516,381.9219 Q101.0391,381.9219 101.1563,382.0547 Q101.2734,382.1797 101.2734,382.4844 L101.2734,383.4688 Q101.2734,383.7422 101.2109,383.8359 Q101.0781,384.0313 100.8516,384.0313 Q100.6172,384.0313 100.4844,383.8281 Q100.4219,383.7344 100.4219,383.3984 L99.6797,383.3984 Z " fill="#000000"/><text fill="#000000" font-family="sans-serif" font-size="7" lengthAdjust="spacing" textLength="70.5" x="107.25" y="385.8984">ExamEnrollmentStatus</text><line style="stroke:#181818;stroke-width:0.25;" x1="93.25" x2="178.75" y1="391" y2="391"/><text fill="#000000" font-family="sans-serif" font-size="7" lengthAdjust="spacing" textLength="37" x="95.75" y="400.5537">ENROLLED</text><text fill="#000000" font-family="sans-serif" font-size="7" lengthAdjust="spacing" textLength="32" x="95.75" y="409.8643">PRESENT</text><text fill="#000000" font-family="sans-serif" font-size="7" lengthAdjust="spacing" textLength="25.5" x="95.75" y="419.1748">MISSED</text><line style="stroke:#181818;stroke-width:0.25;" x1="93.25" x2="178.75" y1="422.9316" y2="422.9316"/></g><!--class ExamRepository--><g id="elem_ExamRepository"><rect codeLine="30" fill="#F1F1F1" height="39.6016" id="ExamRepository" rx="1.25" ry="1.25" style="stroke:#181818;stroke-width:0.25;" width="185" x="286" y="198.5"/><ellipse cx="350.875" cy="209.6455" fill="#ADD1B2" rx="5.5" ry="5.5" style="stroke:#181818;stroke-width:0.5;"/><path d="M352.2578,207.583 Q352.3359,207.4736 352.4297,207.4189 Q352.5234,207.3643 352.6328,207.3643 Q352.8203,207.3643 352.9375,207.4971 Q353.0547,207.6221 353.0547,207.9268 L353.0547,208.6533 Q353.0547,208.958 352.9375,209.0908 Q352.8203,209.2236 352.6328,209.2236 Q352.4609,209.2236 352.3594,209.1221 Q352.2578,209.0283 352.2031,208.7705 Q352.1797,208.5908 352.0859,208.4971 Q351.9219,208.3096 351.6172,208.2002 Q351.3125,208.0908 351,208.0908 Q350.6172,208.0908 350.2969,208.2549 Q349.9844,208.4189 349.7344,208.7939 Q349.4922,209.1689 349.4922,209.6846 L349.4922,210.2314 Q349.4922,210.8486 349.9375,211.2627 Q350.3828,211.6689 351.1797,211.6689 Q351.6484,211.6689 351.9766,211.5439 Q352.1719,211.4658 352.3828,211.2471 Q352.5156,211.1143 352.5859,211.0752 Q352.6641,211.0361 352.7656,211.0361 Q352.9297,211.0361 353.0547,211.1689 Q353.1875,211.2939 353.1875,211.4658 Q353.1875,211.6377 353.0156,211.8408 Q352.7656,212.1299 352.3672,212.2939 Q351.8281,212.5205 351.1797,212.5205 Q350.4219,212.5205 349.8203,212.208 Q349.3281,211.958 348.9844,211.4268 Q348.6406,210.8877 348.6406,210.2471 L348.6406,209.6689 Q348.6406,209.0049 348.9453,208.4346 Q349.2578,207.8564 349.8047,207.5518 Q350.3516,207.2393 350.9688,207.2393 Q351.3359,207.2393 351.6563,207.3252 Q351.9844,207.4033 352.2578,207.583 Z " fill="#000000"/><text fill="#000000" font-family="sans-serif" font-size="6" font-style="italic" lengthAdjust="spacing" textLength="36.5" x="368.375" y="207.4746">&#171;Repository&#187;</text><text fill="#000000" font-family="sans-serif" font-size="7" lengthAdjust="spacing" textLength="51" x="361.125" y="216.5342">ExamRepository</text><line style="stroke:#181818;stroke-width:0.25;" x1="286.5" x2="470.5" y1="220.791" y2="220.791"/><line style="stroke:#181818;stroke-width:0.25;" x1="286.5" x2="470.5" y1="224.791" y2="224.791"/><ellipse cx="291.5" cy="232.1963" fill="#84BE84" rx="1.5" ry="1.5" style="stroke:#038048;stroke-width:0.5;"/><text fill="#000000" font-family="sans-serif" font-size="7" lengthAdjust="spacing" textLength="172" x="296" y="234.3447">List&lt;Exam&gt;: findById(examEnrollment.examID())).get())</text></g><!--class Exam--><g id="elem_Exam"><rect codeLine="34" fill="#F1F1F1" height="58.2227" id="Exam" rx="1.25" ry="1.25" style="stroke:#181818;stroke-width:0.25;" width="81.5" x="337.75" y="277.5"/><ellipse cx="353.125" cy="288.6455" fill="#ADD1B2" rx="5.5" ry="5.5" style="stroke:#181818;stroke-width:0.5;"/><path d="M354.5078,286.583 Q354.5859,286.4736 354.6797,286.4189 Q354.7734,286.3643 354.8828,286.3643 Q355.0703,286.3643 355.1875,286.4971 Q355.3047,286.6221 355.3047,286.9268 L355.3047,287.6533 Q355.3047,287.958 355.1875,288.0908 Q355.0703,288.2236 354.8828,288.2236 Q354.7109,288.2236 354.6094,288.1221 Q354.5078,288.0283 354.4531,287.7705 Q354.4297,287.5908 354.3359,287.4971 Q354.1719,287.3096 353.8672,287.2002 Q353.5625,287.0908 353.25,287.0908 Q352.8672,287.0908 352.5469,287.2549 Q352.2344,287.4189 351.9844,287.7939 Q351.7422,288.1689 351.7422,288.6846 L351.7422,289.2314 Q351.7422,289.8486 352.1875,290.2627 Q352.6328,290.6689 353.4297,290.6689 Q353.8984,290.6689 354.2266,290.5439 Q354.4219,290.4658 354.6328,290.2471 Q354.7656,290.1143 354.8359,290.0752 Q354.9141,290.0361 355.0156,290.0361 Q355.1797,290.0361 355.3047,290.1689 Q355.4375,290.2939 355.4375,290.4658 Q355.4375,290.6377 355.2656,290.8408 Q355.0156,291.1299 354.6172,291.2939 Q354.0781,291.5205 353.4297,291.5205 Q352.6719,291.5205 352.0703,291.208 Q351.5781,290.958 351.2344,290.4268 Q350.8906,289.8877 350.8906,289.2471 L350.8906,288.6689 Q350.8906,288.0049 351.1953,287.4346 Q351.5078,286.8564 352.0547,286.5518 Q352.6016,286.2393 353.2188,286.2393 Q353.5859,286.2393 353.9063,286.3252 Q354.2344,286.4033 354.5078,286.583 Z " fill="#000000"/><text fill="#000000" font-family="sans-serif" font-size="6" font-style="italic" lengthAdjust="spacing" textLength="50" x="360.875" y="286.4746">&#171;Aggregate Root&#187;</text><text fill="#000000" font-family="sans-serif" font-size="7" lengthAdjust="spacing" textLength="17" x="377.375" y="295.5342">Exam</text><line style="stroke:#181818;stroke-width:0.25;" x1="338.25" x2="418.75" y1="299.791" y2="299.791"/><text fill="#000000" font-family="sans-serif" font-size="7" lengthAdjust="spacing" textLength="45.5" x="340.75" y="309.3447">String: examID</text><text fill="#000000" font-family="sans-serif" font-size="7" lengthAdjust="spacing" textLength="57" x="340.75" y="318.6553">String: description</text><text fill="#000000" font-family="sans-serif" font-size="7" lengthAdjust="spacing" textLength="75.5" x="340.75" y="327.9658">DateInterval: timePeriod</text><line style="stroke:#181818;stroke-width:0.25;" x1="338.25" x2="418.75" y1="331.7227" y2="331.7227"/></g><!--class ExamStatus--><g id="elem_ExamStatus"><rect codeLine="40" fill="#F1F1F1" height="42.6211" id="ExamStatus" rx="1.25" ry="1.25" style="stroke:#181818;stroke-width:0.25;" width="53" x="352" y="379.75"/><ellipse cx="359.5" cy="387.75" fill="#EB937F" rx="5.5" ry="5.5" style="stroke:#181818;stroke-width:0.5;"/><path d="M358.9297,388.1484 L358.9297,389.3984 L361.0938,389.3984 L361.0938,388.9375 Q361.0938,388.6328 361.2109,388.5 Q361.3359,388.3672 361.5234,388.3672 Q361.7109,388.3672 361.8281,388.5 Q361.9453,388.6328 361.9453,388.9375 L361.9453,390.25 L357.9453,390.25 Q357.6328,390.25 357.5,390.1328 Q357.375,390.0156 357.375,389.8203 Q357.375,389.6328 357.5078,389.5156 Q357.6406,389.3984 357.9453,389.3984 L358.0781,389.3984 L358.0781,386.0703 L357.9453,386.0703 Q357.6328,386.0703 357.5,385.9531 Q357.375,385.8359 357.375,385.6406 Q357.375,385.4531 357.5,385.3359 Q357.6328,385.2188 357.9453,385.2188 L361.7578,385.2188 L361.7578,386.5156 Q361.7578,386.8203 361.6406,386.9531 Q361.5313,387.0781 361.3359,387.0781 Q361.1484,387.0781 361.0313,386.9531 Q360.9141,386.8203 360.9141,386.5156 L360.9141,386.0703 L358.9297,386.0703 L358.9297,387.2969 L359.6719,387.2969 Q359.6719,386.9688 359.7344,386.875 Q359.8672,386.6719 360.1016,386.6719 Q360.2891,386.6719 360.4063,386.8047 Q360.5234,386.9297 360.5234,387.2344 L360.5234,388.2188 Q360.5234,388.4922 360.4609,388.5859 Q360.3281,388.7813 360.1016,388.7813 Q359.8672,388.7813 359.7344,388.5781 Q359.6719,388.4844 359.6719,388.1484 L358.9297,388.1484 Z " fill="#000000"/><text fill="#000000" font-family="sans-serif" font-size="7" lengthAdjust="spacing" textLength="37" x="366.5" y="390.6484">ExamStatus</text><line style="stroke:#181818;stroke-width:0.25;" x1="352.5" x2="404.5" y1="395.75" y2="395.75"/><text fill="#000000" font-family="sans-serif" font-size="7" lengthAdjust="spacing" textLength="33" x="355" y="405.3037">CREATED</text><text fill="#000000" font-family="sans-serif" font-size="7" lengthAdjust="spacing" textLength="30.5" x="355" y="414.6143">FINISHED</text><line style="stroke:#181818;stroke-width:0.25;" x1="352.5" x2="404.5" y1="418.3711" y2="418.3711"/></g><!--link ListFutureExamsUI to ListFutureExamsController--><g id="link_ListFutureExamsUI_ListFutureExamsController"><path codeLine="46" d="M257,34.05 C257,42.275 257,52.67 257,61.825 " fill="none" id="ListFutureExamsUI-to-ListFutureExamsController" style="stroke:#181818;stroke-width:0.5;stroke-dasharray:7.0,7.0;"/><polygon fill="#181818" points="257,64.37,259,59.87,257,61.87,255,59.87,257,64.37" style="stroke:#181818;stroke-width:0.5;"/></g><!--link ListFutureExamsController to ListFutureExamsService--><g id="link_ListFutureExamsController_ListFutureExamsService"><path codeLine="47" d="M257,104.015 C257,112.775 257,123.105 257,131.82 " fill="none" id="ListFutureExamsController-to-ListFutureExamsService" style="stroke:#181818;stroke-width:0.5;stroke-dasharray:7.0,7.0;"/><polygon fill="#181818" points="257,134.47,259,129.97,257,131.97,255,129.97,257,134.47" style="stroke:#181818;stroke-width:0.5;"/></g><!--link ListFutureExamsService to ExamEnrollmentRepository--><g id="link_ListFutureExamsService_ExamEnrollmentRepository"><path codeLine="48" d="M227.09,168.065 C210.95,176.87 190.865,187.825 173.665,197.205 " fill="none" id="ListFutureExamsService-to-ExamEnrollmentRepository" style="stroke:#181818;stroke-width:0.5;stroke-dasharray:7.0,7.0;"/><polygon fill="#181818" points="171.37,198.46,176.2787,198.0666,173.5661,197.2654,174.3673,194.5528,171.37,198.46" style="stroke:#181818;stroke-width:0.5;"/></g><!--link ListFutureExamsService to ExamRepository--><g id="link_ListFutureExamsService_ExamRepository"><path codeLine="49" d="M287.035,168.065 C303.24,176.87 323.41,187.825 340.68,197.205 " fill="none" id="ListFutureExamsService-to-ExamRepository" style="stroke:#181818;stroke-width:0.5;stroke-dasharray:7.0,7.0;"/><polygon fill="#181818" points="342.985,198.46,339.9824,194.5569,340.7873,197.2684,338.0758,198.0733,342.985,198.46" style="stroke:#181818;stroke-width:0.5;"/></g><!--link ExamRepository to Exam--><g id="link_ExamRepository_Exam"><path codeLine="51" d="M378.5,238.115 C378.5,248.895 378.5,262.57 378.5,274.82 " fill="none" id="ExamRepository-to-Exam" style="stroke:#181818;stroke-width:0.5;"/><polygon fill="#181818" points="378.5,277.41,380.5,272.91,378.5,274.91,376.5,272.91,378.5,277.41" style="stroke:#181818;stroke-width:0.5;"/><polygon fill="#000000" points="381,260.3228,382.4695,255.8002,379.5305,255.8002,381,260.3228" style="stroke:#000000;stroke-width:0.5;"/><text fill="#000000" font-family="sans-serif" font-size="6.5" lengthAdjust="spacing" textLength="10.5" x="385.5" y="260.5142">has</text></g><!--link ExamEnrollmentRepository to ExamEnrollment--><g id="link_ExamEnrollmentRepository_ExamEnrollment"><path codeLine="52" d="M136,238.115 C136,248.895 136,262.57 136,274.82 " fill="none" id="ExamEnrollmentRepository-to-ExamEnrollment" style="stroke:#181818;stroke-width:0.5;"/><polygon fill="#181818" points="136,277.41,138,272.91,136,274.91,134,272.91,136,277.41" style="stroke:#181818;stroke-width:0.5;"/><polygon fill="#000000" points="138.5,260.3228,139.9695,255.8002,137.0305,255.8002,138.5,260.3228" style="stroke:#000000;stroke-width:0.5;"/><text fill="#000000" font-family="sans-serif" font-size="6.5" lengthAdjust="spacing" textLength="10.5" x="143" y="260.5142">has</text></g><!--link ExamEnrollment to ExamEnrollmentStatus--><g id="link_ExamEnrollment_ExamEnrollmentStatus"><path codeLine="53" d="M136,335.56 C136,347.245 136,360.725 136,372.36 " fill="none" id="ExamEnrollment-to-ExamEnrollmentStatus" style="stroke:#181818;stroke-width:0.5;"/><polygon fill="#181818" points="136,374.97,138,370.47,136,372.47,134,370.47,136,374.97" style="stroke:#181818;stroke-width:0.5;"/><polygon fill="#000000" points="138.5,357.8228,139.9695,353.3002,137.0305,353.3002,138.5,357.8228" style="stroke:#000000;stroke-width:0.5;"/><text fill="#000000" font-family="sans-serif" font-size="6.5" lengthAdjust="spacing" textLength="10.5" x="143" y="358.0142">has</text></g><!--link Exam to ExamStatus--><g id="link_Exam_ExamStatus"><path codeLine="54" d="M378.5,335.56 C378.5,348.85 378.5,364.455 378.5,377.04 " fill="none" id="Exam-to-ExamStatus" style="stroke:#181818;stroke-width:0.5;"/><polygon fill="#181818" points="378.5,379.68,380.5,375.18,378.5,377.18,376.5,375.18,378.5,379.68" style="stroke:#181818;stroke-width:0.5;"/><polygon fill="#000000" points="381,357.8228,382.4695,353.3002,379.5305,353.3002,381,357.8228" style="stroke:#000000;stroke-width:0.5;"/><text fill="#000000" font-family="sans-serif" font-size="6.5" lengthAdjust="spacing" textLength="10.5" x="385.5" y="358.0142">has</text><text fill="#000000" font-family="sans-serif" font-size="6.5" lengthAdjust="spacing" textLength="3.5" x="374.7758" y="346.8371">1</text><text fill="#000000" font-family="sans-serif" font-size="6.5" lengthAdjust="spacing" textLength="3.5" x="374.7211" y="374.1209">1</text></g><!--SRC=[bL9DQuD04BtlhrXoYfGAlKeGqiIq2saQDA5dqQbPq3NiZgMXzBzttJLHK-s7bvsFD_DcnfVaiL9qpHMkAgma1EzneVQCpcPxvllqWtmIaWnX5gL0MUOvI8rj7LD3zNTZ2cOrDX1rhW21laTVkKZhJ8HLgYETZbDdb2m2-SOJQ3h_q4BPKATJVu0GZgNYMCgJdhfr_ZHrGzVFgHUE1-k2HiHOzOSOd49p1m8vjhmHIYuoZuB6iQK9jN0TljWczI3Z52pOc3KHYAgueh7ZD0p19dnUhmFRUni6KR3P6Vk9HP4EzmxsZpCrnxa_iNGAFNhNBZDr7CVD0FNR9z6jvrac8OiHQ5YMQDfVNUBifg0IoO_8Iq6Mke09r9g8SuyYBs0BafTfxmoNvHTXCD_f1LTimw97kodvBdZNzSSbJiR5Fr3Ng9KCXqt5c2f_g-aWoTMFkhsr4EhHGwoeJqQLVqPs5JPKCW1ihjh5qydTn23hjtFvC-OB]--></g></svg>