<?xml version="1.0" encoding="us-ascii" standalone="no"?><svg xmlns="http://www.w3.org/2000/svg" xmlns:xlink="http://www.w3.org/1999/xlink" contentStyleType="text/css" height="776.6px" preserveAspectRatio="none" style="width:1639px;height:776px;background:#FFFFFF;" version="1.1" viewBox="0 0 1639 776" width="1639px" zoomAndPan="magnify"><defs/><g><rect fill="#FFFFFF" height="514.8816" style="stroke:#181818;stroke-width:1.1;" width="11" x="332.75" y="133.6865"/><rect fill="#FFFFFF" height="362.9012" style="stroke:#181818;stroke-width:1.1;" width="11" x="594.55" y="202.5268"/><rect fill="#FFFFFF" height="294.0609" style="stroke:#181818;stroke-width:1.1;" width="11" x="875.05" y="236.9469"/><rect fill="#FFFFFF" height="34.4201" style="stroke:#181818;stroke-width:1.1;" width="11" x="1337.05" y="271.367"/><rect fill="#FFFFFF" height="34.4201" style="stroke:#181818;stroke-width:1.1;" width="11" x="1503.7" y="369.1273"/><rect fill="none" height="175.4006" style="stroke:#000000;stroke-width:1.6500000000000001;" width="812.35" x="767.25" y="322.2871"/><rect fill="none" height="69.9402" style="stroke:#000000;stroke-width:1.6500000000000001;" width="363" x="778.25" y="420.0475"/><line style="stroke:#181818;stroke-width:0.55;stroke-dasharray:5.0,5.0;" x1="35.2" x2="35.2" y1="97.0664" y2="668.3682"/><line style="stroke:#181818;stroke-width:0.55;stroke-dasharray:5.0,5.0;" x1="337.7" x2="337.7" y1="97.0664" y2="668.3682"/><line style="stroke:#181818;stroke-width:0.55;stroke-dasharray:5.0,5.0;" x1="599.5" x2="599.5" y1="97.0664" y2="668.3682"/><line style="stroke:#181818;stroke-width:0.55;stroke-dasharray:5.0,5.0;" x1="880.55" x2="880.55" y1="97.0664" y2="668.3682"/><line style="stroke:#181818;stroke-width:0.55;stroke-dasharray:5.0,5.0;" x1="1342" x2="1342" y1="97.0664" y2="668.3682"/><line style="stroke:#181818;stroke-width:0.55;stroke-dasharray:5.0,5.0;" x1="1509.2" x2="1509.2" y1="97.0664" y2="668.3682"/><line style="stroke:#181818;stroke-width:0.55;stroke-dasharray:5.0,5.0;" x1="1606" x2="1606" y1="97.0664" y2="668.3682"/><text fill="#000000" font-family="FG Virgil" font-size="15.4" lengthAdjust="spacing" textLength="53.9" x="5.5" y="93.2014">Student</text><ellipse cx="35.75" cy="19.9332" fill="#E3E3E3" rx="8.8" ry="8.8" style="stroke:#181818;stroke-width:0.55;"/><path d="M35.75,28.7332 L35.75,58.4332 M21.45,37.5332 L50.05,37.5332 M35.75,58.4332 L21.45,74.9332 M35.75,58.4332 L50.05,74.9332 " fill="none" style="stroke:#181818;stroke-width:0.55;"/><text fill="#000000" font-family="FG Virgil" font-size="15.4" lengthAdjust="spacing" textLength="53.9" x="5.5" y="683.8863">Student</text><ellipse cx="35.75" cy="697.1014" fill="#E3E3E3" rx="8.8" ry="8.8" style="stroke:#181818;stroke-width:0.55;"/><path d="M35.75,705.9014 L35.75,735.6014 M21.45,714.7014 L50.05,714.7014 M35.75,735.6014 L21.45,752.1014 M35.75,735.6014 L50.05,752.1014 " fill="none" style="stroke:#181818;stroke-width:0.55;"/><rect fill="#E3E3E3" height="56.3664" rx="2.75" ry="2.75" style="stroke:#181818;stroke-width:0.55;" width="144.1" x="266.2" y="39.6"/><text fill="#000000" font-family="FG Virgil" font-size="15.4" font-style="italic" lengthAdjust="spacing" textLength="104.5" x="286" y="63.9182">&#171;presentation&#187;</text><text fill="#000000" font-family="FG Virgil" font-size="15.4" lengthAdjust="spacing" textLength="128.7" x="273.9" y="84.4014">ListFutureExamsUI</text><rect fill="#E3E3E3" height="56.3664" rx="2.75" ry="2.75" style="stroke:#181818;stroke-width:0.55;" width="144.1" x="266.2" y="667.2682"/><text fill="#000000" font-family="FG Virgil" font-size="15.4" font-style="italic" lengthAdjust="spacing" textLength="104.5" x="286" y="691.5863">&#171;presentation&#187;</text><text fill="#000000" font-family="FG Virgil" font-size="15.4" lengthAdjust="spacing" textLength="128.7" x="273.9" y="712.0695">ListFutureExamsUI</text><text fill="#000000" font-family="FG Virgil" font-size="15.4" font-style="italic" lengthAdjust="spacing" textLength="92.4" x="550.55" y="72.7182">&#171;application&#187;</text><text fill="#000000" font-family="FG Virgil" font-size="15.4" lengthAdjust="spacing" textLength="183.7" x="504.9" y="93.2014">ListFutureExamsController</text><ellipse cx="600.05" cy="38.5" fill="#E3E3E3" rx="13.2" ry="13.2" style="stroke:#181818;stroke-width:0.55;"/><polygon fill="#181818" points="595.65,25.3,602.25,19.8,600.05,25.3,602.25,30.8,595.65,25.3" style="stroke:#181818;stroke-width:1.1;"/><text fill="#000000" font-family="FG Virgil" font-size="15.4" font-style="italic" lengthAdjust="spacing" textLength="92.4" x="550.55" y="683.8863">&#171;application&#187;</text><text fill="#000000" font-family="FG Virgil" font-size="15.4" lengthAdjust="spacing" textLength="183.7" x="504.9" y="704.3695">ListFutureExamsController</text><ellipse cx="600.05" cy="725.8346" fill="#E3E3E3" rx="13.2" ry="13.2" style="stroke:#181818;stroke-width:0.55;"/><polygon fill="#181818" points="595.65,712.6346,602.25,707.1346,600.05,712.6346,602.25,718.1346,595.65,712.6346" style="stroke:#181818;stroke-width:1.1;"/><rect fill="#E3E3E3" height="56.3664" rx="2.75" ry="2.75" style="stroke:#181818;stroke-width:0.55;" width="182.6" x="789.25" y="39.6"/><text fill="#000000" font-family="FG Virgil" font-size="15.4" font-style="italic" lengthAdjust="spacing" textLength="66" x="847.55" y="63.9182">&#171;service&#187;</text><text fill="#000000" font-family="FG Virgil" font-size="15.4" lengthAdjust="spacing" textLength="167.2" x="796.95" y="84.4014">ListFutureExamsService</text><rect fill="#E3E3E3" height="56.3664" rx="2.75" ry="2.75" style="stroke:#181818;stroke-width:0.55;" width="182.6" x="789.25" y="667.2682"/><text fill="#000000" font-family="FG Virgil" font-size="15.4" font-style="italic" lengthAdjust="spacing" textLength="66" x="847.55" y="691.5863">&#171;service&#187;</text><text fill="#000000" font-family="FG Virgil" font-size="15.4" lengthAdjust="spacing" textLength="167.2" x="796.95" y="712.0695">ListFutureExamsService</text><text fill="#000000" font-family="FG Virgil" font-size="15.4" font-style="italic" lengthAdjust="spacing" textLength="86.9" x="1295.8" y="72.7182">&#171;repository&#187;</text><text fill="#000000" font-family="FG Virgil" font-size="15.4" lengthAdjust="spacing" textLength="185.9" x="1246.3" y="93.2014">ExamEnrollmentRepository</text><path d="M1322.75,16.5 C1322.75,5.5 1342.55,5.5 1342.55,5.5 C1342.55,5.5 1362.35,5.5 1362.35,16.5 L1362.35,45.1 C1362.35,56.1 1342.55,56.1 1342.55,56.1 C1342.55,56.1 1322.75,56.1 1322.75,45.1 L1322.75,16.5 " fill="#E3E3E3" style="stroke:#181818;stroke-width:1.6500000000000001;"/><path d="M1322.75,16.5 C1322.75,27.5 1342.55,27.5 1342.55,27.5 C1342.55,27.5 1362.35,27.5 1362.35,16.5 " fill="none" style="stroke:#181818;stroke-width:1.6500000000000001;"/><text fill="#000000" font-family="FG Virgil" font-size="15.4" font-style="italic" lengthAdjust="spacing" textLength="86.9" x="1295.8" y="683.8863">&#171;repository&#187;</text><text fill="#000000" font-family="FG Virgil" font-size="15.4" lengthAdjust="spacing" textLength="185.9" x="1246.3" y="704.3695">ExamEnrollmentRepository</text><path d="M1322.75,719.2346 C1322.75,708.2346 1342.55,708.2346 1342.55,708.2346 C1342.55,708.2346 1362.35,708.2346 1362.35,719.2346 L1362.35,747.8346 C1362.35,758.8346 1342.55,758.8346 1342.55,758.8346 C1342.55,758.8346 1322.75,758.8346 1322.75,747.8346 L1322.75,719.2346 " fill="#E3E3E3" style="stroke:#181818;stroke-width:1.6500000000000001;"/><path d="M1322.75,719.2346 C1322.75,730.2346 1342.55,730.2346 1342.55,730.2346 C1342.55,730.2346 1362.35,730.2346 1362.35,719.2346 " fill="none" style="stroke:#181818;stroke-width:1.6500000000000001;"/><text fill="#000000" font-family="FG Virgil" font-size="15.4" font-style="italic" lengthAdjust="spacing" textLength="86.9" x="1462.45" y="72.7182">&#171;repository&#187;</text><text fill="#000000" font-family="FG Virgil" font-size="15.4" lengthAdjust="spacing" textLength="112.2" x="1449.8" y="93.2014">ExamRepository</text><path d="M1489.4,16.5 C1489.4,5.5 1509.2,5.5 1509.2,5.5 C1509.2,5.5 1529,5.5 1529,16.5 L1529,45.1 C1529,56.1 1509.2,56.1 1509.2,56.1 C1509.2,56.1 1489.4,56.1 1489.4,45.1 L1489.4,16.5 " fill="#E3E3E3" style="stroke:#181818;stroke-width:1.6500000000000001;"/><path d="M1489.4,16.5 C1489.4,27.5 1509.2,27.5 1509.2,27.5 C1509.2,27.5 1529,27.5 1529,16.5 " fill="none" style="stroke:#181818;stroke-width:1.6500000000000001;"/><text fill="#000000" font-family="FG Virgil" font-size="15.4" font-style="italic" lengthAdjust="spacing" textLength="86.9" x="1462.45" y="683.8863">&#171;repository&#187;</text><text fill="#000000" font-family="FG Virgil" font-size="15.4" lengthAdjust="spacing" textLength="112.2" x="1449.8" y="704.3695">ExamRepository</text><path d="M1489.4,719.2346 C1489.4,708.2346 1509.2,708.2346 1509.2,708.2346 C1509.2,708.2346 1529,708.2346 1529,719.2346 L1529,747.8346 C1529,758.8346 1509.2,758.8346 1509.2,758.8346 C1509.2,758.8346 1489.4,758.8346 1489.4,747.8346 L1489.4,719.2346 " fill="#E3E3E3" style="stroke:#181818;stroke-width:1.6500000000000001;"/><path d="M1489.4,719.2346 C1489.4,730.2346 1509.2,730.2346 1509.2,730.2346 C1509.2,730.2346 1529,730.2346 1529,719.2346 " fill="none" style="stroke:#181818;stroke-width:1.6500000000000001;"/><rect fill="#E3E3E3" height="35.8832" rx="2.75" ry="2.75" style="stroke:#181818;stroke-width:0.55;" width="52.8" x="1579.6" y="60.0832"/><text fill="#000000" font-family="FG Virgil" font-size="15.4" lengthAdjust="spacing" textLength="37.4" x="1587.3" y="84.4014">Exam</text><rect fill="#E3E3E3" height="35.8832" rx="2.75" ry="2.75" style="stroke:#181818;stroke-width:0.55;" width="52.8" x="1579.6" y="667.2682"/><text fill="#000000" font-family="FG Virgil" font-size="15.4" lengthAdjust="spacing" textLength="37.4" x="1587.3" y="691.5863">Exam</text><rect fill="#FFFFFF" height="514.8816" style="stroke:#181818;stroke-width:1.1;" width="11" x="332.75" y="133.6865"/><rect fill="#FFFFFF" height="362.9012" style="stroke:#181818;stroke-width:1.1;" width="11" x="594.55" y="202.5268"/><rect fill="#FFFFFF" height="294.0609" style="stroke:#181818;stroke-width:1.1;" width="11" x="875.05" y="236.9469"/><rect fill="#FFFFFF" height="34.4201" style="stroke:#181818;stroke-width:1.1;" width="11" x="1337.05" y="271.367"/><rect fill="#FFFFFF" height="34.4201" style="stroke:#181818;stroke-width:1.1;" width="11" x="1503.7" y="369.1273"/><polygon fill="#181818" points="319.55,129.2865,330.55,133.6865,319.55,138.0865,323.95,133.6865" style="stroke:#181818;stroke-width:1.1;"/><line style="stroke:#181818;stroke-width:1.1;" x1="35.75" x2="326.15" y1="133.6865" y2="133.6865"/><text fill="#000000" font-family="FG Virgil" font-size="14.3" font-weight="bold" lengthAdjust="spacing" textLength="7.7" x="43.45" y="127.8976">1</text><text fill="#000000" font-family="FG Virgil" font-size="14.3" lengthAdjust="spacing" textLength="200.2" x="55.55" y="127.8976">asks to list all the future exams</text><polygon fill="#181818" points="586.85,163.7066,597.85,168.1066,586.85,172.5066,591.25,168.1066" style="stroke:#181818;stroke-width:1.1;"/><line style="stroke:#181818;stroke-width:1.1;" x1="343.75" x2="593.45" y1="168.1066" y2="168.1066"/><text fill="#000000" font-family="FG Virgil" font-size="14.3" font-weight="bold" lengthAdjust="spacing" textLength="7.7" x="351.45" y="162.3177">2</text><text fill="#000000" font-family="FG Virgil" font-size="14.3" lengthAdjust="spacing" textLength="39.6" x="363.55" y="162.3177">create</text><polygon fill="#181818" points="581.35,198.1268,592.35,202.5268,581.35,206.9268,585.75,202.5268" style="stroke:#181818;stroke-width:1.1;"/><line style="stroke:#181818;stroke-width:1.1;" x1="343.75" x2="587.95" y1="202.5268" y2="202.5268"/><text fill="#000000" font-family="FG Virgil" font-size="14.3" font-weight="bold" lengthAdjust="spacing" textLength="7.7" x="351.45" y="196.7378">3</text><text fill="#000000" font-family="FG Virgil" font-size="14.3" lengthAdjust="spacing" textLength="189.2" x="363.55" y="196.7378">findListStudentFutureExams()</text><polygon fill="#181818" points="861.85,232.5469,872.85,236.9469,861.85,241.3469,866.25,236.9469" style="stroke:#181818;stroke-width:1.1;"/><line style="stroke:#181818;stroke-width:1.1;" x1="605.55" x2="868.45" y1="236.9469" y2="236.9469"/><text fill="#000000" font-family="FG Virgil" font-size="14.3" font-weight="bold" lengthAdjust="spacing" textLength="7.7" x="613.25" y="231.1579">4</text><text fill="#000000" font-family="FG Virgil" font-size="14.3" lengthAdjust="spacing" textLength="236.5" x="625.35" y="231.1579">findListStudentFutureExams(student)</text><polygon fill="#181818" points="1323.85,266.967,1334.85,271.367,1323.85,275.767,1328.25,271.367" style="stroke:#181818;stroke-width:1.1;"/><line style="stroke:#181818;stroke-width:1.1;" x1="886.05" x2="1330.45" y1="271.367" y2="271.367"/><text fill="#000000" font-family="FG Virgil" font-size="14.3" font-weight="bold" lengthAdjust="spacing" textLength="7.7" x="893.75" y="265.578">5</text><text fill="#000000" font-family="FG Virgil" font-size="14.3" lengthAdjust="spacing" textLength="418" x="905.85" y="265.578">findStudentExamEnrollmentsWithEnrolledStatus(Student student)</text><polygon fill="#181818" points="898.15,301.3871,887.15,305.7871,898.15,310.1871,893.75,305.7871" style="stroke:#181818;stroke-width:1.1;"/><line style="stroke:#181818;stroke-width:1.1;stroke-dasharray:2.0,2.0;" x1="891.55" x2="1341.45" y1="305.7871" y2="305.7871"/><text fill="#000000" font-family="FG Virgil" font-size="14.3" font-weight="bold" lengthAdjust="spacing" textLength="7.7" x="904.75" y="299.9981">6</text><text fill="#000000" font-family="FG Virgil" font-size="14.3" lengthAdjust="spacing" textLength="168.3" x="916.85" y="299.9981">studentExamsEnrollments</text><path d="M767.25,322.2871 L847.55,322.2871 L847.55,332.5072 L836.55,343.5072 L767.25,343.5072 L767.25,322.2871 " fill="#EEEEEE" style="stroke:#000000;stroke-width:1.6500000000000001;"/><rect fill="none" height="175.4006" style="stroke:#000000;stroke-width:1.6500000000000001;" width="812.35" x="767.25" y="322.2871"/><text fill="#000000" font-family="FG Virgil" font-size="14.3" font-weight="bold" lengthAdjust="spacing" textLength="30.8" x="783.75" y="338.8183">loop</text><text fill="#000000" font-family="FG Virgil" font-size="12.1" font-weight="bold" lengthAdjust="spacing" textLength="231" x="864.05" y="337.5442">[(for each studentExamsEnrollments)]</text><polygon fill="#181818" points="1490.5,364.7273,1501.5,369.1273,1490.5,373.5273,1494.9,369.1273" style="stroke:#181818;stroke-width:1.1;"/><line style="stroke:#181818;stroke-width:1.1;" x1="886.05" x2="1497.1" y1="369.1273" y2="369.1273"/><text fill="#000000" font-family="FG Virgil" font-size="14.3" font-weight="bold" lengthAdjust="spacing" textLength="7.7" x="893.75" y="363.3384">7</text><text fill="#000000" font-family="FG Virgil" font-size="14.3" lengthAdjust="spacing" textLength="266.2" x="905.85" y="363.3384">findById(examEnrollment.examID())).get())</text><polygon fill="#181818" points="898.15,399.1475,887.15,403.5475,898.15,407.9475,893.75,403.5475" style="stroke:#181818;stroke-width:1.1;"/><line style="stroke:#181818;stroke-width:1.1;stroke-dasharray:2.0,2.0;" x1="891.55" x2="1508.1" y1="403.5475" y2="403.5475"/><text fill="#000000" font-family="FG Virgil" font-size="14.3" font-weight="bold" lengthAdjust="spacing" textLength="7.7" x="904.75" y="397.7585">8</text><text fill="#000000" font-family="FG Virgil" font-size="14.3" lengthAdjust="spacing" textLength="75.9" x="916.85" y="397.7585">return exam</text><path d="M778.25,420.0475 L845.35,420.0475 L845.35,430.2676 L834.35,441.2676 L778.25,441.2676 L778.25,420.0475 " fill="#EEEEEE" style="stroke:#000000;stroke-width:1.6500000000000001;"/><rect fill="none" height="69.9402" style="stroke:#000000;stroke-width:1.6500000000000001;" width="363" x="778.25" y="420.0475"/><text fill="#000000" font-family="FG Virgil" font-size="14.3" font-weight="bold" lengthAdjust="spacing" textLength="17.6" x="794.75" y="436.5786">alt</text><text fill="#000000" font-family="FG Virgil" font-size="12.1" font-weight="bold" lengthAdjust="spacing" textLength="273.9" x="861.85" y="435.3046">[if(exam.examStatus = ExamStatus.CREATED)]</text><line style="stroke:#181818;stroke-width:1.1;" x1="886.05" x2="932.25" y1="466.8877" y2="466.8877"/><line style="stroke:#181818;stroke-width:1.1;" x1="932.25" x2="932.25" y1="466.8877" y2="481.1877"/><line style="stroke:#181818;stroke-width:1.1;" x1="887.15" x2="932.25" y1="481.1877" y2="481.1877"/><polygon fill="#181818" points="898.15,476.7877,887.15,481.1877,898.15,485.5877,893.75,481.1877" style="stroke:#181818;stroke-width:1.1;"/><text fill="#000000" font-family="FG Virgil" font-size="14.3" font-weight="bold" lengthAdjust="spacing" textLength="7.7" x="893.75" y="461.0987">9</text><text fill="#000000" font-family="FG Virgil" font-size="14.3" lengthAdjust="spacing" textLength="204.6" x="905.85" y="461.0987">studentFutureExams.add(exam)</text><polygon fill="#181818" points="617.65,526.6078,606.65,531.0078,617.65,535.4078,613.25,531.0078" style="stroke:#181818;stroke-width:1.1;"/><line style="stroke:#181818;stroke-width:1.1;stroke-dasharray:2.0,2.0;" x1="611.05" x2="879.45" y1="531.0078" y2="531.0078"/><text fill="#000000" font-family="FG Virgil" font-size="14.3" font-weight="bold" lengthAdjust="spacing" textLength="15.4" x="624.25" y="525.2188">10</text><text fill="#000000" font-family="FG Virgil" font-size="14.3" lengthAdjust="spacing" textLength="173.8" x="644.05" y="525.2188">return studentFutureExams</text><polygon fill="#181818" points="355.85,561.0279,344.85,565.4279,355.85,569.8279,351.45,565.4279" style="stroke:#181818;stroke-width:1.1;"/><line style="stroke:#181818;stroke-width:1.1;stroke-dasharray:2.0,2.0;" x1="349.25" x2="598.95" y1="565.4279" y2="565.4279"/><text fill="#000000" font-family="FG Virgil" font-size="14.3" font-weight="bold" lengthAdjust="spacing" textLength="15.4" x="362.45" y="559.639">11</text><text fill="#000000" font-family="FG Virgil" font-size="14.3" lengthAdjust="spacing" textLength="133.1" x="382.25" y="559.639">studentFutureExams</text><line style="stroke:#181818;stroke-width:1.1;" x1="343.75" x2="389.95" y1="599.848" y2="599.848"/><line style="stroke:#181818;stroke-width:1.1;" x1="389.95" x2="389.95" y1="599.848" y2="614.148"/><line style="stroke:#181818;stroke-width:1.1;" x1="344.85" x2="389.95" y1="614.148" y2="614.148"/><polygon fill="#181818" points="355.85,609.748,344.85,614.148,355.85,618.548,351.45,614.148" style="stroke:#181818;stroke-width:1.1;"/><text fill="#000000" font-family="FG Virgil" font-size="14.3" font-weight="bold" lengthAdjust="spacing" textLength="15.4" x="351.45" y="594.0591">12</text><text fill="#000000" font-family="FG Virgil" font-size="14.3" lengthAdjust="spacing" textLength="215.6" x="371.25" y="594.0591">output Student Future Exams List</text><polygon fill="#181818" points="47.85,644.1682,36.85,648.5682,47.85,652.9682,43.45,648.5682" style="stroke:#181818;stroke-width:1.1;"/><line style="stroke:#181818;stroke-width:1.1;stroke-dasharray:2.0,2.0;" x1="41.25" x2="337.15" y1="648.5682" y2="648.5682"/><text fill="#000000" font-family="FG Virgil" font-size="14.3" font-weight="bold" lengthAdjust="spacing" textLength="15.4" x="54.45" y="642.7792">13</text><text fill="#000000" font-family="FG Virgil" font-size="14.3" lengthAdjust="spacing" textLength="250.8" x="74.25" y="642.7792">returns the list with all the future exams</text><!--SRC=[VPHDRzim38Rl_XMwBJx4kGTUWAvDXW333iq-pgfDnq9aIP3eTldtewJObjsq0PAO59zN94NvIujejfkDaLnXtycYqjt6NOGotFAkQB6JsMYoJYjTjLPtmD3saAmONbtu6KvubS0iL9YirT3mNk91A_p92JryPt-4FOjKsRMyrcz2dLd3fOCiuprgrNSlOEcvGctP2ViQ53Bks8DtP4IYg8IXpDaFuV3GOszX_uztxlVHXz5lMHeBZZ2EGglTBgie2wlb4dYCRWdMWubLbjmOAQg1_sJJ4zXNKO4N61xBqiKd8ckE_8KxO3vuhxn-HuazWz5EK3rN3oPMMThHME9pQE5PW6d6Fd8WiYoqaQrtlb5RSbySGyqaLSMub0nRO4qeZu6lpv-3UEK859yn-X16SDAiBQiiKC17gurGjM_QxIYJtgtoB43Z5XCN5n8TKXtw-wcaYwvyBdn3WtEG8SMaVrklUTERdvNxAx2D9b04nzwjXh6ylzia6_oJkLxlRhjl1pHadMmMY1e-qf9Q6xPgw0GffFr895yMkXYMsC5lrsEzWbcjXJUFJwiypuip8FtFAvlhXBMvQpqx9mjqC2eCqhAkEqfS8XDDo2Za4NlDleROQ1IFp_k7N_kdcDQYo6bVzsuk2bx7MYC9gixyTwINGtlB_BtGievXiYPw7UxMlIIoX4j6VRet7jCzcXx75r_4GmjSUFUCuHGVtubZkYxStd2LtsXcxz_dD0cwqlJv3m00]--></g></svg>