<?xml version="1.0" encoding="us-ascii" standalone="no"?><svg xmlns="http://www.w3.org/2000/svg" xmlns:xlink="http://www.w3.org/1999/xlink" contentStyleType="text/css" height="1131px" preserveAspectRatio="none" style="width:451px;height:1131px;background:#FFFFFF;" version="1.1" viewBox="0 0 451 1131" width="451px" zoomAndPan="magnify"><defs/><g><!--class ChangeCourseStatusUI--><g id="elem_ChangeCourseStatusUI"><rect codeLine="2" fill="#F1F1F1" height="60.582" id="ChangeCourseStatusUI" rx="2.5" ry="2.5" style="stroke:#181818;stroke-width:0.5;" width="180" x="133.5" y="7"/><ellipse cx="148.5" cy="29.291" fill="#ADD1B2" rx="11" ry="11" style="stroke:#181818;stroke-width:1.0;"/><path d="M151.2656,25.166 Q151.4219,24.9473 151.6094,24.8379 Q151.7969,24.7285 152.0156,24.7285 Q152.3906,24.7285 152.625,24.9941 Q152.8594,25.2441 152.8594,25.8535 L152.8594,27.3066 Q152.8594,27.916 152.625,28.1816 Q152.3906,28.4473 152.0156,28.4473 Q151.6719,28.4473 151.4688,28.2441 Q151.2656,28.0566 151.1563,27.541 Q151.1094,27.1816 150.9219,26.9941 Q150.5938,26.6191 149.9844,26.4004 Q149.375,26.1816 148.75,26.1816 Q147.9844,26.1816 147.3438,26.5098 Q146.7188,26.8379 146.2188,27.5879 Q145.7344,28.3379 145.7344,29.3691 L145.7344,30.4629 Q145.7344,31.6973 146.625,32.5254 Q147.5156,33.3379 149.1094,33.3379 Q150.0469,33.3379 150.7031,33.0879 Q151.0938,32.9316 151.5156,32.4941 Q151.7813,32.2285 151.9219,32.1504 Q152.0781,32.0723 152.2813,32.0723 Q152.6094,32.0723 152.8594,32.3379 Q153.125,32.5879 153.125,32.9316 Q153.125,33.2754 152.7813,33.6816 Q152.2813,34.2598 151.4844,34.5879 Q150.4063,35.041 149.1094,35.041 Q147.5938,35.041 146.3906,34.416 Q145.4063,33.916 144.7188,32.8535 Q144.0313,31.7754 144.0313,30.4941 L144.0313,29.3379 Q144.0313,28.0098 144.6406,26.8691 Q145.2656,25.7129 146.3594,25.1035 Q147.4531,24.4785 148.6875,24.4785 Q149.4219,24.4785 150.0625,24.6504 Q150.7188,24.8066 151.2656,25.166 Z " fill="#000000"/><text fill="#000000" font-family="sans-serif" font-size="12" font-style="italic" lengthAdjust="spacing" textLength="27" x="223" y="24.9492">&#171;UI&#187;</text><text fill="#000000" font-family="sans-serif" font-size="14" lengthAdjust="spacing" textLength="148" x="162.5" y="43.0684">ChangeCourseStatusUI</text><line style="stroke:#181818;stroke-width:0.5;" x1="134.5" x2="312.5" y1="51.582" y2="51.582"/><line style="stroke:#181818;stroke-width:0.5;" x1="134.5" x2="312.5" y1="59.582" y2="59.582"/></g><!--class OpenCloseCourseController--><g id="elem_OpenCloseCourseController"><rect codeLine="5" fill="#F1F1F1" height="172.3086" id="OpenCloseCourseController" rx="2.5" ry="2.5" style="stroke:#181818;stroke-width:0.5;" width="314" x="66.5" y="129"/><ellipse cx="129.75" cy="151.291" fill="#ADD1B2" rx="11" ry="11" style="stroke:#181818;stroke-width:1.0;"/><path d="M132.5156,147.166 Q132.6719,146.9473 132.8594,146.8379 Q133.0469,146.7285 133.2656,146.7285 Q133.6406,146.7285 133.875,146.9941 Q134.1094,147.2441 134.1094,147.8535 L134.1094,149.3066 Q134.1094,149.916 133.875,150.1816 Q133.6406,150.4473 133.2656,150.4473 Q132.9219,150.4473 132.7188,150.2441 Q132.5156,150.0566 132.4063,149.541 Q132.3594,149.1816 132.1719,148.9941 Q131.8438,148.6191 131.2344,148.4004 Q130.625,148.1816 130,148.1816 Q129.2344,148.1816 128.5938,148.5098 Q127.9688,148.8379 127.4688,149.5879 Q126.9844,150.3379 126.9844,151.3691 L126.9844,152.4629 Q126.9844,153.6973 127.875,154.5254 Q128.7656,155.3379 130.3594,155.3379 Q131.2969,155.3379 131.9531,155.0879 Q132.3438,154.9316 132.7656,154.4941 Q133.0313,154.2285 133.1719,154.1504 Q133.3281,154.0723 133.5313,154.0723 Q133.8594,154.0723 134.1094,154.3379 Q134.375,154.5879 134.375,154.9316 Q134.375,155.2754 134.0313,155.6816 Q133.5313,156.2598 132.7344,156.5879 Q131.6563,157.041 130.3594,157.041 Q128.8438,157.041 127.6406,156.416 Q126.6563,155.916 125.9688,154.8535 Q125.2813,153.7754 125.2813,152.4941 L125.2813,151.3379 Q125.2813,150.0098 125.8906,148.8691 Q126.5156,147.7129 127.6094,147.1035 Q128.7031,146.4785 129.9375,146.4785 Q130.6719,146.4785 131.3125,146.6504 Q131.9688,146.8066 132.5156,147.166 Z " fill="#000000"/><text fill="#000000" font-family="sans-serif" font-size="12" font-style="italic" lengthAdjust="spacing" textLength="68" x="205.75" y="146.9492">&#171;Controller&#187;</text><text fill="#000000" font-family="sans-serif" font-size="14" lengthAdjust="spacing" textLength="179" x="150.25" y="165.0684">OpenCloseCourseController</text><line style="stroke:#181818;stroke-width:0.5;" x1="67.5" x2="379.5" y1="173.582" y2="173.582"/><line style="stroke:#181818;stroke-width:0.5;" x1="67.5" x2="379.5" y1="181.582" y2="181.582"/><ellipse cx="77.5" cy="196.3926" fill="#84BE84" rx="3" ry="3" style="stroke:#038048;stroke-width:1.0;"/><text fill="#000000" font-family="sans-serif" font-size="14" lengthAdjust="spacing" textLength="287" x="86.5" y="200.6895">List&lt;Course&gt;: findCoursesAvailableToOpen()</text><ellipse cx="77.5" cy="215.0137" fill="#84BE84" rx="3" ry="3" style="stroke:#038048;stroke-width:1.0;"/><text fill="#000000" font-family="sans-serif" font-size="14" lengthAdjust="spacing" textLength="211" x="86.5" y="219.3105">boolean: validateDate(closeDate)</text><ellipse cx="77.5" cy="233.6348" fill="#84BE84" rx="3" ry="3" style="stroke:#038048;stroke-width:1.0;"/><text fill="#000000" font-family="sans-serif" font-size="14" lengthAdjust="spacing" textLength="271" x="86.5" y="237.9316">Course : openCourse(course, closingDate)</text><ellipse cx="77.5" cy="252.2559" fill="#84BE84" rx="3" ry="3" style="stroke:#038048;stroke-width:1.0;"/><text fill="#000000" font-family="sans-serif" font-size="14" lengthAdjust="spacing" textLength="288" x="86.5" y="256.5527">List&lt;Course&gt;: findCoursesAvailableToClose()</text><ellipse cx="77.5" cy="270.877" fill="#84BE84" rx="3" ry="3" style="stroke:#038048;stroke-width:1.0;"/><text fill="#000000" font-family="sans-serif" font-size="14" lengthAdjust="spacing" textLength="190" x="86.5" y="275.1738">Course : closeCourse(course)</text><ellipse cx="77.5" cy="289.498" fill="#84BE84" rx="3" ry="3" style="stroke:#038048;stroke-width:1.0;"/><text fill="#000000" font-family="sans-serif" font-size="14" lengthAdjust="spacing" textLength="167" x="86.5" y="293.7949">void : saveCourse(course)</text></g><!--class CourseRepository--><g id="elem_CourseRepository"><rect codeLine="14" fill="#F1F1F1" height="116.4453" id="CourseRepository" rx="2.5" ry="2.5" style="stroke:#181818;stroke-width:0.5;" width="317" x="65" y="362"/><ellipse cx="162.25" cy="384.291" fill="#ADD1B2" rx="11" ry="11" style="stroke:#181818;stroke-width:1.0;"/><path d="M165.0156,380.166 Q165.1719,379.9473 165.3594,379.8379 Q165.5469,379.7285 165.7656,379.7285 Q166.1406,379.7285 166.375,379.9941 Q166.6094,380.2441 166.6094,380.8535 L166.6094,382.3066 Q166.6094,382.916 166.375,383.1816 Q166.1406,383.4473 165.7656,383.4473 Q165.4219,383.4473 165.2188,383.2441 Q165.0156,383.0566 164.9063,382.541 Q164.8594,382.1816 164.6719,381.9941 Q164.3438,381.6191 163.7344,381.4004 Q163.125,381.1816 162.5,381.1816 Q161.7344,381.1816 161.0938,381.5098 Q160.4688,381.8379 159.9688,382.5879 Q159.4844,383.3379 159.4844,384.3691 L159.4844,385.4629 Q159.4844,386.6973 160.375,387.5254 Q161.2656,388.3379 162.8594,388.3379 Q163.7969,388.3379 164.4531,388.0879 Q164.8438,387.9316 165.2656,387.4941 Q165.5313,387.2285 165.6719,387.1504 Q165.8281,387.0723 166.0313,387.0723 Q166.3594,387.0723 166.6094,387.3379 Q166.875,387.5879 166.875,387.9316 Q166.875,388.2754 166.5313,388.6816 Q166.0313,389.2598 165.2344,389.5879 Q164.1563,390.041 162.8594,390.041 Q161.3438,390.041 160.1406,389.416 Q159.1563,388.916 158.4688,387.8535 Q157.7813,386.7754 157.7813,385.4941 L157.7813,384.3379 Q157.7813,383.0098 158.3906,381.8691 Q159.0156,380.7129 160.1094,380.1035 Q161.2031,379.4785 162.4375,379.4785 Q163.1719,379.4785 163.8125,379.6504 Q164.4688,379.8066 165.0156,380.166 Z " fill="#000000"/><text fill="#000000" font-family="sans-serif" font-size="12" font-style="italic" lengthAdjust="spacing" textLength="73" x="203.25" y="379.9492">&#171;Repository&#187;</text><text fill="#000000" font-family="sans-serif" font-size="14" lengthAdjust="spacing" textLength="114" x="182.75" y="398.0684">CourseRepository</text><line style="stroke:#181818;stroke-width:0.5;" x1="66" x2="381" y1="406.582" y2="406.582"/><line style="stroke:#181818;stroke-width:0.5;" x1="66" x2="381" y1="414.582" y2="414.582"/><ellipse cx="76" cy="429.3926" fill="#84BE84" rx="3" ry="3" style="stroke:#038048;stroke-width:1.0;"/><text fill="#000000" font-family="sans-serif" font-size="14" lengthAdjust="spacing" textLength="291" x="85" y="433.6895">List&lt;Course&gt; : findCoursesAvailableToOpen()</text><ellipse cx="76" cy="448.0137" fill="#84BE84" rx="3" ry="3" style="stroke:#038048;stroke-width:1.0;"/><text fill="#000000" font-family="sans-serif" font-size="14" lengthAdjust="spacing" textLength="275" x="85" y="452.3105">List&lt;Course&gt; : findCoursesAvailableClose()</text><ellipse cx="76" cy="466.6348" fill="#84BE84" rx="3" ry="3" style="stroke:#038048;stroke-width:1.0;"/><text fill="#000000" font-family="sans-serif" font-size="14" lengthAdjust="spacing" textLength="167" x="85" y="470.9316">void : saveCourse(course)</text></g><!--class Course--><g id="elem_Course"><rect codeLine="20" fill="#F1F1F1" height="302.6563" id="Course" rx="2.5" ry="2.5" style="stroke:#181818;stroke-width:0.5;" width="222" x="112.5" y="557"/><ellipse cx="196.25" cy="579.291" fill="#ADD1B2" rx="11" ry="11" style="stroke:#181818;stroke-width:1.0;"/><path d="M199.0156,575.166 Q199.1719,574.9473 199.3594,574.8379 Q199.5469,574.7285 199.7656,574.7285 Q200.1406,574.7285 200.375,574.9941 Q200.6094,575.2441 200.6094,575.8535 L200.6094,577.3066 Q200.6094,577.916 200.375,578.1816 Q200.1406,578.4473 199.7656,578.4473 Q199.4219,578.4473 199.2188,578.2441 Q199.0156,578.0566 198.9063,577.541 Q198.8594,577.1816 198.6719,576.9941 Q198.3438,576.6191 197.7344,576.4004 Q197.125,576.1816 196.5,576.1816 Q195.7344,576.1816 195.0938,576.5098 Q194.4688,576.8379 193.9688,577.5879 Q193.4844,578.3379 193.4844,579.3691 L193.4844,580.4629 Q193.4844,581.6973 194.375,582.5254 Q195.2656,583.3379 196.8594,583.3379 Q197.7969,583.3379 198.4531,583.0879 Q198.8438,582.9316 199.2656,582.4941 Q199.5313,582.2285 199.6719,582.1504 Q199.8281,582.0723 200.0313,582.0723 Q200.3594,582.0723 200.6094,582.3379 Q200.875,582.5879 200.875,582.9316 Q200.875,583.2754 200.5313,583.6816 Q200.0313,584.2598 199.2344,584.5879 Q198.1563,585.041 196.8594,585.041 Q195.3438,585.041 194.1406,584.416 Q193.1563,583.916 192.4688,582.8535 Q191.7813,581.7754 191.7813,580.4941 L191.7813,579.3379 Q191.7813,578.0098 192.3906,576.8691 Q193.0156,575.7129 194.1094,575.1035 Q195.2031,574.4785 196.4375,574.4785 Q197.1719,574.4785 197.8125,574.6504 Q198.4688,574.8066 199.0156,575.166 Z " fill="#000000"/><text fill="#000000" font-family="sans-serif" font-size="12" font-style="italic" lengthAdjust="spacing" textLength="44" x="217.75" y="574.9492">&#171;Entity&#187;</text><text fill="#000000" font-family="sans-serif" font-size="14" lengthAdjust="spacing" textLength="46" x="216.75" y="593.0684">Course</text><line style="stroke:#181818;stroke-width:0.5;" x1="113.5" x2="333.5" y1="601.582" y2="601.582"/><rect fill="none" height="6" style="stroke:#C82930;stroke-width:1.0;" width="6" x="120.5" y="613.3926"/><text fill="#000000" font-family="sans-serif" font-size="14" lengthAdjust="spacing" textLength="123" x="132.5" y="620.6895">CourseID: courseID</text><rect fill="none" height="6" style="stroke:#C82930;stroke-width:1.0;" width="6" x="120.5" y="632.0137"/><text fill="#000000" font-family="sans-serif" font-size="14" lengthAdjust="spacing" textLength="126" x="132.5" y="639.3105">String : courseCode</text><rect fill="none" height="6" style="stroke:#C82930;stroke-width:1.0;" width="6" x="120.5" y="650.6348"/><text fill="#000000" font-family="sans-serif" font-size="14" lengthAdjust="spacing" textLength="173" x="132.5" y="657.9316">CourseName : courseName</text><rect fill="none" height="6" style="stroke:#C82930;stroke-width:1.0;" width="6" x="120.5" y="669.2559"/><text fill="#000000" font-family="sans-serif" font-size="14" lengthAdjust="spacing" textLength="118" x="132.5" y="676.5527">String : description</text><rect fill="none" height="6" style="stroke:#C82930;stroke-width:1.0;" width="6" x="120.5" y="687.877"/><text fill="#000000" font-family="sans-serif" font-size="14" lengthAdjust="spacing" textLength="130" x="132.5" y="695.1738">Integer: minStudents</text><rect fill="none" height="6" style="stroke:#C82930;stroke-width:1.0;" width="6" x="120.5" y="706.498"/><text fill="#000000" font-family="sans-serif" font-size="14" lengthAdjust="spacing" textLength="133" x="132.5" y="713.7949">Integer: maxStudents</text><rect fill="none" height="6" style="stroke:#C82930;stroke-width:1.0;" width="6" x="120.5" y="725.1191"/><text fill="#000000" font-family="sans-serif" font-size="14" lengthAdjust="spacing" textLength="167" x="132.5" y="732.416">Teacher: teacherInCharge</text><rect fill="none" height="6" style="stroke:#C82930;stroke-width:1.0;" width="6" x="120.5" y="743.7402"/><text fill="#000000" font-family="sans-serif" font-size="14" lengthAdjust="spacing" textLength="146" x="132.5" y="751.0371">Date: courseOpenDate</text><rect fill="none" height="6" style="stroke:#C82930;stroke-width:1.0;" width="6" x="120.5" y="762.3613"/><text fill="#000000" font-family="sans-serif" font-size="14" lengthAdjust="spacing" textLength="147" x="132.5" y="769.6582">Date: courseCloseDate</text><rect fill="none" height="6" style="stroke:#C82930;stroke-width:1.0;" width="6" x="120.5" y="780.9824"/><text fill="#000000" font-family="sans-serif" font-size="14" lengthAdjust="spacing" textLength="169" x="132.5" y="788.2793">Date: enrollmentOpenDate</text><rect fill="none" height="6" style="stroke:#C82930;stroke-width:1.0;" width="6" x="120.5" y="799.6035"/><text fill="#000000" font-family="sans-serif" font-size="14" lengthAdjust="spacing" textLength="170" x="132.5" y="806.9004">Date: enrollmentCloseDate</text><line style="stroke:#181818;stroke-width:0.5;" x1="113.5" x2="333.5" y1="814.4141" y2="814.4141"/><ellipse cx="123.5" cy="829.2246" fill="#84BE84" rx="3" ry="3" style="stroke:#038048;stroke-width:1.0;"/><text fill="#000000" font-family="sans-serif" font-size="14" lengthAdjust="spacing" textLength="196" x="132.5" y="833.5215">void: openCourse(closingDate)</text><ellipse cx="123.5" cy="847.8457" fill="#84BE84" rx="3" ry="3" style="stroke:#038048;stroke-width:1.0;"/><text fill="#000000" font-family="sans-serif" font-size="14" lengthAdjust="spacing" textLength="123" x="132.5" y="852.1426">void: closeCourse()</text></g><!--class CourseID--><g id="elem_CourseID"><rect codeLine="36" fill="#F1F1F1" height="79.2031" id="CourseID" rx="2.5" ry="2.5" style="stroke:#181818;stroke-width:0.5;" width="113" x="7" y="1014"/><ellipse cx="22" cy="1036.291" fill="#ADD1B2" rx="11" ry="11" style="stroke:#181818;stroke-width:1.0;"/><path d="M24.7656,1032.166 Q24.9219,1031.9473 25.1094,1031.8379 Q25.2969,1031.7285 25.5156,1031.7285 Q25.8906,1031.7285 26.125,1031.9941 Q26.3594,1032.2441 26.3594,1032.8535 L26.3594,1034.3066 Q26.3594,1034.916 26.125,1035.1816 Q25.8906,1035.4473 25.5156,1035.4473 Q25.1719,1035.4473 24.9688,1035.2441 Q24.7656,1035.0566 24.6563,1034.541 Q24.6094,1034.1816 24.4219,1033.9941 Q24.0938,1033.6191 23.4844,1033.4004 Q22.875,1033.1816 22.25,1033.1816 Q21.4844,1033.1816 20.8438,1033.5098 Q20.2188,1033.8379 19.7188,1034.5879 Q19.2344,1035.3379 19.2344,1036.3691 L19.2344,1037.4629 Q19.2344,1038.6973 20.125,1039.5254 Q21.0156,1040.3379 22.6094,1040.3379 Q23.5469,1040.3379 24.2031,1040.0879 Q24.5938,1039.9316 25.0156,1039.4941 Q25.2813,1039.2285 25.4219,1039.1504 Q25.5781,1039.0723 25.7813,1039.0723 Q26.1094,1039.0723 26.3594,1039.3379 Q26.625,1039.5879 26.625,1039.9316 Q26.625,1040.2754 26.2813,1040.6816 Q25.7813,1041.2598 24.9844,1041.5879 Q23.9063,1042.041 22.6094,1042.041 Q21.0938,1042.041 19.8906,1041.416 Q18.9063,1040.916 18.2188,1039.8535 Q17.5313,1038.7754 17.5313,1037.4941 L17.5313,1036.3379 Q17.5313,1035.0098 18.1406,1033.8691 Q18.7656,1032.7129 19.8594,1032.1035 Q20.9531,1031.4785 22.1875,1031.4785 Q22.9219,1031.4785 23.5625,1031.6504 Q24.2188,1031.8066 24.7656,1032.166 Z " fill="#000000"/><text fill="#000000" font-family="sans-serif" font-size="12" font-style="italic" lengthAdjust="spacing" textLength="85" x="34" y="1031.9492">&#171;Value Object&#187;</text><text fill="#000000" font-family="sans-serif" font-size="14" lengthAdjust="spacing" textLength="59" x="47" y="1050.0684">CourseID</text><line style="stroke:#181818;stroke-width:0.5;" x1="8" x2="119" y1="1058.582" y2="1058.582"/><text fill="#000000" font-family="sans-serif" font-size="14" lengthAdjust="spacing" textLength="101" x="13" y="1077.6895">String: courseID</text><line style="stroke:#181818;stroke-width:0.5;" x1="8" x2="119" y1="1085.2031" y2="1085.2031"/></g><!--class CourseName--><g id="elem_CourseName"><rect codeLine="40" fill="#F1F1F1" height="79.2031" id="CourseName" rx="2.5" ry="2.5" style="stroke:#181818;stroke-width:0.5;" width="136" x="155.5" y="1014"/><ellipse cx="180.4" cy="1036.291" fill="#ADD1B2" rx="11" ry="11" style="stroke:#181818;stroke-width:1.0;"/><path d="M183.1656,1032.166 Q183.3219,1031.9473 183.5094,1031.8379 Q183.6969,1031.7285 183.9156,1031.7285 Q184.2906,1031.7285 184.525,1031.9941 Q184.7594,1032.2441 184.7594,1032.8535 L184.7594,1034.3066 Q184.7594,1034.916 184.525,1035.1816 Q184.2906,1035.4473 183.9156,1035.4473 Q183.5719,1035.4473 183.3688,1035.2441 Q183.1656,1035.0566 183.0563,1034.541 Q183.0094,1034.1816 182.8219,1033.9941 Q182.4938,1033.6191 181.8844,1033.4004 Q181.275,1033.1816 180.65,1033.1816 Q179.8844,1033.1816 179.2438,1033.5098 Q178.6188,1033.8379 178.1188,1034.5879 Q177.6344,1035.3379 177.6344,1036.3691 L177.6344,1037.4629 Q177.6344,1038.6973 178.525,1039.5254 Q179.4156,1040.3379 181.0094,1040.3379 Q181.9469,1040.3379 182.6031,1040.0879 Q182.9938,1039.9316 183.4156,1039.4941 Q183.6813,1039.2285 183.8219,1039.1504 Q183.9781,1039.0723 184.1813,1039.0723 Q184.5094,1039.0723 184.7594,1039.3379 Q185.025,1039.5879 185.025,1039.9316 Q185.025,1040.2754 184.6813,1040.6816 Q184.1813,1041.2598 183.3844,1041.5879 Q182.3063,1042.041 181.0094,1042.041 Q179.4938,1042.041 178.2906,1041.416 Q177.3063,1040.916 176.6188,1039.8535 Q175.9313,1038.7754 175.9313,1037.4941 L175.9313,1036.3379 Q175.9313,1035.0098 176.5406,1033.8691 Q177.1656,1032.7129 178.2594,1032.1035 Q179.3531,1031.4785 180.5875,1031.4785 Q181.3219,1031.4785 181.9625,1031.6504 Q182.6188,1031.8066 183.1656,1032.166 Z " fill="#000000"/><text fill="#000000" font-family="sans-serif" font-size="12" font-style="italic" lengthAdjust="spacing" textLength="85" x="195.1" y="1031.9492">&#171;Value Object&#187;</text><text fill="#000000" font-family="sans-serif" font-size="14" lengthAdjust="spacing" textLength="82" x="196.6" y="1050.0684">CourseName</text><line style="stroke:#181818;stroke-width:0.5;" x1="156.5" x2="290.5" y1="1058.582" y2="1058.582"/><text fill="#000000" font-family="sans-serif" font-size="14" lengthAdjust="spacing" textLength="124" x="161.5" y="1077.6895">String: courseName</text><line style="stroke:#181818;stroke-width:0.5;" x1="156.5" x2="290.5" y1="1085.2031" y2="1085.2031"/></g><!--class CourseStatus--><g id="elem_CourseStatus"><rect codeLine="44" fill="#F1F1F1" height="141.1055" id="CourseStatus" rx="2.5" ry="2.5" style="stroke:#181818;stroke-width:0.5;" width="118" x="326.5" y="983"/><ellipse cx="341.5" cy="999" fill="#EB937F" rx="11" ry="11" style="stroke:#181818;stroke-width:1.0;"/><path d="M340.3594,999.7969 L340.3594,1002.2969 L344.6875,1002.2969 L344.6875,1001.375 Q344.6875,1000.7656 344.9219,1000.5 Q345.1719,1000.2344 345.5469,1000.2344 Q345.9219,1000.2344 346.1563,1000.5 Q346.3906,1000.7656 346.3906,1001.375 L346.3906,1004 L338.3906,1004 Q337.7656,1004 337.5,1003.7656 Q337.25,1003.5313 337.25,1003.1406 Q337.25,1002.7656 337.5156,1002.5313 Q337.7813,1002.2969 338.3906,1002.2969 L338.6563,1002.2969 L338.6563,995.6406 L338.3906,995.6406 Q337.7656,995.6406 337.5,995.4063 Q337.25,995.1719 337.25,994.7813 Q337.25,994.4063 337.5,994.1719 Q337.7656,993.9375 338.3906,993.9375 L346.0156,993.9375 L346.0156,996.5313 Q346.0156,997.1406 345.7813,997.4063 Q345.5625,997.6563 345.1719,997.6563 Q344.7969,997.6563 344.5625,997.4063 Q344.3281,997.1406 344.3281,996.5313 L344.3281,995.6406 L340.3594,995.6406 L340.3594,998.0938 L341.8438,998.0938 Q341.8438,997.4375 341.9688,997.25 Q342.2344,996.8438 342.7031,996.8438 Q343.0781,996.8438 343.3125,997.1094 Q343.5469,997.3594 343.5469,997.9688 L343.5469,999.9375 Q343.5469,1000.4844 343.4219,1000.6719 Q343.1563,1001.0625 342.7031,1001.0625 Q342.2344,1001.0625 341.9688,1000.6563 Q341.8438,1000.4688 341.8438,999.7969 L340.3594,999.7969 Z " fill="#000000"/><text fill="#000000" font-family="sans-serif" font-size="14" lengthAdjust="spacing" textLength="86" x="355.5" y="1004.7969">CourseStatus</text><line style="stroke:#181818;stroke-width:0.5;" x1="327.5" x2="443.5" y1="1015" y2="1015"/><text fill="#000000" font-family="sans-serif" font-size="14" lengthAdjust="spacing" textLength="47" x="332.5" y="1034.1074">CLOSE</text><text fill="#000000" font-family="sans-serif" font-size="14" lengthAdjust="spacing" textLength="38" x="332.5" y="1052.7285">OPEN</text><text fill="#000000" font-family="sans-serif" font-size="14" lengthAdjust="spacing" textLength="55" x="332.5" y="1071.3496">ENROLL</text><text fill="#000000" font-family="sans-serif" font-size="14" lengthAdjust="spacing" textLength="98" x="332.5" y="1089.9707">IN_PROGRESS</text><text fill="#000000" font-family="sans-serif" font-size="14" lengthAdjust="spacing" textLength="57" x="332.5" y="1108.5918">CLOSED</text><line style="stroke:#181818;stroke-width:0.5;" x1="327.5" x2="443.5" y1="1116.1055" y2="1116.1055"/></g><!--link ChangeCourseStatusUI to OpenCloseCourseController--><g id="link_ChangeCourseStatusUI_OpenCloseCourseController"><path codeLine="52" d="M223.5,68.27 C223.5,83.78 223.5,103.66 223.5,123.71 " fill="none" id="ChangeCourseStatusUI-to-OpenCloseCourseController" style="stroke:#181818;stroke-width:1.0;stroke-dasharray:7.0,7.0;"/><polygon fill="#181818" points="223.5,128.81,227.5,119.81,223.5,123.81,219.5,119.81,223.5,128.81" style="stroke:#181818;stroke-width:1.0;"/></g><!--link OpenCloseCourseController to CourseRepository--><g id="link_OpenCloseCourseController_CourseRepository"><path codeLine="53" d="M223.5,301.21 C223.5,319.79 223.5,339.12 223.5,356.63 " fill="none" id="OpenCloseCourseController-to-CourseRepository" style="stroke:#181818;stroke-width:1.0;"/><polygon fill="#181818" points="223.5,361.99,227.5,352.99,223.5,356.99,219.5,352.99,223.5,361.99" style="stroke:#181818;stroke-width:1.0;"/></g><!--link CourseRepository to Course--><g id="link_CourseRepository_Course"><path codeLine="54" d="M223.5,478.29 C223.5,499.8 223.5,525.41 223.5,551.59 " fill="none" id="CourseRepository-to-Course" style="stroke:#181818;stroke-width:1.0;"/><polygon fill="#181818" points="223.5,556.83,227.5,547.83,223.5,551.83,219.5,547.83,223.5,556.83" style="stroke:#181818;stroke-width:1.0;"/><polygon fill="#000000" points="228.5,522.6455,231.4389,513.6004,225.5611,513.6004,228.5,522.6455" style="stroke:#000000;stroke-width:1.0;"/><text fill="#000000" font-family="sans-serif" font-size="13" lengthAdjust="spacing" textLength="33" x="237.5" y="523.0283">saves</text></g><!--link Course to CourseID--><g id="link_Course_CourseID"><path codeLine="55" d="M153.09,860.44 C129.44,911.15 104.65,964.28 87.16,1001.78 " fill="none" id="Course-to-CourseID" style="stroke:#181818;stroke-width:1.0;"/><polygon fill="#181818" points="81.52,1013.87,87.682,1010.1244,86.5946,1002.9958,80.4326,1006.7414,81.52,1013.87" style="stroke:#181818;stroke-width:1.0;"/></g><!--link Course to CourseName--><g id="link_Course_CourseName"><path codeLine="56" d="M223.5,860.44 C223.5,910.71 223.5,963.36 223.5,1000.8 " fill="none" id="Course-to-CourseName" style="stroke:#181818;stroke-width:1.0;"/><polygon fill="#181818" points="223.5,1013.87,227.5,1007.87,223.5,1001.87,219.5,1007.87,223.5,1013.87" style="stroke:#181818;stroke-width:1.0;"/></g><!--link Course to CourseStatus--><g id="link_Course_CourseStatus"><path codeLine="57" d="M294.79,860.44 C314.05,901.21 334.04,943.55 350.34,978.07 " fill="none" id="Course-to-CourseStatus" style="stroke:#181818;stroke-width:1.0;"/><polygon fill="#181818" points="352.52,982.67,352.2996,972.8236,350.3876,978.1475,345.0636,976.2355,352.52,982.67" style="stroke:#181818;stroke-width:1.0;"/><text fill="#000000" font-family="sans-serif" font-size="13" lengthAdjust="spacing" textLength="7" x="290.8617" y="881.7526">1</text><text fill="#000000" font-family="sans-serif" font-size="13" lengthAdjust="spacing" textLength="7" x="341.758" y="971.527">1</text></g><!--SRC=[ZLJRQiCm37tFLuW-TPSEzbfAOAHX14fJcdQlmqsqpiErI-oKZR5_d-tSt2Q1648idoDBFfATCY8b19-47p4GHIunKKGLSX_1Oh6FV1z-lJ_FIoqjFYCFc90LCn1SvO8np3MtDQmFwF40AohLeYJxS_YWF2iD-N8Xb943mvqmcqxlAeU340m9dyE5C9eHXKlzJLCJqyngMhaBp46OZAmnJUtl4GoPygDB7vE6FTUq4o1jZrj5g2aNGJDDaEHoYpTwbUjRFEkCbCX_j4ojCI0JZD9fXCVrWKPdgtCCkQAgpS-CMOL6Ior9DNF0HELQSgYnG6JOSLsJ4pOCO_JvPoZJd9uL5To18wxmYFaSJfGdgiYGAzaBa-yUU8Sa_JImAYSHr-sU7ztufbdgr8pEnXw0WxeNEpXoq_yd7NrmYvRItQQiqNLBtxQootCxirF5QAdh-4POWH0VlZ1LJJLBgPqgtdZQCetojJNKtiYB4xXlXzCtmIfEmiQAD-6wCSBrDbwj6ZDQls-syUisJ99hRvjXxmFrzEGFFqdUy6Crc_cTg-brxchBgkwD1BzYQMnstoZTisYbgPOdpnC3-M1dxX6yVm00]--></g></svg>