<?xml version="1.0" encoding="us-ascii" standalone="no"?><svg xmlns="http://www.w3.org/2000/svg" xmlns:xlink="http://www.w3.org/1999/xlink" contentStyleType="text/css" height="847.8px" preserveAspectRatio="none" style="width:679px;height:847px;background:#FFFFFF;" version="1.1" viewBox="0 0 679 847" width="679.2px" zoomAndPan="magnify"><defs/><g><rect fill="#FFFFFF" height="705" style="stroke:#181818;stroke-width:0.6;" width="6" x="239.4" y="72.9199"/><rect fill="#FFFFFF" height="56.3238" style="stroke:#181818;stroke-width:0.6;" width="6" x="413.4" y="163.793"/><rect fill="#FFFFFF" height="18.7746" style="stroke:#181818;stroke-width:0.6;" width="6" x="413.4" y="355.9137"/><rect fill="#FFFFFF" height="37.5492" style="stroke:#181818;stroke-width:0.6;" width="6" x="413.4" y="409.2375"/><rect fill="#FFFFFF" height="56.3238" style="stroke:#181818;stroke-width:0.6;" width="6" x="413.4" y="545.6461"/><rect fill="#FFFFFF" height="37.5492" style="stroke:#181818;stroke-width:0.6;" width="6" x="413.4" y="684.443"/><rect fill="#FFFFFF" height="18.7746" style="stroke:#181818;stroke-width:0.6;" width="6" x="546.6" y="182.5676"/><rect fill="#FFFFFF" height="18.7746" style="stroke:#181818;stroke-width:0.6;" width="6" x="546.6" y="564.4207"/><rect fill="none" height="621.5016" style="stroke:#000000;stroke-width:0.8999999999999999;" width="669" x="6" y="138.2438"/><rect fill="none" height="288.3762" style="stroke:#000000;stroke-width:0.8999999999999999;" width="657" x="12" y="229.1168"/><rect fill="none" height="172.95" style="stroke:#000000;stroke-width:0.8999999999999999;" width="645" x="18" y="311.5898"/><rect fill="none" height="96.6516" style="stroke:#000000;stroke-width:0.8999999999999999;" width="633" x="24" y="383.6883"/><rect fill="none" height="144.5754" style="stroke:#000000;stroke-width:0.8999999999999999;" width="633" x="24" y="610.9699"/><line style="stroke:#181818;stroke-width:0.3;stroke-dasharray:5.0,5.0;" x1="48.6" x2="48.6" y1="52.9453" y2="788.7199"/><line style="stroke:#181818;stroke-width:0.3;stroke-dasharray:5.0,5.0;" x1="242.1" x2="242.1" y1="52.9453" y2="788.7199"/><line style="stroke:#181818;stroke-width:0.3;stroke-dasharray:5.0,5.0;" x1="416.1" x2="416.1" y1="52.9453" y2="788.7199"/><line style="stroke:#181818;stroke-width:0.3;stroke-dasharray:5.0,5.0;" x1="549.6" x2="549.6" y1="52.9453" y2="788.7199"/><line style="stroke:#181818;stroke-width:0.3;stroke-dasharray:5.0,5.0;" x1="621" x2="621" y1="52.9453" y2="788.7199"/><text fill="#000000" font-family="FG Virgil" font-size="8.4" lengthAdjust="spacing" textLength="33.6" x="30" y="50.8371">Manager</text><ellipse cx="48.6" cy="10.8727" fill="#E3E3E3" rx="4.8" ry="4.8" style="stroke:#181818;stroke-width:0.3;"/><path d="M48.6,15.6727 L48.6,31.8727 M40.8,20.4727 L56.4,20.4727 M48.6,31.8727 L40.8,40.8727 M48.6,31.8727 L56.4,40.8727 " fill="none" style="stroke:#181818;stroke-width:0.3;"/><text fill="#000000" font-family="FG Virgil" font-size="8.4" lengthAdjust="spacing" textLength="33.6" x="30" y="797.1844">Manager</text><ellipse cx="48.6" cy="804.3926" fill="#E3E3E3" rx="4.8" ry="4.8" style="stroke:#181818;stroke-width:0.3;"/><path d="M48.6,809.1926 L48.6,825.3926 M40.8,813.9926 L56.4,813.9926 M48.6,825.3926 L40.8,834.3926 M48.6,825.3926 L56.4,834.3926 " fill="none" style="stroke:#181818;stroke-width:0.3;"/><rect fill="#E3E3E3" height="30.7453" rx="1.5" ry="1.5" style="stroke:#181818;stroke-width:0.3;" width="85.8" x="199.5" y="21.6"/><text fill="#000000" font-family="FG Virgil" font-size="8.4" font-style="italic" lengthAdjust="spacing" textLength="57" x="213.9" y="34.8645">&#171;presentation&#187;</text><text fill="#000000" font-family="FG Virgil" font-size="8.4" lengthAdjust="spacing" textLength="77.4" x="203.7" y="46.0371">OpenCloseCourseUI</text><rect fill="#E3E3E3" height="30.7453" rx="1.5" ry="1.5" style="stroke:#181818;stroke-width:0.3;" width="85.8" x="199.5" y="788.1199"/><text fill="#000000" font-family="FG Virgil" font-size="8.4" font-style="italic" lengthAdjust="spacing" textLength="57" x="213.9" y="801.3844">&#171;presentation&#187;</text><text fill="#000000" font-family="FG Virgil" font-size="8.4" lengthAdjust="spacing" textLength="77.4" x="203.7" y="812.557">OpenCloseCourseUI</text><text fill="#000000" font-family="FG Virgil" font-size="8.4" font-style="italic" lengthAdjust="spacing" textLength="50.4" x="389.4" y="39.6645">&#171;application&#187;</text><text fill="#000000" font-family="FG Virgil" font-size="8.4" lengthAdjust="spacing" textLength="107.4" x="360.9" y="50.8371">OpenCloseCourseController</text><ellipse cx="416.4" cy="21" fill="#E3E3E3" rx="7.2" ry="7.2" style="stroke:#181818;stroke-width:0.3;"/><polygon fill="#181818" points="414,13.8,417.6,10.8,416.4,13.8,417.6,16.8,414,13.8" style="stroke:#181818;stroke-width:0.6;"/><text fill="#000000" font-family="FG Virgil" font-size="8.4" font-style="italic" lengthAdjust="spacing" textLength="50.4" x="389.4" y="797.1844">&#171;application&#187;</text><text fill="#000000" font-family="FG Virgil" font-size="8.4" lengthAdjust="spacing" textLength="107.4" x="360.9" y="808.357">OpenCloseCourseController</text><ellipse cx="416.4" cy="820.0652" fill="#E3E3E3" rx="7.2" ry="7.2" style="stroke:#181818;stroke-width:0.3;"/><polygon fill="#181818" points="414,812.8652,417.6,809.8652,416.4,812.8652,417.6,815.8652,414,812.8652" style="stroke:#181818;stroke-width:0.6;"/><text fill="#000000" font-family="FG Virgil" font-size="8.4" font-style="italic" lengthAdjust="spacing" textLength="47.4" x="524.1" y="39.6645">&#171;repository&#187;</text><text fill="#000000" font-family="FG Virgil" font-size="8.4" lengthAdjust="spacing" textLength="68.4" x="513.6" y="50.8371">CourseRepository</text><path d="M538.8,9 C538.8,3 549.6,3 549.6,3 C549.6,3 560.4,3 560.4,9 L560.4,24.6 C560.4,30.6 549.6,30.6 549.6,30.6 C549.6,30.6 538.8,30.6 538.8,24.6 L538.8,9 " fill="#E3E3E3" style="stroke:#181818;stroke-width:0.8999999999999999;"/><path d="M538.8,9 C538.8,15 549.6,15 549.6,15 C549.6,15 560.4,15 560.4,9 " fill="none" style="stroke:#181818;stroke-width:0.8999999999999999;"/><text fill="#000000" font-family="FG Virgil" font-size="8.4" font-style="italic" lengthAdjust="spacing" textLength="47.4" x="524.1" y="797.1844">&#171;repository&#187;</text><text fill="#000000" font-family="FG Virgil" font-size="8.4" lengthAdjust="spacing" textLength="68.4" x="513.6" y="808.357">CourseRepository</text><path d="M538.8,816.4652 C538.8,810.4652 549.6,810.4652 549.6,810.4652 C549.6,810.4652 560.4,810.4652 560.4,816.4652 L560.4,832.0652 C560.4,838.0652 549.6,838.0652 549.6,838.0652 C549.6,838.0652 538.8,838.0652 538.8,832.0652 L538.8,816.4652 " fill="#E3E3E3" style="stroke:#181818;stroke-width:0.8999999999999999;"/><path d="M538.8,816.4652 C538.8,822.4652 549.6,822.4652 549.6,822.4652 C549.6,822.4652 560.4,822.4652 560.4,816.4652 " fill="none" style="stroke:#181818;stroke-width:0.8999999999999999;"/><text fill="#000000" font-family="FG Virgil" font-size="8.4" font-style="italic" lengthAdjust="spacing" textLength="37.2" x="600.9" y="39.6645">&#171;domain&#187;</text><text fill="#000000" font-family="FG Virgil" font-size="8.4" lengthAdjust="spacing" textLength="55.8" x="591.6" y="50.8371">course:Course</text><ellipse cx="621.3" cy="21" fill="#E3E3E3" rx="7.2" ry="7.2" style="stroke:#181818;stroke-width:0.3;"/><line style="stroke:#181818;stroke-width:0.3;" x1="614.1" x2="628.5" y1="29.4" y2="29.4"/><text fill="#000000" font-family="FG Virgil" font-size="8.4" font-style="italic" lengthAdjust="spacing" textLength="37.2" x="600.9" y="797.1844">&#171;domain&#187;</text><text fill="#000000" font-family="FG Virgil" font-size="8.4" lengthAdjust="spacing" textLength="55.8" x="591.6" y="808.357">course:Course</text><ellipse cx="621.3" cy="820.0652" fill="#E3E3E3" rx="7.2" ry="7.2" style="stroke:#181818;stroke-width:0.3;"/><line style="stroke:#181818;stroke-width:0.3;" x1="614.1" x2="628.5" y1="828.4652" y2="828.4652"/><rect fill="#FFFFFF" height="705" style="stroke:#181818;stroke-width:0.6;" width="6" x="239.4" y="72.9199"/><rect fill="#FFFFFF" height="56.3238" style="stroke:#181818;stroke-width:0.6;" width="6" x="413.4" y="163.793"/><rect fill="#FFFFFF" height="18.7746" style="stroke:#181818;stroke-width:0.6;" width="6" x="413.4" y="355.9137"/><rect fill="#FFFFFF" height="37.5492" style="stroke:#181818;stroke-width:0.6;" width="6" x="413.4" y="409.2375"/><rect fill="#FFFFFF" height="56.3238" style="stroke:#181818;stroke-width:0.6;" width="6" x="413.4" y="545.6461"/><rect fill="#FFFFFF" height="37.5492" style="stroke:#181818;stroke-width:0.6;" width="6" x="413.4" y="684.443"/><rect fill="#FFFFFF" height="18.7746" style="stroke:#181818;stroke-width:0.6;" width="6" x="546.6" y="182.5676"/><rect fill="#FFFFFF" height="18.7746" style="stroke:#181818;stroke-width:0.6;" width="6" x="546.6" y="564.4207"/><polygon fill="#181818" points="232.2,70.5199,238.2,72.9199,232.2,75.3199,234.6,72.9199" style="stroke:#181818;stroke-width:0.6;"/><line style="stroke:#181818;stroke-width:0.6;" x1="48.6" x2="235.8" y1="72.9199" y2="72.9199"/><text fill="#000000" font-family="FG Virgil" font-size="7.8" font-weight="bold" lengthAdjust="spacing" textLength="4.2" x="52.8" y="69.7623">1</text><text fill="#000000" font-family="FG Virgil" font-size="7.8" lengthAdjust="spacing" textLength="103.2" x="59.4" y="69.7623">asks to change course status</text><polygon fill="#181818" points="55.2,89.2945,49.2,91.6945,55.2,94.0945,52.8,91.6945" style="stroke:#181818;stroke-width:0.6;"/><line style="stroke:#181818;stroke-width:0.6;stroke-dasharray:2.0,2.0;" x1="51.6" x2="238.8" y1="91.6945" y2="91.6945"/><text fill="#000000" font-family="FG Virgil" font-size="7.8" font-weight="bold" lengthAdjust="spacing" textLength="4.2" x="58.8" y="88.5369">2</text><text fill="#000000" font-family="FG Virgil" font-size="7.8" lengthAdjust="spacing" textLength="149.4" x="65.4" y="88.5369">asks if user want to open or close a course</text><polygon fill="#181818" points="232.2,108.0691,238.2,110.4691,232.2,112.8691,234.6,110.4691" style="stroke:#181818;stroke-width:0.6;"/><line style="stroke:#181818;stroke-width:0.6;" x1="48.6" x2="235.8" y1="110.4691" y2="110.4691"/><text fill="#000000" font-family="FG Virgil" font-size="7.8" font-weight="bold" lengthAdjust="spacing" textLength="4.2" x="52.8" y="107.3115">3</text><text fill="#000000" font-family="FG Virgil" font-size="7.8" lengthAdjust="spacing" textLength="59.4" x="59.4" y="107.3115">selects an option</text><polygon fill="#181818" points="409.2,126.8438,415.2,129.2438,409.2,131.6437,411.6,129.2438" style="stroke:#181818;stroke-width:0.6;"/><line style="stroke:#181818;stroke-width:0.6;" x1="245.4" x2="412.8" y1="129.2438" y2="129.2438"/><text fill="#000000" font-family="FG Virgil" font-size="7.8" font-weight="bold" lengthAdjust="spacing" textLength="4.2" x="249.6" y="126.0861">4</text><text fill="#000000" font-family="FG Virgil" font-size="7.8" lengthAdjust="spacing" textLength="26.4" x="256.2" y="126.0861">create()</text><path d="M6,138.2438 L42.6,138.2438 L42.6,143.8184 L36.6,149.8184 L6,149.8184 L6,138.2438 " fill="#EEEEEE" style="stroke:#000000;stroke-width:0.8999999999999999;"/><rect fill="none" height="621.5016" style="stroke:#000000;stroke-width:0.8999999999999999;" width="669" x="6" y="138.2438"/><text fill="#000000" font-family="FG Virgil" font-size="7.8" font-weight="bold" lengthAdjust="spacing" textLength="9.6" x="15" y="147.2607">alt</text><text fill="#000000" font-family="FG Virgil" font-size="6.6" font-weight="bold" lengthAdjust="spacing" textLength="59.4" x="51.6" y="146.5658">[if option == OPEN]</text><polygon fill="#181818" points="406.2,161.393,412.2,163.793,406.2,166.193,408.6,163.793" style="stroke:#181818;stroke-width:0.6;"/><line style="stroke:#181818;stroke-width:0.6;" x1="245.4" x2="409.8" y1="163.793" y2="163.793"/><text fill="#000000" font-family="FG Virgil" font-size="7.8" font-weight="bold" lengthAdjust="spacing" textLength="4.2" x="249.6" y="160.6354">5</text><text fill="#000000" font-family="FG Virgil" font-size="7.8" lengthAdjust="spacing" textLength="103.2" x="256.2" y="160.6354">findCoursesAvailableToOpen()</text><polygon fill="#181818" points="539.4,180.1676,545.4,182.5676,539.4,184.9676,541.8,182.5676" style="stroke:#181818;stroke-width:0.6;"/><line style="stroke:#181818;stroke-width:0.6;" x1="419.4" x2="543" y1="182.5676" y2="182.5676"/><text fill="#000000" font-family="FG Virgil" font-size="7.8" font-weight="bold" lengthAdjust="spacing" textLength="4.2" x="423.6" y="179.41">6</text><text fill="#000000" font-family="FG Virgil" font-size="7.8" lengthAdjust="spacing" textLength="103.2" x="430.2" y="179.41">findCoursesAvailableToOpen()</text><polygon fill="#181818" points="426,198.9422,420,201.3422,426,203.7422,423.6,201.3422" style="stroke:#181818;stroke-width:0.6;"/><line style="stroke:#181818;stroke-width:0.6;stroke-dasharray:2.0,2.0;" x1="422.4" x2="549" y1="201.3422" y2="201.3422"/><text fill="#000000" font-family="FG Virgil" font-size="7.8" font-weight="bold" lengthAdjust="spacing" textLength="4.2" x="429.6" y="198.1846">7</text><text fill="#000000" font-family="FG Virgil" font-size="7.8" lengthAdjust="spacing" textLength="100.2" x="436.2" y="198.1846">list courses available to open</text><polygon fill="#181818" points="252,217.7168,246,220.1168,252,222.5168,249.6,220.1168" style="stroke:#181818;stroke-width:0.6;"/><line style="stroke:#181818;stroke-width:0.6;stroke-dasharray:2.0,2.0;" x1="248.4" x2="415.8" y1="220.1168" y2="220.1168"/><text fill="#000000" font-family="FG Virgil" font-size="7.8" font-weight="bold" lengthAdjust="spacing" textLength="4.2" x="255.6" y="216.9592">8</text><text fill="#000000" font-family="FG Virgil" font-size="7.8" lengthAdjust="spacing" textLength="100.2" x="262.2" y="216.9592">list courses available to open</text><path d="M12,229.1168 L48.6,229.1168 L48.6,234.6914 L42.6,240.6914 L12,240.6914 L12,229.1168 " fill="#EEEEEE" style="stroke:#000000;stroke-width:0.8999999999999999;"/><rect fill="none" height="288.3762" style="stroke:#000000;stroke-width:0.8999999999999999;" width="657" x="12" y="229.1168"/><text fill="#000000" font-family="FG Virgil" font-size="7.8" font-weight="bold" lengthAdjust="spacing" textLength="9.6" x="21" y="238.1338">alt</text><text fill="#000000" font-family="FG Virgil" font-size="6.6" font-weight="bold" lengthAdjust="spacing" textLength="89.4" x="57.6" y="237.4389">[if course list is not empty]</text><polygon fill="#181818" points="55.2,262.6406,49.2,265.0406,55.2,267.4406,52.8,265.0406" style="stroke:#181818;stroke-width:0.6;"/><line style="stroke:#181818;stroke-width:0.6;stroke-dasharray:2.0,2.0;" x1="51.6" x2="238.8" y1="265.0406" y2="265.0406"/><text fill="#000000" font-family="FG Virgil" font-size="7.8" font-weight="bold" lengthAdjust="spacing" textLength="4.2" x="58.8" y="256.6957">9</text><text fill="#000000" font-family="FG Virgil" font-size="7.8" lengthAdjust="spacing" textLength="124.2" x="65.4" y="251.5084">output courses available to open list</text><text fill="#000000" font-family="FG Virgil" font-size="7.8" lengthAdjust="spacing" textLength="81.6" x="65.4" y="261.883">asks to select a course</text><polygon fill="#181818" points="232.2,281.4152,238.2,283.8152,232.2,286.2152,234.6,283.8152" style="stroke:#181818;stroke-width:0.6;"/><line style="stroke:#181818;stroke-width:0.6;" x1="48.6" x2="235.8" y1="283.8152" y2="283.8152"/><text fill="#000000" font-family="FG Virgil" font-size="7.8" font-weight="bold" lengthAdjust="spacing" textLength="8.4" x="52.8" y="280.6576">10</text><text fill="#000000" font-family="FG Virgil" font-size="7.8" lengthAdjust="spacing" textLength="57.6" x="63.6" y="280.6576">selects a course</text><polygon fill="#181818" points="55.2,300.1898,49.2,302.5898,55.2,304.9898,52.8,302.5898" style="stroke:#181818;stroke-width:0.6;"/><line style="stroke:#181818;stroke-width:0.6;stroke-dasharray:2.0,2.0;" x1="51.6" x2="238.8" y1="302.5898" y2="302.5898"/><text fill="#000000" font-family="FG Virgil" font-size="7.8" font-weight="bold" lengthAdjust="spacing" textLength="8.4" x="58.8" y="299.4322">11</text><text fill="#000000" font-family="FG Virgil" font-size="7.8" lengthAdjust="spacing" textLength="72" x="69.6" y="299.4322">asks for closing date</text><path d="M18,311.5898 L54.6,311.5898 L54.6,317.1645 L48.6,323.1645 L18,323.1645 L18,311.5898 " fill="#EEEEEE" style="stroke:#000000;stroke-width:0.8999999999999999;"/><rect fill="none" height="172.95" style="stroke:#000000;stroke-width:0.8999999999999999;" width="645" x="18" y="311.5898"/><text fill="#000000" font-family="FG Virgil" font-size="7.8" font-weight="bold" lengthAdjust="spacing" textLength="9.6" x="27" y="320.6068">alt</text><text fill="#000000" font-family="FG Virgil" font-size="6.6" font-weight="bold" lengthAdjust="spacing" textLength="76.2" x="63.6" y="319.9119">[while date is not valid]</text><polygon fill="#181818" points="232.2,334.7391,238.2,337.1391,232.2,339.5391,234.6,337.1391" style="stroke:#181818;stroke-width:0.6;"/><line style="stroke:#181818;stroke-width:0.6;" x1="48.6" x2="235.8" y1="337.1391" y2="337.1391"/><text fill="#000000" font-family="FG Virgil" font-size="7.8" font-weight="bold" lengthAdjust="spacing" textLength="8.4" x="52.8" y="333.9814">12</text><text fill="#000000" font-family="FG Virgil" font-size="7.8" lengthAdjust="spacing" textLength="67.8" x="63.6" y="333.9814">inserts closing date</text><polygon fill="#181818" points="406.2,353.5137,412.2,355.9137,406.2,358.3137,408.6,355.9137" style="stroke:#181818;stroke-width:0.6;"/><line style="stroke:#181818;stroke-width:0.6;" x1="245.4" x2="409.8" y1="355.9137" y2="355.9137"/><text fill="#000000" font-family="FG Virgil" font-size="7.8" font-weight="bold" lengthAdjust="spacing" textLength="8.4" x="249.6" y="352.7561">13</text><text fill="#000000" font-family="FG Virgil" font-size="7.8" lengthAdjust="spacing" textLength="81.6" x="260.4" y="352.7561">validateDate(closeDate)</text><polygon fill="#181818" points="252,372.2883,246,374.6883,252,377.0883,249.6,374.6883" style="stroke:#181818;stroke-width:0.6;"/><line style="stroke:#181818;stroke-width:0.6;stroke-dasharray:2.0,2.0;" x1="248.4" x2="415.8" y1="374.6883" y2="374.6883"/><text fill="#000000" font-family="FG Virgil" font-size="7.8" font-weight="bold" lengthAdjust="spacing" textLength="8.4" x="255.6" y="371.5307">14</text><text fill="#000000" font-family="FG Virgil" font-size="7.8" lengthAdjust="spacing" textLength="78.6" x="266.4" y="371.5307">date validation boolean</text><path d="M24,383.6883 L60.6,383.6883 L60.6,389.2629 L54.6,395.2629 L24,395.2629 L24,383.6883 " fill="#EEEEEE" style="stroke:#000000;stroke-width:0.8999999999999999;"/><rect fill="none" height="96.6516" style="stroke:#000000;stroke-width:0.8999999999999999;" width="633" x="24" y="383.6883"/><text fill="#000000" font-family="FG Virgil" font-size="7.8" font-weight="bold" lengthAdjust="spacing" textLength="9.6" x="33" y="392.7053">alt</text><text fill="#000000" font-family="FG Virgil" font-size="6.6" font-weight="bold" lengthAdjust="spacing" textLength="49.8" x="69.6" y="392.0104">[if date is valid]</text><polygon fill="#181818" points="406.2,406.8375,412.2,409.2375,406.2,411.6375,408.6,409.2375" style="stroke:#181818;stroke-width:0.6;"/><line style="stroke:#181818;stroke-width:0.6;" x1="245.4" x2="409.8" y1="409.2375" y2="409.2375"/><text fill="#000000" font-family="FG Virgil" font-size="7.8" font-weight="bold" lengthAdjust="spacing" textLength="8.4" x="249.6" y="406.0799">15</text><text fill="#000000" font-family="FG Virgil" font-size="7.8" lengthAdjust="spacing" textLength="145.8" x="260.4" y="406.0799">openCourse(selectedCourse, closingDate)</text><polygon fill="#181818" points="614.1,425.6121,620.1,428.0121,614.1,430.4121,616.5,428.0121" style="stroke:#181818;stroke-width:0.6;"/><line style="stroke:#181818;stroke-width:0.6;" x1="419.4" x2="617.7" y1="428.0121" y2="428.0121"/><text fill="#000000" font-family="FG Virgil" font-size="7.8" font-weight="bold" lengthAdjust="spacing" textLength="8.4" x="423.6" y="424.8545">16</text><text fill="#000000" font-family="FG Virgil" font-size="7.8" lengthAdjust="spacing" textLength="87" x="434.4" y="424.8545">openCourse(closingDate)</text><polygon fill="#181818" points="542.4,444.3867,548.4,446.7867,542.4,449.1867,544.8,446.7867" style="stroke:#181818;stroke-width:0.6;"/><line style="stroke:#181818;stroke-width:0.6;" x1="416.4" x2="546" y1="446.7867" y2="446.7867"/><text fill="#000000" font-family="FG Virgil" font-size="7.8" font-weight="bold" lengthAdjust="spacing" textLength="8.4" x="420.6" y="443.6291">17</text><text fill="#000000" font-family="FG Virgil" font-size="7.8" lengthAdjust="spacing" textLength="68.4" x="431.4" y="443.6291">saveCourse(course)</text><line style="stroke:#000000;stroke-width:0.6;stroke-dasharray:2.0,2.0;" x1="24" x2="657" y1="452.1867" y2="452.1867"/><text fill="#000000" font-family="FG Virgil" font-size="6.6" font-weight="bold" lengthAdjust="spacing" textLength="62.4" x="27" y="459.3088">[if date is not valid]</text><polygon fill="#181818" points="55.2,473.1398,49.2,475.5398,55.2,477.9398,52.8,475.5398" style="stroke:#181818;stroke-width:0.6;"/><line style="stroke:#181818;stroke-width:0.6;stroke-dasharray:2.0,2.0;" x1="51.6" x2="238.8" y1="475.5398" y2="475.5398"/><text fill="#000000" font-family="FG Virgil" font-size="7.8" font-weight="bold" lengthAdjust="spacing" textLength="8.4" x="58.8" y="472.3822">18</text><text fill="#000000" font-family="FG Virgil" font-size="7.8" lengthAdjust="spacing" textLength="94.8" x="69.6" y="472.3822">informs about date not valid</text><line style="stroke:#000000;stroke-width:0.6;stroke-dasharray:2.0,2.0;" x1="12" x2="669" y1="489.3398" y2="489.3398"/><text fill="#000000" font-family="FG Virgil" font-size="6.6" font-weight="bold" lengthAdjust="spacing" textLength="76.8" x="15" y="496.4619">[if course list is empty]</text><polygon fill="#181818" points="55.2,510.293,49.2,512.693,55.2,515.093,52.8,512.693" style="stroke:#181818;stroke-width:0.6;"/><line style="stroke:#181818;stroke-width:0.6;stroke-dasharray:2.0,2.0;" x1="51.6" x2="238.8" y1="512.693" y2="512.693"/><text fill="#000000" font-family="FG Virgil" font-size="7.8" font-weight="bold" lengthAdjust="spacing" textLength="8.4" x="58.8" y="509.5354">19</text><text fill="#000000" font-family="FG Virgil" font-size="7.8" lengthAdjust="spacing" textLength="165.6" x="69.6" y="509.5354">inform there are no courses available to be open</text><line style="stroke:#000000;stroke-width:0.6;stroke-dasharray:2.0,2.0;" x1="6" x2="675" y1="522.293" y2="522.293"/><text fill="#000000" font-family="FG Virgil" font-size="6.6" font-weight="bold" lengthAdjust="spacing" textLength="64.2" x="9" y="529.415">[if option == CLOSE]</text><polygon fill="#181818" points="406.2,543.2461,412.2,545.6461,406.2,548.0461,408.6,545.6461" style="stroke:#181818;stroke-width:0.6;"/><line style="stroke:#181818;stroke-width:0.6;" x1="245.4" x2="409.8" y1="545.6461" y2="545.6461"/><text fill="#000000" font-family="FG Virgil" font-size="7.8" font-weight="bold" lengthAdjust="spacing" textLength="8.4" x="249.6" y="542.4885">20</text><text fill="#000000" font-family="FG Virgil" font-size="7.8" lengthAdjust="spacing" textLength="104.4" x="260.4" y="542.4885">findCoursesAvailableToClose()</text><polygon fill="#181818" points="539.4,562.0207,545.4,564.4207,539.4,566.8207,541.8,564.4207" style="stroke:#181818;stroke-width:0.6;"/><line style="stroke:#181818;stroke-width:0.6;" x1="419.4" x2="543" y1="564.4207" y2="564.4207"/><text fill="#000000" font-family="FG Virgil" font-size="7.8" font-weight="bold" lengthAdjust="spacing" textLength="8.4" x="423.6" y="561.2631">21</text><text fill="#000000" font-family="FG Virgil" font-size="7.8" lengthAdjust="spacing" textLength="104.4" x="434.4" y="561.2631">findCoursesAvailableToClose()</text><polygon fill="#181818" points="426,580.7953,420,583.1953,426,585.5953,423.6,583.1953" style="stroke:#181818;stroke-width:0.6;"/><line style="stroke:#181818;stroke-width:0.6;stroke-dasharray:2.0,2.0;" x1="422.4" x2="549" y1="583.1953" y2="583.1953"/><text fill="#000000" font-family="FG Virgil" font-size="7.8" font-weight="bold" lengthAdjust="spacing" textLength="8.4" x="429.6" y="580.0377">22</text><text fill="#000000" font-family="FG Virgil" font-size="7.8" lengthAdjust="spacing" textLength="102" x="440.4" y="580.0377">list courses available to close</text><polygon fill="#181818" points="252,599.5699,246,601.9699,252,604.3699,249.6,601.9699" style="stroke:#181818;stroke-width:0.6;"/><line style="stroke:#181818;stroke-width:0.6;stroke-dasharray:2.0,2.0;" x1="248.4" x2="415.8" y1="601.9699" y2="601.9699"/><text fill="#000000" font-family="FG Virgil" font-size="7.8" font-weight="bold" lengthAdjust="spacing" textLength="8.4" x="255.6" y="598.8123">23</text><text fill="#000000" font-family="FG Virgil" font-size="7.8" lengthAdjust="spacing" textLength="102" x="266.4" y="598.8123">list courses available to close</text><path d="M24,610.9699 L60.6,610.9699 L60.6,616.5445 L54.6,622.5445 L24,622.5445 L24,610.9699 " fill="#EEEEEE" style="stroke:#000000;stroke-width:0.8999999999999999;"/><rect fill="none" height="144.5754" style="stroke:#000000;stroke-width:0.8999999999999999;" width="633" x="24" y="610.9699"/><text fill="#000000" font-family="FG Virgil" font-size="7.8" font-weight="bold" lengthAdjust="spacing" textLength="9.6" x="33" y="619.9869">alt</text><text fill="#000000" font-family="FG Virgil" font-size="6.6" font-weight="bold" lengthAdjust="spacing" textLength="89.4" x="69.6" y="619.292">[if course list is not empty]</text><polygon fill="#181818" points="55.2,644.4938,49.2,646.8938,55.2,649.2937,52.8,646.8938" style="stroke:#181818;stroke-width:0.6;"/><line style="stroke:#181818;stroke-width:0.6;stroke-dasharray:2.0,2.0;" x1="51.6" x2="238.8" y1="646.8938" y2="646.8938"/><text fill="#000000" font-family="FG Virgil" font-size="7.8" font-weight="bold" lengthAdjust="spacing" textLength="8.4" x="58.8" y="638.5488">24</text><text fill="#000000" font-family="FG Virgil" font-size="7.8" lengthAdjust="spacing" textLength="126" x="69.6" y="633.3615">output courses available to close list</text><text fill="#000000" font-family="FG Virgil" font-size="7.8" lengthAdjust="spacing" textLength="81.6" x="69.6" y="643.7361">asks to select a course</text><polygon fill="#181818" points="232.2,663.2684,238.2,665.6684,232.2,668.0684,234.6,665.6684" style="stroke:#181818;stroke-width:0.6;"/><line style="stroke:#181818;stroke-width:0.6;" x1="48.6" x2="235.8" y1="665.6684" y2="665.6684"/><text fill="#000000" font-family="FG Virgil" font-size="7.8" font-weight="bold" lengthAdjust="spacing" textLength="8.4" x="52.8" y="662.5107">25</text><text fill="#000000" font-family="FG Virgil" font-size="7.8" lengthAdjust="spacing" textLength="57.6" x="63.6" y="662.5107">selects a course</text><polygon fill="#181818" points="406.2,682.043,412.2,684.443,406.2,686.843,408.6,684.443" style="stroke:#181818;stroke-width:0.6;"/><line style="stroke:#181818;stroke-width:0.6;" x1="245.4" x2="409.8" y1="684.443" y2="684.443"/><text fill="#000000" font-family="FG Virgil" font-size="7.8" font-weight="bold" lengthAdjust="spacing" textLength="8.4" x="249.6" y="681.2854">26</text><text fill="#000000" font-family="FG Virgil" font-size="7.8" lengthAdjust="spacing" textLength="102" x="260.4" y="681.2854">closeCourse(selectedCourse)</text><polygon fill="#181818" points="614.1,700.8176,620.1,703.2176,614.1,705.6176,616.5,703.2176" style="stroke:#181818;stroke-width:0.6;"/><line style="stroke:#181818;stroke-width:0.6;" x1="419.4" x2="617.7" y1="703.2176" y2="703.2176"/><text fill="#000000" font-family="FG Virgil" font-size="7.8" font-weight="bold" lengthAdjust="spacing" textLength="8.4" x="423.6" y="700.06">27</text><text fill="#000000" font-family="FG Virgil" font-size="7.8" lengthAdjust="spacing" textLength="48" x="434.4" y="700.06">closeCourse()</text><polygon fill="#181818" points="542.4,719.5922,548.4,721.9922,542.4,724.3922,544.8,721.9922" style="stroke:#181818;stroke-width:0.6;"/><line style="stroke:#181818;stroke-width:0.6;" x1="416.4" x2="546" y1="721.9922" y2="721.9922"/><text fill="#000000" font-family="FG Virgil" font-size="7.8" font-weight="bold" lengthAdjust="spacing" textLength="8.4" x="420.6" y="718.8346">28</text><text fill="#000000" font-family="FG Virgil" font-size="7.8" lengthAdjust="spacing" textLength="68.4" x="431.4" y="718.8346">saveCourse(course)</text><line style="stroke:#000000;stroke-width:0.6;stroke-dasharray:2.0,2.0;" x1="24" x2="657" y1="727.3922" y2="727.3922"/><text fill="#000000" font-family="FG Virgil" font-size="6.6" font-weight="bold" lengthAdjust="spacing" textLength="76.8" x="27" y="734.5143">[if course list is empty]</text><polygon fill="#181818" points="55.2,748.3453,49.2,750.7453,55.2,753.1453,52.8,750.7453" style="stroke:#181818;stroke-width:0.6;"/><line style="stroke:#181818;stroke-width:0.6;stroke-dasharray:2.0,2.0;" x1="51.6" x2="238.8" y1="750.7453" y2="750.7453"/><text fill="#000000" font-family="FG Virgil" font-size="7.8" font-weight="bold" lengthAdjust="spacing" textLength="8.4" x="58.8" y="747.5877">29</text><text fill="#000000" font-family="FG Virgil" font-size="7.8" lengthAdjust="spacing" textLength="165.6" x="69.6" y="747.5877">inform there are no courses available to be open</text><polygon fill="#181818" points="55.2,775.5199,49.2,777.9199,55.2,780.3199,52.8,777.9199" style="stroke:#181818;stroke-width:0.6;"/><line style="stroke:#181818;stroke-width:0.6;stroke-dasharray:2.0,2.0;" x1="51.6" x2="241.8" y1="777.9199" y2="777.9199"/><text fill="#000000" font-family="FG Virgil" font-size="7.8" font-weight="bold" lengthAdjust="spacing" textLength="8.4" x="58.8" y="774.7623">30</text><text fill="#000000" font-family="FG Virgil" font-size="7.8" lengthAdjust="spacing" textLength="47.4" x="69.6" y="774.7623">back to menu</text><!--SRC=[nLTTJzim57tFhxZYPI0DUAzA9LHWchJ1DBOzxUKckMqi73kodIB-_Qxjf4tIfYqIi3oqJUnppltqJJyLpbMJoyjAed9rAIyoNLxQ9w4gD5XU5AwKoVeMIgrqLXXT4ZXJKsUbmkm9b_JeNYI1eSnrrd9QO2tTdLRk7XbwzmN-2BCKNMPROAwVXLh20gMb16kdLLscP984CwSDV4V50WRGmhL_a33GYKnKR3WyLAJcKbkQwzfO-ltLR-FFwRGoP4avT4AhsIp9s0YZ9GmHy_XSHe7EtNIALIL5rXBaw315In1nFwdILh0vBn4tU3QTclKDWzaGuLxW90lx9d7xoGPveqiKYb5v-C689FWAvpFsPi8Rdomu3Lc1QaaGQS2oTxKDSH8hTCHR4-2B_JzdO61ei681jMMlddtGc4Xp583vCny9m8One7l2bYJdr0Boxif7OYqmwmPh0faXjk3qBAoZT5un8k3g2Xv-tDw7bH7qGgWyHi9Uhr18J2NzqZvL3MDWRTtSGDTh_kem1lv1IevK6IZrINgxekP0vNpecXJMDU7bCBQoRGvwX3aT9znrDEJfU9cUn5OKcxmrvHKeXGMb7L1PkRuHtI9ZVLsxgjvZGM3xgzf2ZdNLBxpswXGWT2fmrzQ14O5zqPIrFrEuQVi0x-5p8TWklzHwjq8fygtSzkqGYlk7xHYb7YdjmCrxRtnxX7Rplywse8UgUr_oWo-DaE-uL6j9gBRmc-nloyVKjr7P7P4H5tr-Oy6UncnHqsQVssZjTlarReyrU7DozemuA7hKQM5nHIrX-DhDjR-ZsejujdNZErvrEyfQAAxfabiWvIwB5EDuKlrdtVlMYa637spkQ02uWWmF2-FbTtTwIltZfXLlXJSJOVxjuV7szICXJExtdmb3cOyR2k64-82fqDVvBsCXldkysrmOlg1itla6fzHecaUxUUz1r1KwIzxws3byt1pTv6_PwBrcv-za1tdAVnKyjYHL9nq_-Atr7m00]--></g></svg>