<?xml version="1.0" encoding="us-ascii" standalone="no"?><svg xmlns="http://www.w3.org/2000/svg" xmlns:xlink="http://www.w3.org/1999/xlink" contentStyleType="text/css" height="1345px" preserveAspectRatio="none" style="width:1322px;height:1345px;background:#FFFFFF;" version="1.1" viewBox="0 0 1322 1345" width="1322px" zoomAndPan="magnify"><defs/><g><!--class ScheduleClassUI--><g id="elem_ScheduleClassUI"><rect codeLine="2" fill="#F1F1F1" height="141.8438" id="ScheduleClassUI" rx="2.5" ry="2.5" style="stroke:#181818;stroke-width:0.5;" width="291" x="731.5" y="7"/><ellipse cx="819.75" cy="23" fill="#ADD1B2" rx="11" ry="11" style="stroke:#181818;stroke-width:1.0;"/><path d="M822.5156,18.875 Q822.6719,18.6563 822.8594,18.5469 Q823.0469,18.4375 823.2656,18.4375 Q823.6406,18.4375 823.875,18.7031 Q824.1094,18.9531 824.1094,19.5625 L824.1094,21.0156 Q824.1094,21.625 823.875,21.8906 Q823.6406,22.1563 823.2656,22.1563 Q822.9219,22.1563 822.7188,21.9531 Q822.5156,21.7656 822.4063,21.25 Q822.3594,20.8906 822.1719,20.7031 Q821.8438,20.3281 821.2344,20.1094 Q820.625,19.8906 820,19.8906 Q819.2344,19.8906 818.5938,20.2188 Q817.9688,20.5469 817.4688,21.2969 Q816.9844,22.0469 816.9844,23.0781 L816.9844,24.1719 Q816.9844,25.4063 817.875,26.2344 Q818.7656,27.0469 820.3594,27.0469 Q821.2969,27.0469 821.9531,26.7969 Q822.3438,26.6406 822.7656,26.2031 Q823.0313,25.9375 823.1719,25.8594 Q823.3281,25.7813 823.5313,25.7813 Q823.8594,25.7813 824.1094,26.0469 Q824.375,26.2969 824.375,26.6406 Q824.375,26.9844 824.0313,27.3906 Q823.5313,27.9688 822.7344,28.2969 Q821.6563,28.75 820.3594,28.75 Q818.8438,28.75 817.6406,28.125 Q816.6563,27.625 815.9688,26.5625 Q815.2813,25.4844 815.2813,24.2031 L815.2813,23.0469 Q815.2813,21.7188 815.8906,20.5781 Q816.5156,19.4219 817.6094,18.8125 Q818.7031,18.1875 819.9375,18.1875 Q820.6719,18.1875 821.3125,18.3594 Q821.9688,18.5156 822.5156,18.875 Z " fill="#000000"/><text fill="#000000" font-family="sans-serif" font-size="14" lengthAdjust="spacing" textLength="106" x="840.25" y="27.8535">ScheduleClassUI</text><line style="stroke:#181818;stroke-width:0.5;" x1="732.5" x2="1021.5" y1="39" y2="39"/><text fill="#000000" font-family="sans-serif" font-size="14" lengthAdjust="spacing" textLength="163" x="737.5" y="55.6738">userWeekdayInput: String</text><line style="stroke:#181818;stroke-width:0.5;" x1="732.5" x2="1021.5" y1="62.6406" y2="62.6406"/><ellipse cx="742.5" cy="75.9609" fill="#84BE84" rx="3" ry="3" style="stroke:#038048;stroke-width:1.0;"/><text fill="#000000" font-family="sans-serif" font-size="14" lengthAdjust="spacing" textLength="120" x="751.5" y="79.3145">ScheduleClassUI():</text><polygon fill="#FFFF44" points="742.5,86.6016,746.5,90.6016,742.5,94.6016,738.5,90.6016" style="stroke:#B38D22;stroke-width:1.0;"/><text fill="#000000" font-family="sans-serif" font-size="14" lengthAdjust="spacing" textLength="119" x="751.5" y="94.9551">doShow(): boolean</text><ellipse cx="742.5" cy="107.2422" fill="#84BE84" rx="3" ry="3" style="stroke:#038048;stroke-width:1.0;"/><text fill="#000000" font-family="sans-serif" font-size="14" lengthAdjust="spacing" textLength="109" x="751.5" y="110.5957">headline(): String</text><rect fill="#F24D5C" height="6" style="stroke:#C82930;stroke-width:1.0;" width="6" x="739.5" y="119.8828"/><text fill="#000000" font-family="sans-serif" font-size="14" lengthAdjust="spacing" textLength="180" x="751.5" y="126.2363">readTime(String): LocalTime</text><rect fill="#F24D5C" height="6" style="stroke:#C82930;stroke-width:1.0;" width="6" x="739.5" y="135.5234"/><text fill="#000000" font-family="sans-serif" font-size="14" lengthAdjust="spacing" textLength="265" x="751.5" y="141.877">chooseCourse(Iterable&lt;Course&gt;): Course</text></g><!--class CheckIfUserIsFreeService--><g id="elem_CheckIfUserIsFreeService"><rect codeLine="73" fill="#F1F1F1" height="133.25" id="CheckIfUserIsFreeService" rx="2.5" ry="2.5" style="stroke:#181818;stroke-width:0.5;" width="782" x="7" y="552"/><ellipse cx="312.25" cy="571.5234" fill="#ADD1B2" rx="11" ry="11" style="stroke:#181818;stroke-width:1.0;"/><path d="M315.0156,567.3984 Q315.1719,567.1797 315.3594,567.0703 Q315.5469,566.9609 315.7656,566.9609 Q316.1406,566.9609 316.375,567.2266 Q316.6094,567.4766 316.6094,568.0859 L316.6094,569.5391 Q316.6094,570.1484 316.375,570.4141 Q316.1406,570.6797 315.7656,570.6797 Q315.4219,570.6797 315.2188,570.4766 Q315.0156,570.2891 314.9063,569.7734 Q314.8594,569.4141 314.6719,569.2266 Q314.3438,568.8516 313.7344,568.6328 Q313.125,568.4141 312.5,568.4141 Q311.7344,568.4141 311.0938,568.7422 Q310.4688,569.0703 309.9688,569.8203 Q309.4844,570.5703 309.4844,571.6016 L309.4844,572.6953 Q309.4844,573.9297 310.375,574.7578 Q311.2656,575.5703 312.8594,575.5703 Q313.7969,575.5703 314.4531,575.3203 Q314.8438,575.1641 315.2656,574.7266 Q315.5313,574.4609 315.6719,574.3828 Q315.8281,574.3047 316.0313,574.3047 Q316.3594,574.3047 316.6094,574.5703 Q316.875,574.8203 316.875,575.1641 Q316.875,575.5078 316.5313,575.9141 Q316.0313,576.4922 315.2344,576.8203 Q314.1563,577.2734 312.8594,577.2734 Q311.3438,577.2734 310.1406,576.6484 Q309.1563,576.1484 308.4688,575.0859 Q307.7813,574.0078 307.7813,572.7266 L307.7813,571.5703 Q307.7813,570.2422 308.3906,569.1016 Q309.0156,567.9453 310.1094,567.3359 Q311.2031,566.7109 312.4375,566.7109 Q313.1719,566.7109 313.8125,566.8828 Q314.4688,567.0391 315.0156,567.3984 Z " fill="#000000"/><text fill="#000000" font-family="sans-serif" font-size="12" font-style="italic" lengthAdjust="spacing" textLength="55" x="386.75" y="567.8633">&#171;Service&#187;</text><text fill="#000000" font-family="sans-serif" font-size="14" lengthAdjust="spacing" textLength="163" x="332.75" y="583.0801">CheckIfUserIsFreeService</text><line style="stroke:#181818;stroke-width:0.5;" x1="8" x2="788" y1="591.0469" y2="591.0469"/><line style="stroke:#181818;stroke-width:0.5;" x1="8" x2="788" y1="599.0469" y2="599.0469"/><ellipse cx="18" cy="612.3672" fill="#84BE84" rx="3" ry="3" style="stroke:#038048;stroke-width:1.0;"/><text fill="#000000" font-family="sans-serif" font-size="14" lengthAdjust="spacing" textLength="250" x="27" y="615.7207">checkIfUserIsFree(user, date) : boolean</text><ellipse cx="18" cy="628.0078" fill="#84BE84" rx="3" ry="3" style="stroke:#038048;stroke-width:1.0;"/><text fill="#000000" font-family="sans-serif" font-size="14" lengthAdjust="spacing" textLength="177" x="27" y="631.3613">CheckIfUserIsFreeService():</text><rect fill="#F24D5C" height="6" style="stroke:#C82930;stroke-width:1.0;" width="6" x="15" y="640.6484"/><text fill="#000000" font-family="sans-serif" font-size="14" lengthAdjust="spacing" textLength="756" x="27" y="647.002">checkIfDatesCoincide(Date, LocalTime, LocalTime, List&lt;CourseClass&gt;, List&lt;Meeting&gt;, List&lt;MeetingInvitation&gt;): boolean</text><rect fill="#F24D5C" height="6" style="stroke:#C82930;stroke-width:1.0;" width="6" x="15" y="656.2891"/><text fill="#000000" font-family="sans-serif" font-size="14" lengthAdjust="spacing" textLength="444" x="27" y="662.6426">isTimeOverlap(LocalTime, LocalTime, LocalTime, LocalTime): boolean</text><ellipse cx="18" cy="674.9297" fill="#84BE84" rx="3" ry="3" style="stroke:#038048;stroke-width:1.0;"/><text fill="#000000" font-family="sans-serif" font-size="14" lengthAdjust="spacing" textLength="462" x="27" y="678.2832">checkIfUserIsNotFree(SystemUser, Date, LocalTime, LocalTime): boolean</text></g><!--class CourseClass--><g id="elem_CourseClass"><rect codeLine="17" fill="#F1F1F1" height="329.5313" id="CourseClass" rx="2.5" ry="2.5" style="stroke:#181818;stroke-width:0.5;" width="360" x="733" y="1009"/><ellipse cx="868.25" cy="1025" fill="#ADD1B2" rx="11" ry="11" style="stroke:#181818;stroke-width:1.0;"/><path d="M871.0156,1020.875 Q871.1719,1020.6563 871.3594,1020.5469 Q871.5469,1020.4375 871.7656,1020.4375 Q872.1406,1020.4375 872.375,1020.7031 Q872.6094,1020.9531 872.6094,1021.5625 L872.6094,1023.0156 Q872.6094,1023.625 872.375,1023.8906 Q872.1406,1024.1563 871.7656,1024.1563 Q871.4219,1024.1563 871.2188,1023.9531 Q871.0156,1023.7656 870.9063,1023.25 Q870.8594,1022.8906 870.6719,1022.7031 Q870.3438,1022.3281 869.7344,1022.1094 Q869.125,1021.8906 868.5,1021.8906 Q867.7344,1021.8906 867.0938,1022.2188 Q866.4688,1022.5469 865.9688,1023.2969 Q865.4844,1024.0469 865.4844,1025.0781 L865.4844,1026.1719 Q865.4844,1027.4063 866.375,1028.2344 Q867.2656,1029.0469 868.8594,1029.0469 Q869.7969,1029.0469 870.4531,1028.7969 Q870.8438,1028.6406 871.2656,1028.2031 Q871.5313,1027.9375 871.6719,1027.8594 Q871.8281,1027.7813 872.0313,1027.7813 Q872.3594,1027.7813 872.6094,1028.0469 Q872.875,1028.2969 872.875,1028.6406 Q872.875,1028.9844 872.5313,1029.3906 Q872.0313,1029.9688 871.2344,1030.2969 Q870.1563,1030.75 868.8594,1030.75 Q867.3438,1030.75 866.1406,1030.125 Q865.1563,1029.625 864.4688,1028.5625 Q863.7813,1027.4844 863.7813,1026.2031 L863.7813,1025.0469 Q863.7813,1023.7188 864.3906,1022.5781 Q865.0156,1021.4219 866.1094,1020.8125 Q867.2031,1020.1875 868.4375,1020.1875 Q869.1719,1020.1875 869.8125,1020.3594 Q870.4688,1020.5156 871.0156,1020.875 Z " fill="#000000"/><text fill="#000000" font-family="sans-serif" font-size="14" lengthAdjust="spacing" textLength="81" x="888.75" y="1029.8535">CourseClass</text><line style="stroke:#181818;stroke-width:0.5;" x1="734" x2="1092" y1="1041" y2="1041"/><rect fill="none" height="6" style="stroke:#C82930;stroke-width:1.0;" width="6" x="741" y="1051.3203"/><text fill="#000000" font-family="sans-serif" font-size="14" lengthAdjust="spacing" textLength="104" x="753" y="1057.6738">classTitle: String</text><rect fill="none" height="6" style="stroke:#C82930;stroke-width:1.0;" width="6" x="741" y="1066.9609"/><text fill="#000000" font-family="sans-serif" font-size="14" lengthAdjust="spacing" textLength="97" x="753" y="1073.3145">course: Course</text><rect fill="none" height="6" style="stroke:#C82930;stroke-width:1.0;" width="6" x="741" y="1082.6016"/><text fill="#000000" font-family="sans-serif" font-size="14" lengthAdjust="spacing" textLength="162" x="753" y="1088.9551">dateOfCourseClass: Date</text><rect fill="none" height="6" style="stroke:#C82930;stroke-width:1.0;" width="6" x="741" y="1098.2422"/><text fill="#000000" font-family="sans-serif" font-size="14" lengthAdjust="spacing" textLength="128" x="753" y="1104.5957">endTime: LocalTime</text><rect fill="none" height="6" style="stroke:#C82930;stroke-width:1.0;" width="6" x="741" y="1113.8828"/><text fill="#000000" font-family="sans-serif" font-size="14" lengthAdjust="spacing" textLength="51" x="753" y="1120.2363">id: Long</text><rect fill="none" height="6" style="stroke:#C82930;stroke-width:1.0;" width="6" x="741" y="1129.5234"/><text fill="#000000" font-family="sans-serif" font-size="14" lengthAdjust="spacing" textLength="132" x="753" y="1135.877">startTime: LocalTime</text><rect fill="none" height="6" style="stroke:#C82930;stroke-width:1.0;" width="6" x="741" y="1145.1641"/><text fill="#000000" font-family="sans-serif" font-size="14" lengthAdjust="spacing" textLength="178" x="753" y="1151.5176">students: List&amp;lt;Student&amp;gt;</text><rect fill="none" height="6" style="stroke:#C82930;stroke-width:1.0;" width="6" x="741" y="1160.8047"/><text fill="#000000" font-family="sans-serif" font-size="14" lengthAdjust="spacing" textLength="109" x="753" y="1167.1582">teacher: Teacher</text><rect fill="none" height="6" style="stroke:#C82930;stroke-width:1.0;" width="6" x="741" y="1176.4453"/><text fill="#000000" font-family="sans-serif" font-size="14" lengthAdjust="spacing" textLength="86" x="753" y="1182.7988">version: Long</text><rect fill="none" height="6" style="stroke:#C82930;stroke-width:1.0;" width="6" x="741" y="1192.0859"/><text fill="#000000" font-family="sans-serif" font-size="14" lengthAdjust="spacing" textLength="102" x="753" y="1198.4395">weekDay: String</text><line style="stroke:#181818;stroke-width:0.5;" x1="734" x2="1092" y1="1205.4063" y2="1205.4063"/><ellipse cx="744" cy="1218.7266" fill="#84BE84" rx="3" ry="3" style="stroke:#038048;stroke-width:1.0;"/><text fill="#000000" font-family="sans-serif" font-size="14" lengthAdjust="spacing" textLength="114" x="753" y="1222.0801">classTitle(): String</text><rect fill="#F24D5C" height="6" style="stroke:#C82930;stroke-width:1.0;" width="6" x="741" y="1231.3672"/><text fill="#000000" font-family="sans-serif" font-size="14" lengthAdjust="spacing" textLength="334" x="753" y="1237.7207">getDurationInMinutes(startTime: LocalTime, endTime</text><ellipse cx="744" cy="1250.0078" fill="#84BE84" rx="3" ry="3" style="stroke:#038048;stroke-width:1.0;"/><text fill="#000000" font-family="sans-serif" font-size="14" lengthAdjust="spacing" textLength="95" x="753" y="1253.3613">identity(): Long</text><rect fill="#F24D5C" height="6" style="stroke:#C82930;stroke-width:1.0;" width="6" x="741" y="1262.6484"/><text fill="#000000" font-family="sans-serif" font-size="14" lengthAdjust="spacing" textLength="283" x="753" y="1269.002">isDateAfterCurrentDate(date: Date): boolean</text><ellipse cx="744" cy="1281.2891" fill="#84BE84" rx="3" ry="3" style="stroke:#038048;stroke-width:1.0;"/><text fill="#000000" font-family="sans-serif" font-size="14" lengthAdjust="spacing" textLength="269" x="753" y="1284.6426">isValidWeekday(weekday: String): boolean</text><ellipse cx="744" cy="1296.9297" fill="#84BE84" rx="3" ry="3" style="stroke:#038048;stroke-width:1.0;"/><text fill="#000000" font-family="sans-serif" font-size="14" lengthAdjust="spacing" textLength="201" x="753" y="1300.2832">sameAs(other: Object): boolean</text><rect fill="#F24D5C" height="6" style="stroke:#C82930;stroke-width:1.0;" width="6" x="741" y="1309.5703"/><text fill="#000000" font-family="sans-serif" font-size="14" lengthAdjust="spacing" textLength="319" x="753" y="1315.9238">validateClassTime(startTime: LocalTime, endTime:</text><rect fill="#F24D5C" height="6" style="stroke:#C82930;stroke-width:1.0;" width="6" x="741" y="1325.2109"/><text fill="#000000" font-family="sans-serif" font-size="14" lengthAdjust="spacing" textLength="212" x="753" y="1331.5645">validateTitle(title: String): boolean</text></g><!--class ScheduleClassController--><g id="elem_ScheduleClassController"><rect codeLine="39" fill="#F1F1F1" height="282.6094" id="ScheduleClassController" rx="2.5" ry="2.5" style="stroke:#181818;stroke-width:0.5;" width="667" x="543.5" y="209"/><ellipse cx="794.75" cy="225" fill="#ADD1B2" rx="11" ry="11" style="stroke:#181818;stroke-width:1.0;"/><path d="M797.5156,220.875 Q797.6719,220.6563 797.8594,220.5469 Q798.0469,220.4375 798.2656,220.4375 Q798.6406,220.4375 798.875,220.7031 Q799.1094,220.9531 799.1094,221.5625 L799.1094,223.0156 Q799.1094,223.625 798.875,223.8906 Q798.6406,224.1563 798.2656,224.1563 Q797.9219,224.1563 797.7188,223.9531 Q797.5156,223.7656 797.4063,223.25 Q797.3594,222.8906 797.1719,222.7031 Q796.8438,222.3281 796.2344,222.1094 Q795.625,221.8906 795,221.8906 Q794.2344,221.8906 793.5938,222.2188 Q792.9688,222.5469 792.4688,223.2969 Q791.9844,224.0469 791.9844,225.0781 L791.9844,226.1719 Q791.9844,227.4063 792.875,228.2344 Q793.7656,229.0469 795.3594,229.0469 Q796.2969,229.0469 796.9531,228.7969 Q797.3438,228.6406 797.7656,228.2031 Q798.0313,227.9375 798.1719,227.8594 Q798.3281,227.7813 798.5313,227.7813 Q798.8594,227.7813 799.1094,228.0469 Q799.375,228.2969 799.375,228.6406 Q799.375,228.9844 799.0313,229.3906 Q798.5313,229.9688 797.7344,230.2969 Q796.6563,230.75 795.3594,230.75 Q793.8438,230.75 792.6406,230.125 Q791.6563,229.625 790.9688,228.5625 Q790.2813,227.4844 790.2813,226.2031 L790.2813,225.0469 Q790.2813,223.7188 790.8906,222.5781 Q791.5156,221.4219 792.6094,220.8125 Q793.7031,220.1875 794.9375,220.1875 Q795.6719,220.1875 796.3125,220.3594 Q796.9688,220.5156 797.5156,220.875 Z " fill="#000000"/><text fill="#000000" font-family="sans-serif" font-size="14" lengthAdjust="spacing" textLength="156" x="815.25" y="229.8535">ScheduleClassController</text><line style="stroke:#181818;stroke-width:0.5;" x1="544.5" x2="1209.5" y1="241" y2="241"/><text fill="#000000" font-family="sans-serif" font-size="14" lengthAdjust="spacing" textLength="109" x="549.5" y="257.6738">teacher: Teacher</text><line style="stroke:#181818;stroke-width:0.5;" x1="544.5" x2="1209.5" y1="264.6406" y2="264.6406"/><ellipse cx="554.5" cy="277.9609" fill="#84BE84" rx="3" ry="3" style="stroke:#038048;stroke-width:1.0;"/><text fill="#000000" font-family="sans-serif" font-size="14" lengthAdjust="spacing" textLength="170" x="563.5" y="281.3145">ScheduleClassController():</text><rect fill="#F24D5C" height="6" style="stroke:#C82930;stroke-width:1.0;" width="6" x="551.5" y="290.6016"/><text fill="#000000" font-family="sans-serif" font-size="14" lengthAdjust="spacing" textLength="330" x="563.5" y="296.9551">appendScheduleEntries(StringBuilder, List&lt;?&gt;): void</text><ellipse cx="554.5" cy="309.2422" fill="#84BE84" rx="3" ry="3" style="stroke:#038048;stroke-width:1.0;"/><text fill="#000000" font-family="sans-serif" font-size="14" lengthAdjust="spacing" textLength="529" x="563.5" y="312.5957">checkCourseClass(List&lt;SystemUser&gt;, String, Date, LocalTime, LocalTime): boolean</text><ellipse cx="554.5" cy="324.8828" fill="#84BE84" rx="3" ry="3" style="stroke:#038048;stroke-width:1.0;"/><text fill="#000000" font-family="sans-serif" font-size="14" lengthAdjust="spacing" textLength="270" x="563.5" y="328.2363">checkAndGetEndDate(String, String): Date</text><rect fill="#F24D5C" height="6" style="stroke:#C82930;stroke-width:1.0;" width="6" x="551.5" y="337.5234"/><text fill="#000000" font-family="sans-serif" font-size="14" lengthAdjust="spacing" textLength="228" x="563.5" y="343.877">formatScheduleEntry(Object): String</text><ellipse cx="554.5" cy="356.1641" fill="#84BE84" rx="3" ry="3" style="stroke:#038048;stroke-width:1.0;"/><text fill="#000000" font-family="sans-serif" font-size="14" lengthAdjust="spacing" textLength="230" x="563.5" y="359.5176">checkAndGetStartDate(String): Date</text><rect fill="#F24D5C" height="6" style="stroke:#C82930;stroke-width:1.0;" width="6" x="551.5" y="368.8047"/><text fill="#000000" font-family="sans-serif" font-size="14" lengthAdjust="spacing" textLength="305" x="563.5" y="375.1582">getDurationInMinutes(LocalTime, LocalTime): int</text><ellipse cx="554.5" cy="387.4453" fill="#84BE84" rx="3" ry="3" style="stroke:#038048;stroke-width:1.0;"/><text fill="#000000" font-family="sans-serif" font-size="14" lengthAdjust="spacing" textLength="357" x="563.5" y="390.7988">getRecurringDates(Date, Date, DayOfWeek): List&lt;Date&gt;</text><ellipse cx="554.5" cy="403.0859" fill="#84BE84" rx="3" ry="3" style="stroke:#038048;stroke-width:1.0;"/><text fill="#000000" font-family="sans-serif" font-size="14" lengthAdjust="spacing" textLength="321" x="563.5" y="406.4395">isTimeRangeValid(LocalTime, LocalTime): boolean</text><ellipse cx="554.5" cy="418.7266" fill="#84BE84" rx="3" ry="3" style="stroke:#038048;stroke-width:1.0;"/><text fill="#000000" font-family="sans-serif" font-size="14" lengthAdjust="spacing" textLength="191" x="563.5" y="422.0801">getScheduleOfTeacher(): void</text><ellipse cx="554.5" cy="434.3672" fill="#84BE84" rx="3" ry="3" style="stroke:#038048;stroke-width:1.0;"/><text fill="#000000" font-family="sans-serif" font-size="14" lengthAdjust="spacing" textLength="197" x="563.5" y="437.7207">listCourses(): Iterable&lt;Course&gt;</text><ellipse cx="554.5" cy="450.0078" fill="#84BE84" rx="3" ry="3" style="stroke:#038048;stroke-width:1.0;"/><text fill="#000000" font-family="sans-serif" font-size="14" lengthAdjust="spacing" textLength="641" x="563.5" y="453.3613">createCourseClass(Teacher, String, Date, String, LocalTime, LocalTime, Course, List&lt;Student&gt;): void</text><ellipse cx="554.5" cy="465.6484" fill="#84BE84" rx="3" ry="3" style="stroke:#038048;stroke-width:1.0;"/><text fill="#000000" font-family="sans-serif" font-size="14" lengthAdjust="spacing" textLength="286" x="563.5" y="469.002">listStudentsByCourse(Course): List&lt;Student&gt;</text><ellipse cx="554.5" cy="481.2891" fill="#84BE84" rx="3" ry="3" style="stroke:#038048;stroke-width:1.0;"/><text fill="#000000" font-family="sans-serif" font-size="14" lengthAdjust="spacing" textLength="174" x="563.5" y="484.6426">isTitleValid(String): boolean</text></g><!--class CourseClassBuilder--><g id="elem_CourseClassBuilder"><rect codeLine="58" fill="#F1F1F1" height="204.4063" id="CourseClassBuilder" rx="2.5" ry="2.5" style="stroke:#181818;stroke-width:0.5;" width="349" x="966.5" y="745"/><ellipse cx="1074.25" cy="761" fill="#ADD1B2" rx="11" ry="11" style="stroke:#181818;stroke-width:1.0;"/><path d="M1077.0156,756.875 Q1077.1719,756.6563 1077.3594,756.5469 Q1077.5469,756.4375 1077.7656,756.4375 Q1078.1406,756.4375 1078.375,756.7031 Q1078.6094,756.9531 1078.6094,757.5625 L1078.6094,759.0156 Q1078.6094,759.625 1078.375,759.8906 Q1078.1406,760.1563 1077.7656,760.1563 Q1077.4219,760.1563 1077.2188,759.9531 Q1077.0156,759.7656 1076.9063,759.25 Q1076.8594,758.8906 1076.6719,758.7031 Q1076.3438,758.3281 1075.7344,758.1094 Q1075.125,757.8906 1074.5,757.8906 Q1073.7344,757.8906 1073.0938,758.2188 Q1072.4688,758.5469 1071.9688,759.2969 Q1071.4844,760.0469 1071.4844,761.0781 L1071.4844,762.1719 Q1071.4844,763.4063 1072.375,764.2344 Q1073.2656,765.0469 1074.8594,765.0469 Q1075.7969,765.0469 1076.4531,764.7969 Q1076.8438,764.6406 1077.2656,764.2031 Q1077.5313,763.9375 1077.6719,763.8594 Q1077.8281,763.7813 1078.0313,763.7813 Q1078.3594,763.7813 1078.6094,764.0469 Q1078.875,764.2969 1078.875,764.6406 Q1078.875,764.9844 1078.5313,765.3906 Q1078.0313,765.9688 1077.2344,766.2969 Q1076.1563,766.75 1074.8594,766.75 Q1073.3438,766.75 1072.1406,766.125 Q1071.1563,765.625 1070.4688,764.5625 Q1069.7813,763.4844 1069.7813,762.2031 L1069.7813,761.0469 Q1069.7813,759.7188 1070.3906,758.5781 Q1071.0156,757.4219 1072.1094,756.8125 Q1073.2031,756.1875 1074.4375,756.1875 Q1075.1719,756.1875 1075.8125,756.3594 Q1076.4688,756.5156 1077.0156,756.875 Z " fill="#000000"/><text fill="#000000" font-family="sans-serif" font-size="14" lengthAdjust="spacing" textLength="125" x="1094.75" y="765.8535">CourseClassBuilder</text><line style="stroke:#181818;stroke-width:0.5;" x1="967.5" x2="1314.5" y1="777" y2="777"/><line style="stroke:#181818;stroke-width:0.5;" x1="967.5" x2="1314.5" y1="785" y2="785"/><ellipse cx="977.5" cy="798.3203" fill="#84BE84" rx="3" ry="3" style="stroke:#038048;stroke-width:1.0;"/><text fill="#000000" font-family="sans-serif" font-size="14" lengthAdjust="spacing" textLength="139" x="986.5" y="801.6738">CourseClassBuilder():</text><ellipse cx="977.5" cy="813.9609" fill="#84BE84" rx="3" ry="3" style="stroke:#038048;stroke-width:1.0;"/><text fill="#000000" font-family="sans-serif" font-size="14" lengthAdjust="spacing" textLength="323" x="986.5" y="817.3145">withDateOfCourseClass(Date): CourseClassBuilder</text><ellipse cx="977.5" cy="829.6016" fill="#84BE84" rx="3" ry="3" style="stroke:#038048;stroke-width:1.0;"/><text fill="#000000" font-family="sans-serif" font-size="14" lengthAdjust="spacing" textLength="259" x="986.5" y="832.9551">withCourse(Course): CourseClassBuilder</text><ellipse cx="977.5" cy="845.2422" fill="#84BE84" rx="3" ry="3" style="stroke:#038048;stroke-width:1.0;"/><text fill="#000000" font-family="sans-serif" font-size="14" lengthAdjust="spacing" textLength="273" x="986.5" y="848.5957">withTeacher(Teacher): CourseClassBuilder</text><ellipse cx="977.5" cy="860.8828" fill="#84BE84" rx="3" ry="3" style="stroke:#038048;stroke-width:1.0;"/><text fill="#000000" font-family="sans-serif" font-size="14" lengthAdjust="spacing" textLength="129" x="986.5" y="864.2363">build(): CourseClass</text><ellipse cx="977.5" cy="876.5234" fill="#84BE84" rx="3" ry="3" style="stroke:#038048;stroke-width:1.0;"/><text fill="#000000" font-family="sans-serif" font-size="14" lengthAdjust="spacing" textLength="310" x="986.5" y="879.877">withStudents(List&lt;Student&gt;): CourseClassBuilder</text><ellipse cx="977.5" cy="892.1641" fill="#84BE84" rx="3" ry="3" style="stroke:#038048;stroke-width:1.0;"/><text fill="#000000" font-family="sans-serif" font-size="14" lengthAdjust="spacing" textLength="272" x="986.5" y="895.5176">withWeekDays(String): CourseClassBuilder</text><ellipse cx="977.5" cy="907.8047" fill="#84BE84" rx="3" ry="3" style="stroke:#038048;stroke-width:1.0;"/><text fill="#000000" font-family="sans-serif" font-size="14" lengthAdjust="spacing" textLength="266" x="986.5" y="911.1582">withClassTitle(String): CourseClassBuilder</text><ellipse cx="977.5" cy="923.4453" fill="#84BE84" rx="3" ry="3" style="stroke:#038048;stroke-width:1.0;"/><text fill="#000000" font-family="sans-serif" font-size="14" lengthAdjust="spacing" textLength="293" x="986.5" y="926.7988">withStartTime(LocalTime): CourseClassBuilder</text><ellipse cx="977.5" cy="939.0859" fill="#84BE84" rx="3" ry="3" style="stroke:#038048;stroke-width:1.0;"/><text fill="#000000" font-family="sans-serif" font-size="14" lengthAdjust="spacing" textLength="288" x="986.5" y="942.4395">withEndTime(LocalTime): CourseClassBuilder</text></g><!--class CourseClassRepository--><g id="elem_CourseClassRepository"><rect codeLine="83" fill="#F1F1F1" height="164.5313" id="CourseClassRepository" rx="2.5" ry="2.5" style="stroke:#181818;stroke-width:0.5;" width="469" x="390.5" y="764.5"/><ellipse cx="546.25" cy="784.0234" fill="#B4A7E5" rx="11" ry="11" style="stroke:#181818;stroke-width:1.0;"/><path d="M547.2031,780.6641 L547.2031,787.3203 L548.9219,787.3203 Q549.5313,787.3203 549.7969,787.5547 Q550.0625,787.7891 550.0625,788.1797 Q550.0625,788.5547 549.7969,788.7891 Q549.5313,789.0234 548.9219,789.0234 L543.7813,789.0234 Q543.1719,789.0234 542.9063,788.7891 Q542.6406,788.5547 542.6406,788.1641 Q542.6406,787.7891 542.9063,787.5547 Q543.1719,787.3203 543.7813,787.3203 L545.5,787.3203 L545.5,780.6641 L543.7813,780.6641 Q543.1719,780.6641 542.9063,780.4297 Q542.6406,780.1953 542.6406,779.8047 Q542.6406,779.4297 542.9063,779.1953 Q543.1719,778.9609 543.7813,778.9609 L548.9219,778.9609 Q549.5313,778.9609 549.7969,779.1953 Q550.0625,779.4297 550.0625,779.8047 Q550.0625,780.1953 549.7969,780.4297 Q549.5313,780.6641 548.9219,780.6641 L547.2031,780.6641 Z " fill="#000000"/><text fill="#000000" font-family="sans-serif" font-size="12" font-style="italic" lengthAdjust="spacing" textLength="61" x="610.75" y="780.3633">&#171;interface&#187;</text><text fill="#000000" font-family="sans-serif" font-size="14" font-style="italic" lengthAdjust="spacing" textLength="149" x="566.75" y="795.5801">CourseClassRepository</text><line style="stroke:#181818;stroke-width:0.5;" x1="391.5" x2="858.5" y1="803.5469" y2="803.5469"/><line style="stroke:#181818;stroke-width:0.5;" x1="391.5" x2="858.5" y1="811.5469" y2="811.5469"/><ellipse cx="401.5" cy="824.8672" fill="#84BE84" rx="3" ry="3" style="stroke:#038048;stroke-width:1.0;"/><text fill="#000000" font-family="sans-serif" font-size="14" lengthAdjust="spacing" textLength="348" x="410.5" y="828.2207">findClassesOfStudent(Student): Iterable&lt;CourseClass&gt;</text><ellipse cx="401.5" cy="840.5078" fill="#84BE84" rx="3" ry="3" style="stroke:#038048;stroke-width:1.0;"/><text fill="#000000" font-family="sans-serif" font-size="14" lengthAdjust="spacing" textLength="392" x="410.5" y="843.8613">findClassOfTitleAndDate(String, Date): Iterable&lt;CourseClass&gt;</text><ellipse cx="401.5" cy="856.1484" fill="#84BE84" rx="3" ry="3" style="stroke:#038048;stroke-width:1.0;"/><text fill="#000000" font-family="sans-serif" font-size="14" lengthAdjust="spacing" textLength="443" x="410.5" y="859.502">findClassesOfTeacherOnDate(Teacher, Date): Iterable&lt;CourseClass&gt;</text><ellipse cx="401.5" cy="871.7891" fill="#84BE84" rx="3" ry="3" style="stroke:#038048;stroke-width:1.0;"/><text fill="#000000" font-family="sans-serif" font-size="14" lengthAdjust="spacing" textLength="435" x="410.5" y="875.1426">findClassesOfStudentOnDate(Student, Date): Iterable&lt;CourseClass&gt;</text><ellipse cx="401.5" cy="887.4297" fill="#84BE84" rx="3" ry="3" style="stroke:#038048;stroke-width:1.0;"/><text fill="#000000" font-family="sans-serif" font-size="14" lengthAdjust="spacing" textLength="296" x="410.5" y="890.7832">findAllCourseClasses(): Iterable&lt;CourseClass&gt;</text><ellipse cx="401.5" cy="903.0703" fill="#84BE84" rx="3" ry="3" style="stroke:#038048;stroke-width:1.0;"/><text fill="#000000" font-family="sans-serif" font-size="14" lengthAdjust="spacing" textLength="283" x="410.5" y="906.4238">findCourseClassByTitle(String): CourseClass</text><ellipse cx="401.5" cy="918.7109" fill="#84BE84" rx="3" ry="3" style="stroke:#038048;stroke-width:1.0;"/><text fill="#000000" font-family="sans-serif" font-size="14" lengthAdjust="spacing" textLength="356" x="410.5" y="922.0645">findClassesOfTeacher(Teacher): Iterable&lt;CourseClass&gt;</text></g><!--link ScheduleClassUI to ScheduleClassController--><g id="link_ScheduleClassUI_ScheduleClassController"><path codeLine="98" d="M877,149.01 C877,165.9 877,184.56 877,203.52 " fill="none" id="ScheduleClassUI-to-ScheduleClassController" style="stroke:#181818;stroke-width:1.0;stroke-dasharray:7.0,7.0;"/><polygon fill="#181818" points="877,208.87,881,199.87,877,203.87,873,199.87,877,208.87" style="stroke:#181818;stroke-width:1.0;"/></g><!--link ScheduleClassController to CourseClassBuilder--><g id="link_ScheduleClassController_CourseClassBuilder"><path codeLine="99" d="M952.12,492.21 C994.18,570.99 1045.77,667.62 1084.4,739.97 " fill="none" id="ScheduleClassController-to-CourseClassBuilder" style="stroke:#181818;stroke-width:1.0;stroke-dasharray:7.0,7.0;"/><polygon fill="#181818" points="1086.92,744.7,1086.2092,734.8768,1084.5648,740.2894,1079.1522,738.6451,1086.92,744.7" style="stroke:#181818;stroke-width:1.0;"/></g><!--link ScheduleClassController to CourseClass--><g id="link_ScheduleClassController_CourseClass"><path codeLine="100" d="M883.17,492.25 C889.37,633.86 898.95,852.32 905.57,1003.4 " fill="none" id="ScheduleClassController-to-CourseClass" style="stroke:#181818;stroke-width:1.0;stroke-dasharray:7.0,7.0;"/><polygon fill="#181818" points="905.8,1008.74,909.411,999.577,905.5859,1003.7446,901.4183,999.9195,905.8,1008.74" style="stroke:#181818;stroke-width:1.0;"/></g><!--link ScheduleClassController to CourseClassRepository--><g id="link_ScheduleClassController_CourseClassRepository"><path codeLine="101" d="M866.95,492.06 C857.64,554.47 839.85,626.79 806,685 C789.74,712.95 766.92,738.64 742.95,760.89 " fill="none" id="ScheduleClassController-to-CourseClassRepository" style="stroke:#181818;stroke-width:1.0;stroke-dasharray:7.0,7.0;"/><polygon fill="#181818" points="739.1,764.44,748.4279,761.2792,742.7757,761.0504,743.0045,755.3982,739.1,764.44" style="stroke:#181818;stroke-width:1.0;"/></g><!--link ScheduleClassController to CheckIfUserIsFreeService--><g id="link_ScheduleClassController_CheckIfUserIsFreeService"><path codeLine="102" d="M623.82,492.09 C587.96,512.01 552.5,531.7 520.69,549.37 " fill="none" id="ScheduleClassController-to-CheckIfUserIsFreeService" style="stroke:#181818;stroke-width:1.0;stroke-dasharray:7.0,7.0;"/><polygon fill="#181818" points="516.02,551.96,525.83,551.0858,520.3908,549.5318,521.9448,544.0926,516.02,551.96" style="stroke:#181818;stroke-width:1.0;"/></g><!--link CheckIfUserIsFreeService to CourseClassRepository--><g id="link_CheckIfUserIsFreeService_CourseClassRepository"><path codeLine="103" d="M463.66,685.01 C487.25,708.55 514.21,735.45 539.25,760.44 " fill="none" id="CheckIfUserIsFreeService-to-CourseClassRepository" style="stroke:#181818;stroke-width:1.0;stroke-dasharray:7.0,7.0;"/><polygon fill="#181818" points="542.93,764.11,539.3945,754.9176,539.3945,760.5745,533.7376,760.5745,542.93,764.11" style="stroke:#181818;stroke-width:1.0;"/></g><!--link CourseClassRepository to CourseClass--><g id="link_CourseClassRepository_CourseClass"><path codeLine="104" d="M697.3,929.59 C717.79,952.71 740.88,978.76 764.13,1005.01 " fill="none" id="CourseClassRepository-to-CourseClass" style="stroke:#181818;stroke-width:1.0;stroke-dasharray:7.0,7.0;"/><polygon fill="#181818" points="767.56,1008.88,764.5882,999.4902,764.2453,1005.1367,758.5988,1004.7938,767.56,1008.88" style="stroke:#181818;stroke-width:1.0;"/></g><!--link CourseClassBuilder to CourseClass--><g id="link_CourseClassBuilder_CourseClass"><path codeLine="105" d="M1070.11,949.05 C1057.71,966.72 1044.52,985.53 1031.25,1004.44 " fill="none" id="CourseClassBuilder-to-CourseClass" style="stroke:#181818;stroke-width:1.0;stroke-dasharray:7.0,7.0;"/><polygon fill="#181818" points="1028.24,1008.74,1036.6876,1003.6766,1031.115,1004.6492,1030.1424,999.0766,1028.24,1008.74" style="stroke:#181818;stroke-width:1.0;"/></g><!--SRC=[bLPTJzim57tFhx0q2HdHyWEWobGAcoh1Ab4sdaroGps2NTbEKJJjl-_w8ucR9gLxQUFhwtC_VEv9if9fJTRP1lAgX8LT_LoIFmaX5tqhFRz2ynUIo_L6Vk2Al4XP0XFEUGCiBxa0QryRnSKhcgT4eVc9lmFrDjoybnahhSdjPnifDInafJJGfG75NagO-NMAtlu9NKcbGJq3lEMiNefjPTemVvCaSrKiDf2zBOkVwBZKtnJ06jIEPq1ci_2Kfguqcs_MTwOsm8JapC0vwMfB8doNY-i6eamHnjcVk2cXAzhPdMUNlRLPu5KHOLoHMpJvJH2kItlTiNQUMrC3gmrJPj1Fcoe7OH3pdcjpLfhhjRUSlPfhxsA0OStgYZpv1s_TWT9SYZZA1pRvbjLjHHTHcT7jJiahcDjACOFdb-A1Yyg0faCvJfhw48lRhBYfwNc8EILSsqRC2xpzHQKKxjirjGtpFOgeXW3w5ojv7gX0F_n_azQUgsRlCDTK6bVtwkKtP2Poc9ATHS802ryWqlHe-bVH4TyE4zzz1DsHPc-85b8O9SiIrD28TRj-rAQ4RRSOkd6wmssEBVRHRYfUvfQnziPdN-smx2JFavRS4TMeyrdNsi2xPNmw2IbFN7ydSQtjOs_07UPSvD_1t8dStL23qPRl2Os95rAzCnCdNjEs_wqyx86kRUSZs1Xka6aZENDX73IUUOGC-OHO5aXJNshpMwyAow5pFp8pQqxTGUwOyCZ4ApYcqHEQWy6QObT5630QtqY9CVo5Q6llAvrl1egbWVZQ0bB_jfhLK6AJ83g15q46qdukmQvlwg2z_g_fHdEiRGZIt3VZWEf3qeBiFzJCGDZ0_CCDJ_eByi7DvhOlbZJemE6nzao_a2EkpGs5_t7d5_jCz_TRbAQ7jD_f8v6VlRZghe_7AkfqznJtTQDTDARfaGDtNjO-SxUt-TahDbpgo7QZP-6bwyPn8Rd8y6r0nnKeS3XAAGsc1m23_UWjbsB7ZLE9T8-Wqp3JAtpRbMnBHsATg85DVJ-aSTyDdQoUgAQkdmdg5AY2OU-Y-XvXApKtKjNuqK8wb_3XSa4ABdBd2NfL1ChHy7-eAxvd-mTHdooZvZqD3_Dr0e2D70Pd9Hn6ArF_1nBI3Y1XTIB8l2mZ-w2eziD6nAx7XsgqraWiXWFvQqsI_iVqvMKwzfvFnhuEx9c1IJpH_LI_Zct7JunCTJAg1kDnXhdUpt_WhT5tIP9_]--></g></svg>