<?xml version="1.0" encoding="us-ascii" standalone="no"?><svg xmlns="http://www.w3.org/2000/svg" xmlns:xlink="http://www.w3.org/1999/xlink" contentStyleType="text/css" height="818px" preserveAspectRatio="none" style="width:328px;height:818px;background:#FFFFFF;" version="1.1" viewBox="0 0 328 818" width="328px" zoomAndPan="magnify"><defs/><g><rect fill="#FFFFFF" height="638.5156" style="stroke:#181818;stroke-width:1.0;" width="10" x="64.5" y="90.6406"/><rect fill="#FFFFFF" height="28.5234" style="stroke:#181818;stroke-width:1.0;" width="10" x="262.5" y="111.1641"/><rect fill="#FFFFFF" height="28.5234" style="stroke:#181818;stroke-width:1.0;" width="10" x="262.5" y="191.7344"/><rect fill="#FFFFFF" height="28.5234" style="stroke:#181818;stroke-width:1.0;" width="10" x="262.5" y="248.7813"/><rect fill="#FFFFFF" height="28.5234" style="stroke:#181818;stroke-width:1.0;" width="10" x="262.5" y="305.8281"/><rect fill="#FFFFFF" height="28.5234" style="stroke:#181818;stroke-width:1.0;" width="10" x="262.5" y="362.875"/><rect fill="#FFFFFF" height="28.5234" style="stroke:#181818;stroke-width:1.0;" width="10" x="262.5" y="419.9219"/><rect fill="#FFFFFF" height="28.5234" style="stroke:#181818;stroke-width:1.0;" width="10" x="262.5" y="476.9688"/><rect fill="#FFFFFF" height="28.5234" style="stroke:#181818;stroke-width:1.0;" width="10" x="262.5" y="534.0156"/><rect fill="#FFFFFF" height="75.0469" style="stroke:#181818;stroke-width:1.0;" width="10" x="262.5" y="638.1094"/><rect fill="none" height="566.4688" style="stroke:#000000;stroke-width:1.5;" width="312" x="10" y="154.6875"/><rect fill="none" height="108.0938" style="stroke:#000000;stroke-width:1.5;" width="292" x="20" y="577.5391"/><rect fill="none" height="75.5703" style="stroke:#000000;stroke-width:1.5;" width="272" x="30" y="601.0625"/><line style="stroke:#181818;stroke-width:0.5;stroke-dasharray:5.0,5.0;" x1="69" x2="69" y1="80.6406" y2="738.1563"/><line style="stroke:#181818;stroke-width:0.5;stroke-dasharray:5.0,5.0;" x1="267" x2="267" y1="80.6406" y2="738.1563"/><text fill="#000000" font-family="sans-serif" font-size="14" lengthAdjust="spacing" textLength="53" x="40" y="77.6738">Teacher</text><ellipse cx="69.5" cy="13.5" fill="#E2E2F0" rx="8" ry="8" style="stroke:#181818;stroke-width:0.5;"/><path d="M69.5,21.5 L69.5,48.5 M56.5,29.5 L82.5,29.5 M69.5,48.5 L56.5,63.5 M69.5,48.5 L82.5,63.5 " fill="none" style="stroke:#181818;stroke-width:0.5;"/><text fill="#000000" font-family="sans-serif" font-size="14" lengthAdjust="spacing" textLength="53" x="40" y="749.8301">Teacher</text><ellipse cx="69.5" cy="761.2969" fill="#E2E2F0" rx="8" ry="8" style="stroke:#181818;stroke-width:0.5;"/><path d="M69.5,769.2969 L69.5,796.2969 M56.5,777.2969 L82.5,777.2969 M69.5,796.2969 L56.5,811.2969 M69.5,796.2969 L82.5,811.2969 " fill="none" style="stroke:#181818;stroke-width:0.5;"/><text fill="#000000" font-family="sans-serif" font-size="14" lengthAdjust="spacing" textLength="12" x="258.5" y="77.6738">UI</text><path d="M247,37 L247,61 M247,49 L264,49 " fill="none" style="stroke:#181818;stroke-width:0.5;"/><ellipse cx="276" cy="49" fill="#E2E2F0" rx="12" ry="12" style="stroke:#181818;stroke-width:0.5;"/><text fill="#000000" font-family="sans-serif" font-size="14" lengthAdjust="spacing" textLength="12" x="258.5" y="749.8301">UI</text><path d="M247,756.7969 L247,780.7969 M247,768.7969 L264,768.7969 " fill="none" style="stroke:#181818;stroke-width:0.5;"/><ellipse cx="276" cy="768.7969" fill="#E2E2F0" rx="12" ry="12" style="stroke:#181818;stroke-width:0.5;"/><rect fill="#FFFFFF" height="638.5156" style="stroke:#181818;stroke-width:1.0;" width="10" x="64.5" y="90.6406"/><rect fill="#FFFFFF" height="28.5234" style="stroke:#181818;stroke-width:1.0;" width="10" x="262.5" y="111.1641"/><rect fill="#FFFFFF" height="28.5234" style="stroke:#181818;stroke-width:1.0;" width="10" x="262.5" y="191.7344"/><rect fill="#FFFFFF" height="28.5234" style="stroke:#181818;stroke-width:1.0;" width="10" x="262.5" y="248.7813"/><rect fill="#FFFFFF" height="28.5234" style="stroke:#181818;stroke-width:1.0;" width="10" x="262.5" y="305.8281"/><rect fill="#FFFFFF" height="28.5234" style="stroke:#181818;stroke-width:1.0;" width="10" x="262.5" y="362.875"/><rect fill="#FFFFFF" height="28.5234" style="stroke:#181818;stroke-width:1.0;" width="10" x="262.5" y="419.9219"/><rect fill="#FFFFFF" height="28.5234" style="stroke:#181818;stroke-width:1.0;" width="10" x="262.5" y="476.9688"/><rect fill="#FFFFFF" height="28.5234" style="stroke:#181818;stroke-width:1.0;" width="10" x="262.5" y="534.0156"/><rect fill="#FFFFFF" height="75.0469" style="stroke:#181818;stroke-width:1.0;" width="10" x="262.5" y="638.1094"/><polygon fill="#181818" points="250.5,107.1641,260.5,111.1641,250.5,115.1641,254.5,111.1641" style="stroke:#181818;stroke-width:1.0;"/><line style="stroke:#181818;stroke-width:1.0;" x1="74.5" x2="256.5" y1="111.1641" y2="111.1641"/><text fill="#000000" font-family="sans-serif" font-size="13" lengthAdjust="spacing" textLength="100" x="81.5" y="106.4092">Schedule a class</text><polygon fill="#181818" points="85.5,135.6875,75.5,139.6875,85.5,143.6875,81.5,139.6875" style="stroke:#181818;stroke-width:1.0;"/><line style="stroke:#181818;stroke-width:1.0;stroke-dasharray:2.0,2.0;" x1="79.5" x2="266.5" y1="139.6875" y2="139.6875"/><text fill="#000000" font-family="sans-serif" font-size="13" lengthAdjust="spacing" textLength="116" x="91.5" y="134.9326">Authorization status</text><path d="M10,154.6875 L71,154.6875 L71,161.2109 L61,171.2109 L10,171.2109 L10,154.6875 " fill="#EEEEEE" style="stroke:#000000;stroke-width:1.5;"/><rect fill="none" height="566.4688" style="stroke:#000000;stroke-width:1.5;" width="312" x="10" y="154.6875"/><text fill="#000000" font-family="sans-serif" font-size="13" font-weight="bold" lengthAdjust="spacing" textLength="16" x="25" y="167.4561">alt</text><text fill="#000000" font-family="sans-serif" font-size="11" font-weight="bold" lengthAdjust="spacing" textLength="77" x="86" y="166.6455">[if authorized]</text><polygon fill="#181818" points="85.5,187.7344,75.5,191.7344,85.5,195.7344,81.5,191.7344" style="stroke:#181818;stroke-width:1.0;"/><line style="stroke:#181818;stroke-width:1.0;stroke-dasharray:2.0,2.0;" x1="79.5" x2="261.5" y1="191.7344" y2="191.7344"/><text fill="#000000" font-family="sans-serif" font-size="13" lengthAdjust="spacing" textLength="62" x="91.5" y="186.9795">Course list</text><polygon fill="#181818" points="255.5,216.2578,265.5,220.2578,255.5,224.2578,259.5,220.2578" style="stroke:#181818;stroke-width:1.0;"/><line style="stroke:#181818;stroke-width:1.0;" x1="74.5" x2="261.5" y1="220.2578" y2="220.2578"/><text fill="#000000" font-family="sans-serif" font-size="13" lengthAdjust="spacing" textLength="97" x="81.5" y="215.5029">Course selection</text><polygon fill="#181818" points="85.5,244.7813,75.5,248.7813,85.5,252.7813,81.5,248.7813" style="stroke:#181818;stroke-width:1.0;"/><line style="stroke:#181818;stroke-width:1.0;stroke-dasharray:2.0,2.0;" x1="79.5" x2="261.5" y1="248.7813" y2="248.7813"/><text fill="#000000" font-family="sans-serif" font-size="13" lengthAdjust="spacing" textLength="113" x="91.5" y="244.0264">Asks for Class Title</text><polygon fill="#181818" points="255.5,273.3047,265.5,277.3047,255.5,281.3047,259.5,277.3047" style="stroke:#181818;stroke-width:1.0;"/><line style="stroke:#181818;stroke-width:1.0;" x1="74.5" x2="261.5" y1="277.3047" y2="277.3047"/><text fill="#000000" font-family="sans-serif" font-size="13" lengthAdjust="spacing" textLength="61" x="81.5" y="272.5498">Class Title</text><polygon fill="#181818" points="85.5,301.8281,75.5,305.8281,85.5,309.8281,81.5,305.8281" style="stroke:#181818;stroke-width:1.0;"/><line style="stroke:#181818;stroke-width:1.0;stroke-dasharray:2.0,2.0;" x1="79.5" x2="261.5" y1="305.8281" y2="305.8281"/><text fill="#000000" font-family="sans-serif" font-size="13" lengthAdjust="spacing" textLength="144" x="91.5" y="301.0732">Asks for Class Weekday</text><polygon fill="#181818" points="255.5,330.3516,265.5,334.3516,255.5,338.3516,259.5,334.3516" style="stroke:#181818;stroke-width:1.0;"/><line style="stroke:#181818;stroke-width:1.0;" x1="74.5" x2="261.5" y1="334.3516" y2="334.3516"/><text fill="#000000" font-family="sans-serif" font-size="13" lengthAdjust="spacing" textLength="111" x="81.5" y="329.5967">Weekday selection</text><polygon fill="#181818" points="85.5,358.875,75.5,362.875,85.5,366.875,81.5,362.875" style="stroke:#181818;stroke-width:1.0;"/><line style="stroke:#181818;stroke-width:1.0;stroke-dasharray:2.0,2.0;" x1="79.5" x2="261.5" y1="362.875" y2="362.875"/><text fill="#000000" font-family="sans-serif" font-size="13" lengthAdjust="spacing" textLength="144" x="91.5" y="358.1201">Asks for Class Star Date</text><polygon fill="#181818" points="255.5,387.3984,265.5,391.3984,255.5,395.3984,259.5,391.3984" style="stroke:#181818;stroke-width:1.0;"/><line style="stroke:#181818;stroke-width:1.0;" x1="74.5" x2="261.5" y1="391.3984" y2="391.3984"/><text fill="#000000" font-family="sans-serif" font-size="13" lengthAdjust="spacing" textLength="96" x="81.5" y="386.6436">Class Start Date</text><polygon fill="#181818" points="85.5,415.9219,75.5,419.9219,85.5,423.9219,81.5,419.9219" style="stroke:#181818;stroke-width:1.0;"/><line style="stroke:#181818;stroke-width:1.0;stroke-dasharray:2.0,2.0;" x1="79.5" x2="261.5" y1="419.9219" y2="419.9219"/><text fill="#000000" font-family="sans-serif" font-size="13" lengthAdjust="spacing" textLength="143" x="91.5" y="415.167">Asks for Class End Date</text><polygon fill="#181818" points="255.5,444.4453,265.5,448.4453,255.5,452.4453,259.5,448.4453" style="stroke:#181818;stroke-width:1.0;"/><line style="stroke:#181818;stroke-width:1.0;" x1="74.5" x2="261.5" y1="448.4453" y2="448.4453"/><text fill="#000000" font-family="sans-serif" font-size="13" lengthAdjust="spacing" textLength="91" x="81.5" y="443.6904">Class End Date</text><polygon fill="#181818" points="85.5,472.9688,75.5,476.9688,85.5,480.9688,81.5,476.9688" style="stroke:#181818;stroke-width:1.0;"/><line style="stroke:#181818;stroke-width:1.0;stroke-dasharray:2.0,2.0;" x1="79.5" x2="261.5" y1="476.9688" y2="476.9688"/><text fill="#000000" font-family="sans-serif" font-size="13" lengthAdjust="spacing" textLength="149" x="91.5" y="472.2139">Asks for Class Start Time</text><polygon fill="#181818" points="255.5,501.4922,265.5,505.4922,255.5,509.4922,259.5,505.4922" style="stroke:#181818;stroke-width:1.0;"/><line style="stroke:#181818;stroke-width:1.0;" x1="74.5" x2="261.5" y1="505.4922" y2="505.4922"/><text fill="#000000" font-family="sans-serif" font-size="13" lengthAdjust="spacing" textLength="97" x="81.5" y="500.7373">Class Start Time</text><polygon fill="#181818" points="85.5,530.0156,75.5,534.0156,85.5,538.0156,81.5,534.0156" style="stroke:#181818;stroke-width:1.0;"/><line style="stroke:#181818;stroke-width:1.0;stroke-dasharray:2.0,2.0;" x1="79.5" x2="261.5" y1="534.0156" y2="534.0156"/><text fill="#000000" font-family="sans-serif" font-size="13" lengthAdjust="spacing" textLength="144" x="91.5" y="529.2607">Asks for Class End Time</text><polygon fill="#181818" points="255.5,558.5391,265.5,562.5391,255.5,566.5391,259.5,562.5391" style="stroke:#181818;stroke-width:1.0;"/><line style="stroke:#181818;stroke-width:1.0;" x1="74.5" x2="261.5" y1="562.5391" y2="562.5391"/><text fill="#000000" font-family="sans-serif" font-size="13" lengthAdjust="spacing" textLength="92" x="81.5" y="557.7842">Class End Time</text><path d="M20,577.5391 L93,577.5391 L93,584.0625 L83,594.0625 L20,594.0625 L20,577.5391 " fill="#EEEEEE" style="stroke:#000000;stroke-width:1.5;"/><rect fill="none" height="108.0938" style="stroke:#000000;stroke-width:1.5;" width="292" x="20" y="577.5391"/><text fill="#000000" font-family="sans-serif" font-size="13" font-weight="bold" lengthAdjust="spacing" textLength="28" x="35" y="590.3076">loop</text><text fill="#000000" font-family="sans-serif" font-size="11" font-weight="bold" lengthAdjust="spacing" textLength="126" x="108" y="589.4971">[for number of weeks]</text><path d="M30,601.0625 L91,601.0625 L91,607.5859 L81,617.5859 L30,617.5859 L30,601.0625 " fill="#EEEEEE" style="stroke:#000000;stroke-width:1.5;"/><rect fill="none" height="75.5703" style="stroke:#000000;stroke-width:1.5;" width="272" x="30" y="601.0625"/><text fill="#000000" font-family="sans-serif" font-size="13" font-weight="bold" lengthAdjust="spacing" textLength="16" x="45" y="613.8311">alt</text><text fill="#000000" font-family="sans-serif" font-size="11" font-weight="bold" lengthAdjust="spacing" textLength="107" x="106" y="613.0205">[if user is available]</text><polygon fill="#181818" points="85.5,634.1094,75.5,638.1094,85.5,642.1094,81.5,638.1094" style="stroke:#181818;stroke-width:1.0;"/><line style="stroke:#181818;stroke-width:1.0;stroke-dasharray:2.0,2.0;" x1="79.5" x2="261.5" y1="638.1094" y2="638.1094"/><text fill="#000000" font-family="sans-serif" font-size="13" lengthAdjust="spacing" textLength="123" x="91.5" y="633.3545">Class creation status</text><line style="stroke:#000000;stroke-width:1.0;stroke-dasharray:2.0,2.0;" x1="30" x2="302" y1="647.1094" y2="647.1094"/><polygon fill="#181818" points="85.5,664.6328,75.5,668.6328,85.5,672.6328,81.5,668.6328" style="stroke:#181818;stroke-width:1.0;"/><line style="stroke:#181818;stroke-width:1.0;stroke-dasharray:2.0,2.0;" x1="79.5" x2="261.5" y1="668.6328" y2="668.6328"/><text fill="#000000" font-family="sans-serif" font-size="13" lengthAdjust="spacing" textLength="153" x="91.5" y="663.8779">Inform user is not available</text><line style="stroke:#000000;stroke-width:1.0;stroke-dasharray:2.0,2.0;" x1="20" x2="312" y1="684.6328" y2="684.6328"/><polygon fill="#181818" points="85.5,709.1563,75.5,713.1563,85.5,717.1563,81.5,713.1563" style="stroke:#181818;stroke-width:1.0;"/><line style="stroke:#181818;stroke-width:1.0;stroke-dasharray:2.0,2.0;" x1="79.5" x2="266.5" y1="713.1563" y2="713.1563"/><text fill="#000000" font-family="sans-serif" font-size="13" lengthAdjust="spacing" textLength="164" x="91.5" y="708.4014">Inform user is not authorized</text><!--SRC=[dPDDSi8m38NtFeKkm0LOT2P3ks1DcAwLM0mU7BjZoNJewMkRj61-2cas-T5xxvEI27ln0Lh2Vai1aA793rJdezCO3h1UAeMzc3qAZJLLJZ1xISKvh99HHqk0q5jaFgcJTRs4MT8LmnoQA5iVp1UAyGvOK28hJUS6j09c0pWgIIj8Hnspy34mWJKifNhkp_TLUwEOoLAViKLHCwy93UyODYbaaIU2reYb9r0NuecKTwATniDZpYZySwR7k9LWWDSalmBUcomxv6IPEDwRqxTnTsYLVYBhs6bhXgTf5uv_p3Q5LkclMTRxZvBkuj2bhVGR-4pVd8_nnms9d0g60VTeB7RfbolL6zjIY7sWQkj-j9TeiantWfOkjJJyWfsNCtZnEgsAFryyvw_Nl7uJEUKR]--></g></svg>