<?xml version="1.0" encoding="us-ascii" standalone="no"?><svg xmlns="http://www.w3.org/2000/svg" xmlns:xlink="http://www.w3.org/1999/xlink" contentStyleType="text/css" height="786.6px" preserveAspectRatio="none" style="width:676px;height:786px;background:#FFFFFF;" version="1.1" viewBox="0 0 676 786" width="676.8px" zoomAndPan="magnify"><defs/><g><!--class CreateUpdateExamUI--><g id="elem_CreateUpdateExamUI"><rect codeLine="2" fill="#F1F1F1" height="36.3492" id="CreateUpdateExamUI" rx="1.5" ry="1.5" style="stroke:#181818;stroke-width:0.3;" width="99.6" x="375.3" y="4.2"/><ellipse cx="384.3" cy="17.5746" fill="#ADD1B2" rx="6.6" ry="6.6" style="stroke:#181818;stroke-width:0.6;"/><path d="M385.9594,15.0996 Q386.0531,14.9684 386.1656,14.9027 Q386.2781,14.8371 386.4094,14.8371 Q386.6344,14.8371 386.775,14.9965 Q386.9156,15.1465 386.9156,15.5121 L386.9156,16.384 Q386.9156,16.7496 386.775,16.909 Q386.6344,17.0684 386.4094,17.0684 Q386.2031,17.0684 386.0813,16.9465 Q385.9594,16.834 385.8938,16.5246 Q385.8656,16.309 385.7531,16.1965 Q385.5563,15.9715 385.1906,15.8402 Q384.825,15.709 384.45,15.709 Q383.9906,15.709 383.6063,15.9059 Q383.2313,16.1027 382.9313,16.5527 Q382.6406,17.0027 382.6406,17.6215 L382.6406,18.2777 Q382.6406,19.0184 383.175,19.5152 Q383.7094,20.0027 384.6656,20.0027 Q385.2281,20.0027 385.6219,19.8527 Q385.8563,19.759 386.1094,19.4965 Q386.2688,19.3371 386.3531,19.2902 Q386.4469,19.2434 386.5687,19.2434 Q386.7656,19.2434 386.9156,19.4027 Q387.075,19.5527 387.075,19.759 Q387.075,19.9652 386.8688,20.209 Q386.5687,20.5559 386.0906,20.7527 Q385.4437,21.0246 384.6656,21.0246 Q383.7562,21.0246 383.0344,20.6496 Q382.4437,20.3496 382.0313,19.7121 Q381.6188,19.0652 381.6188,18.2965 L381.6188,17.6027 Q381.6188,16.8059 381.9844,16.1215 Q382.3594,15.4277 383.0156,15.0621 Q383.6719,14.6871 384.4125,14.6871 Q384.8531,14.6871 385.2375,14.7902 Q385.6312,14.884 385.9594,15.0996 Z " fill="#000000"/><text fill="#000000" font-family="sans-serif" font-size="7.2" font-style="italic" lengthAdjust="spacing" textLength="16.2" x="424.8" y="14.9695">&#171;UI&#187;</text><text fill="#000000" font-family="sans-serif" font-size="8.4" lengthAdjust="spacing" textLength="80.4" x="392.7" y="25.841">CreateUpdateExamUI</text><line style="stroke:#181818;stroke-width:0.3;" x1="375.9" x2="474.3" y1="30.9492" y2="30.9492"/><line style="stroke:#181818;stroke-width:0.3;" x1="375.9" x2="474.3" y1="35.7492" y2="35.7492"/></g><!--class CreateUpdateExamController--><g id="elem_CreateUpdateExamController"><rect codeLine="5" fill="#F1F1F1" height="81.0398" id="CreateUpdateExamController" rx="1.5" ry="1.5" style="stroke:#181818;stroke-width:0.3;" width="204.6" x="322.8" y="77.4"/><ellipse cx="367.35" cy="90.7746" fill="#ADD1B2" rx="6.6" ry="6.6" style="stroke:#181818;stroke-width:0.6;"/><path d="M369.0094,88.2996 Q369.1031,88.1684 369.2156,88.1027 Q369.3281,88.0371 369.4594,88.0371 Q369.6844,88.0371 369.825,88.1965 Q369.9656,88.3465 369.9656,88.7121 L369.9656,89.584 Q369.9656,89.9496 369.825,90.109 Q369.6844,90.2684 369.4594,90.2684 Q369.2531,90.2684 369.1312,90.1465 Q369.0094,90.034 368.9437,89.7246 Q368.9156,89.509 368.8031,89.3965 Q368.6063,89.1715 368.2406,89.0402 Q367.875,88.909 367.5,88.909 Q367.0406,88.909 366.6563,89.1059 Q366.2813,89.3027 365.9813,89.7527 Q365.6906,90.2027 365.6906,90.8215 L365.6906,91.4777 Q365.6906,92.2184 366.225,92.7152 Q366.7594,93.2027 367.7156,93.2027 Q368.2781,93.2027 368.6719,93.0527 Q368.9063,92.959 369.1594,92.6965 Q369.3187,92.5371 369.4031,92.4902 Q369.4969,92.4434 369.6188,92.4434 Q369.8156,92.4434 369.9656,92.6027 Q370.125,92.7527 370.125,92.959 Q370.125,93.1652 369.9188,93.409 Q369.6188,93.7559 369.1406,93.9527 Q368.4938,94.2246 367.7156,94.2246 Q366.8063,94.2246 366.0844,93.8496 Q365.4938,93.5496 365.0813,92.9121 Q364.6688,92.2652 364.6688,91.4965 L364.6688,90.8027 Q364.6688,90.0059 365.0344,89.3215 Q365.4094,88.6277 366.0656,88.2621 Q366.7219,87.8871 367.4625,87.8871 Q367.9031,87.8871 368.2875,87.9902 Q368.6813,88.084 369.0094,88.2996 Z " fill="#000000"/><text fill="#000000" font-family="sans-serif" font-size="7.2" font-style="italic" lengthAdjust="spacing" textLength="40.8" x="414.45" y="88.1695">&#171;Controller&#187;</text><text fill="#000000" font-family="sans-serif" font-size="8.4" lengthAdjust="spacing" textLength="110.4" x="379.65" y="99.041">CreateUpdateExamController</text><line style="stroke:#181818;stroke-width:0.3;" x1="323.4" x2="526.8" y1="104.1492" y2="104.1492"/><line style="stroke:#181818;stroke-width:0.3;" x1="323.4" x2="526.8" y1="108.9492" y2="108.9492"/><ellipse cx="329.4" cy="117.8355" fill="#84BE84" rx="1.8" ry="1.8" style="stroke:#038048;stroke-width:0.6;"/><text fill="#000000" font-family="sans-serif" font-size="8.4" lengthAdjust="spacing" textLength="81" x="334.8" y="120.4137">File : importFile(path)</text><ellipse cx="329.4" cy="129.0082" fill="#84BE84" rx="1.8" ry="1.8" style="stroke:#038048;stroke-width:0.6;"/><text fill="#000000" font-family="sans-serif" font-size="8.4" lengthAdjust="spacing" textLength="88.8" x="334.8" y="131.5863">Exam : createExam(file)</text><ellipse cx="329.4" cy="140.1809" fill="#84BE84" rx="1.8" ry="1.8" style="stroke:#038048;stroke-width:0.6;"/><text fill="#000000" font-family="sans-serif" font-size="8.4" lengthAdjust="spacing" textLength="189" x="334.8" y="142.759">Iterable&lt;Exam&gt; : findExamsAvailableForTeacher()</text><ellipse cx="329.4" cy="151.3535" fill="#84BE84" rx="1.8" ry="1.8" style="stroke:#038048;stroke-width:0.6;"/><text fill="#000000" font-family="sans-serif" font-size="8.4" lengthAdjust="spacing" textLength="115.8" x="334.8" y="153.9316">Exam : updateExam(exam, file)</text></g><!--class CreateUpdateExamService--><g id="elem_CreateUpdateExamService"><rect codeLine="12" fill="#F1F1F1" height="73.4906" id="CreateUpdateExamService" rx="1.5" ry="1.5" style="stroke:#181818;stroke-width:0.3;" width="204.6" x="322.8" y="195"/><ellipse cx="371.85" cy="204.6" fill="#ADD1B2" rx="6.6" ry="6.6" style="stroke:#181818;stroke-width:0.6;"/><path d="M373.5094,202.125 Q373.6031,201.9938 373.7156,201.9281 Q373.8281,201.8625 373.9594,201.8625 Q374.1844,201.8625 374.325,202.0219 Q374.4656,202.1719 374.4656,202.5375 L374.4656,203.4094 Q374.4656,203.775 374.325,203.9344 Q374.1844,204.0938 373.9594,204.0938 Q373.7531,204.0938 373.6312,203.9719 Q373.5094,203.8594 373.4437,203.55 Q373.4156,203.3344 373.3031,203.2219 Q373.1063,202.9969 372.7406,202.8656 Q372.375,202.7344 372,202.7344 Q371.5406,202.7344 371.1563,202.9313 Q370.7813,203.1281 370.4813,203.5781 Q370.1906,204.0281 370.1906,204.6469 L370.1906,205.3031 Q370.1906,206.0438 370.725,206.5406 Q371.2594,207.0281 372.2156,207.0281 Q372.7781,207.0281 373.1719,206.8781 Q373.4063,206.7844 373.6594,206.5219 Q373.8187,206.3625 373.9031,206.3156 Q373.9969,206.2687 374.1188,206.2687 Q374.3156,206.2687 374.4656,206.4281 Q374.625,206.5781 374.625,206.7844 Q374.625,206.9906 374.4188,207.2344 Q374.1188,207.5812 373.6406,207.7781 Q372.9938,208.05 372.2156,208.05 Q371.3063,208.05 370.5844,207.675 Q369.9938,207.375 369.5813,206.7375 Q369.1688,206.0906 369.1688,205.3219 L369.1688,204.6281 Q369.1688,203.8312 369.5344,203.1469 Q369.9094,202.4531 370.5656,202.0875 Q371.2219,201.7125 371.9625,201.7125 Q372.4031,201.7125 372.7875,201.8156 Q373.1813,201.9094 373.5094,202.125 Z " fill="#000000"/><text fill="#000000" font-family="sans-serif" font-size="8.4" lengthAdjust="spacing" textLength="101.4" x="384.15" y="208.0781">CreateUpdateExamService</text><line style="stroke:#181818;stroke-width:0.3;" x1="323.4" x2="526.8" y1="214.2" y2="214.2"/><line style="stroke:#181818;stroke-width:0.3;" x1="323.4" x2="526.8" y1="219" y2="219"/><ellipse cx="329.4" cy="227.8863" fill="#84BE84" rx="1.8" ry="1.8" style="stroke:#038048;stroke-width:0.6;"/><text fill="#000000" font-family="sans-serif" font-size="8.4" lengthAdjust="spacing" textLength="81" x="334.8" y="230.4645">File : importFile(path)</text><ellipse cx="329.4" cy="239.059" fill="#84BE84" rx="1.8" ry="1.8" style="stroke:#038048;stroke-width:0.6;"/><text fill="#000000" font-family="sans-serif" font-size="8.4" lengthAdjust="spacing" textLength="88.8" x="334.8" y="241.6371">Exam : createExam(file)</text><ellipse cx="329.4" cy="250.2316" fill="#84BE84" rx="1.8" ry="1.8" style="stroke:#038048;stroke-width:0.6;"/><text fill="#000000" font-family="sans-serif" font-size="8.4" lengthAdjust="spacing" textLength="189" x="334.8" y="252.8098">Iterable&lt;Exam&gt; : findExamsAvailableForTeacher()</text><ellipse cx="329.4" cy="261.4043" fill="#84BE84" rx="1.8" ry="1.8" style="stroke:#038048;stroke-width:0.6;"/><text fill="#000000" font-family="sans-serif" font-size="8.4" lengthAdjust="spacing" textLength="115.8" x="334.8" y="263.9824">Exam : updateExam(exam, file)</text></g><!--class EvalVisitor--><g id="elem_EvalVisitor"><rect codeLine="19" fill="#F1F1F1" height="47.5219" id="EvalVisitor" rx="1.5" ry="1.5" style="stroke:#181818;stroke-width:0.3;" width="133.2" x="255.3" y="304.8"/><ellipse cx="299.55" cy="318.1746" fill="#ADD1B2" rx="6.6" ry="6.6" style="stroke:#181818;stroke-width:0.6;"/><path d="M301.2094,315.6996 Q301.3031,315.5684 301.4156,315.5027 Q301.5281,315.4371 301.6594,315.4371 Q301.8844,315.4371 302.025,315.5965 Q302.1656,315.7465 302.1656,316.1121 L302.1656,316.984 Q302.1656,317.3496 302.025,317.509 Q301.8844,317.6684 301.6594,317.6684 Q301.4531,317.6684 301.3313,317.5465 Q301.2094,317.434 301.1438,317.1246 Q301.1156,316.909 301.0031,316.7965 Q300.8063,316.5715 300.4406,316.4402 Q300.075,316.309 299.7,316.309 Q299.2406,316.309 298.8563,316.5059 Q298.4813,316.7027 298.1813,317.1527 Q297.8906,317.6027 297.8906,318.2215 L297.8906,318.8777 Q297.8906,319.6184 298.425,320.1152 Q298.9594,320.6027 299.9156,320.6027 Q300.4781,320.6027 300.8719,320.4527 Q301.1063,320.359 301.3594,320.0965 Q301.5188,319.9371 301.6031,319.8902 Q301.6969,319.8434 301.8187,319.8434 Q302.0156,319.8434 302.1656,320.0027 Q302.325,320.1527 302.325,320.359 Q302.325,320.5652 302.1188,320.809 Q301.8187,321.1559 301.3406,321.3527 Q300.6937,321.6246 299.9156,321.6246 Q299.0062,321.6246 298.2844,321.2496 Q297.6937,320.9496 297.2813,320.3121 Q296.8688,319.6652 296.8688,318.8965 L296.8688,318.2027 Q296.8688,317.4059 297.2344,316.7215 Q297.6094,316.0277 298.2656,315.6621 Q298.9219,315.2871 299.6625,315.2871 Q300.1031,315.2871 300.4875,315.3902 Q300.8812,315.484 301.2094,315.6996 Z " fill="#000000"/><text fill="#000000" font-family="sans-serif" font-size="7.2" font-style="italic" lengthAdjust="spacing" textLength="28.8" x="317.25" y="315.5695">&#171;Visitor&#187;</text><text fill="#000000" font-family="sans-serif" font-size="8.4" lengthAdjust="spacing" textLength="39.6" x="311.85" y="326.441">EvalVisitor</text><line style="stroke:#181818;stroke-width:0.3;" x1="255.9" x2="387.9" y1="331.5492" y2="331.5492"/><line style="stroke:#181818;stroke-width:0.3;" x1="255.9" x2="387.9" y1="336.3492" y2="336.3492"/><ellipse cx="261.9" cy="345.2355" fill="#84BE84" rx="1.8" ry="1.8" style="stroke:#038048;stroke-width:0.6;"/><text fill="#000000" font-family="sans-serif" font-size="8.4" lengthAdjust="spacing" textLength="117.6" x="267.3" y="347.8137">Exam : buildExam(tree, course)</text></g><!--class ExamBuilder--><g id="elem_ExamBuilder"><rect codeLine="23" fill="#F1F1F1" height="136.9031" id="ExamBuilder" rx="1.5" ry="1.5" style="stroke:#181818;stroke-width:0.3;" width="174" x="234.9" y="461.4"/><ellipse cx="295.95" cy="474.7746" fill="#ADD1B2" rx="6.6" ry="6.6" style="stroke:#181818;stroke-width:0.6;"/><path d="M297.6094,472.2996 Q297.7031,472.1684 297.8156,472.1027 Q297.9281,472.0371 298.0594,472.0371 Q298.2844,472.0371 298.425,472.1965 Q298.5656,472.3465 298.5656,472.7121 L298.5656,473.584 Q298.5656,473.9496 298.425,474.109 Q298.2844,474.2684 298.0594,474.2684 Q297.8531,474.2684 297.7313,474.1465 Q297.6094,474.034 297.5438,473.7246 Q297.5156,473.509 297.4031,473.3965 Q297.2063,473.1715 296.8406,473.0402 Q296.475,472.909 296.1,472.909 Q295.6406,472.909 295.2562,473.1059 Q294.8812,473.3027 294.5813,473.7527 Q294.2906,474.2027 294.2906,474.8215 L294.2906,475.4777 Q294.2906,476.2184 294.825,476.7152 Q295.3594,477.2027 296.3156,477.2027 Q296.8781,477.2027 297.2719,477.0527 Q297.5062,476.959 297.7594,476.6965 Q297.9188,476.5371 298.0031,476.4902 Q298.0969,476.4434 298.2188,476.4434 Q298.4156,476.4434 298.5656,476.6027 Q298.725,476.7527 298.725,476.959 Q298.725,477.1652 298.5188,477.409 Q298.2188,477.7559 297.7406,477.9527 Q297.0938,478.2246 296.3156,478.2246 Q295.4063,478.2246 294.6844,477.8496 Q294.0938,477.5496 293.6813,476.9121 Q293.2688,476.2652 293.2688,475.4965 L293.2688,474.8027 Q293.2688,474.0059 293.6344,473.3215 Q294.0094,472.6277 294.6656,472.2621 Q295.3219,471.8871 296.0625,471.8871 Q296.5031,471.8871 296.8875,471.9902 Q297.2813,472.084 297.6094,472.2996 Z " fill="#000000"/><text fill="#000000" font-family="sans-serif" font-size="7.2" font-style="italic" lengthAdjust="spacing" textLength="31.8" x="315.75" y="472.1695">&#171;Builder&#187;</text><text fill="#000000" font-family="sans-serif" font-size="8.4" lengthAdjust="spacing" textLength="46.8" x="308.25" y="483.041">ExamBuilder</text><line style="stroke:#181818;stroke-width:0.3;" x1="235.5" x2="408.3" y1="488.1492" y2="488.1492"/><line style="stroke:#181818;stroke-width:0.3;" x1="235.5" x2="408.3" y1="492.9492" y2="492.9492"/><ellipse cx="241.5" cy="501.8355" fill="#84BE84" rx="1.8" ry="1.8" style="stroke:#038048;stroke-width:0.6;"/><text fill="#000000" font-family="sans-serif" font-size="8.4" lengthAdjust="spacing" textLength="120.6" x="246.9" y="504.4137">ExamBuilder : ofCourse(course)</text><ellipse cx="241.5" cy="513.0082" fill="#84BE84" rx="1.8" ry="1.8" style="stroke:#038048;stroke-width:0.6;"/><text fill="#000000" font-family="sans-serif" font-size="8.4" lengthAdjust="spacing" textLength="103.8" x="246.9" y="515.5863">ExamBuilder : withTitle(title)</text><ellipse cx="241.5" cy="524.1809" fill="#84BE84" rx="1.8" ry="1.8" style="stroke:#038048;stroke-width:0.6;"/><text fill="#000000" font-family="sans-serif" font-size="8.4" lengthAdjust="spacing" textLength="158.4" x="246.9" y="526.759">ExamBuilder : withDescription(description)</text><ellipse cx="241.5" cy="535.3535" fill="#84BE84" rx="1.8" ry="1.8" style="stroke:#038048;stroke-width:0.6;"/><text fill="#000000" font-family="sans-serif" font-size="8.4" lengthAdjust="spacing" textLength="150.6" x="246.9" y="537.9316">ExamBuilder : withOpenDate(openDate)</text><ellipse cx="241.5" cy="546.5262" fill="#84BE84" rx="1.8" ry="1.8" style="stroke:#038048;stroke-width:0.6;"/><text fill="#000000" font-family="sans-serif" font-size="8.4" lengthAdjust="spacing" textLength="151.8" x="246.9" y="549.1043">ExamBuilder : withCloseDate(closeDate)</text><ellipse cx="241.5" cy="557.6988" fill="#84BE84" rx="1.8" ry="1.8" style="stroke:#038048;stroke-width:0.6;"/><text fill="#000000" font-family="sans-serif" font-size="8.4" lengthAdjust="spacing" textLength="148.2" x="246.9" y="560.277">ExamBuilder : withLanguage(language)</text><ellipse cx="241.5" cy="568.8715" fill="#84BE84" rx="1.8" ry="1.8" style="stroke:#038048;stroke-width:0.6;"/><text fill="#000000" font-family="sans-serif" font-size="8.4" lengthAdjust="spacing" textLength="142.8" x="246.9" y="571.4496">ExamBuilder : withStructure(structure)</text><ellipse cx="241.5" cy="580.0441" fill="#84BE84" rx="1.8" ry="1.8" style="stroke:#038048;stroke-width:0.6;"/><text fill="#000000" font-family="sans-serif" font-size="8.4" lengthAdjust="spacing" textLength="129" x="246.9" y="582.6223">ExamBuilder : withHeader(header)</text><ellipse cx="241.5" cy="591.2168" fill="#84BE84" rx="1.8" ry="1.8" style="stroke:#038048;stroke-width:0.6;"/><text fill="#000000" font-family="sans-serif" font-size="8.4" lengthAdjust="spacing" textLength="51.6" x="246.9" y="593.7949">Exam : build()</text></g><!--class HeaderBuilder--><g id="elem_HeaderBuilder"><rect codeLine="35" fill="#F1F1F1" height="81.0398" id="HeaderBuilder" rx="1.5" ry="1.5" style="stroke:#181818;stroke-width:0.3;" width="209.4" x="4.2" y="489.3"/><ellipse cx="79.35" cy="502.6746" fill="#ADD1B2" rx="6.6" ry="6.6" style="stroke:#181818;stroke-width:0.6;"/><path d="M81.0094,500.1996 Q81.1031,500.0684 81.2156,500.0027 Q81.3281,499.9371 81.4594,499.9371 Q81.6844,499.9371 81.825,500.0965 Q81.9656,500.2465 81.9656,500.6121 L81.9656,501.484 Q81.9656,501.8496 81.825,502.009 Q81.6844,502.1684 81.4594,502.1684 Q81.2531,502.1684 81.1313,502.0465 Q81.0094,501.934 80.9438,501.6246 Q80.9156,501.409 80.8031,501.2965 Q80.6063,501.0715 80.2406,500.9402 Q79.875,500.809 79.5,500.809 Q79.0406,500.809 78.6563,501.0059 Q78.2813,501.2027 77.9813,501.6527 Q77.6906,502.1027 77.6906,502.7215 L77.6906,503.3777 Q77.6906,504.1184 78.225,504.6152 Q78.7594,505.1027 79.7156,505.1027 Q80.2781,505.1027 80.6719,504.9527 Q80.9063,504.859 81.1594,504.5965 Q81.3188,504.4371 81.4031,504.3902 Q81.4969,504.3434 81.6187,504.3434 Q81.8156,504.3434 81.9656,504.5027 Q82.125,504.6527 82.125,504.859 Q82.125,505.0652 81.9188,505.309 Q81.6187,505.6559 81.1406,505.8527 Q80.4937,506.1246 79.7156,506.1246 Q78.8062,506.1246 78.0844,505.7496 Q77.4937,505.4496 77.0813,504.8121 Q76.6688,504.1652 76.6688,503.3965 L76.6688,502.7027 Q76.6688,501.9059 77.0344,501.2215 Q77.4094,500.5277 78.0656,500.1621 Q78.7219,499.7871 79.4625,499.7871 Q79.9031,499.7871 80.2875,499.8902 Q80.6812,499.984 81.0094,500.1996 Z " fill="#000000"/><text fill="#000000" font-family="sans-serif" font-size="7.2" font-style="italic" lengthAdjust="spacing" textLength="31.8" x="102.75" y="500.0695">&#171;Builder&#187;</text><text fill="#000000" font-family="sans-serif" font-size="8.4" lengthAdjust="spacing" textLength="54" x="91.65" y="510.941">HeaderBuilder</text><line style="stroke:#181818;stroke-width:0.3;" x1="4.8" x2="213" y1="516.0492" y2="516.0492"/><line style="stroke:#181818;stroke-width:0.3;" x1="4.8" x2="213" y1="520.8492" y2="520.8492"/><ellipse cx="10.8" cy="529.7355" fill="#84BE84" rx="1.8" ry="1.8" style="stroke:#038048;stroke-width:0.6;"/><text fill="#000000" font-family="sans-serif" font-size="8.4" lengthAdjust="spacing" textLength="193.8" x="16.2" y="532.3137">HeaderBuilder : withDescription(headerDescription)</text><ellipse cx="10.8" cy="540.9082" fill="#84BE84" rx="1.8" ry="1.8" style="stroke:#038048;stroke-width:0.6;"/><text fill="#000000" font-family="sans-serif" font-size="8.4" lengthAdjust="spacing" textLength="192.6" x="16.2" y="543.4863">HeaderBuilder : withFeedbackType(feedbackType)</text><ellipse cx="10.8" cy="552.0809" fill="#84BE84" rx="1.8" ry="1.8" style="stroke:#038048;stroke-width:0.6;"/><text fill="#000000" font-family="sans-serif" font-size="8.4" lengthAdjust="spacing" textLength="166.2" x="16.2" y="554.659">HeaderBuilder : withGradeType(gradeType)</text><ellipse cx="10.8" cy="563.2535" fill="#84BE84" rx="1.8" ry="1.8" style="stroke:#038048;stroke-width:0.6;"/><text fill="#000000" font-family="sans-serif" font-size="8.4" lengthAdjust="spacing" textLength="58.8" x="16.2" y="565.8316">Header : build()</text></g><!--class Exam--><g id="elem_Exam"><rect codeLine="42" fill="#F1F1F1" height="136.9031" id="Exam" rx="1.5" ry="1.5" style="stroke:#181818;stroke-width:0.3;" width="111.6" x="350.7" y="645.6"/><ellipse cx="387.75" cy="658.9746" fill="#ADD1B2" rx="6.6" ry="6.6" style="stroke:#181818;stroke-width:0.6;"/><path d="M389.4094,656.4996 Q389.5031,656.3684 389.6156,656.3027 Q389.7281,656.2371 389.8594,656.2371 Q390.0844,656.2371 390.225,656.3965 Q390.3656,656.5465 390.3656,656.9121 L390.3656,657.784 Q390.3656,658.1496 390.225,658.309 Q390.0844,658.4684 389.8594,658.4684 Q389.6531,658.4684 389.5313,658.3465 Q389.4094,658.234 389.3438,657.9246 Q389.3156,657.709 389.2031,657.5965 Q389.0062,657.3715 388.6406,657.2402 Q388.275,657.109 387.9,657.109 Q387.4406,657.109 387.0563,657.3059 Q386.6813,657.5027 386.3812,657.9527 Q386.0906,658.4027 386.0906,659.0215 L386.0906,659.6777 Q386.0906,660.4184 386.625,660.9152 Q387.1594,661.4027 388.1156,661.4027 Q388.6781,661.4027 389.0719,661.2527 Q389.3063,661.159 389.5594,660.8965 Q389.7188,660.7371 389.8031,660.6902 Q389.8969,660.6434 390.0188,660.6434 Q390.2156,660.6434 390.3656,660.8027 Q390.525,660.9527 390.525,661.159 Q390.525,661.3652 390.3187,661.609 Q390.0188,661.9559 389.5406,662.1527 Q388.8938,662.4246 388.1156,662.4246 Q387.2063,662.4246 386.4844,662.0496 Q385.8938,661.7496 385.4813,661.1121 Q385.0687,660.4652 385.0687,659.6965 L385.0687,659.0027 Q385.0687,658.2059 385.4344,657.5215 Q385.8094,656.8277 386.4656,656.4621 Q387.1219,656.0871 387.8625,656.0871 Q388.3031,656.0871 388.6875,656.1902 Q389.0813,656.284 389.4094,656.4996 Z " fill="#000000"/><text fill="#000000" font-family="sans-serif" font-size="7.2" font-style="italic" lengthAdjust="spacing" textLength="34.8" x="398.85" y="656.3695">&#171;Domain&#187;</text><text fill="#000000" font-family="sans-serif" font-size="8.4" lengthAdjust="spacing" textLength="20.4" x="406.05" y="667.241">Exam</text><line style="stroke:#181818;stroke-width:0.3;" x1="351.3" x2="461.7" y1="672.3492" y2="672.3492"/><rect fill="none" height="3.6" style="stroke:#C82930;stroke-width:0.6;" width="3.6" x="355.5" y="679.4355"/><text fill="#000000" font-family="sans-serif" font-size="8.4" lengthAdjust="spacing" textLength="54" x="362.7" y="683.8137">Long : examID</text><rect fill="none" height="3.6" style="stroke:#C82930;stroke-width:0.6;" width="3.6" x="355.5" y="690.6082"/><text fill="#000000" font-family="sans-serif" font-size="8.4" lengthAdjust="spacing" textLength="60.6" x="362.7" y="694.9863">Course : course</text><rect fill="none" height="3.6" style="stroke:#C82930;stroke-width:0.6;" width="3.6" x="355.5" y="701.7809"/><text fill="#000000" font-family="sans-serif" font-size="8.4" lengthAdjust="spacing" textLength="70.8" x="362.7" y="706.159">String : description</text><rect fill="none" height="3.6" style="stroke:#C82930;stroke-width:0.6;" width="3.6" x="355.5" y="712.9535"/><text fill="#000000" font-family="sans-serif" font-size="8.4" lengthAdjust="spacing" textLength="62.4" x="362.7" y="717.3316">Date : openDate</text><rect fill="none" height="3.6" style="stroke:#C82930;stroke-width:0.6;" width="3.6" x="355.5" y="724.1262"/><text fill="#000000" font-family="sans-serif" font-size="8.4" lengthAdjust="spacing" textLength="63" x="362.7" y="728.5043">Date : closeDate</text><rect fill="none" height="3.6" style="stroke:#C82930;stroke-width:0.6;" width="3.6" x="355.5" y="735.2988"/><text fill="#000000" font-family="sans-serif" font-size="8.4" lengthAdjust="spacing" textLength="81" x="362.7" y="739.677">Language : language</text><rect fill="none" height="3.6" style="stroke:#C82930;stroke-width:0.6;" width="3.6" x="355.5" y="746.4715"/><text fill="#000000" font-family="sans-serif" font-size="8.4" lengthAdjust="spacing" textLength="61.8" x="362.7" y="750.8496">Header : header</text><rect fill="none" height="3.6" style="stroke:#C82930;stroke-width:0.6;" width="3.6" x="355.5" y="757.6441"/><text fill="#000000" font-family="sans-serif" font-size="8.4" lengthAdjust="spacing" textLength="75.6" x="362.7" y="762.0223">Structure : structure</text><rect fill="none" height="3.6" style="stroke:#C82930;stroke-width:0.6;" width="3.6" x="355.5" y="768.8168"/><text fill="#000000" font-family="sans-serif" font-size="8.4" lengthAdjust="spacing" textLength="96" x="362.7" y="773.1949">ExamStatus : ExamStatus</text><line style="stroke:#181818;stroke-width:0.3;" x1="351.3" x2="461.7" y1="777.7031" y2="777.7031"/></g><!--class Header--><g id="elem_Header"><rect codeLine="54" fill="#F1F1F1" height="69.8672" id="Header" rx="1.5" ry="1.5" style="stroke:#181818;stroke-width:0.3;" width="133.8" x="42" y="679.2"/><ellipse cx="90.15" cy="692.5746" fill="#ADD1B2" rx="6.6" ry="6.6" style="stroke:#181818;stroke-width:0.6;"/><path d="M91.8094,690.0996 Q91.9031,689.9684 92.0156,689.9027 Q92.1281,689.8371 92.2594,689.8371 Q92.4844,689.8371 92.625,689.9965 Q92.7656,690.1465 92.7656,690.5121 L92.7656,691.384 Q92.7656,691.7496 92.625,691.909 Q92.4844,692.0684 92.2594,692.0684 Q92.0531,692.0684 91.9312,691.9465 Q91.8094,691.834 91.7437,691.5246 Q91.7156,691.309 91.6031,691.1965 Q91.4063,690.9715 91.0406,690.8402 Q90.675,690.709 90.3,690.709 Q89.8406,690.709 89.4563,690.9059 Q89.0813,691.1027 88.7813,691.5527 Q88.4906,692.0027 88.4906,692.6215 L88.4906,693.2777 Q88.4906,694.0184 89.025,694.5152 Q89.5594,695.0027 90.5156,695.0027 Q91.0781,695.0027 91.4719,694.8527 Q91.7063,694.759 91.9594,694.4965 Q92.1187,694.3371 92.2031,694.2902 Q92.2969,694.2434 92.4188,694.2434 Q92.6156,694.2434 92.7656,694.4027 Q92.925,694.5527 92.925,694.759 Q92.925,694.9652 92.7188,695.209 Q92.4188,695.5559 91.9406,695.7527 Q91.2938,696.0246 90.5156,696.0246 Q89.6063,696.0246 88.8844,695.6496 Q88.2938,695.3496 87.8813,694.7121 Q87.4688,694.0652 87.4688,693.2965 L87.4688,692.6027 Q87.4688,691.8059 87.8344,691.1215 Q88.2094,690.4277 88.8656,690.0621 Q89.5219,689.6871 90.2625,689.6871 Q90.7031,689.6871 91.0875,689.7902 Q91.4813,689.884 91.8094,690.0996 Z " fill="#000000"/><text fill="#000000" font-family="sans-serif" font-size="7.2" font-style="italic" lengthAdjust="spacing" textLength="34.8" x="101.25" y="689.9695">&#171;Domain&#187;</text><text fill="#000000" font-family="sans-serif" font-size="8.4" lengthAdjust="spacing" textLength="27.6" x="104.85" y="700.841">Header</text><line style="stroke:#181818;stroke-width:0.3;" x1="42.6" x2="175.2" y1="705.9492" y2="705.9492"/><rect fill="none" height="3.6" style="stroke:#C82930;stroke-width:0.6;" width="3.6" x="46.8" y="713.0355"/><text fill="#000000" font-family="sans-serif" font-size="8.4" lengthAdjust="spacing" textLength="70.8" x="54" y="717.4137">String : description</text><rect fill="none" height="3.6" style="stroke:#C82930;stroke-width:0.6;" width="3.6" x="46.8" y="724.2082"/><text fill="#000000" font-family="sans-serif" font-size="8.4" lengthAdjust="spacing" textLength="118.2" x="54" y="728.5863">FeedbackType : feedbackType</text><rect fill="none" height="3.6" style="stroke:#C82930;stroke-width:0.6;" width="3.6" x="46.8" y="735.3809"/><text fill="#000000" font-family="sans-serif" font-size="8.4" lengthAdjust="spacing" textLength="100.2" x="54" y="739.759">HeaderType : headerType</text><line style="stroke:#181818;stroke-width:0.3;" x1="42.6" x2="175.2" y1="744.2672" y2="744.2672"/></g><!--class ExamRepository--><g id="elem_ExamRepository"><rect codeLine="60" fill="#F1F1F1" height="73.4906" id="ExamRepository" rx="1.5" ry="1.5" style="stroke:#181818;stroke-width:0.3;" width="187.8" x="346.2" y="370.2"/><ellipse cx="406.95" cy="379.8" fill="#ADD1B2" rx="6.6" ry="6.6" style="stroke:#181818;stroke-width:0.6;"/><path d="M408.6094,377.325 Q408.7031,377.1937 408.8156,377.1281 Q408.9281,377.0625 409.0594,377.0625 Q409.2844,377.0625 409.425,377.2219 Q409.5656,377.3719 409.5656,377.7375 L409.5656,378.6094 Q409.5656,378.975 409.425,379.1344 Q409.2844,379.2938 409.0594,379.2938 Q408.8531,379.2938 408.7313,379.1719 Q408.6094,379.0594 408.5438,378.75 Q408.5156,378.5344 408.4031,378.4219 Q408.2063,378.1969 407.8406,378.0656 Q407.475,377.9344 407.1,377.9344 Q406.6406,377.9344 406.2562,378.1312 Q405.8812,378.3281 405.5813,378.7781 Q405.2906,379.2281 405.2906,379.8469 L405.2906,380.5031 Q405.2906,381.2438 405.825,381.7406 Q406.3594,382.2281 407.3156,382.2281 Q407.8781,382.2281 408.2719,382.0781 Q408.5062,381.9844 408.7594,381.7219 Q408.9188,381.5625 409.0031,381.5156 Q409.0969,381.4688 409.2188,381.4688 Q409.4156,381.4688 409.5656,381.6281 Q409.725,381.7781 409.725,381.9844 Q409.725,382.1906 409.5188,382.4344 Q409.2188,382.7813 408.7406,382.9781 Q408.0938,383.25 407.3156,383.25 Q406.4063,383.25 405.6844,382.875 Q405.0938,382.575 404.6813,381.9375 Q404.2688,381.2906 404.2688,380.5219 L404.2688,379.8281 Q404.2688,379.0313 404.6344,378.3469 Q405.0094,377.6531 405.6656,377.2875 Q406.3219,376.9125 407.0625,376.9125 Q407.5031,376.9125 407.8875,377.0156 Q408.2813,377.1094 408.6094,377.325 Z " fill="#000000"/><text fill="#000000" font-family="sans-serif" font-size="8.4" lengthAdjust="spacing" textLength="61.2" x="419.25" y="383.2781">ExamRepository</text><line style="stroke:#181818;stroke-width:0.3;" x1="346.8" x2="533.4" y1="389.4" y2="389.4"/><line style="stroke:#181818;stroke-width:0.3;" x1="346.8" x2="533.4" y1="394.2" y2="394.2"/><ellipse cx="352.8" cy="403.0863" fill="#84BE84" rx="1.8" ry="1.8" style="stroke:#038048;stroke-width:0.6;"/><text fill="#000000" font-family="sans-serif" font-size="8.4" lengthAdjust="spacing" textLength="103.8" x="358.2" y="405.6645">boolean : existsByTitle(title)</text><ellipse cx="352.8" cy="414.259" fill="#84BE84" rx="1.8" ry="1.8" style="stroke:#038048;stroke-width:0.6;"/><text fill="#000000" font-family="sans-serif" font-size="8.4" lengthAdjust="spacing" textLength="172.2" x="358.2" y="416.8371">Iterable&lt;Exam&gt; : findExamsOfCourse(course)</text><ellipse cx="352.8" cy="425.4316" fill="#84BE84" rx="1.8" ry="1.8" style="stroke:#038048;stroke-width:0.6;"/><text fill="#000000" font-family="sans-serif" font-size="8.4" lengthAdjust="spacing" textLength="69" x="358.2" y="428.0098">void : save (exam)</text><ellipse cx="352.8" cy="436.6043" fill="#84BE84" rx="1.8" ry="1.8" style="stroke:#038048;stroke-width:0.6;"/><text fill="#000000" font-family="sans-serif" font-size="8.4" lengthAdjust="spacing" textLength="74.4" x="358.2" y="439.1824">void : delete (exam)</text></g><!--class ListAvailableCoursesController--><g id="elem_ListAvailableCoursesController"><rect codeLine="67" fill="#F1F1F1" height="47.5219" id="ListAvailableCoursesController" rx="1.5" ry="1.5" style="stroke:#181818;stroke-width:0.3;" width="215.4" x="457.2" y="304.8"/><ellipse cx="504.15" cy="318.1746" fill="#ADD1B2" rx="6.6" ry="6.6" style="stroke:#181818;stroke-width:0.6;"/><path d="M505.8094,315.6996 Q505.9031,315.5684 506.0156,315.5027 Q506.1281,315.4371 506.2594,315.4371 Q506.4844,315.4371 506.625,315.5965 Q506.7656,315.7465 506.7656,316.1121 L506.7656,316.984 Q506.7656,317.3496 506.625,317.509 Q506.4844,317.6684 506.2594,317.6684 Q506.0531,317.6684 505.9313,317.5465 Q505.8094,317.434 505.7438,317.1246 Q505.7156,316.909 505.6031,316.7965 Q505.4063,316.5715 505.0406,316.4402 Q504.675,316.309 504.3,316.309 Q503.8406,316.309 503.4562,316.5059 Q503.0812,316.7027 502.7813,317.1527 Q502.4906,317.6027 502.4906,318.2215 L502.4906,318.8777 Q502.4906,319.6184 503.025,320.1152 Q503.5594,320.6027 504.5156,320.6027 Q505.0781,320.6027 505.4719,320.4527 Q505.7062,320.359 505.9594,320.0965 Q506.1188,319.9371 506.2031,319.8902 Q506.2969,319.8434 506.4188,319.8434 Q506.6156,319.8434 506.7656,320.0027 Q506.925,320.1527 506.925,320.359 Q506.925,320.5652 506.7188,320.809 Q506.4188,321.1559 505.9406,321.3527 Q505.2938,321.6246 504.5156,321.6246 Q503.6063,321.6246 502.8844,321.2496 Q502.2938,320.9496 501.8812,320.3121 Q501.4688,319.6652 501.4688,318.8965 L501.4688,318.2027 Q501.4688,317.4059 501.8344,316.7215 Q502.2094,316.0277 502.8656,315.6621 Q503.5219,315.2871 504.2625,315.2871 Q504.7031,315.2871 505.0875,315.3902 Q505.4813,315.484 505.8094,315.6996 Z " fill="#000000"/><text fill="#000000" font-family="sans-serif" font-size="7.2" font-style="italic" lengthAdjust="spacing" textLength="40.8" x="554.25" y="315.5695">&#171;Controller&#187;</text><text fill="#000000" font-family="sans-serif" font-size="8.4" lengthAdjust="spacing" textLength="116.4" x="516.45" y="326.441">ListAvailableCoursesController</text><line style="stroke:#181818;stroke-width:0.3;" x1="457.8" x2="672" y1="331.5492" y2="331.5492"/><line style="stroke:#181818;stroke-width:0.3;" x1="457.8" x2="672" y1="336.3492" y2="336.3492"/><ellipse cx="463.8" cy="345.2355" fill="#84BE84" rx="1.8" ry="1.8" style="stroke:#038048;stroke-width:0.6;"/><text fill="#000000" font-family="sans-serif" font-size="8.4" lengthAdjust="spacing" textLength="199.8" x="469.2" y="347.8137">Iterable&lt;Course&gt; : listCoursesAvailableForTeacher()</text></g><!--link CreateUpdateExamUI to CreateUpdateExamController--><g id="link_CreateUpdateExamUI_CreateUpdateExamController"><path codeLine="72" d="M425.1,40.818 C425.1,50.22 425.1,62.226 425.1,73.92 " fill="none" id="CreateUpdateExamUI-to-CreateUpdateExamController" style="stroke:#181818;stroke-width:0.6;stroke-dasharray:7.0,7.0;"/><polygon fill="#181818" points="425.1,77.208,427.5,71.808,425.1,74.208,422.7,71.808,425.1,77.208" style="stroke:#181818;stroke-width:0.6;"/></g><!--link CreateUpdateExamController to CreateUpdateExamService--><g id="link_CreateUpdateExamController_CreateUpdateExamService"><path codeLine="73" d="M425.1,158.478 C425.1,169.332 425.1,181.068 425.1,191.874 " fill="none" id="CreateUpdateExamController-to-CreateUpdateExamService" style="stroke:#181818;stroke-width:0.6;stroke-dasharray:7.0,7.0;"/><polygon fill="#181818" points="425.1,194.898,427.5,189.498,425.1,191.898,422.7,189.498,425.1,194.898" style="stroke:#181818;stroke-width:0.6;"/></g><!--link CreateUpdateExamService to ListAvailableCoursesController--><g id="link_CreateUpdateExamService_ListAvailableCoursesController"><path codeLine="74" d="M477.756,268.242 C494.652,279.816 512.994,292.368 528.462,302.958 " fill="none" id="CreateUpdateExamService-to-ListAvailableCoursesController" style="stroke:#181818;stroke-width:0.6;"/><polygon fill="#181818" points="531.12,304.776,528.0098,299.7514,528.6411,303.0863,525.3063,303.7176,531.12,304.776" style="stroke:#181818;stroke-width:0.6;"/></g><!--link CreateUpdateExamService to ExamRepository--><g id="link_CreateUpdateExamService_ExamRepository"><path codeLine="75" d="M428.208,268.254 C430.698,297.126 434.184,337.554 436.734,367.182 " fill="none" id="CreateUpdateExamService-to-ExamRepository" style="stroke:#181818;stroke-width:0.6;"/><polygon fill="#181818" points="436.998,370.194,438.9267,364.6083,436.7411,367.205,434.1443,365.0194,436.998,370.194" style="stroke:#181818;stroke-width:0.6;"/></g><!--link ExamRepository to Exam--><g id="link_ExamRepository_Exam"><path codeLine="76" d="M436.146,443.4 C430.8,492.108 421.14,580.05 414.306,642.324 " fill="none" id="ExamRepository-to-Exam" style="stroke:#181818;stroke-width:0.6;"/><polygon fill="#181818" points="413.958,645.45,416.9445,640.3509,414.2921,642.4687,412.1743,639.8163,413.958,645.45" style="stroke:#181818;stroke-width:0.6;"/><text fill="#000000" font-family="sans-serif" font-size="7.8" lengthAdjust="spacing" textLength="19.8" x="434.7" y="533.117">saves</text></g><!--link CreateUpdateExamService to EvalVisitor--><g id="link_CreateUpdateExamService_EvalVisitor"><path codeLine="77" d="M386.082,268.38 C373.776,279.792 360.45,292.152 349.152,302.628 " fill="none" id="CreateUpdateExamService-to-EvalVisitor" style="stroke:#181818;stroke-width:0.6;"/><polygon fill="#181818" points="346.914,304.704,352.5067,302.7958,349.1151,302.6656,349.2453,299.274,346.914,304.704" style="stroke:#181818;stroke-width:0.6;"/></g><!--link EvalVisitor to ExamBuilder--><g id="link_EvalVisitor_ExamBuilder"><path codeLine="78" d="M321.9,352.248 C321.9,378.066 321.9,421.086 321.9,458.238 " fill="none" id="EvalVisitor-to-ExamBuilder" style="stroke:#181818;stroke-width:0.6;"/><polygon fill="#181818" points="321.9,461.358,324.3,455.958,321.9,458.358,319.5,455.958,321.9,461.358" style="stroke:#181818;stroke-width:0.6;"/></g><!--link ExamBuilder to Exam--><g id="link_ExamBuilder_Exam"><path codeLine="79" d="M353.28,598.284 C359.958,612.732 367.032,628.02 373.758,642.576 " fill="none" id="ExamBuilder-to-Exam" style="stroke:#181818;stroke-width:0.6;"/><polygon fill="#181818" points="375.096,645.474,375.0016,639.5654,373.8339,642.7524,370.647,641.5848,375.096,645.474" style="stroke:#181818;stroke-width:0.6;"/><polygon fill="#000000" points="371.159,624.7104,370.482,619.0443,367.2809,620.5243,371.159,624.7104" style="stroke:#000000;stroke-width:0.6;"/><text fill="#000000" font-family="sans-serif" font-size="7.8" lengthAdjust="spacing" textLength="25.8" x="375.3" y="625.217">creates</text></g><!--link EvalVisitor to HeaderBuilder--><g id="link_EvalVisitor_HeaderBuilder"><path codeLine="80" d="M297.258,352.248 C262.242,385.146 197.49,445.974 153.804,487.014 " fill="none" id="EvalVisitor-to-HeaderBuilder" style="stroke:#181818;stroke-width:0.6;"/><polygon fill="#181818" points="151.482,489.198,157.0592,487.2447,153.6666,487.1419,153.7694,483.7494,151.482,489.198" style="stroke:#181818;stroke-width:0.6;"/></g><!--link HeaderBuilder to Header--><g id="link_HeaderBuilder_Header"><path codeLine="81" d="M108.9,570.336 C108.9,601.752 108.9,645.21 108.9,675.966 " fill="none" id="HeaderBuilder-to-Header" style="stroke:#181818;stroke-width:0.6;"/><polygon fill="#181818" points="108.9,679.092,111.3,673.692,108.9,676.092,106.5,673.692,108.9,679.092" style="stroke:#181818;stroke-width:0.6;"/><polygon fill="#000000" points="111.9,624.9873,113.6634,619.5603,110.1366,619.5603,111.9,624.9873" style="stroke:#000000;stroke-width:0.6;"/><text fill="#000000" font-family="sans-serif" font-size="7.8" lengthAdjust="spacing" textLength="25.8" x="117.3" y="625.217">creates</text></g><!--SRC=[pLN1ZjiW4BtxApYowcO_O6LPwYQRDbAabRf9xyIUnAZ4M83THbN_lO0nDWxsNZS7PuRtPXXcO2PdH4gq5a0K7Ej2Vr__aEjnXzBqkCioz3VvboHvbBJcbHASCH2QF2ZM2EdV5xIb3D0pejUQ2sKKN1DLFZZK-D1eRjqQ1PyrfKTt2WGvCKWDacdUcLQ5aUNNbb1ce2qN1o1v2G9FV3O-I0pwyuWwpxD7UGVHqXm-V-2lBM4_gQIAcwGxQPHnv-RKK6Rtn4e0FAASDq86VZJsOaYsU4wQ-EdnPyJFQ-i0ztvYfDzKbGUgTAwK-SwJDY1pGMj5UOMBGPutUAkXskYqOEw4UUgQSGcMc_VIF7bFgaj3Be2P4-QfxqeqkMe4ODbBy-JlGBI2I_lt4AaC7bMY8o_L8cJSvx3RPtEVoPZX5g0uaVpNuLO3Fe-K9QDlGgzPYqilXVJOmUo1qtJ3huHM_ZWhjEVLHVFDzTvjt5ftlSoRie9RrKcdbZkw9GuoXJKNqrs8SDMNlj_HbLT3VQKTugFlSZZisvLO0xxS3hFTGX7LI0qEohIUiOCl76TS5TCnHceGgSDBhrWqIFaFgBdj2ZT_WKwSCo2LJJgLIhxS8kzqlcsznLz_osbX4aHQGBPPJO0262WF-HZtEWBV23l7ykD9ugFhB4nyJ3jozl76ghTC8eFjwIbR66N9mfIBMRh9aSnDbDKg- -38YwPXHPD9WNk6AuDSTZMCZcGyHdedxiadutussg2RTX9bTyP1nqZ2_Z7WWOl_]--></g></svg>