<?xml version="1.0" encoding="us-ascii" standalone="no"?><svg xmlns="http://www.w3.org/2000/svg" xmlns:xlink="http://www.w3.org/1999/xlink" contentStyleType="text/css" height="370px" preserveAspectRatio="none" style="width:1072px;height:370px;background:#FFFFFF;" version="1.1" viewBox="0 0 1072 370" width="1072px" zoomAndPan="magnify"><defs/><g><!--class ViewMeetingInvitesUI--><g id="elem_ViewMeetingInvitesUI"><rect codeLine="2" fill="#F1F1F1" height="56.6211" id="ViewMeetingInvitesUI" rx="2.5" ry="2.5" style="stroke:#181818;stroke-width:0.5;" width="177" x="404.5" y="7"/><ellipse cx="419.5" cy="27.3105" fill="#ADD1B2" rx="11" ry="11" style="stroke:#181818;stroke-width:1.0;"/><path d="M422.4731,32.9536 Q421.8921,33.2524 421.2529,33.4019 Q420.6138,33.5513 419.9082,33.5513 Q417.4014,33.5513 416.0815,31.8994 Q414.7617,30.2476 414.7617,27.1265 Q414.7617,23.9971 416.0815,22.3452 Q417.4014,20.6934 419.9082,20.6934 Q420.6138,20.6934 421.2612,20.8428 Q421.9087,20.9922 422.4731,21.291 L422.4731,24.0137 Q421.8423,23.4326 421.2488,23.1628 Q420.6553,22.8931 420.0244,22.8931 Q418.6797,22.8931 417.9949,23.9597 Q417.3101,25.0264 417.3101,27.1265 Q417.3101,29.2183 417.9949,30.2849 Q418.6797,31.3516 420.0244,31.3516 Q420.6553,31.3516 421.2488,31.0818 Q421.8423,30.812 422.4731,30.231 Z " fill="#000000"/><text fill="#000000" font-family="sans-serif" font-size="12" font-style="italic" lengthAdjust="spacing" textLength="23" x="494.5" y="23.6016">&#171;UI&#187;</text><text fill="#000000" font-family="sans-serif" font-size="14" lengthAdjust="spacing" textLength="145" x="433.5" y="39.668">ViewMeetingInvitesUI</text><line style="stroke:#181818;stroke-width:0.5;" x1="405.5" x2="580.5" y1="47.6211" y2="47.6211"/><line style="stroke:#181818;stroke-width:0.5;" x1="405.5" x2="580.5" y1="55.6211" y2="55.6211"/></g><!--class ViewMeetingInvitesController--><g id="elem_ViewMeetingInvitesController"><rect codeLine="5" fill="#F1F1F1" height="106.0859" id="ViewMeetingInvitesController" rx="2.5" ry="2.5" style="stroke:#181818;stroke-width:0.5;" width="427" x="279.5" y="124"/><ellipse cx="388.25" cy="144.3105" fill="#ADD1B2" rx="11" ry="11" style="stroke:#181818;stroke-width:1.0;"/><path d="M391.2231,149.9536 Q390.6421,150.2524 390.0029,150.4019 Q389.3638,150.5513 388.6582,150.5513 Q386.1514,150.5513 384.8315,148.8994 Q383.5117,147.2476 383.5117,144.1265 Q383.5117,140.9971 384.8315,139.3452 Q386.1514,137.6934 388.6582,137.6934 Q389.3638,137.6934 390.0112,137.8428 Q390.6587,137.9922 391.2231,138.291 L391.2231,141.0137 Q390.5923,140.4326 389.9988,140.1628 Q389.4053,139.8931 388.7744,139.8931 Q387.4297,139.8931 386.7449,140.9597 Q386.0601,142.0264 386.0601,144.1265 Q386.0601,146.2183 386.7449,147.2849 Q387.4297,148.3516 388.7744,148.3516 Q389.4053,148.3516 389.9988,148.0818 Q390.5923,147.812 391.2231,147.231 Z " fill="#000000"/><text fill="#000000" font-family="sans-serif" font-size="12" font-style="italic" lengthAdjust="spacing" textLength="68" x="475.25" y="140.6016">&#171;Controller&#187;</text><text fill="#000000" font-family="sans-serif" font-size="14" lengthAdjust="spacing" textLength="201" x="408.75" y="156.668">ViewMeetingInvitesController</text><line style="stroke:#181818;stroke-width:0.5;" x1="280.5" x2="705.5" y1="164.6211" y2="164.6211"/><line style="stroke:#181818;stroke-width:0.5;" x1="280.5" x2="705.5" y1="172.6211" y2="172.6211"/><ellipse cx="290.5" cy="186.3652" fill="#84BE84" rx="3" ry="3" style="stroke:#038048;stroke-width:1.0;"/><text fill="#000000" font-family="sans-serif" font-size="14" lengthAdjust="spacing" textLength="306" x="299.5" y="190.1563">Iterable&lt;Meeting&gt;: listMeetingsOfUser(user)</text><ellipse cx="290.5" cy="202.8535" fill="#84BE84" rx="3" ry="3" style="stroke:#038048;stroke-width:1.0;"/><text fill="#000000" font-family="sans-serif" font-size="14" lengthAdjust="spacing" textLength="342" x="299.5" y="206.6445">Iterable&lt;Meeting&gt;: listMeetingInvitation(meeting)</text><ellipse cx="290.5" cy="219.3418" fill="#84BE84" rx="3" ry="3" style="stroke:#038048;stroke-width:1.0;"/><text fill="#000000" font-family="sans-serif" font-size="14" lengthAdjust="spacing" textLength="401" x="299.5" y="223.1328">Iterable&lt;MeetingInvitation&gt;: listMeetingWhereUserIs(user)</text></g><!--class MeetingRepository--><g id="elem_MeetingRepository"><rect codeLine="11" fill="#F1F1F1" height="73.1094" id="MeetingRepository" rx="2.5" ry="2.5" style="stroke:#181818;stroke-width:0.5;" width="426" x="7" y="290"/><ellipse cx="151.75" cy="310.3105" fill="#ADD1B2" rx="11" ry="11" style="stroke:#181818;stroke-width:1.0;"/><path d="M154.7231,315.9536 Q154.1421,316.2524 153.5029,316.4019 Q152.8638,316.5513 152.1582,316.5513 Q149.6514,316.5513 148.3315,314.8994 Q147.0117,313.2476 147.0117,310.1265 Q147.0117,306.9971 148.3315,305.3452 Q149.6514,303.6934 152.1582,303.6934 Q152.8638,303.6934 153.5112,303.8428 Q154.1587,303.9922 154.7231,304.291 L154.7231,307.0137 Q154.0923,306.4326 153.4988,306.1628 Q152.9053,305.8931 152.2744,305.8931 Q150.9297,305.8931 150.2449,306.9597 Q149.5601,308.0264 149.5601,310.1265 Q149.5601,312.2183 150.2449,313.2849 Q150.9297,314.3516 152.2744,314.3516 Q152.9053,314.3516 153.4988,314.0818 Q154.0923,313.812 154.7231,313.231 Z " fill="#000000"/><text fill="#000000" font-family="sans-serif" font-size="12" font-style="italic" lengthAdjust="spacing" textLength="73" x="199.75" y="306.6016">&#171;Repository&#187;</text><text fill="#000000" font-family="sans-serif" font-size="14" lengthAdjust="spacing" textLength="128" x="172.25" y="322.668">MeetingRepository</text><line style="stroke:#181818;stroke-width:0.5;" x1="8" x2="432" y1="330.6211" y2="330.6211"/><line style="stroke:#181818;stroke-width:0.5;" x1="8" x2="432" y1="338.6211" y2="338.6211"/><ellipse cx="18" cy="352.3652" fill="#84BE84" rx="3" ry="3" style="stroke:#038048;stroke-width:1.0;"/><text fill="#000000" font-family="sans-serif" font-size="14" lengthAdjust="spacing" textLength="400" x="27" y="356.1563">Iterable&lt;Meeting&gt;: findMeetingsNotCanceledOfUser(user)</text></g><!--class MeetingInvitationRepository--><g id="elem_MeetingInvitationRepository"><rect codeLine="15" fill="#F1F1F1" height="73.1094" id="MeetingInvitationRepository" rx="2.5" ry="2.5" style="stroke:#181818;stroke-width:0.5;" width="597" x="468.5" y="290"/><ellipse cx="666.75" cy="310.3105" fill="#ADD1B2" rx="11" ry="11" style="stroke:#181818;stroke-width:1.0;"/><path d="M669.7231,315.9536 Q669.1421,316.2524 668.5029,316.4019 Q667.8638,316.5513 667.1582,316.5513 Q664.6514,316.5513 663.3315,314.8994 Q662.0117,313.2476 662.0117,310.1265 Q662.0117,306.9971 663.3315,305.3452 Q664.6514,303.6934 667.1582,303.6934 Q667.8638,303.6934 668.5112,303.8428 Q669.1587,303.9922 669.7231,304.291 L669.7231,307.0137 Q669.0923,306.4326 668.4988,306.1628 Q667.9053,305.8931 667.2744,305.8931 Q665.9297,305.8931 665.2449,306.9597 Q664.5601,308.0264 664.5601,310.1265 Q664.5601,312.2183 665.2449,313.2849 Q665.9297,314.3516 667.2744,314.3516 Q667.9053,314.3516 668.4988,314.0818 Q669.0923,313.812 669.7231,313.231 Z " fill="#000000"/><text fill="#000000" font-family="sans-serif" font-size="12" font-style="italic" lengthAdjust="spacing" textLength="73" x="746.75" y="306.6016">&#171;Repository&#187;</text><text fill="#000000" font-family="sans-serif" font-size="14" lengthAdjust="spacing" textLength="192" x="687.25" y="322.668">MeetingInvitationRepository</text><line style="stroke:#181818;stroke-width:0.5;" x1="469.5" x2="1064.5" y1="330.6211" y2="330.6211"/><line style="stroke:#181818;stroke-width:0.5;" x1="469.5" x2="1064.5" y1="338.6211" y2="338.6211"/><ellipse cx="479.5" cy="352.3652" fill="#84BE84" rx="3" ry="3" style="stroke:#038048;stroke-width:1.0;"/><text fill="#000000" font-family="sans-serif" font-size="14" lengthAdjust="spacing" textLength="571" x="488.5" y="356.1563">Iterable&lt;MeetingInvitation&gt;: findByIdAndWithAcceptedAndRejectedStatus(meeting)</text></g><!--link ViewMeetingInvitesUI to ViewMeetingInvitesController--><g id="link_ViewMeetingInvitesUI_ViewMeetingInvitesController"><path codeLine="19" d="M493,64.39 C493,79.74 493,99.38 493,117.89 " fill="none" id="ViewMeetingInvitesUI-to-ViewMeetingInvitesController" style="stroke:#181818;stroke-width:1.0;stroke-dasharray:7.0,7.0;"/><polygon fill="#181818" points="493,122.6,497,113.6,493,117.6,489,113.6,493,122.6" style="stroke:#181818;stroke-width:1.0;"/></g><!--link ViewMeetingInvitesController to MeetingInvitationRepository--><g id="link_ViewMeetingInvitesController_MeetingInvitationRepository"><path codeLine="20" d="M590.37,230.42 C624.98,249.05 663.27,269.66 695.33,286.92 " fill="none" id="ViewMeetingInvitesController-to-MeetingInvitationRepository" style="stroke:#181818;stroke-width:1.0;stroke-dasharray:7.0,7.0;"/><polygon fill="#181818" points="699.42,289.66,693.3952,281.8689,695.0186,287.2878,689.5996,288.9112,699.42,289.66" style="stroke:#181818;stroke-width:1.0;"/></g><!--link ViewMeetingInvitesController to MeetingRepository--><g id="link_ViewMeetingInvitesController_MeetingRepository"><path codeLine="21" d="M395.98,230.42 C361.5,249.05 323.35,269.66 291.41,286.92 " fill="none" id="ViewMeetingInvitesController-to-MeetingRepository" style="stroke:#181818;stroke-width:1.0;stroke-dasharray:7.0,7.0;"/><polygon fill="#181818" points="287.33,289.66,297.1504,288.9112,291.7314,287.2878,293.3548,281.8689,287.33,289.66" style="stroke:#181818;stroke-width:1.0;"/></g><!--SRC=[bLB1QW8n5BpdAtAq27w0B0lgAOSgA5lFQtQiAJ6Hl6UBYFzkLbVZbhhO748cpBnvanTjIoBvOV3p3h1ndyfz6mOLIcPPeV9S7iL92Fs4Dl6EWxSM8T8JkCXaN7sf6A5SMMIDC1zAQuWRHBDrGGYzVTpUNb9SZ4istlMsrvjdkiHiLrXk452xAcfyxm4RnXmxJuPzECHK2NIdMXjNtL9DFKzAfs5HjGB-Daej_j-o5Qys7nzKDNBLql1cf3LsZ1hEyGKTZul8tLDwizZAdrCV3FBEEOlEJr2hExAzB7wGY3C0]--></g></svg>