<?xml version="1.0" encoding="us-ascii" standalone="no"?><svg xmlns="http://www.w3.org/2000/svg" xmlns:xlink="http://www.w3.org/1999/xlink" contentStyleType="text/css" height="502px" preserveAspectRatio="none" style="width:832px;height:502px;background:#FFFFFF;" version="1.1" viewBox="0 0 832 502" width="832px" zoomAndPan="magnify"><defs/><g><!--class CreateSharedBoardUI--><g id="elem_CreateSharedBoardUI"><rect codeLine="2" fill="#F1F1F1" height="56.6211" id="CreateSharedBoardUI" rx="2.5" ry="2.5" style="stroke:#181818;stroke-width:0.5;" width="179" x="240" y="7"/><ellipse cx="255" cy="27.3105" fill="#ADD1B2" rx="11" ry="11" style="stroke:#181818;stroke-width:1.0;"/><path d="M257.9731,32.9536 Q257.3921,33.2524 256.7529,33.4019 Q256.1138,33.5513 255.4082,33.5513 Q252.9014,33.5513 251.5815,31.8994 Q250.2617,30.2476 250.2617,27.1265 Q250.2617,23.9971 251.5815,22.3452 Q252.9014,20.6934 255.4082,20.6934 Q256.1138,20.6934 256.7612,20.8428 Q257.4087,20.9922 257.9731,21.291 L257.9731,24.0137 Q257.3423,23.4326 256.7488,23.1628 Q256.1553,22.8931 255.5244,22.8931 Q254.1797,22.8931 253.4949,23.9597 Q252.8101,25.0264 252.8101,27.1265 Q252.8101,29.2183 253.4949,30.2849 Q254.1797,31.3516 255.5244,31.3516 Q256.1553,31.3516 256.7488,31.0818 Q257.3423,30.812 257.9731,30.231 Z " fill="#000000"/><text fill="#000000" font-family="sans-serif" font-size="12" font-style="italic" lengthAdjust="spacing" textLength="23" x="331" y="23.6016">&#171;UI&#187;</text><text fill="#000000" font-family="sans-serif" font-size="14" lengthAdjust="spacing" textLength="147" x="269" y="39.668">CreateSharedBoardUI</text><line style="stroke:#181818;stroke-width:0.5;" x1="241" x2="418" y1="47.6211" y2="47.6211"/><line style="stroke:#181818;stroke-width:0.5;" x1="241" x2="418" y1="55.6211" y2="55.6211"/></g><!--class CreateSharedBoardController--><g id="elem_CreateSharedBoardController"><rect codeLine="5" fill="#F1F1F1" height="122.5742" id="CreateSharedBoardController" rx="2.5" ry="2.5" style="stroke:#181818;stroke-width:0.5;" width="593" x="33" y="124"/><ellipse cx="223.75" cy="144.3105" fill="#ADD1B2" rx="11" ry="11" style="stroke:#181818;stroke-width:1.0;"/><path d="M226.7231,149.9536 Q226.1421,150.2524 225.5029,150.4019 Q224.8638,150.5513 224.1582,150.5513 Q221.6514,150.5513 220.3315,148.8994 Q219.0117,147.2476 219.0117,144.1265 Q219.0117,140.9971 220.3315,139.3452 Q221.6514,137.6934 224.1582,137.6934 Q224.8638,137.6934 225.5112,137.8428 Q226.1587,137.9922 226.7231,138.291 L226.7231,141.0137 Q226.0923,140.4326 225.4988,140.1628 Q224.9053,139.8931 224.2744,139.8931 Q222.9297,139.8931 222.2449,140.9597 Q221.5601,142.0264 221.5601,144.1265 Q221.5601,146.2183 222.2449,147.2849 Q222.9297,148.3516 224.2744,148.3516 Q224.9053,148.3516 225.4988,148.0818 Q226.0923,147.812 226.7231,147.231 Z " fill="#000000"/><text fill="#000000" font-family="sans-serif" font-size="12" font-style="italic" lengthAdjust="spacing" textLength="68" x="311.75" y="140.6016">&#171;Controller&#187;</text><text fill="#000000" font-family="sans-serif" font-size="14" lengthAdjust="spacing" textLength="203" x="244.25" y="156.668">CreateSharedBoardController</text><line style="stroke:#181818;stroke-width:0.5;" x1="34" x2="625" y1="164.6211" y2="164.6211"/><line style="stroke:#181818;stroke-width:0.5;" x1="34" x2="625" y1="172.6211" y2="172.6211"/><ellipse cx="44" cy="186.3652" fill="#84BE84" rx="3" ry="3" style="stroke:#038048;stroke-width:1.0;"/><text fill="#000000" font-family="sans-serif" font-size="14" lengthAdjust="spacing" textLength="567" x="53" y="190.1563">void: createSharedBoard(title, maxNumberOfRows, maxNumberOfColumns, status)</text><ellipse cx="44" cy="202.8535" fill="#84BE84" rx="3" ry="3" style="stroke:#038048;stroke-width:1.0;"/><text fill="#000000" font-family="sans-serif" font-size="14" lengthAdjust="spacing" textLength="183" x="53" y="206.6445">boolean: validateTitle(title)</text><ellipse cx="44" cy="219.3418" fill="#84BE84" rx="3" ry="3" style="stroke:#038048;stroke-width:1.0;"/><text fill="#000000" font-family="sans-serif" font-size="14" lengthAdjust="spacing" textLength="400" x="53" y="223.1328">boolean: validateMaxNumberOfRows(maxNumberOfRows)</text><ellipse cx="44" cy="235.8301" fill="#84BE84" rx="3" ry="3" style="stroke:#038048;stroke-width:1.0;"/><text fill="#000000" font-family="sans-serif" font-size="14" lengthAdjust="spacing" textLength="450" x="53" y="239.6211">boolean: validateMaxNumberOfColumns(maxNumberOfColumns)</text></g><!--class SharedBoardRepository--><g id="elem_SharedBoardRepository"><rect codeLine="12" fill="#F1F1F1" height="73.1094" id="SharedBoardRepository" rx="2.5" ry="2.5" style="stroke:#181818;stroke-width:0.5;" width="219" x="7" y="365"/><ellipse cx="33.7" cy="385.3105" fill="#ADD1B2" rx="11" ry="11" style="stroke:#181818;stroke-width:1.0;"/><path d="M36.6731,390.9536 Q36.0921,391.2524 35.4529,391.4019 Q34.8138,391.5513 34.1082,391.5513 Q31.6014,391.5513 30.2815,389.8994 Q28.9617,388.2476 28.9617,385.1265 Q28.9617,381.9971 30.2815,380.3452 Q31.6014,378.6934 34.1082,378.6934 Q34.8138,378.6934 35.4612,378.8428 Q36.1087,378.9922 36.6731,379.291 L36.6731,382.0137 Q36.0423,381.4326 35.4488,381.1628 Q34.8553,380.8931 34.2244,380.8931 Q32.8797,380.8931 32.1949,381.9597 Q31.5101,383.0264 31.5101,385.1265 Q31.5101,387.2183 32.1949,388.2849 Q32.8797,389.3516 34.2244,389.3516 Q34.8553,389.3516 35.4488,389.0818 Q36.0423,388.812 36.6731,388.231 Z " fill="#000000"/><text fill="#000000" font-family="sans-serif" font-size="12" font-style="italic" lengthAdjust="spacing" textLength="73" x="94.3" y="381.6016">&#171;Repository&#187;</text><text fill="#000000" font-family="sans-serif" font-size="14" lengthAdjust="spacing" textLength="161" x="50.3" y="397.668">SharedBoardRepository</text><line style="stroke:#181818;stroke-width:0.5;" x1="8" x2="225" y1="405.6211" y2="405.6211"/><line style="stroke:#181818;stroke-width:0.5;" x1="8" x2="225" y1="413.6211" y2="413.6211"/><ellipse cx="18" cy="427.3652" fill="#84BE84" rx="3" ry="3" style="stroke:#038048;stroke-width:1.0;"/><text fill="#000000" font-family="sans-serif" font-size="14" lengthAdjust="spacing" textLength="193" x="27" y="431.1563">void: save(newSharedBoard)</text></g><!--class SharedBoardBuilder--><g id="elem_SharedBoardBuilder"><rect codeLine="15" fill="#F1F1F1" height="188.5273" id="SharedBoardBuilder" rx="2.5" ry="2.5" style="stroke:#181818;stroke-width:0.5;" width="564" x="261.5" y="307"/><ellipse cx="471.25" cy="327.3105" fill="#ADD1B2" rx="11" ry="11" style="stroke:#181818;stroke-width:1.0;"/><path d="M474.2231,332.9536 Q473.6421,333.2524 473.0029,333.4019 Q472.3638,333.5513 471.6582,333.5513 Q469.1514,333.5513 467.8315,331.8994 Q466.5117,330.2476 466.5117,327.1265 Q466.5117,323.9971 467.8315,322.3452 Q469.1514,320.6934 471.6582,320.6934 Q472.3638,320.6934 473.0112,320.8428 Q473.6587,320.9922 474.2231,321.291 L474.2231,324.0137 Q473.5923,323.4326 472.9988,323.1628 Q472.4053,322.8931 471.7744,322.8931 Q470.4297,322.8931 469.7449,323.9597 Q469.0601,325.0264 469.0601,327.1265 Q469.0601,329.2183 469.7449,330.2849 Q470.4297,331.3516 471.7744,331.3516 Q472.4053,331.3516 472.9988,331.0818 Q473.5923,330.812 474.2231,330.231 Z " fill="#000000"/><text fill="#000000" font-family="sans-serif" font-size="12" font-style="italic" lengthAdjust="spacing" textLength="53" x="533.25" y="323.6016">&#171;builder&#187;</text><text fill="#000000" font-family="sans-serif" font-size="14" lengthAdjust="spacing" textLength="136" x="491.75" y="339.668">SharedBoardBuilder</text><line style="stroke:#181818;stroke-width:0.5;" x1="262.5" x2="824.5" y1="347.6211" y2="347.6211"/><line style="stroke:#181818;stroke-width:0.5;" x1="262.5" x2="824.5" y1="355.6211" y2="355.6211"/><ellipse cx="272.5" cy="369.3652" fill="#84BE84" rx="3" ry="3" style="stroke:#038048;stroke-width:1.0;"/><text fill="#000000" font-family="sans-serif" font-size="14" lengthAdjust="spacing" textLength="132" x="281.5" y="373.1563">void: withTitle(title)</text><ellipse cx="272.5" cy="385.8535" fill="#84BE84" rx="3" ry="3" style="stroke:#038048;stroke-width:1.0;"/><text fill="#000000" font-family="sans-serif" font-size="14" lengthAdjust="spacing" textLength="151" x="281.5" y="389.6445">void: ownedBy(owner)</text><ellipse cx="272.5" cy="402.3418" fill="#84BE84" rx="3" ry="3" style="stroke:#038048;stroke-width:1.0;"/><text fill="#000000" font-family="sans-serif" font-size="14" lengthAdjust="spacing" textLength="344" x="281.5" y="406.1328">void: hasMaxNumberOfRows(maxNumberOfRows)</text><ellipse cx="272.5" cy="418.8301" fill="#84BE84" rx="3" ry="3" style="stroke:#038048;stroke-width:1.0;"/><text fill="#000000" font-family="sans-serif" font-size="14" lengthAdjust="spacing" textLength="394" x="281.5" y="422.6211">void: hasMaxNumberOfColumns(maxNumberOfColumns)</text><ellipse cx="272.5" cy="435.3184" fill="#84BE84" rx="3" ry="3" style="stroke:#038048;stroke-width:1.0;"/><text fill="#000000" font-family="sans-serif" font-size="14" lengthAdjust="spacing" textLength="159" x="281.5" y="439.1094">void: withStatus(status)</text><ellipse cx="272.5" cy="451.8066" fill="#84BE84" rx="3" ry="3" style="stroke:#038048;stroke-width:1.0;"/><text fill="#000000" font-family="sans-serif" font-size="14" lengthAdjust="spacing" textLength="538" x="281.5" y="455.5977">void: withInvitationList(List&lt;SharedBoardInvitation&gt; sharedBoardInvitationList)</text><ellipse cx="272.5" cy="468.2949" fill="#84BE84" rx="3" ry="3" style="stroke:#038048;stroke-width:1.0;"/><text fill="#000000" font-family="sans-serif" font-size="14" lengthAdjust="spacing" textLength="493" x="281.5" y="472.0859">void: withUpdateList(List&lt;SharedBoardUpdate&gt; sharedBoardUpdateList)</text><ellipse cx="272.5" cy="484.7832" fill="#84BE84" rx="3" ry="3" style="stroke:#038048;stroke-width:1.0;"/><text fill="#000000" font-family="sans-serif" font-size="14" lengthAdjust="spacing" textLength="82" x="281.5" y="488.5742">void: build()</text></g><!--link CreateSharedBoardUI to CreateSharedBoardController--><g id="link_CreateSharedBoardUI_CreateSharedBoardController"><path codeLine="26" d="M329.5,64.34 C329.5,79.51 329.5,99 329.5,117.85 " fill="none" id="CreateSharedBoardUI-to-CreateSharedBoardController" style="stroke:#181818;stroke-width:1.0;stroke-dasharray:7.0,7.0;"/><polygon fill="#181818" points="329.5,122.68,333.5,113.68,329.5,117.68,325.5,113.68,329.5,122.68" style="stroke:#181818;stroke-width:1.0;"/></g><!--link CreateSharedBoardController to SharedBoardRepository--><g id="link_CreateSharedBoardController_SharedBoardRepository"><path codeLine="27" d="M269.03,247.25 C232.9,283.56 188,328.66 156.31,360.51 " fill="none" id="CreateSharedBoardController-to-SharedBoardRepository" style="stroke:#181818;stroke-width:1.0;stroke-dasharray:7.0,7.0;"/><polygon fill="#181818" points="153.12,363.72,162.2981,360.1474,156.6412,360.1702,156.6184,354.5134,153.12,363.72" style="stroke:#181818;stroke-width:1.0;"/></g><!--link CreateSharedBoardController to SharedBoardBuilder--><g id="link_CreateSharedBoardController_SharedBoardBuilder"><path codeLine="28" d="M390.25,247.25 C407.63,264.63 427.02,284.02 446.01,303.01 " fill="none" id="CreateSharedBoardController-to-SharedBoardBuilder" style="stroke:#181818;stroke-width:1.0;stroke-dasharray:7.0,7.0;"/><polygon fill="#181818" points="448.8,305.8,445.2645,296.6076,445.2645,302.2645,439.6076,302.2645,448.8,305.8" style="stroke:#181818;stroke-width:1.0;"/></g><!--SRC=[bLFRReGW47tdAtXaqsO_O6DyM9zCUabswmUWqaY2p0PGksdwxmKrGPIQhGyAS-OSnZDC9QZME5EC6dPjg6Br6QYgYnmdIP6dAVv6FmXLyQmCf54W15Csssz65hRF4-w1roTShOd4S2FOCsxfrrlNbaozVrvWq44W0z6rqiQqeQRJXrcn112CoXFkgU2rbVrmKfFWdpcluJbaTUuZlBaSigtmu1rQ_EA5tK1p0-fklV6RZJUQzen8DYoeJd2ZT-wug4UZoscrKHguQI9cJ20CqWhTYVkg46geVj2VMFwUB-lghcCdITXG3-UovnRY85-uDiIzaeK37awnZeKTOQjQt5mdeueJ5AZvx51fD9sChOuDo_6Oxeq7sXiTnurUdF-mvkk1q2y0]--></g></svg>