<?xml version="1.0" encoding="us-ascii" standalone="no"?><svg xmlns="http://www.w3.org/2000/svg" xmlns:xlink="http://www.w3.org/1999/xlink" contentStyleType="text/css" height="785px" preserveAspectRatio="none" style="width:1346px;height:785px;background:#FFFFFF;" version="1.1" viewBox="0 0 1346 785" width="1346px" zoomAndPan="magnify"><defs/><g><rect fill="#FFFFFF" height="557.4336" style="stroke:#181818;stroke-width:1.0;" width="10" x="248.5" y="115.2871"/><rect fill="#FFFFFF" height="351.082" style="stroke:#181818;stroke-width:1.0;" width="10" x="575.5" y="292.3281"/><rect fill="#FFFFFF" height="29.3105" style="stroke:#181818;stroke-width:1.0;" width="10" x="1257" y="584.7891"/><line style="stroke:#181818;stroke-width:0.5;stroke-dasharray:5.0,5.0;" x1="23" x2="23" y1="83.9766" y2="690.7207"/><line style="stroke:#181818;stroke-width:0.5;stroke-dasharray:5.0,5.0;" x1="253" x2="253" y1="83.9766" y2="690.7207"/><line style="stroke:#181818;stroke-width:0.5;stroke-dasharray:5.0,5.0;" x1="580" x2="580" y1="162.5313" y2="690.7207"/><line style="stroke:#181818;stroke-width:0.5;stroke-dasharray:5.0,5.0;" x1="1093.5" x2="1093.5" y1="339.3164" y2="690.7207"/><line style="stroke:#181818;stroke-width:0.5;stroke-dasharray:5.0,5.0;" x1="1261.5" x2="1261.5" y1="83.9766" y2="690.7207"/><text fill="#000000" font-family="FG Virgil" font-size="14" lengthAdjust="spacing" textLength="31" x="5" y="81.0234">User</text><ellipse cx="23.5" cy="15.9883" fill="#E3E3E3" rx="8" ry="8" style="stroke:#181818;stroke-width:0.5;"/><path d="M23.5,23.9883 L23.5,50.9883 M10.5,31.9883 L36.5,31.9883 M23.5,50.9883 L10.5,65.9883 M23.5,50.9883 L36.5,65.9883 " fill="none" style="stroke:#181818;stroke-width:0.5;"/><text fill="#000000" font-family="FG Virgil" font-size="14" lengthAdjust="spacing" textLength="31" x="5" y="703.2559">User</text><ellipse cx="23.5" cy="714.709" fill="#E3E3E3" rx="8" ry="8" style="stroke:#181818;stroke-width:0.5;"/><path d="M23.5,722.709 L23.5,749.709 M10.5,730.709 L36.5,730.709 M23.5,749.709 L10.5,764.709 M23.5,749.709 L36.5,764.709 " fill="none" style="stroke:#181818;stroke-width:0.5;"/><rect fill="#E3E3E3" height="46.9766" rx="2.5" ry="2.5" style="stroke:#181818;stroke-width:0.5;" width="161" x="173" y="36"/><text fill="#000000" font-family="FG Virgil" font-size="14" font-style="italic" lengthAdjust="spacing" textLength="101" x="203" y="56.5352">&#171;presentation&#187;</text><text fill="#000000" font-family="FG Virgil" font-size="14" lengthAdjust="spacing" textLength="147" x="180" y="73.0234">CreateSharedBoardUI</text><rect fill="#E3E3E3" height="46.9766" rx="2.5" ry="2.5" style="stroke:#181818;stroke-width:0.5;" width="161" x="173" y="689.7207"/><text fill="#000000" font-family="FG Virgil" font-size="14" font-style="italic" lengthAdjust="spacing" textLength="101" x="203" y="710.2559">&#171;presentation&#187;</text><text fill="#000000" font-family="FG Virgil" font-size="14" lengthAdjust="spacing" textLength="147" x="180" y="726.7441">CreateSharedBoardUI</text><text fill="#000000" font-family="FG Virgil" font-size="14" lengthAdjust="spacing" textLength="203" x="476" y="703.2559">CreateSharedBoardController</text><ellipse cx="580.5" cy="722.209" fill="#E3E3E3" rx="12" ry="12" style="stroke:#181818;stroke-width:0.5;"/><polygon fill="#181818" points="576.5,710.209,582.5,705.209,580.5,710.209,582.5,715.209,576.5,710.209" style="stroke:#181818;stroke-width:1.0;"/><rect fill="#E3E3E3" height="46.9766" rx="2.5" ry="2.5" style="stroke:#181818;stroke-width:0.5;" width="150" x="1018.5" y="689.7207"/><text fill="#000000" font-family="FG Virgil" font-size="14" font-style="italic" lengthAdjust="spacing" textLength="63" x="1062" y="710.2559">&#171;builder&#187;</text><text fill="#000000" font-family="FG Virgil" font-size="14" lengthAdjust="spacing" textLength="136" x="1025.5" y="726.7441">SharedBoardBuilder</text><text fill="#000000" font-family="FG Virgil" font-size="14" font-style="italic" lengthAdjust="spacing" textLength="84" x="1217" y="64.5352">&#171;repository&#187;</text><text fill="#000000" font-family="FG Virgil" font-size="14" lengthAdjust="spacing" textLength="161" x="1178.5" y="81.0234">SharedBoardRepository</text><path d="M1244,15 C1244,5 1262,5 1262,5 C1262,5 1280,5 1280,15 L1280,41 C1280,51 1262,51 1262,51 C1262,51 1244,51 1244,41 L1244,15 " fill="#E3E3E3" style="stroke:#181818;stroke-width:1.5;"/><path d="M1244,15 C1244,25 1262,25 1262,25 C1262,25 1280,25 1280,15 " fill="none" style="stroke:#181818;stroke-width:1.5;"/><text fill="#000000" font-family="FG Virgil" font-size="14" font-style="italic" lengthAdjust="spacing" textLength="84" x="1217" y="703.2559">&#171;repository&#187;</text><text fill="#000000" font-family="FG Virgil" font-size="14" lengthAdjust="spacing" textLength="161" x="1178.5" y="719.7441">SharedBoardRepository</text><path d="M1244,732.6973 C1244,722.6973 1262,722.6973 1262,722.6973 C1262,722.6973 1280,722.6973 1280,732.6973 L1280,758.6973 C1280,768.6973 1262,768.6973 1262,768.6973 C1262,768.6973 1244,768.6973 1244,758.6973 L1244,732.6973 " fill="#E3E3E3" style="stroke:#181818;stroke-width:1.5;"/><path d="M1244,732.6973 C1244,742.6973 1262,742.6973 1262,742.6973 C1262,742.6973 1280,742.6973 1280,732.6973 " fill="none" style="stroke:#181818;stroke-width:1.5;"/><rect fill="#FFFFFF" height="557.4336" style="stroke:#181818;stroke-width:1.0;" width="10" x="248.5" y="115.2871"/><rect fill="#FFFFFF" height="351.082" style="stroke:#181818;stroke-width:1.0;" width="10" x="575.5" y="292.3281"/><rect fill="#FFFFFF" height="29.3105" style="stroke:#181818;stroke-width:1.0;" width="10" x="1257" y="584.7891"/><polygon fill="#181818" points="236.5,111.2871,246.5,115.2871,236.5,119.2871,240.5,115.2871" style="stroke:#181818;stroke-width:1.0;"/><line style="stroke:#181818;stroke-width:1.0;" x1="23.5" x2="242.5" y1="115.2871" y2="115.2871"/><text fill="#000000" font-family="FG Virgil" font-size="13" font-weight="bold" lengthAdjust="spacing" textLength="9" x="30.5" y="110.5449">1</text><text fill="#000000" font-family="FG Virgil" font-size="13" lengthAdjust="spacing" textLength="125" x="43.5" y="110.5449">Create Shared Board</text><polygon fill="#181818" points="464,140.5977,474,144.5977,464,148.5977,468,144.5977" style="stroke:#181818;stroke-width:1.0;"/><line style="stroke:#181818;stroke-width:1.0;" x1="258.5" x2="470" y1="144.5977" y2="144.5977"/><text fill="#000000" font-family="FG Virgil" font-size="13" font-weight="bold" lengthAdjust="spacing" textLength="9" x="265.5" y="139.8555">2</text><text fill="#000000" font-family="FG Virgil" font-size="13" lengthAdjust="spacing" textLength="46" x="278.5" y="139.8555">create()</text><text fill="#000000" font-family="FG Virgil" font-size="14" lengthAdjust="spacing" textLength="203" x="476" y="168.8223">CreateSharedBoardController</text><ellipse cx="580.5" cy="139.2871" fill="#E3E3E3" rx="12" ry="12" style="stroke:#181818;stroke-width:0.5;"/><polygon fill="#181818" points="576.5,127.2871,582.5,122.2871,580.5,127.2871,582.5,132.2871,576.5,127.2871" style="stroke:#181818;stroke-width:1.0;"/><polygon fill="#181818" points="34.5,199.0859,24.5,203.0859,34.5,207.0859,30.5,203.0859" style="stroke:#181818;stroke-width:1.0;"/><line style="stroke:#181818;stroke-width:1.0;stroke-dasharray:2.0,2.0;" x1="28.5" x2="247.5" y1="203.0859" y2="203.0859"/><text fill="#000000" font-family="FG Virgil" font-size="13" font-weight="bold" lengthAdjust="spacing" textLength="9" x="40.5" y="198.3438">3</text><text fill="#000000" font-family="FG Virgil" font-size="13" lengthAdjust="spacing" textLength="188" x="53.5" y="198.3438">Ask shared board information</text><polygon fill="#181818" points="236.5,243.707,246.5,247.707,236.5,251.707,240.5,247.707" style="stroke:#181818;stroke-width:1.0;"/><line style="stroke:#181818;stroke-width:1.0;" x1="23.5" x2="242.5" y1="247.707" y2="247.707"/><text fill="#000000" font-family="FG Virgil" font-size="13" font-weight="bold" lengthAdjust="spacing" textLength="9" x="30.5" y="235.3096">4</text><text fill="#000000" font-family="FG Virgil" font-size="13" lengthAdjust="spacing" textLength="162" x="43.5" y="227.6543">title, maxNumberOfRows,</text><text fill="#000000" font-family="FG Virgil" font-size="13" lengthAdjust="spacing" textLength="148" x="43.5" y="242.9648">maxNumberOfColumns</text><polygon fill="#181818" points="563.5,288.3281,573.5,292.3281,563.5,296.3281,567.5,292.3281" style="stroke:#181818;stroke-width:1.0;"/><line style="stroke:#181818;stroke-width:1.0;" x1="258.5" x2="569.5" y1="292.3281" y2="292.3281"/><text fill="#000000" font-family="FG Virgil" font-size="13" font-weight="bold" lengthAdjust="spacing" textLength="9" x="265.5" y="279.9307">5</text><text fill="#000000" font-family="FG Virgil" font-size="13" lengthAdjust="spacing" textLength="148" x="278.5" y="272.2754">createSharedBoard(title,</text><text fill="#000000" font-family="FG Virgil" font-size="13" lengthAdjust="spacing" textLength="285" x="278.5" y="287.5859">maxNumberOfRows, maxNumberOfColumns)</text><polygon fill="#181818" points="1006.5,317.6387,1016.5,321.6387,1006.5,325.6387,1010.5,321.6387" style="stroke:#181818;stroke-width:1.0;"/><line style="stroke:#181818;stroke-width:1.0;" x1="585.5" x2="1012.5" y1="321.6387" y2="321.6387"/><text fill="#000000" font-family="FG Virgil" font-size="13" font-weight="bold" lengthAdjust="spacing" textLength="9" x="592.5" y="316.8965">6</text><text fill="#000000" font-family="FG Virgil" font-size="13" lengthAdjust="spacing" textLength="46" x="605.5" y="316.8965">create()</text><rect fill="#E3E3E3" height="46.9766" rx="2.5" ry="2.5" style="stroke:#181818;stroke-width:0.5;" width="150" x="1018.5" y="300.3281"/><text fill="#000000" font-family="FG Virgil" font-size="14" font-style="italic" lengthAdjust="spacing" textLength="63" x="1062" y="320.8633">&#171;builder&#187;</text><text fill="#000000" font-family="FG Virgil" font-size="14" lengthAdjust="spacing" textLength="136" x="1025.5" y="337.3516">SharedBoardBuilder</text><polygon fill="#181818" points="1081.5,375.6152,1091.5,379.6152,1081.5,383.6152,1085.5,379.6152" style="stroke:#181818;stroke-width:1.0;"/><line style="stroke:#181818;stroke-width:1.0;" x1="585.5" x2="1087.5" y1="379.6152" y2="379.6152"/><text fill="#000000" font-family="FG Virgil" font-size="13" font-weight="bold" lengthAdjust="spacing" textLength="9" x="592.5" y="374.873">7</text><text fill="#000000" font-family="FG Virgil" font-size="13" lengthAdjust="spacing" textLength="88" x="605.5" y="374.873">withTitle(title)</text><polygon fill="#181818" points="1081.5,404.9258,1091.5,408.9258,1081.5,412.9258,1085.5,408.9258" style="stroke:#181818;stroke-width:1.0;"/><line style="stroke:#181818;stroke-width:1.0;" x1="585.5" x2="1087.5" y1="408.9258" y2="408.9258"/><text fill="#000000" font-family="FG Virgil" font-size="13" font-weight="bold" lengthAdjust="spacing" textLength="9" x="592.5" y="404.1836">8</text><text fill="#000000" font-family="FG Virgil" font-size="13" lengthAdjust="spacing" textLength="101" x="605.5" y="404.1836">ownedBy(owner)</text><polygon fill="#181818" points="1081.5,434.2363,1091.5,438.2363,1081.5,442.2363,1085.5,438.2363" style="stroke:#181818;stroke-width:1.0;"/><line style="stroke:#181818;stroke-width:1.0;" x1="585.5" x2="1087.5" y1="438.2363" y2="438.2363"/><text fill="#000000" font-family="FG Virgil" font-size="13" font-weight="bold" lengthAdjust="spacing" textLength="9" x="592.5" y="433.4941">9</text><text fill="#000000" font-family="FG Virgil" font-size="13" lengthAdjust="spacing" textLength="287" x="605.5" y="433.4941">hasMaxNumberOfRowns(maxNumberOfRows)</text><polygon fill="#181818" points="1081.5,463.5469,1091.5,467.5469,1081.5,471.5469,1085.5,467.5469" style="stroke:#181818;stroke-width:1.0;"/><line style="stroke:#181818;stroke-width:1.0;" x1="585.5" x2="1087.5" y1="467.5469" y2="467.5469"/><text fill="#000000" font-family="FG Virgil" font-size="13" font-weight="bold" lengthAdjust="spacing" textLength="18" x="592.5" y="462.8047">10</text><text fill="#000000" font-family="FG Virgil" font-size="13" lengthAdjust="spacing" textLength="325" x="614.5" y="462.8047">hasMaxNumberOfColumns(maxNumberOfColumns)</text><polygon fill="#181818" points="1081.5,492.8574,1091.5,496.8574,1081.5,500.8574,1085.5,496.8574" style="stroke:#181818;stroke-width:1.0;"/><line style="stroke:#181818;stroke-width:1.0;" x1="585.5" x2="1087.5" y1="496.8574" y2="496.8574"/><text fill="#000000" font-family="FG Virgil" font-size="13" font-weight="bold" lengthAdjust="spacing" textLength="18" x="592.5" y="492.1152">11</text><text fill="#000000" font-family="FG Virgil" font-size="13" lengthAdjust="spacing" textLength="462" x="614.5" y="492.1152">withInvitationList(List&lt;SharedBoardInvitation&gt; sharedBoardInvitationList)</text><polygon fill="#181818" points="1081.5,522.168,1091.5,526.168,1081.5,530.168,1085.5,526.168" style="stroke:#181818;stroke-width:1.0;"/><line style="stroke:#181818;stroke-width:1.0;" x1="585.5" x2="1087.5" y1="526.168" y2="526.168"/><text fill="#000000" font-family="FG Virgil" font-size="13" font-weight="bold" lengthAdjust="spacing" textLength="18" x="592.5" y="521.4258">12</text><text fill="#000000" font-family="FG Virgil" font-size="13" lengthAdjust="spacing" textLength="414" x="614.5" y="521.4258">withUpdateList(List&lt;SharedBoardUpdate&gt; sharedBoardUpdateList)</text><polygon fill="#181818" points="1081.5,551.4785,1091.5,555.4785,1081.5,559.4785,1085.5,555.4785" style="stroke:#181818;stroke-width:1.0;"/><line style="stroke:#181818;stroke-width:1.0;" x1="585.5" x2="1087.5" y1="555.4785" y2="555.4785"/><text fill="#000000" font-family="FG Virgil" font-size="13" font-weight="bold" lengthAdjust="spacing" textLength="18" x="592.5" y="550.7363">13</text><text fill="#000000" font-family="FG Virgil" font-size="13" lengthAdjust="spacing" textLength="40" x="614.5" y="550.7363">build()</text><polygon fill="#181818" points="1245,580.7891,1255,584.7891,1245,588.7891,1249,584.7891" style="stroke:#181818;stroke-width:1.0;"/><line style="stroke:#181818;stroke-width:1.0;" x1="585.5" x2="1251" y1="584.7891" y2="584.7891"/><text fill="#000000" font-family="FG Virgil" font-size="13" font-weight="bold" lengthAdjust="spacing" textLength="18" x="592.5" y="580.0469">14</text><text fill="#000000" font-family="FG Virgil" font-size="13" lengthAdjust="spacing" textLength="138" x="614.5" y="580.0469">save(newSharedBoard)</text><polygon fill="#181818" points="596.5,610.0996,586.5,614.0996,596.5,618.0996,592.5,614.0996" style="stroke:#181818;stroke-width:1.0;"/><line style="stroke:#181818;stroke-width:1.0;stroke-dasharray:2.0,2.0;" x1="590.5" x2="1261" y1="614.0996" y2="614.0996"/><text fill="#000000" font-family="FG Virgil" font-size="13" font-weight="bold" lengthAdjust="spacing" textLength="18" x="602.5" y="609.3574">15</text><text fill="#000000" font-family="FG Virgil" font-size="13" lengthAdjust="spacing" textLength="4" x="624.5" y="609.3574">&#160;</text><polygon fill="#181818" points="269.5,639.4102,259.5,643.4102,269.5,647.4102,265.5,643.4102" style="stroke:#181818;stroke-width:1.0;"/><line style="stroke:#181818;stroke-width:1.0;stroke-dasharray:2.0,2.0;" x1="263.5" x2="579.5" y1="643.4102" y2="643.4102"/><text fill="#000000" font-family="FG Virgil" font-size="13" font-weight="bold" lengthAdjust="spacing" textLength="18" x="275.5" y="638.668">16</text><text fill="#000000" font-family="FG Virgil" font-size="13" lengthAdjust="spacing" textLength="4" x="297.5" y="638.668">&#160;</text><polygon fill="#181818" points="34.5,668.7207,24.5,672.7207,34.5,676.7207,30.5,672.7207" style="stroke:#181818;stroke-width:1.0;"/><line style="stroke:#181818;stroke-width:1.0;stroke-dasharray:2.0,2.0;" x1="28.5" x2="252.5" y1="672.7207" y2="672.7207"/><text fill="#000000" font-family="FG Virgil" font-size="13" font-weight="bold" lengthAdjust="spacing" textLength="18" x="40.5" y="667.9785">17</text><text fill="#000000" font-family="FG Virgil" font-size="13" lengthAdjust="spacing" textLength="168" x="62.5" y="667.9785">Displays Shared Board Info</text><!--SRC=[fLLDRvmm4BtxL_XMAYNPEq8h9LkbGcfJAIazzUA5sSLQVo3RBDr_tp4cO3OjBIq7i3tptXlFZCsxshactMmQmPHhfRWhjTpO4rSDCqpUrKuACawfr4gNjT4Ig3CjH9Q6bITsX1Tt4K0Db2woLN1WhN2FMhadXj37Z_GRDqSUCzkQLRhZwaWFJ5WWXBLEgrRkmU2uTDhGmeAXpD9xFoC8Sxpa3OPDTmQOWvUQ6QWUD3DLaNj7V6TPOy22SinnhRPRGdeqlTsYDHs0D21f3_LY_EnNYvnGVChWKsBqHektMhjW41YeTqTH95_mIWV6vFteZu0-h9JUsvDFXOzcxs6KguCsie- -Tv-5xxWJS4Cb-_7KP-hBuLbtzeP-Lz7IJejMAal8kl0YOpBep6Y3qbkTiAinYNzALvJXkA8HuA7beWgLVnrcsJwCiA2l90j2ViS3z2hvQu0TT_LNduYGZlK4kbFeS4dyrwo7ryn-dgLVsUIg7lzBEfGm-LrLrwOhLsSUJjudRbtYNrc4dCpReUclbZtWtvIBfaBVNwe6qqnnybwlrdSYjXCPaSZ5zin2tCJFq6ZByUXUV1z7iompu-JlktaYIAbbPqWKT97pj8ln74w8qHP5SRjy9qnRWoN2nQ3xAujSaInfZhH5Zk3XVlp0BVwfBdPsPTCSBqaIqHRvJm00]--></g></svg>