<?xml version="1.0" encoding="us-ascii" standalone="no"?><svg xmlns="http://www.w3.org/2000/svg" xmlns:xlink="http://www.w3.org/1999/xlink" contentStyleType="text/css" height="1187px" preserveAspectRatio="none" style="width:1229px;height:1187px;background:#FFFFFF;" version="1.1" viewBox="0 0 1229 1187" width="1229px" zoomAndPan="magnify"><defs/><g><rect fill="#FFFFFF" height="953.25" style="stroke:#181818;stroke-width:1.0;" width="10" x="435.5" y="130.5977"/><rect fill="#FFFFFF" height="57.3105" style="stroke:#181818;stroke-width:1.0;" width="10" x="653.5" y="333.127"/><rect fill="#FFFFFF" height="57.3105" style="stroke:#181818;stroke-width:1.0;" width="10" x="653.5" y="502.6797"/><rect fill="#FFFFFF" height="57.3105" style="stroke:#181818;stroke-width:1.0;" width="10" x="653.5" y="760.4082"/><rect fill="#FFFFFF" height="57.3105" style="stroke:#181818;stroke-width:1.0;" width="10" x="653.5" y="929.9609"/><rect fill="#FFFFFF" height="14" style="stroke:#181818;stroke-width:1.0;" width="10" x="922.5" y="362.4375"/><rect fill="#FFFFFF" height="14" style="stroke:#181818;stroke-width:1.0;" width="10" x="1098.5" y="531.9902"/><rect fill="#FFFFFF" height="14" style="stroke:#181818;stroke-width:1.0;" width="10" x="1098.5" y="789.7188"/><rect fill="#FFFFFF" height="14" style="stroke:#181818;stroke-width:1.0;" width="10" x="1098.5" y="959.2715"/><rect fill="none" height="781.3418" style="stroke:#000000;stroke-width:1.5;" width="1212.5" x="10" y="294.5059"/><rect fill="none" height="311.7051" style="stroke:#000000;stroke-width:1.5;" width="1192.5" x="20" y="405.4375"/><rect fill="none" height="90.8867" style="stroke:#000000;stroke-width:1.5;" width="500" x="30" y="574.9902"/><rect fill="none" height="236.1289" style="stroke:#000000;stroke-width:1.5;" width="1182.5" x="30" y="832.7188"/><line style="stroke:#181818;stroke-width:0.5;stroke-dasharray:5.0,5.0;" x1="58" x2="58" y1="83.9766" y2="1092.8477"/><line style="stroke:#181818;stroke-width:0.5;stroke-dasharray:5.0,5.0;" x1="440" x2="440" y1="83.9766" y2="1092.8477"/><line style="stroke:#181818;stroke-width:0.5;stroke-dasharray:5.0,5.0;" x1="658" x2="658" y1="186.0859" y2="1092.8477"/><line style="stroke:#181818;stroke-width:0.5;stroke-dasharray:5.0,5.0;" x1="927.5" x2="927.5" y1="83.9766" y2="1092.8477"/><line style="stroke:#181818;stroke-width:0.5;stroke-dasharray:5.0,5.0;" x1="1103.5" x2="1103.5" y1="83.9766" y2="1092.8477"/><text fill="#000000" font-family="FG Virgil" font-size="14" lengthAdjust="spacing" textLength="31" x="40" y="81.0234">User</text><ellipse cx="58.5" cy="15.9883" fill="#E3E3E3" rx="8" ry="8" style="stroke:#181818;stroke-width:0.5;"/><path d="M58.5,23.9883 L58.5,50.9883 M45.5,31.9883 L71.5,31.9883 M58.5,50.9883 L45.5,65.9883 M58.5,50.9883 L71.5,65.9883 " fill="none" style="stroke:#181818;stroke-width:0.5;"/><text fill="#000000" font-family="FG Virgil" font-size="14" lengthAdjust="spacing" textLength="31" x="40" y="1105.3828">User</text><ellipse cx="58.5" cy="1116.8359" fill="#E3E3E3" rx="8" ry="8" style="stroke:#181818;stroke-width:0.5;"/><path d="M58.5,1124.8359 L58.5,1151.8359 M45.5,1132.8359 L71.5,1132.8359 M58.5,1151.8359 L45.5,1166.8359 M58.5,1151.8359 L71.5,1166.8359 " fill="none" style="stroke:#181818;stroke-width:0.5;"/><rect fill="#E3E3E3" height="46.9766" rx="2.5" ry="2.5" style="stroke:#181818;stroke-width:0.5;" width="159" x="361" y="36"/><text fill="#000000" font-family="FG Virgil" font-size="14" font-style="italic" lengthAdjust="spacing" textLength="101" x="390" y="56.5352">&#171;presentation&#187;</text><text fill="#000000" font-family="FG Virgil" font-size="14" lengthAdjust="spacing" textLength="145" x="368" y="73.0234">ViewMeetingInvitesUI</text><rect fill="#E3E3E3" height="46.9766" rx="2.5" ry="2.5" style="stroke:#181818;stroke-width:0.5;" width="159" x="361" y="1091.8477"/><text fill="#000000" font-family="FG Virgil" font-size="14" font-style="italic" lengthAdjust="spacing" textLength="101" x="390" y="1112.3828">&#171;presentation&#187;</text><text fill="#000000" font-family="FG Virgil" font-size="14" lengthAdjust="spacing" textLength="145" x="368" y="1128.8711">ViewMeetingInvitesUI</text><text fill="#000000" font-family="FG Virgil" font-size="14" font-style="italic" lengthAdjust="spacing" textLength="90" x="610.5" y="1105.3828">&#171;application&#187;</text><text fill="#000000" font-family="FG Virgil" font-size="14" lengthAdjust="spacing" textLength="201" x="555" y="1121.8711">ViewMeetingInvitesController</text><ellipse cx="658.5" cy="1140.8242" fill="#E3E3E3" rx="12" ry="12" style="stroke:#181818;stroke-width:0.5;"/><polygon fill="#181818" points="654.5,1128.8242,660.5,1123.8242,658.5,1128.8242,660.5,1133.8242,654.5,1128.8242" style="stroke:#181818;stroke-width:1.0;"/><text fill="#000000" font-family="FG Virgil" font-size="14" font-style="italic" lengthAdjust="spacing" textLength="84" x="882.5" y="64.5352">&#171;repository&#187;</text><text fill="#000000" font-family="FG Virgil" font-size="14" lengthAdjust="spacing" textLength="128" x="860.5" y="81.0234">MeetingRepository</text><path d="M909.5,15 C909.5,5 927.5,5 927.5,5 C927.5,5 945.5,5 945.5,15 L945.5,41 C945.5,51 927.5,51 927.5,51 C927.5,51 909.5,51 909.5,41 L909.5,15 " fill="#E3E3E3" style="stroke:#181818;stroke-width:1.5;"/><path d="M909.5,15 C909.5,25 927.5,25 927.5,25 C927.5,25 945.5,25 945.5,15 " fill="none" style="stroke:#181818;stroke-width:1.5;"/><text fill="#000000" font-family="FG Virgil" font-size="14" font-style="italic" lengthAdjust="spacing" textLength="84" x="882.5" y="1105.3828">&#171;repository&#187;</text><text fill="#000000" font-family="FG Virgil" font-size="14" lengthAdjust="spacing" textLength="128" x="860.5" y="1121.8711">MeetingRepository</text><path d="M909.5,1134.8242 C909.5,1124.8242 927.5,1124.8242 927.5,1124.8242 C927.5,1124.8242 945.5,1124.8242 945.5,1134.8242 L945.5,1160.8242 C945.5,1170.8242 927.5,1170.8242 927.5,1170.8242 C927.5,1170.8242 909.5,1170.8242 909.5,1160.8242 L909.5,1134.8242 " fill="#E3E3E3" style="stroke:#181818;stroke-width:1.5;"/><path d="M909.5,1134.8242 C909.5,1144.8242 927.5,1144.8242 927.5,1144.8242 C927.5,1144.8242 945.5,1144.8242 945.5,1134.8242 " fill="none" style="stroke:#181818;stroke-width:1.5;"/><text fill="#000000" font-family="FG Virgil" font-size="14" font-style="italic" lengthAdjust="spacing" textLength="84" x="1058.5" y="64.5352">&#171;repository&#187;</text><text fill="#000000" font-family="FG Virgil" font-size="14" lengthAdjust="spacing" textLength="192" x="1004.5" y="81.0234">MeetingInvitationRepository</text><path d="M1085.5,15 C1085.5,5 1103.5,5 1103.5,5 C1103.5,5 1121.5,5 1121.5,15 L1121.5,41 C1121.5,51 1103.5,51 1103.5,51 C1103.5,51 1085.5,51 1085.5,41 L1085.5,15 " fill="#E3E3E3" style="stroke:#181818;stroke-width:1.5;"/><path d="M1085.5,15 C1085.5,25 1103.5,25 1103.5,25 C1103.5,25 1121.5,25 1121.5,15 " fill="none" style="stroke:#181818;stroke-width:1.5;"/><text fill="#000000" font-family="FG Virgil" font-size="14" font-style="italic" lengthAdjust="spacing" textLength="84" x="1058.5" y="1105.3828">&#171;repository&#187;</text><text fill="#000000" font-family="FG Virgil" font-size="14" lengthAdjust="spacing" textLength="192" x="1004.5" y="1121.8711">MeetingInvitationRepository</text><path d="M1085.5,1134.8242 C1085.5,1124.8242 1103.5,1124.8242 1103.5,1124.8242 C1103.5,1124.8242 1121.5,1124.8242 1121.5,1134.8242 L1121.5,1160.8242 C1121.5,1170.8242 1103.5,1170.8242 1103.5,1170.8242 C1103.5,1170.8242 1085.5,1170.8242 1085.5,1160.8242 L1085.5,1134.8242 " fill="#E3E3E3" style="stroke:#181818;stroke-width:1.5;"/><path d="M1085.5,1134.8242 C1085.5,1144.8242 1103.5,1144.8242 1103.5,1144.8242 C1103.5,1144.8242 1121.5,1144.8242 1121.5,1134.8242 " fill="none" style="stroke:#181818;stroke-width:1.5;"/><rect fill="#FFFFFF" height="953.25" style="stroke:#181818;stroke-width:1.0;" width="10" x="435.5" y="130.5977"/><rect fill="#FFFFFF" height="57.3105" style="stroke:#181818;stroke-width:1.0;" width="10" x="653.5" y="333.127"/><rect fill="#FFFFFF" height="57.3105" style="stroke:#181818;stroke-width:1.0;" width="10" x="653.5" y="502.6797"/><rect fill="#FFFFFF" height="57.3105" style="stroke:#181818;stroke-width:1.0;" width="10" x="653.5" y="760.4082"/><rect fill="#FFFFFF" height="57.3105" style="stroke:#181818;stroke-width:1.0;" width="10" x="653.5" y="929.9609"/><rect fill="#FFFFFF" height="14" style="stroke:#181818;stroke-width:1.0;" width="10" x="922.5" y="362.4375"/><rect fill="#FFFFFF" height="14" style="stroke:#181818;stroke-width:1.0;" width="10" x="1098.5" y="531.9902"/><rect fill="#FFFFFF" height="14" style="stroke:#181818;stroke-width:1.0;" width="10" x="1098.5" y="789.7188"/><rect fill="#FFFFFF" height="14" style="stroke:#181818;stroke-width:1.0;" width="10" x="1098.5" y="959.2715"/><polygon fill="#181818" points="423.5,126.5977,433.5,130.5977,423.5,134.5977,427.5,130.5977" style="stroke:#181818;stroke-width:1.0;"/><line style="stroke:#181818;stroke-width:1.0;" x1="58.5" x2="429.5" y1="130.5977" y2="130.5977"/><text fill="#000000" font-family="FG Virgil" font-size="13" lengthAdjust="spacing" textLength="282" x="65.5" y="110.5449">Wants to view the list of the participants in a</text><text fill="#000000" font-family="FG Virgil" font-size="13" lengthAdjust="spacing" textLength="284" x="69.5" y="125.8555">meeting and the status (accepted or rejected)</text><polygon fill="#181818" points="543,155.9082,553,159.9082,543,163.9082,547,159.9082" style="stroke:#181818;stroke-width:1.0;"/><line style="stroke:#181818;stroke-width:1.0;" x1="445.5" x2="549" y1="159.9082" y2="159.9082"/><text fill="#000000" font-family="FG Virgil" font-size="13" lengthAdjust="spacing" textLength="46" x="452.5" y="155.166">create()</text><text fill="#000000" font-family="FG Virgil" font-size="14" font-style="italic" lengthAdjust="spacing" textLength="90" x="610.5" y="184.1328">&#171;application&#187;</text><text fill="#000000" font-family="FG Virgil" font-size="14" lengthAdjust="spacing" textLength="201" x="555" y="200.6211">ViewMeetingInvitesController</text><ellipse cx="658.5" cy="154.5977" fill="#E3E3E3" rx="12" ry="12" style="stroke:#181818;stroke-width:0.5;"/><polygon fill="#181818" points="654.5,142.5977,660.5,137.5977,658.5,142.5977,660.5,147.5977,654.5,142.5977" style="stroke:#181818;stroke-width:1.0;"/><polygon fill="#181818" points="69.5,246.1953,59.5,250.1953,69.5,254.1953,65.5,250.1953" style="stroke:#181818;stroke-width:1.0;"/><line style="stroke:#181818;stroke-width:1.0;stroke-dasharray:2.0,2.0;" x1="63.5" x2="434.5" y1="250.1953" y2="250.1953"/><text fill="#000000" font-family="FG Virgil" font-size="13" lengthAdjust="spacing" textLength="293" x="75.5" y="230.1426">Asks if he wants to see the participants of one</text><text fill="#000000" font-family="FG Virgil" font-size="13" lengthAdjust="spacing" textLength="349" x="79.5" y="245.4531">meeting that he created or one that he accept the invite</text><polygon fill="#181818" points="423.5,275.5059,433.5,279.5059,423.5,283.5059,427.5,279.5059" style="stroke:#181818;stroke-width:1.0;"/><line style="stroke:#181818;stroke-width:1.0;" x1="58.5" x2="429.5" y1="279.5059" y2="279.5059"/><text fill="#000000" font-family="FG Virgil" font-size="13" lengthAdjust="spacing" textLength="89" x="65.5" y="274.7637">Selects option</text><path d="M10,294.5059 L72,294.5059 L72,301.8164 L62,311.8164 L10,311.8164 L10,294.5059 " fill="#EEEEEE" style="stroke:#000000;stroke-width:1.5;"/><rect fill="none" height="781.3418" style="stroke:#000000;stroke-width:1.5;" width="1212.5" x="10" y="294.5059"/><text fill="#000000" font-family="FG Virgil" font-size="13" font-weight="bold" lengthAdjust="spacing" textLength="17" x="25" y="308.0742">alt</text><text fill="#000000" font-family="FG Virgil" font-size="11" font-weight="bold" lengthAdjust="spacing" textLength="181" x="87" y="307.1406">[if option is meeting he created]</text><polygon fill="#181818" points="641.5,329.127,651.5,333.127,641.5,337.127,645.5,333.127" style="stroke:#181818;stroke-width:1.0;"/><line style="stroke:#181818;stroke-width:1.0;" x1="445.5" x2="647.5" y1="333.127" y2="333.127"/><text fill="#000000" font-family="FG Virgil" font-size="13" lengthAdjust="spacing" textLength="155" x="452.5" y="328.3848">listMeetingsOfUser(user)</text><polygon fill="#181818" points="910.5,358.4375,920.5,362.4375,910.5,366.4375,914.5,362.4375" style="stroke:#181818;stroke-width:1.0;"/><line style="stroke:#181818;stroke-width:1.0;" x1="663.5" x2="916.5" y1="362.4375" y2="362.4375"/><text fill="#000000" font-family="FG Virgil" font-size="13" lengthAdjust="spacing" textLength="240" x="670.5" y="357.6953">findMeetingsNotCanceledOfUser(user)</text><polygon fill="#181818" points="674.5,372.4375,664.5,376.4375,674.5,380.4375,670.5,376.4375" style="stroke:#181818;stroke-width:1.0;"/><line style="stroke:#181818;stroke-width:1.0;stroke-dasharray:2.0,2.0;" x1="668.5" x2="926.5" y1="376.4375" y2="376.4375"/><polygon fill="#181818" points="456.5,386.4375,446.5,390.4375,456.5,394.4375,452.5,390.4375" style="stroke:#181818;stroke-width:1.0;"/><line style="stroke:#181818;stroke-width:1.0;stroke-dasharray:2.0,2.0;" x1="450.5" x2="657.5" y1="390.4375" y2="390.4375"/><path d="M20,405.4375 L82,405.4375 L82,412.748 L72,422.748 L20,422.748 L20,405.4375 " fill="#EEEEEE" style="stroke:#000000;stroke-width:1.5;"/><rect fill="none" height="311.7051" style="stroke:#000000;stroke-width:1.5;" width="1192.5" x="20" y="405.4375"/><text fill="#000000" font-family="FG Virgil" font-size="13" font-weight="bold" lengthAdjust="spacing" textLength="17" x="35" y="419.0059">alt</text><text fill="#000000" font-family="FG Virgil" font-size="11" font-weight="bold" lengthAdjust="spacing" textLength="150" x="97" y="418.0723">[if meeting list is not null]</text><polygon fill="#181818" points="69.5,440.0586,59.5,444.0586,69.5,448.0586,65.5,444.0586" style="stroke:#181818;stroke-width:1.0;"/><line style="stroke:#181818;stroke-width:1.0;stroke-dasharray:2.0,2.0;" x1="63.5" x2="434.5" y1="444.0586" y2="444.0586"/><text fill="#000000" font-family="FG Virgil" font-size="13" lengthAdjust="spacing" textLength="200" x="75.5" y="439.3164">Ask user to choose the meeting</text><polygon fill="#181818" points="423.5,469.3691,433.5,473.3691,423.5,477.3691,427.5,473.3691" style="stroke:#181818;stroke-width:1.0;"/><line style="stroke:#181818;stroke-width:1.0;" x1="58.5" x2="429.5" y1="473.3691" y2="473.3691"/><text fill="#000000" font-family="FG Virgil" font-size="13" lengthAdjust="spacing" textLength="98" x="65.5" y="468.627">Selects Meeting</text><polygon fill="#181818" points="641.5,498.6797,651.5,502.6797,641.5,506.6797,645.5,502.6797" style="stroke:#181818;stroke-width:1.0;"/><line style="stroke:#181818;stroke-width:1.0;" x1="445.5" x2="647.5" y1="502.6797" y2="502.6797"/><text fill="#000000" font-family="FG Virgil" font-size="13" lengthAdjust="spacing" textLength="189" x="452.5" y="497.9375">listMeetingInvitation(meeting)</text><polygon fill="#181818" points="1086.5,527.9902,1096.5,531.9902,1086.5,535.9902,1090.5,531.9902" style="stroke:#181818;stroke-width:1.0;"/><line style="stroke:#181818;stroke-width:1.0;" x1="663.5" x2="1092.5" y1="531.9902" y2="531.9902"/><text fill="#000000" font-family="FG Virgil" font-size="13" lengthAdjust="spacing" textLength="338" x="670.5" y="527.248">findByIdAndWithAcceptedAndRejectedStatus(meeting)</text><polygon fill="#181818" points="674.5,541.9902,664.5,545.9902,674.5,549.9902,670.5,545.9902" style="stroke:#181818;stroke-width:1.0;"/><line style="stroke:#181818;stroke-width:1.0;stroke-dasharray:2.0,2.0;" x1="668.5" x2="1102.5" y1="545.9902" y2="545.9902"/><polygon fill="#181818" points="456.5,555.9902,446.5,559.9902,456.5,563.9902,452.5,559.9902" style="stroke:#181818;stroke-width:1.0;"/><line style="stroke:#181818;stroke-width:1.0;stroke-dasharray:2.0,2.0;" x1="450.5" x2="657.5" y1="559.9902" y2="559.9902"/><path d="M30,574.9902 L92,574.9902 L92,582.3008 L82,592.3008 L30,592.3008 L30,574.9902 " fill="#EEEEEE" style="stroke:#000000;stroke-width:1.5;"/><rect fill="none" height="90.8867" style="stroke:#000000;stroke-width:1.5;" width="500" x="30" y="574.9902"/><text fill="#000000" font-family="FG Virgil" font-size="13" font-weight="bold" lengthAdjust="spacing" textLength="17" x="45" y="588.5586">alt</text><text fill="#000000" font-family="FG Virgil" font-size="11" font-weight="bold" lengthAdjust="spacing" textLength="208" x="107" y="587.625">[if list of meeting invites is not null]</text><polygon fill="#181818" points="69.5,609.6113,59.5,613.6113,69.5,617.6113,65.5,613.6113" style="stroke:#181818;stroke-width:1.0;"/><line style="stroke:#181818;stroke-width:1.0;stroke-dasharray:2.0,2.0;" x1="63.5" x2="434.5" y1="613.6113" y2="613.6113"/><text fill="#000000" font-family="FG Virgil" font-size="13" lengthAdjust="spacing" textLength="187" x="75.5" y="608.8691">display list of meeting invites</text><line style="stroke:#000000;stroke-width:1.0;stroke-dasharray:2.0,2.0;" x1="30" x2="530" y1="622.6113" y2="622.6113"/><text fill="#000000" font-family="FG Virgil" font-size="11" font-weight="bold" lengthAdjust="spacing" textLength="186" x="35" y="633.2461">[if list of meeting invites is null]</text><polygon fill="#181818" points="69.5,653.877,59.5,657.877,69.5,661.877,65.5,657.877" style="stroke:#181818;stroke-width:1.0;"/><line style="stroke:#181818;stroke-width:1.0;stroke-dasharray:2.0,2.0;" x1="63.5" x2="434.5" y1="657.877" y2="657.877"/><text fill="#000000" font-family="FG Virgil" font-size="13" lengthAdjust="spacing" textLength="309" x="75.5" y="653.1348">informs that there are no invites for that meeting</text><line style="stroke:#000000;stroke-width:1.0;stroke-dasharray:2.0,2.0;" x1="20" x2="1212.5" y1="673.877" y2="673.877"/><text fill="#000000" font-family="FG Virgil" font-size="11" font-weight="bold" lengthAdjust="spacing" textLength="128" x="25" y="684.5117">[if meeting list is null]</text><polygon fill="#181818" points="69.5,705.1426,59.5,709.1426,69.5,713.1426,65.5,709.1426" style="stroke:#181818;stroke-width:1.0;"/><line style="stroke:#181818;stroke-width:1.0;stroke-dasharray:2.0,2.0;" x1="63.5" x2="434.5" y1="709.1426" y2="709.1426"/><text fill="#000000" font-family="FG Virgil" font-size="13" lengthAdjust="spacing" textLength="205" x="75.5" y="704.4004">informs that he has no meetings</text><line style="stroke:#000000;stroke-width:1.0;stroke-dasharray:2.0,2.0;" x1="10" x2="1222.5" y1="725.1426" y2="725.1426"/><text fill="#000000" font-family="FG Virgil" font-size="11" font-weight="bold" lengthAdjust="spacing" textLength="233" x="15" y="735.7773">[if option is meeting he accept the invite]</text><polygon fill="#181818" points="641.5,756.4082,651.5,760.4082,641.5,764.4082,645.5,760.4082" style="stroke:#181818;stroke-width:1.0;"/><line style="stroke:#181818;stroke-width:1.0;" x1="445.5" x2="647.5" y1="760.4082" y2="760.4082"/><text fill="#000000" font-family="FG Virgil" font-size="13" lengthAdjust="spacing" textLength="182" x="452.5" y="755.666">listMeetingWhereUserIs(user)</text><polygon fill="#181818" points="1086.5,785.7188,1096.5,789.7188,1086.5,793.7188,1090.5,789.7188" style="stroke:#181818;stroke-width:1.0;"/><line style="stroke:#181818;stroke-width:1.0;" x1="663.5" x2="1092.5" y1="789.7188" y2="789.7188"/><text fill="#000000" font-family="FG Virgil" font-size="13" lengthAdjust="spacing" textLength="338" x="670.5" y="784.9766">findMeetingInvitationOfUserWithStatusAccepted(user)</text><polygon fill="#181818" points="674.5,799.7188,664.5,803.7188,674.5,807.7188,670.5,803.7188" style="stroke:#181818;stroke-width:1.0;"/><line style="stroke:#181818;stroke-width:1.0;stroke-dasharray:2.0,2.0;" x1="668.5" x2="1102.5" y1="803.7188" y2="803.7188"/><polygon fill="#181818" points="456.5,813.7188,446.5,817.7188,456.5,821.7188,452.5,817.7188" style="stroke:#181818;stroke-width:1.0;"/><line style="stroke:#181818;stroke-width:1.0;stroke-dasharray:2.0,2.0;" x1="450.5" x2="657.5" y1="817.7188" y2="817.7188"/><path d="M30,832.7188 L92,832.7188 L92,840.0293 L82,850.0293 L30,850.0293 L30,832.7188 " fill="#EEEEEE" style="stroke:#000000;stroke-width:1.5;"/><rect fill="none" height="236.1289" style="stroke:#000000;stroke-width:1.5;" width="1182.5" x="30" y="832.7188"/><text fill="#000000" font-family="FG Virgil" font-size="13" font-weight="bold" lengthAdjust="spacing" textLength="17" x="45" y="846.2871">alt</text><text fill="#000000" font-family="FG Virgil" font-size="11" font-weight="bold" lengthAdjust="spacing" textLength="208" x="107" y="845.3535">[if meeting invitation list is not null]</text><polygon fill="#181818" points="69.5,867.3398,59.5,871.3398,69.5,875.3398,65.5,871.3398" style="stroke:#181818;stroke-width:1.0;"/><line style="stroke:#181818;stroke-width:1.0;stroke-dasharray:2.0,2.0;" x1="63.5" x2="434.5" y1="871.3398" y2="871.3398"/><text fill="#000000" font-family="FG Virgil" font-size="13" lengthAdjust="spacing" textLength="163" x="75.5" y="866.5977">Asks to choose a meeting</text><polygon fill="#181818" points="423.5,896.6504,433.5,900.6504,423.5,904.6504,427.5,900.6504" style="stroke:#181818;stroke-width:1.0;"/><line style="stroke:#181818;stroke-width:1.0;" x1="58.5" x2="429.5" y1="900.6504" y2="900.6504"/><text fill="#000000" font-family="FG Virgil" font-size="13" lengthAdjust="spacing" textLength="98" x="65.5" y="895.9082">Selects Meeting</text><polygon fill="#181818" points="641.5,925.9609,651.5,929.9609,641.5,933.9609,645.5,929.9609" style="stroke:#181818;stroke-width:1.0;"/><line style="stroke:#181818;stroke-width:1.0;" x1="445.5" x2="647.5" y1="929.9609" y2="929.9609"/><text fill="#000000" font-family="FG Virgil" font-size="13" lengthAdjust="spacing" textLength="189" x="452.5" y="925.2188">listMeetingInvitation(meeting)</text><polygon fill="#181818" points="1086.5,955.2715,1096.5,959.2715,1086.5,963.2715,1090.5,959.2715" style="stroke:#181818;stroke-width:1.0;"/><line style="stroke:#181818;stroke-width:1.0;" x1="663.5" x2="1092.5" y1="959.2715" y2="959.2715"/><text fill="#000000" font-family="FG Virgil" font-size="13" lengthAdjust="spacing" textLength="338" x="670.5" y="954.5293">findByIdAndWithAcceptedAndRejectedStatus(meeting)</text><polygon fill="#181818" points="674.5,969.2715,664.5,973.2715,674.5,977.2715,670.5,973.2715" style="stroke:#181818;stroke-width:1.0;"/><line style="stroke:#181818;stroke-width:1.0;stroke-dasharray:2.0,2.0;" x1="668.5" x2="1102.5" y1="973.2715" y2="973.2715"/><polygon fill="#181818" points="456.5,983.2715,446.5,987.2715,456.5,991.2715,452.5,987.2715" style="stroke:#181818;stroke-width:1.0;"/><line style="stroke:#181818;stroke-width:1.0;stroke-dasharray:2.0,2.0;" x1="450.5" x2="657.5" y1="987.2715" y2="987.2715"/><polygon fill="#181818" points="69.5,1012.582,59.5,1016.582,69.5,1020.582,65.5,1016.582" style="stroke:#181818;stroke-width:1.0;"/><line style="stroke:#181818;stroke-width:1.0;stroke-dasharray:2.0,2.0;" x1="63.5" x2="434.5" y1="1016.582" y2="1016.582"/><text fill="#000000" font-family="FG Virgil" font-size="13" lengthAdjust="spacing" textLength="187" x="75.5" y="1011.8398">display list of meeting invites</text><line style="stroke:#000000;stroke-width:1.0;stroke-dasharray:2.0,2.0;" x1="30" x2="1212.5" y1="1025.582" y2="1025.582"/><text fill="#000000" font-family="FG Virgil" font-size="11" font-weight="bold" lengthAdjust="spacing" textLength="186" x="35" y="1036.2168">[if meeting invitation list is null]</text><polygon fill="#181818" points="69.5,1056.8477,59.5,1060.8477,69.5,1064.8477,65.5,1060.8477" style="stroke:#181818;stroke-width:1.0;"/><line style="stroke:#181818;stroke-width:1.0;stroke-dasharray:2.0,2.0;" x1="63.5" x2="434.5" y1="1060.8477" y2="1060.8477"/><text fill="#000000" font-family="FG Virgil" font-size="13" lengthAdjust="spacing" textLength="205" x="75.5" y="1056.1055">informs that he has no meetings</text><!--SRC=[tLN1Rjim3BtxAtXRMg3jFGWAP0KwvB0EQD7riejcqxLMMJ8afaN-VfHaEtRjE6bMTCC298WjyRqdwf7yL11LyukBIWbDwrATfwQyS4zILyAAyhoWKYNj8vH6cxImfaGWkyREIYNI9_68TxHH21PJwgnbc8kreckZwKPmwFKN-2xje-mYkq9avaNgHyY5SfWa8YLZuTwX1U5WwPyItaeobHLBPGHy-Of87BBIpvBGtQ_yJlvTB2gB3ZK9aaPVNYOfCrkZHcAkuegAB9FhYuMeAYNJ1ZGJ97uAXr17t69bd6IP6myrVBbOsFPX93mG1knHeD7bLv19o1ASNN8Ivl30MN901fxvL405WfAEmEJXVoUL3gG60Jyqb94BXCx29iUCQmSpaQPO4MR0w1P_yUrYTk9lI3uBGcPBW3-SUQQUJkBfwHnIYnmrEqdQA0uBqkUmT4yi9mScVsdqEyIXP3w6qTWLJOKW7nVXWrQ_etaTpn20P90Ls7iPkqF5HsFiokSvoXEAl9xu2gHhwRPCSUCs0vC9c8TRg9VTjzmRVBRcdvCM9T0skPq2sn9FKhAaeHlda4kTDJfk35q9dVBvir59hPm1KBjbI76s9nTjQ8O7u4yVCTpW6E110kfBRgusr0bVjJO4UgrKxsO6VWMVAk_Jj336HQlMIBt0KQlLqf9N57iorpFHjZFCQjfZhDIDED1DOoqfskhpPfKjTVOWgLZMhOCVR-lESHUwoXwn4nozWAdsUB01nqsub_ijbdoBBViPYTviUdVZqTZ3t84spQJZ0R_PXT9dH9w_-oYdwQJEZIrTxBrS3vRRBt-rQJ5uFQwELGhgJazjr0oAiok1AsO7EnTZ8NoE6W2NT6cw3ACzVdni7DRiUsNwuDFWM-lAxMgk7rUWWmsnw_k2ZTNPbEtKQFhVIlGFfuPijRnnWBZEy13xHWVyuxFZBy-FempwxaOzqgmVDbFUOJXCkVwruu_kqBqkxOV2Rm00]--></g></svg>