<?xml version="1.0" encoding="us-ascii" standalone="no"?><svg xmlns="http://www.w3.org/2000/svg" xmlns:xlink="http://www.w3.org/1999/xlink" contentStyleType="text/css" height="718px" preserveAspectRatio="none" style="width:523px;height:718px;background:#FFFFFF;" version="1.1" viewBox="0 0 523 718" width="523px" zoomAndPan="magnify"><defs/><g><rect fill="none" height="434.8574" style="stroke:#000000;stroke-width:1.5;" width="506.5" x="10" y="230.6621"/><rect fill="none" height="225.084" style="stroke:#000000;stroke-width:1.5;" width="486.5" x="20" y="254.9727"/><rect fill="none" height="90.8867" style="stroke:#000000;stroke-width:1.5;" width="466.5" x="30" y="337.9043"/><rect fill="none" height="149.5078" style="stroke:#000000;stroke-width:1.5;" width="466.5" x="30" y="509.0117"/><line style="stroke:#181818;stroke-width:0.5;stroke-dasharray:5.0,5.0;" x1="65" x2="65" y1="36.4883" y2="682.5195"/><line style="stroke:#181818;stroke-width:0.5;stroke-dasharray:5.0,5.0;" x1="455.5" x2="455.5" y1="36.4883" y2="682.5195"/><rect fill="#E2E2F0" height="30.4883" rx="2.5" ry="2.5" style="stroke:#181818;stroke-width:0.5;" width="51" x="40" y="5"/><text fill="#000000" font-family="sans-serif" font-size="14" lengthAdjust="spacing" textLength="37" x="47" y="25.5352">Actor</text><rect fill="#E2E2F0" height="30.4883" rx="2.5" ry="2.5" style="stroke:#181818;stroke-width:0.5;" width="51" x="40" y="681.5195"/><text fill="#000000" font-family="sans-serif" font-size="14" lengthAdjust="spacing" textLength="37" x="47" y="702.0547">Actor</text><rect fill="#E2E2F0" height="30.4883" rx="2.5" ry="2.5" style="stroke:#181818;stroke-width:0.5;" width="62" x="424.5" y="5"/><text fill="#000000" font-family="sans-serif" font-size="14" lengthAdjust="spacing" textLength="48" x="431.5" y="25.5352">System</text><rect fill="#E2E2F0" height="30.4883" rx="2.5" ry="2.5" style="stroke:#181818;stroke-width:0.5;" width="62" x="424.5" y="681.5195"/><text fill="#000000" font-family="sans-serif" font-size="14" lengthAdjust="spacing" textLength="48" x="431.5" y="702.0547">System</text><polygon fill="#181818" points="443.5,63.7988,453.5,67.7988,443.5,71.7988,447.5,67.7988" style="stroke:#181818;stroke-width:1.0;"/><line style="stroke:#181818;stroke-width:1.0;" x1="65.5" x2="449.5" y1="67.7988" y2="67.7988"/><text fill="#000000" font-family="sans-serif" font-size="13" font-weight="bold" lengthAdjust="spacing" textLength="9" x="72.5" y="63.0566">1</text><text fill="#000000" font-family="sans-serif" font-size="13" lengthAdjust="spacing" textLength="147" x="85.5" y="63.0566">Authentication Request</text><polygon fill="#181818" points="76.5,93.1094,66.5,97.1094,76.5,101.1094,72.5,97.1094" style="stroke:#181818;stroke-width:1.0;"/><line style="stroke:#181818;stroke-width:1.0;stroke-dasharray:2.0,2.0;" x1="70.5" x2="454.5" y1="97.1094" y2="97.1094"/><text fill="#000000" font-family="sans-serif" font-size="13" font-weight="bold" lengthAdjust="spacing" textLength="9" x="82.5" y="92.3672">2</text><text fill="#000000" font-family="sans-serif" font-size="13" lengthAdjust="spacing" textLength="157" x="95.5" y="92.3672">Authentication Response</text><polygon fill="#181818" points="443.5,137.7305,453.5,141.7305,443.5,145.7305,447.5,141.7305" style="stroke:#181818;stroke-width:1.0;"/><line style="stroke:#181818;stroke-width:1.0;" x1="65.5" x2="449.5" y1="141.7305" y2="141.7305"/><text fill="#000000" font-family="sans-serif" font-size="13" font-weight="bold" lengthAdjust="spacing" textLength="9" x="72.5" y="129.333">3</text><text fill="#000000" font-family="sans-serif" font-size="13" lengthAdjust="spacing" textLength="282" x="85.5" y="121.6777">Wants to view the list of the participants in a</text><text fill="#000000" font-family="sans-serif" font-size="13" lengthAdjust="spacing" textLength="284" x="89.5" y="136.9883">meeting and the status (accepted or rejected)</text><polygon fill="#181818" points="76.5,182.3516,66.5,186.3516,76.5,190.3516,72.5,186.3516" style="stroke:#181818;stroke-width:1.0;"/><line style="stroke:#181818;stroke-width:1.0;stroke-dasharray:2.0,2.0;" x1="70.5" x2="454.5" y1="186.3516" y2="186.3516"/><text fill="#000000" font-family="sans-serif" font-size="13" font-weight="bold" lengthAdjust="spacing" textLength="9" x="82.5" y="173.9541">4</text><text fill="#000000" font-family="sans-serif" font-size="13" lengthAdjust="spacing" textLength="293" x="95.5" y="166.2988">Asks if he wants to see the participants of one</text><text fill="#000000" font-family="sans-serif" font-size="13" lengthAdjust="spacing" textLength="349" x="99.5" y="181.6094">meeting that he created or one that he accept the invite</text><polygon fill="#181818" points="443.5,211.6621,453.5,215.6621,443.5,219.6621,447.5,215.6621" style="stroke:#181818;stroke-width:1.0;"/><line style="stroke:#181818;stroke-width:1.0;" x1="65.5" x2="449.5" y1="215.6621" y2="215.6621"/><text fill="#000000" font-family="sans-serif" font-size="13" font-weight="bold" lengthAdjust="spacing" textLength="9" x="72.5" y="210.9199">5</text><text fill="#000000" font-family="sans-serif" font-size="13" lengthAdjust="spacing" textLength="89" x="85.5" y="210.9199">Selects option</text><path d="M10,230.6621 L72,230.6621 L72,237.9727 L62,247.9727 L10,247.9727 L10,230.6621 " fill="#EEEEEE" style="stroke:#000000;stroke-width:1.5;"/><rect fill="none" height="434.8574" style="stroke:#000000;stroke-width:1.5;" width="506.5" x="10" y="230.6621"/><text fill="#000000" font-family="sans-serif" font-size="13" font-weight="bold" lengthAdjust="spacing" textLength="17" x="25" y="244.2305">alt</text><text fill="#000000" font-family="sans-serif" font-size="11" font-weight="bold" lengthAdjust="spacing" textLength="141" x="87" y="243.2969">[if is meeting he created]</text><path d="M20,254.9727 L82,254.9727 L82,262.2832 L72,272.2832 L20,272.2832 L20,254.9727 " fill="#EEEEEE" style="stroke:#000000;stroke-width:1.5;"/><rect fill="none" height="225.084" style="stroke:#000000;stroke-width:1.5;" width="486.5" x="20" y="254.9727"/><text fill="#000000" font-family="sans-serif" font-size="13" font-weight="bold" lengthAdjust="spacing" textLength="17" x="35" y="268.541">alt</text><text fill="#000000" font-family="sans-serif" font-size="11" font-weight="bold" lengthAdjust="spacing" textLength="150" x="97" y="267.6074">[if meeting list is not null]</text><polygon fill="#181818" points="76.5,289.5938,66.5,293.5938,76.5,297.5938,72.5,293.5938" style="stroke:#181818;stroke-width:1.0;"/><line style="stroke:#181818;stroke-width:1.0;stroke-dasharray:2.0,2.0;" x1="70.5" x2="454.5" y1="293.5938" y2="293.5938"/><text fill="#000000" font-family="sans-serif" font-size="13" font-weight="bold" lengthAdjust="spacing" textLength="9" x="82.5" y="288.8516">6</text><text fill="#000000" font-family="sans-serif" font-size="13" lengthAdjust="spacing" textLength="176" x="95.5" y="288.8516">Asks to choose the meeting</text><polygon fill="#181818" points="443.5,318.9043,453.5,322.9043,443.5,326.9043,447.5,322.9043" style="stroke:#181818;stroke-width:1.0;"/><line style="stroke:#181818;stroke-width:1.0;" x1="65.5" x2="449.5" y1="322.9043" y2="322.9043"/><text fill="#000000" font-family="sans-serif" font-size="13" font-weight="bold" lengthAdjust="spacing" textLength="9" x="72.5" y="318.1621">7</text><text fill="#000000" font-family="sans-serif" font-size="13" lengthAdjust="spacing" textLength="99" x="85.5" y="318.1621">Selects meeting</text><path d="M30,337.9043 L92,337.9043 L92,345.2148 L82,355.2148 L30,355.2148 L30,337.9043 " fill="#EEEEEE" style="stroke:#000000;stroke-width:1.5;"/><rect fill="none" height="90.8867" style="stroke:#000000;stroke-width:1.5;" width="466.5" x="30" y="337.9043"/><text fill="#000000" font-family="sans-serif" font-size="13" font-weight="bold" lengthAdjust="spacing" textLength="17" x="45" y="351.4727">alt</text><text fill="#000000" font-family="sans-serif" font-size="11" font-weight="bold" lengthAdjust="spacing" textLength="208" x="107" y="350.5391">[if list of meeting invites is not null]</text><polygon fill="#181818" points="76.5,372.5254,66.5,376.5254,76.5,380.5254,72.5,376.5254" style="stroke:#181818;stroke-width:1.0;"/><line style="stroke:#181818;stroke-width:1.0;stroke-dasharray:2.0,2.0;" x1="70.5" x2="454.5" y1="376.5254" y2="376.5254"/><text fill="#000000" font-family="sans-serif" font-size="13" font-weight="bold" lengthAdjust="spacing" textLength="9" x="82.5" y="371.7832">8</text><text fill="#000000" font-family="sans-serif" font-size="13" lengthAdjust="spacing" textLength="187" x="95.5" y="371.7832">display list of meeting invites</text><line style="stroke:#000000;stroke-width:1.0;stroke-dasharray:2.0,2.0;" x1="30" x2="496.5" y1="385.5254" y2="385.5254"/><text fill="#000000" font-family="sans-serif" font-size="11" font-weight="bold" lengthAdjust="spacing" textLength="186" x="35" y="396.1602">[if list of meeting invites is null]</text><polygon fill="#181818" points="76.5,416.791,66.5,420.791,76.5,424.791,72.5,420.791" style="stroke:#181818;stroke-width:1.0;"/><line style="stroke:#181818;stroke-width:1.0;stroke-dasharray:2.0,2.0;" x1="70.5" x2="454.5" y1="420.791" y2="420.791"/><text fill="#000000" font-family="sans-serif" font-size="13" font-weight="bold" lengthAdjust="spacing" textLength="9" x="82.5" y="416.0488">9</text><text fill="#000000" font-family="sans-serif" font-size="13" lengthAdjust="spacing" textLength="309" x="95.5" y="416.0488">informs that there are no invites for that meeting</text><line style="stroke:#000000;stroke-width:1.0;stroke-dasharray:2.0,2.0;" x1="20" x2="506.5" y1="436.791" y2="436.791"/><text fill="#000000" font-family="sans-serif" font-size="11" font-weight="bold" lengthAdjust="spacing" textLength="128" x="25" y="447.4258">[if meeting list is null]</text><polygon fill="#181818" points="76.5,468.0566,66.5,472.0566,76.5,476.0566,72.5,472.0566" style="stroke:#181818;stroke-width:1.0;"/><line style="stroke:#181818;stroke-width:1.0;stroke-dasharray:2.0,2.0;" x1="70.5" x2="454.5" y1="472.0566" y2="472.0566"/><text fill="#000000" font-family="sans-serif" font-size="13" font-weight="bold" lengthAdjust="spacing" textLength="18" x="82.5" y="467.3145">10</text><text fill="#000000" font-family="sans-serif" font-size="13" lengthAdjust="spacing" textLength="205" x="104.5" y="467.3145">informs that he has no meetings</text><line style="stroke:#000000;stroke-width:1.0;stroke-dasharray:2.0,2.0;" x1="10" x2="516.5" y1="488.0566" y2="488.0566"/><text fill="#000000" font-family="sans-serif" font-size="11" font-weight="bold" lengthAdjust="spacing" textLength="246" x="15" y="498.6914">[if option is meeting he accepted the invite]</text><path d="M30,509.0117 L92,509.0117 L92,516.3223 L82,526.3223 L30,526.3223 L30,509.0117 " fill="#EEEEEE" style="stroke:#000000;stroke-width:1.5;"/><rect fill="none" height="149.5078" style="stroke:#000000;stroke-width:1.5;" width="466.5" x="30" y="509.0117"/><text fill="#000000" font-family="sans-serif" font-size="13" font-weight="bold" lengthAdjust="spacing" textLength="17" x="45" y="522.5801">alt</text><text fill="#000000" font-family="sans-serif" font-size="11" font-weight="bold" lengthAdjust="spacing" textLength="208" x="107" y="521.6465">[if meeting invitation list is not null]</text><polygon fill="#181818" points="76.5,543.6328,66.5,547.6328,76.5,551.6328,72.5,547.6328" style="stroke:#181818;stroke-width:1.0;"/><line style="stroke:#181818;stroke-width:1.0;stroke-dasharray:2.0,2.0;" x1="70.5" x2="454.5" y1="547.6328" y2="547.6328"/><text fill="#000000" font-family="sans-serif" font-size="13" font-weight="bold" lengthAdjust="spacing" textLength="18" x="82.5" y="542.8906">11</text><text fill="#000000" font-family="sans-serif" font-size="13" lengthAdjust="spacing" textLength="176" x="104.5" y="542.8906">Asks to choose the meeting</text><polygon fill="#181818" points="443.5,572.9434,453.5,576.9434,443.5,580.9434,447.5,576.9434" style="stroke:#181818;stroke-width:1.0;"/><line style="stroke:#181818;stroke-width:1.0;" x1="65.5" x2="449.5" y1="576.9434" y2="576.9434"/><text fill="#000000" font-family="sans-serif" font-size="13" font-weight="bold" lengthAdjust="spacing" textLength="18" x="72.5" y="572.2012">12</text><text fill="#000000" font-family="sans-serif" font-size="13" lengthAdjust="spacing" textLength="99" x="94.5" y="572.2012">Selects meeting</text><polygon fill="#181818" points="76.5,602.2539,66.5,606.2539,76.5,610.2539,72.5,606.2539" style="stroke:#181818;stroke-width:1.0;"/><line style="stroke:#181818;stroke-width:1.0;stroke-dasharray:2.0,2.0;" x1="70.5" x2="454.5" y1="606.2539" y2="606.2539"/><text fill="#000000" font-family="sans-serif" font-size="13" font-weight="bold" lengthAdjust="spacing" textLength="18" x="82.5" y="601.5117">13</text><text fill="#000000" font-family="sans-serif" font-size="13" lengthAdjust="spacing" textLength="187" x="104.5" y="601.5117">display list of meeting invites</text><line style="stroke:#000000;stroke-width:1.0;stroke-dasharray:2.0,2.0;" x1="30" x2="496.5" y1="615.2539" y2="615.2539"/><text fill="#000000" font-family="sans-serif" font-size="11" font-weight="bold" lengthAdjust="spacing" textLength="128" x="35" y="625.8887">[if meeting list is null]</text><polygon fill="#181818" points="76.5,646.5195,66.5,650.5195,76.5,654.5195,72.5,650.5195" style="stroke:#181818;stroke-width:1.0;"/><line style="stroke:#181818;stroke-width:1.0;stroke-dasharray:2.0,2.0;" x1="70.5" x2="454.5" y1="650.5195" y2="650.5195"/><text fill="#000000" font-family="sans-serif" font-size="13" font-weight="bold" lengthAdjust="spacing" textLength="18" x="82.5" y="645.7773">14</text><text fill="#000000" font-family="sans-serif" font-size="13" lengthAdjust="spacing" textLength="205" x="104.5" y="645.7773">informs that he has no meetings</text><!--SRC=[nLCzJyCm4DtpAsu3Xj8z0rB_0XrOM8npRGpEEUGkhVhlkTXnMgM1YWKiMR9oxzvxzv6xMgJbShrklI7f6_zeGxDc_EoHBAugP_QTQOh2z1AeRzwmAugDbT31wWcs9nPiIjZqKYE9iqPS87WUibcA58QL8cFA0f3RG8mBb2_gXa4271mUGRF0EnO8k_XkJQSaheqWHs3WbQ1154TxC5H548kHdk7UM8kjO0MgqE4xMdq_B9dZ3oNRWQOUipeZNWkgYK1uAIcraI7FTcX6fG6HFoS7aSZHmGbUrxj5hyQKknqwKnWlWnN7ayIPlG0z8o17OtCKJK60UkyZPZZpCg6CPMffjWw1KtKZovGqSmTdUtFaQ2FF9jj9LVAYeoLN9LIETGDFtp5DsUZLymt5ssgETg5hE0r8Ez3fZFHIc7WqdgBpYf7I0BAHgmdyrFsPihQ-DaEBCakgSv38z6aVPeimRVJ5HYqiHOoaF-s_zkFtW_wJvkhz0W00]--></g></svg>