<?xml version="1.0" encoding="us-ascii" standalone="no"?><svg xmlns="http://www.w3.org/2000/svg" xmlns:xlink="http://www.w3.org/1999/xlink" contentStyleType="text/css" height="1067.5px" preserveAspectRatio="none" style="width:1000px;height:1067px;background:#FFFFFF;" version="1.1" viewBox="0 0 1000 1067" width="1001px" zoomAndPan="magnify"><defs/><g><rect fill="#FFFFFF" height="900.7291" style="stroke:#181818;stroke-width:0.6999999999999998;" width="7" x="182.35" y="85.0732"/><rect fill="#FFFFFF" height="367.8705" style="stroke:#181818;stroke-width:0.6999999999999998;" width="7" x="406.35" y="162.4465"/><rect fill="#FFFFFF" height="367.8705" style="stroke:#181818;stroke-width:0.6999999999999998;" width="7" x="406.35" y="596.0281"/><rect fill="#FFFFFF" height="261.6482" style="stroke:#181818;stroke-width:0.6999999999999998;" width="7" x="564.2" y="246.765"/><rect fill="#FFFFFF" height="170.826" style="stroke:#181818;stroke-width:0.6999999999999998;" width="7" x="564.2" y="680.3467"/><rect fill="#FFFFFF" height="21.9037" style="stroke:#181818;stroke-width:0.6999999999999998;" width="7" x="688.8" y="268.6687"/><rect fill="#FFFFFF" height="21.9037" style="stroke:#181818;stroke-width:0.6999999999999998;" width="7" x="792.4" y="312.4762"/><rect fill="#FFFFFF" height="21.9037" style="stroke:#181818;stroke-width:0.6999999999999998;" width="7" x="792.4" y="702.2504"/><rect fill="#FFFFFF" height="21.9037" style="stroke:#181818;stroke-width:0.6999999999999998;" width="7" x="925.75" y="746.0578"/><rect fill="none" height="67.8111" style="stroke:#000000;stroke-width:1.0499999999999998;" width="252.7" x="488.6" y="344.8799"/><rect fill="none" height="44.5074" style="stroke:#000000;stroke-width:1.0499999999999998;" width="238.7" x="495.6" y="363.2836"/><rect fill="none" height="67.8111" style="stroke:#000000;stroke-width:1.0499999999999998;" width="223.3" x="488.6" y="778.4615"/><rect fill="none" height="44.5074" style="stroke:#000000;stroke-width:1.0499999999999998;" width="209.3" x="495.6" y="796.8652"/><line style="stroke:#181818;stroke-width:0.3499999999999999;stroke-dasharray:5.0,5.0;" x1="15.4" x2="15.4" y1="61.7695" y2="998.4023"/><line style="stroke:#181818;stroke-width:0.3499999999999999;stroke-dasharray:5.0,5.0;" x1="185.5" x2="185.5" y1="61.7695" y2="998.4023"/><line style="stroke:#181818;stroke-width:0.3499999999999999;stroke-dasharray:5.0,5.0;" x1="409.5" x2="409.5" y1="125.408" y2="998.4023"/><line style="stroke:#181818;stroke-width:0.3499999999999999;stroke-dasharray:5.0,5.0;" x1="567.7" x2="567.7" y1="61.7695" y2="998.4023"/><line style="stroke:#181818;stroke-width:0.3499999999999999;stroke-dasharray:5.0,5.0;" x1="691.95" x2="691.95" y1="61.7695" y2="998.4023"/><line style="stroke:#181818;stroke-width:0.3499999999999999;stroke-dasharray:5.0,5.0;" x1="795.9" x2="795.9" y1="61.7695" y2="998.4023"/><line style="stroke:#181818;stroke-width:0.3499999999999999;stroke-dasharray:5.0,5.0;" x1="928.9" x2="928.9" y1="61.7695" y2="998.4023"/><text fill="#000000" font-family="FG Virgil" font-size="9.8" lengthAdjust="spacing" textLength="20.3" x="3.5" y="59.31">User</text><ellipse cx="15.75" cy="12.6848" fill="#E3E3E3" rx="5.6" ry="5.6" style="stroke:#181818;stroke-width:0.3499999999999999;"/><path d="M15.75,18.2848 L15.75,37.1848 M6.65,23.8848 L24.85,23.8848 M15.75,37.1848 L6.65,47.6848 M15.75,37.1848 L24.85,47.6848 " fill="none" style="stroke:#181818;stroke-width:0.3499999999999999;"/><text fill="#000000" font-family="FG Virgil" font-size="9.8" lengthAdjust="spacing" textLength="20.3" x="3.5" y="1008.2775">User</text><ellipse cx="15.75" cy="1016.6871" fill="#E3E3E3" rx="5.6" ry="5.6" style="stroke:#181818;stroke-width:0.3499999999999999;"/><path d="M15.75,1022.2871 L15.75,1041.1871 M6.65,1027.8871 L24.85,1027.8871 M15.75,1041.1871 L6.65,1051.6871 M15.75,1041.1871 L24.85,1051.6871 " fill="none" style="stroke:#181818;stroke-width:0.3499999999999999;"/><rect fill="#E3E3E3" height="35.8695" rx="1.75" ry="1.75" style="stroke:#181818;stroke-width:0.3499999999999999;" width="142.1" x="114.8" y="25.2"/><text fill="#000000" font-family="FG Virgil" font-size="9.8" font-style="italic" lengthAdjust="spacing" textLength="66.5" x="152.6" y="40.6752">&#171;presentation&#187;</text><text fill="#000000" font-family="FG Virgil" font-size="9.8" lengthAdjust="spacing" textLength="132.3" x="119.7" y="53.71">ViewBoardHistoryOfUpdatesUI</text><rect fill="#E3E3E3" height="35.8695" rx="1.75" ry="1.75" style="stroke:#181818;stroke-width:0.3499999999999999;" width="142.1" x="114.8" y="997.7023"/><text fill="#000000" font-family="FG Virgil" font-size="9.8" font-style="italic" lengthAdjust="spacing" textLength="66.5" x="152.6" y="1013.1775">&#171;presentation&#187;</text><text fill="#000000" font-family="FG Virgil" font-size="9.8" lengthAdjust="spacing" textLength="132.3" x="119.7" y="1026.2123">ViewBoardHistoryOfUpdatesUI</text><text fill="#000000" font-family="FG Virgil" font-size="9.8" font-style="italic" lengthAdjust="spacing" textLength="58.8" x="378.35" y="1008.2775">&#171;application&#187;</text><text fill="#000000" font-family="FG Virgil" font-size="9.8" lengthAdjust="spacing" textLength="167.3" x="324.1" y="1021.3123">ViewBoardHistoryOfUpdatesController</text><ellipse cx="409.85" cy="1034.9719" fill="#E3E3E3" rx="8.4" ry="8.4" style="stroke:#181818;stroke-width:0.3499999999999999;"/><polygon fill="#181818" points="407.05,1026.5719,411.25,1023.0719,409.85,1026.5719,411.25,1030.0719,407.05,1026.5719" style="stroke:#181818;stroke-width:0.6999999999999998;"/><rect fill="#E3E3E3" height="22.8348" rx="1.75" ry="1.75" style="stroke:#181818;stroke-width:0.3499999999999999;" width="130.2" x="502.6" y="38.2348"/><text fill="#000000" font-family="FG Virgil" font-size="9.8" lengthAdjust="spacing" textLength="120.4" x="507.5" y="53.71">TcpServerMessageHandler</text><rect fill="#E3E3E3" height="22.8348" rx="1.75" ry="1.75" style="stroke:#181818;stroke-width:0.3499999999999999;" width="130.2" x="502.6" y="997.7023"/><text fill="#000000" font-family="FG Virgil" font-size="9.8" lengthAdjust="spacing" textLength="120.4" x="507.5" y="1013.1775">TcpServerMessageHandler</text><text fill="#000000" font-family="FG Virgil" font-size="9.8" font-style="italic" lengthAdjust="spacing" textLength="55.3" x="662.55" y="46.2752">&#171;repository&#187;</text><text fill="#000000" font-family="FG Virgil" font-size="9.8" lengthAdjust="spacing" textLength="67.9" x="656.25" y="59.31">UserRepository</text><path d="M679.7,10.5 C679.7,3.5 692.3,3.5 692.3,3.5 C692.3,3.5 704.9,3.5 704.9,10.5 L704.9,28.7 C704.9,35.7 692.3,35.7 692.3,35.7 C692.3,35.7 679.7,35.7 679.7,28.7 L679.7,10.5 " fill="#E3E3E3" style="stroke:#181818;stroke-width:1.0499999999999998;"/><path d="M679.7,10.5 C679.7,17.5 692.3,17.5 692.3,17.5 C692.3,17.5 704.9,17.5 704.9,10.5 " fill="none" style="stroke:#181818;stroke-width:1.0499999999999998;"/><text fill="#000000" font-family="FG Virgil" font-size="9.8" font-style="italic" lengthAdjust="spacing" textLength="55.3" x="662.55" y="1008.2775">&#171;repository&#187;</text><text fill="#000000" font-family="FG Virgil" font-size="9.8" lengthAdjust="spacing" textLength="67.9" x="656.25" y="1021.3123">UserRepository</text><path d="M679.7,1030.7719 C679.7,1023.7719 692.3,1023.7719 692.3,1023.7719 C692.3,1023.7719 704.9,1023.7719 704.9,1030.7719 L704.9,1048.9719 C704.9,1055.9719 692.3,1055.9719 692.3,1055.9719 C692.3,1055.9719 679.7,1055.9719 679.7,1048.9719 L679.7,1030.7719 " fill="#E3E3E3" style="stroke:#181818;stroke-width:1.0499999999999998;"/><path d="M679.7,1030.7719 C679.7,1037.7719 692.3,1037.7719 692.3,1037.7719 C692.3,1037.7719 704.9,1037.7719 704.9,1030.7719 " fill="none" style="stroke:#181818;stroke-width:1.0499999999999998;"/><text fill="#000000" font-family="FG Virgil" font-size="9.8" font-style="italic" lengthAdjust="spacing" textLength="55.3" x="766.15" y="46.2752">&#171;repository&#187;</text><text fill="#000000" font-family="FG Virgil" font-size="9.8" lengthAdjust="spacing" textLength="106.4" x="740.6" y="59.31">SharedBoardRepository</text><path d="M783.3,10.5 C783.3,3.5 795.9,3.5 795.9,3.5 C795.9,3.5 808.5,3.5 808.5,10.5 L808.5,28.7 C808.5,35.7 795.9,35.7 795.9,35.7 C795.9,35.7 783.3,35.7 783.3,28.7 L783.3,10.5 " fill="#E3E3E3" style="stroke:#181818;stroke-width:1.0499999999999998;"/><path d="M783.3,10.5 C783.3,17.5 795.9,17.5 795.9,17.5 C795.9,17.5 808.5,17.5 808.5,10.5 " fill="none" style="stroke:#181818;stroke-width:1.0499999999999998;"/><text fill="#000000" font-family="FG Virgil" font-size="9.8" font-style="italic" lengthAdjust="spacing" textLength="55.3" x="766.15" y="1008.2775">&#171;repository&#187;</text><text fill="#000000" font-family="FG Virgil" font-size="9.8" lengthAdjust="spacing" textLength="106.4" x="740.6" y="1021.3123">SharedBoardRepository</text><path d="M783.3,1030.7719 C783.3,1023.7719 795.9,1023.7719 795.9,1023.7719 C795.9,1023.7719 808.5,1023.7719 808.5,1030.7719 L808.5,1048.9719 C808.5,1055.9719 795.9,1055.9719 795.9,1055.9719 C795.9,1055.9719 783.3,1055.9719 783.3,1048.9719 L783.3,1030.7719 " fill="#E3E3E3" style="stroke:#181818;stroke-width:1.0499999999999998;"/><path d="M783.3,1030.7719 C783.3,1037.7719 795.9,1037.7719 795.9,1037.7719 C795.9,1037.7719 808.5,1037.7719 808.5,1030.7719 " fill="none" style="stroke:#181818;stroke-width:1.0499999999999998;"/><text fill="#000000" font-family="FG Virgil" font-size="9.8" font-style="italic" lengthAdjust="spacing" textLength="55.3" x="899.5" y="46.2752">&#171;repository&#187;</text><text fill="#000000" font-family="FG Virgil" font-size="9.8" lengthAdjust="spacing" textLength="137.9" x="858.2" y="59.31">SharedBoardUpdateRepository</text><path d="M916.65,10.5 C916.65,3.5 929.25,3.5 929.25,3.5 C929.25,3.5 941.85,3.5 941.85,10.5 L941.85,28.7 C941.85,35.7 929.25,35.7 929.25,35.7 C929.25,35.7 916.65,35.7 916.65,28.7 L916.65,10.5 " fill="#E3E3E3" style="stroke:#181818;stroke-width:1.0499999999999998;"/><path d="M916.65,10.5 C916.65,17.5 929.25,17.5 929.25,17.5 C929.25,17.5 941.85,17.5 941.85,10.5 " fill="none" style="stroke:#181818;stroke-width:1.0499999999999998;"/><text fill="#000000" font-family="FG Virgil" font-size="9.8" font-style="italic" lengthAdjust="spacing" textLength="55.3" x="899.5" y="1008.2775">&#171;repository&#187;</text><text fill="#000000" font-family="FG Virgil" font-size="9.8" lengthAdjust="spacing" textLength="137.9" x="858.2" y="1021.3123">SharedBoardUpdateRepository</text><path d="M916.65,1030.7719 C916.65,1023.7719 929.25,1023.7719 929.25,1023.7719 C929.25,1023.7719 941.85,1023.7719 941.85,1030.7719 L941.85,1048.9719 C941.85,1055.9719 929.25,1055.9719 929.25,1055.9719 C929.25,1055.9719 916.65,1055.9719 916.65,1048.9719 L916.65,1030.7719 " fill="#E3E3E3" style="stroke:#181818;stroke-width:1.0499999999999998;"/><path d="M916.65,1030.7719 C916.65,1037.7719 929.25,1037.7719 929.25,1037.7719 C929.25,1037.7719 941.85,1037.7719 941.85,1030.7719 " fill="none" style="stroke:#181818;stroke-width:1.0499999999999998;"/><rect fill="#FFFFFF" height="900.7291" style="stroke:#181818;stroke-width:0.6999999999999998;" width="7" x="182.35" y="85.0732"/><rect fill="#FFFFFF" height="367.8705" style="stroke:#181818;stroke-width:0.6999999999999998;" width="7" x="406.35" y="162.4465"/><rect fill="#FFFFFF" height="367.8705" style="stroke:#181818;stroke-width:0.6999999999999998;" width="7" x="406.35" y="596.0281"/><rect fill="#FFFFFF" height="261.6482" style="stroke:#181818;stroke-width:0.6999999999999998;" width="7" x="564.2" y="246.765"/><rect fill="#FFFFFF" height="170.826" style="stroke:#181818;stroke-width:0.6999999999999998;" width="7" x="564.2" y="680.3467"/><rect fill="#FFFFFF" height="21.9037" style="stroke:#181818;stroke-width:0.6999999999999998;" width="7" x="688.8" y="268.6687"/><rect fill="#FFFFFF" height="21.9037" style="stroke:#181818;stroke-width:0.6999999999999998;" width="7" x="792.4" y="312.4762"/><rect fill="#FFFFFF" height="21.9037" style="stroke:#181818;stroke-width:0.6999999999999998;" width="7" x="792.4" y="702.2504"/><rect fill="#FFFFFF" height="21.9037" style="stroke:#181818;stroke-width:0.6999999999999998;" width="7" x="925.75" y="746.0578"/><polygon fill="#181818" points="173.95,82.2732,180.95,85.0732,173.95,87.8732,176.75,85.0732" style="stroke:#181818;stroke-width:0.6999999999999998;"/><line style="stroke:#181818;stroke-width:0.6999999999999998;" x1="15.75" x2="178.15" y1="85.0732" y2="85.0732"/><text fill="#000000" font-family="FG Virgil" font-size="9.1" lengthAdjust="spacing" textLength="153.3" x="20.65" y="81.3894">Asks to view list of updates of a board</text><polygon fill="#181818" points="315.7,104.177,322.7,106.977,315.7,109.777,318.5,106.977" style="stroke:#181818;stroke-width:0.6999999999999998;"/><line style="stroke:#181818;stroke-width:0.6999999999999998;" x1="189.35" x2="319.9" y1="106.977" y2="106.977"/><text fill="#000000" font-family="FG Virgil" font-size="9.1" lengthAdjust="spacing" textLength="30.8" x="194.25" y="103.2931">create()</text><text fill="#000000" font-family="FG Virgil" font-size="9.8" font-style="italic" lengthAdjust="spacing" textLength="58.8" x="378.35" y="123.6484">&#171;application&#187;</text><text fill="#000000" font-family="FG Virgil" font-size="9.8" lengthAdjust="spacing" textLength="167.3" x="324.1" y="136.6832">ViewBoardHistoryOfUpdatesController</text><ellipse cx="409.85" cy="101.8732" fill="#E3E3E3" rx="8.4" ry="8.4" style="stroke:#181818;stroke-width:0.3499999999999999;"/><polygon fill="#181818" points="407.05,93.4732,411.25,89.9732,409.85,93.4732,411.25,96.9732,407.05,93.4732" style="stroke:#181818;stroke-width:0.6999999999999998;"/><polygon fill="#181818" points="397.95,159.6465,404.95,162.4465,397.95,165.2465,400.75,162.4465" style="stroke:#181818;stroke-width:0.6999999999999998;"/><line style="stroke:#181818;stroke-width:0.6999999999999998;" x1="189.35" x2="402.15" y1="162.4465" y2="162.4465"/><text fill="#000000" font-family="FG Virgil" font-size="9.1" lengthAdjust="spacing" textLength="114.8" x="194.25" y="158.7626">listSharedBoards(username)</text><path d="M416.5,171.5465 L416.5,226.8465 L592.9,226.8465 L592.9,178.5465 L585.9,171.5465 L416.5,171.5465 " fill="#FAFAFA" style="stroke:#181818;stroke-width:0.3499999999999999;"/><path d="M585.9,171.5465 L585.9,178.5465 L592.9,178.5465 L585.9,171.5465 " fill="#FAFAFA" style="stroke:#181818;stroke-width:0.3499999999999999;"/><text fill="#000000" font-family="FG Virgil" font-size="9.1" lengthAdjust="spacing" textLength="107.1" x="420.7" y="184.8663">request is created with the</text><text fill="#000000" font-family="FG Virgil" font-size="9.1" lengthAdjust="spacing" textLength="119.7" x="420.7" y="196.97">class RequestMessage using</text><text fill="#000000" font-family="FG Virgil" font-size="9.1" lengthAdjust="spacing" textLength="161.7" x="420.7" y="209.0737">code SHARED_BOARDS_OF_USER(8)</text><text fill="#000000" font-family="FG Virgil" font-size="9.1" lengthAdjust="spacing" textLength="95.9" x="423.5" y="221.1774">pass by parameter user</text><polygon fill="#181818" points="555.8,243.965,562.8,246.765,555.8,249.565,558.6,246.765" style="stroke:#181818;stroke-width:0.6999999999999998;"/><line style="stroke:#181818;stroke-width:0.6999999999999998;" x1="413.35" x2="560" y1="246.765" y2="246.765"/><text fill="#000000" font-family="FG Virgil" font-size="9.1" lengthAdjust="spacing" textLength="55.3" x="418.25" y="243.0812">send(request)</text><polygon fill="#181818" points="680.4,265.8687,687.4,268.6687,680.4,271.4687,683.2,268.6687" style="stroke:#181818;stroke-width:0.6999999999999998;"/><line style="stroke:#181818;stroke-width:0.6999999999999998;" x1="571.2" x2="684.6" y1="268.6687" y2="268.6687"/><text fill="#000000" font-family="FG Virgil" font-size="9.1" lengthAdjust="spacing" textLength="77.7" x="576.1" y="264.9849">findById(username)</text><polygon fill="#181818" points="578.9,287.7725,571.9,290.5725,578.9,293.3725,576.1,290.5725" style="stroke:#181818;stroke-width:0.6999999999999998;"/><line style="stroke:#181818;stroke-width:0.6999999999999998;stroke-dasharray:2.0,2.0;" x1="574.7" x2="691.6" y1="290.5725" y2="290.5725"/><text fill="#000000" font-family="FG Virgil" font-size="9.1" lengthAdjust="spacing" textLength="81.2" x="583.1" y="286.8886">returns SystemUser</text><polygon fill="#181818" points="784,309.6762,791,312.4762,784,315.2762,786.8,312.4762" style="stroke:#181818;stroke-width:0.6999999999999998;"/><line style="stroke:#181818;stroke-width:0.6999999999999998;" x1="571.2" x2="788.2" y1="312.4762" y2="312.4762"/><text fill="#000000" font-family="FG Virgil" font-size="9.1" lengthAdjust="spacing" textLength="122.5" x="576.1" y="308.7923">findSharedBoardsOfUser(user)</text><polygon fill="#181818" points="578.9,331.5799,571.9,334.3799,578.9,337.1799,576.1,334.3799" style="stroke:#181818;stroke-width:0.6999999999999998;"/><line style="stroke:#181818;stroke-width:0.6999999999999998;stroke-dasharray:2.0,2.0;" x1="574.7" x2="795.2" y1="334.3799" y2="334.3799"/><text fill="#000000" font-family="FG Virgil" font-size="9.1" lengthAdjust="spacing" textLength="109.2" x="583.1" y="330.696">returns List&lt;SharedBoard&gt;</text><path d="M488.6,344.8799 L531.3,344.8799 L531.3,351.3836 L524.3,358.3836 L488.6,358.3836 L488.6,344.8799 " fill="#EEEEEE" style="stroke:#000000;stroke-width:1.0499999999999998;"/><rect fill="none" height="67.8111" style="stroke:#000000;stroke-width:1.0499999999999998;" width="252.7" x="488.6" y="344.8799"/><text fill="#000000" font-family="FG Virgil" font-size="9.1" font-weight="bold" lengthAdjust="spacing" textLength="11.2" x="499.1" y="355.3997">alt</text><text fill="#000000" font-family="FG Virgil" font-size="7.7" font-weight="bold" lengthAdjust="spacing" textLength="138.6" x="541.8" y="354.589">[if(!availableSharedBoards.isEmpty)]</text><path d="M495.6,363.2836 L538.3,363.2836 L538.3,369.7873 L531.3,376.7873 L495.6,376.7873 L495.6,363.2836 " fill="#EEEEEE" style="stroke:#000000;stroke-width:1.0499999999999998;"/><rect fill="none" height="44.5074" style="stroke:#000000;stroke-width:1.0499999999999998;" width="238.7" x="495.6" y="363.2836"/><text fill="#000000" font-family="FG Virgil" font-size="9.1" font-weight="bold" lengthAdjust="spacing" textLength="11.2" x="506.1" y="373.8034">alt</text><text fill="#000000" font-family="FG Virgil" font-size="7.7" font-weight="bold" lengthAdjust="spacing" textLength="182" x="548.8" y="372.9927">[for (SharedBoard list : availableSharedBoards)]</text><line style="stroke:#181818;stroke-width:0.6999999999999998;" x1="571.2" x2="600.6" y1="393.091" y2="393.091"/><line style="stroke:#181818;stroke-width:0.6999999999999998;" x1="600.6" x2="600.6" y1="393.091" y2="402.191"/><line style="stroke:#181818;stroke-width:0.6999999999999998;" x1="571.9" x2="600.6" y1="402.191" y2="402.191"/><polygon fill="#181818" points="578.9,399.391,571.9,402.191,578.9,404.991,576.1,402.191" style="stroke:#181818;stroke-width:0.6999999999999998;"/><text fill="#000000" font-family="FG Virgil" font-size="9.1" lengthAdjust="spacing" textLength="107.8" x="576.1" y="389.4071">sharedBoards += list.title()</text><path d="M416.5,421.091 L416.5,488.291 L565.6,488.291 L565.6,428.091 L558.6,421.091 L416.5,421.091 " fill="#FAFAFA" style="stroke:#181818;stroke-width:0.3499999999999999;"/><path d="M558.6,421.091 L558.6,428.091 L565.6,428.091 L558.6,421.091 " fill="#FAFAFA" style="stroke:#181818;stroke-width:0.3499999999999999;"/><text fill="#000000" font-family="FG Virgil" font-size="9.1" lengthAdjust="spacing" textLength="114.1" x="420.7" y="434.4108">response is created with the</text><text fill="#000000" font-family="FG Virgil" font-size="9.1" lengthAdjust="spacing" textLength="119.7" x="420.7" y="446.5146">class RequestMessage using</text><text fill="#000000" font-family="FG Virgil" font-size="9.1" lengthAdjust="spacing" textLength="131.6" x="420.7" y="458.6183">code SEND_MESSAGE(6) pass</text><text fill="#000000" font-family="FG Virgil" font-size="9.1" lengthAdjust="spacing" textLength="79.8" x="420.7" y="470.722">by parameter String</text><text fill="#000000" font-family="FG Virgil" font-size="9.1" lengthAdjust="spacing" textLength="91.7" x="420.7" y="482.8257">availableSharedBoards</text><polygon fill="#181818" points="421.05,505.6133,414.05,508.4133,421.05,511.2133,418.25,508.4133" style="stroke:#181818;stroke-width:0.6999999999999998;"/><line style="stroke:#181818;stroke-width:0.6999999999999998;stroke-dasharray:2.0,2.0;" x1="416.85" x2="567" y1="508.4133" y2="508.4133"/><text fill="#000000" font-family="FG Virgil" font-size="9.1" lengthAdjust="spacing" textLength="62.3" x="425.25" y="504.7294">send(response)</text><polygon fill="#181818" points="197.05,527.517,190.05,530.317,197.05,533.117,194.25,530.317" style="stroke:#181818;stroke-width:0.6999999999999998;"/><line style="stroke:#181818;stroke-width:0.6999999999999998;stroke-dasharray:2.0,2.0;" x1="192.85" x2="409.15" y1="530.317" y2="530.317"/><text fill="#000000" font-family="FG Virgil" font-size="9.1" lengthAdjust="spacing" textLength="137.9" x="201.25" y="526.6331">returns list of shared boards string</text><polygon fill="#181818" points="23.45,549.4207,16.45,552.2207,23.45,555.0207,20.65,552.2207" style="stroke:#181818;stroke-width:0.6999999999999998;"/><line style="stroke:#181818;stroke-width:0.6999999999999998;stroke-dasharray:2.0,2.0;" x1="19.25" x2="181.65" y1="552.2207" y2="552.2207"/><text fill="#000000" font-family="FG Virgil" font-size="9.1" lengthAdjust="spacing" textLength="121.8" x="27.65" y="548.5368">Asks to select a shared board</text><polygon fill="#181818" points="173.95,571.3244,180.95,574.1244,173.95,576.9244,176.75,574.1244" style="stroke:#181818;stroke-width:0.6999999999999998;"/><line style="stroke:#181818;stroke-width:0.6999999999999998;" x1="15.75" x2="178.15" y1="574.1244" y2="574.1244"/><text fill="#000000" font-family="FG Virgil" font-size="9.1" lengthAdjust="spacing" textLength="93.8" x="20.65" y="570.4405">Selects a shared board</text><polygon fill="#181818" points="397.95,593.2281,404.95,596.0281,397.95,598.8281,400.75,596.0281" style="stroke:#181818;stroke-width:0.6999999999999998;"/><line style="stroke:#181818;stroke-width:0.6999999999999998;" x1="189.35" x2="402.15" y1="596.0281" y2="596.0281"/><text fill="#000000" font-family="FG Virgil" font-size="9.1" lengthAdjust="spacing" textLength="203.7" x="194.25" y="592.3442">findHistoryOfUpdatesOfSharedBoard(sharedBoard)</text><path d="M416.5,605.1281 L416.5,660.4281 L576.8,660.4281 L576.8,612.1281 L569.8,605.1281 L416.5,605.1281 " fill="#FAFAFA" style="stroke:#181818;stroke-width:0.3499999999999999;"/><path d="M569.8,605.1281 L569.8,612.1281 L576.8,612.1281 L569.8,605.1281 " fill="#FAFAFA" style="stroke:#181818;stroke-width:0.3499999999999999;"/><text fill="#000000" font-family="FG Virgil" font-size="9.1" lengthAdjust="spacing" textLength="107.1" x="420.7" y="618.4479">request is created with the</text><text fill="#000000" font-family="FG Virgil" font-size="9.1" lengthAdjust="spacing" textLength="119.7" x="420.7" y="630.5517">class RequestMessage using</text><text fill="#000000" font-family="FG Virgil" font-size="9.1" lengthAdjust="spacing" textLength="145.6" x="420.7" y="642.6554">code HISTORY_SHAREBOARD(13)</text><text fill="#000000" font-family="FG Virgil" font-size="9.1" lengthAdjust="spacing" textLength="95.9" x="423.5" y="654.7591">pass by parameter user</text><polygon fill="#181818" points="555.8,677.5467,562.8,680.3467,555.8,683.1467,558.6,680.3467" style="stroke:#181818;stroke-width:0.6999999999999998;"/><line style="stroke:#181818;stroke-width:0.6999999999999998;" x1="413.35" x2="560" y1="680.3467" y2="680.3467"/><text fill="#000000" font-family="FG Virgil" font-size="9.1" lengthAdjust="spacing" textLength="55.3" x="418.25" y="676.6628">send(request)</text><polygon fill="#181818" points="784,699.4504,791,702.2504,784,705.0504,786.8,702.2504" style="stroke:#181818;stroke-width:0.6999999999999998;"/><line style="stroke:#181818;stroke-width:0.6999999999999998;" x1="571.2" x2="788.2" y1="702.2504" y2="702.2504"/><text fill="#000000" font-family="FG Virgil" font-size="9.1" lengthAdjust="spacing" textLength="86.8" x="576.1" y="698.5665">findSharedBoard(title)</text><polygon fill="#181818" points="787.5,721.3541,794.5,724.1541,787.5,726.9541,790.3,724.1541" style="stroke:#181818;stroke-width:0.6999999999999998;"/><line style="stroke:#181818;stroke-width:0.6999999999999998;stroke-dasharray:2.0,2.0;" x1="692.3" x2="791.7" y1="724.1541" y2="724.1541"/><text fill="#000000" font-family="FG Virgil" font-size="9.1" lengthAdjust="spacing" textLength="83.3" x="697.2" y="720.4702">returns shared board</text><polygon fill="#181818" points="917.35,743.2578,924.35,746.0578,917.35,748.8578,920.15,746.0578" style="stroke:#181818;stroke-width:0.6999999999999998;"/><line style="stroke:#181818;stroke-width:0.6999999999999998;" x1="571.2" x2="921.55" y1="746.0578" y2="746.0578"/><text fill="#000000" font-family="FG Virgil" font-size="9.1" lengthAdjust="spacing" textLength="165.9" x="576.1" y="742.3739">findUpdatesOfSharedBoard(sharedBoard)</text><polygon fill="#181818" points="578.9,765.1615,571.9,767.9615,578.9,770.7615,576.1,767.9615" style="stroke:#181818;stroke-width:0.6999999999999998;"/><line style="stroke:#181818;stroke-width:0.6999999999999998;stroke-dasharray:2.0,2.0;" x1="574.7" x2="928.55" y1="767.9615" y2="767.9615"/><text fill="#000000" font-family="FG Virgil" font-size="9.1" lengthAdjust="spacing" textLength="137.9" x="583.1" y="764.2776">return list of shared board updates</text><path d="M488.6,778.4615 L531.3,778.4615 L531.3,784.9652 L524.3,791.9652 L488.6,791.9652 L488.6,778.4615 " fill="#EEEEEE" style="stroke:#000000;stroke-width:1.0499999999999998;"/><rect fill="none" height="67.8111" style="stroke:#000000;stroke-width:1.0499999999999998;" width="223.3" x="488.6" y="778.4615"/><text fill="#000000" font-family="FG Virgil" font-size="9.1" font-weight="bold" lengthAdjust="spacing" textLength="11.2" x="499.1" y="788.9813">alt</text><text fill="#000000" font-family="FG Virgil" font-size="7.7" font-weight="bold" lengthAdjust="spacing" textLength="109.2" x="541.8" y="788.1706">[if(!allPostItHistory.isEmpty)]</text><path d="M495.6,796.8652 L538.3,796.8652 L538.3,803.3689 L531.3,810.3689 L495.6,810.3689 L495.6,796.8652 " fill="#EEEEEE" style="stroke:#000000;stroke-width:1.0499999999999998;"/><rect fill="none" height="44.5074" style="stroke:#000000;stroke-width:1.0499999999999998;" width="209.3" x="495.6" y="796.8652"/><text fill="#000000" font-family="FG Virgil" font-size="9.1" font-weight="bold" lengthAdjust="spacing" textLength="11.2" x="506.1" y="807.3851">alt</text><text fill="#000000" font-family="FG Virgil" font-size="7.7" font-weight="bold" lengthAdjust="spacing" textLength="152.6" x="548.8" y="806.5743">[for (PostItHistory list : allPostItHistory)]</text><line style="stroke:#181818;stroke-width:0.6999999999999998;" x1="571.2" x2="600.6" y1="826.6727" y2="826.6727"/><line style="stroke:#181818;stroke-width:0.6999999999999998;" x1="600.6" x2="600.6" y1="826.6727" y2="835.7727"/><line style="stroke:#181818;stroke-width:0.6999999999999998;" x1="571.9" x2="600.6" y1="835.7727" y2="835.7727"/><polygon fill="#181818" points="578.9,832.9727,571.9,835.7727,578.9,838.5727,576.1,835.7727" style="stroke:#181818;stroke-width:0.6999999999999998;"/><text fill="#000000" font-family="FG Virgil" font-size="9.1" lengthAdjust="spacing" textLength="91" x="576.1" y="822.9888">postIt += list.toString()</text><path d="M416.5,854.6727 L416.5,921.8727 L565.6,921.8727 L565.6,861.6727 L558.6,854.6727 L416.5,854.6727 " fill="#FAFAFA" style="stroke:#181818;stroke-width:0.3499999999999999;"/><path d="M558.6,854.6727 L558.6,861.6727 L565.6,861.6727 L558.6,854.6727 " fill="#FAFAFA" style="stroke:#181818;stroke-width:0.3499999999999999;"/><text fill="#000000" font-family="FG Virgil" font-size="9.1" lengthAdjust="spacing" textLength="114.1" x="420.7" y="867.9925">response is created with the</text><text fill="#000000" font-family="FG Virgil" font-size="9.1" lengthAdjust="spacing" textLength="119.7" x="420.7" y="880.0962">class RequestMessage using</text><text fill="#000000" font-family="FG Virgil" font-size="9.1" lengthAdjust="spacing" textLength="131.6" x="420.7" y="892.1999">code SEND_MESSAGE(6) pass</text><text fill="#000000" font-family="FG Virgil" font-size="9.1" lengthAdjust="spacing" textLength="79.8" x="420.7" y="904.3036">by parameter String</text><text fill="#000000" font-family="FG Virgil" font-size="9.1" lengthAdjust="spacing" textLength="91.7" x="420.7" y="916.4073">availableSharedBoards</text><polygon fill="#181818" points="421.05,939.1949,414.05,941.9949,421.05,944.7949,418.25,941.9949" style="stroke:#181818;stroke-width:0.6999999999999998;"/><line style="stroke:#181818;stroke-width:0.6999999999999998;stroke-dasharray:2.0,2.0;" x1="416.85" x2="567" y1="941.9949" y2="941.9949"/><text fill="#000000" font-family="FG Virgil" font-size="9.1" lengthAdjust="spacing" textLength="62.3" x="425.25" y="938.311">send(response)</text><polygon fill="#181818" points="197.05,961.0986,190.05,963.8986,197.05,966.6986,194.25,963.8986" style="stroke:#181818;stroke-width:0.6999999999999998;"/><line style="stroke:#181818;stroke-width:0.6999999999999998;stroke-dasharray:2.0,2.0;" x1="192.85" x2="409.15" y1="963.8986" y2="963.8986"/><text fill="#000000" font-family="FG Virgil" font-size="9.1" lengthAdjust="spacing" textLength="148.4" x="201.25" y="960.2147">returns shared board updates history</text><polygon fill="#181818" points="23.45,983.0023,16.45,985.8023,23.45,988.6023,20.65,985.8023" style="stroke:#181818;stroke-width:0.6999999999999998;"/><line style="stroke:#181818;stroke-width:0.6999999999999998;" x1="19.25" x2="185.15" y1="985.8023" y2="985.8023"/><text fill="#000000" font-family="FG Virgil" font-size="9.1" lengthAdjust="spacing" textLength="141.4" x="27.65" y="982.1185">shows shared board update history</text><!--SRC=[rLPXRzem4FsUNt7xjB2fLDEaQK8CYQwq8Arb8cNIf4h898PODN5c6n3_VXSRWe4a3UsagVc0I7BtVFTyVY_lOwtJrkLboacYbmlU3CNYKZsn92MIB9gnNd0lluM5I4GOIx6WeEMIEczI4ZwHEGtqXbEGDDJEkuZEo9Bh6v7eUuAfDxVmYyavSv5LJ2AnPiaSPeGhwdaar4B2M549H44tk_CmLBEGfLWg8j3rbI0owZE5xpR3sJYDYAPgFCWIyBVTJYLLDD54Cv5qEbw81KZ1orE_sm1krtJkscsIffo5EoIta8Sm3QXSKNb7bK8A-YI9CCT3H38bYfeUHZGLYcMB8PRCRn0g3mjY8cbawZelsXPVdkCPyk2YWwIqeAkU56W1AoG1E180OWPBst_sby0q0ytuPojyY4aUu8M48eB3oOSFBGWbnH2_KHZHCl1EeSfV8XK9Ze1Do9VOvvZdsPK8V2xPF3RrkQ2I_bbIB9kfxV8Hh9cEGSSK7fEG4wLWP6EsEm9BbGqMlXGHCjVlZdhNawjXTtGTJ8Otat7G6_bV6uy93Z7cJZTWHf9gR38hEA_9QHuRBTdt5k38HVwsoaQUd3TRDY_WN2KnPWyFfga5CvP4Lvj1TCJjoRA7UGSnPlCEX_IYga59zL8c2eADqdGnLaV5HxJEeXKj5fu4swaxJNXi4TxqNT9p8T19wyK7hnO3Ft30sqv-fuo8voiX74TwvhyZAy8ucNBgjjfaghT8zQPnKdoMDiFJxJlXzbYte13g5EAPtIYVSmSLFdupgpOrqtmd2Ew5PyAhkZ-BgofnKAb8K1zVh0wz- -l9NIy8khSz_ql3Ii9ZSY0AWPOsev3WUbD-f9HRpR35xzbpM7bEDbnnsahzRaftAcytpEgx0cMwy8wMEPBYJDCHpJZ8tZiKvUZmQ1Kkeea_i9h0XAcYk1CtiSVxs927CuTPtncu_saW_K7mC1pzdXWZCJRYV_hyLkoZdhRwvXY_IbKB3ALaxTsOdWp9YxIXNkydtqoMWdfZLyN8CN2LsvmKKU4viEEfy3JlFk1gq5PPO6v2dFyKIW_qza3My9-3-Do1Zd3-dVca1dPlEyAAyfdESuQ-lWtFUONVL1X8qQX1RBUqXe5i_GEoJmQnBeJBqToFnu7t5m00]--></g></svg>