<?xml version="1.0" encoding="us-ascii" standalone="no"?><svg xmlns="http://www.w3.org/2000/svg" xmlns:xlink="http://www.w3.org/1999/xlink" contentStyleType="text/css" height="287px" preserveAspectRatio="none" style="width:289px;height:286px;background:#FFFFFF;" version="1.1" viewBox="0 0 289 286" width="289.1px" zoomAndPan="magnify"><defs/><g><rect fill="none" height="124.8639" style="stroke:#000000;stroke-width:1.0499999999999998;" width="277.55" x="7" y="92.3385"/><line style="stroke:#181818;stroke-width:0.3499999999999999;stroke-dasharray:5.0,5.0;" x1="25.9" x2="25.9" y1="58.5348" y2="229.1023"/><line style="stroke:#181818;stroke-width:0.3499999999999999;stroke-dasharray:5.0,5.0;" x1="256.55" x2="256.55" y1="58.5348" y2="229.1023"/><text fill="#000000" font-family="sans-serif" font-size="9.8" lengthAdjust="spacing" textLength="20.3" x="14" y="56.0752">User</text><ellipse cx="26.25" cy="9.45" fill="#E2E2F0" rx="5.6" ry="5.6" style="stroke:#181818;stroke-width:0.3499999999999999;"/><path d="M26.25,15.05 L26.25,33.95 M17.15,20.65 L35.35,20.65 M26.25,33.95 L17.15,44.45 M26.25,33.95 L35.35,44.45 " fill="none" style="stroke:#181818;stroke-width:0.3499999999999999;"/><text fill="#000000" font-family="sans-serif" font-size="9.8" lengthAdjust="spacing" textLength="20.3" x="14" y="238.9775">User</text><ellipse cx="26.25" cy="247.3871" fill="#E2E2F0" rx="5.6" ry="5.6" style="stroke:#181818;stroke-width:0.3499999999999999;"/><path d="M26.25,252.9871 L26.25,271.8871 M17.15,258.5871 L35.35,258.5871 M26.25,271.8871 L17.15,282.3871 M26.25,271.8871 L35.35,282.3871 " fill="none" style="stroke:#181818;stroke-width:0.3499999999999999;"/><rect fill="#E2E2F0" height="22.8348" rx="1.75" ry="1.75" style="stroke:#181818;stroke-width:0.3499999999999999;" width="42" x="235.55" y="35"/><text fill="#000000" font-family="sans-serif" font-size="9.8" lengthAdjust="spacing" textLength="32.2" x="240.45" y="50.4752">System</text><rect fill="#E2E2F0" height="22.8348" rx="1.75" ry="1.75" style="stroke:#181818;stroke-width:0.3499999999999999;" width="42" x="235.55" y="228.4023"/><text fill="#000000" font-family="sans-serif" font-size="9.8" lengthAdjust="spacing" textLength="32.2" x="240.45" y="243.8775">System</text><polygon fill="#181818" points="248.15,79.0385,255.15,81.8385,248.15,84.6385,250.95,81.8385" style="stroke:#181818;stroke-width:0.6999999999999998;"/><line style="stroke:#181818;stroke-width:0.6999999999999998;" x1="26.25" x2="252.35" y1="81.8385" y2="81.8385"/><text fill="#000000" font-family="sans-serif" font-size="9.1" font-weight="bold" lengthAdjust="spacing" textLength="4.9" x="31.15" y="78.1546">1</text><text fill="#000000" font-family="sans-serif" font-size="9.1" lengthAdjust="spacing" textLength="170.1" x="38.85" y="78.1546">asks to view history of updates on a board</text><path d="M7,92.3385 L49.7,92.3385 L49.7,98.8422 L42.7,105.8422 L7,105.8422 L7,92.3385 " fill="#EEEEEE" style="stroke:#000000;stroke-width:1.0499999999999998;"/><rect fill="none" height="124.8639" style="stroke:#000000;stroke-width:1.0499999999999998;" width="277.55" x="7" y="92.3385"/><text fill="#000000" font-family="sans-serif" font-size="9.1" font-weight="bold" lengthAdjust="spacing" textLength="11.2" x="17.5" y="102.8583">alt</text><text fill="#000000" font-family="sans-serif" font-size="7.7" font-weight="bold" lengthAdjust="spacing" textLength="178.5" x="60.2" y="102.0476">[if list of shared boards available is not empty]</text><polygon fill="#181818" points="33.95,131.4496,26.95,134.2496,33.95,137.0496,31.15,134.2496" style="stroke:#181818;stroke-width:0.6999999999999998;"/><line style="stroke:#181818;stroke-width:0.6999999999999998;stroke-dasharray:2.0,2.0;" x1="29.75" x2="255.85" y1="134.2496" y2="134.2496"/><text fill="#000000" font-family="sans-serif" font-size="9.1" font-weight="bold" lengthAdjust="spacing" textLength="4.9" x="38.15" y="124.5139">2</text><text fill="#000000" font-family="sans-serif" font-size="9.1" lengthAdjust="spacing" textLength="107.8" x="45.85" y="118.462">shows available boards list</text><text fill="#000000" font-family="sans-serif" font-size="9.1" lengthAdjust="spacing" textLength="87.5" x="45.85" y="130.5657">asks to choose board</text><polygon fill="#181818" points="248.15,153.3533,255.15,156.1533,248.15,158.9533,250.95,156.1533" style="stroke:#181818;stroke-width:0.6999999999999998;"/><line style="stroke:#181818;stroke-width:0.6999999999999998;" x1="26.25" x2="252.35" y1="156.1533" y2="156.1533"/><text fill="#000000" font-family="sans-serif" font-size="9.1" font-weight="bold" lengthAdjust="spacing" textLength="4.9" x="31.15" y="152.4694">3</text><text fill="#000000" font-family="sans-serif" font-size="9.1" lengthAdjust="spacing" textLength="54.6" x="38.85" y="152.4694">selects board</text><polygon fill="#181818" points="33.95,175.257,26.95,178.057,33.95,180.857,31.15,178.057" style="stroke:#181818;stroke-width:0.6999999999999998;"/><line style="stroke:#181818;stroke-width:0.6999999999999998;stroke-dasharray:2.0,2.0;" x1="29.75" x2="255.85" y1="178.057" y2="178.057"/><text fill="#000000" font-family="sans-serif" font-size="9.1" font-weight="bold" lengthAdjust="spacing" textLength="4.9" x="38.15" y="174.3731">4</text><text fill="#000000" font-family="sans-serif" font-size="9.1" lengthAdjust="spacing" textLength="205.8" x="45.85" y="174.3731">displays board history of updates of board selected</text><line style="stroke:#000000;stroke-width:0.6999999999999998;stroke-dasharray:2.0,2.0;" x1="7" x2="284.55" y1="184.357" y2="184.357"/><text fill="#000000" font-family="sans-serif" font-size="7.7" font-weight="bold" lengthAdjust="spacing" textLength="163.8" x="10.5" y="192.6661">[if list of shared boards available is empty]</text><polygon fill="#181818" points="33.95,208.8023,26.95,211.6023,33.95,214.4023,31.15,211.6023" style="stroke:#181818;stroke-width:0.6999999999999998;"/><line style="stroke:#181818;stroke-width:0.6999999999999998;stroke-dasharray:2.0,2.0;" x1="29.75" x2="255.85" y1="211.6023" y2="211.6023"/><text fill="#000000" font-family="sans-serif" font-size="9.1" font-weight="bold" lengthAdjust="spacing" textLength="4.9" x="38.15" y="207.9185">5</text><text fill="#000000" font-family="sans-serif" font-size="9.1" lengthAdjust="spacing" textLength="134.4" x="45.85" y="207.9185">informs about no boards available</text><!--SRC=[ZL11JiGm3Bpd5NFZL7fVhP1u0-B6nMrS6f749NPtrT-JqWAL5YHyiQmPptXyDvfDUchRALAsESNxNbAh_3vpxhdnWLuB9KUpIPvJnyKvwaqAdfKBIF6uJivzDZGFU5hKE9qgzAOmmINm5MFG2Y-G0VFaoLWX6OHEg7X7qH06n4fQ6JfIORzX2hfGYDH5Hb1aCN2QR76ejNcUc-RRL4Uv7bTsZLNv9NzTr8yYkcC7dSFjof5xqnlAZnLEy47hpvQTzMl4OSSsFVQEOpN-NzI_OrRla0SfgMvqCblzoes2u-pT1m00]--></g></svg>