<?xml version="1.0" encoding="us-ascii" standalone="no"?><svg xmlns="http://www.w3.org/2000/svg" xmlns:xlink="http://www.w3.org/1999/xlink" contentStyleType="text/css" height="419px" preserveAspectRatio="none" style="width:1467px;height:419px;background:#FFFFFF;" version="1.1" viewBox="0 0 1467 419" width="1467px" zoomAndPan="magnify"><defs/><g><!--class listAvailableCoursesUI--><g id="elem_listAvailableCoursesUI"><rect codeLine="2" fill="#F1F1F1" height="56.6211" id="listAvailableCoursesUI" rx="2.5" ry="2.5" style="stroke:#181818;stroke-width:0.5;" width="184" x="675" y="7"/><ellipse cx="690" cy="27.3105" fill="#ADD1B2" rx="11" ry="11" style="stroke:#181818;stroke-width:1.0;"/><path d="M692.9731,32.9536 Q692.3921,33.2524 691.7529,33.4019 Q691.1138,33.5513 690.4082,33.5513 Q687.9014,33.5513 686.5815,31.8994 Q685.2617,30.2476 685.2617,27.1265 Q685.2617,23.9971 686.5815,22.3452 Q687.9014,20.6934 690.4082,20.6934 Q691.1138,20.6934 691.7612,20.8428 Q692.4087,20.9922 692.9731,21.291 L692.9731,24.0137 Q692.3423,23.4326 691.7488,23.1628 Q691.1553,22.8931 690.5244,22.8931 Q689.1797,22.8931 688.4949,23.9597 Q687.8101,25.0264 687.8101,27.1265 Q687.8101,29.2183 688.4949,30.2849 Q689.1797,31.3516 690.5244,31.3516 Q691.1553,31.3516 691.7488,31.0818 Q692.3423,30.812 692.9731,30.231 Z " fill="#000000"/><text fill="#000000" font-family="sans-serif" font-size="12" font-style="italic" lengthAdjust="spacing" textLength="23" x="768.5" y="23.6016">&#171;UI&#187;</text><text fill="#000000" font-family="sans-serif" font-size="14" lengthAdjust="spacing" textLength="152" x="704" y="39.668">listAvailableCoursesUI</text><line style="stroke:#181818;stroke-width:0.5;" x1="676" x2="858" y1="47.6211" y2="47.6211"/><line style="stroke:#181818;stroke-width:0.5;" x1="676" x2="858" y1="55.6211" y2="55.6211"/></g><!--class listAvailableCoursesController--><g id="elem_listAvailableCoursesController"><rect codeLine="5" fill="#F1F1F1" height="139.0625" id="listAvailableCoursesController" rx="2.5" ry="2.5" style="stroke:#181818;stroke-width:0.5;" width="1029" x="252.5" y="124"/><ellipse cx="658.75" cy="144.3105" fill="#ADD1B2" rx="11" ry="11" style="stroke:#181818;stroke-width:1.0;"/><path d="M661.7231,149.9536 Q661.1421,150.2524 660.5029,150.4019 Q659.8638,150.5513 659.1582,150.5513 Q656.6514,150.5513 655.3315,148.8994 Q654.0117,147.2476 654.0117,144.1265 Q654.0117,140.9971 655.3315,139.3452 Q656.6514,137.6934 659.1582,137.6934 Q659.8638,137.6934 660.5112,137.8428 Q661.1587,137.9922 661.7231,138.291 L661.7231,141.0137 Q661.0923,140.4326 660.4988,140.1628 Q659.9053,139.8931 659.2744,139.8931 Q657.9297,139.8931 657.2449,140.9597 Q656.5601,142.0264 656.5601,144.1265 Q656.5601,146.2183 657.2449,147.2849 Q657.9297,148.3516 659.2744,148.3516 Q659.9053,148.3516 660.4988,148.0818 Q661.0923,147.812 661.7231,147.231 Z " fill="#000000"/><text fill="#000000" font-family="sans-serif" font-size="12" font-style="italic" lengthAdjust="spacing" textLength="68" x="749.25" y="140.6016">&#171;Controller&#187;</text><text fill="#000000" font-family="sans-serif" font-size="14" lengthAdjust="spacing" textLength="208" x="679.25" y="156.668">listAvailableCoursesController</text><line style="stroke:#181818;stroke-width:0.5;" x1="253.5" x2="1280.5" y1="164.6211" y2="164.6211"/><line style="stroke:#181818;stroke-width:0.5;" x1="253.5" x2="1280.5" y1="172.6211" y2="172.6211"/><ellipse cx="263.5" cy="186.3652" fill="#84BE84" rx="3" ry="3" style="stroke:#038048;stroke-width:1.0;"/><text fill="#000000" font-family="sans-serif" font-size="14" lengthAdjust="spacing" textLength="362" x="272.5" y="190.1563">Iterable&lt;Course&gt;: listCoursesAvailableForManager()</text><ellipse cx="263.5" cy="202.8535" fill="#84BE84" rx="3" ry="3" style="stroke:#038048;stroke-width:1.0;"/><text fill="#000000" font-family="sans-serif" font-size="14" lengthAdjust="spacing" textLength="357" x="272.5" y="206.6445">Iterable&lt;Course&gt;: listCoursesAvailableForTeacher()</text><ellipse cx="263.5" cy="219.3418" fill="#84BE84" rx="3" ry="3" style="stroke:#038048;stroke-width:1.0;"/><text fill="#000000" font-family="sans-serif" font-size="14" lengthAdjust="spacing" textLength="364" x="272.5" y="223.1328">Iterable&lt;Course&gt;: listCoursesWhereStudentIsEnroll()</text><ellipse cx="263.5" cy="235.8301" fill="#84BE84" rx="3" ry="3" style="stroke:#038048;stroke-width:1.0;"/><text fill="#000000" font-family="sans-serif" font-size="14" lengthAdjust="spacing" textLength="707" x="272.5" y="239.6211">Iterable&lt;Course&gt;: listCoursesWhereStudentCanEnroll(Iterable&lt;Course&gt; coursesWhereStudentIsEnroll)</text><ellipse cx="263.5" cy="252.3184" fill="#84BE84" rx="3" ry="3" style="stroke:#038048;stroke-width:1.0;"/><text fill="#000000" font-family="sans-serif" font-size="14" lengthAdjust="spacing" textLength="1003" x="272.5" y="256.1094">Iterable&lt;Course&gt;: removeCoursesWhereStudentIsAlreadyEnrolled(List&lt;Course&gt; coursesWhereStudentIsEnroll, List&lt;Course&gt; coursesEnrollStatus)</text></g><!--class CourseRepository--><g id="elem_CourseRepository"><rect codeLine="14" fill="#F1F1F1" height="89.5977" id="CourseRepository" rx="2.5" ry="2.5" style="stroke:#181818;stroke-width:0.5;" width="522" x="7" y="323"/><ellipse cx="202.75" cy="343.3105" fill="#ADD1B2" rx="11" ry="11" style="stroke:#181818;stroke-width:1.0;"/><path d="M205.7231,348.9536 Q205.1421,349.2524 204.5029,349.4019 Q203.8638,349.5513 203.1582,349.5513 Q200.6514,349.5513 199.3315,347.8994 Q198.0117,346.2476 198.0117,343.1265 Q198.0117,339.9971 199.3315,338.3452 Q200.6514,336.6934 203.1582,336.6934 Q203.8638,336.6934 204.5112,336.8428 Q205.1587,336.9922 205.7231,337.291 L205.7231,340.0137 Q205.0923,339.4326 204.4988,339.1628 Q203.9053,338.8931 203.2744,338.8931 Q201.9297,338.8931 201.2449,339.9597 Q200.5601,341.0264 200.5601,343.1265 Q200.5601,345.2183 201.2449,346.2849 Q201.9297,347.3516 203.2744,347.3516 Q203.9053,347.3516 204.4988,347.0818 Q205.0923,346.812 205.7231,346.231 Z " fill="#000000"/><text fill="#000000" font-family="sans-serif" font-size="12" font-style="italic" lengthAdjust="spacing" textLength="73" x="247.75" y="339.6016">&#171;Repository&#187;</text><text fill="#000000" font-family="sans-serif" font-size="14" lengthAdjust="spacing" textLength="122" x="223.25" y="355.668">CourseRepository</text><line style="stroke:#181818;stroke-width:0.5;" x1="8" x2="528" y1="363.6211" y2="363.6211"/><line style="stroke:#181818;stroke-width:0.5;" x1="8" x2="528" y1="371.6211" y2="371.6211"/><ellipse cx="18" cy="385.3652" fill="#84BE84" rx="3" ry="3" style="stroke:#038048;stroke-width:1.0;"/><text fill="#000000" font-family="sans-serif" font-size="14" lengthAdjust="spacing" textLength="186" x="27" y="389.1563">Iterable&lt;Course&gt;: findAll()</text><ellipse cx="18" cy="401.8535" fill="#84BE84" rx="3" ry="3" style="stroke:#038048;stroke-width:1.0;"/><text fill="#000000" font-family="sans-serif" font-size="14" lengthAdjust="spacing" textLength="496" x="27" y="405.6445">Iterable&lt;Course&gt;: findCourseListForStudentWhereHeCanEnroll(student)</text></g><!--class EnrollmentRepository--><g id="elem_EnrollmentRepository"><rect codeLine="19" fill="#F1F1F1" height="73.1094" id="EnrollmentRepository" rx="2.5" ry="2.5" style="stroke:#181818;stroke-width:0.5;" width="406" x="564" y="331.5"/><ellipse cx="688.75" cy="351.8105" fill="#ADD1B2" rx="11" ry="11" style="stroke:#181818;stroke-width:1.0;"/><path d="M691.7231,357.4536 Q691.1421,357.7524 690.5029,357.9019 Q689.8638,358.0513 689.1582,358.0513 Q686.6514,358.0513 685.3315,356.3994 Q684.0117,354.7476 684.0117,351.6265 Q684.0117,348.4971 685.3315,346.8452 Q686.6514,345.1934 689.1582,345.1934 Q689.8638,345.1934 690.5112,345.3428 Q691.1587,345.4922 691.7231,345.791 L691.7231,348.5137 Q691.0923,347.9326 690.4988,347.6628 Q689.9053,347.3931 689.2744,347.3931 Q687.9297,347.3931 687.2449,348.4597 Q686.5601,349.5264 686.5601,351.6265 Q686.5601,353.7183 687.2449,354.7849 Q687.9297,355.8516 689.2744,355.8516 Q689.9053,355.8516 690.4988,355.5818 Q691.0923,355.312 691.7231,354.731 Z " fill="#000000"/><text fill="#000000" font-family="sans-serif" font-size="12" font-style="italic" lengthAdjust="spacing" textLength="73" x="746.75" y="348.1016">&#171;Repository&#187;</text><text fill="#000000" font-family="sans-serif" font-size="14" lengthAdjust="spacing" textLength="148" x="709.25" y="364.168">EnrollmentRepository</text><line style="stroke:#181818;stroke-width:0.5;" x1="565" x2="969" y1="372.1211" y2="372.1211"/><line style="stroke:#181818;stroke-width:0.5;" x1="565" x2="969" y1="380.1211" y2="380.1211"/><ellipse cx="575" cy="393.8652" fill="#84BE84" rx="3" ry="3" style="stroke:#038048;stroke-width:1.0;"/><text fill="#000000" font-family="sans-serif" font-size="14" lengthAdjust="spacing" textLength="380" x="584" y="397.6563">Iterable&lt;Course&gt; findCoursesStudentIsEnroll(student);</text></g><!--class TeachingRepository--><g id="elem_TeachingRepository"><rect codeLine="24" fill="#F1F1F1" height="73.1094" id="TeachingRepository" rx="2.5" ry="2.5" style="stroke:#181818;stroke-width:0.5;" width="455" x="1005.5" y="331.5"/><ellipse cx="1160.75" cy="351.8105" fill="#ADD1B2" rx="11" ry="11" style="stroke:#181818;stroke-width:1.0;"/><path d="M1163.7231,357.4536 Q1163.1421,357.7524 1162.5029,357.9019 Q1161.8638,358.0513 1161.1582,358.0513 Q1158.6514,358.0513 1157.3315,356.3994 Q1156.0117,354.7476 1156.0117,351.6265 Q1156.0117,348.4971 1157.3315,346.8452 Q1158.6514,345.1934 1161.1582,345.1934 Q1161.8638,345.1934 1162.5112,345.3428 Q1163.1587,345.4922 1163.7231,345.791 L1163.7231,348.5137 Q1163.0923,347.9326 1162.4988,347.6628 Q1161.9053,347.3931 1161.2744,347.3931 Q1159.9297,347.3931 1159.2449,348.4597 Q1158.5601,349.5264 1158.5601,351.6265 Q1158.5601,353.7183 1159.2449,354.7849 Q1159.9297,355.8516 1161.2744,355.8516 Q1161.9053,355.8516 1162.4988,355.5818 Q1163.0923,355.312 1163.7231,354.731 Z " fill="#000000"/><text fill="#000000" font-family="sans-serif" font-size="12" font-style="italic" lengthAdjust="spacing" textLength="73" x="1212.75" y="348.1016">&#171;Repository&#187;</text><text fill="#000000" font-family="sans-serif" font-size="14" lengthAdjust="spacing" textLength="136" x="1181.25" y="364.168">TeachingRepository</text><line style="stroke:#181818;stroke-width:0.5;" x1="1006.5" x2="1459.5" y1="372.1211" y2="372.1211"/><line style="stroke:#181818;stroke-width:0.5;" x1="1006.5" x2="1459.5" y1="380.1211" y2="380.1211"/><ellipse cx="1016.5" cy="393.8652" fill="#84BE84" rx="3" ry="3" style="stroke:#038048;stroke-width:1.0;"/><text fill="#000000" font-family="sans-serif" font-size="14" lengthAdjust="spacing" textLength="429" x="1025.5" y="397.6563">Iterable&lt;Course&gt; findCoursesWhereTeacherTeaches(teacher);</text></g><!--link listAvailableCoursesUI to listAvailableCoursesController--><g id="link_listAvailableCoursesUI_listAvailableCoursesController"><path codeLine="29" d="M767,64.39 C767,79.4 767,98.71 767,117.75 " fill="none" id="listAvailableCoursesUI-to-listAvailableCoursesController" style="stroke:#181818;stroke-width:1.0;stroke-dasharray:7.0,7.0;"/><polygon fill="#181818" points="767,122.65,771,113.65,767,117.65,763,113.65,767,122.65" style="stroke:#181818;stroke-width:1.0;"/></g><!--link listAvailableCoursesController to CourseRepository--><g id="link_listAvailableCoursesController_CourseRepository"><path codeLine="30" d="M567.63,263.42 C511.97,282.66 452.84,303.1 401.95,320.7 " fill="none" id="listAvailableCoursesController-to-CourseRepository" style="stroke:#181818;stroke-width:1.0;stroke-dasharray:7.0,7.0;"/><polygon fill="#181818" points="397.42,322.61,407.232,323.4612,402.1475,320.9818,404.6269,315.8973,397.42,322.61" style="stroke:#181818;stroke-width:1.0;"/></g><!--link listAvailableCoursesController to EnrollmentRepository--><g id="link_listAvailableCoursesController_EnrollmentRepository"><path codeLine="31" d="M767,263.17 C767,284.29 767,306.87 767,325.57 " fill="none" id="listAvailableCoursesController-to-EnrollmentRepository" style="stroke:#181818;stroke-width:1.0;stroke-dasharray:7.0,7.0;"/><polygon fill="#181818" points="767,330.24,771,321.24,767,325.24,763,321.24,767,330.24" style="stroke:#181818;stroke-width:1.0;"/></g><!--link listAvailableCoursesController to TeachingRepository--><g id="link_listAvailableCoursesController_TeachingRepository"><path codeLine="32" d="M953.18,263.42 C1013.72,285.83 1078.66,309.87 1130.72,329.14 " fill="none" id="listAvailableCoursesController-to-TeachingRepository" style="stroke:#181818;stroke-width:1.0;stroke-dasharray:7.0,7.0;"/><polygon fill="#181818" points="1135.04,331.11,1127.9991,324.2234,1130.3537,329.3669,1125.2101,331.7215,1135.04,331.11" style="stroke:#181818;stroke-width:1.0;"/></g><!--SRC=[fPFFIiGm4CRlUOeSMvHz02s5KXGBUd5TFCTst0ra4yca2uluxkQVPgdjRekzb4dcDz-NcQGL394AZgOwC2xOcu1QzHe1DmqjYarJblIJV17IJYRMIXgjX01jWHHuaDhlYZO6j0EAG9Gtlax4VylTA_t49Dk2plAbu0kmTZSNVBMPi3Pz1z8qU2UTt-LapMH4XmXjftMcPJJirG56BLP20-kEeG9qsQDrD4VicevbXhsrOQR7dAJPXhHd-538ZT97EyqKd9tcEvTTTRQ7BYC4pf4TM7JgNJz0wYM6zJpP2XjxkxZSseak3WV-etHxqW9_ZRZS_a_97ohUoF33p8GmgasyjzMglF32o8K7w2eCvpY76Mlo7EvlmyWt]--></g></svg>