<?xml version="1.0" encoding="us-ascii" standalone="no"?><svg xmlns="http://www.w3.org/2000/svg" xmlns:xlink="http://www.w3.org/1999/xlink" contentStyleType="text/css" height="475px" preserveAspectRatio="none" style="width:833px;height:475px;background:#FFFFFF;" version="1.1" viewBox="0 0 833 475" width="833px" zoomAndPan="magnify"><defs/><g><rect fill="#FFFFFF" height="247.3516" style="stroke:#181818;stroke-width:1.0;" width="10" x="331" y="115.2871"/><rect fill="#FFFFFF" height="87.9316" style="stroke:#181818;stroke-width:1.0;" width="10" x="582" y="203.0859"/><rect fill="#FFFFFF" height="29.3105" style="stroke:#181818;stroke-width:1.0;" width="10" x="763" y="232.3965"/><line style="stroke:#181818;stroke-width:0.5;stroke-dasharray:5.0,5.0;" x1="38" x2="38" y1="83.9766" y2="380.6387"/><line style="stroke:#181818;stroke-width:0.5;stroke-dasharray:5.0,5.0;" x1="336" x2="336" y1="83.9766" y2="380.6387"/><line style="stroke:#181818;stroke-width:0.5;stroke-dasharray:5.0,5.0;" x1="587" x2="587" y1="162.5313" y2="380.6387"/><line style="stroke:#181818;stroke-width:0.5;stroke-dasharray:5.0,5.0;" x1="768" x2="768" y1="83.9766" y2="380.6387"/><text fill="#000000" font-family="FG Virgil" font-size="14" lengthAdjust="spacing" textLength="60" x="5" y="81.0234">Manager</text><ellipse cx="38" cy="15.9883" fill="#E3E3E3" rx="8" ry="8" style="stroke:#181818;stroke-width:0.5;"/><path d="M38,23.9883 L38,50.9883 M25,31.9883 L51,31.9883 M38,50.9883 L25,65.9883 M38,50.9883 L51,65.9883 " fill="none" style="stroke:#181818;stroke-width:0.5;"/><text fill="#000000" font-family="FG Virgil" font-size="14" lengthAdjust="spacing" textLength="60" x="5" y="393.1738">Manager</text><ellipse cx="38" cy="404.627" fill="#E3E3E3" rx="8" ry="8" style="stroke:#181818;stroke-width:0.5;"/><path d="M38,412.627 L38,439.627 M25,420.627 L51,420.627 M38,439.627 L25,454.627 M38,439.627 L51,454.627 " fill="none" style="stroke:#181818;stroke-width:0.5;"/><rect fill="#E3E3E3" height="46.9766" rx="2.5" ry="2.5" style="stroke:#181818;stroke-width:0.5;" width="166" x="253" y="36"/><text fill="#000000" font-family="FG Virgil" font-size="14" font-style="italic" lengthAdjust="spacing" textLength="101" x="285.5" y="56.5352">&#171;presentation&#187;</text><text fill="#000000" font-family="FG Virgil" font-size="14" lengthAdjust="spacing" textLength="152" x="260" y="73.0234">listAvailableCoursesUI</text><rect fill="#E3E3E3" height="46.9766" rx="2.5" ry="2.5" style="stroke:#181818;stroke-width:0.5;" width="166" x="253" y="379.6387"/><text fill="#000000" font-family="FG Virgil" font-size="14" font-style="italic" lengthAdjust="spacing" textLength="101" x="285.5" y="400.1738">&#171;presentation&#187;</text><text fill="#000000" font-family="FG Virgil" font-size="14" lengthAdjust="spacing" textLength="152" x="260" y="416.6621">listAvailableCoursesUI</text><text fill="#000000" font-family="FG Virgil" font-size="14" lengthAdjust="spacing" textLength="208" x="480" y="393.1738">listAvailableCoursesController</text><ellipse cx="587" cy="412.127" fill="#E3E3E3" rx="12" ry="12" style="stroke:#181818;stroke-width:0.5;"/><polygon fill="#181818" points="583,400.127,589,395.127,587,400.127,589,405.127,583,400.127" style="stroke:#181818;stroke-width:1.0;"/><text fill="#000000" font-family="FG Virgil" font-size="14" font-style="italic" lengthAdjust="spacing" textLength="84" x="723" y="64.5352">&#171;repository&#187;</text><text fill="#000000" font-family="FG Virgil" font-size="14" lengthAdjust="spacing" textLength="122" x="704" y="81.0234">CourseRepository</text><path d="M750,15 C750,5 768,5 768,5 C768,5 786,5 786,15 L786,41 C786,51 768,51 768,51 C768,51 750,51 750,41 L750,15 " fill="#E3E3E3" style="stroke:#181818;stroke-width:1.5;"/><path d="M750,15 C750,25 768,25 768,25 C768,25 786,25 786,15 " fill="none" style="stroke:#181818;stroke-width:1.5;"/><text fill="#000000" font-family="FG Virgil" font-size="14" font-style="italic" lengthAdjust="spacing" textLength="84" x="723" y="393.1738">&#171;repository&#187;</text><text fill="#000000" font-family="FG Virgil" font-size="14" lengthAdjust="spacing" textLength="122" x="704" y="409.6621">CourseRepository</text><path d="M750,422.6152 C750,412.6152 768,412.6152 768,412.6152 C768,412.6152 786,412.6152 786,422.6152 L786,448.6152 C786,458.6152 768,458.6152 768,458.6152 C768,458.6152 750,458.6152 750,448.6152 L750,422.6152 " fill="#E3E3E3" style="stroke:#181818;stroke-width:1.5;"/><path d="M750,422.6152 C750,432.6152 768,432.6152 768,432.6152 C768,432.6152 786,432.6152 786,422.6152 " fill="none" style="stroke:#181818;stroke-width:1.5;"/><rect fill="#FFFFFF" height="247.3516" style="stroke:#181818;stroke-width:1.0;" width="10" x="331" y="115.2871"/><rect fill="#FFFFFF" height="87.9316" style="stroke:#181818;stroke-width:1.0;" width="10" x="582" y="203.0859"/><rect fill="#FFFFFF" height="29.3105" style="stroke:#181818;stroke-width:1.0;" width="10" x="763" y="232.3965"/><polygon fill="#181818" points="319,111.2871,329,115.2871,319,119.2871,323,115.2871" style="stroke:#181818;stroke-width:1.0;"/><line style="stroke:#181818;stroke-width:1.0;" x1="38" x2="325" y1="115.2871" y2="115.2871"/><text fill="#000000" font-family="FG Virgil" font-size="13" font-weight="bold" lengthAdjust="spacing" textLength="9" x="45" y="110.5449">1</text><text fill="#000000" font-family="FG Virgil" font-size="13" lengthAdjust="spacing" textLength="261" x="58" y="110.5449">Wants to see the courses available to him</text><polygon fill="#181818" points="468,140.5977,478,144.5977,468,148.5977,472,144.5977" style="stroke:#181818;stroke-width:1.0;"/><line style="stroke:#181818;stroke-width:1.0;" x1="341" x2="474" y1="144.5977" y2="144.5977"/><text fill="#000000" font-family="FG Virgil" font-size="13" font-weight="bold" lengthAdjust="spacing" textLength="9" x="348" y="139.8555">2</text><text fill="#000000" font-family="FG Virgil" font-size="13" lengthAdjust="spacing" textLength="46" x="361" y="139.8555">create()</text><text fill="#000000" font-family="FG Virgil" font-size="14" lengthAdjust="spacing" textLength="208" x="480" y="168.8223">listAvailableCoursesController</text><ellipse cx="587" cy="139.2871" fill="#E3E3E3" rx="12" ry="12" style="stroke:#181818;stroke-width:0.5;"/><polygon fill="#181818" points="583,127.2871,589,122.2871,587,127.2871,589,132.2871,583,127.2871" style="stroke:#181818;stroke-width:1.0;"/><polygon fill="#181818" points="570,199.0859,580,203.0859,570,207.0859,574,203.0859" style="stroke:#181818;stroke-width:1.0;"/><line style="stroke:#181818;stroke-width:1.0;" x1="341" x2="576" y1="203.0859" y2="203.0859"/><text fill="#000000" font-family="FG Virgil" font-size="13" font-weight="bold" lengthAdjust="spacing" textLength="9" x="348" y="198.3438">3</text><text fill="#000000" font-family="FG Virgil" font-size="13" lengthAdjust="spacing" textLength="209" x="361" y="198.3438">listCoursesAvailableForManager()</text><polygon fill="#181818" points="751,228.3965,761,232.3965,751,236.3965,755,232.3965" style="stroke:#181818;stroke-width:1.0;"/><line style="stroke:#181818;stroke-width:1.0;" x1="592" x2="757" y1="232.3965" y2="232.3965"/><text fill="#000000" font-family="FG Virgil" font-size="13" font-weight="bold" lengthAdjust="spacing" textLength="9" x="599" y="227.6543">4</text><text fill="#000000" font-family="FG Virgil" font-size="13" lengthAdjust="spacing" textLength="50" x="612" y="227.6543">findAll()</text><polygon fill="#181818" points="603,257.707,593,261.707,603,265.707,599,261.707" style="stroke:#181818;stroke-width:1.0;"/><line style="stroke:#181818;stroke-width:1.0;stroke-dasharray:2.0,2.0;" x1="597" x2="767" y1="261.707" y2="261.707"/><text fill="#000000" font-family="FG Virgil" font-size="13" font-weight="bold" lengthAdjust="spacing" textLength="9" x="609" y="256.9648">5</text><text fill="#000000" font-family="FG Virgil" font-size="13" lengthAdjust="spacing" textLength="4" x="622" y="256.9648">&#160;</text><polygon fill="#181818" points="352,287.0176,342,291.0176,352,295.0176,348,291.0176" style="stroke:#181818;stroke-width:1.0;"/><line style="stroke:#181818;stroke-width:1.0;stroke-dasharray:2.0,2.0;" x1="346" x2="586" y1="291.0176" y2="291.0176"/><text fill="#000000" font-family="FG Virgil" font-size="13" font-weight="bold" lengthAdjust="spacing" textLength="9" x="358" y="286.2754">6</text><text fill="#000000" font-family="FG Virgil" font-size="13" lengthAdjust="spacing" textLength="4" x="371" y="286.2754">&#160;</text><line style="stroke:#181818;stroke-width:1.0;" x1="341" x2="383" y1="320.3281" y2="320.3281"/><line style="stroke:#181818;stroke-width:1.0;" x1="383" x2="383" y1="320.3281" y2="333.3281"/><line style="stroke:#181818;stroke-width:1.0;" x1="342" x2="383" y1="333.3281" y2="333.3281"/><polygon fill="#181818" points="352,329.3281,342,333.3281,352,337.3281,348,333.3281" style="stroke:#181818;stroke-width:1.0;"/><text fill="#000000" font-family="FG Virgil" font-size="13" font-weight="bold" lengthAdjust="spacing" textLength="9" x="348" y="315.5859">7</text><text fill="#000000" font-family="FG Virgil" font-size="13" lengthAdjust="spacing" textLength="93" x="361" y="315.5859">display the list</text><polygon fill="#181818" points="49,358.6387,39,362.6387,49,366.6387,45,362.6387" style="stroke:#181818;stroke-width:1.0;"/><line style="stroke:#181818;stroke-width:1.0;stroke-dasharray:2.0,2.0;" x1="43" x2="335" y1="362.6387" y2="362.6387"/><text fill="#000000" font-family="FG Virgil" font-size="13" font-weight="bold" lengthAdjust="spacing" textLength="9" x="55" y="357.8965">8</text><text fill="#000000" font-family="FG Virgil" font-size="13" lengthAdjust="spacing" textLength="4" x="68" y="357.8965">&#160;</text><!--SRC=[bLF1Ri8m3BtdAtpRTc3Sgme98J5nO8TDR6UJcZOYJRh4PUBlvz1Ikcc2BOSgoVDxVdQTkugvYTbqsbXqtDRsKVjw6kcZ9QTfKXWi0zOgxerhK7PGU-Tr5NnDmA6b4TAWtcD9htoq184qZx22TjXQNdh7poZKvHEycL0QEug95HR-qxWITcWZAOKjUzVMMmgor-m3hD59XW0OOPukb33PQDE8Tx0cylo0nkBMqiAt8LBSh5AiVFEy2HJ9CRBnRZPJIfqKO38JE8DtKOZ07Y99OHM1xWG0pue9h4oTd9W3CWbDWImTA9sqb1Qy_TN5eiEi598OOaUoNW_CUjtxXtzG4jvV3s5B7_gkzLA3_pyuJQj0nYr6WYxaXHeVZNJkc3exEkLv60xItpFzUfPKrKKZWvrnnTpQtketkvUm0Kjhv61oiqMNekYQxYtFfvbHFtHkP1xznZHlXOdouewdKKlC0HQy6-sHz6Rr1G00]--></g></svg>