<?xml version="1.0" encoding="us-ascii" standalone="no"?><svg xmlns="http://www.w3.org/2000/svg" xmlns:xlink="http://www.w3.org/1999/xlink" contentStyleType="text/css" height="701px" preserveAspectRatio="none" style="width:1481px;height:701px;background:#FFFFFF;" version="1.1" viewBox="0 0 1481 701" width="1481px" zoomAndPan="magnify"><defs/><g><rect fill="#FFFFFF" height="473.5254" style="stroke:#181818;stroke-width:1.0;" width="10" x="327.5" y="115.2871"/><rect fill="#FFFFFF" height="87.9316" style="stroke:#181818;stroke-width:1.0;" width="10" x="776.5" y="203.0859"/><rect fill="#FFFFFF" height="175.5527" style="stroke:#181818;stroke-width:1.0;" width="10" x="776.5" y="320.3281"/><rect fill="#FFFFFF" height="29.3105" style="stroke:#181818;stroke-width:1.0;" width="10" x="1260.5" y="232.3965"/><rect fill="#FFFFFF" height="29.3105" style="stroke:#181818;stroke-width:1.0;" width="10" x="1411.5" y="349.6387"/><rect fill="none" height="59.6211" style="stroke:#000000;stroke-width:1.5;" width="601" x="664.5" y="429.2598"/><line style="stroke:#181818;stroke-width:0.5;stroke-dasharray:5.0,5.0;" x1="34" x2="34" y1="83.9766" y2="606.8125"/><line style="stroke:#181818;stroke-width:0.5;stroke-dasharray:5.0,5.0;" x1="332.5" x2="332.5" y1="83.9766" y2="606.8125"/><line style="stroke:#181818;stroke-width:0.5;stroke-dasharray:5.0,5.0;" x1="781.5" x2="781.5" y1="162.5313" y2="606.8125"/><line style="stroke:#181818;stroke-width:0.5;stroke-dasharray:5.0,5.0;" x1="1265.5" x2="1265.5" y1="83.9766" y2="606.8125"/><line style="stroke:#181818;stroke-width:0.5;stroke-dasharray:5.0,5.0;" x1="1416.5" x2="1416.5" y1="83.9766" y2="606.8125"/><text fill="#000000" font-family="FG Virgil" font-size="14" lengthAdjust="spacing" textLength="53" x="5" y="81.0234">Student</text><ellipse cx="34.5" cy="15.9883" fill="#E3E3E3" rx="8" ry="8" style="stroke:#181818;stroke-width:0.5;"/><path d="M34.5,23.9883 L34.5,50.9883 M21.5,31.9883 L47.5,31.9883 M34.5,50.9883 L21.5,65.9883 M34.5,50.9883 L47.5,65.9883 " fill="none" style="stroke:#181818;stroke-width:0.5;"/><text fill="#000000" font-family="FG Virgil" font-size="14" lengthAdjust="spacing" textLength="53" x="5" y="619.3477">Student</text><ellipse cx="34.5" cy="630.8008" fill="#E3E3E3" rx="8" ry="8" style="stroke:#181818;stroke-width:0.5;"/><path d="M34.5,638.8008 L34.5,665.8008 M21.5,646.8008 L47.5,646.8008 M34.5,665.8008 L21.5,680.8008 M34.5,665.8008 L47.5,680.8008 " fill="none" style="stroke:#181818;stroke-width:0.5;"/><rect fill="#E3E3E3" height="46.9766" rx="2.5" ry="2.5" style="stroke:#181818;stroke-width:0.5;" width="166" x="249.5" y="36"/><text fill="#000000" font-family="FG Virgil" font-size="14" font-style="italic" lengthAdjust="spacing" textLength="101" x="282" y="56.5352">&#171;presentation&#187;</text><text fill="#000000" font-family="FG Virgil" font-size="14" lengthAdjust="spacing" textLength="152" x="256.5" y="73.0234">listAvailableCoursesUI</text><rect fill="#E3E3E3" height="46.9766" rx="2.5" ry="2.5" style="stroke:#181818;stroke-width:0.5;" width="166" x="249.5" y="605.8125"/><text fill="#000000" font-family="FG Virgil" font-size="14" font-style="italic" lengthAdjust="spacing" textLength="101" x="282" y="626.3477">&#171;presentation&#187;</text><text fill="#000000" font-family="FG Virgil" font-size="14" lengthAdjust="spacing" textLength="152" x="256.5" y="642.8359">listAvailableCoursesUI</text><text fill="#000000" font-family="FG Virgil" font-size="14" lengthAdjust="spacing" textLength="208" x="674.5" y="619.3477">listAvailableCoursesController</text><ellipse cx="781.5" cy="638.3008" fill="#E3E3E3" rx="12" ry="12" style="stroke:#181818;stroke-width:0.5;"/><polygon fill="#181818" points="777.5,626.3008,783.5,621.3008,781.5,626.3008,783.5,631.3008,777.5,626.3008" style="stroke:#181818;stroke-width:1.0;"/><text fill="#000000" font-family="FG Virgil" font-size="14" font-style="italic" lengthAdjust="spacing" textLength="84" x="1220.5" y="64.5352">&#171;repository&#187;</text><text fill="#000000" font-family="FG Virgil" font-size="14" lengthAdjust="spacing" textLength="148" x="1188.5" y="81.0234">EnrollmentRepository</text><path d="M1247.5,15 C1247.5,5 1265.5,5 1265.5,5 C1265.5,5 1283.5,5 1283.5,15 L1283.5,41 C1283.5,51 1265.5,51 1265.5,51 C1265.5,51 1247.5,51 1247.5,41 L1247.5,15 " fill="#E3E3E3" style="stroke:#181818;stroke-width:1.5;"/><path d="M1247.5,15 C1247.5,25 1265.5,25 1265.5,25 C1265.5,25 1283.5,25 1283.5,15 " fill="none" style="stroke:#181818;stroke-width:1.5;"/><text fill="#000000" font-family="FG Virgil" font-size="14" font-style="italic" lengthAdjust="spacing" textLength="84" x="1220.5" y="619.3477">&#171;repository&#187;</text><text fill="#000000" font-family="FG Virgil" font-size="14" lengthAdjust="spacing" textLength="148" x="1188.5" y="635.8359">EnrollmentRepository</text><path d="M1247.5,648.7891 C1247.5,638.7891 1265.5,638.7891 1265.5,638.7891 C1265.5,638.7891 1283.5,638.7891 1283.5,648.7891 L1283.5,674.7891 C1283.5,684.7891 1265.5,684.7891 1265.5,684.7891 C1265.5,684.7891 1247.5,684.7891 1247.5,674.7891 L1247.5,648.7891 " fill="#E3E3E3" style="stroke:#181818;stroke-width:1.5;"/><path d="M1247.5,648.7891 C1247.5,658.7891 1265.5,658.7891 1265.5,658.7891 C1265.5,658.7891 1283.5,658.7891 1283.5,648.7891 " fill="none" style="stroke:#181818;stroke-width:1.5;"/><text fill="#000000" font-family="FG Virgil" font-size="14" font-style="italic" lengthAdjust="spacing" textLength="84" x="1371.5" y="64.5352">&#171;repository&#187;</text><text fill="#000000" font-family="FG Virgil" font-size="14" lengthAdjust="spacing" textLength="122" x="1352.5" y="81.0234">CourseRepository</text><path d="M1398.5,15 C1398.5,5 1416.5,5 1416.5,5 C1416.5,5 1434.5,5 1434.5,15 L1434.5,41 C1434.5,51 1416.5,51 1416.5,51 C1416.5,51 1398.5,51 1398.5,41 L1398.5,15 " fill="#E3E3E3" style="stroke:#181818;stroke-width:1.5;"/><path d="M1398.5,15 C1398.5,25 1416.5,25 1416.5,25 C1416.5,25 1434.5,25 1434.5,15 " fill="none" style="stroke:#181818;stroke-width:1.5;"/><text fill="#000000" font-family="FG Virgil" font-size="14" font-style="italic" lengthAdjust="spacing" textLength="84" x="1371.5" y="619.3477">&#171;repository&#187;</text><text fill="#000000" font-family="FG Virgil" font-size="14" lengthAdjust="spacing" textLength="122" x="1352.5" y="635.8359">CourseRepository</text><path d="M1398.5,648.7891 C1398.5,638.7891 1416.5,638.7891 1416.5,638.7891 C1416.5,638.7891 1434.5,638.7891 1434.5,648.7891 L1434.5,674.7891 C1434.5,684.7891 1416.5,684.7891 1416.5,684.7891 C1416.5,684.7891 1398.5,684.7891 1398.5,674.7891 L1398.5,648.7891 " fill="#E3E3E3" style="stroke:#181818;stroke-width:1.5;"/><path d="M1398.5,648.7891 C1398.5,658.7891 1416.5,658.7891 1416.5,658.7891 C1416.5,658.7891 1434.5,658.7891 1434.5,648.7891 " fill="none" style="stroke:#181818;stroke-width:1.5;"/><rect fill="#FFFFFF" height="473.5254" style="stroke:#181818;stroke-width:1.0;" width="10" x="327.5" y="115.2871"/><rect fill="#FFFFFF" height="87.9316" style="stroke:#181818;stroke-width:1.0;" width="10" x="776.5" y="203.0859"/><rect fill="#FFFFFF" height="175.5527" style="stroke:#181818;stroke-width:1.0;" width="10" x="776.5" y="320.3281"/><rect fill="#FFFFFF" height="29.3105" style="stroke:#181818;stroke-width:1.0;" width="10" x="1260.5" y="232.3965"/><rect fill="#FFFFFF" height="29.3105" style="stroke:#181818;stroke-width:1.0;" width="10" x="1411.5" y="349.6387"/><polygon fill="#181818" points="315.5,111.2871,325.5,115.2871,315.5,119.2871,319.5,115.2871" style="stroke:#181818;stroke-width:1.0;"/><line style="stroke:#181818;stroke-width:1.0;" x1="34.5" x2="321.5" y1="115.2871" y2="115.2871"/><text fill="#000000" font-family="FG Virgil" font-size="13" font-weight="bold" lengthAdjust="spacing" textLength="9" x="41.5" y="110.5449">1</text><text fill="#000000" font-family="FG Virgil" font-size="13" lengthAdjust="spacing" textLength="261" x="54.5" y="110.5449">Wants to see the courses available to him</text><polygon fill="#181818" points="662.5,140.5977,672.5,144.5977,662.5,148.5977,666.5,144.5977" style="stroke:#181818;stroke-width:1.0;"/><line style="stroke:#181818;stroke-width:1.0;" x1="337.5" x2="668.5" y1="144.5977" y2="144.5977"/><text fill="#000000" font-family="FG Virgil" font-size="13" font-weight="bold" lengthAdjust="spacing" textLength="9" x="344.5" y="139.8555">2</text><text fill="#000000" font-family="FG Virgil" font-size="13" lengthAdjust="spacing" textLength="46" x="357.5" y="139.8555">create()</text><text fill="#000000" font-family="FG Virgil" font-size="14" lengthAdjust="spacing" textLength="208" x="674.5" y="168.8223">listAvailableCoursesController</text><ellipse cx="781.5" cy="139.2871" fill="#E3E3E3" rx="12" ry="12" style="stroke:#181818;stroke-width:0.5;"/><polygon fill="#181818" points="777.5,127.2871,783.5,122.2871,781.5,127.2871,783.5,132.2871,777.5,127.2871" style="stroke:#181818;stroke-width:1.0;"/><polygon fill="#181818" points="764.5,199.0859,774.5,203.0859,764.5,207.0859,768.5,203.0859" style="stroke:#181818;stroke-width:1.0;"/><line style="stroke:#181818;stroke-width:1.0;" x1="337.5" x2="770.5" y1="203.0859" y2="203.0859"/><text fill="#000000" font-family="FG Virgil" font-size="13" font-weight="bold" lengthAdjust="spacing" textLength="9" x="344.5" y="198.3438">3</text><text fill="#000000" font-family="FG Virgil" font-size="13" lengthAdjust="spacing" textLength="204" x="357.5" y="198.3438">listCoursesWhereStudentIsEnroll</text><polygon fill="#181818" points="1248.5,228.3965,1258.5,232.3965,1248.5,236.3965,1252.5,232.3965" style="stroke:#181818;stroke-width:1.0;"/><line style="stroke:#181818;stroke-width:1.0;" x1="786.5" x2="1254.5" y1="232.3965" y2="232.3965"/><text fill="#000000" font-family="FG Virgil" font-size="13" font-weight="bold" lengthAdjust="spacing" textLength="9" x="793.5" y="227.6543">4</text><text fill="#000000" font-family="FG Virgil" font-size="13" lengthAdjust="spacing" textLength="227" x="806.5" y="227.6543">findCoursesStudentIsEnroll(student)</text><polygon fill="#181818" points="797.5,257.707,787.5,261.707,797.5,265.707,793.5,261.707" style="stroke:#181818;stroke-width:1.0;"/><line style="stroke:#181818;stroke-width:1.0;stroke-dasharray:2.0,2.0;" x1="791.5" x2="1264.5" y1="261.707" y2="261.707"/><text fill="#000000" font-family="FG Virgil" font-size="13" font-weight="bold" lengthAdjust="spacing" textLength="9" x="803.5" y="256.9648">5</text><text fill="#000000" font-family="FG Virgil" font-size="13" lengthAdjust="spacing" textLength="4" x="816.5" y="256.9648">&#160;</text><polygon fill="#181818" points="348.5,287.0176,338.5,291.0176,348.5,295.0176,344.5,291.0176" style="stroke:#181818;stroke-width:1.0;"/><line style="stroke:#181818;stroke-width:1.0;stroke-dasharray:2.0,2.0;" x1="342.5" x2="780.5" y1="291.0176" y2="291.0176"/><text fill="#000000" font-family="FG Virgil" font-size="13" font-weight="bold" lengthAdjust="spacing" textLength="9" x="354.5" y="286.2754">6</text><text fill="#000000" font-family="FG Virgil" font-size="13" lengthAdjust="spacing" textLength="4" x="367.5" y="286.2754">&#160;</text><polygon fill="#181818" points="764.5,316.3281,774.5,320.3281,764.5,324.3281,768.5,320.3281" style="stroke:#181818;stroke-width:1.0;"/><line style="stroke:#181818;stroke-width:1.0;" x1="337.5" x2="770.5" y1="320.3281" y2="320.3281"/><text fill="#000000" font-family="FG Virgil" font-size="13" font-weight="bold" lengthAdjust="spacing" textLength="9" x="344.5" y="315.5859">7</text><text fill="#000000" font-family="FG Virgil" font-size="13" lengthAdjust="spacing" textLength="407" x="357.5" y="315.5859">listCoursesWhereStudentCanEnroll(coursesWhereStudentIsEnroll)</text><polygon fill="#181818" points="1399.5,345.6387,1409.5,349.6387,1399.5,353.6387,1403.5,349.6387" style="stroke:#181818;stroke-width:1.0;"/><line style="stroke:#181818;stroke-width:1.0;" x1="786.5" x2="1405.5" y1="349.6387" y2="349.6387"/><text fill="#000000" font-family="FG Virgil" font-size="13" font-weight="bold" lengthAdjust="spacing" textLength="9" x="793.5" y="344.8965">8</text><text fill="#000000" font-family="FG Virgil" font-size="13" lengthAdjust="spacing" textLength="331" x="806.5" y="344.8965">findCourseListForStudentWhereHeCanEnroll(student)</text><polygon fill="#181818" points="797.5,374.9492,787.5,378.9492,797.5,382.9492,793.5,378.9492" style="stroke:#181818;stroke-width:1.0;"/><line style="stroke:#181818;stroke-width:1.0;stroke-dasharray:2.0,2.0;" x1="791.5" x2="1415.5" y1="378.9492" y2="378.9492"/><text fill="#000000" font-family="FG Virgil" font-size="13" font-weight="bold" lengthAdjust="spacing" textLength="9" x="803.5" y="374.207">9</text><text fill="#000000" font-family="FG Virgil" font-size="13" lengthAdjust="spacing" textLength="4" x="816.5" y="374.207">&#160;</text><path d="M791,391.9492 L791,416.9492 L1211,416.9492 L1211,401.9492 L1201,391.9492 L791,391.9492 " fill="#FAFAFA" style="stroke:#181818;stroke-width:0.5;"/><path d="M1201,391.9492 L1201,401.9492 L1211,401.9492 L1201,391.9492 " fill="#FAFAFA" style="stroke:#181818;stroke-width:0.5;"/><text fill="#000000" font-family="FG Virgil" font-size="13" lengthAdjust="spacing" textLength="399" x="797" y="409.5176">for each cicle remove courses where student is already enrolled</text><path d="M664.5,429.2598 L726.5,429.2598 L726.5,436.5703 L716.5,446.5703 L664.5,446.5703 L664.5,429.2598 " fill="#EEEEEE" style="stroke:#000000;stroke-width:1.5;"/><rect fill="none" height="59.6211" style="stroke:#000000;stroke-width:1.5;" width="601" x="664.5" y="429.2598"/><text fill="#000000" font-family="FG Virgil" font-size="13" font-weight="bold" lengthAdjust="spacing" textLength="17" x="679.5" y="442.8281">alt</text><text fill="#000000" font-family="FG Virgil" font-size="11" font-weight="bold" lengthAdjust="spacing" textLength="338" x="741.5" y="441.8945">[for (Course enrolledCourse : coursesWhereStudentIsEnroll)]</text><line style="stroke:#181818;stroke-width:1.0;" x1="786.5" x2="828.5" y1="467.8809" y2="467.8809"/><line style="stroke:#181818;stroke-width:1.0;" x1="828.5" x2="828.5" y1="467.8809" y2="480.8809"/><line style="stroke:#181818;stroke-width:1.0;" x1="787.5" x2="828.5" y1="480.8809" y2="480.8809"/><polygon fill="#181818" points="797.5,476.8809,787.5,480.8809,797.5,484.8809,793.5,480.8809" style="stroke:#181818;stroke-width:1.0;"/><text fill="#000000" font-family="FG Virgil" font-size="13" font-weight="bold" lengthAdjust="spacing" textLength="18" x="793.5" y="463.1387">10</text><text fill="#000000" font-family="FG Virgil" font-size="13" lengthAdjust="spacing" textLength="438" x="815.5" y="463.1387">coursesToEnroll.removeIf(course -&gt; course.sameAs(enrolledCourse));</text><polygon fill="#181818" points="348.5,513.1914,338.5,517.1914,348.5,521.1914,344.5,517.1914" style="stroke:#181818;stroke-width:1.0;"/><line style="stroke:#181818;stroke-width:1.0;stroke-dasharray:2.0,2.0;" x1="342.5" x2="780.5" y1="517.1914" y2="517.1914"/><text fill="#000000" font-family="FG Virgil" font-size="13" font-weight="bold" lengthAdjust="spacing" textLength="18" x="354.5" y="512.4492">11</text><text fill="#000000" font-family="FG Virgil" font-size="13" lengthAdjust="spacing" textLength="4" x="376.5" y="512.4492">&#160;</text><line style="stroke:#181818;stroke-width:1.0;" x1="337.5" x2="379.5" y1="546.502" y2="546.502"/><line style="stroke:#181818;stroke-width:1.0;" x1="379.5" x2="379.5" y1="546.502" y2="559.502"/><line style="stroke:#181818;stroke-width:1.0;" x1="338.5" x2="379.5" y1="559.502" y2="559.502"/><polygon fill="#181818" points="348.5,555.502,338.5,559.502,348.5,563.502,344.5,559.502" style="stroke:#181818;stroke-width:1.0;"/><text fill="#000000" font-family="FG Virgil" font-size="13" font-weight="bold" lengthAdjust="spacing" textLength="18" x="344.5" y="541.7598">12</text><text fill="#000000" font-family="FG Virgil" font-size="13" lengthAdjust="spacing" textLength="187" x="366.5" y="541.7598">display the list of the courses</text><polygon fill="#181818" points="45.5,584.8125,35.5,588.8125,45.5,592.8125,41.5,588.8125" style="stroke:#181818;stroke-width:1.0;"/><line style="stroke:#181818;stroke-width:1.0;stroke-dasharray:2.0,2.0;" x1="39.5" x2="331.5" y1="588.8125" y2="588.8125"/><text fill="#000000" font-family="FG Virgil" font-size="13" font-weight="bold" lengthAdjust="spacing" textLength="18" x="51.5" y="584.0703">13</text><text fill="#000000" font-family="FG Virgil" font-size="13" lengthAdjust="spacing" textLength="4" x="73.5" y="584.0703">&#160;</text><!--SRC=[jLLDZziW4BtpA-RM-93axaQHegZfHbhrqErspmJ6CLeCBk2iykyx6DVsViLPhSe1UPYPnvi7ZB-K8TG-NovhpKreAhqGjbfw_DEW4JYNYXyThvX_LARcz0MLDLQKpbO8mJKuyjHSFF8ZteMpHd0emiWdiU2D3ZjhmWzEgRlly5kvezAZ65zoQP-KEKB1jKV6U1EiQQe3EleMmJgu2ur44u1xsCG5Hfb12LKJTz3AXys9AyqF6hUsSHxz_Jx6qhnQrGuzvVAWh5cl6MCj0ipNvCxXWH0y10iUgR0IGIG0uFyGexDKLMIYJZmWfJ6W8Hn6Ir1fpketMMoJJrCXCOFeqAwN0_CETvPz82Nwk-M74XrsSktzDnD3MgHsaZpm0_S8oL5Hq4-ihLUao3agDh9MAzSRfDkpzBJPwzItaeQfL_0AhUAu71Q56HZaK2WZkw0NzSzyihCUkMSo0FI-E4QLpQVrxrCbNWAUAgUzaUm5peHKxFEtPCjD9vDu_mfb__40nqTtInaxwxhTMoOtE32yV92lZl0pXzUk6qkMKySoJAfRK4yXX1A44cqVhEnfw2PFiHBew8EYzgBfcSipO5iOIZQKf4CBDakRz16TcSFaCLql_sGlIak_R89VfAhsHNTL8aJwMdZgxXi_UqusoxxsXD383zxjwz_C-1N4fYwLfz_QkUtd4G5iCUxjGpZ5f__9YDNz_Yy0]--></g></svg>