<?xml version="1.0" encoding="us-ascii" standalone="no"?><svg xmlns="http://www.w3.org/2000/svg" xmlns:xlink="http://www.w3.org/1999/xlink" contentStyleType="text/css" height="829px" preserveAspectRatio="none" style="width:453px;height:829px;background:#FFFFFF;" version="1.1" viewBox="0 0 453 829" width="453px" zoomAndPan="magnify"><defs/><g><rect fill="none" height="166.4629" style="stroke:#000000;stroke-width:1.5;" width="426.5" x="20" y="341.5938"/><rect fill="none" height="90.8867" style="stroke:#000000;stroke-width:1.5;" width="406.5" x="30" y="365.9043"/><rect fill="none" height="166.4629" style="stroke:#000000;stroke-width:1.5;" width="426.5" x="20" y="610.9434"/><rect fill="none" height="90.8867" style="stroke:#000000;stroke-width:1.5;" width="406.5" x="30" y="635.2539"/><line style="stroke:#181818;stroke-width:0.5;stroke-dasharray:5.0,5.0;" x1="74" x2="74" y1="36.4883" y2="794.4063"/><line style="stroke:#181818;stroke-width:0.5;stroke-dasharray:5.0,5.0;" x1="395.5" x2="395.5" y1="36.4883" y2="794.4063"/><rect fill="#E2E2F0" height="30.4883" rx="2.5" ry="2.5" style="stroke:#181818;stroke-width:0.5;" width="69" x="40" y="5"/><text fill="#000000" font-family="sans-serif" font-size="14" lengthAdjust="spacing" textLength="55" x="47" y="25.5352">Teacher</text><rect fill="#E2E2F0" height="30.4883" rx="2.5" ry="2.5" style="stroke:#181818;stroke-width:0.5;" width="69" x="40" y="793.4063"/><text fill="#000000" font-family="sans-serif" font-size="14" lengthAdjust="spacing" textLength="55" x="47" y="813.9414">Teacher</text><rect fill="#E2E2F0" height="30.4883" rx="2.5" ry="2.5" style="stroke:#181818;stroke-width:0.5;" width="62" x="364.5" y="5"/><text fill="#000000" font-family="sans-serif" font-size="14" lengthAdjust="spacing" textLength="48" x="371.5" y="25.5352">System</text><rect fill="#E2E2F0" height="30.4883" rx="2.5" ry="2.5" style="stroke:#181818;stroke-width:0.5;" width="62" x="364.5" y="793.4063"/><text fill="#000000" font-family="sans-serif" font-size="14" lengthAdjust="spacing" textLength="48" x="371.5" y="813.9414">System</text><polygon fill="#181818" points="383.5,63.7988,393.5,67.7988,383.5,71.7988,387.5,67.7988" style="stroke:#181818;stroke-width:1.0;"/><line style="stroke:#181818;stroke-width:1.0;" x1="74.5" x2="389.5" y1="67.7988" y2="67.7988"/><text fill="#000000" font-family="sans-serif" font-size="13" font-weight="bold" lengthAdjust="spacing" textLength="9" x="81.5" y="63.0566">1</text><text fill="#000000" font-family="sans-serif" font-size="13" lengthAdjust="spacing" textLength="147" x="94.5" y="63.0566">Authentication Request</text><polygon fill="#181818" points="85.5,93.1094,75.5,97.1094,85.5,101.1094,81.5,97.1094" style="stroke:#181818;stroke-width:1.0;"/><line style="stroke:#181818;stroke-width:1.0;stroke-dasharray:2.0,2.0;" x1="79.5" x2="394.5" y1="97.1094" y2="97.1094"/><text fill="#000000" font-family="sans-serif" font-size="13" font-weight="bold" lengthAdjust="spacing" textLength="9" x="91.5" y="92.3672">2</text><text fill="#000000" font-family="sans-serif" font-size="13" lengthAdjust="spacing" textLength="157" x="104.5" y="92.3672">Authentication Response</text><polygon fill="#181818" points="383.5,122.4199,393.5,126.4199,383.5,130.4199,387.5,126.4199" style="stroke:#181818;stroke-width:1.0;"/><line style="stroke:#181818;stroke-width:1.0;" x1="74.5" x2="389.5" y1="126.4199" y2="126.4199"/><text fill="#000000" font-family="sans-serif" font-size="13" font-weight="bold" lengthAdjust="spacing" textLength="9" x="81.5" y="121.6777">3</text><text fill="#000000" font-family="sans-serif" font-size="13" lengthAdjust="spacing" textLength="221" x="94.5" y="121.6777">Asks for permission to add/update</text><polygon fill="#181818" points="85.5,151.7305,75.5,155.7305,85.5,159.7305,81.5,155.7305" style="stroke:#181818;stroke-width:1.0;"/><line style="stroke:#181818;stroke-width:1.0;stroke-dasharray:2.0,2.0;" x1="79.5" x2="394.5" y1="155.7305" y2="155.7305"/><text fill="#000000" font-family="sans-serif" font-size="13" font-weight="bold" lengthAdjust="spacing" textLength="9" x="91.5" y="150.9883">4</text><text fill="#000000" font-family="sans-serif" font-size="13" lengthAdjust="spacing" textLength="136" x="104.5" y="150.9883">Operation (in)success</text><polygon fill="#181818" points="383.5,181.041,393.5,185.041,383.5,189.041,387.5,185.041" style="stroke:#181818;stroke-width:1.0;"/><line style="stroke:#181818;stroke-width:1.0;" x1="74.5" x2="389.5" y1="185.041" y2="185.041"/><text fill="#000000" font-family="sans-serif" font-size="13" font-weight="bold" lengthAdjust="spacing" textLength="9" x="81.5" y="180.2988">5</text><text fill="#000000" font-family="sans-serif" font-size="13" lengthAdjust="spacing" textLength="212" x="94.5" y="180.2988">Asks to create/update a Question</text><polygon fill="#181818" points="85.5,210.3516,75.5,214.3516,85.5,218.3516,81.5,214.3516" style="stroke:#181818;stroke-width:1.0;"/><line style="stroke:#181818;stroke-width:1.0;stroke-dasharray:2.0,2.0;" x1="79.5" x2="394.5" y1="214.3516" y2="214.3516"/><text fill="#000000" font-family="sans-serif" font-size="13" font-weight="bold" lengthAdjust="spacing" textLength="9" x="91.5" y="209.6094">6</text><text fill="#000000" font-family="sans-serif" font-size="13" lengthAdjust="spacing" textLength="259" x="104.5" y="209.6094">asks to select one option (create/update)</text><polygon fill="#181818" points="383.5,239.6621,393.5,243.6621,383.5,247.6621,387.5,243.6621" style="stroke:#181818;stroke-width:1.0;"/><line style="stroke:#181818;stroke-width:1.0;" x1="74.5" x2="389.5" y1="243.6621" y2="243.6621"/><text fill="#000000" font-family="sans-serif" font-size="13" font-weight="bold" lengthAdjust="spacing" textLength="9" x="81.5" y="238.9199">7</text><text fill="#000000" font-family="sans-serif" font-size="13" lengthAdjust="spacing" textLength="97" x="94.5" y="238.9199">chooses option</text><polygon fill="#181818" points="85.5,293.2832,75.5,297.2832,85.5,301.2832,81.5,297.2832" style="stroke:#181818;stroke-width:1.0;"/><line style="stroke:#181818;stroke-width:1.0;stroke-dasharray:2.0,2.0;" x1="79.5" x2="394.5" y1="297.2832" y2="297.2832"/><text fill="#000000" font-family="sans-serif" font-size="13" font-weight="bold" lengthAdjust="spacing" textLength="9" x="91.5" y="292.541">8</text><text fill="#000000" font-family="sans-serif" font-size="13" lengthAdjust="spacing" textLength="168" x="104.5" y="292.541">Ask user to insert file path</text><polygon fill="#181818" points="383.5,322.5938,393.5,326.5938,383.5,330.5938,387.5,326.5938" style="stroke:#181818;stroke-width:1.0;"/><line style="stroke:#181818;stroke-width:1.0;" x1="74.5" x2="389.5" y1="326.5938" y2="326.5938"/><text fill="#000000" font-family="sans-serif" font-size="13" font-weight="bold" lengthAdjust="spacing" textLength="9" x="81.5" y="321.8516">9</text><text fill="#000000" font-family="sans-serif" font-size="13" lengthAdjust="spacing" textLength="99" x="94.5" y="321.8516">Inserts file path</text><path d="M20,341.5938 L82,341.5938 L82,348.9043 L72,358.9043 L20,358.9043 L20,341.5938 " fill="#EEEEEE" style="stroke:#000000;stroke-width:1.5;"/><rect fill="none" height="166.4629" style="stroke:#000000;stroke-width:1.5;" width="426.5" x="20" y="341.5938"/><text fill="#000000" font-family="sans-serif" font-size="13" font-weight="bold" lengthAdjust="spacing" textLength="17" x="35" y="355.1621">alt</text><text fill="#000000" font-family="sans-serif" font-size="11" font-weight="bold" lengthAdjust="spacing" textLength="102" x="97" y="354.2285">[if file is not null]</text><path d="M30,365.9043 L92,365.9043 L92,373.2148 L82,383.2148 L30,383.2148 L30,365.9043 " fill="#EEEEEE" style="stroke:#000000;stroke-width:1.5;"/><rect fill="none" height="90.8867" style="stroke:#000000;stroke-width:1.5;" width="406.5" x="30" y="365.9043"/><text fill="#000000" font-family="sans-serif" font-size="13" font-weight="bold" lengthAdjust="spacing" textLength="17" x="45" y="379.4727">alt</text><text fill="#000000" font-family="sans-serif" font-size="11" font-weight="bold" lengthAdjust="spacing" textLength="131" x="107" y="378.5391">[if question is not null]</text><polygon fill="#181818" points="85.5,400.5254,75.5,404.5254,85.5,408.5254,81.5,404.5254" style="stroke:#181818;stroke-width:1.0;"/><line style="stroke:#181818;stroke-width:1.0;stroke-dasharray:2.0,2.0;" x1="79.5" x2="394.5" y1="404.5254" y2="404.5254"/><text fill="#000000" font-family="sans-serif" font-size="13" font-weight="bold" lengthAdjust="spacing" textLength="18" x="91.5" y="399.7832">10</text><text fill="#000000" font-family="sans-serif" font-size="13" lengthAdjust="spacing" textLength="173" x="113.5" y="399.7832">shows the question created</text><line style="stroke:#000000;stroke-width:1.0;stroke-dasharray:2.0,2.0;" x1="30" x2="436.5" y1="413.5254" y2="413.5254"/><text fill="#000000" font-family="sans-serif" font-size="11" font-weight="bold" lengthAdjust="spacing" textLength="109" x="35" y="424.1602">[if question is null]</text><polygon fill="#181818" points="85.5,444.791,75.5,448.791,85.5,452.791,81.5,448.791" style="stroke:#181818;stroke-width:1.0;"/><line style="stroke:#181818;stroke-width:1.0;stroke-dasharray:2.0,2.0;" x1="79.5" x2="394.5" y1="448.791" y2="448.791"/><text fill="#000000" font-family="sans-serif" font-size="13" font-weight="bold" lengthAdjust="spacing" textLength="18" x="91.5" y="444.0488">11</text><text fill="#000000" font-family="sans-serif" font-size="13" lengthAdjust="spacing" textLength="246" x="113.5" y="444.0488">informs about question not being valid</text><line style="stroke:#000000;stroke-width:1.0;stroke-dasharray:2.0,2.0;" x1="20" x2="446.5" y1="464.791" y2="464.791"/><text fill="#000000" font-family="sans-serif" font-size="11" font-weight="bold" lengthAdjust="spacing" textLength="80" x="25" y="475.4258">[if file is null]</text><polygon fill="#181818" points="85.5,496.0566,75.5,500.0566,85.5,504.0566,81.5,500.0566" style="stroke:#181818;stroke-width:1.0;"/><line style="stroke:#181818;stroke-width:1.0;stroke-dasharray:2.0,2.0;" x1="79.5" x2="394.5" y1="500.0566" y2="500.0566"/><text fill="#000000" font-family="sans-serif" font-size="13" font-weight="bold" lengthAdjust="spacing" textLength="18" x="91.5" y="495.3145">12</text><text fill="#000000" font-family="sans-serif" font-size="13" lengthAdjust="spacing" textLength="211" x="113.5" y="495.3145">informs about file not being valid</text><polygon fill="#181818" points="85.5,562.6328,75.5,566.6328,85.5,570.6328,81.5,566.6328" style="stroke:#181818;stroke-width:1.0;"/><line style="stroke:#181818;stroke-width:1.0;stroke-dasharray:2.0,2.0;" x1="79.5" x2="394.5" y1="566.6328" y2="566.6328"/><text fill="#000000" font-family="sans-serif" font-size="13" font-weight="bold" lengthAdjust="spacing" textLength="18" x="91.5" y="554.2354">13</text><text fill="#000000" font-family="sans-serif" font-size="13" lengthAdjust="spacing" textLength="182" x="113.5" y="546.5801">shows available question list</text><text fill="#000000" font-family="sans-serif" font-size="13" lengthAdjust="spacing" textLength="218" x="117.5" y="561.8906">asks to choose question to update</text><polygon fill="#181818" points="383.5,591.9434,393.5,595.9434,383.5,599.9434,387.5,595.9434" style="stroke:#181818;stroke-width:1.0;"/><line style="stroke:#181818;stroke-width:1.0;" x1="74.5" x2="389.5" y1="595.9434" y2="595.9434"/><text fill="#000000" font-family="sans-serif" font-size="13" font-weight="bold" lengthAdjust="spacing" textLength="18" x="81.5" y="591.2012">14</text><text fill="#000000" font-family="sans-serif" font-size="13" lengthAdjust="spacing" textLength="175" x="103.5" y="591.2012">chooses question to update</text><path d="M20,610.9434 L82,610.9434 L82,618.2539 L72,628.2539 L20,628.2539 L20,610.9434 " fill="#EEEEEE" style="stroke:#000000;stroke-width:1.5;"/><rect fill="none" height="166.4629" style="stroke:#000000;stroke-width:1.5;" width="426.5" x="20" y="610.9434"/><text fill="#000000" font-family="sans-serif" font-size="13" font-weight="bold" lengthAdjust="spacing" textLength="17" x="35" y="624.5117">alt</text><text fill="#000000" font-family="sans-serif" font-size="11" font-weight="bold" lengthAdjust="spacing" textLength="102" x="97" y="623.5781">[if file is not null]</text><path d="M30,635.2539 L92,635.2539 L92,642.5645 L82,652.5645 L30,652.5645 L30,635.2539 " fill="#EEEEEE" style="stroke:#000000;stroke-width:1.5;"/><rect fill="none" height="90.8867" style="stroke:#000000;stroke-width:1.5;" width="406.5" x="30" y="635.2539"/><text fill="#000000" font-family="sans-serif" font-size="13" font-weight="bold" lengthAdjust="spacing" textLength="17" x="45" y="648.8223">alt</text><text fill="#000000" font-family="sans-serif" font-size="11" font-weight="bold" lengthAdjust="spacing" textLength="157" x="107" y="647.8887">[if new question is not null]</text><polygon fill="#181818" points="85.5,669.875,75.5,673.875,85.5,677.875,81.5,673.875" style="stroke:#181818;stroke-width:1.0;"/><line style="stroke:#181818;stroke-width:1.0;stroke-dasharray:2.0,2.0;" x1="79.5" x2="394.5" y1="673.875" y2="673.875"/><text fill="#000000" font-family="sans-serif" font-size="13" font-weight="bold" lengthAdjust="spacing" textLength="18" x="91.5" y="669.1328">15</text><text fill="#000000" font-family="sans-serif" font-size="13" lengthAdjust="spacing" textLength="202" x="113.5" y="669.1328">shows the new question created</text><line style="stroke:#000000;stroke-width:1.0;stroke-dasharray:2.0,2.0;" x1="30" x2="436.5" y1="682.875" y2="682.875"/><text fill="#000000" font-family="sans-serif" font-size="11" font-weight="bold" lengthAdjust="spacing" textLength="109" x="35" y="693.5098">[if question is null]</text><polygon fill="#181818" points="85.5,714.1406,75.5,718.1406,85.5,722.1406,81.5,718.1406" style="stroke:#181818;stroke-width:1.0;"/><line style="stroke:#181818;stroke-width:1.0;stroke-dasharray:2.0,2.0;" x1="79.5" x2="394.5" y1="718.1406" y2="718.1406"/><text fill="#000000" font-family="sans-serif" font-size="13" font-weight="bold" lengthAdjust="spacing" textLength="18" x="91.5" y="713.3984">16</text><text fill="#000000" font-family="sans-serif" font-size="13" lengthAdjust="spacing" textLength="275" x="113.5" y="713.3984">informs about new question not being valid</text><line style="stroke:#000000;stroke-width:1.0;stroke-dasharray:2.0,2.0;" x1="20" x2="446.5" y1="734.1406" y2="734.1406"/><text fill="#000000" font-family="sans-serif" font-size="11" font-weight="bold" lengthAdjust="spacing" textLength="80" x="25" y="744.7754">[if file is null]</text><polygon fill="#181818" points="85.5,765.4063,75.5,769.4063,85.5,773.4063,81.5,769.4063" style="stroke:#181818;stroke-width:1.0;"/><line style="stroke:#181818;stroke-width:1.0;stroke-dasharray:2.0,2.0;" x1="79.5" x2="394.5" y1="769.4063" y2="769.4063"/><text fill="#000000" font-family="sans-serif" font-size="13" font-weight="bold" lengthAdjust="spacing" textLength="18" x="91.5" y="764.6641">17</text><text fill="#000000" font-family="sans-serif" font-size="13" lengthAdjust="spacing" textLength="211" x="113.5" y="764.6641">informs about file not being valid</text><!--SRC=[hP9FRuCm3CNlV0hVjXuOzsgQjEDEq_uSTp71BT52Gh7JQjz-0G8jA-tGD4ueyVlvnSytfKZDwooh3LhnbRbJhigOTfwiehJGk6smIXBqugolScgIv9rGbTH0-W1lNonKhU7HIqbMj4BHpi9hgsT9-cj8GsKKpPHoxIpJF9O_6JQkWPgQIZEt0d60HP7vka2XKNIVfgFgELJty5jjL-oL8kRB_01K3GLOP0B2I-i-06Rn64LCXfI0imIkxjjDEAkPbh06LJh7n54J9ci4z6P0Q8vcO3TuWF2T3n8wz-0v_0OpEeom4TXeGr2Zb9rghlrJLyW_AgE9xZ1Oi4x0UcDExmO_P_Tp8NFf3c58vV4PyLb59o73TCQynjCsR475WBdpSfIrFdBITWjxD3goRP5CceoFMjwWaoo27sEB2tbz8hX7RJ0t9tCncWK-xBXM_NuSxyFH2NfcYOU5cb4ipTRIuNA-lsSyaI_EULaK4_RVylw7pBy1]--></g></svg>