<?xml version="1.0" encoding="us-ascii" standalone="no"?><svg xmlns="http://www.w3.org/2000/svg" xmlns:xlink="http://www.w3.org/1999/xlink" contentStyleType="text/css" height="622px" preserveAspectRatio="none" style="width:902px;height:622px;background:#FFFFFF;" version="1.1" viewBox="0 0 902 622" width="902px" zoomAndPan="magnify"><defs/><g><rect fill="#FFFFFF" height="403.0371" style="stroke:#181818;stroke-width:1.0;" width="10" x="174.5" y="115.2871"/><rect fill="#FFFFFF" height="263.7949" style="stroke:#181818;stroke-width:1.0;" width="10" x="357.5" y="173.9082"/><rect fill="#FFFFFF" height="58.6211" style="stroke:#181818;stroke-width:1.0;" width="10" x="525" y="203.2188"/><rect fill="#FFFFFF" height="58.6211" style="stroke:#181818;stroke-width:1.0;" width="10" x="676.5" y="291.1504"/><rect fill="#FFFFFF" height="29.3105" style="stroke:#181818;stroke-width:1.0;" width="10" x="825.5" y="379.082"/><line style="stroke:#181818;stroke-width:0.5;stroke-dasharray:5.0,5.0;" x1="35" x2="35" y1="83.9766" y2="527.3242"/><line style="stroke:#181818;stroke-width:0.5;stroke-dasharray:5.0,5.0;" x1="179" x2="179" y1="83.9766" y2="527.3242"/><line style="stroke:#181818;stroke-width:0.5;stroke-dasharray:5.0,5.0;" x1="362" x2="362" y1="83.9766" y2="527.3242"/><line style="stroke:#181818;stroke-width:0.5;stroke-dasharray:5.0,5.0;" x1="530" x2="530" y1="83.9766" y2="527.3242"/><line style="stroke:#181818;stroke-width:0.5;stroke-dasharray:5.0,5.0;" x1="681" x2="681" y1="83.9766" y2="527.3242"/><line style="stroke:#181818;stroke-width:0.5;stroke-dasharray:5.0,5.0;" x1="830" x2="830" y1="83.9766" y2="527.3242"/><text fill="#000000" font-family="FG Virgil" font-size="14" lengthAdjust="spacing" textLength="55" x="5" y="81.0234">Teacher</text><ellipse cx="35.5" cy="15.9883" fill="#E3E3E3" rx="8" ry="8" style="stroke:#181818;stroke-width:0.5;"/><path d="M35.5,23.9883 L35.5,50.9883 M22.5,31.9883 L48.5,31.9883 M35.5,50.9883 L22.5,65.9883 M35.5,50.9883 L48.5,65.9883 " fill="none" style="stroke:#181818;stroke-width:0.5;"/><text fill="#000000" font-family="FG Virgil" font-size="14" lengthAdjust="spacing" textLength="55" x="5" y="539.8594">Teacher</text><ellipse cx="35.5" cy="551.3125" fill="#E3E3E3" rx="8" ry="8" style="stroke:#181818;stroke-width:0.5;"/><path d="M35.5,559.3125 L35.5,586.3125 M22.5,567.3125 L48.5,567.3125 M35.5,586.3125 L22.5,601.3125 M35.5,586.3125 L48.5,601.3125 " fill="none" style="stroke:#181818;stroke-width:0.5;"/><rect fill="#E3E3E3" height="46.9766" rx="2.5" ry="2.5" style="stroke:#181818;stroke-width:0.5;" width="115" x="122" y="36"/><text fill="#000000" font-family="FG Virgil" font-size="14" font-style="italic" lengthAdjust="spacing" textLength="101" x="129" y="56.5352">&#171;presentation&#187;</text><text fill="#000000" font-family="FG Virgil" font-size="14" lengthAdjust="spacing" textLength="99" x="130" y="73.0234">ListQuestionUI</text><rect fill="#E3E3E3" height="46.9766" rx="2.5" ry="2.5" style="stroke:#181818;stroke-width:0.5;" width="115" x="122" y="526.3242"/><text fill="#000000" font-family="FG Virgil" font-size="14" font-style="italic" lengthAdjust="spacing" textLength="101" x="129" y="546.8594">&#171;presentation&#187;</text><text fill="#000000" font-family="FG Virgil" font-size="14" lengthAdjust="spacing" textLength="99" x="130" y="563.3477">ListQuestionUI</text><rect fill="#E3E3E3" height="46.9766" rx="2.5" ry="2.5" style="stroke:#181818;stroke-width:0.5;" width="169" x="278" y="36"/><text fill="#000000" font-family="FG Virgil" font-size="14" font-style="italic" lengthAdjust="spacing" textLength="90" x="317.5" y="56.5352">&#171;application&#187;</text><text fill="#000000" font-family="FG Virgil" font-size="14" lengthAdjust="spacing" textLength="155" x="285" y="73.0234">ListQuestionController</text><rect fill="#E3E3E3" height="46.9766" rx="2.5" ry="2.5" style="stroke:#181818;stroke-width:0.5;" width="169" x="278" y="526.3242"/><text fill="#000000" font-family="FG Virgil" font-size="14" font-style="italic" lengthAdjust="spacing" textLength="90" x="317.5" y="546.8594">&#171;application&#187;</text><text fill="#000000" font-family="FG Virgil" font-size="14" lengthAdjust="spacing" textLength="155" x="285" y="563.3477">ListQuestionController</text><rect fill="#E3E3E3" height="46.9766" rx="2.5" ry="2.5" style="stroke:#181818;stroke-width:0.5;" width="146" x="457" y="36"/><text fill="#000000" font-family="FG Virgil" font-size="14" font-style="italic" lengthAdjust="spacing" textLength="92" x="484" y="56.5352">&#171;persistence&#187;</text><text fill="#000000" font-family="FG Virgil" font-size="14" lengthAdjust="spacing" textLength="132" x="464" y="73.0234">PersistenceContext</text><rect fill="#E3E3E3" height="46.9766" rx="2.5" ry="2.5" style="stroke:#181818;stroke-width:0.5;" width="146" x="457" y="526.3242"/><text fill="#000000" font-family="FG Virgil" font-size="14" font-style="italic" lengthAdjust="spacing" textLength="92" x="484" y="546.8594">&#171;persistence&#187;</text><text fill="#000000" font-family="FG Virgil" font-size="14" lengthAdjust="spacing" textLength="132" x="464" y="563.3477">PersistenceContext</text><rect fill="#E3E3E3" height="46.9766" rx="2.5" ry="2.5" style="stroke:#181818;stroke-width:0.5;" width="137" x="613" y="36"/><text fill="#000000" font-family="FG Virgil" font-size="14" font-style="italic" lengthAdjust="spacing" textLength="61" x="651" y="56.5352">&#171;factory&#187;</text><text fill="#000000" font-family="FG Virgil" font-size="14" lengthAdjust="spacing" textLength="123" x="620" y="73.0234">RepositoryFactory</text><rect fill="#E3E3E3" height="46.9766" rx="2.5" ry="2.5" style="stroke:#181818;stroke-width:0.5;" width="137" x="613" y="526.3242"/><text fill="#000000" font-family="FG Virgil" font-size="14" font-style="italic" lengthAdjust="spacing" textLength="61" x="651" y="546.8594">&#171;factory&#187;</text><text fill="#000000" font-family="FG Virgil" font-size="14" lengthAdjust="spacing" textLength="123" x="620" y="563.3477">RepositoryFactory</text><text fill="#000000" font-family="FG Virgil" font-size="14" font-style="italic" lengthAdjust="spacing" textLength="84" x="785.5" y="64.5352">&#171;repository&#187;</text><text fill="#000000" font-family="FG Virgil" font-size="14" lengthAdjust="spacing" textLength="135" x="760" y="81.0234">QuestionRepository</text><path d="M812.5,15 C812.5,5 830.5,5 830.5,5 C830.5,5 848.5,5 848.5,15 L848.5,41 C848.5,51 830.5,51 830.5,51 C830.5,51 812.5,51 812.5,41 L812.5,15 " fill="#E3E3E3" style="stroke:#181818;stroke-width:1.5;"/><path d="M812.5,15 C812.5,25 830.5,25 830.5,25 C830.5,25 848.5,25 848.5,15 " fill="none" style="stroke:#181818;stroke-width:1.5;"/><text fill="#000000" font-family="FG Virgil" font-size="14" font-style="italic" lengthAdjust="spacing" textLength="84" x="785.5" y="539.8594">&#171;repository&#187;</text><text fill="#000000" font-family="FG Virgil" font-size="14" lengthAdjust="spacing" textLength="135" x="760" y="556.3477">QuestionRepository</text><path d="M812.5,569.3008 C812.5,559.3008 830.5,559.3008 830.5,559.3008 C830.5,559.3008 848.5,559.3008 848.5,569.3008 L848.5,595.3008 C848.5,605.3008 830.5,605.3008 830.5,605.3008 C830.5,605.3008 812.5,605.3008 812.5,595.3008 L812.5,569.3008 " fill="#E3E3E3" style="stroke:#181818;stroke-width:1.5;"/><path d="M812.5,569.3008 C812.5,579.3008 830.5,579.3008 830.5,579.3008 C830.5,579.3008 848.5,579.3008 848.5,569.3008 " fill="none" style="stroke:#181818;stroke-width:1.5;"/><rect fill="#FFFFFF" height="403.0371" style="stroke:#181818;stroke-width:1.0;" width="10" x="174.5" y="115.2871"/><rect fill="#FFFFFF" height="263.7949" style="stroke:#181818;stroke-width:1.0;" width="10" x="357.5" y="173.9082"/><rect fill="#FFFFFF" height="58.6211" style="stroke:#181818;stroke-width:1.0;" width="10" x="525" y="203.2188"/><rect fill="#FFFFFF" height="58.6211" style="stroke:#181818;stroke-width:1.0;" width="10" x="676.5" y="291.1504"/><rect fill="#FFFFFF" height="29.3105" style="stroke:#181818;stroke-width:1.0;" width="10" x="825.5" y="379.082"/><polygon fill="#181818" points="162.5,111.2871,172.5,115.2871,162.5,119.2871,166.5,115.2871" style="stroke:#181818;stroke-width:1.0;"/><line style="stroke:#181818;stroke-width:1.0;stroke-dasharray:2.0,2.0;" x1="35.5" x2="168.5" y1="115.2871" y2="115.2871"/><text fill="#000000" font-family="FG Virgil" font-size="13" font-weight="bold" lengthAdjust="spacing" textLength="9" x="42.5" y="110.5449">1</text><text fill="#000000" font-family="FG Virgil" font-size="13" lengthAdjust="spacing" textLength="107" x="55.5" y="110.5449">list all Questions</text><polygon fill="#181818" points="350.5,140.5977,360.5,144.5977,350.5,148.5977,354.5,144.5977" style="stroke:#181818;stroke-width:1.0;"/><line style="stroke:#181818;stroke-width:1.0;" x1="184.5" x2="356.5" y1="144.5977" y2="144.5977"/><text fill="#000000" font-family="FG Virgil" font-size="13" font-weight="bold" lengthAdjust="spacing" textLength="9" x="191.5" y="139.8555">2</text><text fill="#000000" font-family="FG Virgil" font-size="13" lengthAdjust="spacing" textLength="46" x="204.5" y="139.8555">create()</text><polygon fill="#181818" points="345.5,169.9082,355.5,173.9082,345.5,177.9082,349.5,173.9082" style="stroke:#181818;stroke-width:1.0;"/><line style="stroke:#181818;stroke-width:1.0;" x1="184.5" x2="351.5" y1="173.9082" y2="173.9082"/><text fill="#000000" font-family="FG Virgil" font-size="13" font-weight="bold" lengthAdjust="spacing" textLength="9" x="191.5" y="169.166">3</text><text fill="#000000" font-family="FG Virgil" font-size="13" lengthAdjust="spacing" textLength="92" x="204.5" y="169.166">listQuestions()</text><polygon fill="#181818" points="513,199.2188,523,203.2188,513,207.2188,517,203.2188" style="stroke:#181818;stroke-width:1.0;"/><line style="stroke:#181818;stroke-width:1.0;" x1="367.5" x2="519" y1="203.2188" y2="203.2188"/><text fill="#000000" font-family="FG Virgil" font-size="13" font-weight="bold" lengthAdjust="spacing" textLength="9" x="374.5" y="198.4766">4</text><text fill="#000000" font-family="FG Virgil" font-size="13" lengthAdjust="spacing" textLength="83" x="387.5" y="198.4766">repositories()</text><polygon fill="#181818" points="669.5,228.5293,679.5,232.5293,669.5,236.5293,673.5,232.5293" style="stroke:#181818;stroke-width:1.0;"/><line style="stroke:#181818;stroke-width:1.0;" x1="535" x2="675.5" y1="232.5293" y2="232.5293"/><text fill="#000000" font-family="FG Virgil" font-size="13" font-weight="bold" lengthAdjust="spacing" textLength="9" x="542" y="227.7871">5</text><text fill="#000000" font-family="FG Virgil" font-size="13" lengthAdjust="spacing" textLength="46" x="555" y="227.7871">create()</text><polygon fill="#181818" points="378.5,257.8398,368.5,261.8398,378.5,265.8398,374.5,261.8398" style="stroke:#181818;stroke-width:1.0;"/><line style="stroke:#181818;stroke-width:1.0;stroke-dasharray:2.0,2.0;" x1="372.5" x2="529" y1="261.8398" y2="261.8398"/><text fill="#000000" font-family="FG Virgil" font-size="13" font-weight="bold" lengthAdjust="spacing" textLength="9" x="384.5" y="257.0977">6</text><text fill="#000000" font-family="FG Virgil" font-size="13" lengthAdjust="spacing" textLength="4" x="397.5" y="257.0977">&#160;</text><polygon fill="#181818" points="664.5,287.1504,674.5,291.1504,664.5,295.1504,668.5,291.1504" style="stroke:#181818;stroke-width:1.0;"/><line style="stroke:#181818;stroke-width:1.0;" x1="367.5" x2="670.5" y1="291.1504" y2="291.1504"/><text fill="#000000" font-family="FG Virgil" font-size="13" font-weight="bold" lengthAdjust="spacing" textLength="9" x="374.5" y="286.4082">7</text><text fill="#000000" font-family="FG Virgil" font-size="13" lengthAdjust="spacing" textLength="70" x="387.5" y="286.4082">questions()</text><polygon fill="#181818" points="818.5,316.4609,828.5,320.4609,818.5,324.4609,822.5,320.4609" style="stroke:#181818;stroke-width:1.0;"/><line style="stroke:#181818;stroke-width:1.0;" x1="686.5" x2="824.5" y1="320.4609" y2="320.4609"/><text fill="#000000" font-family="FG Virgil" font-size="13" font-weight="bold" lengthAdjust="spacing" textLength="9" x="693.5" y="315.7188">8</text><text fill="#000000" font-family="FG Virgil" font-size="13" lengthAdjust="spacing" textLength="46" x="706.5" y="315.7188">create()</text><polygon fill="#181818" points="378.5,345.7715,368.5,349.7715,378.5,353.7715,374.5,349.7715" style="stroke:#181818;stroke-width:1.0;"/><line style="stroke:#181818;stroke-width:1.0;stroke-dasharray:2.0,2.0;" x1="372.5" x2="680.5" y1="349.7715" y2="349.7715"/><text fill="#000000" font-family="FG Virgil" font-size="13" font-weight="bold" lengthAdjust="spacing" textLength="9" x="384.5" y="345.0293">9</text><text fill="#000000" font-family="FG Virgil" font-size="13" lengthAdjust="spacing" textLength="4" x="397.5" y="345.0293">&#160;</text><polygon fill="#181818" points="813.5,375.082,823.5,379.082,813.5,383.082,817.5,379.082" style="stroke:#181818;stroke-width:1.0;"/><line style="stroke:#181818;stroke-width:1.0;" x1="367.5" x2="819.5" y1="379.082" y2="379.082"/><text fill="#000000" font-family="FG Virgil" font-size="13" font-weight="bold" lengthAdjust="spacing" textLength="18" x="374.5" y="374.3398">10</text><text fill="#000000" font-family="FG Virgil" font-size="13" lengthAdjust="spacing" textLength="50" x="396.5" y="374.3398">findAll()</text><polygon fill="#181818" points="378.5,404.3926,368.5,408.3926,378.5,412.3926,374.5,408.3926" style="stroke:#181818;stroke-width:1.0;"/><line style="stroke:#181818;stroke-width:1.0;stroke-dasharray:2.0,2.0;" x1="372.5" x2="829.5" y1="408.3926" y2="408.3926"/><text fill="#000000" font-family="FG Virgil" font-size="13" font-weight="bold" lengthAdjust="spacing" textLength="18" x="384.5" y="403.6504">11</text><text fill="#000000" font-family="FG Virgil" font-size="13" lengthAdjust="spacing" textLength="4" x="406.5" y="403.6504">&#160;</text><polygon fill="#181818" points="195.5,433.7031,185.5,437.7031,195.5,441.7031,191.5,437.7031" style="stroke:#181818;stroke-width:1.0;"/><line style="stroke:#181818;stroke-width:1.0;stroke-dasharray:2.0,2.0;" x1="189.5" x2="361.5" y1="437.7031" y2="437.7031"/><text fill="#000000" font-family="FG Virgil" font-size="13" font-weight="bold" lengthAdjust="spacing" textLength="18" x="201.5" y="432.9609">12</text><text fill="#000000" font-family="FG Virgil" font-size="13" lengthAdjust="spacing" textLength="4" x="223.5" y="432.9609">&#160;</text><line style="stroke:#181818;stroke-width:1.0;" x1="184.5" x2="226.5" y1="467.0137" y2="467.0137"/><line style="stroke:#181818;stroke-width:1.0;" x1="226.5" x2="226.5" y1="467.0137" y2="480.0137"/><line style="stroke:#181818;stroke-width:1.0;" x1="185.5" x2="226.5" y1="480.0137" y2="480.0137"/><polygon fill="#181818" points="195.5,476.0137,185.5,480.0137,195.5,484.0137,191.5,480.0137" style="stroke:#181818;stroke-width:1.0;"/><text fill="#000000" font-family="FG Virgil" font-size="13" font-weight="bold" lengthAdjust="spacing" textLength="18" x="191.5" y="462.2715">13</text><text fill="#000000" font-family="FG Virgil" font-size="13" lengthAdjust="spacing" textLength="137" x="213.5" y="462.2715">output Questions List</text><polygon fill="#181818" points="46.5,505.3242,36.5,509.3242,46.5,513.3242,42.5,509.3242" style="stroke:#181818;stroke-width:1.0;"/><line style="stroke:#181818;stroke-width:1.0;stroke-dasharray:2.0,2.0;" x1="40.5" x2="173.5" y1="509.3242" y2="509.3242"/><text fill="#000000" font-family="FG Virgil" font-size="13" font-weight="bold" lengthAdjust="spacing" textLength="18" x="52.5" y="504.582">14</text><text fill="#000000" font-family="FG Virgil" font-size="13" lengthAdjust="spacing" textLength="4" x="74.5" y="504.582">&#160;</text><!--SRC=[bLHDJ-im4BpdL_Zsu02zLr4bzAG-8I74vxilphQnwjZ6tW3zzwmJcZZ1hS27o1ypipERE7zg8hTSB9m6GssZBwLj5c6dZ0CFpMLDZIw6fMYiiRBsja51liNan87SmHOVQQzHU9IKd5MuWLRJsXgw1QQk_ud_oczLgXnggEoxCbkn0HsmAA0bQzhc1JtF9LaldX1aZLv045Tnes0cAQaSEnStAj1zYu6KDS_N4SFFidGU0ng2kBrQ7MNyPMlUQjsh9wko1EUqaZc1E_I1DT18Z0pye4XETcFzSJLZFw2pGN6C_RgBju_amxGiD_sCIHKGl410SJ0xCYCbMPMb7nPCBBekYOkB5VTYAJJx4A3re1DYNzKR4F9v8NXmonYSn5yAwP41P-VT-TUOmthjGNOA7cgC-FGuZgGWwwODN8eXaSAPy4Gy8SqnSQIQNEBGvdoyB6aIE8UkyATcPdb7Cw_v3dvF-qN9WWvoh9ny6gUJZgJVn3pYOffkuc6ZJ7MbzOdtEC9pnHEnqquJbySLKwFT7Ido2lao_IM85yksv5eQhrNtPvb36Tl_j3u1]--></g></svg>