<?xml version="1.0" encoding="us-ascii" standalone="no"?><svg xmlns="http://www.w3.org/2000/svg" xmlns:xlink="http://www.w3.org/1999/xlink" contentStyleType="text/css" height="1776px" preserveAspectRatio="none" style="width:1832px;height:1776px;background:#FFFFFF;" version="1.1" viewBox="0 0 1832 1776" width="1832px" zoomAndPan="magnify"><defs/><g><rect fill="#FFFFFF" height="1589.5215" style="stroke:#181818;stroke-width:1.0;" width="10" x="72.5" y="93.6211"/><rect fill="#FFFFFF" height="157.4551" style="stroke:#181818;stroke-width:1.0;" width="10" x="305.5" y="116.9121"/><rect fill="#FFFFFF" height="31.291" style="stroke:#181818;stroke-width:1.0;" width="10" x="305.5" y="1636.8516"/><rect fill="#FFFFFF" height="68.582" style="stroke:#181818;stroke-width:1.0;" width="10" x="464.5" y="148.2031"/><rect fill="#FFFFFF" height="1362.4844" style="stroke:#181818;stroke-width:1.0;" width="10" x="637" y="274.3672"/><rect fill="#FFFFFF" height="156.4551" style="stroke:#181818;stroke-width:1.0;" width="10" x="960" y="683.4414"/><rect fill="#FFFFFF" height="93.873" style="stroke:#181818;stroke-width:1.0;" width="10" x="960" y="1167.1465"/><rect fill="#FFFFFF" height="193.7461" style="stroke:#181818;stroke-width:1.0;" width="10" x="960" y="1318.6016"/><rect fill="#FFFFFF" height="93.873" style="stroke:#181818;stroke-width:1.0;" width="10" x="1283" y="714.7324"/><rect fill="#FFFFFF" height="31.291" style="stroke:#181818;stroke-width:1.0;" width="10" x="1283" y="1198.4375"/><rect fill="#FFFFFF" height="131.1641" style="stroke:#181818;stroke-width:1.0;" width="10" x="1283" y="1349.8926"/><rect fill="#FFFFFF" height="68.582" style="stroke:#181818;stroke-width:1.0;" width="10" x="1468" y="1381.1836"/><rect fill="#FFFFFF" height="31.291" style="stroke:#181818;stroke-width:1.0;" width="10" x="1581" y="411.8223"/><rect fill="#FFFFFF" height="31.291" style="stroke:#181818;stroke-width:1.0;" width="10" x="1659" y="531.9863"/><rect fill="#FFFFFF" height="31.291" style="stroke:#181818;stroke-width:1.0;" width="10" x="1737" y="746.0234"/><rect fill="#FFFFFF" height="31.291" style="stroke:#181818;stroke-width:1.0;" width="10" x="1737" y="897.4785"/><rect fill="none" height="1444.3574" style="stroke:#000000;stroke-width:1.5;" width="1816" x="10" y="231.7852"/><rect fill="none" height="1237.3203" style="stroke:#000000;stroke-width:1.5;" width="1796" x="20" y="369.2402"/><rect fill="none" height="568.2383" style="stroke:#000000;stroke-width:1.5;" width="1776" x="30" y="458.1133"/><rect fill="none" height="441.0742" style="stroke:#000000;stroke-width:1.5;" width="1756" x="40" y="578.2773"/><rect fill="none" height="126.1641" style="stroke:#000000;stroke-width:1.5;" width="1228" x="558" y="854.8965"/><rect fill="none" height="323.541" style="stroke:#000000;stroke-width:1.5;" width="1512" x="40" y="1276.0195"/><line style="stroke:#181818;stroke-width:0.5;stroke-dasharray:5.0,5.0;" x1="77" x2="77" y1="83.6211" y2="1693.1426"/><line style="stroke:#181818;stroke-width:0.5;stroke-dasharray:5.0,5.0;" x1="310" x2="310" y1="83.6211" y2="1693.1426"/><line style="stroke:#181818;stroke-width:0.5;stroke-dasharray:5.0,5.0;" x1="469" x2="469" y1="83.6211" y2="1693.1426"/><line style="stroke:#181818;stroke-width:0.5;stroke-dasharray:5.0,5.0;" x1="642" x2="642" y1="83.6211" y2="1693.1426"/><line style="stroke:#181818;stroke-width:0.5;stroke-dasharray:5.0,5.0;" x1="965" x2="965" y1="83.6211" y2="1693.1426"/><line style="stroke:#181818;stroke-width:0.5;stroke-dasharray:5.0,5.0;" x1="1287.5" x2="1287.5" y1="83.6211" y2="1693.1426"/><line style="stroke:#181818;stroke-width:0.5;stroke-dasharray:5.0,5.0;" x1="1473" x2="1473" y1="83.6211" y2="1693.1426"/><line style="stroke:#181818;stroke-width:0.5;stroke-dasharray:5.0,5.0;" x1="1586" x2="1586" y1="83.6211" y2="1693.1426"/><line style="stroke:#181818;stroke-width:0.5;stroke-dasharray:5.0,5.0;" x1="1664" x2="1664" y1="83.6211" y2="1693.1426"/><line style="stroke:#181818;stroke-width:0.5;stroke-dasharray:5.0,5.0;" x1="1742" x2="1742" y1="83.6211" y2="1693.1426"/><text fill="#000000" font-family="FG Virgil" font-size="14" lengthAdjust="spacing" textLength="49" x="50" y="80.1074">Student</text><ellipse cx="77.5" cy="13.5" fill="#E3E3E3" rx="8" ry="8" style="stroke:#181818;stroke-width:0.5;"/><path d="M77.5,21.5 L77.5,48.5 M64.5,29.5 L90.5,29.5 M77.5,48.5 L64.5,63.5 M77.5,48.5 L90.5,63.5 " fill="none" style="stroke:#181818;stroke-width:0.5;"/><text fill="#000000" font-family="FG Virgil" font-size="14" lengthAdjust="spacing" textLength="49" x="50" y="1707.25">Student</text><ellipse cx="77.5" cy="1719.2637" fill="#E3E3E3" rx="8" ry="8" style="stroke:#181818;stroke-width:0.5;"/><path d="M77.5,1727.2637 L77.5,1754.2637 M64.5,1735.2637 L90.5,1735.2637 M77.5,1754.2637 L64.5,1769.2637 M77.5,1754.2637 L90.5,1769.2637 " fill="none" style="stroke:#181818;stroke-width:0.5;"/><rect fill="#E3E3E3" height="51.2422" rx="2.5" ry="2.5" style="stroke:#181818;stroke-width:0.5;" width="121" x="250" y="31.3789"/><text fill="#000000" font-family="FG Virgil" font-size="14" font-style="italic" lengthAdjust="spacing" textLength="95" x="263" y="53.4863">&#171;presentation&#187;</text><text fill="#000000" font-family="FG Virgil" font-size="14" lengthAdjust="spacing" textLength="107" x="257" y="72.1074">TakeAutoExamUI</text><rect fill="#E3E3E3" height="51.2422" rx="2.5" ry="2.5" style="stroke:#181818;stroke-width:0.5;" width="121" x="250" y="1692.1426"/><text fill="#000000" font-family="FG Virgil" font-size="14" font-style="italic" lengthAdjust="spacing" textLength="95" x="263" y="1714.25">&#171;presentation&#187;</text><text fill="#000000" font-family="FG Virgil" font-size="14" lengthAdjust="spacing" textLength="107" x="257" y="1732.8711">TakeAutoExamUI</text><rect fill="#E3E3E3" height="51.2422" rx="2.5" ry="2.5" style="stroke:#181818;stroke-width:0.5;" width="177" x="381" y="31.3789"/><text fill="#000000" font-family="FG Virgil" font-size="14" font-style="italic" lengthAdjust="spacing" textLength="95" x="422" y="53.4863">&#171;presentation&#187;</text><text fill="#000000" font-family="FG Virgil" font-size="14" lengthAdjust="spacing" textLength="163" x="388" y="72.1074">CreateUpdateAutoExamUI</text><rect fill="#E3E3E3" height="51.2422" rx="2.5" ry="2.5" style="stroke:#181818;stroke-width:0.5;" width="177" x="381" y="1692.1426"/><text fill="#000000" font-family="FG Virgil" font-size="14" font-style="italic" lengthAdjust="spacing" textLength="95" x="422" y="1714.25">&#171;presentation&#187;</text><text fill="#000000" font-family="FG Virgil" font-size="14" lengthAdjust="spacing" textLength="163" x="388" y="1732.8711">CreateUpdateAutoExamUI</text><rect fill="#E3E3E3" height="51.2422" rx="2.5" ry="2.5" style="stroke:#181818;stroke-width:0.5;" width="148" x="568" y="31.3789"/><text fill="#000000" font-family="FG Virgil" font-size="14" font-style="italic" lengthAdjust="spacing" textLength="95" x="594.5" y="53.4863">&#171;presentation&#187;</text><text fill="#000000" font-family="FG Virgil" font-size="14" lengthAdjust="spacing" textLength="134" x="575" y="72.1074">CommonTakeExamUI</text><rect fill="#E3E3E3" height="51.2422" rx="2.5" ry="2.5" style="stroke:#181818;stroke-width:0.5;" width="148" x="568" y="1692.1426"/><text fill="#000000" font-family="FG Virgil" font-size="14" font-style="italic" lengthAdjust="spacing" textLength="95" x="594.5" y="1714.25">&#171;presentation&#187;</text><text fill="#000000" font-family="FG Virgil" font-size="14" lengthAdjust="spacing" textLength="134" x="575" y="1732.8711">CommonTakeExamUI</text><text fill="#000000" font-family="FG Virgil" font-size="14" font-style="italic" lengthAdjust="spacing" textLength="84" x="920" y="61.4863">&#171;application&#187;</text><text fill="#000000" font-family="FG Virgil" font-size="14" lengthAdjust="spacing" textLength="184" x="870" y="80.1074">CommonTakeExamController</text><ellipse cx="965" cy="30.3789" fill="#E3E3E3" rx="12" ry="12" style="stroke:#181818;stroke-width:0.5;"/><polygon fill="#181818" points="961,18.3789,967,13.3789,965,18.3789,967,23.3789,961,18.3789" style="stroke:#181818;stroke-width:1.0;"/><text fill="#000000" font-family="FG Virgil" font-size="14" font-style="italic" lengthAdjust="spacing" textLength="84" x="920" y="1707.25">&#171;application&#187;</text><text fill="#000000" font-family="FG Virgil" font-size="14" lengthAdjust="spacing" textLength="184" x="870" y="1725.8711">CommonTakeExamController</text><ellipse cx="965" cy="1745.3848" fill="#E3E3E3" rx="12" ry="12" style="stroke:#181818;stroke-width:0.5;"/><polygon fill="#181818" points="961,1733.3848,967,1728.3848,965,1733.3848,967,1738.3848,961,1733.3848" style="stroke:#181818;stroke-width:1.0;"/><text fill="#000000" font-family="FG Virgil" font-size="14" font-style="italic" lengthAdjust="spacing" textLength="84" x="1243" y="61.4863">&#171;application&#187;</text><text fill="#000000" font-family="FG Virgil" font-size="14" lengthAdjust="spacing" textLength="169" x="1200.5" y="80.1074">CommonTakeExamService</text><ellipse cx="1288" cy="30.3789" fill="#E3E3E3" rx="12" ry="12" style="stroke:#181818;stroke-width:0.5;"/><polygon fill="#181818" points="1284,18.3789,1290,13.3789,1288,18.3789,1290,23.3789,1284,18.3789" style="stroke:#181818;stroke-width:1.0;"/><text fill="#000000" font-family="FG Virgil" font-size="14" font-style="italic" lengthAdjust="spacing" textLength="84" x="1243" y="1707.25">&#171;application&#187;</text><text fill="#000000" font-family="FG Virgil" font-size="14" lengthAdjust="spacing" textLength="169" x="1200.5" y="1725.8711">CommonTakeExamService</text><ellipse cx="1288" cy="1745.3848" fill="#E3E3E3" rx="12" ry="12" style="stroke:#181818;stroke-width:0.5;"/><polygon fill="#181818" points="1284,1733.3848,1290,1728.3848,1288,1733.3848,1290,1738.3848,1284,1733.3848" style="stroke:#181818;stroke-width:1.0;"/><text fill="#000000" font-family="FG Virgil" font-size="14" font-style="italic" lengthAdjust="spacing" textLength="52" x="1444" y="61.4863">&#171;visitor&#187;</text><text fill="#000000" font-family="FG Virgil" font-size="14" lengthAdjust="spacing" textLength="132" x="1404" y="80.1074">TakeExamEvalVisitor</text><ellipse cx="1473" cy="30.3789" fill="#E3E3E3" rx="12" ry="12" style="stroke:#181818;stroke-width:0.5;"/><polygon fill="#181818" points="1469,18.3789,1475,13.3789,1473,18.3789,1475,23.3789,1469,18.3789" style="stroke:#181818;stroke-width:1.0;"/><text fill="#000000" font-family="FG Virgil" font-size="14" font-style="italic" lengthAdjust="spacing" textLength="52" x="1444" y="1707.25">&#171;visitor&#187;</text><text fill="#000000" font-family="FG Virgil" font-size="14" lengthAdjust="spacing" textLength="132" x="1404" y="1725.8711">TakeExamEvalVisitor</text><ellipse cx="1473" cy="1745.3848" fill="#E3E3E3" rx="12" ry="12" style="stroke:#181818;stroke-width:0.5;"/><polygon fill="#181818" points="1469,1733.3848,1475,1728.3848,1473,1733.3848,1475,1738.3848,1469,1733.3848" style="stroke:#181818;stroke-width:1.0;"/><text fill="#000000" font-family="FG Virgil" font-size="14" font-style="italic" lengthAdjust="spacing" textLength="62" x="1552" y="61.4863">&#171;domain&#187;</text><text fill="#000000" font-family="FG Virgil" font-size="14" lengthAdjust="spacing" textLength="34" x="1566" y="80.1074">Exam</text><ellipse cx="1586" cy="30.3789" fill="#E3E3E3" rx="12" ry="12" style="stroke:#181818;stroke-width:0.5;"/><line style="stroke:#181818;stroke-width:0.5;" x1="1574" x2="1598" y1="44.3789" y2="44.3789"/><text fill="#000000" font-family="FG Virgil" font-size="14" font-style="italic" lengthAdjust="spacing" textLength="62" x="1552" y="1707.25">&#171;domain&#187;</text><text fill="#000000" font-family="FG Virgil" font-size="14" lengthAdjust="spacing" textLength="34" x="1566" y="1725.8711">Exam</text><ellipse cx="1586" cy="1745.3848" fill="#E3E3E3" rx="12" ry="12" style="stroke:#181818;stroke-width:0.5;"/><line style="stroke:#181818;stroke-width:0.5;" x1="1574" x2="1598" y1="1759.3848" y2="1759.3848"/><text fill="#000000" font-family="FG Virgil" font-size="14" font-style="italic" lengthAdjust="spacing" textLength="62" x="1630" y="61.4863">&#171;domain&#187;</text><text fill="#000000" font-family="FG Virgil" font-size="14" lengthAdjust="spacing" textLength="47" x="1637.5" y="80.1074">Section</text><ellipse cx="1664" cy="30.3789" fill="#E3E3E3" rx="12" ry="12" style="stroke:#181818;stroke-width:0.5;"/><line style="stroke:#181818;stroke-width:0.5;" x1="1652" x2="1676" y1="44.3789" y2="44.3789"/><text fill="#000000" font-family="FG Virgil" font-size="14" font-style="italic" lengthAdjust="spacing" textLength="62" x="1630" y="1707.25">&#171;domain&#187;</text><text fill="#000000" font-family="FG Virgil" font-size="14" lengthAdjust="spacing" textLength="47" x="1637.5" y="1725.8711">Section</text><ellipse cx="1664" cy="1745.3848" fill="#E3E3E3" rx="12" ry="12" style="stroke:#181818;stroke-width:0.5;"/><line style="stroke:#181818;stroke-width:0.5;" x1="1652" x2="1676" y1="1759.3848" y2="1759.3848"/><text fill="#000000" font-family="FG Virgil" font-size="14" font-style="italic" lengthAdjust="spacing" textLength="62" x="1708" y="61.4863">&#171;domain&#187;</text><text fill="#000000" font-family="FG Virgil" font-size="14" lengthAdjust="spacing" textLength="57" x="1710.5" y="80.1074">Question</text><ellipse cx="1742" cy="30.3789" fill="#E3E3E3" rx="12" ry="12" style="stroke:#181818;stroke-width:0.5;"/><line style="stroke:#181818;stroke-width:0.5;" x1="1730" x2="1754" y1="44.3789" y2="44.3789"/><text fill="#000000" font-family="FG Virgil" font-size="14" font-style="italic" lengthAdjust="spacing" textLength="62" x="1708" y="1707.25">&#171;domain&#187;</text><text fill="#000000" font-family="FG Virgil" font-size="14" lengthAdjust="spacing" textLength="57" x="1710.5" y="1725.8711">Question</text><ellipse cx="1742" cy="1745.3848" fill="#E3E3E3" rx="12" ry="12" style="stroke:#181818;stroke-width:0.5;"/><line style="stroke:#181818;stroke-width:0.5;" x1="1730" x2="1754" y1="1759.3848" y2="1759.3848"/><rect fill="#FFFFFF" height="1589.5215" style="stroke:#181818;stroke-width:1.0;" width="10" x="72.5" y="93.6211"/><rect fill="#FFFFFF" height="157.4551" style="stroke:#181818;stroke-width:1.0;" width="10" x="305.5" y="116.9121"/><rect fill="#FFFFFF" height="31.291" style="stroke:#181818;stroke-width:1.0;" width="10" x="305.5" y="1636.8516"/><rect fill="#FFFFFF" height="68.582" style="stroke:#181818;stroke-width:1.0;" width="10" x="464.5" y="148.2031"/><rect fill="#FFFFFF" height="1362.4844" style="stroke:#181818;stroke-width:1.0;" width="10" x="637" y="274.3672"/><rect fill="#FFFFFF" height="156.4551" style="stroke:#181818;stroke-width:1.0;" width="10" x="960" y="683.4414"/><rect fill="#FFFFFF" height="93.873" style="stroke:#181818;stroke-width:1.0;" width="10" x="960" y="1167.1465"/><rect fill="#FFFFFF" height="193.7461" style="stroke:#181818;stroke-width:1.0;" width="10" x="960" y="1318.6016"/><rect fill="#FFFFFF" height="93.873" style="stroke:#181818;stroke-width:1.0;" width="10" x="1283" y="714.7324"/><rect fill="#FFFFFF" height="31.291" style="stroke:#181818;stroke-width:1.0;" width="10" x="1283" y="1198.4375"/><rect fill="#FFFFFF" height="131.1641" style="stroke:#181818;stroke-width:1.0;" width="10" x="1283" y="1349.8926"/><rect fill="#FFFFFF" height="68.582" style="stroke:#181818;stroke-width:1.0;" width="10" x="1468" y="1381.1836"/><rect fill="#FFFFFF" height="31.291" style="stroke:#181818;stroke-width:1.0;" width="10" x="1581" y="411.8223"/><rect fill="#FFFFFF" height="31.291" style="stroke:#181818;stroke-width:1.0;" width="10" x="1659" y="531.9863"/><rect fill="#FFFFFF" height="31.291" style="stroke:#181818;stroke-width:1.0;" width="10" x="1737" y="746.0234"/><rect fill="#FFFFFF" height="31.291" style="stroke:#181818;stroke-width:1.0;" width="10" x="1737" y="897.4785"/><polygon fill="#181818" points="293.5,112.9121,303.5,116.9121,293.5,120.9121,297.5,116.9121" style="stroke:#181818;stroke-width:1.0;"/><line style="stroke:#181818;stroke-width:1.0;" x1="82.5" x2="299.5" y1="116.9121" y2="116.9121"/><text fill="#000000" font-family="FG Virgil" font-size="13" font-weight="bold" lengthAdjust="spacing" textLength="7" x="89.5" y="111.6494">1</text><text fill="#000000" font-family="FG Virgil" font-size="13" lengthAdjust="spacing" textLength="193" x="100.5" y="111.6494">wants to take an automatic exam</text><polygon fill="#181818" points="452.5,144.2031,462.5,148.2031,452.5,152.2031,456.5,148.2031" style="stroke:#181818;stroke-width:1.0;"/><line style="stroke:#181818;stroke-width:1.0;" x1="315.5" x2="458.5" y1="148.2031" y2="148.2031"/><text fill="#000000" font-family="FG Virgil" font-size="13" font-weight="bold" lengthAdjust="spacing" textLength="7" x="322.5" y="142.9404">2</text><text fill="#000000" font-family="FG Virgil" font-size="13" lengthAdjust="spacing" textLength="105" x="333.5" y="142.9404">createAutoExam()</text><path d="M479,161.2031 L479,188.2031 L581,188.2031 L581,171.2031 L571,161.2031 L479,161.2031 " fill="#FAFAFA" style="stroke:#181818;stroke-width:0.5;"/><path d="M571,161.2031 L571,171.2031 L581,171.2031 L571,161.2031 " fill="#FAFAFA" style="stroke:#181818;stroke-width:0.5;"/><text fill="#000000" font-family="FG Virgil" font-size="13" lengthAdjust="spacing" textLength="81" x="485" y="180.2314">calls US 2008</text><polygon fill="#181818" points="326.5,212.7852,316.5,216.7852,326.5,220.7852,322.5,216.7852" style="stroke:#181818;stroke-width:1.0;"/><line style="stroke:#181818;stroke-width:1.0;stroke-dasharray:2.0,2.0;" x1="320.5" x2="468.5" y1="216.7852" y2="216.7852"/><text fill="#000000" font-family="FG Virgil" font-size="13" font-weight="bold" lengthAdjust="spacing" textLength="7" x="332.5" y="211.5225">3</text><text fill="#000000" font-family="FG Virgil" font-size="13" lengthAdjust="spacing" textLength="32" x="343.5" y="211.5225">exam</text><path d="M10,231.7852 L71,231.7852 L71,241.0762 L61,251.0762 L10,251.0762 L10,231.7852 " fill="#EEEEEE" style="stroke:#000000;stroke-width:1.5;"/><rect fill="none" height="1444.3574" style="stroke:#000000;stroke-width:1.5;" width="1816" x="10" y="231.7852"/><text fill="#000000" font-family="FG Virgil" font-size="13" font-weight="bold" lengthAdjust="spacing" textLength="16" x="25" y="246.8135">alt</text><text fill="#000000" font-family="FG Virgil" font-size="11" font-weight="bold" lengthAdjust="spacing" textLength="105" x="86" y="245.6553">[if exam is not null]</text><polygon fill="#181818" points="625,270.3672,635,274.3672,625,278.3672,629,274.3672" style="stroke:#181818;stroke-width:1.0;"/><line style="stroke:#181818;stroke-width:1.0;" x1="310.5" x2="631" y1="274.3672" y2="274.3672"/><text fill="#000000" font-family="FG Virgil" font-size="13" font-weight="bold" lengthAdjust="spacing" textLength="7" x="317.5" y="269.1045">4</text><text fill="#000000" font-family="FG Virgil" font-size="13" lengthAdjust="spacing" textLength="99" x="328.5" y="269.1045">takeExam(exam)</text><polygon fill="#181818" points="93.5,318.9492,83.5,322.9492,93.5,326.9492,89.5,322.9492" style="stroke:#181818;stroke-width:1.0;"/><line style="stroke:#181818;stroke-width:1.0;stroke-dasharray:2.0,2.0;" x1="87.5" x2="636" y1="322.9492" y2="322.9492"/><text fill="#000000" font-family="FG Virgil" font-size="13" font-weight="bold" lengthAdjust="spacing" textLength="7" x="99.5" y="309.041">5</text><text fill="#000000" font-family="FG Virgil" font-size="13" lengthAdjust="spacing" textLength="178" x="110.5" y="300.3955">asks if student wants to do the</text><text fill="#000000" font-family="FG Virgil" font-size="13" lengthAdjust="spacing" textLength="174" x="114.5" y="317.6865">exam manually or import a file</text><polygon fill="#181818" points="625,350.2402,635,354.2402,625,358.2402,629,354.2402" style="stroke:#181818;stroke-width:1.0;"/><line style="stroke:#181818;stroke-width:1.0;" x1="82.5" x2="631" y1="354.2402" y2="354.2402"/><text fill="#000000" font-family="FG Virgil" font-size="13" font-weight="bold" lengthAdjust="spacing" textLength="7" x="89.5" y="348.9775">6</text><text fill="#000000" font-family="FG Virgil" font-size="13" lengthAdjust="spacing" textLength="81" x="100.5" y="348.9775">selects option</text><path d="M20,369.2402 L81,369.2402 L81,378.5313 L71,388.5313 L20,388.5313 L20,369.2402 " fill="#EEEEEE" style="stroke:#000000;stroke-width:1.5;"/><rect fill="none" height="1237.3203" style="stroke:#000000;stroke-width:1.5;" width="1796" x="20" y="369.2402"/><text fill="#000000" font-family="FG Virgil" font-size="13" font-weight="bold" lengthAdjust="spacing" textLength="16" x="35" y="384.2686">alt</text><text fill="#000000" font-family="FG Virgil" font-size="11" font-weight="bold" lengthAdjust="spacing" textLength="109" x="96" y="383.1104">[if option is manual]</text><polygon fill="#181818" points="1569,407.8223,1579,411.8223,1569,415.8223,1573,411.8223" style="stroke:#181818;stroke-width:1.0;"/><line style="stroke:#181818;stroke-width:1.0;" x1="647" x2="1575" y1="411.8223" y2="411.8223"/><text fill="#000000" font-family="FG Virgil" font-size="13" font-weight="bold" lengthAdjust="spacing" textLength="7" x="654" y="406.5596">7</text><text fill="#000000" font-family="FG Virgil" font-size="13" lengthAdjust="spacing" textLength="57" x="665" y="406.5596">sections()</text><polygon fill="#181818" points="658,439.1133,648,443.1133,658,447.1133,654,443.1133" style="stroke:#181818;stroke-width:1.0;"/><line style="stroke:#181818;stroke-width:1.0;stroke-dasharray:2.0,2.0;" x1="652" x2="1585" y1="443.1133" y2="443.1133"/><text fill="#000000" font-family="FG Virgil" font-size="13" font-weight="bold" lengthAdjust="spacing" textLength="7" x="664" y="437.8506">8</text><text fill="#000000" font-family="FG Virgil" font-size="13" lengthAdjust="spacing" textLength="49" x="675" y="437.8506">sections</text><path d="M30,458.1133 L103,458.1133 L103,467.4043 L93,477.4043 L30,477.4043 L30,458.1133 " fill="#EEEEEE" style="stroke:#000000;stroke-width:1.5;"/><rect fill="none" height="568.2383" style="stroke:#000000;stroke-width:1.5;" width="1776" x="30" y="458.1133"/><text fill="#000000" font-family="FG Virgil" font-size="13" font-weight="bold" lengthAdjust="spacing" textLength="28" x="45" y="473.1416">loop</text><text fill="#000000" font-family="FG Virgil" font-size="11" font-weight="bold" lengthAdjust="spacing" textLength="174" x="118" y="471.9834">[for each section in section list]</text><polygon fill="#181818" points="93.5,496.6953,83.5,500.6953,93.5,504.6953,89.5,500.6953" style="stroke:#181818;stroke-width:1.0;"/><line style="stroke:#181818;stroke-width:1.0;stroke-dasharray:2.0,2.0;" x1="87.5" x2="636" y1="500.6953" y2="500.6953"/><text fill="#000000" font-family="FG Virgil" font-size="13" font-weight="bold" lengthAdjust="spacing" textLength="7" x="99.5" y="495.4326">9</text><text fill="#000000" font-family="FG Virgil" font-size="13" lengthAdjust="spacing" textLength="150" x="110.5" y="495.4326">shows section information</text><polygon fill="#181818" points="1647,527.9863,1657,531.9863,1647,535.9863,1651,531.9863" style="stroke:#181818;stroke-width:1.0;"/><line style="stroke:#181818;stroke-width:1.0;" x1="647" x2="1653" y1="531.9863" y2="531.9863"/><text fill="#000000" font-family="FG Virgil" font-size="13" font-weight="bold" lengthAdjust="spacing" textLength="14" x="654" y="526.7236">10</text><text fill="#000000" font-family="FG Virgil" font-size="13" lengthAdjust="spacing" textLength="64" x="672" y="526.7236">questions()</text><polygon fill="#181818" points="658,559.2773,648,563.2773,658,567.2773,654,563.2773" style="stroke:#181818;stroke-width:1.0;"/><line style="stroke:#181818;stroke-width:1.0;stroke-dasharray:2.0,2.0;" x1="652" x2="1663" y1="563.2773" y2="563.2773"/><text fill="#000000" font-family="FG Virgil" font-size="13" font-weight="bold" lengthAdjust="spacing" textLength="14" x="664" y="558.0146">11</text><text fill="#000000" font-family="FG Virgil" font-size="13" lengthAdjust="spacing" textLength="56" x="682" y="558.0146">questions</text><path d="M40,578.2773 L113,578.2773 L113,587.5684 L103,597.5684 L40,597.5684 L40,578.2773 " fill="#EEEEEE" style="stroke:#000000;stroke-width:1.5;"/><rect fill="none" height="441.0742" style="stroke:#000000;stroke-width:1.5;" width="1756" x="40" y="578.2773"/><text fill="#000000" font-family="FG Virgil" font-size="13" font-weight="bold" lengthAdjust="spacing" textLength="28" x="55" y="593.3057">loop</text><text fill="#000000" font-family="FG Virgil" font-size="11" font-weight="bold" lengthAdjust="spacing" textLength="190" x="128" y="592.1475">[for each question in question list]</text><polygon fill="#181818" points="93.5,616.8594,83.5,620.8594,93.5,624.8594,89.5,620.8594" style="stroke:#181818;stroke-width:1.0;"/><line style="stroke:#181818;stroke-width:1.0;stroke-dasharray:2.0,2.0;" x1="87.5" x2="636" y1="620.8594" y2="620.8594"/><text fill="#000000" font-family="FG Virgil" font-size="13" font-weight="bold" lengthAdjust="spacing" textLength="14" x="99.5" y="615.5967">12</text><text fill="#000000" font-family="FG Virgil" font-size="13" lengthAdjust="spacing" textLength="272" x="117.5" y="615.5967">shows question and asks for student to answer</text><polygon fill="#181818" points="625,648.1504,635,652.1504,625,656.1504,629,652.1504" style="stroke:#181818;stroke-width:1.0;"/><line style="stroke:#181818;stroke-width:1.0;" x1="82.5" x2="631" y1="652.1504" y2="652.1504"/><text fill="#000000" font-family="FG Virgil" font-size="13" font-weight="bold" lengthAdjust="spacing" textLength="14" x="89.5" y="646.8877">13</text><text fill="#000000" font-family="FG Virgil" font-size="13" lengthAdjust="spacing" textLength="101" x="107.5" y="646.8877">answers question</text><polygon fill="#181818" points="948,679.4414,958,683.4414,948,687.4414,952,683.4414" style="stroke:#181818;stroke-width:1.0;"/><line style="stroke:#181818;stroke-width:1.0;" x1="647" x2="954" y1="683.4414" y2="683.4414"/><text fill="#000000" font-family="FG Virgil" font-size="13" font-weight="bold" lengthAdjust="spacing" textLength="14" x="654" y="678.1787">14</text><text fill="#000000" font-family="FG Virgil" font-size="13" lengthAdjust="spacing" textLength="243" x="672" y="678.1787">correctQuestion(question, studentAnswer)</text><polygon fill="#181818" points="1271,710.7324,1281,714.7324,1271,718.7324,1275,714.7324" style="stroke:#181818;stroke-width:1.0;"/><line style="stroke:#181818;stroke-width:1.0;" x1="970" x2="1277" y1="714.7324" y2="714.7324"/><text fill="#000000" font-family="FG Virgil" font-size="13" font-weight="bold" lengthAdjust="spacing" textLength="14" x="977" y="709.4697">15</text><text fill="#000000" font-family="FG Virgil" font-size="13" lengthAdjust="spacing" textLength="243" x="995" y="709.4697">correctQuestion(question, studentAnswer)</text><polygon fill="#181818" points="1725,742.0234,1735,746.0234,1725,750.0234,1729,746.0234" style="stroke:#181818;stroke-width:1.0;"/><line style="stroke:#181818;stroke-width:1.0;" x1="1293" x2="1731" y1="746.0234" y2="746.0234"/><text fill="#000000" font-family="FG Virgil" font-size="13" font-weight="bold" lengthAdjust="spacing" textLength="14" x="1300" y="740.7607">16</text><text fill="#000000" font-family="FG Virgil" font-size="13" lengthAdjust="spacing" textLength="49" x="1318" y="740.7607">answer()</text><polygon fill="#181818" points="1304,773.3145,1294,777.3145,1304,781.3145,1300,777.3145" style="stroke:#181818;stroke-width:1.0;"/><line style="stroke:#181818;stroke-width:1.0;stroke-dasharray:2.0,2.0;" x1="1298" x2="1741" y1="777.3145" y2="777.3145"/><text fill="#000000" font-family="FG Virgil" font-size="13" font-weight="bold" lengthAdjust="spacing" textLength="14" x="1310" y="772.0518">17</text><text fill="#000000" font-family="FG Virgil" font-size="13" lengthAdjust="spacing" textLength="41" x="1328" y="772.0518">answer</text><polygon fill="#181818" points="981,804.6055,971,808.6055,981,812.6055,977,808.6055" style="stroke:#181818;stroke-width:1.0;"/><line style="stroke:#181818;stroke-width:1.0;stroke-dasharray:2.0,2.0;" x1="975" x2="1287" y1="808.6055" y2="808.6055"/><text fill="#000000" font-family="FG Virgil" font-size="13" font-weight="bold" lengthAdjust="spacing" textLength="14" x="987" y="803.3428">18</text><text fill="#000000" font-family="FG Virgil" font-size="13" lengthAdjust="spacing" textLength="271" x="1005" y="803.3428">return if question is correct or not (true or false)</text><polygon fill="#181818" points="658,835.8965,648,839.8965,658,843.8965,654,839.8965" style="stroke:#181818;stroke-width:1.0;"/><line style="stroke:#181818;stroke-width:1.0;stroke-dasharray:2.0,2.0;" x1="652" x2="964" y1="839.8965" y2="839.8965"/><text fill="#000000" font-family="FG Virgil" font-size="13" font-weight="bold" lengthAdjust="spacing" textLength="14" x="664" y="834.6338">19</text><text fill="#000000" font-family="FG Virgil" font-size="13" lengthAdjust="spacing" textLength="271" x="682" y="834.6338">return if question is correct or not (true or false)</text><path d="M558,854.8965 L619,854.8965 L619,864.1875 L609,874.1875 L558,874.1875 L558,854.8965 " fill="#EEEEEE" style="stroke:#000000;stroke-width:1.5;"/><rect fill="none" height="126.1641" style="stroke:#000000;stroke-width:1.5;" width="1228" x="558" y="854.8965"/><text fill="#000000" font-family="FG Virgil" font-size="13" font-weight="bold" lengthAdjust="spacing" textLength="16" x="573" y="869.9248">alt</text><text fill="#000000" font-family="FG Virgil" font-size="11" font-weight="bold" lengthAdjust="spacing" textLength="123" x="634" y="868.7666">[if question is correct]</text><polygon fill="#181818" points="1725,893.4785,1735,897.4785,1725,901.4785,1729,897.4785" style="stroke:#181818;stroke-width:1.0;"/><line style="stroke:#181818;stroke-width:1.0;" x1="647" x2="1731" y1="897.4785" y2="897.4785"/><text fill="#000000" font-family="FG Virgil" font-size="13" font-weight="bold" lengthAdjust="spacing" textLength="14" x="654" y="892.2158">20</text><text fill="#000000" font-family="FG Virgil" font-size="13" lengthAdjust="spacing" textLength="61" x="672" y="892.2158">quotation()</text><polygon fill="#181818" points="658,924.7695,648,928.7695,658,932.7695,654,928.7695" style="stroke:#181818;stroke-width:1.0;"/><line style="stroke:#181818;stroke-width:1.0;stroke-dasharray:2.0,2.0;" x1="652" x2="1741" y1="928.7695" y2="928.7695"/><text fill="#000000" font-family="FG Virgil" font-size="13" font-weight="bold" lengthAdjust="spacing" textLength="14" x="664" y="923.5068">21</text><text fill="#000000" font-family="FG Virgil" font-size="13" lengthAdjust="spacing" textLength="53" x="682" y="923.5068">quotation</text><line style="stroke:#181818;stroke-width:1.0;" x1="647" x2="689" y1="960.0605" y2="960.0605"/><line style="stroke:#181818;stroke-width:1.0;" x1="689" x2="689" y1="960.0605" y2="973.0605"/><line style="stroke:#181818;stroke-width:1.0;" x1="648" x2="689" y1="973.0605" y2="973.0605"/><polygon fill="#181818" points="658,969.0605,648,973.0605,658,977.0605,654,973.0605" style="stroke:#181818;stroke-width:1.0;"/><text fill="#000000" font-family="FG Virgil" font-size="13" font-weight="bold" lengthAdjust="spacing" textLength="14" x="654" y="954.7979">22</text><text fill="#000000" font-family="FG Virgil" font-size="13" lengthAdjust="spacing" textLength="157" x="672" y="954.7979">grade+= questionQuotation</text><polygon fill="#181818" points="93.5,1007.3516,83.5,1011.3516,93.5,1015.3516,89.5,1011.3516" style="stroke:#181818;stroke-width:1.0;"/><line style="stroke:#181818;stroke-width:1.0;stroke-dasharray:2.0,2.0;" x1="87.5" x2="636" y1="1011.3516" y2="1011.3516"/><text fill="#000000" font-family="FG Virgil" font-size="13" font-weight="bold" lengthAdjust="spacing" textLength="14" x="99.5" y="1006.0889">23</text><text fill="#000000" font-family="FG Virgil" font-size="13" lengthAdjust="spacing" textLength="155" x="117.5" y="1006.0889">inform about exam finished</text><line style="stroke:#000000;stroke-width:1.0;stroke-dasharray:2.0,2.0;" x1="20" x2="1816" y1="1034.3516" y2="1034.3516"/><text fill="#000000" font-family="FG Virgil" font-size="11" font-weight="bold" lengthAdjust="spacing" textLength="102" x="25" y="1046.2217">[if option is by file]</text><polygon fill="#181818" points="625,1069.2734,635,1073.2734,625,1077.2734,629,1073.2734" style="stroke:#181818;stroke-width:1.0;"/><line style="stroke:#181818;stroke-width:1.0;stroke-dasharray:2.0,2.0;" x1="82.5" x2="631" y1="1073.2734" y2="1073.2734"/><text fill="#000000" font-family="FG Virgil" font-size="13" font-weight="bold" lengthAdjust="spacing" textLength="14" x="89.5" y="1068.0107">24</text><text fill="#000000" font-family="FG Virgil" font-size="13" lengthAdjust="spacing" textLength="211" x="107.5" y="1068.0107">shows exam sections and questions</text><polygon fill="#181818" points="93.5,1100.5645,83.5,1104.5645,93.5,1108.5645,89.5,1104.5645" style="stroke:#181818;stroke-width:1.0;"/><line style="stroke:#181818;stroke-width:1.0;stroke-dasharray:2.0,2.0;" x1="87.5" x2="636" y1="1104.5645" y2="1104.5645"/><text fill="#000000" font-family="FG Virgil" font-size="13" font-weight="bold" lengthAdjust="spacing" textLength="14" x="99.5" y="1099.3018">25</text><text fill="#000000" font-family="FG Virgil" font-size="13" lengthAdjust="spacing" textLength="95" x="117.5" y="1099.3018">asks for file path</text><polygon fill="#181818" points="625,1131.8555,635,1135.8555,625,1139.8555,629,1135.8555" style="stroke:#181818;stroke-width:1.0;"/><line style="stroke:#181818;stroke-width:1.0;" x1="82.5" x2="631" y1="1135.8555" y2="1135.8555"/><text fill="#000000" font-family="FG Virgil" font-size="13" font-weight="bold" lengthAdjust="spacing" textLength="14" x="89.5" y="1130.5928">26</text><text fill="#000000" font-family="FG Virgil" font-size="13" lengthAdjust="spacing" textLength="88" x="107.5" y="1130.5928">inserts file path</text><polygon fill="#181818" points="948,1163.1465,958,1167.1465,948,1171.1465,952,1167.1465" style="stroke:#181818;stroke-width:1.0;"/><line style="stroke:#181818;stroke-width:1.0;" x1="647" x2="954" y1="1167.1465" y2="1167.1465"/><text fill="#000000" font-family="FG Virgil" font-size="13" font-weight="bold" lengthAdjust="spacing" textLength="14" x="654" y="1161.8838">27</text><text fill="#000000" font-family="FG Virgil" font-size="13" lengthAdjust="spacing" textLength="90" x="672" y="1161.8838">importFile(path)</text><polygon fill="#181818" points="1271,1194.4375,1281,1198.4375,1271,1202.4375,1275,1198.4375" style="stroke:#181818;stroke-width:1.0;"/><line style="stroke:#181818;stroke-width:1.0;" x1="970" x2="1277" y1="1198.4375" y2="1198.4375"/><text fill="#000000" font-family="FG Virgil" font-size="13" font-weight="bold" lengthAdjust="spacing" textLength="14" x="977" y="1193.1748">28</text><text fill="#000000" font-family="FG Virgil" font-size="13" lengthAdjust="spacing" textLength="65" x="995" y="1193.1748">importFile()</text><polygon fill="#181818" points="981,1225.7285,971,1229.7285,981,1233.7285,977,1229.7285" style="stroke:#181818;stroke-width:1.0;"/><line style="stroke:#181818;stroke-width:1.0;stroke-dasharray:2.0,2.0;" x1="975" x2="1287" y1="1229.7285" y2="1229.7285"/><text fill="#000000" font-family="FG Virgil" font-size="13" font-weight="bold" lengthAdjust="spacing" textLength="14" x="987" y="1224.4658">29</text><text fill="#000000" font-family="FG Virgil" font-size="13" lengthAdjust="spacing" textLength="70" x="1005" y="1224.4658">file imported</text><polygon fill="#181818" points="658,1257.0195,648,1261.0195,658,1265.0195,654,1261.0195" style="stroke:#181818;stroke-width:1.0;"/><line style="stroke:#181818;stroke-width:1.0;stroke-dasharray:2.0,2.0;" x1="652" x2="964" y1="1261.0195" y2="1261.0195"/><text fill="#000000" font-family="FG Virgil" font-size="13" font-weight="bold" lengthAdjust="spacing" textLength="14" x="664" y="1255.7568">30</text><text fill="#000000" font-family="FG Virgil" font-size="13" lengthAdjust="spacing" textLength="70" x="682" y="1255.7568">file imported</text><path d="M40,1276.0195 L101,1276.0195 L101,1285.3105 L91,1295.3105 L40,1295.3105 L40,1276.0195 " fill="#EEEEEE" style="stroke:#000000;stroke-width:1.5;"/><rect fill="none" height="323.541" style="stroke:#000000;stroke-width:1.5;" width="1512" x="40" y="1276.0195"/><text fill="#000000" font-family="FG Virgil" font-size="13" font-weight="bold" lengthAdjust="spacing" textLength="16" x="55" y="1291.0479">alt</text><text fill="#000000" font-family="FG Virgil" font-size="11" font-weight="bold" lengthAdjust="spacing" textLength="92" x="116" y="1289.8896">[if file is not null]</text><polygon fill="#181818" points="948,1314.6016,958,1318.6016,948,1322.6016,952,1318.6016" style="stroke:#181818;stroke-width:1.0;"/><line style="stroke:#181818;stroke-width:1.0;" x1="647" x2="954" y1="1318.6016" y2="1318.6016"/><text fill="#000000" font-family="FG Virgil" font-size="13" font-weight="bold" lengthAdjust="spacing" textLength="14" x="654" y="1313.3389">31</text><text fill="#000000" font-family="FG Virgil" font-size="13" lengthAdjust="spacing" textLength="171" x="672" y="1313.3389">correctExamByFile(exam,file)</text><polygon fill="#181818" points="1271,1345.8926,1281,1349.8926,1271,1353.8926,1275,1349.8926" style="stroke:#181818;stroke-width:1.0;"/><line style="stroke:#181818;stroke-width:1.0;" x1="970" x2="1277" y1="1349.8926" y2="1349.8926"/><text fill="#000000" font-family="FG Virgil" font-size="13" font-weight="bold" lengthAdjust="spacing" textLength="14" x="977" y="1344.6299">32</text><text fill="#000000" font-family="FG Virgil" font-size="13" lengthAdjust="spacing" textLength="171" x="995" y="1344.6299">correctExamByFile(exam,file)</text><polygon fill="#181818" points="1456,1377.1836,1466,1381.1836,1456,1385.1836,1460,1381.1836" style="stroke:#181818;stroke-width:1.0;"/><line style="stroke:#181818;stroke-width:1.0;" x1="1293" x2="1462" y1="1381.1836" y2="1381.1836"/><text fill="#000000" font-family="FG Virgil" font-size="13" font-weight="bold" lengthAdjust="spacing" textLength="14" x="1300" y="1375.9209">33</text><text fill="#000000" font-family="FG Virgil" font-size="13" lengthAdjust="spacing" textLength="138" x="1318" y="1375.9209">correctExam(exam, file)</text><path d="M1278,1394.1836 L1278,1421.1836 L1463,1421.1836 L1463,1404.1836 L1453,1394.1836 L1278,1394.1836 " fill="#FAFAFA" style="stroke:#181818;stroke-width:0.5;"/><path d="M1453,1394.1836 L1453,1404.1836 L1463,1404.1836 L1453,1394.1836 " fill="#FAFAFA" style="stroke:#181818;stroke-width:0.5;"/><text fill="#000000" font-family="FG Virgil" font-size="13" lengthAdjust="spacing" textLength="164" x="1284" y="1413.2119">this part is related to ANTLR</text><polygon fill="#181818" points="1304,1445.7656,1294,1449.7656,1304,1453.7656,1300,1449.7656" style="stroke:#181818;stroke-width:1.0;"/><line style="stroke:#181818;stroke-width:1.0;stroke-dasharray:2.0,2.0;" x1="1298" x2="1472" y1="1449.7656" y2="1449.7656"/><text fill="#000000" font-family="FG Virgil" font-size="13" font-weight="bold" lengthAdjust="spacing" textLength="14" x="1310" y="1444.5029">34</text><text fill="#000000" font-family="FG Virgil" font-size="13" lengthAdjust="spacing" textLength="79" x="1328" y="1444.5029">student grade</text><polygon fill="#181818" points="981,1477.0566,971,1481.0566,981,1485.0566,977,1481.0566" style="stroke:#181818;stroke-width:1.0;"/><line style="stroke:#181818;stroke-width:1.0;stroke-dasharray:2.0,2.0;" x1="975" x2="1287" y1="1481.0566" y2="1481.0566"/><text fill="#000000" font-family="FG Virgil" font-size="13" font-weight="bold" lengthAdjust="spacing" textLength="14" x="987" y="1475.7939">35</text><text fill="#000000" font-family="FG Virgil" font-size="13" lengthAdjust="spacing" textLength="79" x="1005" y="1475.7939">student grade</text><polygon fill="#181818" points="658,1508.3477,648,1512.3477,658,1516.3477,654,1512.3477" style="stroke:#181818;stroke-width:1.0;"/><line style="stroke:#181818;stroke-width:1.0;stroke-dasharray:2.0,2.0;" x1="652" x2="964" y1="1512.3477" y2="1512.3477"/><text fill="#000000" font-family="FG Virgil" font-size="13" font-weight="bold" lengthAdjust="spacing" textLength="14" x="664" y="1507.085">36</text><text fill="#000000" font-family="FG Virgil" font-size="13" lengthAdjust="spacing" textLength="79" x="682" y="1507.085">student grade</text><polygon fill="#181818" points="93.5,1539.6387,83.5,1543.6387,93.5,1547.6387,89.5,1543.6387" style="stroke:#181818;stroke-width:1.0;"/><line style="stroke:#181818;stroke-width:1.0;stroke-dasharray:2.0,2.0;" x1="87.5" x2="636" y1="1543.6387" y2="1543.6387"/><text fill="#000000" font-family="FG Virgil" font-size="13" font-weight="bold" lengthAdjust="spacing" textLength="14" x="99.5" y="1538.376">37</text><text fill="#000000" font-family="FG Virgil" font-size="13" lengthAdjust="spacing" textLength="155" x="117.5" y="1538.376">inform about exam finished</text><line style="stroke:#000000;stroke-width:1.0;stroke-dasharray:2.0,2.0;" x1="40" x2="1552" y1="1552.6387" y2="1552.6387"/><text fill="#000000" font-family="FG Virgil" font-size="11" font-weight="bold" lengthAdjust="spacing" textLength="71" x="45" y="1564.5088">[if file is null]</text><polygon fill="#181818" points="93.5,1587.5605,83.5,1591.5605,93.5,1595.5605,89.5,1591.5605" style="stroke:#181818;stroke-width:1.0;"/><line style="stroke:#181818;stroke-width:1.0;stroke-dasharray:2.0,2.0;" x1="87.5" x2="636" y1="1591.5605" y2="1591.5605"/><text fill="#000000" font-family="FG Virgil" font-size="13" font-weight="bold" lengthAdjust="spacing" textLength="14" x="99.5" y="1586.2979">38</text><text fill="#000000" font-family="FG Virgil" font-size="13" lengthAdjust="spacing" textLength="149" x="117.5" y="1586.2979">informs about file not valid</text><polygon fill="#181818" points="326.5,1632.8516,316.5,1636.8516,326.5,1640.8516,322.5,1636.8516" style="stroke:#181818;stroke-width:1.0;"/><line style="stroke:#181818;stroke-width:1.0;stroke-dasharray:2.0,2.0;" x1="320.5" x2="641" y1="1636.8516" y2="1636.8516"/><text fill="#000000" font-family="FG Virgil" font-size="13" font-weight="bold" lengthAdjust="spacing" textLength="14" x="332.5" y="1631.5889">39</text><text fill="#000000" font-family="FG Virgil" font-size="13" lengthAdjust="spacing" textLength="79" x="350.5" y="1631.5889">student grade</text><polygon fill="#181818" points="93.5,1664.1426,83.5,1668.1426,93.5,1672.1426,89.5,1668.1426" style="stroke:#181818;stroke-width:1.0;"/><line style="stroke:#181818;stroke-width:1.0;stroke-dasharray:2.0,2.0;" x1="87.5" x2="309.5" y1="1668.1426" y2="1668.1426"/><text fill="#000000" font-family="FG Virgil" font-size="13" font-weight="bold" lengthAdjust="spacing" textLength="14" x="99.5" y="1662.8799">40</text><text fill="#000000" font-family="FG Virgil" font-size="13" lengthAdjust="spacing" textLength="93" x="117.5" y="1662.8799">shows feedback</text><!--SRC=[hLZ1RkCs4BtxAtYhWwut2vyAmpMGBf8YGB50wisUzi98b4MO8hKabTH_to4fqf99oR8J7n9AcddpE3ES6UctKkjwTNjRCynrKx7FcQXkrPxo6ajSVIvrnMRX4bM2YwoKeY98ouPqdjGus-CTsUe38qYIJ7UUvQJ03TCFWkjl65GV_aO_gDpHBh8gSIxUAD-X0ZD5PZFSQC6RweL8M6TQIBJLJKwuHbYXEtDZ1fgQPhG6vkWxtfCxKBd_3rVFZqO6_gxNjIGATB2cWcysFOslac1DdkiS_fvgBi-eYWeyOKmUbQ9x4K86-vU2dKX-TNSPaJ5AvzbwZUkQqMmSR4laAyr8ZEGV3C5ukVjNp7vGHOs_0IHrUxr-TIjGXzrHVK16n8ZR_-jrBYfC-V7n5j81p1a9luo5dXgYl5HOTyHi5j1N25ORVGG_kqABZGds2hr1R1JI0ccWZJ10GLWhs6g6232p6W7a-T5UFpzQxIMePpOXV2hCR-npBa1MqbsfaIYC8CXXnY19jcZvvSiVfw3B5dM95fvMi9sJI10pZMXXHH1LnXhY3MFscGCokujoQsMtQ6aQrPiOli_h523WHyY6jVFg2YAnLuQTQWzUy6yEBYx9J-vuLvWtu9830YLQrKB24KK5PIHO2M5AR4GH1ZcXaAXDn8DAwnXtrxZ6MGdFq-GtBWKDgiqprKOne7g7tFkOT7zMTp54qm7sb3eUZm2P43KgODiWKtfrH7bOCgfqH64q7geKRwe31UWLxdbjp3F-wAtGh_PudNgdvw5MF18mFmyruAk07obt73Q4t_URXpAE2-kavoPwBu1Wdhi4DxPyXaDkOwxUY4p2ZwMnKplYJ-It6QxuK6Y4D9tKLyEvn_xa-TvPepT9MmDd_sWWgHMpx32AsFgkyawg8tHR2uDgCL_F2SY6DkB3CxyP1GeSdiQ2sFq52uiHtunaLE9SJB8ziENnT994DvARgdeyLSf7pXHlqttcPgup5tOC6_PNX_5b4HlEhlJ1-Z3MWupF78cs4oMiJzoZE-UTPFpL23SKpYUSXqdvC9A7RKLkBSu-8WFFbp5hT2TnJdx_CtZkQPG4uVdbDTtrG8HVHAFTC59GJbL9OgnJ_EurWQJfJnilX_u4asIoNYnEkekbu4S5ssBIlV3ys6Mwac40BrQwd4tjGfGh8c6OIcjUs7xSBFS0K7C3DJ19JJvBrxIL3eMHKMLw0RggRbfdEYQ9lBgu45vQ08VDNrhHsahc01Cl6-yRKypzlmusLkOOV39c9WVjJ0r-nqWoZTOxHf31yIFryjoZvGYXOKOzLWcuqPvWtrmPAUoBQvgBBY4Dp8SDamwIC32JcnduxjltV_uT1K_XZSr0Vi2sFM5A4xfajrUTwlEChXfnBZtTupIkcLa-ec7wXXXAnRGo4HbIhIMBO-eDH9EEzE7EEea-uB91Dvr-1-by-KY-7HQ4v2yusmzyJp7yEdVTTwZ_0G00]--></g></svg>