<?xml version="1.0" encoding="us-ascii" standalone="no"?><svg xmlns="http://www.w3.org/2000/svg" xmlns:xlink="http://www.w3.org/1999/xlink" contentStyleType="text/css" height="422px" preserveAspectRatio="none" style="width:540px;height:422px;background:#FFFFFF;" version="1.1" viewBox="0 0 540 422" width="540.5px" zoomAndPan="magnify"><defs/><g><!--class RegisterUserUI--><g id="elem_RegisterUserUI"><rect codeLine="2" fill="#F1F1F1" height="42.6211" id="RegisterUserUI" rx="1.25" ry="1.25" style="stroke:#181818;stroke-width:0.25;" width="63" x="254.75" y="3.5"/><ellipse cx="262.25" cy="11.5" fill="#ADD1B2" rx="5.5" ry="5.5" style="stroke:#181818;stroke-width:0.5;"/><path d="M263.6328,9.4375 Q263.7109,9.3281 263.8047,9.2734 Q263.8984,9.2188 264.0078,9.2188 Q264.1953,9.2188 264.3125,9.3516 Q264.4297,9.4766 264.4297,9.7813 L264.4297,10.5078 Q264.4297,10.8125 264.3125,10.9453 Q264.1953,11.0781 264.0078,11.0781 Q263.8359,11.0781 263.7344,10.9766 Q263.6328,10.8828 263.5781,10.625 Q263.5547,10.4453 263.4609,10.3516 Q263.2969,10.1641 262.9922,10.0547 Q262.6875,9.9453 262.375,9.9453 Q261.9922,9.9453 261.6719,10.1094 Q261.3594,10.2734 261.1094,10.6484 Q260.8672,11.0234 260.8672,11.5391 L260.8672,12.0859 Q260.8672,12.7031 261.3125,13.1172 Q261.7578,13.5234 262.5547,13.5234 Q263.0234,13.5234 263.3516,13.3984 Q263.5469,13.3203 263.7578,13.1016 Q263.8906,12.9688 263.9609,12.9297 Q264.0391,12.8906 264.1406,12.8906 Q264.3047,12.8906 264.4297,13.0234 Q264.5625,13.1484 264.5625,13.3203 Q264.5625,13.4922 264.3906,13.6953 Q264.1406,13.9844 263.7422,14.1484 Q263.2031,14.375 262.5547,14.375 Q261.7969,14.375 261.1953,14.0625 Q260.7031,13.8125 260.3594,13.2813 Q260.0156,12.7422 260.0156,12.1016 L260.0156,11.5234 Q260.0156,10.8594 260.3203,10.2891 Q260.6328,9.7109 261.1797,9.4063 Q261.7266,9.0938 262.3438,9.0938 Q262.7109,9.0938 263.0313,9.1797 Q263.3594,9.2578 263.6328,9.4375 Z " fill="#000000"/><text fill="#000000" font-family="sans-serif" font-size="7" lengthAdjust="spacing" textLength="47" x="269.25" y="14.3984">RegisterUserUI</text><line style="stroke:#181818;stroke-width:0.25;" x1="255.25" x2="317.25" y1="19.5" y2="19.5"/><line style="stroke:#181818;stroke-width:0.25;" x1="255.25" x2="317.25" y1="23.5" y2="23.5"/><ellipse cx="260.25" cy="30.9053" fill="#84BE84" rx="1.5" ry="1.5" style="stroke:#038048;stroke-width:0.5;"/><text fill="#000000" font-family="sans-serif" font-size="7" lengthAdjust="spacing" textLength="30" x="264.75" y="33.0537">doShow()</text><ellipse cx="260.25" cy="40.2158" fill="#84BE84" rx="1.5" ry="1.5" style="stroke:#038048;stroke-width:0.5;"/><text fill="#000000" font-family="sans-serif" font-size="7" lengthAdjust="spacing" textLength="34.5" x="264.75" y="42.3643">headLine()</text></g><!--class AddManagerUI--><g id="elem_AddManagerUI"><rect codeLine="8" fill="#F1F1F1" height="42.6211" id="AddManagerUI" rx="1.25" ry="1.25" style="stroke:#181818;stroke-width:0.25;" width="62.5" x="176.5" y="107.5"/><ellipse cx="184" cy="115.5" fill="#ADD1B2" rx="5.5" ry="5.5" style="stroke:#181818;stroke-width:0.5;"/><path d="M185.3828,113.4375 Q185.4609,113.3281 185.5547,113.2734 Q185.6484,113.2188 185.7578,113.2188 Q185.9453,113.2188 186.0625,113.3516 Q186.1797,113.4766 186.1797,113.7813 L186.1797,114.5078 Q186.1797,114.8125 186.0625,114.9453 Q185.9453,115.0781 185.7578,115.0781 Q185.5859,115.0781 185.4844,114.9766 Q185.3828,114.8828 185.3281,114.625 Q185.3047,114.4453 185.2109,114.3516 Q185.0469,114.1641 184.7422,114.0547 Q184.4375,113.9453 184.125,113.9453 Q183.7422,113.9453 183.4219,114.1094 Q183.1094,114.2734 182.8594,114.6484 Q182.6172,115.0234 182.6172,115.5391 L182.6172,116.0859 Q182.6172,116.7031 183.0625,117.1172 Q183.5078,117.5234 184.3047,117.5234 Q184.7734,117.5234 185.1016,117.3984 Q185.2969,117.3203 185.5078,117.1016 Q185.6406,116.9688 185.7109,116.9297 Q185.7891,116.8906 185.8906,116.8906 Q186.0547,116.8906 186.1797,117.0234 Q186.3125,117.1484 186.3125,117.3203 Q186.3125,117.4922 186.1406,117.6953 Q185.8906,117.9844 185.4922,118.1484 Q184.9531,118.375 184.3047,118.375 Q183.5469,118.375 182.9453,118.0625 Q182.4531,117.8125 182.1094,117.2813 Q181.7656,116.7422 181.7656,116.1016 L181.7656,115.5234 Q181.7656,114.8594 182.0703,114.2891 Q182.3828,113.7109 182.9297,113.4063 Q183.4766,113.0938 184.0938,113.0938 Q184.4609,113.0938 184.7813,113.1797 Q185.1094,113.2578 185.3828,113.4375 Z " fill="#000000"/><text fill="#000000" font-family="sans-serif" font-size="7" lengthAdjust="spacing" textLength="46.5" x="191" y="118.3984">AddManagerUI</text><line style="stroke:#181818;stroke-width:0.25;" x1="177" x2="238.5" y1="123.5" y2="123.5"/><line style="stroke:#181818;stroke-width:0.25;" x1="177" x2="238.5" y1="127.5" y2="127.5"/><ellipse cx="182" cy="134.9053" fill="#84BE84" rx="1.5" ry="1.5" style="stroke:#038048;stroke-width:0.5;"/><text fill="#000000" font-family="sans-serif" font-size="7" lengthAdjust="spacing" textLength="30" x="186.5" y="137.0537">doShow()</text><ellipse cx="182" cy="144.2158" fill="#84BE84" rx="1.5" ry="1.5" style="stroke:#038048;stroke-width:0.5;"/><text fill="#000000" font-family="sans-serif" font-size="7" lengthAdjust="spacing" textLength="34.5" x="186.5" y="146.3643">headLine()</text></g><!--class AddStudentUI--><g id="elem_AddStudentUI"><rect codeLine="13" fill="#F1F1F1" height="42.6211" id="AddStudentUI" rx="1.25" ry="1.25" style="stroke:#181818;stroke-width:0.25;" width="59" x="256.75" y="107.5"/><ellipse cx="264.25" cy="115.5" fill="#ADD1B2" rx="5.5" ry="5.5" style="stroke:#181818;stroke-width:0.5;"/><path d="M265.6328,113.4375 Q265.7109,113.3281 265.8047,113.2734 Q265.8984,113.2188 266.0078,113.2188 Q266.1953,113.2188 266.3125,113.3516 Q266.4297,113.4766 266.4297,113.7813 L266.4297,114.5078 Q266.4297,114.8125 266.3125,114.9453 Q266.1953,115.0781 266.0078,115.0781 Q265.8359,115.0781 265.7344,114.9766 Q265.6328,114.8828 265.5781,114.625 Q265.5547,114.4453 265.4609,114.3516 Q265.2969,114.1641 264.9922,114.0547 Q264.6875,113.9453 264.375,113.9453 Q263.9922,113.9453 263.6719,114.1094 Q263.3594,114.2734 263.1094,114.6484 Q262.8672,115.0234 262.8672,115.5391 L262.8672,116.0859 Q262.8672,116.7031 263.3125,117.1172 Q263.7578,117.5234 264.5547,117.5234 Q265.0234,117.5234 265.3516,117.3984 Q265.5469,117.3203 265.7578,117.1016 Q265.8906,116.9688 265.9609,116.9297 Q266.0391,116.8906 266.1406,116.8906 Q266.3047,116.8906 266.4297,117.0234 Q266.5625,117.1484 266.5625,117.3203 Q266.5625,117.4922 266.3906,117.6953 Q266.1406,117.9844 265.7422,118.1484 Q265.2031,118.375 264.5547,118.375 Q263.7969,118.375 263.1953,118.0625 Q262.7031,117.8125 262.3594,117.2813 Q262.0156,116.7422 262.0156,116.1016 L262.0156,115.5234 Q262.0156,114.8594 262.3203,114.2891 Q262.6328,113.7109 263.1797,113.4063 Q263.7266,113.0938 264.3438,113.0938 Q264.7109,113.0938 265.0313,113.1797 Q265.3594,113.2578 265.6328,113.4375 Z " fill="#000000"/><text fill="#000000" font-family="sans-serif" font-size="7" lengthAdjust="spacing" textLength="43" x="271.25" y="118.3984">AddStudentUI</text><line style="stroke:#181818;stroke-width:0.25;" x1="257.25" x2="315.25" y1="123.5" y2="123.5"/><line style="stroke:#181818;stroke-width:0.25;" x1="257.25" x2="315.25" y1="127.5" y2="127.5"/><ellipse cx="262.25" cy="134.9053" fill="#84BE84" rx="1.5" ry="1.5" style="stroke:#038048;stroke-width:0.5;"/><text fill="#000000" font-family="sans-serif" font-size="7" lengthAdjust="spacing" textLength="30" x="266.75" y="137.0537">doShow()</text><ellipse cx="262.25" cy="144.2158" fill="#84BE84" rx="1.5" ry="1.5" style="stroke:#038048;stroke-width:0.5;"/><text fill="#000000" font-family="sans-serif" font-size="7" lengthAdjust="spacing" textLength="34.5" x="266.75" y="146.3643">headLine()</text></g><!--class AddTeacherUI--><g id="elem_AddTeacherUI"><rect codeLine="18" fill="#F1F1F1" height="42.6211" id="AddTeacherUI" rx="1.25" ry="1.25" style="stroke:#181818;stroke-width:0.25;" width="61" x="333.25" y="107.5"/><ellipse cx="340.75" cy="115.5" fill="#ADD1B2" rx="5.5" ry="5.5" style="stroke:#181818;stroke-width:0.5;"/><path d="M342.1328,113.4375 Q342.2109,113.3281 342.3047,113.2734 Q342.3984,113.2188 342.5078,113.2188 Q342.6953,113.2188 342.8125,113.3516 Q342.9297,113.4766 342.9297,113.7813 L342.9297,114.5078 Q342.9297,114.8125 342.8125,114.9453 Q342.6953,115.0781 342.5078,115.0781 Q342.3359,115.0781 342.2344,114.9766 Q342.1328,114.8828 342.0781,114.625 Q342.0547,114.4453 341.9609,114.3516 Q341.7969,114.1641 341.4922,114.0547 Q341.1875,113.9453 340.875,113.9453 Q340.4922,113.9453 340.1719,114.1094 Q339.8594,114.2734 339.6094,114.6484 Q339.3672,115.0234 339.3672,115.5391 L339.3672,116.0859 Q339.3672,116.7031 339.8125,117.1172 Q340.2578,117.5234 341.0547,117.5234 Q341.5234,117.5234 341.8516,117.3984 Q342.0469,117.3203 342.2578,117.1016 Q342.3906,116.9688 342.4609,116.9297 Q342.5391,116.8906 342.6406,116.8906 Q342.8047,116.8906 342.9297,117.0234 Q343.0625,117.1484 343.0625,117.3203 Q343.0625,117.4922 342.8906,117.6953 Q342.6406,117.9844 342.2422,118.1484 Q341.7031,118.375 341.0547,118.375 Q340.2969,118.375 339.6953,118.0625 Q339.2031,117.8125 338.8594,117.2813 Q338.5156,116.7422 338.5156,116.1016 L338.5156,115.5234 Q338.5156,114.8594 338.8203,114.2891 Q339.1328,113.7109 339.6797,113.4063 Q340.2266,113.0938 340.8438,113.0938 Q341.2109,113.0938 341.5313,113.1797 Q341.8594,113.2578 342.1328,113.4375 Z " fill="#000000"/><text fill="#000000" font-family="sans-serif" font-size="7" lengthAdjust="spacing" textLength="45" x="347.75" y="118.3984">AddTeacherUI</text><line style="stroke:#181818;stroke-width:0.25;" x1="333.75" x2="393.75" y1="123.5" y2="123.5"/><line style="stroke:#181818;stroke-width:0.25;" x1="333.75" x2="393.75" y1="127.5" y2="127.5"/><ellipse cx="338.75" cy="134.9053" fill="#84BE84" rx="1.5" ry="1.5" style="stroke:#038048;stroke-width:0.5;"/><text fill="#000000" font-family="sans-serif" font-size="7" lengthAdjust="spacing" textLength="30" x="343.25" y="137.0537">doShow()</text><ellipse cx="338.75" cy="144.2158" fill="#84BE84" rx="1.5" ry="1.5" style="stroke:#038048;stroke-width:0.5;"/><text fill="#000000" font-family="sans-serif" font-size="7" lengthAdjust="spacing" textLength="34.5" x="343.25" y="146.3643">headLine()</text></g><!--class AddTeacherController--><g id="elem_AddTeacherController"><rect codeLine="23" fill="#F1F1F1" height="33.3105" id="AddTeacherController" rx="1.25" ry="1.25" style="stroke:#181818;stroke-width:0.25;" width="268.5" x="229.5" y="211.5"/><ellipse cx="326.625" cy="219.5" fill="#ADD1B2" rx="5.5" ry="5.5" style="stroke:#181818;stroke-width:0.5;"/><path d="M328.0078,217.4375 Q328.0859,217.3281 328.1797,217.2734 Q328.2734,217.2188 328.3828,217.2188 Q328.5703,217.2188 328.6875,217.3516 Q328.8047,217.4766 328.8047,217.7813 L328.8047,218.5078 Q328.8047,218.8125 328.6875,218.9453 Q328.5703,219.0781 328.3828,219.0781 Q328.2109,219.0781 328.1094,218.9766 Q328.0078,218.8828 327.9531,218.625 Q327.9297,218.4453 327.8359,218.3516 Q327.6719,218.1641 327.3672,218.0547 Q327.0625,217.9453 326.75,217.9453 Q326.3672,217.9453 326.0469,218.1094 Q325.7344,218.2734 325.4844,218.6484 Q325.2422,219.0234 325.2422,219.5391 L325.2422,220.0859 Q325.2422,220.7031 325.6875,221.1172 Q326.1328,221.5234 326.9297,221.5234 Q327.3984,221.5234 327.7266,221.3984 Q327.9219,221.3203 328.1328,221.1016 Q328.2656,220.9688 328.3359,220.9297 Q328.4141,220.8906 328.5156,220.8906 Q328.6797,220.8906 328.8047,221.0234 Q328.9375,221.1484 328.9375,221.3203 Q328.9375,221.4922 328.7656,221.6953 Q328.5156,221.9844 328.1172,222.1484 Q327.5781,222.375 326.9297,222.375 Q326.1719,222.375 325.5703,222.0625 Q325.0781,221.8125 324.7344,221.2813 Q324.3906,220.7422 324.3906,220.1016 L324.3906,219.5234 Q324.3906,218.8594 324.6953,218.2891 Q325.0078,217.7109 325.5547,217.4063 Q326.1016,217.0938 326.7188,217.0938 Q327.0859,217.0938 327.4063,217.1797 Q327.7344,217.2578 328.0078,217.4375 Z " fill="#000000"/><text fill="#000000" font-family="sans-serif" font-size="7" lengthAdjust="spacing" textLength="70" x="336.875" y="222.3984">AddTeacherController</text><line style="stroke:#181818;stroke-width:0.25;" x1="230" x2="497.5" y1="227.5" y2="227.5"/><line style="stroke:#181818;stroke-width:0.25;" x1="230" x2="497.5" y1="231.5" y2="231.5"/><ellipse cx="235" cy="238.9053" fill="#84BE84" rx="1.5" ry="1.5" style="stroke:#038048;stroke-width:0.5;"/><text fill="#000000" font-family="sans-serif" font-size="7" lengthAdjust="spacing" textLength="255.5" x="239.5" y="241.0537">Teacher :addTeacher(username, password, firstName,lastName, email, acronym)</text></g><!--class UserManagementService--><g id="elem_UserManagementService"><rect codeLine="27" fill="#F1F1F1" height="33.3105" id="UserManagementService" rx="1.25" ry="1.25" style="stroke:#181818;stroke-width:0.25;" width="263.5" x="3.5" y="293.75"/><ellipse cx="93.625" cy="301.75" fill="#ADD1B2" rx="5.5" ry="5.5" style="stroke:#181818;stroke-width:0.5;"/><path d="M95.0078,299.6875 Q95.0859,299.5781 95.1797,299.5234 Q95.2734,299.4688 95.3828,299.4688 Q95.5703,299.4688 95.6875,299.6016 Q95.8047,299.7266 95.8047,300.0313 L95.8047,300.7578 Q95.8047,301.0625 95.6875,301.1953 Q95.5703,301.3281 95.3828,301.3281 Q95.2109,301.3281 95.1094,301.2266 Q95.0078,301.1328 94.9531,300.875 Q94.9297,300.6953 94.8359,300.6016 Q94.6719,300.4141 94.3672,300.3047 Q94.0625,300.1953 93.75,300.1953 Q93.3672,300.1953 93.0469,300.3594 Q92.7344,300.5234 92.4844,300.8984 Q92.2422,301.2734 92.2422,301.7891 L92.2422,302.3359 Q92.2422,302.9531 92.6875,303.3672 Q93.1328,303.7734 93.9297,303.7734 Q94.3984,303.7734 94.7266,303.6484 Q94.9219,303.5703 95.1328,303.3516 Q95.2656,303.2188 95.3359,303.1797 Q95.4141,303.1406 95.5156,303.1406 Q95.6797,303.1406 95.8047,303.2734 Q95.9375,303.3984 95.9375,303.5703 Q95.9375,303.7422 95.7656,303.9453 Q95.5156,304.2344 95.1172,304.3984 Q94.5781,304.625 93.9297,304.625 Q93.1719,304.625 92.5703,304.3125 Q92.0781,304.0625 91.7344,303.5313 Q91.3906,302.9922 91.3906,302.3516 L91.3906,301.7734 Q91.3906,301.1094 91.6953,300.5391 Q92.0078,299.9609 92.5547,299.6563 Q93.1016,299.3438 93.7188,299.3438 Q94.0859,299.3438 94.4063,299.4297 Q94.7344,299.5078 95.0078,299.6875 Z " fill="#000000"/><text fill="#000000" font-family="sans-serif" font-size="7" lengthAdjust="spacing" textLength="79" x="103.875" y="304.6484">UserManagementService</text><line style="stroke:#181818;stroke-width:0.25;" x1="4" x2="266.5" y1="309.75" y2="309.75"/><line style="stroke:#181818;stroke-width:0.25;" x1="4" x2="266.5" y1="313.75" y2="313.75"/><ellipse cx="9" cy="321.1553" fill="#84BE84" rx="1.5" ry="1.5" style="stroke:#038048;stroke-width:0.5;"/><text fill="#000000" font-family="sans-serif" font-size="7" lengthAdjust="spacing" textLength="250.5" x="13.5" y="323.3037">SystemUser : registerNewUser(username, password, firstName,lastName, email)</text></g><!--class TeacherBuilder--><g id="elem_TeacherBuilder"><rect codeLine="31" fill="#F1F1F1" height="51.9316" id="TeacherBuilder" rx="1.25" ry="1.25" style="stroke:#181818;stroke-width:0.25;" width="158.5" x="284.5" y="284.5"/><ellipse cx="337.375" cy="292.5" fill="#ADD1B2" rx="5.5" ry="5.5" style="stroke:#181818;stroke-width:0.5;"/><path d="M338.7578,290.4375 Q338.8359,290.3281 338.9297,290.2734 Q339.0234,290.2188 339.1328,290.2188 Q339.3203,290.2188 339.4375,290.3516 Q339.5547,290.4766 339.5547,290.7813 L339.5547,291.5078 Q339.5547,291.8125 339.4375,291.9453 Q339.3203,292.0781 339.1328,292.0781 Q338.9609,292.0781 338.8594,291.9766 Q338.7578,291.8828 338.7031,291.625 Q338.6797,291.4453 338.5859,291.3516 Q338.4219,291.1641 338.1172,291.0547 Q337.8125,290.9453 337.5,290.9453 Q337.1172,290.9453 336.7969,291.1094 Q336.4844,291.2734 336.2344,291.6484 Q335.9922,292.0234 335.9922,292.5391 L335.9922,293.0859 Q335.9922,293.7031 336.4375,294.1172 Q336.8828,294.5234 337.6797,294.5234 Q338.1484,294.5234 338.4766,294.3984 Q338.6719,294.3203 338.8828,294.1016 Q339.0156,293.9688 339.0859,293.9297 Q339.1641,293.8906 339.2656,293.8906 Q339.4297,293.8906 339.5547,294.0234 Q339.6875,294.1484 339.6875,294.3203 Q339.6875,294.4922 339.5156,294.6953 Q339.2656,294.9844 338.8672,295.1484 Q338.3281,295.375 337.6797,295.375 Q336.9219,295.375 336.3203,295.0625 Q335.8281,294.8125 335.4844,294.2813 Q335.1406,293.7422 335.1406,293.1016 L335.1406,292.5234 Q335.1406,291.8594 335.4453,291.2891 Q335.7578,290.7109 336.3047,290.4063 Q336.8516,290.0938 337.4688,290.0938 Q337.8359,290.0938 338.1563,290.1797 Q338.4844,290.2578 338.7578,290.4375 Z " fill="#000000"/><text fill="#000000" font-family="sans-serif" font-size="7" lengthAdjust="spacing" textLength="48.5" x="347.625" y="295.3984">TeacherBuilder</text><line style="stroke:#181818;stroke-width:0.25;" x1="285" x2="442.5" y1="300.5" y2="300.5"/><line style="stroke:#181818;stroke-width:0.25;" x1="285" x2="442.5" y1="304.5" y2="304.5"/><ellipse cx="290" cy="311.9053" fill="#84BE84" rx="1.5" ry="1.5" style="stroke:#038048;stroke-width:0.5;"/><text fill="#000000" font-family="sans-serif" font-size="7" lengthAdjust="spacing" textLength="145.5" x="294.5" y="314.0537">TeacherBuilder : withSystemUser(systemUser)</text><ellipse cx="290" cy="321.2158" fill="#84BE84" rx="1.5" ry="1.5" style="stroke:#038048;stroke-width:0.5;"/><text fill="#000000" font-family="sans-serif" font-size="7" lengthAdjust="spacing" textLength="126" x="294.5" y="323.3643">TeacherBuilder : withAcronym(acronym)</text><ellipse cx="290" cy="330.5264" fill="#84BE84" rx="1.5" ry="1.5" style="stroke:#038048;stroke-width:0.5;"/><text fill="#000000" font-family="sans-serif" font-size="7" lengthAdjust="spacing" textLength="52.5" x="294.5" y="332.6748">Teacher : build()</text></g><!--class Teacher--><g id="elem_Teacher"><rect codeLine="37" fill="#F1F1F1" height="42.6211" id="Teacher" rx="1.25" ry="1.25" style="stroke:#181818;stroke-width:0.25;" width="93" x="317.25" y="376"/><ellipse cx="348.375" cy="384" fill="#ADD1B2" rx="5.5" ry="5.5" style="stroke:#181818;stroke-width:0.5;"/><path d="M349.7578,381.9375 Q349.8359,381.8281 349.9297,381.7734 Q350.0234,381.7188 350.1328,381.7188 Q350.3203,381.7188 350.4375,381.8516 Q350.5547,381.9766 350.5547,382.2813 L350.5547,383.0078 Q350.5547,383.3125 350.4375,383.4453 Q350.3203,383.5781 350.1328,383.5781 Q349.9609,383.5781 349.8594,383.4766 Q349.7578,383.3828 349.7031,383.125 Q349.6797,382.9453 349.5859,382.8516 Q349.4219,382.6641 349.1172,382.5547 Q348.8125,382.4453 348.5,382.4453 Q348.1172,382.4453 347.7969,382.6094 Q347.4844,382.7734 347.2344,383.1484 Q346.9922,383.5234 346.9922,384.0391 L346.9922,384.5859 Q346.9922,385.2031 347.4375,385.6172 Q347.8828,386.0234 348.6797,386.0234 Q349.1484,386.0234 349.4766,385.8984 Q349.6719,385.8203 349.8828,385.6016 Q350.0156,385.4688 350.0859,385.4297 Q350.1641,385.3906 350.2656,385.3906 Q350.4297,385.3906 350.5547,385.5234 Q350.6875,385.6484 350.6875,385.8203 Q350.6875,385.9922 350.5156,386.1953 Q350.2656,386.4844 349.8672,386.6484 Q349.3281,386.875 348.6797,386.875 Q347.9219,386.875 347.3203,386.5625 Q346.8281,386.3125 346.4844,385.7813 Q346.1406,385.2422 346.1406,384.6016 L346.1406,384.0234 Q346.1406,383.3594 346.4453,382.7891 Q346.7578,382.2109 347.3047,381.9063 Q347.8516,381.5938 348.4688,381.5938 Q348.8359,381.5938 349.1563,381.6797 Q349.4844,381.7578 349.7578,381.9375 Z " fill="#000000"/><text fill="#000000" font-family="sans-serif" font-size="7" lengthAdjust="spacing" textLength="26.5" x="358.625" y="386.8984">Teacher</text><line style="stroke:#181818;stroke-width:0.25;" x1="317.75" x2="409.75" y1="392" y2="392"/><rect fill="none" height="3" style="stroke:#C82930;stroke-width:0.5;" width="3" x="321.25" y="397.9053"/><text fill="#000000" font-family="sans-serif" font-size="7" lengthAdjust="spacing" textLength="80" x="327.25" y="401.5537">SystemUser : systemUser</text><rect fill="none" height="3" style="stroke:#C82930;stroke-width:0.5;" width="3" x="321.25" y="407.2158"/><text fill="#000000" font-family="sans-serif" font-size="7" lengthAdjust="spacing" textLength="60.5" x="327.25" y="410.8643">Acronym : acronym</text><line style="stroke:#181818;stroke-width:0.25;" x1="317.75" x2="409.75" y1="414.6211" y2="414.6211"/></g><!--class TeacherRepository--><g id="elem_TeacherRepository"><rect codeLine="42" fill="#F1F1F1" height="33.3105" id="TeacherRepository" rx="1.25" ry="1.25" style="stroke:#181818;stroke-width:0.25;" width="76.5" x="460.5" y="293.75"/><ellipse cx="468" cy="301.75" fill="#ADD1B2" rx="5.5" ry="5.5" style="stroke:#181818;stroke-width:0.5;"/><path d="M469.3828,299.6875 Q469.4609,299.5781 469.5547,299.5234 Q469.6484,299.4688 469.7578,299.4688 Q469.9453,299.4688 470.0625,299.6016 Q470.1797,299.7266 470.1797,300.0313 L470.1797,300.7578 Q470.1797,301.0625 470.0625,301.1953 Q469.9453,301.3281 469.7578,301.3281 Q469.5859,301.3281 469.4844,301.2266 Q469.3828,301.1328 469.3281,300.875 Q469.3047,300.6953 469.2109,300.6016 Q469.0469,300.4141 468.7422,300.3047 Q468.4375,300.1953 468.125,300.1953 Q467.7422,300.1953 467.4219,300.3594 Q467.1094,300.5234 466.8594,300.8984 Q466.6172,301.2734 466.6172,301.7891 L466.6172,302.3359 Q466.6172,302.9531 467.0625,303.3672 Q467.5078,303.7734 468.3047,303.7734 Q468.7734,303.7734 469.1016,303.6484 Q469.2969,303.5703 469.5078,303.3516 Q469.6406,303.2188 469.7109,303.1797 Q469.7891,303.1406 469.8906,303.1406 Q470.0547,303.1406 470.1797,303.2734 Q470.3125,303.3984 470.3125,303.5703 Q470.3125,303.7422 470.1406,303.9453 Q469.8906,304.2344 469.4922,304.3984 Q468.9531,304.625 468.3047,304.625 Q467.5469,304.625 466.9453,304.3125 Q466.4531,304.0625 466.1094,303.5313 Q465.7656,302.9922 465.7656,302.3516 L465.7656,301.7734 Q465.7656,301.1094 466.0703,300.5391 Q466.3828,299.9609 466.9297,299.6563 Q467.4766,299.3438 468.0938,299.3438 Q468.4609,299.3438 468.7813,299.4297 Q469.1094,299.5078 469.3828,299.6875 Z " fill="#000000"/><text fill="#000000" font-family="sans-serif" font-size="7" lengthAdjust="spacing" textLength="60.5" x="475" y="304.6484">TeacherRepository</text><line style="stroke:#181818;stroke-width:0.25;" x1="461" x2="536.5" y1="309.75" y2="309.75"/><line style="stroke:#181818;stroke-width:0.25;" x1="461" x2="536.5" y1="313.75" y2="313.75"/><ellipse cx="466" cy="321.1553" fill="#84BE84" rx="1.5" ry="1.5" style="stroke:#038048;stroke-width:0.5;"/><text fill="#000000" font-family="sans-serif" font-size="7" lengthAdjust="spacing" textLength="20" x="470.5" y="323.3037">save()</text></g><!--link RegisterUserUI to AddManagerUI--><g id="link_RegisterUserUI_AddManagerUI"><path codeLine="46" d="M270.365,46.095 C257.275,63.265 238.74,87.585 225.235,105.31 " fill="none" id="RegisterUserUI-to-AddManagerUI" style="stroke:#181818;stroke-width:0.5;stroke-dasharray:7.0,7.0;"/><polygon fill="#181818" points="223.61,107.435,227.925,105.062,225.1225,105.4445,224.7401,102.642,223.61,107.435" style="stroke:#181818;stroke-width:0.5;"/></g><!--link RegisterUserUI to AddTeacherUI--><g id="link_RegisterUserUI_AddTeacherUI"><path codeLine="47" d="M301.935,46.095 C314.855,63.265 333.155,87.585 346.49,105.31 " fill="none" id="RegisterUserUI-to-AddTeacherUI" style="stroke:#181818;stroke-width:0.5;stroke-dasharray:7.0,7.0;"/><polygon fill="#181818" points="348.09,107.435,346.9818,102.6369,346.5866,105.4376,343.7859,105.0424,348.09,107.435" style="stroke:#181818;stroke-width:0.5;"/></g><!--link RegisterUserUI to AddStudentUI--><g id="link_RegisterUserUI_AddStudentUI"><path codeLine="48" d="M286.25,46.095 C286.25,63.125 286.25,87.19 286.25,104.875 " fill="none" id="RegisterUserUI-to-AddStudentUI" style="stroke:#181818;stroke-width:0.5;stroke-dasharray:7.0,7.0;"/><polygon fill="#181818" points="286.25,107.435,288.25,102.935,286.25,104.935,284.25,102.935,286.25,107.435" style="stroke:#181818;stroke-width:0.5;"/></g><!--link AddTeacherUI to AddTeacherController--><g id="link_AddTeacherUI_AddTeacherController"><path codeLine="49" d="M363.75,150.14 C363.75,167.505 363.75,192.015 363.75,208.815 " fill="none" id="AddTeacherUI-to-AddTeacherController" style="stroke:#181818;stroke-width:0.5;stroke-dasharray:7.0,7.0;"/><polygon fill="#181818" points="363.75,211.445,365.75,206.945,363.75,208.945,361.75,206.945,363.75,211.445" style="stroke:#181818;stroke-width:0.5;"/></g><!--link AddTeacherController to UserManagementService--><g id="link_AddTeacherController_UserManagementService"><path codeLine="50" d="M317.92,245.045 C278.975,258.895 223.235,278.715 183.59,292.81 " fill="none" id="AddTeacherController-to-UserManagementService" style="stroke:#181818;stroke-width:0.5;"/><polygon fill="#181818" points="181,293.73,185.9096,294.1113,183.3563,292.8946,184.573,290.3412,181,293.73" style="stroke:#181818;stroke-width:0.5;"/></g><!--link AddTeacherController to TeacherBuilder--><g id="link_AddTeacherController_TeacherBuilder"><path codeLine="51" d="M363.75,245.19 C363.75,255.71 363.75,269.635 363.75,281.875 " fill="none" id="AddTeacherController-to-TeacherBuilder" style="stroke:#181818;stroke-width:0.5;"/><polygon fill="#181818" points="363.75,284.46,365.75,279.96,363.75,281.96,361.75,279.96,363.75,284.46" style="stroke:#181818;stroke-width:0.5;"/></g><!--link TeacherBuilder to Teacher--><g id="link_TeacherBuilder_Teacher"><path codeLine="52" d="M363.75,336.73 C363.75,348.375 363.75,362.05 363.75,373.4 " fill="none" id="TeacherBuilder-to-Teacher" style="stroke:#181818;stroke-width:0.5;"/><polygon fill="#181818" points="363.75,375.93,365.75,371.43,363.75,373.43,361.75,371.43,363.75,375.93" style="stroke:#181818;stroke-width:0.5;"/><polygon fill="#000000" points="366.25,358.8228,367.7195,354.3002,364.7805,354.3002,366.25,358.8228" style="stroke:#000000;stroke-width:0.5;"/><text fill="#000000" font-family="sans-serif" font-size="6.5" lengthAdjust="spacing" textLength="21.5" x="370.75" y="359.0142">creates</text></g><!--link AddTeacherController to TeacherRepository--><g id="link_AddTeacherController_TeacherRepository"><path codeLine="53" d="M390.905,245.095 C413.655,258.785 446.065,278.29 469.405,292.34 " fill="none" id="AddTeacherController-to-TeacherRepository" style="stroke:#181818;stroke-width:0.5;"/><polygon fill="#181818" points="471.635,293.68,468.8112,289.6456,469.4932,292.3906,466.7482,293.0726,471.635,293.68" style="stroke:#181818;stroke-width:0.5;"/><text fill="#000000" font-family="sans-serif" font-size="6.5" lengthAdjust="spacing" textLength="20.5" x="431.75" y="267.5142">saves()</text></g><!--SRC=[bLBBReCm4BpxA_O82l01EI2bFLLgSmZj1xZsDbW27Dac25Nzzzh1Ce-4gY0XsUkP7SzuMKMrXXEUXJQeFhJzNxu9s6_7PL7ABeg7NOcKlue6xVw74C9kl0FdRxIXvt-o0gamBSV6R2Ez8sNbLYLFUfQDKRAgK7cohyEU1apKMlSDhJ61YsLtKl44leJIvkYAjkEm0Aofg1AWJCcchoTwBhuXZzgwAr1T1KClMFGsuDeXO0_Avtt4pbMsAKy4_SsVMb7nfJLVj6gTCEKe7-cmZFyW70PtKN0vZmq-7Tg5xUgB-mmNIMUMHzNXqFUt9rxXpjK9Br8B8rL_wxVJzEfVTpwka6LPFXl5DK2Oe3L0c4ioHI_vup2HHqL8q_pnAAp2voz05W_Y-et1CuNKe8PyNVmkG9U_JKz7yIy0]--></g></svg>