<?xml version="1.0" encoding="us-ascii" standalone="no"?><svg xmlns="http://www.w3.org/2000/svg" xmlns:xlink="http://www.w3.org/1999/xlink" contentStyleType="text/css" height="421.8px" preserveAspectRatio="none" style="width:766px;height:421px;background:#FFFFFF;" version="1.1" viewBox="0 0 766 421" width="766.2px" zoomAndPan="magnify"><defs/><g><rect fill="#FFFFFF" height="278.7938" style="stroke:#181818;stroke-width:0.6;" width="6" x="195" y="72.9199"/><rect fill="#FFFFFF" height="201.7207" style="stroke:#181818;stroke-width:0.6;" width="6" x="367.2" y="149.993"/><rect fill="#FFFFFF" height="41.1492" style="stroke:#181818;stroke-width:0.6;" width="6" x="556.2" y="179.1422"/><rect fill="#FFFFFF" height="18.7746" style="stroke:#181818;stroke-width:0.6;" width="6" x="647.1" y="295.3898"/><line style="stroke:#181818;stroke-width:0.3;stroke-dasharray:5.0,5.0;" x1="21.6" x2="21.6" y1="52.9453" y2="362.5137"/><line style="stroke:#181818;stroke-width:0.3;stroke-dasharray:5.0,5.0;" x1="197.7" x2="197.7" y1="52.9453" y2="362.5137"/><line style="stroke:#181818;stroke-width:0.3;stroke-dasharray:5.0,5.0;" x1="370.2" x2="370.2" y1="52.9453" y2="362.5137"/><line style="stroke:#181818;stroke-width:0.3;stroke-dasharray:5.0,5.0;" x1="559.2" x2="559.2" y1="52.9453" y2="362.5137"/><line style="stroke:#181818;stroke-width:0.3;stroke-dasharray:5.0,5.0;" x1="649.8" x2="649.8" y1="52.9453" y2="362.5137"/><line style="stroke:#181818;stroke-width:0.3;stroke-dasharray:5.0,5.0;" x1="727.2" x2="727.2" y1="52.9453" y2="362.5137"/><text fill="#000000" font-family="sans-serif" font-size="8.4" lengthAdjust="spacing" textLength="33.6" x="3" y="50.8371">Manager</text><ellipse cx="21.6" cy="10.8727" fill="#E2E2F0" rx="4.8" ry="4.8" style="stroke:#181818;stroke-width:0.3;"/><path d="M21.6,15.6727 L21.6,31.8727 M13.8,20.4727 L29.4,20.4727 M21.6,31.8727 L13.8,40.8727 M21.6,31.8727 L29.4,40.8727 " fill="none" style="stroke:#181818;stroke-width:0.3;"/><text fill="#000000" font-family="sans-serif" font-size="8.4" lengthAdjust="spacing" textLength="33.6" x="3" y="370.9781">Manager</text><ellipse cx="21.6" cy="378.1863" fill="#E2E2F0" rx="4.8" ry="4.8" style="stroke:#181818;stroke-width:0.3;"/><path d="M21.6,382.9863 L21.6,399.1863 M13.8,387.7863 L29.4,387.7863 M21.6,399.1863 L13.8,408.1863 M21.6,399.1863 L29.4,408.1863 " fill="none" style="stroke:#181818;stroke-width:0.3;"/><rect fill="#E2E2F0" height="30.7453" rx="1.5" ry="1.5" style="stroke:#181818;stroke-width:0.3;" width="65.4" x="165.3" y="21.6"/><text fill="#000000" font-family="sans-serif" font-size="8.4" font-style="italic" lengthAdjust="spacing" textLength="57" x="169.5" y="34.8645">&#171;presentation&#187;</text><text fill="#000000" font-family="sans-serif" font-size="8.4" lengthAdjust="spacing" textLength="54" x="171" y="46.0371">AddTeacherUI</text><rect fill="#E2E2F0" height="30.7453" rx="1.5" ry="1.5" style="stroke:#181818;stroke-width:0.3;" width="65.4" x="165.3" y="361.9137"/><text fill="#000000" font-family="sans-serif" font-size="8.4" font-style="italic" lengthAdjust="spacing" textLength="57" x="169.5" y="375.1781">&#171;presentation&#187;</text><text fill="#000000" font-family="sans-serif" font-size="8.4" lengthAdjust="spacing" textLength="54" x="171" y="386.3508">AddTeacherUI</text><text fill="#000000" font-family="sans-serif" font-size="8.4" font-style="italic" lengthAdjust="spacing" textLength="50.4" x="343.2" y="39.6645">&#171;application&#187;</text><text fill="#000000" font-family="sans-serif" font-size="8.4" lengthAdjust="spacing" textLength="84" x="326.4" y="50.8371">AddTeacherController</text><ellipse cx="370.2" cy="21" fill="#E2E2F0" rx="7.2" ry="7.2" style="stroke:#181818;stroke-width:0.3;"/><polygon fill="#181818" points="367.8,13.8,371.4,10.8,370.2,13.8,371.4,16.8,367.8,13.8" style="stroke:#181818;stroke-width:0.6;"/><text fill="#000000" font-family="sans-serif" font-size="8.4" font-style="italic" lengthAdjust="spacing" textLength="50.4" x="343.2" y="370.9781">&#171;application&#187;</text><text fill="#000000" font-family="sans-serif" font-size="8.4" lengthAdjust="spacing" textLength="84" x="326.4" y="382.1508">AddTeacherController</text><ellipse cx="370.2" cy="393.859" fill="#E2E2F0" rx="7.2" ry="7.2" style="stroke:#181818;stroke-width:0.3;"/><polygon fill="#181818" points="367.8,386.659,371.4,383.659,370.2,386.659,371.4,389.659,367.8,386.659" style="stroke:#181818;stroke-width:0.6;"/><rect fill="#E2E2F0" height="30.7453" rx="1.5" ry="1.5" style="stroke:#181818;stroke-width:0.3;" width="103.2" x="507.6" y="21.6"/><text fill="#000000" font-family="sans-serif" font-size="8.4" font-style="italic" lengthAdjust="spacing" textLength="36" x="541.2" y="34.8645">&#171;service&#187;</text><text fill="#000000" font-family="sans-serif" font-size="8.4" lengthAdjust="spacing" textLength="94.8" x="511.8" y="46.0371">UserManagementService</text><rect fill="#E2E2F0" height="30.7453" rx="1.5" ry="1.5" style="stroke:#181818;stroke-width:0.3;" width="103.2" x="507.6" y="361.9137"/><text fill="#000000" font-family="sans-serif" font-size="8.4" font-style="italic" lengthAdjust="spacing" textLength="36" x="541.2" y="375.1781">&#171;service&#187;</text><text fill="#000000" font-family="sans-serif" font-size="8.4" lengthAdjust="spacing" textLength="94.8" x="511.8" y="386.3508">UserManagementService</text><rect fill="#E2E2F0" height="30.7453" rx="1.5" ry="1.5" style="stroke:#181818;stroke-width:0.3;" width="66.6" x="616.8" y="21.6"/><text fill="#000000" font-family="sans-serif" font-size="8.4" font-style="italic" lengthAdjust="spacing" textLength="35.4" x="632.4" y="34.8645">&#171;factory&#187;</text><text fill="#000000" font-family="sans-serif" font-size="8.4" lengthAdjust="spacing" textLength="58.2" x="621" y="46.0371">TeacherBuilder</text><rect fill="#E2E2F0" height="30.7453" rx="1.5" ry="1.5" style="stroke:#181818;stroke-width:0.3;" width="66.6" x="616.8" y="361.9137"/><text fill="#000000" font-family="sans-serif" font-size="8.4" font-style="italic" lengthAdjust="spacing" textLength="35.4" x="632.4" y="375.1781">&#171;factory&#187;</text><text fill="#000000" font-family="sans-serif" font-size="8.4" lengthAdjust="spacing" textLength="58.2" x="621" y="386.3508">TeacherBuilder</text><text fill="#000000" font-family="sans-serif" font-size="8.4" font-style="italic" lengthAdjust="spacing" textLength="47.4" x="702" y="39.6645">&#171;repository&#187;</text><text fill="#000000" font-family="sans-serif" font-size="8.4" lengthAdjust="spacing" textLength="72.6" x="689.4" y="50.8371">TeacherRepository</text><path d="M716.7,9 C716.7,3 727.5,3 727.5,3 C727.5,3 738.3,3 738.3,9 L738.3,24.6 C738.3,30.6 727.5,30.6 727.5,30.6 C727.5,30.6 716.7,30.6 716.7,24.6 L716.7,9 " fill="#E2E2F0" style="stroke:#181818;stroke-width:0.8999999999999999;"/><path d="M716.7,9 C716.7,15 727.5,15 727.5,15 C727.5,15 738.3,15 738.3,9 " fill="none" style="stroke:#181818;stroke-width:0.8999999999999999;"/><text fill="#000000" font-family="sans-serif" font-size="8.4" font-style="italic" lengthAdjust="spacing" textLength="47.4" x="702" y="370.9781">&#171;repository&#187;</text><text fill="#000000" font-family="sans-serif" font-size="8.4" lengthAdjust="spacing" textLength="72.6" x="689.4" y="382.1508">TeacherRepository</text><path d="M716.7,390.259 C716.7,384.259 727.5,384.259 727.5,384.259 C727.5,384.259 738.3,384.259 738.3,390.259 L738.3,405.859 C738.3,411.859 727.5,411.859 727.5,411.859 C727.5,411.859 716.7,411.859 716.7,405.859 L716.7,390.259 " fill="#E2E2F0" style="stroke:#181818;stroke-width:0.8999999999999999;"/><path d="M716.7,390.259 C716.7,396.259 727.5,396.259 727.5,396.259 C727.5,396.259 738.3,396.259 738.3,390.259 " fill="none" style="stroke:#181818;stroke-width:0.8999999999999999;"/><rect fill="#FFFFFF" height="278.7938" style="stroke:#181818;stroke-width:0.6;" width="6" x="195" y="72.9199"/><rect fill="#FFFFFF" height="201.7207" style="stroke:#181818;stroke-width:0.6;" width="6" x="367.2" y="149.993"/><rect fill="#FFFFFF" height="41.1492" style="stroke:#181818;stroke-width:0.6;" width="6" x="556.2" y="179.1422"/><rect fill="#FFFFFF" height="18.7746" style="stroke:#181818;stroke-width:0.6;" width="6" x="647.1" y="295.3898"/><polygon fill="#181818" points="187.8,70.5199,193.8,72.9199,187.8,75.3199,190.2,72.9199" style="stroke:#181818;stroke-width:0.6;"/><line style="stroke:#181818;stroke-width:0.6;" x1="21.6" x2="191.4" y1="72.9199" y2="72.9199"/><text fill="#000000" font-family="sans-serif" font-size="7.8" lengthAdjust="spacing" textLength="97.8" x="25.8" y="69.7623">wants to create new teacher</text><polygon fill="#181818" points="28.2,99.6691,22.2,102.0691,28.2,104.4691,25.8,102.0691" style="stroke:#181818;stroke-width:0.6;"/><line style="stroke:#181818;stroke-width:0.6;stroke-dasharray:2.0,2.0;" x1="24.6" x2="194.4" y1="102.0691" y2="102.0691"/><text fill="#000000" font-family="sans-serif" font-size="7.8" lengthAdjust="spacing" textLength="159" x="31.8" y="88.5369">ask for data (username, password, first name,</text><text fill="#000000" font-family="sans-serif" font-size="7.8" lengthAdjust="spacing" textLength="107.4" x="31.8" y="98.9115">last name, email and acronym)</text><polygon fill="#181818" points="187.8,118.4438,193.8,120.8438,187.8,123.2437,190.2,120.8438" style="stroke:#181818;stroke-width:0.6;"/><line style="stroke:#181818;stroke-width:0.6;" x1="21.6" x2="191.4" y1="120.8438" y2="120.8438"/><text fill="#000000" font-family="sans-serif" font-size="7.8" lengthAdjust="spacing" textLength="40.8" x="25.8" y="117.6861">inserts data</text><polygon fill="#181818" points="360,147.593,366,149.993,360,152.393,362.4,149.993" style="stroke:#181818;stroke-width:0.6;"/><line style="stroke:#181818;stroke-width:0.6;" x1="201" x2="363.6" y1="149.993" y2="149.993"/><text fill="#000000" font-family="sans-serif" font-size="7.8" lengthAdjust="spacing" textLength="154.8" x="205.2" y="136.4607">addTeacher(username, password, firstName,</text><text fill="#000000" font-family="sans-serif" font-size="7.8" lengthAdjust="spacing" textLength="115.2" x="207.6" y="146.8354">lastName, email, acronym, roles)</text><polygon fill="#181818" points="549,176.7422,555,179.1422,549,181.5422,551.4,179.1422" style="stroke:#181818;stroke-width:0.6;"/><line style="stroke:#181818;stroke-width:0.6;" x1="373.2" x2="552.6" y1="179.1422" y2="179.1422"/><text fill="#000000" font-family="sans-serif" font-size="7.8" lengthAdjust="spacing" textLength="171.6" x="377.4" y="165.61">registerNewUser(username, password, firstName,</text><text fill="#000000" font-family="sans-serif" font-size="7.8" lengthAdjust="spacing" textLength="93.6" x="379.8" y="175.9846">lastName, email, acronym)</text><path d="M565.2,186.9422 L565.2,203.1422 L746.4,203.1422 L746.4,192.9422 L740.4,186.9422 L565.2,186.9422 " fill="#FEFFDD" style="stroke:#181818;stroke-width:0.3;"/><path d="M740.4,186.9422 L740.4,192.9422 L746.4,192.9422 L740.4,186.9422 " fill="#FEFFDD" style="stroke:#181818;stroke-width:0.3;"/><text fill="#000000" font-family="sans-serif" font-size="7.8" lengthAdjust="spacing" textLength="168.6" x="568.8" y="198.3592">functionality implemented by the eapli framework</text><polygon fill="#181818" points="379.8,217.8914,373.8,220.2914,379.8,222.6914,377.4,220.2914" style="stroke:#181818;stroke-width:0.6;"/><line style="stroke:#181818;stroke-width:0.6;stroke-dasharray:2.0,2.0;" x1="376.2" x2="558.6" y1="220.2914" y2="220.2914"/><text fill="#000000" font-family="sans-serif" font-size="7.8" lengthAdjust="spacing" textLength="79.8" x="383.4" y="217.1338">system user generated</text><polygon fill="#181818" points="642.9,236.666,648.9,239.066,642.9,241.466,645.3,239.066" style="stroke:#181818;stroke-width:0.6;"/><line style="stroke:#181818;stroke-width:0.6;" x1="373.2" x2="646.5" y1="239.066" y2="239.066"/><text fill="#000000" font-family="sans-serif" font-size="7.8" lengthAdjust="spacing" textLength="26.4" x="377.4" y="235.9084">create()</text><polygon fill="#181818" points="642.9,255.4406,648.9,257.8406,642.9,260.2406,645.3,257.8406" style="stroke:#181818;stroke-width:0.6;"/><line style="stroke:#181818;stroke-width:0.6;" x1="373.2" x2="646.5" y1="257.8406" y2="257.8406"/><text fill="#000000" font-family="sans-serif" font-size="7.8" lengthAdjust="spacing" textLength="103.8" x="377.4" y="254.683">withSystemUser(systemUser)</text><polygon fill="#181818" points="642.9,274.2152,648.9,276.6152,642.9,279.0152,645.3,276.6152" style="stroke:#181818;stroke-width:0.6;"/><line style="stroke:#181818;stroke-width:0.6;" x1="373.2" x2="646.5" y1="276.6152" y2="276.6152"/><text fill="#000000" font-family="sans-serif" font-size="7.8" lengthAdjust="spacing" textLength="79.8" x="377.4" y="273.4576">withAcronym(acronym)</text><polygon fill="#181818" points="639.9,292.9898,645.9,295.3898,639.9,297.7898,642.3,295.3898" style="stroke:#181818;stroke-width:0.6;"/><line style="stroke:#181818;stroke-width:0.6;" x1="373.2" x2="643.5" y1="295.3898" y2="295.3898"/><text fill="#000000" font-family="sans-serif" font-size="7.8" lengthAdjust="spacing" textLength="21" x="377.4" y="292.2322">build()</text><polygon fill="#181818" points="379.8,311.7645,373.8,314.1645,379.8,316.5645,377.4,314.1645" style="stroke:#181818;stroke-width:0.6;"/><line style="stroke:#181818;stroke-width:0.6;stroke-dasharray:2.0,2.0;" x1="376.2" x2="649.5" y1="314.1645" y2="314.1645"/><text fill="#000000" font-family="sans-serif" font-size="7.8" lengthAdjust="spacing" textLength="54" x="383.4" y="311.0068">teacher created</text><polygon fill="#181818" points="720.3,330.5391,726.3,332.9391,720.3,335.3391,722.7,332.9391" style="stroke:#181818;stroke-width:0.6;"/><line style="stroke:#181818;stroke-width:0.6;" x1="373.2" x2="723.9" y1="332.9391" y2="332.9391"/><text fill="#000000" font-family="sans-serif" font-size="7.8" lengthAdjust="spacing" textLength="46.2" x="377.4" y="329.7814">save(teacher)</text><polygon fill="#181818" points="204.6,349.3137,198.6,351.7137,204.6,354.1137,202.2,351.7137" style="stroke:#181818;stroke-width:0.6;"/><line style="stroke:#181818;stroke-width:0.6;stroke-dasharray:2.0,2.0;" x1="201" x2="369.6" y1="351.7137" y2="351.7137"/><text fill="#000000" font-family="sans-serif" font-size="7.8" lengthAdjust="spacing" textLength="54" x="208.2" y="348.5561">teacher created</text><!--SRC=[dLHDZvim4BtpA-PM8YND7Q58QKyvD8VTpQsNYHaIQy6cjWdYttVCLqoMgBlr0PbXvhqtyso-NPshRBBTLWKgLvV5Tw7BhQK_DIb1cqpYnM0PHIYSDl0B5Lx805hO-q1KeN5Io8fhOPzbRuJYIkPqy1dyJDFAa2Nbq4cjThj8QEMCBeBSdtsaw563jpJ5gYga64j3gfCbqsif6VoLp4qAwZWNFwIfxNSFC8E47xKiifx_8PAcUTTuouKPEZoZfJ7dXIfjfVyO50R1D3NJ2vT7tS1Wi_DpIQ1XVWjEWp24Za1H0wx7yBEMDnyy7IBWnGKRhki14cPxXvntNX34DRUciAGrL6XjeqssXbmQww2B_bO5ZdkW4cK1g390ORHgorM7FrSc5IEoDWy_qUz2PrZ2PDzp_cDF3vx_UATVZznhO3YolOIfvJjD5_ShOFOQ5nrEmD15MaVcI8rF-NzTguduxiCIvvJcbzASPkJbwa3dJpNcjHB-D6CXNGkoh8ekWJ8uj-2k18HyuY7d6qUi-7r6iGowURJ6jZo54dpxS255XXl89g2CFjdKVEWFro8PJcsy-cn-8ztrjLFMcMEdxPSGzhr3yGUd_b5xzhjumTXvvcpS3o0VvZnSrc4IYnD-WhueDlXni8TuetWWM6volAnBAW85mMqAdJz4Vm40]--></g></svg>