<?xml version="1.0" encoding="us-ascii" standalone="no"?><svg xmlns="http://www.w3.org/2000/svg" xmlns:xlink="http://www.w3.org/1999/xlink" contentStyleType="text/css" height="305.9px" preserveAspectRatio="none" style="width:212px;height:305px;background:#FFFFFF;" version="1.1" viewBox="0 0 212 305" width="212.8px" zoomAndPan="magnify"><defs/><g><rect fill="#FFFFFF" height="159.626" style="stroke:#181818;stroke-width:0.6999999999999998;" width="7" x="166.95" y="81.8385"/><line style="stroke:#181818;stroke-width:0.3499999999999999;stroke-dasharray:5.0,5.0;" x1="15.4" x2="15.4" y1="58.5348" y2="247.7645"/><line style="stroke:#181818;stroke-width:0.3499999999999999;stroke-dasharray:5.0,5.0;" x1="170.1" x2="170.1" y1="58.5348" y2="247.7645"/><text fill="#000000" font-family="FG Virgil" font-size="9.8" lengthAdjust="spacing" textLength="20.3" x="3.5" y="56.0752">User</text><ellipse cx="15.75" cy="9.45" fill="#E3E3E3" rx="5.6" ry="5.6" style="stroke:#181818;stroke-width:0.3499999999999999;"/><path d="M15.75,15.05 L15.75,33.95 M6.65,20.65 L24.85,20.65 M15.75,33.95 L6.65,44.45 M15.75,33.95 L24.85,44.45 " fill="none" style="stroke:#181818;stroke-width:0.3499999999999999;"/><text fill="#000000" font-family="FG Virgil" font-size="9.8" lengthAdjust="spacing" textLength="20.3" x="3.5" y="257.6396">User</text><ellipse cx="15.75" cy="266.0492" fill="#E3E3E3" rx="5.6" ry="5.6" style="stroke:#181818;stroke-width:0.3499999999999999;"/><path d="M15.75,271.6492 L15.75,290.5492 M6.65,277.2492 L24.85,277.2492 M15.75,290.5492 L6.65,301.0492 M15.75,290.5492 L24.85,301.0492 " fill="none" style="stroke:#181818;stroke-width:0.3499999999999999;"/><rect fill="#E3E3E3" height="35.8695" rx="1.75" ry="1.75" style="stroke:#181818;stroke-width:0.3499999999999999;" width="76.3" x="132.3" y="21.9652"/><text fill="#000000" font-family="FG Virgil" font-size="9.8" font-style="italic" lengthAdjust="spacing" textLength="66.5" x="137.2" y="37.4404">&#171;presentation&#187;</text><text fill="#000000" font-family="FG Virgil" font-size="9.8" lengthAdjust="spacing" textLength="32.2" x="154.35" y="50.4752">System</text><rect fill="#E3E3E3" height="35.8695" rx="1.75" ry="1.75" style="stroke:#181818;stroke-width:0.3499999999999999;" width="76.3" x="132.3" y="247.0645"/><text fill="#000000" font-family="FG Virgil" font-size="9.8" font-style="italic" lengthAdjust="spacing" textLength="66.5" x="137.2" y="262.5396">&#171;presentation&#187;</text><text fill="#000000" font-family="FG Virgil" font-size="9.8" lengthAdjust="spacing" textLength="32.2" x="154.35" y="275.5744">System</text><rect fill="#FFFFFF" height="159.626" style="stroke:#181818;stroke-width:0.6999999999999998;" width="7" x="166.95" y="81.8385"/><polygon fill="#181818" points="158.55,79.0385,165.55,81.8385,158.55,84.6385,161.35,81.8385" style="stroke:#181818;stroke-width:0.6999999999999998;"/><line style="stroke:#181818;stroke-width:0.6999999999999998;" x1="15.75" x2="162.75" y1="81.8385" y2="81.8385"/><text fill="#000000" font-family="FG Virgil" font-size="9.1" font-weight="bold" lengthAdjust="spacing" textLength="4.9" x="20.65" y="78.1546">1</text><text fill="#000000" font-family="FG Virgil" font-size="9.1" lengthAdjust="spacing" textLength="100.8" x="28.35" y="78.1546">Wants to create a post-it</text><polygon fill="#181818" points="23.45,100.9422,16.45,103.7422,23.45,106.5422,20.65,103.7422" style="stroke:#181818;stroke-width:0.6999999999999998;"/><line style="stroke:#181818;stroke-width:0.6999999999999998;stroke-dasharray:2.0,2.0;" x1="19.25" x2="166.25" y1="103.7422" y2="103.7422"/><text fill="#000000" font-family="FG Virgil" font-size="9.1" font-weight="bold" lengthAdjust="spacing" textLength="4.9" x="27.65" y="100.0583">2</text><text fill="#000000" font-family="FG Virgil" font-size="9.1" lengthAdjust="spacing" textLength="126.7" x="35.35" y="100.0583">Asks to choose a shared board</text><polygon fill="#181818" points="158.55,122.8459,165.55,125.6459,158.55,128.4459,161.35,125.6459" style="stroke:#181818;stroke-width:0.6999999999999998;"/><line style="stroke:#181818;stroke-width:0.6999999999999998;" x1="15.75" x2="162.75" y1="125.6459" y2="125.6459"/><text fill="#000000" font-family="FG Virgil" font-size="9.1" font-weight="bold" lengthAdjust="spacing" textLength="4.9" x="20.65" y="121.962">3</text><text fill="#000000" font-family="FG Virgil" font-size="9.1" lengthAdjust="spacing" textLength="68.6" x="28.35" y="121.962">Selects a shared</text><polygon fill="#181818" points="23.45,144.7496,16.45,147.5496,23.45,150.3496,20.65,147.5496" style="stroke:#181818;stroke-width:0.6999999999999998;"/><line style="stroke:#181818;stroke-width:0.6999999999999998;stroke-dasharray:2.0,2.0;" x1="19.25" x2="166.25" y1="147.5496" y2="147.5496"/><text fill="#000000" font-family="FG Virgil" font-size="9.1" font-weight="bold" lengthAdjust="spacing" textLength="4.9" x="27.65" y="143.8657">4</text><text fill="#000000" font-family="FG Virgil" font-size="9.1" lengthAdjust="spacing" textLength="83.3" x="35.35" y="143.8657">Asks to select a cell</text><polygon fill="#181818" points="158.55,166.6533,165.55,169.4533,158.55,172.2533,161.35,169.4533" style="stroke:#181818;stroke-width:0.6999999999999998;"/><line style="stroke:#181818;stroke-width:0.6999999999999998;" x1="15.75" x2="162.75" y1="169.4533" y2="169.4533"/><text fill="#000000" font-family="FG Virgil" font-size="9.1" font-weight="bold" lengthAdjust="spacing" textLength="4.9" x="20.65" y="165.7694">5</text><text fill="#000000" font-family="FG Virgil" font-size="9.1" lengthAdjust="spacing" textLength="55.3" x="28.35" y="165.7694">Selects a cell</text><polygon fill="#181818" points="23.45,188.557,16.45,191.357,23.45,194.157,20.65,191.357" style="stroke:#181818;stroke-width:0.6999999999999998;"/><line style="stroke:#181818;stroke-width:0.6999999999999998;stroke-dasharray:2.0,2.0;" x1="19.25" x2="166.25" y1="191.357" y2="191.357"/><text fill="#000000" font-family="FG Virgil" font-size="9.1" font-weight="bold" lengthAdjust="spacing" textLength="4.9" x="27.65" y="187.6731">6</text><text fill="#000000" font-family="FG Virgil" font-size="9.1" lengthAdjust="spacing" textLength="89.6" x="35.35" y="187.6731">Asks to insert content</text><polygon fill="#181818" points="158.55,210.4607,165.55,213.2607,158.55,216.0607,161.35,213.2607" style="stroke:#181818;stroke-width:0.6999999999999998;"/><line style="stroke:#181818;stroke-width:0.6999999999999998;" x1="15.75" x2="162.75" y1="213.2607" y2="213.2607"/><text fill="#000000" font-family="FG Virgil" font-size="9.1" font-weight="bold" lengthAdjust="spacing" textLength="4.9" x="20.65" y="209.5769">7</text><text fill="#000000" font-family="FG Virgil" font-size="9.1" lengthAdjust="spacing" textLength="60.2" x="28.35" y="209.5769">Inserts content</text><polygon fill="#181818" points="23.45,232.3645,16.45,235.1645,23.45,237.9645,20.65,235.1645" style="stroke:#181818;stroke-width:0.6999999999999998;"/><line style="stroke:#181818;stroke-width:0.6999999999999998;stroke-dasharray:2.0,2.0;" x1="19.25" x2="166.25" y1="235.1645" y2="235.1645"/><text fill="#000000" font-family="FG Virgil" font-size="9.1" font-weight="bold" lengthAdjust="spacing" textLength="4.9" x="27.65" y="231.4806">8</text><text fill="#000000" font-family="FG Virgil" font-size="9.1" lengthAdjust="spacing" textLength="109.2" x="35.35" y="231.4806">Informs post it was created</text><!--SRC=[TP51Ry8m38Nl-HM-xLIu8rI92zCkkw1jPvCQ6f74LUmEyU_djgZhGCl9YT_xaZo_jAhTPhtk8cRjKrnvJckvXDnXmRHgDKKtRo5nPjyMJWHQUbfqElGNFDD1Rv6WaDT5hw4Jzb7tdFKTpRf_XSzGpc59bXORlePyXXD68UUmLyvzEbAnsYiN-10gW0AxOUVCfi67pfuDXviefQ5thxRRhf1GLjJ0kQwT6qrGrNV51hxCAA0ClX0g0KB7ebNGuRRmFHnDKWUsxjpA02Df0pkvJFQMMGQx_Q1G0qV6qeoUfoiF52qOcRKBie4Vk3AAJUifnbzULJ_JPiL_h90jEWLl0x1Cbh3vRM-ZHFve7d5l-SGboHWK18Mh1JwbrxY6vjYc-Vm0]--></g></svg>