<?xml version="1.0" encoding="us-ascii" standalone="no"?><svg xmlns="http://www.w3.org/2000/svg" xmlns:xlink="http://www.w3.org/1999/xlink" contentStyleType="text/css" height="658px" preserveAspectRatio="none" style="width:838px;height:658px;background:#FFFFFF;" version="1.1" viewBox="0 0 838 658" width="838px" zoomAndPan="magnify"><defs/><g><rect fill="#FFFFFF" height="428.7832" style="stroke:#181818;stroke-width:1.0;" width="10" x="161.5" y="121.5332"/><rect fill="#FFFFFF" height="281.6191" style="stroke:#181818;stroke-width:1.0;" width="10" x="327.5" y="184.1152"/><rect fill="#FFFFFF" height="62.582" style="stroke:#181818;stroke-width:1.0;" width="10" x="483" y="215.4063"/><rect fill="#FFFFFF" height="62.582" style="stroke:#181818;stroke-width:1.0;" width="10" x="626" y="309.2793"/><rect fill="#FFFFFF" height="31.291" style="stroke:#181818;stroke-width:1.0;" width="10" x="766.5" y="403.1523"/><line style="stroke:#181818;stroke-width:0.5;stroke-dasharray:5.0,5.0;" x1="34" x2="34" y1="88.2422" y2="559.3164"/><line style="stroke:#181818;stroke-width:0.5;stroke-dasharray:5.0,5.0;" x1="166" x2="166" y1="88.2422" y2="559.3164"/><line style="stroke:#181818;stroke-width:0.5;stroke-dasharray:5.0,5.0;" x1="332" x2="332" y1="88.2422" y2="559.3164"/><line style="stroke:#181818;stroke-width:0.5;stroke-dasharray:5.0,5.0;" x1="488" x2="488" y1="88.2422" y2="559.3164"/><line style="stroke:#181818;stroke-width:0.5;stroke-dasharray:5.0,5.0;" x1="631" x2="631" y1="88.2422" y2="559.3164"/><line style="stroke:#181818;stroke-width:0.5;stroke-dasharray:5.0,5.0;" x1="771" x2="771" y1="88.2422" y2="559.3164"/><text fill="#000000" font-family="FG Virgil" font-size="14" lengthAdjust="spacing" textLength="53" x="5" y="84.7285">Teacher</text><ellipse cx="34.5" cy="18.1211" fill="#E3E3E3" rx="8" ry="8" style="stroke:#181818;stroke-width:0.5;"/><path d="M34.5,26.1211 L34.5,53.1211 M21.5,34.1211 L47.5,34.1211 M34.5,53.1211 L21.5,68.1211 M34.5,53.1211 L47.5,68.1211 " fill="none" style="stroke:#181818;stroke-width:0.5;"/><text fill="#000000" font-family="FG Virgil" font-size="14" lengthAdjust="spacing" textLength="53" x="5" y="573.4238">Teacher</text><ellipse cx="34.5" cy="585.4375" fill="#E3E3E3" rx="8" ry="8" style="stroke:#181818;stroke-width:0.5;"/><path d="M34.5,593.4375 L34.5,620.4375 M21.5,601.4375 L47.5,601.4375 M34.5,620.4375 L21.5,635.4375 M34.5,620.4375 L47.5,635.4375 " fill="none" style="stroke:#181818;stroke-width:0.5;"/><rect fill="#E3E3E3" height="51.2422" rx="2.5" ry="2.5" style="stroke:#181818;stroke-width:0.5;" width="109" x="112" y="36"/><text fill="#000000" font-family="FG Virgil" font-size="14" font-style="italic" lengthAdjust="spacing" textLength="95" x="119" y="58.1074">&#171;presentation&#187;</text><text fill="#000000" font-family="FG Virgil" font-size="14" lengthAdjust="spacing" textLength="91" x="121" y="76.7285">ListQuestionUI</text><rect fill="#E3E3E3" height="51.2422" rx="2.5" ry="2.5" style="stroke:#181818;stroke-width:0.5;" width="109" x="112" y="558.3164"/><text fill="#000000" font-family="FG Virgil" font-size="14" font-style="italic" lengthAdjust="spacing" textLength="95" x="119" y="580.4238">&#171;presentation&#187;</text><text fill="#000000" font-family="FG Virgil" font-size="14" lengthAdjust="spacing" textLength="91" x="121" y="599.0449">ListQuestionUI</text><rect fill="#E3E3E3" height="51.2422" rx="2.5" ry="2.5" style="stroke:#181818;stroke-width:0.5;" width="155" x="255" y="36"/><text fill="#000000" font-family="FG Virgil" font-size="14" font-style="italic" lengthAdjust="spacing" textLength="84" x="290.5" y="58.1074">&#171;application&#187;</text><text fill="#000000" font-family="FG Virgil" font-size="14" lengthAdjust="spacing" textLength="141" x="262" y="76.7285">ListQuestionController</text><rect fill="#E3E3E3" height="51.2422" rx="2.5" ry="2.5" style="stroke:#181818;stroke-width:0.5;" width="155" x="255" y="558.3164"/><text fill="#000000" font-family="FG Virgil" font-size="14" font-style="italic" lengthAdjust="spacing" textLength="84" x="290.5" y="580.4238">&#171;application&#187;</text><text fill="#000000" font-family="FG Virgil" font-size="14" lengthAdjust="spacing" textLength="141" x="262" y="599.0449">ListQuestionController</text><rect fill="#E3E3E3" height="51.2422" rx="2.5" ry="2.5" style="stroke:#181818;stroke-width:0.5;" width="136" x="420" y="36"/><text fill="#000000" font-family="FG Virgil" font-size="14" font-style="italic" lengthAdjust="spacing" textLength="89" x="443.5" y="58.1074">&#171;persistence&#187;</text><text fill="#000000" font-family="FG Virgil" font-size="14" lengthAdjust="spacing" textLength="122" x="427" y="76.7285">PersistenceContext</text><rect fill="#E3E3E3" height="51.2422" rx="2.5" ry="2.5" style="stroke:#181818;stroke-width:0.5;" width="136" x="420" y="558.3164"/><text fill="#000000" font-family="FG Virgil" font-size="14" font-style="italic" lengthAdjust="spacing" textLength="89" x="443.5" y="580.4238">&#171;persistence&#187;</text><text fill="#000000" font-family="FG Virgil" font-size="14" lengthAdjust="spacing" textLength="122" x="427" y="599.0449">PersistenceContext</text><rect fill="#E3E3E3" height="51.2422" rx="2.5" ry="2.5" style="stroke:#181818;stroke-width:0.5;" width="130" x="566" y="36"/><text fill="#000000" font-family="FG Virgil" font-size="14" font-style="italic" lengthAdjust="spacing" textLength="59" x="601.5" y="58.1074">&#171;factory&#187;</text><text fill="#000000" font-family="FG Virgil" font-size="14" lengthAdjust="spacing" textLength="116" x="573" y="76.7285">RepositoryFactory</text><rect fill="#E3E3E3" height="51.2422" rx="2.5" ry="2.5" style="stroke:#181818;stroke-width:0.5;" width="130" x="566" y="558.3164"/><text fill="#000000" font-family="FG Virgil" font-size="14" font-style="italic" lengthAdjust="spacing" textLength="59" x="601.5" y="580.4238">&#171;factory&#187;</text><text fill="#000000" font-family="FG Virgil" font-size="14" lengthAdjust="spacing" textLength="116" x="573" y="599.0449">RepositoryFactory</text><text fill="#000000" font-family="FG Virgil" font-size="14" font-style="italic" lengthAdjust="spacing" textLength="79" x="729" y="66.1074">&#171;repository&#187;</text><text fill="#000000" font-family="FG Virgil" font-size="14" lengthAdjust="spacing" textLength="125" x="706" y="84.7285">QuestionRepository</text><path d="M753.5,15 C753.5,5 771.5,5 771.5,5 C771.5,5 789.5,5 789.5,15 L789.5,41 C789.5,51 771.5,51 771.5,51 C771.5,51 753.5,51 753.5,41 L753.5,15 " fill="#E3E3E3" style="stroke:#181818;stroke-width:1.5;"/><path d="M753.5,15 C753.5,25 771.5,25 771.5,25 C771.5,25 789.5,25 789.5,15 " fill="none" style="stroke:#181818;stroke-width:1.5;"/><text fill="#000000" font-family="FG Virgil" font-size="14" font-style="italic" lengthAdjust="spacing" textLength="79" x="729" y="573.4238">&#171;repository&#187;</text><text fill="#000000" font-family="FG Virgil" font-size="14" lengthAdjust="spacing" textLength="125" x="706" y="592.0449">QuestionRepository</text><path d="M753.5,605.5586 C753.5,595.5586 771.5,595.5586 771.5,595.5586 C771.5,595.5586 789.5,595.5586 789.5,605.5586 L789.5,631.5586 C789.5,641.5586 771.5,641.5586 771.5,641.5586 C771.5,641.5586 753.5,641.5586 753.5,631.5586 L753.5,605.5586 " fill="#E3E3E3" style="stroke:#181818;stroke-width:1.5;"/><path d="M753.5,605.5586 C753.5,615.5586 771.5,615.5586 771.5,615.5586 C771.5,615.5586 789.5,615.5586 789.5,605.5586 " fill="none" style="stroke:#181818;stroke-width:1.5;"/><rect fill="#FFFFFF" height="428.7832" style="stroke:#181818;stroke-width:1.0;" width="10" x="161.5" y="121.5332"/><rect fill="#FFFFFF" height="281.6191" style="stroke:#181818;stroke-width:1.0;" width="10" x="327.5" y="184.1152"/><rect fill="#FFFFFF" height="62.582" style="stroke:#181818;stroke-width:1.0;" width="10" x="483" y="215.4063"/><rect fill="#FFFFFF" height="62.582" style="stroke:#181818;stroke-width:1.0;" width="10" x="626" y="309.2793"/><rect fill="#FFFFFF" height="31.291" style="stroke:#181818;stroke-width:1.0;" width="10" x="766.5" y="403.1523"/><polygon fill="#181818" points="149.5,117.5332,159.5,121.5332,149.5,125.5332,153.5,121.5332" style="stroke:#181818;stroke-width:1.0;"/><line style="stroke:#181818;stroke-width:1.0;" x1="34.5" x2="155.5" y1="121.5332" y2="121.5332"/><text fill="#000000" font-family="FG Virgil" font-size="13" font-weight="bold" lengthAdjust="spacing" textLength="7" x="41.5" y="116.2705">1</text><text fill="#000000" font-family="FG Virgil" font-size="13" lengthAdjust="spacing" textLength="97" x="52.5" y="116.2705">list all Questions</text><polygon fill="#181818" points="320.5,148.8242,330.5,152.8242,320.5,156.8242,324.5,152.8242" style="stroke:#181818;stroke-width:1.0;"/><line style="stroke:#181818;stroke-width:1.0;" x1="171.5" x2="326.5" y1="152.8242" y2="152.8242"/><text fill="#000000" font-family="FG Virgil" font-size="13" font-weight="bold" lengthAdjust="spacing" textLength="7" x="178.5" y="147.5615">2</text><text fill="#000000" font-family="FG Virgil" font-size="13" lengthAdjust="spacing" textLength="44" x="189.5" y="147.5615">create()</text><polygon fill="#181818" points="315.5,180.1152,325.5,184.1152,315.5,188.1152,319.5,184.1152" style="stroke:#181818;stroke-width:1.0;"/><line style="stroke:#181818;stroke-width:1.0;" x1="171.5" x2="321.5" y1="184.1152" y2="184.1152"/><text fill="#000000" font-family="FG Virgil" font-size="13" font-weight="bold" lengthAdjust="spacing" textLength="7" x="178.5" y="178.8525">3</text><text fill="#000000" font-family="FG Virgil" font-size="13" lengthAdjust="spacing" textLength="84" x="189.5" y="178.8525">listQuestions()</text><polygon fill="#181818" points="471,211.4063,481,215.4063,471,219.4063,475,215.4063" style="stroke:#181818;stroke-width:1.0;"/><line style="stroke:#181818;stroke-width:1.0;" x1="337.5" x2="477" y1="215.4063" y2="215.4063"/><text fill="#000000" font-family="FG Virgil" font-size="13" font-weight="bold" lengthAdjust="spacing" textLength="7" x="344.5" y="210.1436">4</text><text fill="#000000" font-family="FG Virgil" font-size="13" lengthAdjust="spacing" textLength="75" x="355.5" y="210.1436">repositories()</text><polygon fill="#181818" points="619,242.6973,629,246.6973,619,250.6973,623,246.6973" style="stroke:#181818;stroke-width:1.0;"/><line style="stroke:#181818;stroke-width:1.0;" x1="493" x2="625" y1="246.6973" y2="246.6973"/><text fill="#000000" font-family="FG Virgil" font-size="13" font-weight="bold" lengthAdjust="spacing" textLength="7" x="500" y="241.4346">5</text><text fill="#000000" font-family="FG Virgil" font-size="13" lengthAdjust="spacing" textLength="44" x="511" y="241.4346">create()</text><polygon fill="#181818" points="348.5,273.9883,338.5,277.9883,348.5,281.9883,344.5,277.9883" style="stroke:#181818;stroke-width:1.0;"/><line style="stroke:#181818;stroke-width:1.0;stroke-dasharray:2.0,2.0;" x1="342.5" x2="487" y1="277.9883" y2="277.9883"/><text fill="#000000" font-family="FG Virgil" font-size="13" font-weight="bold" lengthAdjust="spacing" textLength="7" x="354.5" y="272.7256">6</text><text fill="#000000" font-family="FG Virgil" font-size="13" lengthAdjust="spacing" textLength="4" x="365.5" y="272.7256">&#160;</text><polygon fill="#181818" points="614,305.2793,624,309.2793,614,313.2793,618,309.2793" style="stroke:#181818;stroke-width:1.0;"/><line style="stroke:#181818;stroke-width:1.0;" x1="337.5" x2="620" y1="309.2793" y2="309.2793"/><text fill="#000000" font-family="FG Virgil" font-size="13" font-weight="bold" lengthAdjust="spacing" textLength="7" x="344.5" y="304.0166">7</text><text fill="#000000" font-family="FG Virgil" font-size="13" lengthAdjust="spacing" textLength="64" x="355.5" y="304.0166">questions()</text><polygon fill="#181818" points="759.5,336.5703,769.5,340.5703,759.5,344.5703,763.5,340.5703" style="stroke:#181818;stroke-width:1.0;"/><line style="stroke:#181818;stroke-width:1.0;" x1="636" x2="765.5" y1="340.5703" y2="340.5703"/><text fill="#000000" font-family="FG Virgil" font-size="13" font-weight="bold" lengthAdjust="spacing" textLength="7" x="643" y="335.3076">8</text><text fill="#000000" font-family="FG Virgil" font-size="13" lengthAdjust="spacing" textLength="44" x="654" y="335.3076">create()</text><polygon fill="#181818" points="348.5,367.8613,338.5,371.8613,348.5,375.8613,344.5,371.8613" style="stroke:#181818;stroke-width:1.0;"/><line style="stroke:#181818;stroke-width:1.0;stroke-dasharray:2.0,2.0;" x1="342.5" x2="630" y1="371.8613" y2="371.8613"/><text fill="#000000" font-family="FG Virgil" font-size="13" font-weight="bold" lengthAdjust="spacing" textLength="7" x="354.5" y="366.5986">9</text><text fill="#000000" font-family="FG Virgil" font-size="13" lengthAdjust="spacing" textLength="4" x="365.5" y="366.5986">&#160;</text><polygon fill="#181818" points="754.5,399.1523,764.5,403.1523,754.5,407.1523,758.5,403.1523" style="stroke:#181818;stroke-width:1.0;"/><line style="stroke:#181818;stroke-width:1.0;" x1="337.5" x2="760.5" y1="403.1523" y2="403.1523"/><text fill="#000000" font-family="FG Virgil" font-size="13" font-weight="bold" lengthAdjust="spacing" textLength="14" x="344.5" y="397.8896">10</text><text fill="#000000" font-family="FG Virgil" font-size="13" lengthAdjust="spacing" textLength="43" x="362.5" y="397.8896">findAll()</text><polygon fill="#181818" points="348.5,430.4434,338.5,434.4434,348.5,438.4434,344.5,434.4434" style="stroke:#181818;stroke-width:1.0;"/><line style="stroke:#181818;stroke-width:1.0;stroke-dasharray:2.0,2.0;" x1="342.5" x2="770.5" y1="434.4434" y2="434.4434"/><text fill="#000000" font-family="FG Virgil" font-size="13" font-weight="bold" lengthAdjust="spacing" textLength="14" x="354.5" y="429.1807">11</text><text fill="#000000" font-family="FG Virgil" font-size="13" lengthAdjust="spacing" textLength="4" x="372.5" y="429.1807">&#160;</text><polygon fill="#181818" points="182.5,461.7344,172.5,465.7344,182.5,469.7344,178.5,465.7344" style="stroke:#181818;stroke-width:1.0;"/><line style="stroke:#181818;stroke-width:1.0;stroke-dasharray:2.0,2.0;" x1="176.5" x2="331.5" y1="465.7344" y2="465.7344"/><text fill="#000000" font-family="FG Virgil" font-size="13" font-weight="bold" lengthAdjust="spacing" textLength="14" x="188.5" y="460.4717">12</text><text fill="#000000" font-family="FG Virgil" font-size="13" lengthAdjust="spacing" textLength="4" x="206.5" y="460.4717">&#160;</text><line style="stroke:#181818;stroke-width:1.0;" x1="171.5" x2="213.5" y1="497.0254" y2="497.0254"/><line style="stroke:#181818;stroke-width:1.0;" x1="213.5" x2="213.5" y1="497.0254" y2="510.0254"/><line style="stroke:#181818;stroke-width:1.0;" x1="172.5" x2="213.5" y1="510.0254" y2="510.0254"/><polygon fill="#181818" points="182.5,506.0254,172.5,510.0254,182.5,514.0254,178.5,510.0254" style="stroke:#181818;stroke-width:1.0;"/><text fill="#000000" font-family="FG Virgil" font-size="13" font-weight="bold" lengthAdjust="spacing" textLength="14" x="178.5" y="491.7627">13</text><text fill="#000000" font-family="FG Virgil" font-size="13" lengthAdjust="spacing" textLength="124" x="196.5" y="491.7627">output Questions List</text><polygon fill="#181818" points="45.5,537.3164,35.5,541.3164,45.5,545.3164,41.5,541.3164" style="stroke:#181818;stroke-width:1.0;"/><line style="stroke:#181818;stroke-width:1.0;stroke-dasharray:2.0,2.0;" x1="39.5" x2="160.5" y1="541.3164" y2="541.3164"/><text fill="#000000" font-family="FG Virgil" font-size="13" font-weight="bold" lengthAdjust="spacing" textLength="14" x="51.5" y="536.0537">14</text><text fill="#000000" font-family="FG Virgil" font-size="13" lengthAdjust="spacing" textLength="4" x="69.5" y="536.0537">&#160;</text><!--SRC=[bLJBRjim4BphAtXBUgXz5mG3GG470OeYVIJtDRMs25CaIwwI-E-pb6A9KccZuK7WOsPsPYNgfY5ovNhjD1ZgMhsIjbs7ep8EFBIhXbfTZ4lHMcDbussBWdo7oOa3UOG3_gQJHk5HKd9MunuwJLjhw0SmTNildfK_g5GvD53RLsKEOWywO550HzPqxGuzpoLPB_uWo0QzW23kuaR1J59IENOklgj0FpiCfAnvUeWOVbQLynZG4CJjpUOYunjRyrRhGJrPLHKufvNC2JoY3wo1Hc9au1j5Sh8Rwq-h1ViNEXiKnpXj-tYdI3vFgse_p9XK0y4E0egpsOaPAScgglouO6BHTqbytN0hIg7PXW2jHvaGswfUW93F2y63EyRW97qff4S6t7xfpp_64ZPeZx9py5XZmgV7SIG5MJVjNod6G0eNmZFnXBJ4n95gSebpb_FnigHPu1ownlyriyWxcVcRx-2_QJyeMT1PZfMJB-DwqedqcPWNNCpJpJpibQdljBxo7YTuhdWYTjrfulAoOcgqloD5NY5VPhW4yMBPZbn7qxNgVonBA6E7VzOx]--></g></svg>