<?xml version="1.0" encoding="us-ascii" standalone="no"?><svg xmlns="http://www.w3.org/2000/svg" xmlns:xlink="http://www.w3.org/1999/xlink" contentStyleType="text/css" height="1171px" preserveAspectRatio="none" style="width:942px;height:1171px;background:#FFFFFF;" version="1.1" viewBox="0 0 942 1171" width="942px" zoomAndPan="magnify"><defs/><g><!--class ChangePostItUI--><g id="elem_ChangePostItUI"><rect codeLine="2" fill="#F1F1F1" height="60.582" id="ChangePostItUI" rx="2.5" ry="2.5" style="stroke:#181818;stroke-width:0.5;" width="129" x="442.5" y="7"/><ellipse cx="457.5" cy="29.291" fill="#ADD1B2" rx="11" ry="11" style="stroke:#181818;stroke-width:1.0;"/><path d="M460.2656,25.166 Q460.4219,24.9473 460.6094,24.8379 Q460.7969,24.7285 461.0156,24.7285 Q461.3906,24.7285 461.625,24.9941 Q461.8594,25.2441 461.8594,25.8535 L461.8594,27.3066 Q461.8594,27.916 461.625,28.1816 Q461.3906,28.4473 461.0156,28.4473 Q460.6719,28.4473 460.4688,28.2441 Q460.2656,28.0566 460.1563,27.541 Q460.1094,27.1816 459.9219,26.9941 Q459.5938,26.6191 458.9844,26.4004 Q458.375,26.1816 457.75,26.1816 Q456.9844,26.1816 456.3438,26.5098 Q455.7188,26.8379 455.2188,27.5879 Q454.7344,28.3379 454.7344,29.3691 L454.7344,30.4629 Q454.7344,31.6973 455.625,32.5254 Q456.5156,33.3379 458.1094,33.3379 Q459.0469,33.3379 459.7031,33.0879 Q460.0938,32.9316 460.5156,32.4941 Q460.7813,32.2285 460.9219,32.1504 Q461.0781,32.0723 461.2813,32.0723 Q461.6094,32.0723 461.8594,32.3379 Q462.125,32.5879 462.125,32.9316 Q462.125,33.2754 461.7813,33.6816 Q461.2813,34.2598 460.4844,34.5879 Q459.4063,35.041 458.1094,35.041 Q456.5938,35.041 455.3906,34.416 Q454.4063,33.916 453.7188,32.8535 Q453.0313,31.7754 453.0313,30.4941 L453.0313,29.3379 Q453.0313,28.0098 453.6406,26.8691 Q454.2656,25.7129 455.3594,25.1035 Q456.4531,24.4785 457.6875,24.4785 Q458.4219,24.4785 459.0625,24.6504 Q459.7188,24.8066 460.2656,25.166 Z " fill="#000000"/><text fill="#000000" font-family="sans-serif" font-size="12" font-style="italic" lengthAdjust="spacing" textLength="27" x="506.5" y="24.9492">&#171;UI&#187;</text><text fill="#000000" font-family="sans-serif" font-size="14" lengthAdjust="spacing" textLength="97" x="471.5" y="43.0684">ChangePostItUI</text><line style="stroke:#181818;stroke-width:0.5;" x1="443.5" x2="570.5" y1="51.582" y2="51.582"/><line style="stroke:#181818;stroke-width:0.5;" x1="443.5" x2="570.5" y1="59.582" y2="59.582"/></g><!--class ChangePostItController--><g id="elem_ChangePostItController"><rect codeLine="5" fill="#F1F1F1" height="172.3086" id="ChangePostItController" rx="2.5" ry="2.5" style="stroke:#181818;stroke-width:0.5;" width="273" x="370.5" y="129"/><ellipse cx="429.25" cy="151.291" fill="#ADD1B2" rx="11" ry="11" style="stroke:#181818;stroke-width:1.0;"/><path d="M432.0156,147.166 Q432.1719,146.9473 432.3594,146.8379 Q432.5469,146.7285 432.7656,146.7285 Q433.1406,146.7285 433.375,146.9941 Q433.6094,147.2441 433.6094,147.8535 L433.6094,149.3066 Q433.6094,149.916 433.375,150.1816 Q433.1406,150.4473 432.7656,150.4473 Q432.4219,150.4473 432.2188,150.2441 Q432.0156,150.0566 431.9063,149.541 Q431.8594,149.1816 431.6719,148.9941 Q431.3438,148.6191 430.7344,148.4004 Q430.125,148.1816 429.5,148.1816 Q428.7344,148.1816 428.0938,148.5098 Q427.4688,148.8379 426.9688,149.5879 Q426.4844,150.3379 426.4844,151.3691 L426.4844,152.4629 Q426.4844,153.6973 427.375,154.5254 Q428.2656,155.3379 429.8594,155.3379 Q430.7969,155.3379 431.4531,155.0879 Q431.8438,154.9316 432.2656,154.4941 Q432.5313,154.2285 432.6719,154.1504 Q432.8281,154.0723 433.0313,154.0723 Q433.3594,154.0723 433.6094,154.3379 Q433.875,154.5879 433.875,154.9316 Q433.875,155.2754 433.5313,155.6816 Q433.0313,156.2598 432.2344,156.5879 Q431.1563,157.041 429.8594,157.041 Q428.3438,157.041 427.1406,156.416 Q426.1563,155.916 425.4688,154.8535 Q424.7813,153.7754 424.7813,152.4941 L424.7813,151.3379 Q424.7813,150.0098 425.3906,148.8691 Q426.0156,147.7129 427.1094,147.1035 Q428.2031,146.4785 429.4375,146.4785 Q430.1719,146.4785 430.8125,146.6504 Q431.4688,146.8066 432.0156,147.166 Z " fill="#000000"/><text fill="#000000" font-family="sans-serif" font-size="12" font-style="italic" lengthAdjust="spacing" textLength="68" x="489.25" y="146.9492">&#171;Controller&#187;</text><text fill="#000000" font-family="sans-serif" font-size="14" lengthAdjust="spacing" textLength="147" x="449.75" y="165.0684">ChangePostItController</text><line style="stroke:#181818;stroke-width:0.5;" x1="371.5" x2="642.5" y1="173.582" y2="173.582"/><line style="stroke:#181818;stroke-width:0.5;" x1="371.5" x2="642.5" y1="181.582" y2="181.582"/><ellipse cx="381.5" cy="196.3926" fill="#84BE84" rx="3" ry="3" style="stroke:#038048;stroke-width:1.0;"/><text fill="#000000" font-family="sans-serif" font-size="14" lengthAdjust="spacing" textLength="205" x="390.5" y="200.6895">boolean listSharedBoards (user)</text><ellipse cx="381.5" cy="215.0137" fill="#84BE84" rx="3" ry="3" style="stroke:#038048;stroke-width:1.0;"/><text fill="#000000" font-family="sans-serif" font-size="14" lengthAdjust="spacing" textLength="235" x="390.5" y="219.3105">boolean listCells (sharedBoardName)</text><ellipse cx="381.5" cy="233.6348" fill="#84BE84" rx="3" ry="3" style="stroke:#038048;stroke-width:1.0;"/><text fill="#000000" font-family="sans-serif" font-size="14" lengthAdjust="spacing" textLength="246" x="390.5" y="237.9316">boolean listPostIts (user, sharedBoard)</text><ellipse cx="381.5" cy="252.2559" fill="#84BE84" rx="3" ry="3" style="stroke:#038048;stroke-width:1.0;"/><text fill="#000000" font-family="sans-serif" font-size="14" lengthAdjust="spacing" textLength="212" x="390.5" y="256.5527">List&lt;String&gt; extractList(response)</text><ellipse cx="381.5" cy="270.877" fill="#84BE84" rx="3" ry="3" style="stroke:#038048;stroke-width:1.0;"/><text fill="#000000" font-family="sans-serif" font-size="14" lengthAdjust="spacing" textLength="236" x="390.5" y="275.1738">List&lt;String&gt; extractCellList(response)</text><ellipse cx="381.5" cy="289.498" fill="#84BE84" rx="3" ry="3" style="stroke:#038048;stroke-width:1.0;"/><text fill="#000000" font-family="sans-serif" font-size="14" lengthAdjust="spacing" textLength="247" x="390.5" y="293.7949">List&lt;String&gt; extractPostItList(response)</text></g><!--class TcpServerMessageHandler--><g id="elem_TcpServerMessageHandler"><rect codeLine="14" fill="#F1F1F1" height="122.4844" id="TcpServerMessageHandler" rx="2.5" ry="2.5" style="stroke:#181818;stroke-width:0.5;" width="338" x="338" y="362"/><ellipse cx="416.75" cy="378" fill="#ADD1B2" rx="11" ry="11" style="stroke:#181818;stroke-width:1.0;"/><path d="M419.5156,373.875 Q419.6719,373.6563 419.8594,373.5469 Q420.0469,373.4375 420.2656,373.4375 Q420.6406,373.4375 420.875,373.7031 Q421.1094,373.9531 421.1094,374.5625 L421.1094,376.0156 Q421.1094,376.625 420.875,376.8906 Q420.6406,377.1563 420.2656,377.1563 Q419.9219,377.1563 419.7188,376.9531 Q419.5156,376.7656 419.4063,376.25 Q419.3594,375.8906 419.1719,375.7031 Q418.8438,375.3281 418.2344,375.1094 Q417.625,374.8906 417,374.8906 Q416.2344,374.8906 415.5938,375.2188 Q414.9688,375.5469 414.4688,376.2969 Q413.9844,377.0469 413.9844,378.0781 L413.9844,379.1719 Q413.9844,380.4063 414.875,381.2344 Q415.7656,382.0469 417.3594,382.0469 Q418.2969,382.0469 418.9531,381.7969 Q419.3438,381.6406 419.7656,381.2031 Q420.0313,380.9375 420.1719,380.8594 Q420.3281,380.7813 420.5313,380.7813 Q420.8594,380.7813 421.1094,381.0469 Q421.375,381.2969 421.375,381.6406 Q421.375,381.9844 421.0313,382.3906 Q420.5313,382.9688 419.7344,383.2969 Q418.6563,383.75 417.3594,383.75 Q415.8438,383.75 414.6406,383.125 Q413.6563,382.625 412.9688,381.5625 Q412.2813,380.4844 412.2813,379.2031 L412.2813,378.0469 Q412.2813,376.7188 412.8906,375.5781 Q413.5156,374.4219 414.6094,373.8125 Q415.7031,373.1875 416.9375,373.1875 Q417.6719,373.1875 418.3125,373.3594 Q418.9688,373.5156 419.5156,373.875 Z " fill="#000000"/><text fill="#000000" font-family="sans-serif" font-size="14" lengthAdjust="spacing" textLength="172" x="437.25" y="383.7969">TcpServerMessageHandler</text><line style="stroke:#181818;stroke-width:0.5;" x1="339" x2="675" y1="394" y2="394"/><line style="stroke:#181818;stroke-width:0.5;" x1="339" x2="675" y1="402" y2="402"/><ellipse cx="349" cy="416.8105" fill="#84BE84" rx="3" ry="3" style="stroke:#038048;stroke-width:1.0;"/><text fill="#000000" font-family="sans-serif" font-size="14" lengthAdjust="spacing" textLength="312" x="358" y="421.1074">void: findSharedBoardsOfUser(version, data, out)</text><ellipse cx="349" cy="435.4316" fill="#84BE84" rx="3" ry="3" style="stroke:#038048;stroke-width:1.0;"/><text fill="#000000" font-family="sans-serif" font-size="14" lengthAdjust="spacing" textLength="242" x="358" y="439.7285">void: findFreeCells(version, data, out);</text><ellipse cx="349" cy="454.0527" fill="#84BE84" rx="3" ry="3" style="stroke:#038048;stroke-width:1.0;"/><text fill="#000000" font-family="sans-serif" font-size="14" lengthAdjust="spacing" textLength="204" x="358" y="458.3496">void: findPostIt(version,data,out)</text><ellipse cx="349" cy="472.6738" fill="#84BE84" rx="3" ry="3" style="stroke:#038048;stroke-width:1.0;"/><text fill="#000000" font-family="sans-serif" font-size="14" lengthAdjust="spacing" textLength="304" x="358" y="476.9707">void: movePostItToOtherCell(version, data, out);</text></g><!--class UserRepository--><g id="elem_UserRepository"><rect codeLine="22" fill="#F1F1F1" height="79.2031" id="UserRepository" rx="2.5" ry="2.5" style="stroke:#181818;stroke-width:0.5;" width="148" x="155" y="383.5"/><ellipse cx="178.55" cy="405.791" fill="#ADD1B2" rx="11" ry="11" style="stroke:#181818;stroke-width:1.0;"/><path d="M181.3156,401.666 Q181.4719,401.4473 181.6594,401.3379 Q181.8469,401.2285 182.0656,401.2285 Q182.4406,401.2285 182.675,401.4941 Q182.9094,401.7441 182.9094,402.3535 L182.9094,403.8066 Q182.9094,404.416 182.675,404.6816 Q182.4406,404.9473 182.0656,404.9473 Q181.7219,404.9473 181.5188,404.7441 Q181.3156,404.5566 181.2063,404.041 Q181.1594,403.6816 180.9719,403.4941 Q180.6438,403.1191 180.0344,402.9004 Q179.425,402.6816 178.8,402.6816 Q178.0344,402.6816 177.3938,403.0098 Q176.7688,403.3379 176.2688,404.0879 Q175.7844,404.8379 175.7844,405.8691 L175.7844,406.9629 Q175.7844,408.1973 176.675,409.0254 Q177.5656,409.8379 179.1594,409.8379 Q180.0969,409.8379 180.7531,409.5879 Q181.1438,409.4316 181.5656,408.9941 Q181.8313,408.7285 181.9719,408.6504 Q182.1281,408.5723 182.3313,408.5723 Q182.6594,408.5723 182.9094,408.8379 Q183.175,409.0879 183.175,409.4316 Q183.175,409.7754 182.8313,410.1816 Q182.3313,410.7598 181.5344,411.0879 Q180.4563,411.541 179.1594,411.541 Q177.6438,411.541 176.4406,410.916 Q175.4563,410.416 174.7688,409.3535 Q174.0813,408.2754 174.0813,406.9941 L174.0813,405.8379 Q174.0813,404.5098 174.6906,403.3691 Q175.3156,402.2129 176.4094,401.6035 Q177.5031,400.9785 178.7375,400.9785 Q179.4719,400.9785 180.1125,401.1504 Q180.7688,401.3066 181.3156,401.666 Z " fill="#000000"/><text fill="#000000" font-family="sans-serif" font-size="12" font-style="italic" lengthAdjust="spacing" textLength="73" x="206.45" y="401.4492">&#171;Repository&#187;</text><text fill="#000000" font-family="sans-serif" font-size="14" lengthAdjust="spacing" textLength="97" x="194.45" y="419.5684">UserRepository</text><line style="stroke:#181818;stroke-width:0.5;" x1="156" x2="302" y1="428.082" y2="428.082"/><line style="stroke:#181818;stroke-width:0.5;" x1="156" x2="302" y1="436.082" y2="436.082"/><ellipse cx="166" cy="450.8926" fill="#84BE84" rx="3" ry="3" style="stroke:#038048;stroke-width:1.0;"/><text fill="#000000" font-family="sans-serif" font-size="14" lengthAdjust="spacing" textLength="122" x="175" y="455.1895">void: findById(user)</text></g><!--class SharedBoardRepository--><g id="elem_SharedBoardRepository"><rect codeLine="26" fill="#F1F1F1" height="116.4453" id="SharedBoardRepository" rx="2.5" ry="2.5" style="stroke:#181818;stroke-width:0.5;" width="412" x="7" y="582.5"/><ellipse cx="132.75" cy="604.791" fill="#ADD1B2" rx="11" ry="11" style="stroke:#181818;stroke-width:1.0;"/><path d="M135.5156,600.666 Q135.6719,600.4473 135.8594,600.3379 Q136.0469,600.2285 136.2656,600.2285 Q136.6406,600.2285 136.875,600.4941 Q137.1094,600.7441 137.1094,601.3535 L137.1094,602.8066 Q137.1094,603.416 136.875,603.6816 Q136.6406,603.9473 136.2656,603.9473 Q135.9219,603.9473 135.7188,603.7441 Q135.5156,603.5566 135.4063,603.041 Q135.3594,602.6816 135.1719,602.4941 Q134.8438,602.1191 134.2344,601.9004 Q133.625,601.6816 133,601.6816 Q132.2344,601.6816 131.5938,602.0098 Q130.9688,602.3379 130.4688,603.0879 Q129.9844,603.8379 129.9844,604.8691 L129.9844,605.9629 Q129.9844,607.1973 130.875,608.0254 Q131.7656,608.8379 133.3594,608.8379 Q134.2969,608.8379 134.9531,608.5879 Q135.3438,608.4316 135.7656,607.9941 Q136.0313,607.7285 136.1719,607.6504 Q136.3281,607.5723 136.5313,607.5723 Q136.8594,607.5723 137.1094,607.8379 Q137.375,608.0879 137.375,608.4316 Q137.375,608.7754 137.0313,609.1816 Q136.5313,609.7598 135.7344,610.0879 Q134.6563,610.541 133.3594,610.541 Q131.8438,610.541 130.6406,609.916 Q129.6563,609.416 128.9688,608.3535 Q128.2813,607.2754 128.2813,605.9941 L128.2813,604.8379 Q128.2813,603.5098 128.8906,602.3691 Q129.5156,601.2129 130.6094,600.6035 Q131.7031,599.9785 132.9375,599.9785 Q133.6719,599.9785 134.3125,600.1504 Q134.9688,600.3066 135.5156,600.666 Z " fill="#000000"/><text fill="#000000" font-family="sans-serif" font-size="12" font-style="italic" lengthAdjust="spacing" textLength="73" x="192.75" y="600.4492">&#171;Repository&#187;</text><text fill="#000000" font-family="sans-serif" font-size="14" lengthAdjust="spacing" textLength="152" x="153.25" y="618.5684">SharedBoardRepository</text><line style="stroke:#181818;stroke-width:0.5;" x1="8" x2="418" y1="627.082" y2="627.082"/><line style="stroke:#181818;stroke-width:0.5;" x1="8" x2="418" y1="635.082" y2="635.082"/><ellipse cx="18" cy="649.8926" fill="#84BE84" rx="3" ry="3" style="stroke:#038048;stroke-width:1.0;"/><text fill="#000000" font-family="sans-serif" font-size="14" lengthAdjust="spacing" textLength="315" x="27" y="654.1895">List&lt;SharedBoard&gt; findSharedBoardOfUser(user)</text><ellipse cx="18" cy="668.5137" fill="#84BE84" rx="3" ry="3" style="stroke:#038048;stroke-width:1.0;"/><text fill="#000000" font-family="sans-serif" font-size="14" lengthAdjust="spacing" textLength="386" x="27" y="672.8105">List&lt;SharedBoard&gt; findSharedBoardsAvailableForUser(user)</text><ellipse cx="18" cy="687.1348" fill="#84BE84" rx="3" ry="3" style="stroke:#038048;stroke-width:1.0;"/><text fill="#000000" font-family="sans-serif" font-size="14" lengthAdjust="spacing" textLength="318" x="27" y="691.4316">SharedBoard: findSharedBoard(sharedBoardTitle)</text></g><!--class CellRepository--><g id="elem_CellRepository"><rect codeLine="32" fill="#F1F1F1" height="116.4453" id="CellRepository" rx="2.5" ry="2.5" style="stroke:#181818;stroke-width:0.5;" width="400" x="87" y="797"/><ellipse cx="236.75" cy="819.291" fill="#ADD1B2" rx="11" ry="11" style="stroke:#181818;stroke-width:1.0;"/><path d="M239.5156,815.166 Q239.6719,814.9473 239.8594,814.8379 Q240.0469,814.7285 240.2656,814.7285 Q240.6406,814.7285 240.875,814.9941 Q241.1094,815.2441 241.1094,815.8535 L241.1094,817.3066 Q241.1094,817.916 240.875,818.1816 Q240.6406,818.4473 240.2656,818.4473 Q239.9219,818.4473 239.7188,818.2441 Q239.5156,818.0566 239.4063,817.541 Q239.3594,817.1816 239.1719,816.9941 Q238.8438,816.6191 238.2344,816.4004 Q237.625,816.1816 237,816.1816 Q236.2344,816.1816 235.5938,816.5098 Q234.9688,816.8379 234.4688,817.5879 Q233.9844,818.3379 233.9844,819.3691 L233.9844,820.4629 Q233.9844,821.6973 234.875,822.5254 Q235.7656,823.3379 237.3594,823.3379 Q238.2969,823.3379 238.9531,823.0879 Q239.3438,822.9316 239.7656,822.4941 Q240.0313,822.2285 240.1719,822.1504 Q240.3281,822.0723 240.5313,822.0723 Q240.8594,822.0723 241.1094,822.3379 Q241.375,822.5879 241.375,822.9316 Q241.375,823.2754 241.0313,823.6816 Q240.5313,824.2598 239.7344,824.5879 Q238.6563,825.041 237.3594,825.041 Q235.8438,825.041 234.6406,824.416 Q233.6563,823.916 232.9688,822.8535 Q232.2813,821.7754 232.2813,820.4941 L232.2813,819.3379 Q232.2813,818.0098 232.8906,816.8691 Q233.5156,815.7129 234.6094,815.1035 Q235.7031,814.4785 236.9375,814.4785 Q237.6719,814.4785 238.3125,814.6504 Q238.9688,814.8066 239.5156,815.166 Z " fill="#000000"/><text fill="#000000" font-family="sans-serif" font-size="12" font-style="italic" lengthAdjust="spacing" textLength="73" x="266.75" y="814.9492">&#171;Repository&#187;</text><text fill="#000000" font-family="sans-serif" font-size="14" lengthAdjust="spacing" textLength="92" x="257.25" y="833.0684">CellRepository</text><line style="stroke:#181818;stroke-width:0.5;" x1="88" x2="486" y1="841.582" y2="841.582"/><line style="stroke:#181818;stroke-width:0.5;" x1="88" x2="486" y1="849.582" y2="849.582"/><ellipse cx="98" cy="864.3926" fill="#84BE84" rx="3" ry="3" style="stroke:#038048;stroke-width:1.0;"/><text fill="#000000" font-family="sans-serif" font-size="14" lengthAdjust="spacing" textLength="95" x="107" y="868.6895">void: save(cell)</text><ellipse cx="98" cy="883.0137" fill="#84BE84" rx="3" ry="3" style="stroke:#038048;stroke-width:1.0;"/><text fill="#000000" font-family="sans-serif" font-size="14" lengthAdjust="spacing" textLength="220" x="107" y="887.3105">void: findCell(rowTitle, columnTitle)</text><ellipse cx="98" cy="901.6348" fill="#84BE84" rx="3" ry="3" style="stroke:#038048;stroke-width:1.0;"/><text fill="#000000" font-family="sans-serif" font-size="14" lengthAdjust="spacing" textLength="374" x="107" y="905.9316">List&lt;Cell&gt; findAllFreeCellsFromSharedBoard(sharedBoard)</text></g><!--class Cell--><g id="elem_Cell"><rect codeLine="38" fill="#F1F1F1" height="153.6875" id="Cell" rx="2.5" ry="2.5" style="stroke:#181818;stroke-width:0.5;" width="252" x="161" y="1001"/><ellipse cx="262.75" cy="1023.291" fill="#ADD1B2" rx="11" ry="11" style="stroke:#181818;stroke-width:1.0;"/><path d="M265.5156,1019.166 Q265.6719,1018.9473 265.8594,1018.8379 Q266.0469,1018.7285 266.2656,1018.7285 Q266.6406,1018.7285 266.875,1018.9941 Q267.1094,1019.2441 267.1094,1019.8535 L267.1094,1021.3066 Q267.1094,1021.916 266.875,1022.1816 Q266.6406,1022.4473 266.2656,1022.4473 Q265.9219,1022.4473 265.7188,1022.2441 Q265.5156,1022.0566 265.4063,1021.541 Q265.3594,1021.1816 265.1719,1020.9941 Q264.8438,1020.6191 264.2344,1020.4004 Q263.625,1020.1816 263,1020.1816 Q262.2344,1020.1816 261.5938,1020.5098 Q260.9688,1020.8379 260.4688,1021.5879 Q259.9844,1022.3379 259.9844,1023.3691 L259.9844,1024.4629 Q259.9844,1025.6973 260.875,1026.5254 Q261.7656,1027.3379 263.3594,1027.3379 Q264.2969,1027.3379 264.9531,1027.0879 Q265.3438,1026.9316 265.7656,1026.4941 Q266.0313,1026.2285 266.1719,1026.1504 Q266.3281,1026.0723 266.5313,1026.0723 Q266.8594,1026.0723 267.1094,1026.3379 Q267.375,1026.5879 267.375,1026.9316 Q267.375,1027.2754 267.0313,1027.6816 Q266.5313,1028.2598 265.7344,1028.5879 Q264.6563,1029.041 263.3594,1029.041 Q261.8438,1029.041 260.6406,1028.416 Q259.6563,1027.916 258.9688,1026.8535 Q258.2813,1025.7754 258.2813,1024.4941 L258.2813,1023.3379 Q258.2813,1022.0098 258.8906,1020.8691 Q259.5156,1019.7129 260.6094,1019.1035 Q261.7031,1018.4785 262.9375,1018.4785 Q263.6719,1018.4785 264.3125,1018.6504 Q264.9688,1018.8066 265.5156,1019.166 Z " fill="#000000"/><text fill="#000000" font-family="sans-serif" font-size="12" font-style="italic" lengthAdjust="spacing" textLength="44" x="281.25" y="1018.9492">&#171;Entity&#187;</text><text fill="#000000" font-family="sans-serif" font-size="14" lengthAdjust="spacing" textLength="24" x="291.25" y="1037.0684">Cell</text><line style="stroke:#181818;stroke-width:0.5;" x1="162" x2="412" y1="1045.582" y2="1045.582"/><text fill="#000000" font-family="sans-serif" font-size="14" lengthAdjust="spacing" textLength="79" x="167" y="1064.6895">String: cellID</text><text fill="#000000" font-family="sans-serif" font-size="14" lengthAdjust="spacing" textLength="94" x="167" y="1083.3105">int: rowNumber</text><text fill="#000000" font-family="sans-serif" font-size="14" lengthAdjust="spacing" textLength="117" x="167" y="1101.9316">int: columnNumber</text><text fill="#000000" font-family="sans-serif" font-size="14" lengthAdjust="spacing" textLength="99" x="167" y="1120.5527">boolean: isFree</text><line style="stroke:#181818;stroke-width:0.5;" x1="162" x2="412" y1="1128.0664" y2="1128.0664"/><ellipse cx="172" cy="1142.877" fill="#84BE84" rx="3" ry="3" style="stroke:#038048;stroke-width:1.0;"/><text fill="#000000" font-family="sans-serif" font-size="14" lengthAdjust="spacing" textLength="226" x="181" y="1147.1738">void: changeTheFreeStatus(isFree)</text></g><!--class PostItRepository--><g id="elem_PostItRepository"><rect codeLine="47" fill="#F1F1F1" height="116.4453" id="PostItRepository" rx="2.5" ry="2.5" style="stroke:#181818;stroke-width:0.5;" width="413" x="522.5" y="797"/><ellipse cx="673.25" cy="819.291" fill="#ADD1B2" rx="11" ry="11" style="stroke:#181818;stroke-width:1.0;"/><path d="M676.0156,815.166 Q676.1719,814.9473 676.3594,814.8379 Q676.5469,814.7285 676.7656,814.7285 Q677.1406,814.7285 677.375,814.9941 Q677.6094,815.2441 677.6094,815.8535 L677.6094,817.3066 Q677.6094,817.916 677.375,818.1816 Q677.1406,818.4473 676.7656,818.4473 Q676.4219,818.4473 676.2188,818.2441 Q676.0156,818.0566 675.9063,817.541 Q675.8594,817.1816 675.6719,816.9941 Q675.3438,816.6191 674.7344,816.4004 Q674.125,816.1816 673.5,816.1816 Q672.7344,816.1816 672.0938,816.5098 Q671.4688,816.8379 670.9688,817.5879 Q670.4844,818.3379 670.4844,819.3691 L670.4844,820.4629 Q670.4844,821.6973 671.375,822.5254 Q672.2656,823.3379 673.8594,823.3379 Q674.7969,823.3379 675.4531,823.0879 Q675.8438,822.9316 676.2656,822.4941 Q676.5313,822.2285 676.6719,822.1504 Q676.8281,822.0723 677.0313,822.0723 Q677.3594,822.0723 677.6094,822.3379 Q677.875,822.5879 677.875,822.9316 Q677.875,823.2754 677.5313,823.6816 Q677.0313,824.2598 676.2344,824.5879 Q675.1563,825.041 673.8594,825.041 Q672.3438,825.041 671.1406,824.416 Q670.1563,823.916 669.4688,822.8535 Q668.7813,821.7754 668.7813,820.4941 L668.7813,819.3379 Q668.7813,818.0098 669.3906,816.8691 Q670.0156,815.7129 671.1094,815.1035 Q672.2031,814.4785 673.4375,814.4785 Q674.1719,814.4785 674.8125,814.6504 Q675.4688,814.8066 676.0156,815.166 Z " fill="#000000"/><text fill="#000000" font-family="sans-serif" font-size="12" font-style="italic" lengthAdjust="spacing" textLength="73" x="708.75" y="814.9492">&#171;Repository&#187;</text><text fill="#000000" font-family="sans-serif" font-size="14" lengthAdjust="spacing" textLength="103" x="693.75" y="833.0684">PostItRepository</text><line style="stroke:#181818;stroke-width:0.5;" x1="523.5" x2="934.5" y1="841.582" y2="841.582"/><line style="stroke:#181818;stroke-width:0.5;" x1="523.5" x2="934.5" y1="849.582" y2="849.582"/><ellipse cx="533.5" cy="864.3926" fill="#84BE84" rx="3" ry="3" style="stroke:#038048;stroke-width:1.0;"/><text fill="#000000" font-family="sans-serif" font-size="14" lengthAdjust="spacing" textLength="387" x="542.5" y="868.6895">List&lt;PostIt&gt; findPostItsFromSharedBoard(sharedBoard, user)</text><ellipse cx="533.5" cy="883.0137" fill="#84BE84" rx="3" ry="3" style="stroke:#038048;stroke-width:1.0;"/><text fill="#000000" font-family="sans-serif" font-size="14" lengthAdjust="spacing" textLength="132" x="542.5" y="887.3105">PostIt: findPostIt(cell)</text><ellipse cx="533.5" cy="901.6348" fill="#84BE84" rx="3" ry="3" style="stroke:#038048;stroke-width:1.0;"/><text fill="#000000" font-family="sans-serif" font-size="14" lengthAdjust="spacing" textLength="108" x="542.5" y="905.9316">void: save(postIt)</text></g><!--class PostItHistoryBuilder--><g id="elem_PostItHistoryBuilder"><rect codeLine="53" fill="#F1F1F1" height="190.9297" id="PostItHistoryBuilder" rx="2.5" ry="2.5" style="stroke:#181818;stroke-width:0.5;" width="211" x="596.5" y="545"/><ellipse cx="637.15" cy="567.291" fill="#ADD1B2" rx="11" ry="11" style="stroke:#181818;stroke-width:1.0;"/><path d="M639.9156,563.166 Q640.0719,562.9473 640.2594,562.8379 Q640.4469,562.7285 640.6656,562.7285 Q641.0406,562.7285 641.275,562.9941 Q641.5094,563.2441 641.5094,563.8535 L641.5094,565.3066 Q641.5094,565.916 641.275,566.1816 Q641.0406,566.4473 640.6656,566.4473 Q640.3219,566.4473 640.1188,566.2441 Q639.9156,566.0566 639.8063,565.541 Q639.7594,565.1816 639.5719,564.9941 Q639.2438,564.6191 638.6344,564.4004 Q638.025,564.1816 637.4,564.1816 Q636.6344,564.1816 635.9938,564.5098 Q635.3688,564.8379 634.8688,565.5879 Q634.3844,566.3379 634.3844,567.3691 L634.3844,568.4629 Q634.3844,569.6973 635.275,570.5254 Q636.1656,571.3379 637.7594,571.3379 Q638.6969,571.3379 639.3531,571.0879 Q639.7438,570.9316 640.1656,570.4941 Q640.4313,570.2285 640.5719,570.1504 Q640.7281,570.0723 640.9313,570.0723 Q641.2594,570.0723 641.5094,570.3379 Q641.775,570.5879 641.775,570.9316 Q641.775,571.2754 641.4313,571.6816 Q640.9313,572.2598 640.1344,572.5879 Q639.0563,573.041 637.7594,573.041 Q636.2438,573.041 635.0406,572.416 Q634.0563,571.916 633.3688,570.8535 Q632.6813,569.7754 632.6813,568.4941 L632.6813,567.3379 Q632.6813,566.0098 633.2906,564.8691 Q633.9156,563.7129 635.0094,563.1035 Q636.1031,562.4785 637.3375,562.4785 Q638.0719,562.4785 638.7125,562.6504 Q639.3688,562.8066 639.9156,563.166 Z " fill="#000000"/><text fill="#000000" font-family="sans-serif" font-size="12" font-style="italic" lengthAdjust="spacing" textLength="53" x="691.35" y="562.9492">&#171;builder&#187;</text><text fill="#000000" font-family="sans-serif" font-size="14" lengthAdjust="spacing" textLength="122" x="656.85" y="581.0684">PostItHistoryBuilder</text><line style="stroke:#181818;stroke-width:0.5;" x1="597.5" x2="806.5" y1="589.582" y2="589.582"/><line style="stroke:#181818;stroke-width:0.5;" x1="597.5" x2="806.5" y1="597.582" y2="597.582"/><ellipse cx="607.5" cy="612.3926" fill="#84BE84" rx="3" ry="3" style="stroke:#038048;stroke-width:1.0;"/><text fill="#000000" font-family="sans-serif" font-size="14" lengthAdjust="spacing" textLength="103" x="616.5" y="616.6895">withPostIt(postIt)</text><ellipse cx="607.5" cy="631.0137" fill="#84BE84" rx="3" ry="3" style="stroke:#038048;stroke-width:1.0;"/><text fill="#000000" font-family="sans-serif" font-size="14" lengthAdjust="spacing" textLength="171" x="616.5" y="635.3105">withTimeStamp(timeStamp)</text><ellipse cx="607.5" cy="649.6348" fill="#84BE84" rx="3" ry="3" style="stroke:#038048;stroke-width:1.0;"/><text fill="#000000" font-family="sans-serif" font-size="14" lengthAdjust="spacing" textLength="153" x="616.5" y="653.9316">withOldContent(content)</text><ellipse cx="607.5" cy="668.2559" fill="#84BE84" rx="3" ry="3" style="stroke:#038048;stroke-width:1.0;"/><text fill="#000000" font-family="sans-serif" font-size="14" lengthAdjust="spacing" textLength="123" x="616.5" y="672.5527">withOldCell(oldCell)</text><ellipse cx="607.5" cy="686.877" fill="#84BE84" rx="3" ry="3" style="stroke:#038048;stroke-width:1.0;"/><text fill="#000000" font-family="sans-serif" font-size="14" lengthAdjust="spacing" textLength="185" x="616.5" y="691.1738">withNewContent(newContent)</text><ellipse cx="607.5" cy="705.498" fill="#84BE84" rx="3" ry="3" style="stroke:#038048;stroke-width:1.0;"/><text fill="#000000" font-family="sans-serif" font-size="14" lengthAdjust="spacing" textLength="133" x="616.5" y="709.7949">withNewCell(newCell)</text><ellipse cx="607.5" cy="724.1191" fill="#84BE84" rx="3" ry="3" style="stroke:#038048;stroke-width:1.0;"/><text fill="#000000" font-family="sans-serif" font-size="14" lengthAdjust="spacing" textLength="40" x="616.5" y="728.416">build()</text></g><!--class PostIt--><g id="elem_PostIt"><rect codeLine="63" fill="#F1F1F1" height="172.3086" id="PostIt" rx="2.5" ry="2.5" style="stroke:#181818;stroke-width:0.5;" width="180" x="639" y="992"/><ellipse cx="704.75" cy="1014.291" fill="#ADD1B2" rx="11" ry="11" style="stroke:#181818;stroke-width:1.0;"/><path d="M707.5156,1010.166 Q707.6719,1009.9473 707.8594,1009.8379 Q708.0469,1009.7285 708.2656,1009.7285 Q708.6406,1009.7285 708.875,1009.9941 Q709.1094,1010.2441 709.1094,1010.8535 L709.1094,1012.3066 Q709.1094,1012.916 708.875,1013.1816 Q708.6406,1013.4473 708.2656,1013.4473 Q707.9219,1013.4473 707.7188,1013.2441 Q707.5156,1013.0566 707.4063,1012.541 Q707.3594,1012.1816 707.1719,1011.9941 Q706.8438,1011.6191 706.2344,1011.4004 Q705.625,1011.1816 705,1011.1816 Q704.2344,1011.1816 703.5938,1011.5098 Q702.9688,1011.8379 702.4688,1012.5879 Q701.9844,1013.3379 701.9844,1014.3691 L701.9844,1015.4629 Q701.9844,1016.6973 702.875,1017.5254 Q703.7656,1018.3379 705.3594,1018.3379 Q706.2969,1018.3379 706.9531,1018.0879 Q707.3438,1017.9316 707.7656,1017.4941 Q708.0313,1017.2285 708.1719,1017.1504 Q708.3281,1017.0723 708.5313,1017.0723 Q708.8594,1017.0723 709.1094,1017.3379 Q709.375,1017.5879 709.375,1017.9316 Q709.375,1018.2754 709.0313,1018.6816 Q708.5313,1019.2598 707.7344,1019.5879 Q706.6563,1020.041 705.3594,1020.041 Q703.8438,1020.041 702.6406,1019.416 Q701.6563,1018.916 700.9688,1017.8535 Q700.2813,1016.7754 700.2813,1015.4941 L700.2813,1014.3379 Q700.2813,1013.0098 700.8906,1011.8691 Q701.5156,1010.7129 702.6094,1010.1035 Q703.7031,1009.4785 704.9375,1009.4785 Q705.6719,1009.4785 706.3125,1009.6504 Q706.9688,1009.8066 707.5156,1010.166 Z " fill="#000000"/><text fill="#000000" font-family="sans-serif" font-size="12" font-style="italic" lengthAdjust="spacing" textLength="44" x="723.25" y="1009.9492">&#171;Entity&#187;</text><text fill="#000000" font-family="sans-serif" font-size="14" lengthAdjust="spacing" textLength="35" x="727.75" y="1028.0684">PostIt</text><line style="stroke:#181818;stroke-width:0.5;" x1="640" x2="818" y1="1036.582" y2="1036.582"/><text fill="#000000" font-family="sans-serif" font-size="14" lengthAdjust="spacing" textLength="87" x="645" y="1055.6895">Long: postItID</text><text fill="#000000" font-family="sans-serif" font-size="14" lengthAdjust="spacing" textLength="92" x="645" y="1074.3105">String: content</text><text fill="#000000" font-family="sans-serif" font-size="14" lengthAdjust="spacing" textLength="121" x="645" y="1092.9316">SystemUser: owner</text><text fill="#000000" font-family="sans-serif" font-size="14" lengthAdjust="spacing" textLength="53" x="645" y="1111.5527">Cell: cell</text><line style="stroke:#181818;stroke-width:0.5;" x1="640" x2="818" y1="1119.0664" y2="1119.0664"/><ellipse cx="650" cy="1133.877" fill="#84BE84" rx="3" ry="3" style="stroke:#038048;stroke-width:1.0;"/><text fill="#000000" font-family="sans-serif" font-size="14" lengthAdjust="spacing" textLength="102" x="659" y="1138.1738">changeCell(cell)</text><ellipse cx="650" cy="1152.498" fill="#84BE84" rx="3" ry="3" style="stroke:#038048;stroke-width:1.0;"/><text fill="#000000" font-family="sans-serif" font-size="14" lengthAdjust="spacing" textLength="154" x="659" y="1156.7949">changeContent(content)</text></g><!--link ChangePostItUI to ChangePostItController--><g id="link_ChangePostItUI_ChangePostItController"><path codeLine="75" d="M507,68.27 C507,83.78 507,103.66 507,123.71 " fill="none" id="ChangePostItUI-to-ChangePostItController" style="stroke:#181818;stroke-width:1.0;stroke-dasharray:7.0,7.0;"/><polygon fill="#181818" points="507,128.81,511,119.81,507,123.81,503,119.81,507,128.81" style="stroke:#181818;stroke-width:1.0;"/></g><!--link ChangePostItController to TcpServerMessageHandler--><g id="link_ChangePostItController_TcpServerMessageHandler"><path codeLine="76" d="M507,301.28 C507,319.73 507,338.97 507,356.53 " fill="none" id="ChangePostItController-to-TcpServerMessageHandler" style="stroke:#181818;stroke-width:1.0;stroke-dasharray:7.0,7.0;"/><polygon fill="#181818" points="507,361.92,511,352.92,507,356.92,503,352.92,507,361.92" style="stroke:#181818;stroke-width:1.0;"/></g><!--link TcpServerMessageHandler to SharedBoardRepository--><g id="link_TcpServerMessageHandler_SharedBoardRepository"><path codeLine="77" d="M425.1,484.03 C384.61,513.71 335.86,549.44 295.31,579.16 " fill="none" id="TcpServerMessageHandler-to-SharedBoardRepository" style="stroke:#181818;stroke-width:1.0;stroke-dasharray:7.0,7.0;"/><polygon fill="#181818" points="290.92,582.39,300.5421,580.2889,294.9507,579.4313,295.8082,573.8399,290.92,582.39" style="stroke:#181818;stroke-width:1.0;"/></g><!--reverse link UserRepository to TcpServerMessageHandler--><g id="link_UserRepository_TcpServerMessageHandler"><path codeLine="78" d="M308.26,423 C318.09,423 327.93,423 337.76,423 " fill="none" id="UserRepository-backto-TcpServerMessageHandler" style="stroke:#181818;stroke-width:1.0;stroke-dasharray:7.0,7.0;"/><polygon fill="#181818" points="303.12,423,312.12,427,308.12,423,312.12,419,303.12,423" style="stroke:#181818;stroke-width:1.0;"/></g><!--link TcpServerMessageHandler to CellRepository--><g id="link_TcpServerMessageHandler_CellRepository"><path codeLine="79" d="M505.03,484.25 C500.33,550.61 485.02,658.22 436,736 C422.31,757.72 403.18,777.14 383.17,793.65 " fill="none" id="TcpServerMessageHandler-to-CellRepository" style="stroke:#181818;stroke-width:1.0;stroke-dasharray:7.0,7.0;"/><polygon fill="#181818" points="379.16,796.91,388.6685,794.3431,383.0419,793.7587,383.6263,788.1321,379.16,796.91" style="stroke:#181818;stroke-width:1.0;"/></g><!--link TcpServerMessageHandler to PostItRepository--><g id="link_TcpServerMessageHandler_PostItRepository"><path codeLine="80" d="M518.66,484.23 C535.36,568.81 565.58,714.85 579,736 C592.82,757.77 612.09,777.21 632.23,793.72 " fill="none" id="TcpServerMessageHandler-to-PostItRepository" style="stroke:#181818;stroke-width:1.0;stroke-dasharray:7.0,7.0;"/><polygon fill="#181818" points="636.27,796.98,631.7879,788.2101,632.3824,793.8357,626.7569,794.4302,636.27,796.98" style="stroke:#181818;stroke-width:1.0;"/></g><!--link TcpServerMessageHandler to PostItHistoryBuilder--><g id="link_TcpServerMessageHandler_PostItHistoryBuilder"><path codeLine="81" d="M561.32,484.03 C577.27,501.66 595.16,521.43 612.69,540.8 " fill="none" id="TcpServerMessageHandler-to-PostItHistoryBuilder" style="stroke:#181818;stroke-width:1.0;stroke-dasharray:7.0,7.0;"/><polygon fill="#181818" points="616.19,544.67,613.1246,535.3104,612.8381,540.9599,607.1885,540.6735,616.19,544.67" style="stroke:#181818;stroke-width:1.0;"/></g><!--link CellRepository to Cell--><g id="link_CellRepository_Cell"><path codeLine="82" d="M287,913.2 C287,938.36 287,968.38 287,995.8 " fill="none" id="CellRepository-to-Cell" style="stroke:#181818;stroke-width:1.0;"/><polygon fill="#181818" points="287,1000.88,291,991.88,287,995.88,283,991.88,287,1000.88" style="stroke:#181818;stroke-width:1.0;"/><polygon fill="#000000" points="292,957.6455,294.9389,948.6004,289.0611,948.6004,292,957.6455" style="stroke:#000000;stroke-width:1.0;"/><text fill="#000000" font-family="sans-serif" font-size="13" lengthAdjust="spacing" textLength="21" x="301" y="958.0283">has</text></g><!--link PostItRepository to PostIt--><g id="link_PostItRepository_PostIt"><path codeLine="83" d="M729,913.2 C729,935.53 729,961.67 729,986.44 " fill="none" id="PostItRepository-to-PostIt" style="stroke:#181818;stroke-width:1.0;"/><polygon fill="#181818" points="729,991.7,733,982.7,729,986.7,725,982.7,729,991.7" style="stroke:#181818;stroke-width:1.0;"/><polygon fill="#000000" points="734,957.6455,736.9389,948.6004,731.0611,948.6004,734,957.6455" style="stroke:#000000;stroke-width:1.0;"/><text fill="#000000" font-family="sans-serif" font-size="13" lengthAdjust="spacing" textLength="21" x="743" y="958.0283">has</text></g><!--SRC=[ZLNRRk8m47tFL_Wng9GFoA98XIugKWkh1Jx090EnvDZ8Tg2esdzVtqXCBhIy9CoS6P-PEPva54k9vWLcH_Z3fLggtH9DfxjbcgAlw5yKPHt0d3CbEAKWDB3vOmEG_ZsXFUSKC4EKIBKfi81ynh789Oeh2MBKWve3fTej6_0Abz27T1nygZ4A8cxeTusQRfGWx9WY-5G2PyhOOW7on9c4Hq13vCTWnwK5htkspKuR46SG7o0bFi8RPhbfckiIUZfpaYVeG5WUzcXzsEd2OXqc2MTZb6E5nuXNQjG9MmW0sxW-zAyEtB6jiHRQoLloin_pbgzL0S8Sq9zV5-ehDOp_mebBehYuQbKqVm9LD4ncrsNkfL1tA-Z1OAglkraq0McxYxw9eTg-ZP4lPqmetbDOSD493u2TcOMotH95Gn6OzdrRZ-kCn6U8CuqVTHfcXo3unMOVeupJgcJ-gA0y0tDrlL1QgsCXU3d0jaLKq_lD554rDQVt11bMorTh8ambI5DPLUKUH6Dod0AhlxG98j9GYQ90PPbT9zi2Z6UZiAfax6018oV3dud1OTD0vu_A7gDmj0v_TqUwKx33ELblX-ARPg0fpIf2SxiKz-wjvdWXgl2PRobg-vQKfWFbALQtjy2xfhdPiC0q9_TiEOqmk7i6dXLSRc6iVctvJIHpJ- -njEDEUHrLl7EZ2LU9LqKj57UKirsbWjBSf0Jn2_EoCESvGNb5E2rOEa7RlRLTkzavKUjhDPca0z-dQE2pPI86jdCqODSXlHjg28yc50vQaFUhSJZx9BtV58-GxOlnW7EVGAFxavwVxT4eGGMMA8tQsRNVw-26YFu3]--></g></svg>