<?xml version="1.0" encoding="us-ascii" standalone="no"?><svg xmlns="http://www.w3.org/2000/svg" xmlns:xlink="http://www.w3.org/1999/xlink" contentStyleType="text/css" height="374px" preserveAspectRatio="none" style="width:307px;height:374px;background:#FFFFFF;" version="1.1" viewBox="0 0 307 374" width="307px" zoomAndPan="magnify"><defs/><g><rect fill="#FFFFFF" height="188.7461" style="stroke:#181818;stroke-width:1.0;" width="10" x="17.5" y="93.6211"/><rect fill="#FFFFFF" height="31.291" style="stroke:#181818;stroke-width:1.0;" width="10" x="266.5" y="116.9121"/><rect fill="#FFFFFF" height="31.291" style="stroke:#181818;stroke-width:1.0;" width="10" x="266.5" y="179.4941"/><rect fill="#FFFFFF" height="31.291" style="stroke:#181818;stroke-width:1.0;" width="10" x="266.5" y="242.0762"/><line style="stroke:#181818;stroke-width:0.5;stroke-dasharray:5.0,5.0;" x1="22" x2="22" y1="83.6211" y2="291.3672"/><line style="stroke:#181818;stroke-width:0.5;stroke-dasharray:5.0,5.0;" x1="271.5" x2="271.5" y1="83.6211" y2="291.3672"/><text fill="#000000" font-family="FG Virgil" font-size="14" lengthAdjust="spacing" textLength="29" x="5" y="80.1074">User</text><ellipse cx="22.5" cy="13.5" fill="#E3E3E3" rx="8" ry="8" style="stroke:#181818;stroke-width:0.5;"/><path d="M22.5,21.5 L22.5,48.5 M9.5,29.5 L35.5,29.5 M22.5,48.5 L9.5,63.5 M22.5,48.5 L35.5,63.5 " fill="none" style="stroke:#181818;stroke-width:0.5;"/><text fill="#000000" font-family="FG Virgil" font-size="14" lengthAdjust="spacing" textLength="29" x="5" y="305.4746">User</text><ellipse cx="22.5" cy="317.4883" fill="#E3E3E3" rx="8" ry="8" style="stroke:#181818;stroke-width:0.5;"/><path d="M22.5,325.4883 L22.5,352.4883 M9.5,333.4883 L35.5,333.4883 M22.5,352.4883 L9.5,367.4883 M22.5,352.4883 L35.5,367.4883 " fill="none" style="stroke:#181818;stroke-width:0.5;"/><rect fill="#E3E3E3" height="32.6211" rx="2.5" ry="2.5" style="stroke:#181818;stroke-width:0.5;" width="60" x="241.5" y="50"/><text fill="#000000" font-family="FG Virgil" font-size="14" lengthAdjust="spacing" textLength="46" x="248.5" y="72.1074">System</text><rect fill="#E3E3E3" height="32.6211" rx="2.5" ry="2.5" style="stroke:#181818;stroke-width:0.5;" width="60" x="241.5" y="290.3672"/><text fill="#000000" font-family="FG Virgil" font-size="14" lengthAdjust="spacing" textLength="46" x="248.5" y="312.4746">System</text><rect fill="#FFFFFF" height="188.7461" style="stroke:#181818;stroke-width:1.0;" width="10" x="17.5" y="93.6211"/><rect fill="#FFFFFF" height="31.291" style="stroke:#181818;stroke-width:1.0;" width="10" x="266.5" y="116.9121"/><rect fill="#FFFFFF" height="31.291" style="stroke:#181818;stroke-width:1.0;" width="10" x="266.5" y="179.4941"/><rect fill="#FFFFFF" height="31.291" style="stroke:#181818;stroke-width:1.0;" width="10" x="266.5" y="242.0762"/><polygon fill="#181818" points="254.5,112.9121,264.5,116.9121,254.5,120.9121,258.5,116.9121" style="stroke:#181818;stroke-width:1.0;"/><line style="stroke:#181818;stroke-width:1.0;" x1="27.5" x2="260.5" y1="116.9121" y2="116.9121"/><text fill="#000000" font-family="FG Virgil" font-size="13" font-weight="bold" lengthAdjust="spacing" textLength="7" x="34.5" y="111.6494">1</text><text fill="#000000" font-family="FG Virgil" font-size="13" lengthAdjust="spacing" textLength="136" x="45.5" y="111.6494">Wants to undo a post it</text><polygon fill="#181818" points="38.5,144.2031,28.5,148.2031,38.5,152.2031,34.5,148.2031" style="stroke:#181818;stroke-width:1.0;"/><line style="stroke:#181818;stroke-width:1.0;stroke-dasharray:2.0,2.0;" x1="32.5" x2="270.5" y1="148.2031" y2="148.2031"/><text fill="#000000" font-family="FG Virgil" font-size="13" font-weight="bold" lengthAdjust="spacing" textLength="7" x="44.5" y="142.9404">2</text><text fill="#000000" font-family="FG Virgil" font-size="13" lengthAdjust="spacing" textLength="203" x="55.5" y="142.9404">Shows all sharedboards of the user</text><polygon fill="#181818" points="254.5,175.4941,264.5,179.4941,254.5,183.4941,258.5,179.4941" style="stroke:#181818;stroke-width:1.0;"/><line style="stroke:#181818;stroke-width:1.0;" x1="27.5" x2="260.5" y1="179.4941" y2="179.4941"/><text fill="#000000" font-family="FG Virgil" font-size="13" font-weight="bold" lengthAdjust="spacing" textLength="7" x="34.5" y="174.2314">3</text><text fill="#000000" font-family="FG Virgil" font-size="13" lengthAdjust="spacing" textLength="137" x="45.5" y="174.2314">Chooses a sharedboard</text><polygon fill="#181818" points="38.5,206.7852,28.5,210.7852,38.5,214.7852,34.5,210.7852" style="stroke:#181818;stroke-width:1.0;"/><line style="stroke:#181818;stroke-width:1.0;stroke-dasharray:2.0,2.0;" x1="32.5" x2="270.5" y1="210.7852" y2="210.7852"/><text fill="#000000" font-family="FG Virgil" font-size="13" font-weight="bold" lengthAdjust="spacing" textLength="7" x="44.5" y="205.5225">4</text><text fill="#000000" font-family="FG Virgil" font-size="13" lengthAdjust="spacing" textLength="204" x="55.5" y="205.5225">gives all post its of the sharedboard</text><polygon fill="#181818" points="254.5,238.0762,264.5,242.0762,254.5,246.0762,258.5,242.0762" style="stroke:#181818;stroke-width:1.0;"/><line style="stroke:#181818;stroke-width:1.0;" x1="27.5" x2="260.5" y1="242.0762" y2="242.0762"/><text fill="#000000" font-family="FG Virgil" font-size="13" font-weight="bold" lengthAdjust="spacing" textLength="7" x="34.5" y="236.8135">5</text><text fill="#000000" font-family="FG Virgil" font-size="13" lengthAdjust="spacing" textLength="102" x="45.5" y="236.8135">Chooses a post it</text><polygon fill="#181818" points="38.5,269.3672,28.5,273.3672,38.5,277.3672,34.5,273.3672" style="stroke:#181818;stroke-width:1.0;"/><line style="stroke:#181818;stroke-width:1.0;stroke-dasharray:2.0,2.0;" x1="32.5" x2="270.5" y1="273.3672" y2="273.3672"/><text fill="#000000" font-family="FG Virgil" font-size="13" font-weight="bold" lengthAdjust="spacing" textLength="7" x="44.5" y="268.1045">6</text><text fill="#000000" font-family="FG Virgil" font-size="13" lengthAdjust="spacing" textLength="154" x="55.5" y="268.1045">shows operations success</text><!--SRC=[bOynJyGm38Nt_WflJALx1nQaOsEfWDcNk4rqILnYvqxtxqbR1DK9WPYS-DdlyxjpghFqNJS7J5fYk3SSEw7tGibGQprE6MCZ9vzch2-8dDYup950Sw6TCgCvuKI3NWD19gCxpTA89UY1apvZNJqymQlFam-x6N5e-UBJ12C6eGQBSYhnIBbfq2XdU17AWBBMfUNFgBJzLgbzWE4gIh67jvf6G1bAiWm8Cuk2r- -jRR3P2hHrTRNeON1y4S0GbeCosIDZjW8yWZg2ii0itThSuXyTir2rsPly1UzXycVQs9_tVd7tDl_1_vwxaZUmhA5vfepgEGb8COP4Vc1z0000]--></g></svg>