<?xml version="1.0" encoding="us-ascii" standalone="no"?><svg xmlns="http://www.w3.org/2000/svg" xmlns:xlink="http://www.w3.org/1999/xlink" contentStyleType="text/css" height="745px" preserveAspectRatio="none" style="width:864px;height:745px;background:#FFFFFF;" version="1.1" viewBox="0 0 864 745" width="864px" zoomAndPan="magnify"><defs/><g><rect fill="#FFFFFF" height="526.1465" style="stroke:#181818;stroke-width:1.0;" width="10" x="229.5" y="115.2871"/><rect fill="#FFFFFF" height="357.7266" style="stroke:#181818;stroke-width:1.0;" width="10" x="483.5" y="203.0859"/><rect fill="#FFFFFF" height="29.3105" style="stroke:#181818;stroke-width:1.0;" width="10" x="779.5" y="315.3281"/><rect fill="#FFFFFF" height="29.3105" style="stroke:#181818;stroke-width:1.0;" width="10" x="779.5" y="405.2598"/><rect fill="#FFFFFF" height="29.3105" style="stroke:#181818;stroke-width:1.0;" width="10" x="779.5" y="495.1914"/><rect fill="none" height="75.9316" style="stroke:#000000;stroke-width:1.5;" width="487" x="371.5" y="276.707"/><rect fill="none" height="75.9316" style="stroke:#000000;stroke-width:1.5;" width="487" x="371.5" y="366.6387"/><rect fill="none" height="75.9316" style="stroke:#000000;stroke-width:1.5;" width="487" x="371.5" y="456.5703"/><line style="stroke:#181818;stroke-width:0.5;stroke-dasharray:5.0,5.0;" x1="25" x2="25" y1="83.9766" y2="650.4336"/><line style="stroke:#181818;stroke-width:0.5;stroke-dasharray:5.0,5.0;" x1="234.5" x2="234.5" y1="83.9766" y2="650.4336"/><line style="stroke:#181818;stroke-width:0.5;stroke-dasharray:5.0,5.0;" x1="488.5" x2="488.5" y1="162.5313" y2="650.4336"/><line style="stroke:#181818;stroke-width:0.5;stroke-dasharray:5.0,5.0;" x1="657.5" x2="657.5" y1="83.9766" y2="650.4336"/><line style="stroke:#181818;stroke-width:0.5;stroke-dasharray:5.0,5.0;" x1="784.5" x2="784.5" y1="83.9766" y2="650.4336"/><text fill="#000000" font-family="FG Virgil" font-size="14" lengthAdjust="spacing" textLength="35" x="5" y="81.0234">USER</text><ellipse cx="25.5" cy="15.9883" fill="#E3E3E3" rx="8" ry="8" style="stroke:#181818;stroke-width:0.5;"/><path d="M25.5,23.9883 L25.5,50.9883 M12.5,31.9883 L38.5,31.9883 M25.5,50.9883 L12.5,65.9883 M25.5,50.9883 L38.5,65.9883 " fill="none" style="stroke:#181818;stroke-width:0.5;"/><text fill="#000000" font-family="FG Virgil" font-size="14" lengthAdjust="spacing" textLength="35" x="5" y="662.9688">USER</text><ellipse cx="25.5" cy="674.4219" fill="#E3E3E3" rx="8" ry="8" style="stroke:#181818;stroke-width:0.5;"/><path d="M25.5,682.4219 L25.5,709.4219 M12.5,690.4219 L38.5,690.4219 M25.5,709.4219 L12.5,724.4219 M25.5,709.4219 L38.5,724.4219 " fill="none" style="stroke:#181818;stroke-width:0.5;"/><rect fill="#E3E3E3" height="46.9766" rx="2.5" ry="2.5" style="stroke:#181818;stroke-width:0.5;" width="166" x="151.5" y="36"/><text fill="#000000" font-family="FG Virgil" font-size="14" font-style="italic" lengthAdjust="spacing" textLength="101" x="184" y="56.5352">&#171;presentation&#187;</text><text fill="#000000" font-family="FG Virgil" font-size="14" lengthAdjust="spacing" textLength="152" x="158.5" y="73.0234">listAvailableCoursesUI</text><rect fill="#E3E3E3" height="46.9766" rx="2.5" ry="2.5" style="stroke:#181818;stroke-width:0.5;" width="166" x="151.5" y="649.4336"/><text fill="#000000" font-family="FG Virgil" font-size="14" font-style="italic" lengthAdjust="spacing" textLength="101" x="184" y="669.9688">&#171;presentation&#187;</text><text fill="#000000" font-family="FG Virgil" font-size="14" lengthAdjust="spacing" textLength="152" x="158.5" y="686.457">listAvailableCoursesUI</text><text fill="#000000" font-family="FG Virgil" font-size="14" lengthAdjust="spacing" textLength="208" x="381.5" y="662.9688">listAvailableCoursesController</text><ellipse cx="488.5" cy="681.9219" fill="#E3E3E3" rx="12" ry="12" style="stroke:#181818;stroke-width:0.5;"/><polygon fill="#181818" points="484.5,669.9219,490.5,664.9219,488.5,669.9219,490.5,674.9219,484.5,669.9219" style="stroke:#181818;stroke-width:1.0;"/><rect fill="#E3E3E3" height="46.9766" rx="2.5" ry="2.5" style="stroke:#181818;stroke-width:0.5;" width="105" x="605.5" y="36"/><text fill="#000000" font-family="FG Virgil" font-size="14" font-style="italic" lengthAdjust="spacing" textLength="66" x="625" y="56.5352">&#171;domain&#187;</text><text fill="#000000" font-family="FG Virgil" font-size="14" lengthAdjust="spacing" textLength="91" x="612.5" y="73.0234">theUser: user</text><rect fill="#E3E3E3" height="46.9766" rx="2.5" ry="2.5" style="stroke:#181818;stroke-width:0.5;" width="105" x="605.5" y="649.4336"/><text fill="#000000" font-family="FG Virgil" font-size="14" font-style="italic" lengthAdjust="spacing" textLength="66" x="625" y="669.9688">&#171;domain&#187;</text><text fill="#000000" font-family="FG Virgil" font-size="14" lengthAdjust="spacing" textLength="91" x="612.5" y="686.457">theUser: user</text><text fill="#000000" font-family="FG Virgil" font-size="14" font-style="italic" lengthAdjust="spacing" textLength="84" x="739.5" y="64.5352">&#171;repository&#187;</text><text fill="#000000" font-family="FG Virgil" font-size="14" lengthAdjust="spacing" textLength="122" x="720.5" y="81.0234">CourseRepository</text><path d="M766.5,15 C766.5,5 784.5,5 784.5,5 C784.5,5 802.5,5 802.5,15 L802.5,41 C802.5,51 784.5,51 784.5,51 C784.5,51 766.5,51 766.5,41 L766.5,15 " fill="#E3E3E3" style="stroke:#181818;stroke-width:1.5;"/><path d="M766.5,15 C766.5,25 784.5,25 784.5,25 C784.5,25 802.5,25 802.5,15 " fill="none" style="stroke:#181818;stroke-width:1.5;"/><text fill="#000000" font-family="FG Virgil" font-size="14" font-style="italic" lengthAdjust="spacing" textLength="84" x="739.5" y="662.9688">&#171;repository&#187;</text><text fill="#000000" font-family="FG Virgil" font-size="14" lengthAdjust="spacing" textLength="122" x="720.5" y="679.457">CourseRepository</text><path d="M766.5,692.4102 C766.5,682.4102 784.5,682.4102 784.5,682.4102 C784.5,682.4102 802.5,682.4102 802.5,692.4102 L802.5,718.4102 C802.5,728.4102 784.5,728.4102 784.5,728.4102 C784.5,728.4102 766.5,728.4102 766.5,718.4102 L766.5,692.4102 " fill="#E3E3E3" style="stroke:#181818;stroke-width:1.5;"/><path d="M766.5,692.4102 C766.5,702.4102 784.5,702.4102 784.5,702.4102 C784.5,702.4102 802.5,702.4102 802.5,692.4102 " fill="none" style="stroke:#181818;stroke-width:1.5;"/><rect fill="#FFFFFF" height="526.1465" style="stroke:#181818;stroke-width:1.0;" width="10" x="229.5" y="115.2871"/><rect fill="#FFFFFF" height="357.7266" style="stroke:#181818;stroke-width:1.0;" width="10" x="483.5" y="203.0859"/><rect fill="#FFFFFF" height="29.3105" style="stroke:#181818;stroke-width:1.0;" width="10" x="779.5" y="315.3281"/><rect fill="#FFFFFF" height="29.3105" style="stroke:#181818;stroke-width:1.0;" width="10" x="779.5" y="405.2598"/><rect fill="#FFFFFF" height="29.3105" style="stroke:#181818;stroke-width:1.0;" width="10" x="779.5" y="495.1914"/><polygon fill="#181818" points="217.5,111.2871,227.5,115.2871,217.5,119.2871,221.5,115.2871" style="stroke:#181818;stroke-width:1.0;"/><line style="stroke:#181818;stroke-width:1.0;" x1="25.5" x2="223.5" y1="115.2871" y2="115.2871"/><text fill="#000000" font-family="FG Virgil" font-size="13" font-weight="bold" lengthAdjust="spacing" textLength="9" x="32.5" y="110.5449">1</text><text fill="#000000" font-family="FG Virgil" font-size="13" lengthAdjust="spacing" textLength="172" x="45.5" y="110.5449">list available courses to me</text><polygon fill="#181818" points="369.5,140.5977,379.5,144.5977,369.5,148.5977,373.5,144.5977" style="stroke:#181818;stroke-width:1.0;"/><line style="stroke:#181818;stroke-width:1.0;" x1="239.5" x2="375.5" y1="144.5977" y2="144.5977"/><text fill="#000000" font-family="FG Virgil" font-size="13" font-weight="bold" lengthAdjust="spacing" textLength="9" x="246.5" y="139.8555">2</text><text fill="#000000" font-family="FG Virgil" font-size="13" lengthAdjust="spacing" textLength="46" x="259.5" y="139.8555">create()</text><text fill="#000000" font-family="FG Virgil" font-size="14" lengthAdjust="spacing" textLength="208" x="381.5" y="168.8223">listAvailableCoursesController</text><ellipse cx="488.5" cy="139.2871" fill="#E3E3E3" rx="12" ry="12" style="stroke:#181818;stroke-width:0.5;"/><polygon fill="#181818" points="484.5,127.2871,490.5,122.2871,488.5,127.2871,490.5,132.2871,484.5,127.2871" style="stroke:#181818;stroke-width:1.0;"/><polygon fill="#181818" points="471.5,199.0859,481.5,203.0859,471.5,207.0859,475.5,203.0859" style="stroke:#181818;stroke-width:1.0;"/><line style="stroke:#181818;stroke-width:1.0;" x1="239.5" x2="477.5" y1="203.0859" y2="203.0859"/><text fill="#000000" font-family="FG Virgil" font-size="13" font-weight="bold" lengthAdjust="spacing" textLength="9" x="246.5" y="198.3438">3</text><text fill="#000000" font-family="FG Virgil" font-size="13" lengthAdjust="spacing" textLength="212" x="259.5" y="198.3438">listCoursesAvailableForUser(User)</text><polygon fill="#181818" points="646,228.3965,656,232.3965,646,236.3965,650,232.3965" style="stroke:#181818;stroke-width:1.0;"/><line style="stroke:#181818;stroke-width:1.0;" x1="493.5" x2="652" y1="232.3965" y2="232.3965"/><text fill="#000000" font-family="FG Virgil" font-size="13" font-weight="bold" lengthAdjust="spacing" textLength="9" x="500.5" y="227.6543">4</text><text fill="#000000" font-family="FG Virgil" font-size="13" lengthAdjust="spacing" textLength="83" x="513.5" y="227.6543">getUserRole()</text><polygon fill="#181818" points="504.5,257.707,494.5,261.707,504.5,265.707,500.5,261.707" style="stroke:#181818;stroke-width:1.0;"/><line style="stroke:#181818;stroke-width:1.0;stroke-dasharray:2.0,2.0;" x1="498.5" x2="657" y1="261.707" y2="261.707"/><text fill="#000000" font-family="FG Virgil" font-size="13" font-weight="bold" lengthAdjust="spacing" textLength="9" x="510.5" y="256.9648">5</text><text fill="#000000" font-family="FG Virgil" font-size="13" lengthAdjust="spacing" textLength="4" x="523.5" y="256.9648">&#160;</text><path d="M371.5,276.707 L433.5,276.707 L433.5,284.0176 L423.5,294.0176 L371.5,294.0176 L371.5,276.707 " fill="#EEEEEE" style="stroke:#000000;stroke-width:1.5;"/><rect fill="none" height="75.9316" style="stroke:#000000;stroke-width:1.5;" width="487" x="371.5" y="276.707"/><text fill="#000000" font-family="FG Virgil" font-size="13" font-weight="bold" lengthAdjust="spacing" textLength="17" x="386.5" y="290.2754">alt</text><text fill="#000000" font-family="FG Virgil" font-size="11" font-weight="bold" lengthAdjust="spacing" textLength="152" x="448.5" y="289.3418">[if userRole == 'Manager':]</text><polygon fill="#181818" points="767.5,311.3281,777.5,315.3281,767.5,319.3281,771.5,315.3281" style="stroke:#181818;stroke-width:1.0;"/><line style="stroke:#181818;stroke-width:1.0;" x1="493.5" x2="773.5" y1="315.3281" y2="315.3281"/><text fill="#000000" font-family="FG Virgil" font-size="13" font-weight="bold" lengthAdjust="spacing" textLength="9" x="500.5" y="310.5859">6</text><text fill="#000000" font-family="FG Virgil" font-size="13" lengthAdjust="spacing" textLength="50" x="513.5" y="310.5859">findAll()</text><polygon fill="#181818" points="504.5,340.6387,494.5,344.6387,504.5,348.6387,500.5,344.6387" style="stroke:#181818;stroke-width:1.0;"/><line style="stroke:#181818;stroke-width:1.0;stroke-dasharray:2.0,2.0;" x1="498.5" x2="783.5" y1="344.6387" y2="344.6387"/><text fill="#000000" font-family="FG Virgil" font-size="13" font-weight="bold" lengthAdjust="spacing" textLength="9" x="510.5" y="339.8965">7</text><text fill="#000000" font-family="FG Virgil" font-size="13" lengthAdjust="spacing" textLength="4" x="523.5" y="339.8965">&#160;</text><path d="M371.5,366.6387 L433.5,366.6387 L433.5,373.9492 L423.5,383.9492 L371.5,383.9492 L371.5,366.6387 " fill="#EEEEEE" style="stroke:#000000;stroke-width:1.5;"/><rect fill="none" height="75.9316" style="stroke:#000000;stroke-width:1.5;" width="487" x="371.5" y="366.6387"/><text fill="#000000" font-family="FG Virgil" font-size="13" font-weight="bold" lengthAdjust="spacing" textLength="17" x="386.5" y="380.207">alt</text><text fill="#000000" font-family="FG Virgil" font-size="11" font-weight="bold" lengthAdjust="spacing" textLength="149" x="448.5" y="379.2734">[if userRole == 'Teacher':]</text><polygon fill="#181818" points="767.5,401.2598,777.5,405.2598,767.5,409.2598,771.5,405.2598" style="stroke:#181818;stroke-width:1.0;"/><line style="stroke:#181818;stroke-width:1.0;" x1="493.5" x2="773.5" y1="405.2598" y2="405.2598"/><text fill="#000000" font-family="FG Virgil" font-size="13" font-weight="bold" lengthAdjust="spacing" textLength="9" x="500.5" y="400.5176">8</text><text fill="#000000" font-family="FG Virgil" font-size="13" lengthAdjust="spacing" textLength="203" x="513.5" y="400.5176">findCoursesListForTeacher(user)</text><polygon fill="#181818" points="504.5,430.5703,494.5,434.5703,504.5,438.5703,500.5,434.5703" style="stroke:#181818;stroke-width:1.0;"/><line style="stroke:#181818;stroke-width:1.0;stroke-dasharray:2.0,2.0;" x1="498.5" x2="783.5" y1="434.5703" y2="434.5703"/><text fill="#000000" font-family="FG Virgil" font-size="13" font-weight="bold" lengthAdjust="spacing" textLength="9" x="510.5" y="429.8281">9</text><text fill="#000000" font-family="FG Virgil" font-size="13" lengthAdjust="spacing" textLength="4" x="523.5" y="429.8281">&#160;</text><path d="M371.5,456.5703 L433.5,456.5703 L433.5,463.8809 L423.5,473.8809 L371.5,473.8809 L371.5,456.5703 " fill="#EEEEEE" style="stroke:#000000;stroke-width:1.5;"/><rect fill="none" height="75.9316" style="stroke:#000000;stroke-width:1.5;" width="487" x="371.5" y="456.5703"/><text fill="#000000" font-family="FG Virgil" font-size="13" font-weight="bold" lengthAdjust="spacing" textLength="17" x="386.5" y="470.1387">alt</text><text fill="#000000" font-family="FG Virgil" font-size="11" font-weight="bold" lengthAdjust="spacing" textLength="146" x="448.5" y="469.2051">[if userRole == 'Student':]</text><polygon fill="#181818" points="767.5,491.1914,777.5,495.1914,767.5,499.1914,771.5,495.1914" style="stroke:#181818;stroke-width:1.0;"/><line style="stroke:#181818;stroke-width:1.0;" x1="493.5" x2="773.5" y1="495.1914" y2="495.1914"/><text fill="#000000" font-family="FG Virgil" font-size="13" font-weight="bold" lengthAdjust="spacing" textLength="18" x="500.5" y="490.4492">10</text><text fill="#000000" font-family="FG Virgil" font-size="13" lengthAdjust="spacing" textLength="202" x="522.5" y="490.4492">findCoursesListForStudent(user)</text><polygon fill="#181818" points="504.5,520.502,494.5,524.502,504.5,528.502,500.5,524.502" style="stroke:#181818;stroke-width:1.0;"/><line style="stroke:#181818;stroke-width:1.0;stroke-dasharray:2.0,2.0;" x1="498.5" x2="783.5" y1="524.502" y2="524.502"/><text fill="#000000" font-family="FG Virgil" font-size="13" font-weight="bold" lengthAdjust="spacing" textLength="18" x="510.5" y="519.7598">11</text><text fill="#000000" font-family="FG Virgil" font-size="13" lengthAdjust="spacing" textLength="4" x="532.5" y="519.7598">&#160;</text><polygon fill="#181818" points="250.5,556.8125,240.5,560.8125,250.5,564.8125,246.5,560.8125" style="stroke:#181818;stroke-width:1.0;"/><line style="stroke:#181818;stroke-width:1.0;stroke-dasharray:2.0,2.0;" x1="244.5" x2="487.5" y1="560.8125" y2="560.8125"/><text fill="#000000" font-family="FG Virgil" font-size="13" font-weight="bold" lengthAdjust="spacing" textLength="18" x="256.5" y="556.0703">12</text><text fill="#000000" font-family="FG Virgil" font-size="13" lengthAdjust="spacing" textLength="4" x="278.5" y="556.0703">&#160;</text><line style="stroke:#181818;stroke-width:1.0;" x1="239.5" x2="281.5" y1="590.123" y2="590.123"/><line style="stroke:#181818;stroke-width:1.0;" x1="281.5" x2="281.5" y1="590.123" y2="603.123"/><line style="stroke:#181818;stroke-width:1.0;" x1="240.5" x2="281.5" y1="603.123" y2="603.123"/><polygon fill="#181818" points="250.5,599.123,240.5,603.123,250.5,607.123,246.5,603.123" style="stroke:#181818;stroke-width:1.0;"/><text fill="#000000" font-family="FG Virgil" font-size="13" font-weight="bold" lengthAdjust="spacing" textLength="18" x="246.5" y="585.3809">13</text><text fill="#000000" font-family="FG Virgil" font-size="13" lengthAdjust="spacing" textLength="178" x="268.5" y="585.3809">output Courses List for User</text><polygon fill="#181818" points="36.5,628.4336,26.5,632.4336,36.5,636.4336,32.5,632.4336" style="stroke:#181818;stroke-width:1.0;"/><line style="stroke:#181818;stroke-width:1.0;stroke-dasharray:2.0,2.0;" x1="30.5" x2="228.5" y1="632.4336" y2="632.4336"/><text fill="#000000" font-family="FG Virgil" font-size="13" font-weight="bold" lengthAdjust="spacing" textLength="18" x="42.5" y="627.6914">14</text><text fill="#000000" font-family="FG Virgil" font-size="13" lengthAdjust="spacing" textLength="4" x="64.5" y="627.6914">&#160;</text><!--SRC=[lLHDRzim3BthLn2z93sqkHjkWA1OXWBR3icoEsFJiL1PCYIgG__zHCVrj69TFEp31o4C-HxvdZuMBNDVh5QzGSknCxULwrRXKTiUFNQtBNT6JI5qphggzQuZO1yfo_HOFUA9zlni23nLdELgQZ0QtZhBdp11j-_XY_OddJE75cltLTiJD6W2AOMHdOtTaNpwNR7pSDY_sm46s4Ya4enrfViqDXWTUFE4sk3HqBsBFb0uF4XjMikoznJ8Ch9sThrMIWqCSBEMT36W0L_WK9tnm0uwajRw2PbIgOBqLPuagf8MxynFEz-VSoPDBeZK8tNwTM6QuaoylFuTZ1IC_qzrM-SFWVnIbciri4qQPaoRsth5BGbD0J6jLuEViWTbMRiEjNWfa1ePZnW8pemxwbtGoU1d0MHHMVefa6qGx0M9iaNIiO0JiOooSsRoI18t5sqQBJ0CkXbq20NStS7Y8zfqOlsY62hcJPF9AQ3HjjuOCyxpWzFVwwQSV1bynkGlg9hUuYLRlwtlSuArVwflhFgGaEbaZPJBE1okEQh_g-8znpfTz4pnNr4zqhvI_U_sUwO3btIDxvjwHNVfkgZi1Jey5E0Yzv77onr0F856dkEGFN2fTdoNrJS0]--></g></svg>