<?xml version="1.0" encoding="us-ascii" standalone="no"?><svg xmlns="http://www.w3.org/2000/svg" xmlns:xlink="http://www.w3.org/1999/xlink" contentStyleType="text/css" height="475px" preserveAspectRatio="none" style="width:1139px;height:475px;background:#FFFFFF;" version="1.1" viewBox="0 0 1139 475" width="1139px" zoomAndPan="magnify"><defs/><g><rect fill="#FFFFFF" height="247.3516" style="stroke:#181818;stroke-width:1.0;" width="10" x="328.5" y="115.2871"/><rect fill="#FFFFFF" height="87.9316" style="stroke:#181818;stroke-width:1.0;" width="10" x="752.5" y="203.0859"/><rect fill="#FFFFFF" height="29.3105" style="stroke:#181818;stroke-width:1.0;" width="10" x="1062.5" y="232.3965"/><line style="stroke:#181818;stroke-width:0.5;stroke-dasharray:5.0,5.0;" x1="35" x2="35" y1="83.9766" y2="380.6387"/><line style="stroke:#181818;stroke-width:0.5;stroke-dasharray:5.0,5.0;" x1="333.5" x2="333.5" y1="83.9766" y2="380.6387"/><line style="stroke:#181818;stroke-width:0.5;stroke-dasharray:5.0,5.0;" x1="533.5" x2="533.5" y1="83.9766" y2="380.6387"/><line style="stroke:#181818;stroke-width:0.5;stroke-dasharray:5.0,5.0;" x1="757.5" x2="757.5" y1="162.5313" y2="380.6387"/><line style="stroke:#181818;stroke-width:0.5;stroke-dasharray:5.0,5.0;" x1="1067.5" x2="1067.5" y1="83.9766" y2="380.6387"/><text fill="#000000" font-family="FG Virgil" font-size="14" lengthAdjust="spacing" textLength="55" x="5" y="81.0234">Teacher</text><ellipse cx="35.5" cy="15.9883" fill="#E3E3E3" rx="8" ry="8" style="stroke:#181818;stroke-width:0.5;"/><path d="M35.5,23.9883 L35.5,50.9883 M22.5,31.9883 L48.5,31.9883 M35.5,50.9883 L22.5,65.9883 M35.5,50.9883 L48.5,65.9883 " fill="none" style="stroke:#181818;stroke-width:0.5;"/><text fill="#000000" font-family="FG Virgil" font-size="14" lengthAdjust="spacing" textLength="55" x="5" y="393.1738">Teacher</text><ellipse cx="35.5" cy="404.627" fill="#E3E3E3" rx="8" ry="8" style="stroke:#181818;stroke-width:0.5;"/><path d="M35.5,412.627 L35.5,439.627 M22.5,420.627 L48.5,420.627 M35.5,439.627 L22.5,454.627 M35.5,439.627 L48.5,454.627 " fill="none" style="stroke:#181818;stroke-width:0.5;"/><rect fill="#E3E3E3" height="46.9766" rx="2.5" ry="2.5" style="stroke:#181818;stroke-width:0.5;" width="166" x="250.5" y="36"/><text fill="#000000" font-family="FG Virgil" font-size="14" font-style="italic" lengthAdjust="spacing" textLength="101" x="283" y="56.5352">&#171;presentation&#187;</text><text fill="#000000" font-family="FG Virgil" font-size="14" lengthAdjust="spacing" textLength="152" x="257.5" y="73.0234">listAvailableCoursesUI</text><rect fill="#E3E3E3" height="46.9766" rx="2.5" ry="2.5" style="stroke:#181818;stroke-width:0.5;" width="166" x="250.5" y="379.6387"/><text fill="#000000" font-family="FG Virgil" font-size="14" font-style="italic" lengthAdjust="spacing" textLength="101" x="283" y="400.1738">&#171;presentation&#187;</text><text fill="#000000" font-family="FG Virgil" font-size="14" lengthAdjust="spacing" textLength="152" x="257.5" y="416.6621">listAvailableCoursesUI</text><text fill="#000000" font-family="FG Virgil" font-size="14" font-style="italic" lengthAdjust="spacing" textLength="90" x="485.5" y="64.5352">&#171;application&#187;</text><text fill="#000000" font-family="FG Virgil" font-size="14" lengthAdjust="spacing" textLength="208" x="426.5" y="81.0234">listAvailableCoursesController</text><ellipse cx="533.5" cy="35" fill="#E3E3E3" rx="12" ry="12" style="stroke:#181818;stroke-width:0.5;"/><polygon fill="#181818" points="529.5,23,535.5,18,533.5,23,535.5,28,529.5,23" style="stroke:#181818;stroke-width:1.0;"/><text fill="#000000" font-family="FG Virgil" font-size="14" font-style="italic" lengthAdjust="spacing" textLength="90" x="485.5" y="393.1738">&#171;application&#187;</text><text fill="#000000" font-family="FG Virgil" font-size="14" lengthAdjust="spacing" textLength="208" x="426.5" y="409.6621">listAvailableCoursesController</text><ellipse cx="533.5" cy="428.6152" fill="#E3E3E3" rx="12" ry="12" style="stroke:#181818;stroke-width:0.5;"/><polygon fill="#181818" points="529.5,416.6152,535.5,411.6152,533.5,416.6152,535.5,421.6152,529.5,416.6152" style="stroke:#181818;stroke-width:1.0;"/><text fill="#000000" font-family="FG Virgil" font-size="14" lengthAdjust="spacing" textLength="208" x="650.5" y="393.1738">listAvailableCoursesController</text><ellipse cx="757.5" cy="412.127" fill="#E3E3E3" rx="12" ry="12" style="stroke:#181818;stroke-width:0.5;"/><polygon fill="#181818" points="753.5,400.127,759.5,395.127,757.5,400.127,759.5,405.127,753.5,400.127" style="stroke:#181818;stroke-width:1.0;"/><text fill="#000000" font-family="FG Virgil" font-size="14" font-style="italic" lengthAdjust="spacing" textLength="84" x="1022.5" y="64.5352">&#171;repository&#187;</text><text fill="#000000" font-family="FG Virgil" font-size="14" lengthAdjust="spacing" textLength="136" x="996.5" y="81.0234">TeachingRepository</text><path d="M1049.5,15 C1049.5,5 1067.5,5 1067.5,5 C1067.5,5 1085.5,5 1085.5,15 L1085.5,41 C1085.5,51 1067.5,51 1067.5,51 C1067.5,51 1049.5,51 1049.5,41 L1049.5,15 " fill="#E3E3E3" style="stroke:#181818;stroke-width:1.5;"/><path d="M1049.5,15 C1049.5,25 1067.5,25 1067.5,25 C1067.5,25 1085.5,25 1085.5,15 " fill="none" style="stroke:#181818;stroke-width:1.5;"/><text fill="#000000" font-family="FG Virgil" font-size="14" font-style="italic" lengthAdjust="spacing" textLength="84" x="1022.5" y="393.1738">&#171;repository&#187;</text><text fill="#000000" font-family="FG Virgil" font-size="14" lengthAdjust="spacing" textLength="136" x="996.5" y="409.6621">TeachingRepository</text><path d="M1049.5,422.6152 C1049.5,412.6152 1067.5,412.6152 1067.5,412.6152 C1067.5,412.6152 1085.5,412.6152 1085.5,422.6152 L1085.5,448.6152 C1085.5,458.6152 1067.5,458.6152 1067.5,458.6152 C1067.5,458.6152 1049.5,458.6152 1049.5,448.6152 L1049.5,422.6152 " fill="#E3E3E3" style="stroke:#181818;stroke-width:1.5;"/><path d="M1049.5,422.6152 C1049.5,432.6152 1067.5,432.6152 1067.5,432.6152 C1067.5,432.6152 1085.5,432.6152 1085.5,422.6152 " fill="none" style="stroke:#181818;stroke-width:1.5;"/><rect fill="#FFFFFF" height="247.3516" style="stroke:#181818;stroke-width:1.0;" width="10" x="328.5" y="115.2871"/><rect fill="#FFFFFF" height="87.9316" style="stroke:#181818;stroke-width:1.0;" width="10" x="752.5" y="203.0859"/><rect fill="#FFFFFF" height="29.3105" style="stroke:#181818;stroke-width:1.0;" width="10" x="1062.5" y="232.3965"/><polygon fill="#181818" points="316.5,111.2871,326.5,115.2871,316.5,119.2871,320.5,115.2871" style="stroke:#181818;stroke-width:1.0;"/><line style="stroke:#181818;stroke-width:1.0;" x1="35.5" x2="322.5" y1="115.2871" y2="115.2871"/><text fill="#000000" font-family="FG Virgil" font-size="13" font-weight="bold" lengthAdjust="spacing" textLength="9" x="42.5" y="110.5449">1</text><text fill="#000000" font-family="FG Virgil" font-size="13" lengthAdjust="spacing" textLength="261" x="55.5" y="110.5449">Wants to see the courses available to him</text><polygon fill="#181818" points="638.5,140.5977,648.5,144.5977,638.5,148.5977,642.5,144.5977" style="stroke:#181818;stroke-width:1.0;"/><line style="stroke:#181818;stroke-width:1.0;" x1="338.5" x2="644.5" y1="144.5977" y2="144.5977"/><text fill="#000000" font-family="FG Virgil" font-size="13" font-weight="bold" lengthAdjust="spacing" textLength="9" x="345.5" y="139.8555">2</text><text fill="#000000" font-family="FG Virgil" font-size="13" lengthAdjust="spacing" textLength="46" x="358.5" y="139.8555">create()</text><text fill="#000000" font-family="FG Virgil" font-size="14" lengthAdjust="spacing" textLength="208" x="650.5" y="168.8223">listAvailableCoursesController</text><ellipse cx="757.5" cy="139.2871" fill="#E3E3E3" rx="12" ry="12" style="stroke:#181818;stroke-width:0.5;"/><polygon fill="#181818" points="753.5,127.2871,759.5,122.2871,757.5,127.2871,759.5,132.2871,753.5,127.2871" style="stroke:#181818;stroke-width:1.0;"/><polygon fill="#181818" points="740.5,199.0859,750.5,203.0859,740.5,207.0859,744.5,203.0859" style="stroke:#181818;stroke-width:1.0;"/><line style="stroke:#181818;stroke-width:1.0;" x1="338.5" x2="746.5" y1="203.0859" y2="203.0859"/><text fill="#000000" font-family="FG Virgil" font-size="13" font-weight="bold" lengthAdjust="spacing" textLength="9" x="345.5" y="198.3438">3</text><text fill="#000000" font-family="FG Virgil" font-size="13" lengthAdjust="spacing" textLength="197" x="358.5" y="198.3438">listCoursesAvailableForTeacher</text><polygon fill="#181818" points="1050.5,228.3965,1060.5,232.3965,1050.5,236.3965,1054.5,232.3965" style="stroke:#181818;stroke-width:1.0;"/><line style="stroke:#181818;stroke-width:1.0;" x1="762.5" x2="1056.5" y1="232.3965" y2="232.3965"/><text fill="#000000" font-family="FG Virgil" font-size="13" font-weight="bold" lengthAdjust="spacing" textLength="9" x="769.5" y="227.6543">4</text><text fill="#000000" font-family="FG Virgil" font-size="13" lengthAdjust="spacing" textLength="268" x="782.5" y="227.6543">findCoursesWhereTeacherTeaches(teacher)</text><polygon fill="#181818" points="773.5,257.707,763.5,261.707,773.5,265.707,769.5,261.707" style="stroke:#181818;stroke-width:1.0;"/><line style="stroke:#181818;stroke-width:1.0;stroke-dasharray:2.0,2.0;" x1="767.5" x2="1066.5" y1="261.707" y2="261.707"/><text fill="#000000" font-family="FG Virgil" font-size="13" font-weight="bold" lengthAdjust="spacing" textLength="9" x="779.5" y="256.9648">5</text><text fill="#000000" font-family="FG Virgil" font-size="13" lengthAdjust="spacing" textLength="4" x="792.5" y="256.9648">&#160;</text><polygon fill="#181818" points="349.5,287.0176,339.5,291.0176,349.5,295.0176,345.5,291.0176" style="stroke:#181818;stroke-width:1.0;"/><line style="stroke:#181818;stroke-width:1.0;stroke-dasharray:2.0,2.0;" x1="343.5" x2="756.5" y1="291.0176" y2="291.0176"/><text fill="#000000" font-family="FG Virgil" font-size="13" font-weight="bold" lengthAdjust="spacing" textLength="9" x="355.5" y="286.2754">6</text><text fill="#000000" font-family="FG Virgil" font-size="13" lengthAdjust="spacing" textLength="4" x="368.5" y="286.2754">&#160;</text><line style="stroke:#181818;stroke-width:1.0;" x1="338.5" x2="380.5" y1="320.3281" y2="320.3281"/><line style="stroke:#181818;stroke-width:1.0;" x1="380.5" x2="380.5" y1="320.3281" y2="333.3281"/><line style="stroke:#181818;stroke-width:1.0;" x1="339.5" x2="380.5" y1="333.3281" y2="333.3281"/><polygon fill="#181818" points="349.5,329.3281,339.5,333.3281,349.5,337.3281,345.5,333.3281" style="stroke:#181818;stroke-width:1.0;"/><text fill="#000000" font-family="FG Virgil" font-size="13" font-weight="bold" lengthAdjust="spacing" textLength="9" x="345.5" y="315.5859">7</text><text fill="#000000" font-family="FG Virgil" font-size="13" lengthAdjust="spacing" textLength="93" x="358.5" y="315.5859">display the list</text><polygon fill="#181818" points="46.5,358.6387,36.5,362.6387,46.5,366.6387,42.5,362.6387" style="stroke:#181818;stroke-width:1.0;"/><line style="stroke:#181818;stroke-width:1.0;stroke-dasharray:2.0,2.0;" x1="40.5" x2="332.5" y1="362.6387" y2="362.6387"/><text fill="#000000" font-family="FG Virgil" font-size="13" font-weight="bold" lengthAdjust="spacing" textLength="9" x="52.5" y="357.8965">8</text><text fill="#000000" font-family="FG Virgil" font-size="13" lengthAdjust="spacing" textLength="4" x="65.5" y="357.8965">&#160;</text><!--SRC=[bLDDRy8m3BttL_WsE33kLOM4a9XssM5Vd4rgQ4IQP8dBnB-VqvPIJHEm7Deuptv-Tfo7Yjd7V3xt1YqtjNbKhfv7-ch8AfgL6lS1womUjFKeEwYTTQeAhYRWqD08yQWEkAStFXc2G8f7M4axR0oldUKNbD3r4tpgiDTcv1ChBDstjdlOeOcKPTYmiqszfI1xnIx0Ew6gA016MAQ3J29PA-r5EnWTUNb4RN1hQEMQ42b-F2TV-HQ53nJ9Ch9sTh78b4W9plmPjUemqsKQMKM1tXkjpYHPgm9c2qcHmqPKH607aQGv5O7gw03F_0ciT9sgqKTaah0CPAb0oRfFKniX9KdMwuvvppkP_YCauVtnuBPseUzyIpIelqDdMYKoRZ5ITtromQ_aNTJIkLFgxyWgYZ0OqjupmOqxagek73dij2rxfur8fbvwzuiJxipfm3wKSo4PiBH6-cOt6tWfcgxntggedQZi5y_TOv66iTHHdlIfdSCKEC22Tszdn2p03m00]--></g></svg>