<?xml version="1.0" encoding="us-ascii" standalone="no"?><svg xmlns="http://www.w3.org/2000/svg" xmlns:xlink="http://www.w3.org/1999/xlink" contentStyleType="text/css" height="1098px" preserveAspectRatio="none" style="width:959px;height:1098px;background:#FFFFFF;" version="1.1" viewBox="0 0 959 1098" width="959px" zoomAndPan="magnify"><defs/><g><!--class UndoPostItUI--><g id="elem_UndoPostItUI"><rect codeLine="2" fill="#F1F1F1" height="60.582" id="UndoPostItUI" rx="2.5" ry="2.5" style="stroke:#181818;stroke-width:0.5;" width="112" x="452" y="7"/><ellipse cx="467" cy="29.291" fill="#ADD1B2" rx="11" ry="11" style="stroke:#181818;stroke-width:1.0;"/><path d="M469.7656,25.166 Q469.9219,24.9473 470.1094,24.8379 Q470.2969,24.7285 470.5156,24.7285 Q470.8906,24.7285 471.125,24.9941 Q471.3594,25.2441 471.3594,25.8535 L471.3594,27.3066 Q471.3594,27.916 471.125,28.1816 Q470.8906,28.4473 470.5156,28.4473 Q470.1719,28.4473 469.9688,28.2441 Q469.7656,28.0566 469.6563,27.541 Q469.6094,27.1816 469.4219,26.9941 Q469.0938,26.6191 468.4844,26.4004 Q467.875,26.1816 467.25,26.1816 Q466.4844,26.1816 465.8438,26.5098 Q465.2188,26.8379 464.7188,27.5879 Q464.2344,28.3379 464.2344,29.3691 L464.2344,30.4629 Q464.2344,31.6973 465.125,32.5254 Q466.0156,33.3379 467.6094,33.3379 Q468.5469,33.3379 469.2031,33.0879 Q469.5938,32.9316 470.0156,32.4941 Q470.2813,32.2285 470.4219,32.1504 Q470.5781,32.0723 470.7813,32.0723 Q471.1094,32.0723 471.3594,32.3379 Q471.625,32.5879 471.625,32.9316 Q471.625,33.2754 471.2813,33.6816 Q470.7813,34.2598 469.9844,34.5879 Q468.9063,35.041 467.6094,35.041 Q466.0938,35.041 464.8906,34.416 Q463.9063,33.916 463.2188,32.8535 Q462.5313,31.7754 462.5313,30.4941 L462.5313,29.3379 Q462.5313,28.0098 463.1406,26.8691 Q463.7656,25.7129 464.8594,25.1035 Q465.9531,24.4785 467.1875,24.4785 Q467.9219,24.4785 468.5625,24.6504 Q469.2188,24.8066 469.7656,25.166 Z " fill="#000000"/><text fill="#000000" font-family="sans-serif" font-size="12" font-style="italic" lengthAdjust="spacing" textLength="27" x="507.5" y="24.9492">&#171;UI&#187;</text><text fill="#000000" font-family="sans-serif" font-size="14" lengthAdjust="spacing" textLength="80" x="481" y="43.0684">UndoPostItUI</text><line style="stroke:#181818;stroke-width:0.5;" x1="453" x2="563" y1="51.582" y2="51.582"/><line style="stroke:#181818;stroke-width:0.5;" x1="453" x2="563" y1="59.582" y2="59.582"/></g><!--class UndoPostItController--><g id="elem_UndoPostItController"><rect codeLine="5" fill="#F1F1F1" height="153.6875" id="UndoPostItController" rx="2.5" ry="2.5" style="stroke:#181818;stroke-width:0.5;" width="296" x="360" y="129"/><ellipse cx="438.75" cy="151.291" fill="#ADD1B2" rx="11" ry="11" style="stroke:#181818;stroke-width:1.0;"/><path d="M441.5156,147.166 Q441.6719,146.9473 441.8594,146.8379 Q442.0469,146.7285 442.2656,146.7285 Q442.6406,146.7285 442.875,146.9941 Q443.1094,147.2441 443.1094,147.8535 L443.1094,149.3066 Q443.1094,149.916 442.875,150.1816 Q442.6406,150.4473 442.2656,150.4473 Q441.9219,150.4473 441.7188,150.2441 Q441.5156,150.0566 441.4063,149.541 Q441.3594,149.1816 441.1719,148.9941 Q440.8438,148.6191 440.2344,148.4004 Q439.625,148.1816 439,148.1816 Q438.2344,148.1816 437.5938,148.5098 Q436.9688,148.8379 436.4688,149.5879 Q435.9844,150.3379 435.9844,151.3691 L435.9844,152.4629 Q435.9844,153.6973 436.875,154.5254 Q437.7656,155.3379 439.3594,155.3379 Q440.2969,155.3379 440.9531,155.0879 Q441.3438,154.9316 441.7656,154.4941 Q442.0313,154.2285 442.1719,154.1504 Q442.3281,154.0723 442.5313,154.0723 Q442.8594,154.0723 443.1094,154.3379 Q443.375,154.5879 443.375,154.9316 Q443.375,155.2754 443.0313,155.6816 Q442.5313,156.2598 441.7344,156.5879 Q440.6563,157.041 439.3594,157.041 Q437.8438,157.041 436.6406,156.416 Q435.6563,155.916 434.9688,154.8535 Q434.2813,153.7754 434.2813,152.4941 L434.2813,151.3379 Q434.2813,150.0098 434.8906,148.8691 Q435.5156,147.7129 436.6094,147.1035 Q437.7031,146.4785 438.9375,146.4785 Q439.6719,146.4785 440.3125,146.6504 Q440.9688,146.8066 441.5156,147.166 Z " fill="#000000"/><text fill="#000000" font-family="sans-serif" font-size="12" font-style="italic" lengthAdjust="spacing" textLength="68" x="490.25" y="146.9492">&#171;Controller&#187;</text><text fill="#000000" font-family="sans-serif" font-size="14" lengthAdjust="spacing" textLength="130" x="459.25" y="165.0684">UndoPostItController</text><line style="stroke:#181818;stroke-width:0.5;" x1="361" x2="655" y1="173.582" y2="173.582"/><ellipse cx="371" cy="188.3926" fill="none" rx="3" ry="3" style="stroke:#038048;stroke-width:1.0;"/><text fill="#000000" font-family="sans-serif" font-size="14" lengthAdjust="spacing" textLength="122" x="380" y="192.6895">boolean undoPostIt</text><line style="stroke:#181818;stroke-width:0.5;" x1="361" x2="655" y1="200.2031" y2="200.2031"/><ellipse cx="371" cy="215.0137" fill="#84BE84" rx="3" ry="3" style="stroke:#038048;stroke-width:1.0;"/><text fill="#000000" font-family="sans-serif" font-size="14" lengthAdjust="spacing" textLength="229" x="380" y="219.3105">List&lt;String&gt; listSharedBoards (user)</text><ellipse cx="371" cy="233.6348" fill="#84BE84" rx="3" ry="3" style="stroke:#038048;stroke-width:1.0;"/><text fill="#000000" font-family="sans-serif" font-size="14" lengthAdjust="spacing" textLength="270" x="380" y="237.9316">List&lt;String&gt; listPostIts (user, sharedBoard)</text><ellipse cx="371" cy="252.2559" fill="#84BE84" rx="3" ry="3" style="stroke:#038048;stroke-width:1.0;"/><text fill="#000000" font-family="sans-serif" font-size="14" lengthAdjust="spacing" textLength="212" x="380" y="256.5527">List&lt;String&gt; extractList(response)</text><ellipse cx="371" cy="270.877" fill="#84BE84" rx="3" ry="3" style="stroke:#038048;stroke-width:1.0;"/><text fill="#000000" font-family="sans-serif" font-size="14" lengthAdjust="spacing" textLength="247" x="380" y="275.1738">List&lt;String&gt; extractPostItList(response)</text></g><!--class TcpServerMessageHandler--><g id="elem_TcpServerMessageHandler"><rect codeLine="13" fill="#F1F1F1" height="103.8633" id="TcpServerMessageHandler" rx="2.5" ry="2.5" style="stroke:#181818;stroke-width:0.5;" width="338" x="339" y="344"/><ellipse cx="417.75" cy="360" fill="#ADD1B2" rx="11" ry="11" style="stroke:#181818;stroke-width:1.0;"/><path d="M420.5156,355.875 Q420.6719,355.6563 420.8594,355.5469 Q421.0469,355.4375 421.2656,355.4375 Q421.6406,355.4375 421.875,355.7031 Q422.1094,355.9531 422.1094,356.5625 L422.1094,358.0156 Q422.1094,358.625 421.875,358.8906 Q421.6406,359.1563 421.2656,359.1563 Q420.9219,359.1563 420.7188,358.9531 Q420.5156,358.7656 420.4063,358.25 Q420.3594,357.8906 420.1719,357.7031 Q419.8438,357.3281 419.2344,357.1094 Q418.625,356.8906 418,356.8906 Q417.2344,356.8906 416.5938,357.2188 Q415.9688,357.5469 415.4688,358.2969 Q414.9844,359.0469 414.9844,360.0781 L414.9844,361.1719 Q414.9844,362.4063 415.875,363.2344 Q416.7656,364.0469 418.3594,364.0469 Q419.2969,364.0469 419.9531,363.7969 Q420.3438,363.6406 420.7656,363.2031 Q421.0313,362.9375 421.1719,362.8594 Q421.3281,362.7813 421.5313,362.7813 Q421.8594,362.7813 422.1094,363.0469 Q422.375,363.2969 422.375,363.6406 Q422.375,363.9844 422.0313,364.3906 Q421.5313,364.9688 420.7344,365.2969 Q419.6563,365.75 418.3594,365.75 Q416.8438,365.75 415.6406,365.125 Q414.6563,364.625 413.9688,363.5625 Q413.2813,362.4844 413.2813,361.2031 L413.2813,360.0469 Q413.2813,358.7188 413.8906,357.5781 Q414.5156,356.4219 415.6094,355.8125 Q416.7031,355.1875 417.9375,355.1875 Q418.6719,355.1875 419.3125,355.3594 Q419.9688,355.5156 420.5156,355.875 Z " fill="#000000"/><text fill="#000000" font-family="sans-serif" font-size="14" lengthAdjust="spacing" textLength="172" x="438.25" y="365.7969">TcpServerMessageHandler</text><line style="stroke:#181818;stroke-width:0.5;" x1="340" x2="676" y1="376" y2="376"/><line style="stroke:#181818;stroke-width:0.5;" x1="340" x2="676" y1="384" y2="384"/><ellipse cx="350" cy="398.8105" fill="#84BE84" rx="3" ry="3" style="stroke:#038048;stroke-width:1.0;"/><text fill="#000000" font-family="sans-serif" font-size="14" lengthAdjust="spacing" textLength="312" x="359" y="403.1074">void: findSharedBoardsOfUser(version, data, out)</text><ellipse cx="350" cy="417.4316" fill="#84BE84" rx="3" ry="3" style="stroke:#038048;stroke-width:1.0;"/><text fill="#000000" font-family="sans-serif" font-size="14" lengthAdjust="spacing" textLength="204" x="359" y="421.7285">void: findPostIt(version,data,out)</text><ellipse cx="350" cy="436.0527" fill="#84BE84" rx="3" ry="3" style="stroke:#038048;stroke-width:1.0;"/><text fill="#000000" font-family="sans-serif" font-size="14" lengthAdjust="spacing" textLength="213" x="359" y="440.3496">void: undoPostIt(version,data,out)</text></g><!--class UserRepository--><g id="elem_UserRepository"><rect codeLine="20" fill="#F1F1F1" height="79.2031" id="UserRepository" rx="2.5" ry="2.5" style="stroke:#181818;stroke-width:0.5;" width="148" x="156" y="356.5"/><ellipse cx="179.55" cy="378.791" fill="#ADD1B2" rx="11" ry="11" style="stroke:#181818;stroke-width:1.0;"/><path d="M182.3156,374.666 Q182.4719,374.4473 182.6594,374.3379 Q182.8469,374.2285 183.0656,374.2285 Q183.4406,374.2285 183.675,374.4941 Q183.9094,374.7441 183.9094,375.3535 L183.9094,376.8066 Q183.9094,377.416 183.675,377.6816 Q183.4406,377.9473 183.0656,377.9473 Q182.7219,377.9473 182.5188,377.7441 Q182.3156,377.5566 182.2063,377.041 Q182.1594,376.6816 181.9719,376.4941 Q181.6438,376.1191 181.0344,375.9004 Q180.425,375.6816 179.8,375.6816 Q179.0344,375.6816 178.3938,376.0098 Q177.7688,376.3379 177.2688,377.0879 Q176.7844,377.8379 176.7844,378.8691 L176.7844,379.9629 Q176.7844,381.1973 177.675,382.0254 Q178.5656,382.8379 180.1594,382.8379 Q181.0969,382.8379 181.7531,382.5879 Q182.1438,382.4316 182.5656,381.9941 Q182.8313,381.7285 182.9719,381.6504 Q183.1281,381.5723 183.3313,381.5723 Q183.6594,381.5723 183.9094,381.8379 Q184.175,382.0879 184.175,382.4316 Q184.175,382.7754 183.8313,383.1816 Q183.3313,383.7598 182.5344,384.0879 Q181.4563,384.541 180.1594,384.541 Q178.6438,384.541 177.4406,383.916 Q176.4563,383.416 175.7688,382.3535 Q175.0813,381.2754 175.0813,379.9941 L175.0813,378.8379 Q175.0813,377.5098 175.6906,376.3691 Q176.3156,375.2129 177.4094,374.6035 Q178.5031,373.9785 179.7375,373.9785 Q180.4719,373.9785 181.1125,374.1504 Q181.7688,374.3066 182.3156,374.666 Z " fill="#000000"/><text fill="#000000" font-family="sans-serif" font-size="12" font-style="italic" lengthAdjust="spacing" textLength="73" x="207.45" y="374.4492">&#171;Repository&#187;</text><text fill="#000000" font-family="sans-serif" font-size="14" lengthAdjust="spacing" textLength="97" x="195.45" y="392.5684">UserRepository</text><line style="stroke:#181818;stroke-width:0.5;" x1="157" x2="303" y1="401.082" y2="401.082"/><line style="stroke:#181818;stroke-width:0.5;" x1="157" x2="303" y1="409.082" y2="409.082"/><ellipse cx="167" cy="423.8926" fill="#84BE84" rx="3" ry="3" style="stroke:#038048;stroke-width:1.0;"/><text fill="#000000" font-family="sans-serif" font-size="14" lengthAdjust="spacing" textLength="122" x="176" y="428.1895">void: findById(user)</text></g><!--class SharedBoardRepository--><g id="elem_SharedBoardRepository"><rect codeLine="24" fill="#F1F1F1" height="116.4453" id="SharedBoardRepository" rx="2.5" ry="2.5" style="stroke:#181818;stroke-width:0.5;" width="412" x="7" y="509"/><ellipse cx="132.75" cy="531.291" fill="#ADD1B2" rx="11" ry="11" style="stroke:#181818;stroke-width:1.0;"/><path d="M135.5156,527.166 Q135.6719,526.9473 135.8594,526.8379 Q136.0469,526.7285 136.2656,526.7285 Q136.6406,526.7285 136.875,526.9941 Q137.1094,527.2441 137.1094,527.8535 L137.1094,529.3066 Q137.1094,529.916 136.875,530.1816 Q136.6406,530.4473 136.2656,530.4473 Q135.9219,530.4473 135.7188,530.2441 Q135.5156,530.0566 135.4063,529.541 Q135.3594,529.1816 135.1719,528.9941 Q134.8438,528.6191 134.2344,528.4004 Q133.625,528.1816 133,528.1816 Q132.2344,528.1816 131.5938,528.5098 Q130.9688,528.8379 130.4688,529.5879 Q129.9844,530.3379 129.9844,531.3691 L129.9844,532.4629 Q129.9844,533.6973 130.875,534.5254 Q131.7656,535.3379 133.3594,535.3379 Q134.2969,535.3379 134.9531,535.0879 Q135.3438,534.9316 135.7656,534.4941 Q136.0313,534.2285 136.1719,534.1504 Q136.3281,534.0723 136.5313,534.0723 Q136.8594,534.0723 137.1094,534.3379 Q137.375,534.5879 137.375,534.9316 Q137.375,535.2754 137.0313,535.6816 Q136.5313,536.2598 135.7344,536.5879 Q134.6563,537.041 133.3594,537.041 Q131.8438,537.041 130.6406,536.416 Q129.6563,535.916 128.9688,534.8535 Q128.2813,533.7754 128.2813,532.4941 L128.2813,531.3379 Q128.2813,530.0098 128.8906,528.8691 Q129.5156,527.7129 130.6094,527.1035 Q131.7031,526.4785 132.9375,526.4785 Q133.6719,526.4785 134.3125,526.6504 Q134.9688,526.8066 135.5156,527.166 Z " fill="#000000"/><text fill="#000000" font-family="sans-serif" font-size="12" font-style="italic" lengthAdjust="spacing" textLength="73" x="192.75" y="526.9492">&#171;Repository&#187;</text><text fill="#000000" font-family="sans-serif" font-size="14" lengthAdjust="spacing" textLength="152" x="153.25" y="545.0684">SharedBoardRepository</text><line style="stroke:#181818;stroke-width:0.5;" x1="8" x2="418" y1="553.582" y2="553.582"/><line style="stroke:#181818;stroke-width:0.5;" x1="8" x2="418" y1="561.582" y2="561.582"/><ellipse cx="18" cy="576.3926" fill="#84BE84" rx="3" ry="3" style="stroke:#038048;stroke-width:1.0;"/><text fill="#000000" font-family="sans-serif" font-size="14" lengthAdjust="spacing" textLength="315" x="27" y="580.6895">List&lt;SharedBoard&gt; findSharedBoardOfUser(user)</text><ellipse cx="18" cy="595.0137" fill="#84BE84" rx="3" ry="3" style="stroke:#038048;stroke-width:1.0;"/><text fill="#000000" font-family="sans-serif" font-size="14" lengthAdjust="spacing" textLength="386" x="27" y="599.3105">List&lt;SharedBoard&gt; findSharedBoardsAvailableForUser(user)</text><ellipse cx="18" cy="613.6348" fill="#84BE84" rx="3" ry="3" style="stroke:#038048;stroke-width:1.0;"/><text fill="#000000" font-family="sans-serif" font-size="14" lengthAdjust="spacing" textLength="318" x="27" y="617.9316">SharedBoard: findSharedBoard(sharedBoardTitle)</text></g><!--class CellRepository--><g id="elem_CellRepository"><rect codeLine="30" fill="#F1F1F1" height="79.2031" id="CellRepository" rx="2.5" ry="2.5" style="stroke:#181818;stroke-width:0.5;" width="124" x="265" y="723.5"/><ellipse cx="280" cy="745.791" fill="#ADD1B2" rx="11" ry="11" style="stroke:#181818;stroke-width:1.0;"/><path d="M282.7656,741.666 Q282.9219,741.4473 283.1094,741.3379 Q283.2969,741.2285 283.5156,741.2285 Q283.8906,741.2285 284.125,741.4941 Q284.3594,741.7441 284.3594,742.3535 L284.3594,743.8066 Q284.3594,744.416 284.125,744.6816 Q283.8906,744.9473 283.5156,744.9473 Q283.1719,744.9473 282.9688,744.7441 Q282.7656,744.5566 282.6563,744.041 Q282.6094,743.6816 282.4219,743.4941 Q282.0938,743.1191 281.4844,742.9004 Q280.875,742.6816 280.25,742.6816 Q279.4844,742.6816 278.8438,743.0098 Q278.2188,743.3379 277.7188,744.0879 Q277.2344,744.8379 277.2344,745.8691 L277.2344,746.9629 Q277.2344,748.1973 278.125,749.0254 Q279.0156,749.8379 280.6094,749.8379 Q281.5469,749.8379 282.2031,749.5879 Q282.5938,749.4316 283.0156,748.9941 Q283.2813,748.7285 283.4219,748.6504 Q283.5781,748.5723 283.7813,748.5723 Q284.1094,748.5723 284.3594,748.8379 Q284.625,749.0879 284.625,749.4316 Q284.625,749.7754 284.2813,750.1816 Q283.7813,750.7598 282.9844,751.0879 Q281.9063,751.541 280.6094,751.541 Q279.0938,751.541 277.8906,750.916 Q276.9063,750.416 276.2188,749.3535 Q275.5313,748.2754 275.5313,746.9941 L275.5313,745.8379 Q275.5313,744.5098 276.1406,743.3691 Q276.7656,742.2129 277.8594,741.6035 Q278.9531,740.9785 280.1875,740.9785 Q280.9219,740.9785 281.5625,741.1504 Q282.2188,741.3066 282.7656,741.666 Z " fill="#000000"/><text fill="#000000" font-family="sans-serif" font-size="12" font-style="italic" lengthAdjust="spacing" textLength="73" x="303.5" y="741.4492">&#171;Repository&#187;</text><text fill="#000000" font-family="sans-serif" font-size="14" lengthAdjust="spacing" textLength="92" x="294" y="759.5684">CellRepository</text><line style="stroke:#181818;stroke-width:0.5;" x1="266" x2="388" y1="768.082" y2="768.082"/><line style="stroke:#181818;stroke-width:0.5;" x1="266" x2="388" y1="776.082" y2="776.082"/><ellipse cx="276" cy="790.8926" fill="#84BE84" rx="3" ry="3" style="stroke:#038048;stroke-width:1.0;"/><text fill="#000000" font-family="sans-serif" font-size="14" lengthAdjust="spacing" textLength="95" x="285" y="795.1895">void: save(cell)</text></g><!--class Cell--><g id="elem_Cell"><rect codeLine="34" fill="#F1F1F1" height="153.6875" id="Cell" rx="2.5" ry="2.5" style="stroke:#181818;stroke-width:0.5;" width="252" x="201" y="928"/><ellipse cx="302.75" cy="950.291" fill="#ADD1B2" rx="11" ry="11" style="stroke:#181818;stroke-width:1.0;"/><path d="M305.5156,946.166 Q305.6719,945.9473 305.8594,945.8379 Q306.0469,945.7285 306.2656,945.7285 Q306.6406,945.7285 306.875,945.9941 Q307.1094,946.2441 307.1094,946.8535 L307.1094,948.3066 Q307.1094,948.916 306.875,949.1816 Q306.6406,949.4473 306.2656,949.4473 Q305.9219,949.4473 305.7188,949.2441 Q305.5156,949.0566 305.4063,948.541 Q305.3594,948.1816 305.1719,947.9941 Q304.8438,947.6191 304.2344,947.4004 Q303.625,947.1816 303,947.1816 Q302.2344,947.1816 301.5938,947.5098 Q300.9688,947.8379 300.4688,948.5879 Q299.9844,949.3379 299.9844,950.3691 L299.9844,951.4629 Q299.9844,952.6973 300.875,953.5254 Q301.7656,954.3379 303.3594,954.3379 Q304.2969,954.3379 304.9531,954.0879 Q305.3438,953.9316 305.7656,953.4941 Q306.0313,953.2285 306.1719,953.1504 Q306.3281,953.0723 306.5313,953.0723 Q306.8594,953.0723 307.1094,953.3379 Q307.375,953.5879 307.375,953.9316 Q307.375,954.2754 307.0313,954.6816 Q306.5313,955.2598 305.7344,955.5879 Q304.6563,956.041 303.3594,956.041 Q301.8438,956.041 300.6406,955.416 Q299.6563,954.916 298.9688,953.8535 Q298.2813,952.7754 298.2813,951.4941 L298.2813,950.3379 Q298.2813,949.0098 298.8906,947.8691 Q299.5156,946.7129 300.6094,946.1035 Q301.7031,945.4785 302.9375,945.4785 Q303.6719,945.4785 304.3125,945.6504 Q304.9688,945.8066 305.5156,946.166 Z " fill="#000000"/><text fill="#000000" font-family="sans-serif" font-size="12" font-style="italic" lengthAdjust="spacing" textLength="44" x="321.25" y="945.9492">&#171;Entity&#187;</text><text fill="#000000" font-family="sans-serif" font-size="14" lengthAdjust="spacing" textLength="24" x="331.25" y="964.0684">Cell</text><line style="stroke:#181818;stroke-width:0.5;" x1="202" x2="452" y1="972.582" y2="972.582"/><text fill="#000000" font-family="sans-serif" font-size="14" lengthAdjust="spacing" textLength="79" x="207" y="991.6895">String: cellID</text><text fill="#000000" font-family="sans-serif" font-size="14" lengthAdjust="spacing" textLength="94" x="207" y="1010.3105">int: rowNumber</text><text fill="#000000" font-family="sans-serif" font-size="14" lengthAdjust="spacing" textLength="117" x="207" y="1028.9316">int: columnNumber</text><text fill="#000000" font-family="sans-serif" font-size="14" lengthAdjust="spacing" textLength="99" x="207" y="1047.5527">boolean: isFree</text><line style="stroke:#181818;stroke-width:0.5;" x1="202" x2="452" y1="1055.0664" y2="1055.0664"/><ellipse cx="212" cy="1069.877" fill="#84BE84" rx="3" ry="3" style="stroke:#038048;stroke-width:1.0;"/><text fill="#000000" font-family="sans-serif" font-size="14" lengthAdjust="spacing" textLength="226" x="221" y="1074.1738">void: changeTheFreeStatus(isFree)</text></g><!--class PostItRepository--><g id="elem_PostItRepository"><rect codeLine="43" fill="#F1F1F1" height="153.6875" id="PostItRepository" rx="2.5" ry="2.5" style="stroke:#181818;stroke-width:0.5;" width="528" x="424" y="686"/><ellipse cx="632.25" cy="708.291" fill="#ADD1B2" rx="11" ry="11" style="stroke:#181818;stroke-width:1.0;"/><path d="M635.0156,704.166 Q635.1719,703.9473 635.3594,703.8379 Q635.5469,703.7285 635.7656,703.7285 Q636.1406,703.7285 636.375,703.9941 Q636.6094,704.2441 636.6094,704.8535 L636.6094,706.3066 Q636.6094,706.916 636.375,707.1816 Q636.1406,707.4473 635.7656,707.4473 Q635.4219,707.4473 635.2188,707.2441 Q635.0156,707.0566 634.9063,706.541 Q634.8594,706.1816 634.6719,705.9941 Q634.3438,705.6191 633.7344,705.4004 Q633.125,705.1816 632.5,705.1816 Q631.7344,705.1816 631.0938,705.5098 Q630.4688,705.8379 629.9688,706.5879 Q629.4844,707.3379 629.4844,708.3691 L629.4844,709.4629 Q629.4844,710.6973 630.375,711.5254 Q631.2656,712.3379 632.8594,712.3379 Q633.7969,712.3379 634.4531,712.0879 Q634.8438,711.9316 635.2656,711.4941 Q635.5313,711.2285 635.6719,711.1504 Q635.8281,711.0723 636.0313,711.0723 Q636.3594,711.0723 636.6094,711.3379 Q636.875,711.5879 636.875,711.9316 Q636.875,712.2754 636.5313,712.6816 Q636.0313,713.2598 635.2344,713.5879 Q634.1563,714.041 632.8594,714.041 Q631.3438,714.041 630.1406,713.416 Q629.1563,712.916 628.4688,711.8535 Q627.7813,710.7754 627.7813,709.4941 L627.7813,708.3379 Q627.7813,707.0098 628.3906,705.8691 Q629.0156,704.7129 630.1094,704.1035 Q631.2031,703.4785 632.4375,703.4785 Q633.1719,703.4785 633.8125,703.6504 Q634.4688,703.8066 635.0156,704.166 Z " fill="#000000"/><text fill="#000000" font-family="sans-serif" font-size="12" font-style="italic" lengthAdjust="spacing" textLength="73" x="667.75" y="703.9492">&#171;Repository&#187;</text><text fill="#000000" font-family="sans-serif" font-size="14" lengthAdjust="spacing" textLength="103" x="652.75" y="722.0684">PostItRepository</text><line style="stroke:#181818;stroke-width:0.5;" x1="425" x2="951" y1="730.582" y2="730.582"/><line style="stroke:#181818;stroke-width:0.5;" x1="425" x2="951" y1="738.582" y2="738.582"/><ellipse cx="435" cy="753.3926" fill="#84BE84" rx="3" ry="3" style="stroke:#038048;stroke-width:1.0;"/><text fill="#000000" font-family="sans-serif" font-size="14" lengthAdjust="spacing" textLength="387" x="444" y="757.6895">List&lt;PostIt&gt; findPostItsFromSharedBoard(sharedBoard, user)</text><ellipse cx="435" cy="772.0137" fill="#84BE84" rx="3" ry="3" style="stroke:#038048;stroke-width:1.0;"/><text fill="#000000" font-family="sans-serif" font-size="14" lengthAdjust="spacing" textLength="502" x="444" y="776.3105">PostIt: findPostItFromUserAndContentAndCell(username, content, row, column);</text><ellipse cx="435" cy="790.6348" fill="#84BE84" rx="3" ry="3" style="stroke:#038048;stroke-width:1.0;"/><text fill="#000000" font-family="sans-serif" font-size="14" lengthAdjust="spacing" textLength="132" x="444" y="794.9316">PostIt: findPostIt(cell)</text><ellipse cx="435" cy="809.2559" fill="#84BE84" rx="3" ry="3" style="stroke:#038048;stroke-width:1.0;"/><text fill="#000000" font-family="sans-serif" font-size="14" lengthAdjust="spacing" textLength="108" x="444" y="813.5527">void: save(postIt)</text><ellipse cx="435" cy="827.877" fill="#84BE84" rx="3" ry="3" style="stroke:#038048;stroke-width:1.0;"/><text fill="#000000" font-family="sans-serif" font-size="14" lengthAdjust="spacing" textLength="117" x="444" y="832.1738">void: delete(postIt)</text></g><!--class PostItHistoryRepository--><g id="elem_PostItHistoryRepository"><rect codeLine="51" fill="#F1F1F1" height="79.2031" id="PostItHistoryRepository" rx="2.5" ry="2.5" style="stroke:#181818;stroke-width:0.5;" width="306" x="596" y="527.5"/><ellipse cx="671.75" cy="549.791" fill="#ADD1B2" rx="11" ry="11" style="stroke:#181818;stroke-width:1.0;"/><path d="M674.5156,545.666 Q674.6719,545.4473 674.8594,545.3379 Q675.0469,545.2285 675.2656,545.2285 Q675.6406,545.2285 675.875,545.4941 Q676.1094,545.7441 676.1094,546.3535 L676.1094,547.8066 Q676.1094,548.416 675.875,548.6816 Q675.6406,548.9473 675.2656,548.9473 Q674.9219,548.9473 674.7188,548.7441 Q674.5156,548.5566 674.4063,548.041 Q674.3594,547.6816 674.1719,547.4941 Q673.8438,547.1191 673.2344,546.9004 Q672.625,546.6816 672,546.6816 Q671.2344,546.6816 670.5938,547.0098 Q669.9688,547.3379 669.4688,548.0879 Q668.9844,548.8379 668.9844,549.8691 L668.9844,550.9629 Q668.9844,552.1973 669.875,553.0254 Q670.7656,553.8379 672.3594,553.8379 Q673.2969,553.8379 673.9531,553.5879 Q674.3438,553.4316 674.7656,552.9941 Q675.0313,552.7285 675.1719,552.6504 Q675.3281,552.5723 675.5313,552.5723 Q675.8594,552.5723 676.1094,552.8379 Q676.375,553.0879 676.375,553.4316 Q676.375,553.7754 676.0313,554.1816 Q675.5313,554.7598 674.7344,555.0879 Q673.6563,555.541 672.3594,555.541 Q670.8438,555.541 669.6406,554.916 Q668.6563,554.416 667.9688,553.3535 Q667.2813,552.2754 667.2813,550.9941 L667.2813,549.8379 Q667.2813,548.5098 667.8906,547.3691 Q668.5156,546.2129 669.6094,545.6035 Q670.7031,544.9785 671.9375,544.9785 Q672.6719,544.9785 673.3125,545.1504 Q673.9688,545.3066 674.5156,545.666 Z " fill="#000000"/><text fill="#000000" font-family="sans-serif" font-size="12" font-style="italic" lengthAdjust="spacing" textLength="73" x="728.75" y="545.4492">&#171;Repository&#187;</text><text fill="#000000" font-family="sans-serif" font-size="14" lengthAdjust="spacing" textLength="146" x="692.25" y="563.5684">PostItHistoryRepository</text><line style="stroke:#181818;stroke-width:0.5;" x1="597" x2="901" y1="572.082" y2="572.082"/><line style="stroke:#181818;stroke-width:0.5;" x1="597" x2="901" y1="580.082" y2="580.082"/><ellipse cx="607" cy="594.8926" fill="#84BE84" rx="3" ry="3" style="stroke:#038048;stroke-width:1.0;"/><text fill="#000000" font-family="sans-serif" font-size="14" lengthAdjust="spacing" textLength="280" x="616" y="599.1895">PostItHistory: findLastChangeOfPostIt(postIt)</text></g><!--class PostIt--><g id="elem_PostIt"><rect codeLine="55" fill="#F1F1F1" height="172.3086" id="PostIt" rx="2.5" ry="2.5" style="stroke:#181818;stroke-width:0.5;" width="180" x="598" y="919"/><ellipse cx="663.75" cy="941.291" fill="#ADD1B2" rx="11" ry="11" style="stroke:#181818;stroke-width:1.0;"/><path d="M666.5156,937.166 Q666.6719,936.9473 666.8594,936.8379 Q667.0469,936.7285 667.2656,936.7285 Q667.6406,936.7285 667.875,936.9941 Q668.1094,937.2441 668.1094,937.8535 L668.1094,939.3066 Q668.1094,939.916 667.875,940.1816 Q667.6406,940.4473 667.2656,940.4473 Q666.9219,940.4473 666.7188,940.2441 Q666.5156,940.0566 666.4063,939.541 Q666.3594,939.1816 666.1719,938.9941 Q665.8438,938.6191 665.2344,938.4004 Q664.625,938.1816 664,938.1816 Q663.2344,938.1816 662.5938,938.5098 Q661.9688,938.8379 661.4688,939.5879 Q660.9844,940.3379 660.9844,941.3691 L660.9844,942.4629 Q660.9844,943.6973 661.875,944.5254 Q662.7656,945.3379 664.3594,945.3379 Q665.2969,945.3379 665.9531,945.0879 Q666.3438,944.9316 666.7656,944.4941 Q667.0313,944.2285 667.1719,944.1504 Q667.3281,944.0723 667.5313,944.0723 Q667.8594,944.0723 668.1094,944.3379 Q668.375,944.5879 668.375,944.9316 Q668.375,945.2754 668.0313,945.6816 Q667.5313,946.2598 666.7344,946.5879 Q665.6563,947.041 664.3594,947.041 Q662.8438,947.041 661.6406,946.416 Q660.6563,945.916 659.9688,944.8535 Q659.2813,943.7754 659.2813,942.4941 L659.2813,941.3379 Q659.2813,940.0098 659.8906,938.8691 Q660.5156,937.7129 661.6094,937.1035 Q662.7031,936.4785 663.9375,936.4785 Q664.6719,936.4785 665.3125,936.6504 Q665.9688,936.8066 666.5156,937.166 Z " fill="#000000"/><text fill="#000000" font-family="sans-serif" font-size="12" font-style="italic" lengthAdjust="spacing" textLength="44" x="682.25" y="936.9492">&#171;Entity&#187;</text><text fill="#000000" font-family="sans-serif" font-size="14" lengthAdjust="spacing" textLength="35" x="686.75" y="955.0684">PostIt</text><line style="stroke:#181818;stroke-width:0.5;" x1="599" x2="777" y1="963.582" y2="963.582"/><text fill="#000000" font-family="sans-serif" font-size="14" lengthAdjust="spacing" textLength="87" x="604" y="982.6895">Long: postItID</text><text fill="#000000" font-family="sans-serif" font-size="14" lengthAdjust="spacing" textLength="92" x="604" y="1001.3105">String: content</text><text fill="#000000" font-family="sans-serif" font-size="14" lengthAdjust="spacing" textLength="121" x="604" y="1019.9316">SystemUser: owner</text><text fill="#000000" font-family="sans-serif" font-size="14" lengthAdjust="spacing" textLength="53" x="604" y="1038.5527">Cell: cell</text><line style="stroke:#181818;stroke-width:0.5;" x1="599" x2="777" y1="1046.0664" y2="1046.0664"/><ellipse cx="609" cy="1060.877" fill="#84BE84" rx="3" ry="3" style="stroke:#038048;stroke-width:1.0;"/><text fill="#000000" font-family="sans-serif" font-size="14" lengthAdjust="spacing" textLength="102" x="618" y="1065.1738">changeCell(cell)</text><ellipse cx="609" cy="1079.498" fill="#84BE84" rx="3" ry="3" style="stroke:#038048;stroke-width:1.0;"/><text fill="#000000" font-family="sans-serif" font-size="14" lengthAdjust="spacing" textLength="154" x="618" y="1083.7949">changeContent(content)</text></g><!--link UndoPostItUI to UndoPostItController--><g id="link_UndoPostItUI_UndoPostItController"><path codeLine="67" d="M508,68.27 C508,83.87 508,103.83 508,123.65 " fill="none" id="UndoPostItUI-to-UndoPostItController" style="stroke:#181818;stroke-width:1.0;stroke-dasharray:7.0,7.0;"/><polygon fill="#181818" points="508,128.68,512,119.68,508,123.68,504,119.68,508,128.68" style="stroke:#181818;stroke-width:1.0;"/></g><!--link UndoPostItController to TcpServerMessageHandler--><g id="link_UndoPostItController_TcpServerMessageHandler"><path codeLine="68" d="M508,283.2 C508,301.64 508,321.04 508,338.41 " fill="none" id="UndoPostItController-to-TcpServerMessageHandler" style="stroke:#181818;stroke-width:1.0;stroke-dasharray:7.0,7.0;"/><polygon fill="#181818" points="508,343.73,512,334.73,508,338.73,504,334.73,508,343.73" style="stroke:#181818;stroke-width:1.0;"/></g><!--link TcpServerMessageHandler to SharedBoardRepository--><g id="link_TcpServerMessageHandler_SharedBoardRepository"><path codeLine="69" d="M418.69,448.16 C386.64,466.53 350.22,487.39 317.02,506.41 " fill="none" id="TcpServerMessageHandler-to-SharedBoardRepository" style="stroke:#181818;stroke-width:1.0;stroke-dasharray:7.0,7.0;"/><polygon fill="#181818" points="312.57,508.96,322.368,507.9608,316.9095,506.4762,318.394,501.0177,312.57,508.96" style="stroke:#181818;stroke-width:1.0;"/></g><!--reverse link UserRepository to TcpServerMessageHandler--><g id="link_UserRepository_TcpServerMessageHandler"><path codeLine="70" d="M309.26,396 C319.09,396 328.93,396 338.76,396 " fill="none" id="UserRepository-backto-TcpServerMessageHandler" style="stroke:#181818;stroke-width:1.0;stroke-dasharray:7.0,7.0;"/><polygon fill="#181818" points="304.12,396,313.12,400,309.12,396,313.12,392,304.12,396" style="stroke:#181818;stroke-width:1.0;"/></g><!--link TcpServerMessageHandler to CellRepository--><g id="link_TcpServerMessageHandler_CellRepository"><path codeLine="71" d="M497.88,448.06 C487.11,495.73 467.39,567.91 437,625 C418.56,659.64 390.86,694.07 367.88,719.75 " fill="none" id="TcpServerMessageHandler-to-CellRepository" style="stroke:#181818;stroke-width:1.0;stroke-dasharray:7.0,7.0;"/><polygon fill="#181818" points="364.52,723.47,373.5139,719.4562,367.8648,719.7535,367.5675,714.1045,364.52,723.47" style="stroke:#181818;stroke-width:1.0;"/></g><!--link TcpServerMessageHandler to PostItRepository--><g id="link_TcpServerMessageHandler_PostItRepository"><path codeLine="72" d="M518.18,448.03 C528.99,495.68 548.74,567.84 579,625 C589.31,644.48 602.53,663.91 616.18,681.77 " fill="none" id="TcpServerMessageHandler-to-PostItRepository" style="stroke:#181818;stroke-width:1.0;stroke-dasharray:7.0,7.0;"/><polygon fill="#181818" points="619.28,685.79,616.9431,676.2224,616.2232,681.8333,610.6123,681.1133,619.28,685.79" style="stroke:#181818;stroke-width:1.0;"/></g><!--link CellRepository to Cell--><g id="link_CellRepository_Cell"><path codeLine="73" d="M327,802.56 C327,834.77 327,881.8 327,922.32 " fill="none" id="CellRepository-to-Cell" style="stroke:#181818;stroke-width:1.0;"/><polygon fill="#181818" points="327,927.74,331,918.74,327,922.74,323,918.74,327,927.74" style="stroke:#181818;stroke-width:1.0;"/><polygon fill="#000000" points="332,884.6455,334.9389,875.6004,329.0611,875.6004,332,884.6455" style="stroke:#000000;stroke-width:1.0;"/><text fill="#000000" font-family="sans-serif" font-size="13" lengthAdjust="spacing" textLength="21" x="341" y="885.0283">has</text></g><!--link PostItRepository to PostIt--><g id="link_PostItRepository_PostIt"><path codeLine="74" d="M688,840.27 C688,863.59 688,889.46 688,913.63 " fill="none" id="PostItRepository-to-PostIt" style="stroke:#181818;stroke-width:1.0;"/><polygon fill="#181818" points="688,918.76,692,909.76,688,913.76,684,909.76,688,918.76" style="stroke:#181818;stroke-width:1.0;"/><polygon fill="#000000" points="693,884.6455,695.9389,875.6004,690.0611,875.6004,693,884.6455" style="stroke:#000000;stroke-width:1.0;"/><text fill="#000000" font-family="sans-serif" font-size="13" lengthAdjust="spacing" textLength="21" x="702" y="885.0283">has</text></g><!--link TcpServerMessageHandler to PostItHistoryRepository--><g id="link_TcpServerMessageHandler_PostItHistoryRepository"><path codeLine="75" d="M580.96,448.16 C615.7,472.52 656.71,501.29 689.53,524.3 " fill="none" id="TcpServerMessageHandler-to-PostItHistoryRepository" style="stroke:#181818;stroke-width:1.0;stroke-dasharray:7.0,7.0;"/><polygon fill="#181818" points="693.9,527.36,688.8366,518.9124,689.8092,524.485,684.2366,525.4576,693.9,527.36" style="stroke:#181818;stroke-width:1.0;"/></g><!--SRC=[ZLJRZjem47ttLynZq6RvW1H5sgLTRIJQhGfyW4a6i6HiP3jiKTL_hnrxYNDZonEPEJFsENCy9QTQmrPKygVKfZ3R0XQBRP7dy8Vy9QJifPTI62KvHsLXxKS31_jxW1NJPh4sYeb33jn-h8zKOVKigQeq9BL6DPk2-ZC2AWNTLewMu6-ZQ6bSB56epr9el0VqxKVXEoavKW7rZMdBVbEUrwWkgBwZrlI0hrHKJW3F61ukabKPx9ceOgfl-wqbaTWopQH8eQA6fY1hCnkK-GDlq0Ov0BOt6m7QktwCoXxw2yzICoFLrGwf_OY6r9xzV2sgC9GRuOZ6PAlkkDk2l2z4q64uzpir-kb26QSxZYzI3SeZu43s9FBCXXcE4QqbSluf7w-CfXTCIellbTkYRy8mSolm3il0OOklJOW9au6Ixp_gqmvL6oebhqyYYWRFPS3qYq8a99fsUQJYW9iZkipQK5FhnCEY6tax_D-8F3QF_6QxoTE4T2d4Wdjyx5LNwkRo92gt150Ozyzgq0nAq1Ecbc-JI9qMQM0_-pBPCiWzcCAvoNOJ5N8qRQedoAlbQmNuL9SEsbzbHRLPDjA_xSEr9WuPE64bdGyyEZZXPWwlX8zTjS56kmpakmXMSD9v4mKN-FatYaQwXAXlbuIs_lMJpWgVp_FHfKr6Dxb3JomvCX6t9QDROWeFSuvxQx_kUfhkFi-xh_KUilyCIBVqyR7f1HaSgOQSzE4s7qRwWPZcF64mGlu1]--></g></svg>