<?xml version="1.0" encoding="us-ascii" standalone="no"?><svg xmlns="http://www.w3.org/2000/svg" xmlns:xlink="http://www.w3.org/1999/xlink" contentStyleType="text/css" height="2307px" preserveAspectRatio="none" style="width:1945px;height:2307px;background:#FFFFFF;" version="1.1" viewBox="0 0 1945 2307" width="1945px" zoomAndPan="magnify"><defs/><g><rect fill="#FFFFFF" height="2112.5352" style="stroke:#181818;stroke-width:1.0;" width="10" x="17.5" y="93.6211"/><rect fill="#FFFFFF" height="2098.2441" style="stroke:#181818;stroke-width:1.0;" width="10" x="268.5" y="116.9121"/><rect fill="#FFFFFF" height="601.1113" style="stroke:#181818;stroke-width:1.0;" width="10" x="586.5" y="148.2031"/><rect fill="#FFFFFF" height="588.1113" style="stroke:#181818;stroke-width:1.0;" width="10" x="586.5" y="874.4785"/><rect fill="#FFFFFF" height="618.4023" style="stroke:#181818;stroke-width:1.0;" width="10" x="586.5" y="1556.4629"/><rect fill="#FFFFFF" height="480.6563" style="stroke:#181818;stroke-width:1.0;" width="10" x="757.5" y="268.6582"/><rect fill="#FFFFFF" height="436.3652" style="stroke:#181818;stroke-width:1.0;" width="10" x="757.5" y="994.9336"/><rect fill="#FFFFFF" height="466.6563" style="stroke:#181818;stroke-width:1.0;" width="10" x="757.5" y="1676.918"/><rect fill="#FFFFFF" height="31.291" style="stroke:#181818;stroke-width:1.0;" width="10" x="984.5" y="299.9492"/><rect fill="#FFFFFF" height="31.291" style="stroke:#181818;stroke-width:1.0;" width="10" x="984.5" y="1026.2246"/><rect fill="#FFFFFF" height="31.291" style="stroke:#181818;stroke-width:1.0;" width="10" x="984.5" y="1708.209"/><rect fill="#FFFFFF" height="31.291" style="stroke:#181818;stroke-width:1.0;" width="10" x="1175.5" y="362.5313"/><rect fill="#FFFFFF" height="31.291" style="stroke:#181818;stroke-width:1.0;" width="10" x="1175.5" y="425.1133"/><rect fill="#FFFFFF" height="31.291" style="stroke:#181818;stroke-width:1.0;" width="10" x="1175.5" y="1088.8066"/><rect fill="#FFFFFF" height="31.291" style="stroke:#181818;stroke-width:1.0;" width="10" x="1327" y="1151.3887"/><rect fill="#FFFFFF" height="31.291" style="stroke:#181818;stroke-width:1.0;" width="10" x="1327" y="1770.791"/><rect fill="#FFFFFF" height="31.291" style="stroke:#181818;stroke-width:1.0;" width="10" x="1327" y="1984.8281"/><rect fill="#FFFFFF" height="31.291" style="stroke:#181818;stroke-width:1.0;" width="10" x="1785.5" y="1859.6641"/><rect fill="#FFFFFF" height="31.291" style="stroke:#181818;stroke-width:1.0;" width="10" x="1900" y="1922.2461"/><rect fill="none" height="141.1641" style="stroke:#000000;stroke-width:1.5;" width="361" x="649.5" y="471.4043"/><rect fill="none" height="63.582" style="stroke:#000000;stroke-width:1.5;" width="341" x="659.5" y="541.9863"/><rect fill="none" height="96.873" style="stroke:#000000;stroke-width:1.5;" width="283" x="649.5" y="1197.6797"/><rect fill="none" height="63.582" style="stroke:#000000;stroke-width:1.5;" width="263" x="659.5" y="1223.9707"/><rect fill="none" height="207.0371" style="stroke:#000000;stroke-width:1.5;" width="1280" x="659.5" y="1817.082"/><line style="stroke:#181818;stroke-width:0.5;stroke-dasharray:5.0,5.0;" x1="22" x2="22" y1="83.6211" y2="2224.1563"/><line style="stroke:#181818;stroke-width:0.5;stroke-dasharray:5.0,5.0;" x1="273" x2="273" y1="83.6211" y2="2224.1563"/><line style="stroke:#181818;stroke-width:0.5;stroke-dasharray:5.0,5.0;" x1="591.5" x2="591.5" y1="83.6211" y2="2224.1563"/><line style="stroke:#181818;stroke-width:0.5;stroke-dasharray:5.0,5.0;" x1="762.5" x2="762.5" y1="83.6211" y2="2224.1563"/><line style="stroke:#181818;stroke-width:0.5;stroke-dasharray:5.0,5.0;" x1="989" x2="989" y1="83.6211" y2="2224.1563"/><line style="stroke:#181818;stroke-width:0.5;stroke-dasharray:5.0,5.0;" x1="1180.5" x2="1180.5" y1="83.6211" y2="2224.1563"/><line style="stroke:#181818;stroke-width:0.5;stroke-dasharray:5.0,5.0;" x1="1331.5" x2="1331.5" y1="83.6211" y2="2224.1563"/><line style="stroke:#181818;stroke-width:0.5;stroke-dasharray:5.0,5.0;" x1="1453.5" x2="1453.5" y1="83.6211" y2="2224.1563"/><line style="stroke:#181818;stroke-width:0.5;stroke-dasharray:5.0,5.0;" x1="1535.5" x2="1535.5" y1="83.6211" y2="2224.1563"/><line style="stroke:#181818;stroke-width:0.5;stroke-dasharray:5.0,5.0;" x1="1632.5" x2="1632.5" y1="83.6211" y2="2224.1563"/><line style="stroke:#181818;stroke-width:0.5;stroke-dasharray:5.0,5.0;" x1="1790.5" x2="1790.5" y1="83.6211" y2="2224.1563"/><line style="stroke:#181818;stroke-width:0.5;stroke-dasharray:5.0,5.0;" x1="1904.5" x2="1904.5" y1="83.6211" y2="2224.1563"/><text fill="#000000" font-family="FG Virgil" font-size="14" lengthAdjust="spacing" textLength="29" x="5" y="80.1074">User</text><ellipse cx="22.5" cy="13.5" fill="#E3E3E3" rx="8" ry="8" style="stroke:#181818;stroke-width:0.5;"/><path d="M22.5,21.5 L22.5,48.5 M9.5,29.5 L35.5,29.5 M22.5,48.5 L9.5,63.5 M22.5,48.5 L35.5,63.5 " fill="none" style="stroke:#181818;stroke-width:0.5;"/><text fill="#000000" font-family="FG Virgil" font-size="14" lengthAdjust="spacing" textLength="29" x="5" y="2238.2637">User</text><ellipse cx="22.5" cy="2250.2773" fill="#E3E3E3" rx="8" ry="8" style="stroke:#181818;stroke-width:0.5;"/><path d="M22.5,2258.2773 L22.5,2285.2773 M9.5,2266.2773 L35.5,2266.2773 M22.5,2285.2773 L9.5,2300.2773 M22.5,2285.2773 L35.5,2300.2773 " fill="none" style="stroke:#181818;stroke-width:0.5;"/><rect fill="#E3E3E3" height="51.2422" rx="2.5" ry="2.5" style="stroke:#181818;stroke-width:0.5;" width="109" x="219" y="31.3789"/><text fill="#000000" font-family="FG Virgil" font-size="14" font-style="italic" lengthAdjust="spacing" textLength="95" x="226" y="53.4863">&#171;presentation&#187;</text><text fill="#000000" font-family="FG Virgil" font-size="14" lengthAdjust="spacing" textLength="80" x="233.5" y="72.1074">UndoPostItUI</text><rect fill="#E3E3E3" height="51.2422" rx="2.5" ry="2.5" style="stroke:#181818;stroke-width:0.5;" width="109" x="219" y="2223.1563"/><text fill="#000000" font-family="FG Virgil" font-size="14" font-style="italic" lengthAdjust="spacing" textLength="95" x="226" y="2245.2637">&#171;presentation&#187;</text><text fill="#000000" font-family="FG Virgil" font-size="14" lengthAdjust="spacing" textLength="80" x="233.5" y="2263.8848">UndoPostItUI</text><text fill="#000000" font-family="FG Virgil" font-size="14" font-style="italic" lengthAdjust="spacing" textLength="84" x="546.5" y="61.4863">&#171;application&#187;</text><text fill="#000000" font-family="FG Virgil" font-size="14" lengthAdjust="spacing" textLength="130" x="523.5" y="80.1074">UndoPostItController</text><ellipse cx="591.5" cy="30.3789" fill="#E3E3E3" rx="12" ry="12" style="stroke:#181818;stroke-width:0.5;"/><polygon fill="#181818" points="587.5,18.3789,593.5,13.3789,591.5,18.3789,593.5,23.3789,587.5,18.3789" style="stroke:#181818;stroke-width:1.0;"/><text fill="#000000" font-family="FG Virgil" font-size="14" font-style="italic" lengthAdjust="spacing" textLength="84" x="546.5" y="2238.2637">&#171;application&#187;</text><text fill="#000000" font-family="FG Virgil" font-size="14" lengthAdjust="spacing" textLength="130" x="523.5" y="2256.8848">UndoPostItController</text><ellipse cx="591.5" cy="2276.3984" fill="#E3E3E3" rx="12" ry="12" style="stroke:#181818;stroke-width:0.5;"/><polygon fill="#181818" points="587.5,2264.3984,593.5,2259.3984,591.5,2264.3984,593.5,2269.3984,587.5,2264.3984" style="stroke:#181818;stroke-width:1.0;"/><rect fill="#E3E3E3" height="32.6211" rx="2.5" ry="2.5" style="stroke:#181818;stroke-width:0.5;" width="186" x="669.5" y="50"/><text fill="#000000" font-family="FG Virgil" font-size="14" lengthAdjust="spacing" textLength="172" x="676.5" y="72.1074">TcpServerMessageHandler</text><rect fill="#E3E3E3" height="32.6211" rx="2.5" ry="2.5" style="stroke:#181818;stroke-width:0.5;" width="186" x="669.5" y="2223.1563"/><text fill="#000000" font-family="FG Virgil" font-size="14" lengthAdjust="spacing" textLength="172" x="676.5" y="2245.2637">TcpServerMessageHandler</text><rect fill="#E3E3E3" height="32.6211" rx="2.5" ry="2.5" style="stroke:#181818;stroke-width:0.5;" width="111" x="934" y="50"/><text fill="#000000" font-family="FG Virgil" font-size="14" lengthAdjust="spacing" textLength="97" x="941" y="72.1074">UserRepository</text><rect fill="#E3E3E3" height="32.6211" rx="2.5" ry="2.5" style="stroke:#181818;stroke-width:0.5;" width="111" x="934" y="2223.1563"/><text fill="#000000" font-family="FG Virgil" font-size="14" lengthAdjust="spacing" textLength="97" x="941" y="2245.2637">UserRepository</text><rect fill="#E3E3E3" height="32.6211" rx="2.5" ry="2.5" style="stroke:#181818;stroke-width:0.5;" width="166" x="1097.5" y="50"/><text fill="#000000" font-family="FG Virgil" font-size="14" lengthAdjust="spacing" textLength="152" x="1104.5" y="72.1074">SharedBoardRepository</text><rect fill="#E3E3E3" height="32.6211" rx="2.5" ry="2.5" style="stroke:#181818;stroke-width:0.5;" width="166" x="1097.5" y="2223.1563"/><text fill="#000000" font-family="FG Virgil" font-size="14" lengthAdjust="spacing" textLength="152" x="1104.5" y="2245.2637">SharedBoardRepository</text><rect fill="#E3E3E3" height="32.6211" rx="2.5" ry="2.5" style="stroke:#181818;stroke-width:0.5;" width="117" x="1273.5" y="50"/><text fill="#000000" font-family="FG Virgil" font-size="14" lengthAdjust="spacing" textLength="103" x="1280.5" y="72.1074">PostItRepository</text><rect fill="#E3E3E3" height="32.6211" rx="2.5" ry="2.5" style="stroke:#181818;stroke-width:0.5;" width="117" x="1273.5" y="2223.1563"/><text fill="#000000" font-family="FG Virgil" font-size="14" lengthAdjust="spacing" textLength="103" x="1280.5" y="2245.2637">PostItRepository</text><rect fill="#E3E3E3" height="32.6211" rx="2.5" ry="2.5" style="stroke:#181818;stroke-width:0.5;" width="106" x="1400.5" y="50"/><text fill="#000000" font-family="FG Virgil" font-size="14" lengthAdjust="spacing" textLength="92" x="1407.5" y="72.1074">CellRepository</text><rect fill="#E3E3E3" height="32.6211" rx="2.5" ry="2.5" style="stroke:#181818;stroke-width:0.5;" width="106" x="1400.5" y="2223.1563"/><text fill="#000000" font-family="FG Virgil" font-size="14" lengthAdjust="spacing" textLength="92" x="1407.5" y="2245.2637">CellRepository</text><rect fill="#E3E3E3" height="32.6211" rx="2.5" ry="2.5" style="stroke:#181818;stroke-width:0.5;" width="38" x="1516.5" y="50"/><text fill="#000000" font-family="FG Virgil" font-size="14" lengthAdjust="spacing" textLength="24" x="1523.5" y="72.1074">Cell</text><rect fill="#E3E3E3" height="32.6211" rx="2.5" ry="2.5" style="stroke:#181818;stroke-width:0.5;" width="38" x="1516.5" y="2223.1563"/><text fill="#000000" font-family="FG Virgil" font-size="14" lengthAdjust="spacing" textLength="24" x="1523.5" y="2245.2637">Cell</text><rect fill="#E3E3E3" height="32.6211" rx="2.5" ry="2.5" style="stroke:#181818;stroke-width:0.5;" width="136" x="1564.5" y="50"/><text fill="#000000" font-family="FG Virgil" font-size="14" lengthAdjust="spacing" textLength="122" x="1571.5" y="72.1074">PostItHistoryBuilder</text><rect fill="#E3E3E3" height="32.6211" rx="2.5" ry="2.5" style="stroke:#181818;stroke-width:0.5;" width="136" x="1564.5" y="2223.1563"/><text fill="#000000" font-family="FG Virgil" font-size="14" lengthAdjust="spacing" textLength="122" x="1571.5" y="2245.2637">PostItHistoryBuilder</text><rect fill="#E3E3E3" height="32.6211" rx="2.5" ry="2.5" style="stroke:#181818;stroke-width:0.5;" width="160" x="1710.5" y="50"/><text fill="#000000" font-family="FG Virgil" font-size="14" lengthAdjust="spacing" textLength="146" x="1717.5" y="72.1074">PostItHistoryRepository</text><rect fill="#E3E3E3" height="32.6211" rx="2.5" ry="2.5" style="stroke:#181818;stroke-width:0.5;" width="160" x="1710.5" y="2223.1563"/><text fill="#000000" font-family="FG Virgil" font-size="14" lengthAdjust="spacing" textLength="146" x="1717.5" y="2245.2637">PostItHistoryRepository</text><rect fill="#E3E3E3" height="32.6211" rx="2.5" ry="2.5" style="stroke:#181818;stroke-width:0.5;" width="49" x="1880.5" y="50"/><text fill="#000000" font-family="FG Virgil" font-size="14" lengthAdjust="spacing" textLength="35" x="1887.5" y="72.1074">PostIt</text><rect fill="#E3E3E3" height="32.6211" rx="2.5" ry="2.5" style="stroke:#181818;stroke-width:0.5;" width="49" x="1880.5" y="2223.1563"/><text fill="#000000" font-family="FG Virgil" font-size="14" lengthAdjust="spacing" textLength="35" x="1887.5" y="2245.2637">PostIt</text><rect fill="#FFFFFF" height="2112.5352" style="stroke:#181818;stroke-width:1.0;" width="10" x="17.5" y="93.6211"/><rect fill="#FFFFFF" height="2098.2441" style="stroke:#181818;stroke-width:1.0;" width="10" x="268.5" y="116.9121"/><rect fill="#FFFFFF" height="601.1113" style="stroke:#181818;stroke-width:1.0;" width="10" x="586.5" y="148.2031"/><rect fill="#FFFFFF" height="588.1113" style="stroke:#181818;stroke-width:1.0;" width="10" x="586.5" y="874.4785"/><rect fill="#FFFFFF" height="618.4023" style="stroke:#181818;stroke-width:1.0;" width="10" x="586.5" y="1556.4629"/><rect fill="#FFFFFF" height="480.6563" style="stroke:#181818;stroke-width:1.0;" width="10" x="757.5" y="268.6582"/><rect fill="#FFFFFF" height="436.3652" style="stroke:#181818;stroke-width:1.0;" width="10" x="757.5" y="994.9336"/><rect fill="#FFFFFF" height="466.6563" style="stroke:#181818;stroke-width:1.0;" width="10" x="757.5" y="1676.918"/><rect fill="#FFFFFF" height="31.291" style="stroke:#181818;stroke-width:1.0;" width="10" x="984.5" y="299.9492"/><rect fill="#FFFFFF" height="31.291" style="stroke:#181818;stroke-width:1.0;" width="10" x="984.5" y="1026.2246"/><rect fill="#FFFFFF" height="31.291" style="stroke:#181818;stroke-width:1.0;" width="10" x="984.5" y="1708.209"/><rect fill="#FFFFFF" height="31.291" style="stroke:#181818;stroke-width:1.0;" width="10" x="1175.5" y="362.5313"/><rect fill="#FFFFFF" height="31.291" style="stroke:#181818;stroke-width:1.0;" width="10" x="1175.5" y="425.1133"/><rect fill="#FFFFFF" height="31.291" style="stroke:#181818;stroke-width:1.0;" width="10" x="1175.5" y="1088.8066"/><rect fill="#FFFFFF" height="31.291" style="stroke:#181818;stroke-width:1.0;" width="10" x="1327" y="1151.3887"/><rect fill="#FFFFFF" height="31.291" style="stroke:#181818;stroke-width:1.0;" width="10" x="1327" y="1770.791"/><rect fill="#FFFFFF" height="31.291" style="stroke:#181818;stroke-width:1.0;" width="10" x="1327" y="1984.8281"/><rect fill="#FFFFFF" height="31.291" style="stroke:#181818;stroke-width:1.0;" width="10" x="1785.5" y="1859.6641"/><rect fill="#FFFFFF" height="31.291" style="stroke:#181818;stroke-width:1.0;" width="10" x="1900" y="1922.2461"/><polygon fill="#181818" points="256.5,112.9121,266.5,116.9121,256.5,120.9121,260.5,116.9121" style="stroke:#181818;stroke-width:1.0;"/><line style="stroke:#181818;stroke-width:1.0;" x1="27.5" x2="262.5" y1="116.9121" y2="116.9121"/><text fill="#000000" font-family="FG Virgil" font-size="13" font-weight="bold" lengthAdjust="spacing" textLength="7" x="34.5" y="111.6494">1</text><text fill="#000000" font-family="FG Virgil" font-size="13" lengthAdjust="spacing" textLength="132" x="45.5" y="111.6494">wants to undo a post-it</text><polygon fill="#181818" points="574.5,144.2031,584.5,148.2031,574.5,152.2031,578.5,148.2031" style="stroke:#181818;stroke-width:1.0;"/><line style="stroke:#181818;stroke-width:1.0;" x1="278.5" x2="580.5" y1="148.2031" y2="148.2031"/><text fill="#000000" font-family="FG Virgil" font-size="13" font-weight="bold" lengthAdjust="spacing" textLength="7" x="285.5" y="142.9404">2</text><text fill="#000000" font-family="FG Virgil" font-size="13" lengthAdjust="spacing" textLength="278" x="296.5" y="142.9404">listSharedBoards(SharedBoardClient.userName)</text><path d="M601,161.2031 L601,240.2031 L884,240.2031 L884,171.2031 L874,161.2031 L601,161.2031 " fill="#FAFAFA" style="stroke:#181818;stroke-width:0.5;"/><path d="M874,161.2031 L874,171.2031 L884,171.2031 L874,161.2031 " fill="#FAFAFA" style="stroke:#181818;stroke-width:0.5;"/><text fill="#000000" font-family="FG Virgil" font-size="13" lengthAdjust="spacing" textLength="153" x="607" y="180.2314">request is created with the</text><text fill="#000000" font-family="FG Virgil" font-size="13" lengthAdjust="spacing" textLength="171" x="607" y="197.5225">class RequestMessage using</text><text fill="#000000" font-family="FG Virgil" font-size="13" lengthAdjust="spacing" textLength="262" x="607" y="214.8135">code SHAREDBOARDS_CREATE_INVITE(8)</text><text fill="#000000" font-family="FG Virgil" font-size="13" lengthAdjust="spacing" textLength="137" x="611" y="232.1045">pass by parameter user</text><polygon fill="#181818" points="745.5,264.6582,755.5,268.6582,745.5,272.6582,749.5,268.6582" style="stroke:#181818;stroke-width:1.0;"/><line style="stroke:#181818;stroke-width:1.0;" x1="596.5" x2="751.5" y1="268.6582" y2="268.6582"/><text fill="#000000" font-family="FG Virgil" font-size="13" font-weight="bold" lengthAdjust="spacing" textLength="7" x="603.5" y="263.3955">3</text><text fill="#000000" font-family="FG Virgil" font-size="13" lengthAdjust="spacing" textLength="79" x="614.5" y="263.3955">send(request)</text><polygon fill="#181818" points="972.5,295.9492,982.5,299.9492,972.5,303.9492,976.5,299.9492" style="stroke:#181818;stroke-width:1.0;"/><line style="stroke:#181818;stroke-width:1.0;" x1="767.5" x2="978.5" y1="299.9492" y2="299.9492"/><text fill="#000000" font-family="FG Virgil" font-size="13" font-weight="bold" lengthAdjust="spacing" textLength="7" x="774.5" y="294.6865">4</text><text fill="#000000" font-family="FG Virgil" font-size="13" lengthAdjust="spacing" textLength="152" x="785.5" y="294.6865">user = findById(username)</text><polygon fill="#181818" points="778.5,327.2402,768.5,331.2402,778.5,335.2402,774.5,331.2402" style="stroke:#181818;stroke-width:1.0;"/><line style="stroke:#181818;stroke-width:1.0;stroke-dasharray:2.0,2.0;" x1="772.5" x2="988.5" y1="331.2402" y2="331.2402"/><text fill="#000000" font-family="FG Virgil" font-size="13" font-weight="bold" lengthAdjust="spacing" textLength="7" x="784.5" y="325.9775">5</text><text fill="#000000" font-family="FG Virgil" font-size="13" lengthAdjust="spacing" textLength="116" x="795.5" y="325.9775">returns SystemUser</text><polygon fill="#181818" points="1163.5,358.5313,1173.5,362.5313,1163.5,366.5313,1167.5,362.5313" style="stroke:#181818;stroke-width:1.0;"/><line style="stroke:#181818;stroke-width:1.0;" x1="767.5" x2="1169.5" y1="362.5313" y2="362.5313"/><text fill="#000000" font-family="FG Virgil" font-size="13" font-weight="bold" lengthAdjust="spacing" textLength="7" x="774.5" y="357.2686">6</text><text fill="#000000" font-family="FG Virgil" font-size="13" lengthAdjust="spacing" textLength="378" x="785.5" y="357.2686">sharedBoardListInvited = findSharedBoardsAvailableForUser(user)</text><polygon fill="#181818" points="778.5,389.8223,768.5,393.8223,778.5,397.8223,774.5,393.8223" style="stroke:#181818;stroke-width:1.0;"/><line style="stroke:#181818;stroke-width:1.0;stroke-dasharray:2.0,2.0;" x1="772.5" x2="1179.5" y1="393.8223" y2="393.8223"/><text fill="#000000" font-family="FG Virgil" font-size="13" font-weight="bold" lengthAdjust="spacing" textLength="7" x="784.5" y="388.5596">7</text><text fill="#000000" font-family="FG Virgil" font-size="13" lengthAdjust="spacing" textLength="156" x="795.5" y="388.5596">returns List&lt;SharedBoard&gt;</text><polygon fill="#181818" points="1163.5,421.1133,1173.5,425.1133,1163.5,429.1133,1167.5,425.1133" style="stroke:#181818;stroke-width:1.0;"/><line style="stroke:#181818;stroke-width:1.0;" x1="767.5" x2="1169.5" y1="425.1133" y2="425.1133"/><text fill="#000000" font-family="FG Virgil" font-size="13" font-weight="bold" lengthAdjust="spacing" textLength="7" x="774.5" y="419.8506">8</text><text fill="#000000" font-family="FG Virgil" font-size="13" lengthAdjust="spacing" textLength="322" x="785.5" y="419.8506">availableSharedBoards = findSharedBoardsOfUser(user)</text><polygon fill="#181818" points="778.5,452.4043,768.5,456.4043,778.5,460.4043,774.5,456.4043" style="stroke:#181818;stroke-width:1.0;"/><line style="stroke:#181818;stroke-width:1.0;stroke-dasharray:2.0,2.0;" x1="772.5" x2="1179.5" y1="456.4043" y2="456.4043"/><text fill="#000000" font-family="FG Virgil" font-size="13" font-weight="bold" lengthAdjust="spacing" textLength="7" x="784.5" y="451.1416">9</text><text fill="#000000" font-family="FG Virgil" font-size="13" lengthAdjust="spacing" textLength="156" x="795.5" y="451.1416">returns List&lt;SharedBoard&gt;</text><path d="M649.5,471.4043 L710.5,471.4043 L710.5,480.6953 L700.5,490.6953 L649.5,490.6953 L649.5,471.4043 " fill="#EEEEEE" style="stroke:#000000;stroke-width:1.5;"/><rect fill="none" height="141.1641" style="stroke:#000000;stroke-width:1.5;" width="361" x="649.5" y="471.4043"/><text fill="#000000" font-family="FG Virgil" font-size="13" font-weight="bold" lengthAdjust="spacing" textLength="16" x="664.5" y="486.4326">alt</text><text fill="#000000" font-family="FG Virgil" font-size="11" font-weight="bold" lengthAdjust="spacing" textLength="198" x="725.5" y="485.2744">[if(!availableSharedBoards.isEmpty)]</text><line style="stroke:#181818;stroke-width:1.0;stroke-dasharray:2.0,2.0;" x1="767.5" x2="809.5" y1="513.9863" y2="513.9863"/><line style="stroke:#181818;stroke-width:1.0;stroke-dasharray:2.0,2.0;" x1="809.5" x2="809.5" y1="513.9863" y2="526.9863"/><line style="stroke:#181818;stroke-width:1.0;stroke-dasharray:2.0,2.0;" x1="768.5" x2="809.5" y1="526.9863" y2="526.9863"/><polygon fill="#181818" points="778.5,522.9863,768.5,526.9863,778.5,530.9863,774.5,526.9863" style="stroke:#181818;stroke-width:1.0;"/><text fill="#000000" font-family="FG Virgil" font-size="13" font-weight="bold" lengthAdjust="spacing" textLength="14" x="774.5" y="508.7236">10</text><text fill="#000000" font-family="FG Virgil" font-size="13" lengthAdjust="spacing" textLength="185" x="792.5" y="508.7236">addAll(sharedBoardListInvitated)</text><path d="M659.5,541.9863 L720.5,541.9863 L720.5,551.2773 L710.5,561.2773 L659.5,561.2773 L659.5,541.9863 " fill="#EEEEEE" style="stroke:#000000;stroke-width:1.5;"/><rect fill="none" height="63.582" style="stroke:#000000;stroke-width:1.5;" width="341" x="659.5" y="541.9863"/><text fill="#000000" font-family="FG Virgil" font-size="13" font-weight="bold" lengthAdjust="spacing" textLength="16" x="674.5" y="557.0146">alt</text><text fill="#000000" font-family="FG Virgil" font-size="11" font-weight="bold" lengthAdjust="spacing" textLength="260" x="735.5" y="555.8564">[for (SharedBoard list : availableSharedBoards)]</text><line style="stroke:#181818;stroke-width:1.0;" x1="767.5" x2="809.5" y1="584.5684" y2="584.5684"/><line style="stroke:#181818;stroke-width:1.0;" x1="809.5" x2="809.5" y1="584.5684" y2="597.5684"/><line style="stroke:#181818;stroke-width:1.0;" x1="768.5" x2="809.5" y1="597.5684" y2="597.5684"/><polygon fill="#181818" points="778.5,593.5684,768.5,597.5684,778.5,601.5684,774.5,597.5684" style="stroke:#181818;stroke-width:1.0;"/><text fill="#000000" font-family="FG Virgil" font-size="13" font-weight="bold" lengthAdjust="spacing" textLength="14" x="774.5" y="579.3057">11</text><text fill="#000000" font-family="FG Virgil" font-size="13" lengthAdjust="spacing" textLength="154" x="792.5" y="579.3057">sharedBoards += list.title()</text><path d="M601,624.5684 L601,720.5684 L814,720.5684 L814,634.5684 L804,624.5684 L601,624.5684 " fill="#FAFAFA" style="stroke:#181818;stroke-width:0.5;"/><path d="M804,624.5684 L804,634.5684 L814,634.5684 L804,624.5684 " fill="#FAFAFA" style="stroke:#181818;stroke-width:0.5;"/><text fill="#000000" font-family="FG Virgil" font-size="13" lengthAdjust="spacing" textLength="163" x="607" y="643.5967">response is created with the</text><text fill="#000000" font-family="FG Virgil" font-size="13" lengthAdjust="spacing" textLength="171" x="607" y="660.8877">class RequestMessage using</text><text fill="#000000" font-family="FG Virgil" font-size="13" lengthAdjust="spacing" textLength="188" x="607" y="678.1787">code SEND_MESSAGE(6) pass</text><text fill="#000000" font-family="FG Virgil" font-size="13" lengthAdjust="spacing" textLength="114" x="607" y="695.4697">by parameter String</text><text fill="#000000" font-family="FG Virgil" font-size="13" lengthAdjust="spacing" textLength="131" x="607" y="712.7607">availableSharedBoards</text><polygon fill="#181818" points="602.5,745.3145,592.5,749.3145,602.5,753.3145,598.5,749.3145" style="stroke:#181818;stroke-width:1.0;"/><line style="stroke:#181818;stroke-width:1.0;stroke-dasharray:2.0,2.0;" x1="596.5" x2="761.5" y1="749.3145" y2="749.3145"/><text fill="#000000" font-family="FG Virgil" font-size="13" font-weight="bold" lengthAdjust="spacing" textLength="14" x="608.5" y="744.0518">12</text><text fill="#000000" font-family="FG Virgil" font-size="13" lengthAdjust="spacing" textLength="89" x="626.5" y="744.0518">send(response)</text><polygon fill="#181818" points="289.5,776.6055,279.5,780.6055,289.5,784.6055,285.5,780.6055" style="stroke:#181818;stroke-width:1.0;"/><line style="stroke:#181818;stroke-width:1.0;stroke-dasharray:2.0,2.0;" x1="283.5" x2="590.5" y1="780.6055" y2="780.6055"/><text fill="#000000" font-family="FG Virgil" font-size="13" font-weight="bold" lengthAdjust="spacing" textLength="14" x="295.5" y="775.3428">13</text><text fill="#000000" font-family="FG Virgil" font-size="13" lengthAdjust="spacing" textLength="176" x="313.5" y="775.3428">returns String sharedBoardList</text><polygon fill="#181818" points="38.5,807.8965,28.5,811.8965,38.5,815.8965,34.5,811.8965" style="stroke:#181818;stroke-width:1.0;"/><line style="stroke:#181818;stroke-width:1.0;stroke-dasharray:2.0,2.0;" x1="32.5" x2="267.5" y1="811.8965" y2="811.8965"/><text fill="#000000" font-family="FG Virgil" font-size="13" font-weight="bold" lengthAdjust="spacing" textLength="14" x="44.5" y="806.6338">14</text><text fill="#000000" font-family="FG Virgil" font-size="13" lengthAdjust="spacing" textLength="181" x="62.5" y="806.6338">Asks to choose a shared board</text><polygon fill="#181818" points="256.5,839.1875,266.5,843.1875,256.5,847.1875,260.5,843.1875" style="stroke:#181818;stroke-width:1.0;"/><line style="stroke:#181818;stroke-width:1.0;" x1="27.5" x2="262.5" y1="843.1875" y2="843.1875"/><text fill="#000000" font-family="FG Virgil" font-size="13" font-weight="bold" lengthAdjust="spacing" textLength="14" x="34.5" y="837.9248">15</text><text fill="#000000" font-family="FG Virgil" font-size="13" lengthAdjust="spacing" textLength="134" x="52.5" y="837.9248">Selects a shared board</text><polygon fill="#181818" points="574.5,870.4785,584.5,874.4785,574.5,878.4785,578.5,874.4785" style="stroke:#181818;stroke-width:1.0;"/><line style="stroke:#181818;stroke-width:1.0;" x1="278.5" x2="580.5" y1="874.4785" y2="874.4785"/><text fill="#000000" font-family="FG Virgil" font-size="13" font-weight="bold" lengthAdjust="spacing" textLength="14" x="285.5" y="869.2158">16</text><text fill="#000000" font-family="FG Virgil" font-size="13" lengthAdjust="spacing" textLength="206" x="303.5" y="869.2158">listPostIts(userName, sharedBoard)</text><path d="M601,887.4785 L601,966.4785 L933,966.4785 L933,897.4785 L923,887.4785 L601,887.4785 " fill="#FAFAFA" style="stroke:#181818;stroke-width:0.5;"/><path d="M923,887.4785 L923,897.4785 L933,897.4785 L923,887.4785 " fill="#FAFAFA" style="stroke:#181818;stroke-width:0.5;"/><text fill="#000000" font-family="FG Virgil" font-size="13" lengthAdjust="spacing" textLength="153" x="607" y="906.5068">request is created with the</text><text fill="#000000" font-family="FG Virgil" font-size="13" lengthAdjust="spacing" textLength="171" x="607" y="923.7979">class RequestMessage using</text><text fill="#000000" font-family="FG Virgil" font-size="13" lengthAdjust="spacing" textLength="141" x="607" y="941.0889">code LIST_POSTITS(14)</text><text fill="#000000" font-family="FG Virgil" font-size="13" lengthAdjust="spacing" textLength="307" x="611" y="958.3799">pass by parameter userName and sharedBoardName</text><polygon fill="#181818" points="745.5,990.9336,755.5,994.9336,745.5,998.9336,749.5,994.9336" style="stroke:#181818;stroke-width:1.0;"/><line style="stroke:#181818;stroke-width:1.0;" x1="596.5" x2="751.5" y1="994.9336" y2="994.9336"/><text fill="#000000" font-family="FG Virgil" font-size="13" font-weight="bold" lengthAdjust="spacing" textLength="14" x="603.5" y="989.6709">17</text><text fill="#000000" font-family="FG Virgil" font-size="13" lengthAdjust="spacing" textLength="79" x="621.5" y="989.6709">send(request)</text><polygon fill="#181818" points="972.5,1022.2246,982.5,1026.2246,972.5,1030.2246,976.5,1026.2246" style="stroke:#181818;stroke-width:1.0;"/><line style="stroke:#181818;stroke-width:1.0;" x1="767.5" x2="978.5" y1="1026.2246" y2="1026.2246"/><text fill="#000000" font-family="FG Virgil" font-size="13" font-weight="bold" lengthAdjust="spacing" textLength="14" x="774.5" y="1020.9619">18</text><text fill="#000000" font-family="FG Virgil" font-size="13" lengthAdjust="spacing" textLength="152" x="792.5" y="1020.9619">user = findById(username)</text><polygon fill="#181818" points="778.5,1053.5156,768.5,1057.5156,778.5,1061.5156,774.5,1057.5156" style="stroke:#181818;stroke-width:1.0;"/><line style="stroke:#181818;stroke-width:1.0;stroke-dasharray:2.0,2.0;" x1="772.5" x2="988.5" y1="1057.5156" y2="1057.5156"/><text fill="#000000" font-family="FG Virgil" font-size="13" font-weight="bold" lengthAdjust="spacing" textLength="14" x="784.5" y="1052.2529">19</text><text fill="#000000" font-family="FG Virgil" font-size="13" lengthAdjust="spacing" textLength="116" x="802.5" y="1052.2529">returns SystemUser</text><polygon fill="#181818" points="1163.5,1084.8066,1173.5,1088.8066,1163.5,1092.8066,1167.5,1088.8066" style="stroke:#181818;stroke-width:1.0;"/><line style="stroke:#181818;stroke-width:1.0;" x1="767.5" x2="1169.5" y1="1088.8066" y2="1088.8066"/><text fill="#000000" font-family="FG Virgil" font-size="13" font-weight="bold" lengthAdjust="spacing" textLength="14" x="774.5" y="1083.5439">20</text><text fill="#000000" font-family="FG Virgil" font-size="13" lengthAdjust="spacing" textLength="200" x="792.5" y="1083.5439">findSharedBoard(sharedBoardTitle)</text><polygon fill="#181818" points="778.5,1116.0977,768.5,1120.0977,778.5,1124.0977,774.5,1120.0977" style="stroke:#181818;stroke-width:1.0;"/><line style="stroke:#181818;stroke-width:1.0;stroke-dasharray:2.0,2.0;" x1="772.5" x2="1179.5" y1="1120.0977" y2="1120.0977"/><text fill="#000000" font-family="FG Virgil" font-size="13" font-weight="bold" lengthAdjust="spacing" textLength="14" x="784.5" y="1114.835">21</text><text fill="#000000" font-family="FG Virgil" font-size="13" lengthAdjust="spacing" textLength="117" x="802.5" y="1114.835">returns sharedBoard</text><polygon fill="#181818" points="1315,1147.3887,1325,1151.3887,1315,1155.3887,1319,1151.3887" style="stroke:#181818;stroke-width:1.0;"/><line style="stroke:#181818;stroke-width:1.0;" x1="767.5" x2="1321" y1="1151.3887" y2="1151.3887"/><text fill="#000000" font-family="FG Virgil" font-size="13" font-weight="bold" lengthAdjust="spacing" textLength="14" x="774.5" y="1146.126">22</text><text fill="#000000" font-family="FG Virgil" font-size="13" lengthAdjust="spacing" textLength="280" x="792.5" y="1146.126">findPostItsFromSharedBoard(sharedBoard, user)</text><polygon fill="#181818" points="778.5,1178.6797,768.5,1182.6797,778.5,1186.6797,774.5,1182.6797" style="stroke:#181818;stroke-width:1.0;"/><line style="stroke:#181818;stroke-width:1.0;stroke-dasharray:2.0,2.0;" x1="772.5" x2="1331" y1="1182.6797" y2="1182.6797"/><text fill="#000000" font-family="FG Virgil" font-size="13" font-weight="bold" lengthAdjust="spacing" textLength="14" x="784.5" y="1177.417">23</text><text fill="#000000" font-family="FG Virgil" font-size="13" lengthAdjust="spacing" textLength="104" x="802.5" y="1177.417">returns postItsList</text><path d="M649.5,1197.6797 L710.5,1197.6797 L710.5,1206.9707 L700.5,1216.9707 L649.5,1216.9707 L649.5,1197.6797 " fill="#EEEEEE" style="stroke:#000000;stroke-width:1.5;"/><rect fill="none" height="96.873" style="stroke:#000000;stroke-width:1.5;" width="283" x="649.5" y="1197.6797"/><text fill="#000000" font-family="FG Virgil" font-size="13" font-weight="bold" lengthAdjust="spacing" textLength="16" x="664.5" y="1212.708">alt</text><text fill="#000000" font-family="FG Virgil" font-size="11" font-weight="bold" lengthAdjust="spacing" textLength="133" x="725.5" y="1211.5498">[if(!postItsList.isEmpty)]</text><path d="M659.5,1223.9707 L720.5,1223.9707 L720.5,1233.2617 L710.5,1243.2617 L659.5,1243.2617 L659.5,1223.9707 " fill="#EEEEEE" style="stroke:#000000;stroke-width:1.5;"/><rect fill="none" height="63.582" style="stroke:#000000;stroke-width:1.5;" width="263" x="659.5" y="1223.9707"/><text fill="#000000" font-family="FG Virgil" font-size="13" font-weight="bold" lengthAdjust="spacing" textLength="16" x="674.5" y="1238.999">alt</text><text fill="#000000" font-family="FG Virgil" font-size="11" font-weight="bold" lengthAdjust="spacing" textLength="156" x="735.5" y="1237.8408">[for (PostIt list : postItsList)]</text><line style="stroke:#181818;stroke-width:1.0;" x1="767.5" x2="809.5" y1="1266.5527" y2="1266.5527"/><line style="stroke:#181818;stroke-width:1.0;" x1="809.5" x2="809.5" y1="1266.5527" y2="1279.5527"/><line style="stroke:#181818;stroke-width:1.0;" x1="768.5" x2="809.5" y1="1279.5527" y2="1279.5527"/><polygon fill="#181818" points="778.5,1275.5527,768.5,1279.5527,778.5,1283.5527,774.5,1279.5527" style="stroke:#181818;stroke-width:1.0;"/><text fill="#000000" font-family="FG Virgil" font-size="13" font-weight="bold" lengthAdjust="spacing" textLength="14" x="774.5" y="1261.29">24</text><text fill="#000000" font-family="FG Virgil" font-size="13" lengthAdjust="spacing" textLength="118" x="792.5" y="1261.29">postIt += list + " \ n"</text><path d="M601,1306.5527 L601,1402.5527 L814,1402.5527 L814,1316.5527 L804,1306.5527 L601,1306.5527 " fill="#FAFAFA" style="stroke:#181818;stroke-width:0.5;"/><path d="M804,1306.5527 L804,1316.5527 L814,1316.5527 L804,1306.5527 " fill="#FAFAFA" style="stroke:#181818;stroke-width:0.5;"/><text fill="#000000" font-family="FG Virgil" font-size="13" lengthAdjust="spacing" textLength="163" x="607" y="1325.5811">response is created with the</text><text fill="#000000" font-family="FG Virgil" font-size="13" lengthAdjust="spacing" textLength="171" x="607" y="1342.8721">class RequestMessage using</text><text fill="#000000" font-family="FG Virgil" font-size="13" lengthAdjust="spacing" textLength="188" x="607" y="1360.1631">code SEND_MESSAGE(6) pass</text><text fill="#000000" font-family="FG Virgil" font-size="13" lengthAdjust="spacing" textLength="114" x="607" y="1377.4541">by parameter String</text><text fill="#000000" font-family="FG Virgil" font-size="13" lengthAdjust="spacing" textLength="78" x="607" y="1394.7451">cellsAvailable</text><polygon fill="#181818" points="607.5,1427.2988,597.5,1431.2988,607.5,1435.2988,603.5,1431.2988" style="stroke:#181818;stroke-width:1.0;"/><line style="stroke:#181818;stroke-width:1.0;stroke-dasharray:2.0,2.0;" x1="601.5" x2="761.5" y1="1431.2988" y2="1431.2988"/><text fill="#000000" font-family="FG Virgil" font-size="13" font-weight="bold" lengthAdjust="spacing" textLength="14" x="613.5" y="1426.0361">25</text><text fill="#000000" font-family="FG Virgil" font-size="13" lengthAdjust="spacing" textLength="89" x="631.5" y="1426.0361">send(response)</text><polygon fill="#181818" points="289.5,1458.5898,279.5,1462.5898,289.5,1466.5898,285.5,1462.5898" style="stroke:#181818;stroke-width:1.0;"/><line style="stroke:#181818;stroke-width:1.0;stroke-dasharray:2.0,2.0;" x1="283.5" x2="590.5" y1="1462.5898" y2="1462.5898"/><text fill="#000000" font-family="FG Virgil" font-size="13" font-weight="bold" lengthAdjust="spacing" textLength="14" x="295.5" y="1457.3271">26</text><text fill="#000000" font-family="FG Virgil" font-size="13" lengthAdjust="spacing" textLength="142" x="313.5" y="1457.3271">returns String postItsList</text><polygon fill="#181818" points="38.5,1489.8809,28.5,1493.8809,38.5,1497.8809,34.5,1493.8809" style="stroke:#181818;stroke-width:1.0;"/><line style="stroke:#181818;stroke-width:1.0;stroke-dasharray:2.0,2.0;" x1="32.5" x2="267.5" y1="1493.8809" y2="1493.8809"/><text fill="#000000" font-family="FG Virgil" font-size="13" font-weight="bold" lengthAdjust="spacing" textLength="14" x="44.5" y="1488.6182">27</text><text fill="#000000" font-family="FG Virgil" font-size="13" lengthAdjust="spacing" textLength="178" x="62.5" y="1488.6182">Asks to select a postIt to undo</text><polygon fill="#181818" points="256.5,1521.1719,266.5,1525.1719,256.5,1529.1719,260.5,1525.1719" style="stroke:#181818;stroke-width:1.0;"/><line style="stroke:#181818;stroke-width:1.0;" x1="27.5" x2="262.5" y1="1525.1719" y2="1525.1719"/><text fill="#000000" font-family="FG Virgil" font-size="13" font-weight="bold" lengthAdjust="spacing" textLength="14" x="34.5" y="1519.9092">28</text><text fill="#000000" font-family="FG Virgil" font-size="13" lengthAdjust="spacing" textLength="80" x="52.5" y="1519.9092">Selects postIt</text><polygon fill="#181818" points="574.5,1552.4629,584.5,1556.4629,574.5,1560.4629,578.5,1556.4629" style="stroke:#181818;stroke-width:1.0;"/><line style="stroke:#181818;stroke-width:1.0;" x1="278.5" x2="580.5" y1="1556.4629" y2="1556.4629"/><text fill="#000000" font-family="FG Virgil" font-size="13" font-weight="bold" lengthAdjust="spacing" textLength="14" x="285.5" y="1551.2002">29</text><text fill="#000000" font-family="FG Virgil" font-size="13" lengthAdjust="spacing" textLength="102" x="303.5" y="1551.2002">undoPostIt(postIt)</text><path d="M601,1569.4629 L601,1648.4629 L797,1648.4629 L797,1579.4629 L787,1569.4629 L601,1569.4629 " fill="#FAFAFA" style="stroke:#181818;stroke-width:0.5;"/><path d="M787,1569.4629 L787,1579.4629 L797,1579.4629 L787,1569.4629 " fill="#FAFAFA" style="stroke:#181818;stroke-width:0.5;"/><text fill="#000000" font-family="FG Virgil" font-size="13" lengthAdjust="spacing" textLength="153" x="607" y="1588.4912">request is created with the</text><text fill="#000000" font-family="FG Virgil" font-size="13" lengthAdjust="spacing" textLength="171" x="607" y="1605.7822">class RequestMessage using</text><text fill="#000000" font-family="FG Virgil" font-size="13" lengthAdjust="spacing" textLength="143" x="607" y="1623.0732">code UNDO_POSTIT(17)</text><text fill="#000000" font-family="FG Virgil" font-size="13" lengthAdjust="spacing" textLength="144" x="611" y="1640.3643">pass by parameter postIt</text><polygon fill="#181818" points="745.5,1672.918,755.5,1676.918,745.5,1680.918,749.5,1676.918" style="stroke:#181818;stroke-width:1.0;"/><line style="stroke:#181818;stroke-width:1.0;" x1="596.5" x2="751.5" y1="1676.918" y2="1676.918"/><text fill="#000000" font-family="FG Virgil" font-size="13" font-weight="bold" lengthAdjust="spacing" textLength="14" x="603.5" y="1671.6553">30</text><text fill="#000000" font-family="FG Virgil" font-size="13" lengthAdjust="spacing" textLength="79" x="621.5" y="1671.6553">send(request)</text><polygon fill="#181818" points="972.5,1704.209,982.5,1708.209,972.5,1712.209,976.5,1708.209" style="stroke:#181818;stroke-width:1.0;"/><line style="stroke:#181818;stroke-width:1.0;" x1="767.5" x2="978.5" y1="1708.209" y2="1708.209"/><text fill="#000000" font-family="FG Virgil" font-size="13" font-weight="bold" lengthAdjust="spacing" textLength="14" x="774.5" y="1702.9463">31</text><text fill="#000000" font-family="FG Virgil" font-size="13" lengthAdjust="spacing" textLength="152" x="792.5" y="1702.9463">user = findById(username)</text><polygon fill="#181818" points="778.5,1735.5,768.5,1739.5,778.5,1743.5,774.5,1739.5" style="stroke:#181818;stroke-width:1.0;"/><line style="stroke:#181818;stroke-width:1.0;stroke-dasharray:2.0,2.0;" x1="772.5" x2="988.5" y1="1739.5" y2="1739.5"/><text fill="#000000" font-family="FG Virgil" font-size="13" font-weight="bold" lengthAdjust="spacing" textLength="14" x="784.5" y="1734.2373">32</text><text fill="#000000" font-family="FG Virgil" font-size="13" lengthAdjust="spacing" textLength="116" x="802.5" y="1734.2373">returns SystemUser</text><polygon fill="#181818" points="1315,1766.791,1325,1770.791,1315,1774.791,1319,1770.791" style="stroke:#181818;stroke-width:1.0;"/><line style="stroke:#181818;stroke-width:1.0;" x1="767.5" x2="1321" y1="1770.791" y2="1770.791"/><text fill="#000000" font-family="FG Virgil" font-size="13" font-weight="bold" lengthAdjust="spacing" textLength="14" x="774.5" y="1765.5283">33</text><text fill="#000000" font-family="FG Virgil" font-size="13" lengthAdjust="spacing" textLength="418" x="792.5" y="1765.5283">findPostItFromUserAndContentAndCell(username, content, row, column)</text><polygon fill="#181818" points="778.5,1798.082,768.5,1802.082,778.5,1806.082,774.5,1802.082" style="stroke:#181818;stroke-width:1.0;"/><line style="stroke:#181818;stroke-width:1.0;stroke-dasharray:2.0,2.0;" x1="772.5" x2="1331" y1="1802.082" y2="1802.082"/><text fill="#000000" font-family="FG Virgil" font-size="13" font-weight="bold" lengthAdjust="spacing" textLength="14" x="784.5" y="1796.8193">34</text><text fill="#000000" font-family="FG Virgil" font-size="13" lengthAdjust="spacing" textLength="76" x="802.5" y="1796.8193">returns postIt</text><path d="M659.5,1817.082 L720.5,1817.082 L720.5,1826.373 L710.5,1836.373 L659.5,1836.373 L659.5,1817.082 " fill="#EEEEEE" style="stroke:#000000;stroke-width:1.5;"/><rect fill="none" height="207.0371" style="stroke:#000000;stroke-width:1.5;" width="1280" x="659.5" y="1817.082"/><text fill="#000000" font-family="FG Virgil" font-size="13" font-weight="bold" lengthAdjust="spacing" textLength="16" x="674.5" y="1832.1104">alt</text><text fill="#000000" font-family="FG Virgil" font-size="11" font-weight="bold" lengthAdjust="spacing" textLength="90" x="735.5" y="1830.9521">[if(postIt != null)]</text><polygon fill="#181818" points="1773.5,1855.6641,1783.5,1859.6641,1773.5,1863.6641,1777.5,1859.6641" style="stroke:#181818;stroke-width:1.0;"/><line style="stroke:#181818;stroke-width:1.0;" x1="767.5" x2="1779.5" y1="1859.6641" y2="1859.6641"/><text fill="#000000" font-family="FG Virgil" font-size="13" font-weight="bold" lengthAdjust="spacing" textLength="14" x="774.5" y="1854.4014">35</text><text fill="#000000" font-family="FG Virgil" font-size="13" lengthAdjust="spacing" textLength="176" x="792.5" y="1854.4014">findLastChangeOfPostIt(postIt)</text><polygon fill="#181818" points="778.5,1886.9551,768.5,1890.9551,778.5,1894.9551,774.5,1890.9551" style="stroke:#181818;stroke-width:1.0;"/><line style="stroke:#181818;stroke-width:1.0;stroke-dasharray:2.0,2.0;" x1="772.5" x2="1789.5" y1="1890.9551" y2="1890.9551"/><text fill="#000000" font-family="FG Virgil" font-size="13" font-weight="bold" lengthAdjust="spacing" textLength="14" x="784.5" y="1885.6924">36</text><text fill="#000000" font-family="FG Virgil" font-size="13" lengthAdjust="spacing" textLength="117" x="802.5" y="1885.6924">returns postItHistory</text><polygon fill="#181818" points="1888,1918.2461,1898,1922.2461,1888,1926.2461,1892,1922.2461" style="stroke:#181818;stroke-width:1.0;"/><line style="stroke:#181818;stroke-width:1.0;" x1="767.5" x2="1894" y1="1922.2461" y2="1922.2461"/><text fill="#000000" font-family="FG Virgil" font-size="13" font-weight="bold" lengthAdjust="spacing" textLength="14" x="774.5" y="1916.9834">37</text><text fill="#000000" font-family="FG Virgil" font-size="13" lengthAdjust="spacing" textLength="306" x="792.5" y="1916.9834">changeContent(lastPostItHistory.getOldDescription())</text><polygon fill="#181818" points="1893,1949.5371,1903,1953.5371,1893,1957.5371,1897,1953.5371" style="stroke:#181818;stroke-width:1.0;"/><line style="stroke:#181818;stroke-width:1.0;stroke-dasharray:2.0,2.0;" x1="767.5" x2="1899" y1="1953.5371" y2="1953.5371"/><text fill="#000000" font-family="FG Virgil" font-size="13" font-weight="bold" lengthAdjust="spacing" textLength="14" x="774.5" y="1948.2744">38</text><text fill="#000000" font-family="FG Virgil" font-size="13" lengthAdjust="spacing" textLength="240" x="792.5" y="1948.2744">changeCell(lastPostItHistory.getOldCell())</text><polygon fill="#181818" points="1315,1980.8281,1325,1984.8281,1315,1988.8281,1319,1984.8281" style="stroke:#181818;stroke-width:1.0;"/><line style="stroke:#181818;stroke-width:1.0;" x1="767.5" x2="1321" y1="1984.8281" y2="1984.8281"/><text fill="#000000" font-family="FG Virgil" font-size="13" font-weight="bold" lengthAdjust="spacing" textLength="14" x="774.5" y="1979.5654">39</text><text fill="#000000" font-family="FG Virgil" font-size="13" lengthAdjust="spacing" textLength="66" x="792.5" y="1979.5654">save(postIt)</text><polygon fill="#181818" points="778.5,2012.1191,768.5,2016.1191,778.5,2020.1191,774.5,2016.1191" style="stroke:#181818;stroke-width:1.0;"/><line style="stroke:#181818;stroke-width:1.0;stroke-dasharray:2.0,2.0;" x1="772.5" x2="1331" y1="2016.1191" y2="2016.1191"/><text fill="#000000" font-family="FG Virgil" font-size="13" font-weight="bold" lengthAdjust="spacing" textLength="14" x="784.5" y="2010.8564">40</text><text fill="#000000" font-family="FG Virgil" font-size="13" lengthAdjust="spacing" textLength="76" x="802.5" y="2010.8564">returns postIt</text><path d="M601,2036.1191 L601,2115.1191 L797,2115.1191 L797,2046.1191 L787,2036.1191 L601,2036.1191 " fill="#FAFAFA" style="stroke:#181818;stroke-width:0.5;"/><path d="M787,2036.1191 L787,2046.1191 L797,2046.1191 L787,2036.1191 " fill="#FAFAFA" style="stroke:#181818;stroke-width:0.5;"/><text fill="#000000" font-family="FG Virgil" font-size="13" lengthAdjust="spacing" textLength="163" x="607" y="2055.1475">response is created with the</text><text fill="#000000" font-family="FG Virgil" font-size="13" lengthAdjust="spacing" textLength="171" x="607" y="2072.4385">class RequestMessage using</text><text fill="#000000" font-family="FG Virgil" font-size="13" lengthAdjust="spacing" textLength="162" x="607" y="2089.7295">code ACK(2) if success and</text><text fill="#000000" font-family="FG Virgil" font-size="13" lengthAdjust="spacing" textLength="82" x="607" y="2107.0205">ERR(3) if error</text><polygon fill="#181818" points="607.5,2139.5742,597.5,2143.5742,607.5,2147.5742,603.5,2143.5742" style="stroke:#181818;stroke-width:1.0;"/><line style="stroke:#181818;stroke-width:1.0;stroke-dasharray:2.0,2.0;" x1="601.5" x2="761.5" y1="2143.5742" y2="2143.5742"/><text fill="#000000" font-family="FG Virgil" font-size="13" font-weight="bold" lengthAdjust="spacing" textLength="14" x="613.5" y="2138.3115">41</text><text fill="#000000" font-family="FG Virgil" font-size="13" lengthAdjust="spacing" textLength="89" x="631.5" y="2138.3115">send(response)</text><polygon fill="#181818" points="289.5,2170.8652,279.5,2174.8652,289.5,2178.8652,285.5,2174.8652" style="stroke:#181818;stroke-width:1.0;"/><line style="stroke:#181818;stroke-width:1.0;stroke-dasharray:2.0,2.0;" x1="283.5" x2="590.5" y1="2174.8652" y2="2174.8652"/><text fill="#000000" font-family="FG Virgil" font-size="13" font-weight="bold" lengthAdjust="spacing" textLength="14" x="295.5" y="2169.6025">42</text><text fill="#000000" font-family="FG Virgil" font-size="13" lengthAdjust="spacing" textLength="89" x="313.5" y="2169.6025">send(response)</text><polygon fill="#181818" points="33.5,2202.1563,23.5,2206.1563,33.5,2210.1563,29.5,2206.1563" style="stroke:#181818;stroke-width:1.0;"/><line style="stroke:#181818;stroke-width:1.0;stroke-dasharray:2.0,2.0;" x1="27.5" x2="267.5" y1="2206.1563" y2="2206.1563"/><text fill="#000000" font-family="FG Virgil" font-size="13" font-weight="bold" lengthAdjust="spacing" textLength="14" x="39.5" y="2200.8936">43</text><text fill="#000000" font-family="FG Virgil" font-size="13" lengthAdjust="spacing" textLength="199" x="57.5" y="2200.8936">Shows if operation was successful</text><!--SRC=[rLXHR-8u47xFh_3komLjeTgxqzq9jKYKqbsqtR8Yi4-LAZSn4DNOETifuj_Vs0xK2J61RbUhomCYzendvlFCV7P-MogLTS_FCugPobUq4_FLkNnAMOO5NdMMQaM3tIjQSSRZfU0hWfJ8YJEJuVW9BqYaDfGWGMBbp2LaZdEgRZXJTnXKRpwXxwbOfExASeaJlaxP0iqnbIG8SAuuorUFHC3_M761Pf88X2NgwxS0r5GQfncuZMOiuT-uL2Cr6sa9-Bsuo0IHX2ciKivwlI06wu9JHtPWHwXTTJ2Tt88MpZAQnbibryWqpY8YdeduIgI4K3zZbXIwdgcoZ-3zX6HSfk3zndXP6Ya9HqiiI7B5iKZAEhKJ9LKRMrchEbPI611Ao-BbaJtXhKYDsS-fr2fNUKeJ2qtTk5-npkszgHhr5scJBEapLgJ84mIF-TVkpKPTj0ObYHH7EUG1mWWMLUrK6R6TvcnatcUZTa-dHHTHyC61NeREou2ca6QT77PJPtUhl9JM3nY7Vo9TB1NYSsIN5EJVd4Y5KebYGK0qGUjKBP5Q4dJFOegbH1ChKsGLogMk3vZa2K7Hv_vaU7qrxa-keuV1PDYV3Xz6Tzz7qs7uJ-kUGK720eyRPCgBADWDxQ5npZmctzizN-vs4HHF4XPUje8NnLrelgpVIVeg1goMSxzhV4ENQ9wov6epIaBzpdPebkrMwWQvJwNAseS254JbWa5DRQGYgra9dOGqcZiGNNtvTdMJsuxVGaQDs7Egzzt6xUPN_ncd53zISiE5jc_mgCEYlX_iv6gd0PH6JBHx5uvshnQQ1kkd8jH5U1kt2qODFkFvZw3YHUQuV7aJR8o_5Cf_7hwhZRgJok4gKvjMMSVdddzJ8UzmalGf3UlIJpUUged2jJbmhjleJ1T4daroEyGH- -_lEkx6VxWqDZigLPI4DMv2Ymhy0usxuVXStw9bnfaah-_HmxlhXw_3AEf_6eP_jMnFlcUbhXmfOJLgOGsEg2Q0q_fRT6phTAiM1qD7THEDpTpoXMxT8wTrMkShYLKu3QSmBM_8julwyidmRhpa7235XH9wr5fMmKYYmaH4A9mYPQrWcPWjySjmoy1dhZy536K0WWDR_cEiV3kAfW_Vnj5qD8t2Zt_wYTWSX05ZrrSz5kp0FfwRJw7bD-JaPa9-4pPke69VF_IpS8LCtBOurOsc2kY1JlvgVdLi1YSmXpVOwWdVHbbKnWrSs3m1do67GtSUxDqNp7Hrz9WuC-k1wGhLEEkjR4dHqVHHuHvP5PU1WgUS5NoQhs4ek-oMcz07z1xT8_RUOs6FeGwC_deEYk5QztBu31eE70TevmXcCJtENiegT78eQKp_XlxVxbLuHHg-A6vqi3_55IzmxdvRIh4ImGkBvBjl0g6TQmK__m8tkxiU5rGHVloxdYaAJq-ZWqRa_tySSCo5x41KXxgZRevwnJvBz0SXkChhVr07krZFK6mdpf3WQ_r6ynLxQIaD3QscSnw7Gh7vDGXu3HNDioY1TvU8vPIsZeTexrkBHUeMIpLOOhOWutcbJZmWx7-qAMEn_xtd14WAPJyoVkkD27JXWAe3BN8XX39MfKKx2wB6DBacCXPffhyJXYql3C4nX_UAOPrwFgjcqZ6t5_dhga7YPzAqexyohLsw_2aasHzy2NzlGUaWcSSnI9YZ-JqRJYRX7sQS2C55q7m9FtmLE-72vT1Zys9xh1Wj-Lfgltb6XFcQZTPORgERvpImZxE6_Lpw7m00]--></g></svg>