<?xml version="1.0" encoding="us-ascii" standalone="no"?><svg xmlns="http://www.w3.org/2000/svg" xmlns:xlink="http://www.w3.org/1999/xlink" contentStyleType="text/css" height="765.9px" preserveAspectRatio="none" style="width:1286px;height:765px;background:#FFFFFF;" version="1.1" viewBox="0 0 1286 765" width="1286.1px" zoomAndPan="magnify"><defs/><g><rect fill="#FFFFFF" height="572.8324" style="stroke:#181818;stroke-width:0.9;" width="9" x="15.75" y="88.418"/><rect fill="#FFFFFF" height="212.1275" style="stroke:#181818;stroke-width:0.9;" width="9" x="214.65" y="109.3799"/><rect fill="#FFFFFF" height="311.5811" style="stroke:#181818;stroke-width:0.9;" width="9" x="214.65" y="349.6693"/><rect fill="#FFFFFF" height="84.4857" style="stroke:#181818;stroke-width:0.9;" width="9" x="440.55" y="208.8598"/><rect fill="#FFFFFF" height="255.2572" style="stroke:#181818;stroke-width:0.9;" width="9" x="440.55" y="377.8313"/><rect fill="#FFFFFF" height="28.1619" style="stroke:#181818;stroke-width:0.9;" width="9" x="666.45" y="237.0217"/><rect fill="#FFFFFF" height="28.1619" style="stroke:#181818;stroke-width:0.9;" width="9" x="812.25" y="490.4789"/><rect fill="none" height="73.6857" style="stroke:#000000;stroke-width:1.35;" width="918" x="363.15" y="532.1408"/><line style="stroke:#181818;stroke-width:0.45;stroke-dasharray:5.0,5.0;" x1="19.8" x2="19.8" y1="79.418" y2="677.4504"/><line style="stroke:#181818;stroke-width:0.45;stroke-dasharray:5.0,5.0;" x1="219.15" x2="219.15" y1="79.418" y2="677.4504"/><line style="stroke:#181818;stroke-width:0.45;stroke-dasharray:5.0,5.0;" x1="445.05" x2="445.05" y1="161.2389" y2="677.4504"/><line style="stroke:#181818;stroke-width:0.45;stroke-dasharray:5.0,5.0;" x1="670.95" x2="670.95" y1="79.418" y2="677.4504"/><line style="stroke:#181818;stroke-width:0.45;stroke-dasharray:5.0,5.0;" x1="816.75" x2="816.75" y1="79.418" y2="677.4504"/><line style="stroke:#181818;stroke-width:0.45;stroke-dasharray:5.0,5.0;" x1="970.65" x2="970.65" y1="79.418" y2="677.4504"/><line style="stroke:#181818;stroke-width:0.45;stroke-dasharray:5.0,5.0;" x1="1157.85" x2="1157.85" y1="79.418" y2="677.4504"/><text fill="#000000" font-family="FG Virgil" font-size="12.6" lengthAdjust="spacing" textLength="26.1" x="4.5" y="76.2557">User</text><ellipse cx="20.25" cy="16.309" fill="#E3E3E3" rx="7.2" ry="7.2" style="stroke:#181818;stroke-width:0.45;"/><path d="M20.25,23.509 L20.25,47.809 M8.55,30.709 L31.95,30.709 M20.25,47.809 L8.55,61.309 M20.25,47.809 L31.95,61.309 " fill="none" style="stroke:#181818;stroke-width:0.45;"/><text fill="#000000" font-family="FG Virgil" font-size="12.6" lengthAdjust="spacing" textLength="26.1" x="4.5" y="690.1471">User</text><ellipse cx="20.25" cy="700.9594" fill="#E3E3E3" rx="7.2" ry="7.2" style="stroke:#181818;stroke-width:0.45;"/><path d="M20.25,708.1594 L20.25,732.4594 M8.55,715.3594 L31.95,715.3594 M20.25,732.4594 L8.55,745.9594 M20.25,732.4594 L31.95,745.9594 " fill="none" style="stroke:#181818;stroke-width:0.45;"/><rect fill="#E3E3E3" height="46.118" rx="2.25" ry="2.25" style="stroke:#181818;stroke-width:0.45;" width="108" x="165.15" y="32.4"/><text fill="#000000" font-family="FG Virgil" font-size="12.6" font-style="italic" lengthAdjust="spacing" textLength="85.5" x="176.4" y="52.2967">&#171;presentation&#187;</text><text fill="#000000" font-family="FG Virgil" font-size="12.6" lengthAdjust="spacing" textLength="95.4" x="171.45" y="69.0557">CancelMeetingUI</text><rect fill="#E3E3E3" height="46.118" rx="2.25" ry="2.25" style="stroke:#181818;stroke-width:0.45;" width="108" x="165.15" y="676.5504"/><text fill="#000000" font-family="FG Virgil" font-size="12.6" font-style="italic" lengthAdjust="spacing" textLength="85.5" x="176.4" y="696.4471">&#171;presentation&#187;</text><text fill="#000000" font-family="FG Virgil" font-size="12.6" lengthAdjust="spacing" textLength="95.4" x="171.45" y="713.2061">CancelMeetingUI</text><text fill="#000000" font-family="FG Virgil" font-size="12.6" font-style="italic" lengthAdjust="spacing" textLength="75.6" x="404.55" y="690.1471">&#171;application&#187;</text><text fill="#000000" font-family="FG Virgil" font-size="12.6" lengthAdjust="spacing" textLength="140.4" x="372.15" y="706.9061">CancelMeetingController</text><ellipse cx="445.05" cy="724.4684" fill="#E3E3E3" rx="10.8" ry="10.8" style="stroke:#181818;stroke-width:0.45;"/><polygon fill="#181818" points="441.45,713.6684,446.85,709.1684,445.05,713.6684,446.85,718.1684,441.45,713.6684" style="stroke:#181818;stroke-width:0.9;"/><text fill="#000000" font-family="FG Virgil" font-size="12.6" font-style="italic" lengthAdjust="spacing" textLength="71.1" x="632.7" y="59.4967">&#171;repository&#187;</text><text fill="#000000" font-family="FG Virgil" font-size="12.6" lengthAdjust="spacing" textLength="106.2" x="615.15" y="76.2557">MeetingRepository</text><path d="M654.75,13.5 C654.75,4.5 670.95,4.5 670.95,4.5 C670.95,4.5 687.15,4.5 687.15,13.5 L687.15,36.9 C687.15,45.9 670.95,45.9 670.95,45.9 C670.95,45.9 654.75,45.9 654.75,36.9 L654.75,13.5 " fill="#E3E3E3" style="stroke:#181818;stroke-width:1.35;"/><path d="M654.75,13.5 C654.75,22.5 670.95,22.5 670.95,22.5 C670.95,22.5 687.15,22.5 687.15,13.5 " fill="none" style="stroke:#181818;stroke-width:1.35;"/><text fill="#000000" font-family="FG Virgil" font-size="12.6" font-style="italic" lengthAdjust="spacing" textLength="71.1" x="632.7" y="690.1471">&#171;repository&#187;</text><text fill="#000000" font-family="FG Virgil" font-size="12.6" lengthAdjust="spacing" textLength="106.2" x="615.15" y="706.9061">MeetingRepository</text><path d="M654.75,719.0684 C654.75,710.0684 670.95,710.0684 670.95,710.0684 C670.95,710.0684 687.15,710.0684 687.15,719.0684 L687.15,742.4684 C687.15,751.4684 670.95,751.4684 670.95,751.4684 C670.95,751.4684 654.75,751.4684 654.75,742.4684 L654.75,719.0684 " fill="#E3E3E3" style="stroke:#181818;stroke-width:1.35;"/><path d="M654.75,719.0684 C654.75,728.0684 670.95,728.0684 670.95,728.0684 C670.95,728.0684 687.15,728.0684 687.15,719.0684 " fill="none" style="stroke:#181818;stroke-width:1.35;"/><text fill="#000000" font-family="FG Virgil" font-size="12.6" font-style="italic" lengthAdjust="spacing" textLength="71.1" x="778.5" y="59.4967">&#171;repository&#187;</text><text fill="#000000" font-family="FG Virgil" font-size="12.6" lengthAdjust="spacing" textLength="156.6" x="735.75" y="76.2557">MeetingInvitationRepository</text><path d="M800.55,13.5 C800.55,4.5 816.75,4.5 816.75,4.5 C816.75,4.5 832.95,4.5 832.95,13.5 L832.95,36.9 C832.95,45.9 816.75,45.9 816.75,45.9 C816.75,45.9 800.55,45.9 800.55,36.9 L800.55,13.5 " fill="#E3E3E3" style="stroke:#181818;stroke-width:1.35;"/><path d="M800.55,13.5 C800.55,22.5 816.75,22.5 816.75,22.5 C816.75,22.5 832.95,22.5 832.95,13.5 " fill="none" style="stroke:#181818;stroke-width:1.35;"/><text fill="#000000" font-family="FG Virgil" font-size="12.6" font-style="italic" lengthAdjust="spacing" textLength="71.1" x="778.5" y="690.1471">&#171;repository&#187;</text><text fill="#000000" font-family="FG Virgil" font-size="12.6" lengthAdjust="spacing" textLength="156.6" x="735.75" y="706.9061">MeetingInvitationRepository</text><path d="M800.55,719.0684 C800.55,710.0684 816.75,710.0684 816.75,710.0684 C816.75,710.0684 832.95,710.0684 832.95,719.0684 L832.95,742.4684 C832.95,751.4684 816.75,751.4684 816.75,751.4684 C816.75,751.4684 800.55,751.4684 800.55,742.4684 L800.55,719.0684 " fill="#E3E3E3" style="stroke:#181818;stroke-width:1.35;"/><path d="M800.55,719.0684 C800.55,728.0684 816.75,728.0684 816.75,728.0684 C816.75,728.0684 832.95,728.0684 832.95,719.0684 " fill="none" style="stroke:#181818;stroke-width:1.35;"/><rect fill="#E3E3E3" height="46.118" rx="2.25" ry="2.25" style="stroke:#181818;stroke-width:0.45;" width="127.8" x="906.75" y="32.4"/><text fill="#000000" font-family="FG Virgil" font-size="12.6" font-style="italic" lengthAdjust="spacing" textLength="55.8" x="942.75" y="52.2967">&#171;domain&#187;</text><text fill="#000000" font-family="FG Virgil" font-size="12.6" lengthAdjust="spacing" textLength="115.2" x="913.05" y="69.0557">theMeeting :Meeting</text><rect fill="#E3E3E3" height="46.118" rx="2.25" ry="2.25" style="stroke:#181818;stroke-width:0.45;" width="127.8" x="906.75" y="676.5504"/><text fill="#000000" font-family="FG Virgil" font-size="12.6" font-style="italic" lengthAdjust="spacing" textLength="55.8" x="942.75" y="696.4471">&#171;domain&#187;</text><text fill="#000000" font-family="FG Virgil" font-size="12.6" lengthAdjust="spacing" textLength="115.2" x="913.05" y="713.2061">theMeeting :Meeting</text><rect fill="#E3E3E3" height="46.118" rx="2.25" ry="2.25" style="stroke:#181818;stroke-width:0.45;" width="228.6" x="1043.55" y="32.4"/><text fill="#000000" font-family="FG Virgil" font-size="12.6" font-style="italic" lengthAdjust="spacing" textLength="55.8" x="1129.95" y="52.2967">&#171;domain&#187;</text><text fill="#000000" font-family="FG Virgil" font-size="12.6" lengthAdjust="spacing" textLength="216" x="1049.85" y="69.0557">theMeetingInvitation :MeetingInvitation</text><rect fill="#E3E3E3" height="46.118" rx="2.25" ry="2.25" style="stroke:#181818;stroke-width:0.45;" width="228.6" x="1043.55" y="676.5504"/><text fill="#000000" font-family="FG Virgil" font-size="12.6" font-style="italic" lengthAdjust="spacing" textLength="55.8" x="1129.95" y="696.4471">&#171;domain&#187;</text><text fill="#000000" font-family="FG Virgil" font-size="12.6" lengthAdjust="spacing" textLength="216" x="1049.85" y="713.2061">theMeetingInvitation :MeetingInvitation</text><rect fill="#FFFFFF" height="572.8324" style="stroke:#181818;stroke-width:0.9;" width="9" x="15.75" y="88.418"/><rect fill="#FFFFFF" height="212.1275" style="stroke:#181818;stroke-width:0.9;" width="9" x="214.65" y="109.3799"/><rect fill="#FFFFFF" height="311.5811" style="stroke:#181818;stroke-width:0.9;" width="9" x="214.65" y="349.6693"/><rect fill="#FFFFFF" height="84.4857" style="stroke:#181818;stroke-width:0.9;" width="9" x="440.55" y="208.8598"/><rect fill="#FFFFFF" height="255.2572" style="stroke:#181818;stroke-width:0.9;" width="9" x="440.55" y="377.8313"/><rect fill="#FFFFFF" height="28.1619" style="stroke:#181818;stroke-width:0.9;" width="9" x="666.45" y="237.0217"/><rect fill="#FFFFFF" height="28.1619" style="stroke:#181818;stroke-width:0.9;" width="9" x="812.25" y="490.4789"/><polygon fill="#181818" points="203.85,105.7799,212.85,109.3799,203.85,112.9799,207.45,109.3799" style="stroke:#181818;stroke-width:0.9;"/><line style="stroke:#181818;stroke-width:0.9;" x1="24.75" x2="209.25" y1="109.3799" y2="109.3799"/><text fill="#000000" font-family="FG Virgil" font-size="11.7" font-weight="bold" lengthAdjust="spacing" textLength="6.3" x="31.05" y="104.6435">1</text><text fill="#000000" font-family="FG Virgil" font-size="11.7" lengthAdjust="spacing" textLength="126.9" x="40.95" y="104.6435">wants to cancel meeting</text><polygon fill="#181818" points="361.35,133.9418,370.35,137.5418,361.35,141.1418,364.95,137.5418" style="stroke:#181818;stroke-width:0.9;"/><line style="stroke:#181818;stroke-width:0.9;" x1="223.65" x2="366.75" y1="137.5418" y2="137.5418"/><text fill="#000000" font-family="FG Virgil" font-size="11.7" font-weight="bold" lengthAdjust="spacing" textLength="6.3" x="229.95" y="132.8054">2</text><text fill="#000000" font-family="FG Virgil" font-size="11.7" lengthAdjust="spacing" textLength="39.6" x="239.85" y="132.8054">create()</text><text fill="#000000" font-family="FG Virgil" font-size="12.6" font-style="italic" lengthAdjust="spacing" textLength="75.6" x="404.55" y="158.9766">&#171;application&#187;</text><text fill="#000000" font-family="FG Virgil" font-size="12.6" lengthAdjust="spacing" textLength="140.4" x="372.15" y="175.7355">CancelMeetingController</text><ellipse cx="445.05" cy="130.9799" fill="#E3E3E3" rx="10.8" ry="10.8" style="stroke:#181818;stroke-width:0.45;"/><polygon fill="#181818" points="441.45,120.1799,446.85,115.6799,445.05,120.1799,446.85,124.6799,441.45,120.1799" style="stroke:#181818;stroke-width:0.9;"/><polygon fill="#181818" points="429.75,205.2598,438.75,208.8598,429.75,212.4598,433.35,208.8598" style="stroke:#181818;stroke-width:0.9;"/><line style="stroke:#181818;stroke-width:0.9;" x1="223.65" x2="435.15" y1="208.8598" y2="208.8598"/><text fill="#000000" font-family="FG Virgil" font-size="11.7" font-weight="bold" lengthAdjust="spacing" textLength="6.3" x="229.95" y="204.1233">3</text><text fill="#000000" font-family="FG Virgil" font-size="11.7" lengthAdjust="spacing" textLength="189.9" x="239.85" y="204.1233">findMeetingsAvailableToCancel(user)</text><polygon fill="#181818" points="655.65,233.4217,664.65,237.0217,655.65,240.6217,659.25,237.0217" style="stroke:#181818;stroke-width:0.9;"/><line style="stroke:#181818;stroke-width:0.9;" x1="449.55" x2="661.05" y1="237.0217" y2="237.0217"/><text fill="#000000" font-family="FG Virgil" font-size="11.7" font-weight="bold" lengthAdjust="spacing" textLength="6.3" x="455.85" y="232.2853">4</text><text fill="#000000" font-family="FG Virgil" font-size="11.7" lengthAdjust="spacing" textLength="189.9" x="465.75" y="232.2853">findMeetingsAvailableToCancel(user)</text><polygon fill="#181818" points="459.45,261.5836,450.45,265.1836,459.45,268.7836,455.85,265.1836" style="stroke:#181818;stroke-width:0.9;"/><line style="stroke:#181818;stroke-width:0.9;stroke-dasharray:2.0,2.0;" x1="454.05" x2="670.05" y1="265.1836" y2="265.1836"/><text fill="#000000" font-family="FG Virgil" font-size="11.7" font-weight="bold" lengthAdjust="spacing" textLength="6.3" x="464.85" y="260.4472">5</text><text fill="#000000" font-family="FG Virgil" font-size="11.7" lengthAdjust="spacing" textLength="63" x="474.75" y="260.4472">listMeetings</text><polygon fill="#181818" points="233.55,289.7455,224.55,293.3455,233.55,296.9455,229.95,293.3455" style="stroke:#181818;stroke-width:0.9;"/><line style="stroke:#181818;stroke-width:0.9;stroke-dasharray:2.0,2.0;" x1="228.15" x2="444.15" y1="293.3455" y2="293.3455"/><text fill="#000000" font-family="FG Virgil" font-size="11.7" font-weight="bold" lengthAdjust="spacing" textLength="6.3" x="238.95" y="288.6091">6</text><text fill="#000000" font-family="FG Virgil" font-size="11.7" lengthAdjust="spacing" textLength="63" x="248.85" y="288.6091">listMeetings</text><polygon fill="#181818" points="34.65,317.9074,25.65,321.5074,34.65,325.1074,31.05,321.5074" style="stroke:#181818;stroke-width:0.9;"/><line style="stroke:#181818;stroke-width:0.9;stroke-dasharray:2.0,2.0;" x1="29.25" x2="218.25" y1="321.5074" y2="321.5074"/><text fill="#000000" font-family="FG Virgil" font-size="11.7" font-weight="bold" lengthAdjust="spacing" textLength="6.3" x="40.05" y="316.771">7</text><text fill="#000000" font-family="FG Virgil" font-size="11.7" lengthAdjust="spacing" textLength="158.4" x="49.95" y="316.771">shows all meetings of the user</text><polygon fill="#181818" points="203.85,346.0693,212.85,349.6693,203.85,353.2693,207.45,349.6693" style="stroke:#181818;stroke-width:0.9;"/><line style="stroke:#181818;stroke-width:0.9;" x1="24.75" x2="209.25" y1="349.6693" y2="349.6693"/><text fill="#000000" font-family="FG Virgil" font-size="11.7" font-weight="bold" lengthAdjust="spacing" textLength="6.3" x="31.05" y="344.9329">8</text><text fill="#000000" font-family="FG Virgil" font-size="11.7" lengthAdjust="spacing" textLength="144" x="40.95" y="344.9329">choose a meeting to cancel</text><polygon fill="#181818" points="429.75,374.2313,438.75,377.8313,429.75,381.4313,433.35,377.8313" style="stroke:#181818;stroke-width:0.9;"/><line style="stroke:#181818;stroke-width:0.9;" x1="223.65" x2="435.15" y1="377.8313" y2="377.8313"/><text fill="#000000" font-family="FG Virgil" font-size="11.7" font-weight="bold" lengthAdjust="spacing" textLength="6.3" x="229.95" y="373.0948">9</text><text fill="#000000" font-family="FG Virgil" font-size="11.7" lengthAdjust="spacing" textLength="124.2" x="239.85" y="373.0948">cancelMeeting(meeting)</text><polygon fill="#181818" points="959.85,402.3932,968.85,405.9932,959.85,409.5932,963.45,405.9932" style="stroke:#181818;stroke-width:0.9;"/><line style="stroke:#181818;stroke-width:0.9;" x1="449.55" x2="965.25" y1="405.9932" y2="405.9932"/><text fill="#000000" font-family="FG Virgil" font-size="11.7" font-weight="bold" lengthAdjust="spacing" textLength="12.6" x="455.85" y="401.2567">10</text><text fill="#000000" font-family="FG Virgil" font-size="11.7" lengthAdjust="spacing" textLength="82.8" x="472.05" y="401.2567">cancelMeeting()</text><polygon fill="#181818" points="660.15,430.5551,669.15,434.1551,660.15,437.7551,663.75,434.1551" style="stroke:#181818;stroke-width:0.9;"/><line style="stroke:#181818;stroke-width:0.9;" x1="449.55" x2="665.55" y1="434.1551" y2="434.1551"/><text fill="#000000" font-family="FG Virgil" font-size="11.7" font-weight="bold" lengthAdjust="spacing" textLength="12.6" x="455.85" y="429.4187">11</text><text fill="#000000" font-family="FG Virgil" font-size="11.7" lengthAdjust="spacing" textLength="72" x="472.05" y="429.4187">save(meeting)</text><polygon fill="#181818" points="429.75,458.717,438.75,462.317,429.75,465.917,433.35,462.317" style="stroke:#181818;stroke-width:0.9;"/><line style="stroke:#181818;stroke-width:0.9;" x1="223.65" x2="435.15" y1="462.317" y2="462.317"/><text fill="#000000" font-family="FG Virgil" font-size="11.7" font-weight="bold" lengthAdjust="spacing" textLength="12.6" x="229.95" y="457.5806">12</text><text fill="#000000" font-family="FG Virgil" font-size="11.7" lengthAdjust="spacing" textLength="175.5" x="246.15" y="457.5806">cancelMeetingsInvitation(meeting)</text><polygon fill="#181818" points="801.45,486.8789,810.45,490.4789,801.45,494.0789,805.05,490.4789" style="stroke:#181818;stroke-width:0.9;"/><line style="stroke:#181818;stroke-width:0.9;" x1="449.55" x2="806.85" y1="490.4789" y2="490.4789"/><text fill="#000000" font-family="FG Virgil" font-size="11.7" font-weight="bold" lengthAdjust="spacing" textLength="12.6" x="455.85" y="485.7425">13</text><text fill="#000000" font-family="FG Virgil" font-size="11.7" lengthAdjust="spacing" textLength="212.4" x="472.05" y="485.7425">findMeetingsInvitationOfMeeting(meeting)</text><polygon fill="#181818" points="459.45,515.0408,450.45,518.6408,459.45,522.2408,455.85,518.6408" style="stroke:#181818;stroke-width:0.9;"/><line style="stroke:#181818;stroke-width:0.9;stroke-dasharray:2.0,2.0;" x1="454.05" x2="815.85" y1="518.6408" y2="518.6408"/><text fill="#000000" font-family="FG Virgil" font-size="11.7" font-weight="bold" lengthAdjust="spacing" textLength="12.6" x="464.85" y="513.9044">14</text><text fill="#000000" font-family="FG Virgil" font-size="11.7" lengthAdjust="spacing" textLength="108" x="481.05" y="513.9044">listMeetingsInvitation</text><path d="M363.15,532.1408 L428.85,532.1408 L428.85,540.5027 L419.85,549.5027 L363.15,549.5027 L363.15,532.1408 " fill="#EEEEEE" style="stroke:#000000;stroke-width:1.35;"/><rect fill="none" height="73.6857" style="stroke:#000000;stroke-width:1.35;" width="918" x="363.15" y="532.1408"/><text fill="#000000" font-family="FG Virgil" font-size="11.7" font-weight="bold" lengthAdjust="spacing" textLength="25.2" x="376.65" y="545.6663">loop</text><text fill="#000000" font-family="FG Virgil" font-size="9.9" font-weight="bold" lengthAdjust="spacing" textLength="337.5" x="442.35" y="544.6239">[for each MeetingInvitation meetingInvitation: listMeetingsInvitation]</text><polygon fill="#181818" points="1147.05,566.8646,1156.05,570.4646,1147.05,574.0646,1150.65,570.4646" style="stroke:#181818;stroke-width:0.9;"/><line style="stroke:#181818;stroke-width:0.9;" x1="449.55" x2="1152.45" y1="570.4646" y2="570.4646"/><text fill="#000000" font-family="FG Virgil" font-size="11.7" font-weight="bold" lengthAdjust="spacing" textLength="12.6" x="455.85" y="565.7282">15</text><text fill="#000000" font-family="FG Virgil" font-size="11.7" lengthAdjust="spacing" textLength="313.2" x="472.05" y="565.7282">changeMeetingInvitationStatusToCanceled(meetingInvitation)</text><polygon fill="#181818" points="805.95,595.0266,814.95,598.6266,805.95,602.2266,809.55,598.6266" style="stroke:#181818;stroke-width:0.9;"/><line style="stroke:#181818;stroke-width:0.9;" x1="449.55" x2="811.35" y1="598.6266" y2="598.6266"/><text fill="#000000" font-family="FG Virgil" font-size="11.7" font-weight="bold" lengthAdjust="spacing" textLength="12.6" x="455.85" y="593.8901">16</text><text fill="#000000" font-family="FG Virgil" font-size="11.7" lengthAdjust="spacing" textLength="117" x="472.05" y="593.8901">save(meetingInvitation)</text><polygon fill="#181818" points="233.55,629.4885,224.55,633.0885,233.55,636.6885,229.95,633.0885" style="stroke:#181818;stroke-width:0.9;"/><line style="stroke:#181818;stroke-width:0.9;stroke-dasharray:2.0,2.0;" x1="228.15" x2="444.15" y1="633.0885" y2="633.0885"/><text fill="#000000" font-family="FG Virgil" font-size="11.7" font-weight="bold" lengthAdjust="spacing" textLength="12.6" x="238.95" y="628.3521">17</text><text fill="#000000" font-family="FG Virgil" font-size="11.7" lengthAdjust="spacing" textLength="138.6" x="255.15" y="628.3521">shows operations success</text><polygon fill="#181818" points="30.15,657.6504,21.15,661.2504,30.15,664.8504,26.55,661.2504" style="stroke:#181818;stroke-width:0.9;"/><line style="stroke:#181818;stroke-width:0.9;stroke-dasharray:2.0,2.0;" x1="24.75" x2="218.25" y1="661.2504" y2="661.2504"/><text fill="#000000" font-family="FG Virgil" font-size="11.7" font-weight="bold" lengthAdjust="spacing" textLength="12.6" x="35.55" y="656.514">18</text><text fill="#000000" font-family="FG Virgil" font-size="11.7" lengthAdjust="spacing" textLength="138.6" x="51.75" y="656.514">shows operations success</text><!--SRC=[dLJBRjim4BphAuXSwWHmV3S40qM053wq1PgczpMrieXG945IDlBtNUf9FMmdqKNYScU6sjdbjy9xizriZ0Jbgr8-Sbrkt9jG1YoKZuKlPT8lMQcLveNL9J9lAuns3F0tEEABVvV8B78VxMMOGoNzirR-5n3q-GVx9-nHnCokW4oVXJgo7AJ3987AQrML1xJqpRssxDMXPU3gTq8eBxWmT6hs18gZ_8de2V-whtFsB4sDHOVAWnTQxNO99tshvJZzgGdAXZfQfIaO8mNlq1buE813rWB_eD5EqBdU0t0UJ5FRBnRWUtKIpSaMYHQt9vHn2UvyWIsKRTkFky3N4H8uqoK8THauQFOKGsX45cL6jBLFuWGU6ujglzQxuCMMdKdCCQyPhwlFoeOfnkmJHWzb4sOmuk61qDmYfQpksunHmfRbGcNjoTpt4mW91ub_TUFpgg9ZDC1UQW3NyM6vtisC_0BzZAFUdaNNwrty5r8utydKW0nlC4RTkgxhV9rayjTKnW1oGTiL-kmOoDuNntJEg3LO-BqfKUUK2mKBghpGcbeRElJWyxWm5omE1iSpkMffFktQbEV-8_OwEE5OCJHOxCo8r0tDFqPTa5gQv75F3Hc_yyKAB3NN4csVV2NdIjCDwJtHl0Klwagj3SlfcYP8iN1HbDF8JV6hnGnD1-eulxjUw5MvRZmnMys4ls1Nt2DJ8bJPjCsQgMY6IXkqTRPZhk8StOVcCXxBsmmqL_4gZ2mz_m40]--></g></svg>