<?xml version="1.0" encoding="us-ascii" standalone="no"?><svg xmlns="http://www.w3.org/2000/svg" xmlns:xlink="http://www.w3.org/1999/xlink" contentStyleType="text/css" height="1348px" preserveAspectRatio="none" style="width:1258px;height:1348px;background:#FFFFFF;" version="1.1" viewBox="0 0 1258 1348" width="1258px" zoomAndPan="magnify"><defs/><g><rect fill="#FFFFFF" height="103.1094" style="stroke:#181818;stroke-width:1.0;" width="10" x="497" y="115.2871"/><rect fill="#FFFFFF" height="222.1738" style="stroke:#181818;stroke-width:1.0;" width="10" x="497" y="247.707"/><rect fill="#FFFFFF" height="736.3418" style="stroke:#181818;stroke-width:1.0;" width="10" x="497" y="499.1914"/><rect fill="#FFFFFF" height="57.3105" style="stroke:#181818;stroke-width:1.0;" width="10" x="778" y="301.3281"/><rect fill="#FFFFFF" height="14" style="stroke:#181818;stroke-width:1.0;" width="10" x="778" y="611.4336"/><rect fill="#FFFFFF" height="29.3105" style="stroke:#181818;stroke-width:1.0;" width="10" x="778" y="679.0547"/><rect fill="#FFFFFF" height="57.3105" style="stroke:#181818;stroke-width:1.0;" width="10" x="778" y="862.1621"/><rect fill="#FFFFFF" height="29.3105" style="stroke:#181818;stroke-width:1.0;" width="10" x="778" y="1089.3359"/><rect fill="#FFFFFF" height="14" style="stroke:#181818;stroke-width:1.0;" width="10" x="994" y="330.6387"/><rect fill="#FFFFFF" height="14" style="stroke:#181818;stroke-width:1.0;" width="10" x="994" y="891.4727"/><rect fill="none" height="915.2051" style="stroke:#000000;stroke-width:1.5;" width="1241" x="10" y="262.707"/><rect fill="none" height="445.2578" style="stroke:#000000;stroke-width:1.5;" width="1221" x="20" y="373.6387"/><rect fill="none" height="268.3945" style="stroke:#000000;stroke-width:1.5;" width="1201" x="30" y="543.502"/><rect fill="none" height="120.1973" style="stroke:#000000;stroke-width:1.5;" width="1181" x="40" y="640.4336"/><rect fill="none" height="236.4395" style="stroke:#000000;stroke-width:1.5;" width="1181" x="40" y="934.4727"/><line style="stroke:#181818;stroke-width:0.5;stroke-dasharray:5.0,5.0;" x1="83" x2="83" y1="83.9766" y2="1253.5332"/><line style="stroke:#181818;stroke-width:0.5;stroke-dasharray:5.0,5.0;" x1="501.5" x2="501.5" y1="83.9766" y2="1253.5332"/><line style="stroke:#181818;stroke-width:0.5;stroke-dasharray:5.0,5.0;" x1="782.5" x2="782.5" y1="162.5313" y2="1253.5332"/><line style="stroke:#181818;stroke-width:0.5;stroke-dasharray:5.0,5.0;" x1="999" x2="999" y1="83.9766" y2="1253.5332"/><line style="stroke:#181818;stroke-width:0.5;stroke-dasharray:5.0,5.0;" x1="1142" x2="1142" y1="83.9766" y2="1253.5332"/><text fill="#000000" font-family="FG Virgil" font-size="14" lengthAdjust="spacing" textLength="60" x="50" y="81.0234">Manager</text><ellipse cx="83" cy="15.9883" fill="#E3E3E3" rx="8" ry="8" style="stroke:#181818;stroke-width:0.5;"/><path d="M83,23.9883 L83,50.9883 M70,31.9883 L96,31.9883 M83,50.9883 L70,65.9883 M83,50.9883 L96,65.9883 " fill="none" style="stroke:#181818;stroke-width:0.5;"/><text fill="#000000" font-family="FG Virgil" font-size="14" lengthAdjust="spacing" textLength="60" x="50" y="1266.0684">Manager</text><ellipse cx="83" cy="1277.5215" fill="#E3E3E3" rx="8" ry="8" style="stroke:#181818;stroke-width:0.5;"/><path d="M83,1285.5215 L83,1312.5215 M70,1293.5215 L96,1293.5215 M83,1312.5215 L70,1327.5215 M83,1312.5215 L96,1327.5215 " fill="none" style="stroke:#181818;stroke-width:0.5;"/><rect fill="#E3E3E3" height="46.9766" rx="2.5" ry="2.5" style="stroke:#181818;stroke-width:0.5;" width="205" x="399.5" y="36"/><text fill="#000000" font-family="FG Virgil" font-size="14" font-style="italic" lengthAdjust="spacing" textLength="101" x="451.5" y="56.5352">&#171;presentation&#187;</text><text fill="#000000" font-family="FG Virgil" font-size="14" lengthAdjust="spacing" textLength="191" x="406.5" y="73.0234">ChangeEnrollmentsStatusUI</text><rect fill="#E3E3E3" height="46.9766" rx="2.5" ry="2.5" style="stroke:#181818;stroke-width:0.5;" width="205" x="399.5" y="1252.5332"/><text fill="#000000" font-family="FG Virgil" font-size="14" font-style="italic" lengthAdjust="spacing" textLength="101" x="451.5" y="1273.0684">&#171;presentation&#187;</text><text fill="#000000" font-family="FG Virgil" font-size="14" lengthAdjust="spacing" textLength="191" x="406.5" y="1289.5566">ChangeEnrollmentsStatusUI</text><text fill="#000000" font-family="FG Virgil" font-size="14" lengthAdjust="spacing" textLength="247" x="656.5" y="1266.0684">ChangeEnrollmentsStatusController</text><ellipse cx="783" cy="1285.0215" fill="#E3E3E3" rx="12" ry="12" style="stroke:#181818;stroke-width:0.5;"/><polygon fill="#181818" points="779,1273.0215,785,1268.0215,783,1273.0215,785,1278.0215,779,1273.0215" style="stroke:#181818;stroke-width:1.0;"/><text fill="#000000" font-family="FG Virgil" font-size="14" font-style="italic" lengthAdjust="spacing" textLength="84" x="954" y="64.5352">&#171;repository&#187;</text><text fill="#000000" font-family="FG Virgil" font-size="14" lengthAdjust="spacing" textLength="122" x="935" y="81.0234">CourseRepository</text><path d="M981,15 C981,5 999,5 999,5 C999,5 1017,5 1017,15 L1017,41 C1017,51 999,51 999,51 C999,51 981,51 981,41 L981,15 " fill="#E3E3E3" style="stroke:#181818;stroke-width:1.5;"/><path d="M981,15 C981,25 999,25 999,25 C999,25 1017,25 1017,15 " fill="none" style="stroke:#181818;stroke-width:1.5;"/><text fill="#000000" font-family="FG Virgil" font-size="14" font-style="italic" lengthAdjust="spacing" textLength="84" x="954" y="1266.0684">&#171;repository&#187;</text><text fill="#000000" font-family="FG Virgil" font-size="14" lengthAdjust="spacing" textLength="122" x="935" y="1282.5566">CourseRepository</text><path d="M981,1295.5098 C981,1285.5098 999,1285.5098 999,1285.5098 C999,1285.5098 1017,1285.5098 1017,1295.5098 L1017,1321.5098 C1017,1331.5098 999,1331.5098 999,1331.5098 C999,1331.5098 981,1331.5098 981,1321.5098 L981,1295.5098 " fill="#E3E3E3" style="stroke:#181818;stroke-width:1.5;"/><path d="M981,1295.5098 C981,1305.5098 999,1305.5098 999,1305.5098 C999,1305.5098 1017,1305.5098 1017,1295.5098 " fill="none" style="stroke:#181818;stroke-width:1.5;"/><rect fill="#E3E3E3" height="46.9766" rx="2.5" ry="2.5" style="stroke:#181818;stroke-width:0.5;" width="138" x="1073" y="36"/><text fill="#000000" font-family="FG Virgil" font-size="14" font-style="italic" lengthAdjust="spacing" textLength="66" x="1109" y="56.5352">&#171;domain&#187;</text><text fill="#000000" font-family="FG Virgil" font-size="14" lengthAdjust="spacing" textLength="124" x="1080" y="73.0234">theCourse:Course</text><rect fill="#E3E3E3" height="46.9766" rx="2.5" ry="2.5" style="stroke:#181818;stroke-width:0.5;" width="138" x="1073" y="1252.5332"/><text fill="#000000" font-family="FG Virgil" font-size="14" font-style="italic" lengthAdjust="spacing" textLength="66" x="1109" y="1273.0684">&#171;domain&#187;</text><text fill="#000000" font-family="FG Virgil" font-size="14" lengthAdjust="spacing" textLength="124" x="1080" y="1289.5566">theCourse:Course</text><rect fill="#FFFFFF" height="103.1094" style="stroke:#181818;stroke-width:1.0;" width="10" x="497" y="115.2871"/><rect fill="#FFFFFF" height="222.1738" style="stroke:#181818;stroke-width:1.0;" width="10" x="497" y="247.707"/><rect fill="#FFFFFF" height="736.3418" style="stroke:#181818;stroke-width:1.0;" width="10" x="497" y="499.1914"/><rect fill="#FFFFFF" height="57.3105" style="stroke:#181818;stroke-width:1.0;" width="10" x="778" y="301.3281"/><rect fill="#FFFFFF" height="14" style="stroke:#181818;stroke-width:1.0;" width="10" x="778" y="611.4336"/><rect fill="#FFFFFF" height="29.3105" style="stroke:#181818;stroke-width:1.0;" width="10" x="778" y="679.0547"/><rect fill="#FFFFFF" height="57.3105" style="stroke:#181818;stroke-width:1.0;" width="10" x="778" y="862.1621"/><rect fill="#FFFFFF" height="29.3105" style="stroke:#181818;stroke-width:1.0;" width="10" x="778" y="1089.3359"/><rect fill="#FFFFFF" height="14" style="stroke:#181818;stroke-width:1.0;" width="10" x="994" y="330.6387"/><rect fill="#FFFFFF" height="14" style="stroke:#181818;stroke-width:1.0;" width="10" x="994" y="891.4727"/><polygon fill="#181818" points="485,111.2871,495,115.2871,485,119.2871,489,115.2871" style="stroke:#181818;stroke-width:1.0;"/><line style="stroke:#181818;stroke-width:1.0;" x1="83" x2="491" y1="115.2871" y2="115.2871"/><text fill="#000000" font-family="FG Virgil" font-size="13" lengthAdjust="spacing" textLength="223" x="90" y="110.5449">Wants to open or close enrollments</text><polygon fill="#181818" points="644.5,140.5977,654.5,144.5977,644.5,148.5977,648.5,144.5977" style="stroke:#181818;stroke-width:1.0;"/><line style="stroke:#181818;stroke-width:1.0;" x1="507" x2="650.5" y1="144.5977" y2="144.5977"/><text fill="#000000" font-family="FG Virgil" font-size="13" lengthAdjust="spacing" textLength="46" x="514" y="139.8555">create()</text><text fill="#000000" font-family="FG Virgil" font-size="14" lengthAdjust="spacing" textLength="247" x="656.5" y="168.8223">ChangeEnrollmentsStatusController</text><ellipse cx="783" cy="139.2871" fill="#E3E3E3" rx="12" ry="12" style="stroke:#181818;stroke-width:0.5;"/><polygon fill="#181818" points="779,127.2871,785,122.2871,783,127.2871,785,132.2871,779,127.2871" style="stroke:#181818;stroke-width:1.0;"/><polygon fill="#181818" points="94,214.3965,84,218.3965,94,222.3965,90,218.3965" style="stroke:#181818;stroke-width:1.0;"/><line style="stroke:#181818;stroke-width:1.0;stroke-dasharray:2.0,2.0;" x1="88" x2="501" y1="218.3965" y2="218.3965"/><text fill="#000000" font-family="FG Virgil" font-size="13" lengthAdjust="spacing" textLength="144" x="100" y="198.3438">Asks  if wants to OPEN</text><text fill="#000000" font-family="FG Virgil" font-size="13" lengthAdjust="spacing" textLength="136" x="100" y="213.6543">or CLOSE enrollments</text><polygon fill="#181818" points="485,243.707,495,247.707,485,251.707,489,247.707" style="stroke:#181818;stroke-width:1.0;"/><line style="stroke:#181818;stroke-width:1.0;stroke-dasharray:2.0,2.0;" x1="83" x2="491" y1="247.707" y2="247.707"/><text fill="#000000" font-family="FG Virgil" font-size="13" lengthAdjust="spacing" textLength="89" x="90" y="242.9648">selects option</text><path d="M10,262.707 L72,262.707 L72,270.0176 L62,280.0176 L10,280.0176 L10,262.707 " fill="#EEEEEE" style="stroke:#000000;stroke-width:1.5;"/><rect fill="none" height="915.2051" style="stroke:#000000;stroke-width:1.5;" width="1241" x="10" y="262.707"/><text fill="#000000" font-family="FG Virgil" font-size="13" font-weight="bold" lengthAdjust="spacing" textLength="17" x="25" y="276.2754">alt</text><text fill="#000000" font-family="FG Virgil" font-size="11" font-weight="bold" lengthAdjust="spacing" textLength="114" x="87" y="275.3418">[if option == OPEN]</text><polygon fill="#181818" points="766,297.3281,776,301.3281,766,305.3281,770,301.3281" style="stroke:#181818;stroke-width:1.0;"/><line style="stroke:#181818;stroke-width:1.0;" x1="507" x2="772" y1="301.3281" y2="301.3281"/><text fill="#000000" font-family="FG Virgil" font-size="13" lengthAdjust="spacing" textLength="112" x="514" y="296.5859">listOpenCourses()</text><polygon fill="#181818" points="982,326.6387,992,330.6387,982,334.6387,986,330.6387" style="stroke:#181818;stroke-width:1.0;"/><line style="stroke:#181818;stroke-width:1.0;" x1="788" x2="988" y1="330.6387" y2="330.6387"/><text fill="#000000" font-family="FG Virgil" font-size="13" lengthAdjust="spacing" textLength="184" x="795" y="325.8965">findCoursesWithOpenStatus()</text><polygon fill="#181818" points="799,340.6387,789,344.6387,799,348.6387,795,344.6387" style="stroke:#181818;stroke-width:1.0;"/><line style="stroke:#181818;stroke-width:1.0;stroke-dasharray:2.0,2.0;" x1="793" x2="998" y1="344.6387" y2="344.6387"/><polygon fill="#181818" points="518,354.6387,508,358.6387,518,362.6387,514,358.6387" style="stroke:#181818;stroke-width:1.0;"/><line style="stroke:#181818;stroke-width:1.0;stroke-dasharray:2.0,2.0;" x1="512" x2="782" y1="358.6387" y2="358.6387"/><path d="M20,373.6387 L82,373.6387 L82,380.9492 L72,390.9492 L20,390.9492 L20,373.6387 " fill="#EEEEEE" style="stroke:#000000;stroke-width:1.5;"/><rect fill="none" height="445.2578" style="stroke:#000000;stroke-width:1.5;" width="1221" x="20" y="373.6387"/><text fill="#000000" font-family="FG Virgil" font-size="13" font-weight="bold" lengthAdjust="spacing" textLength="17" x="35" y="387.207">alt</text><text fill="#000000" font-family="FG Virgil" font-size="11" font-weight="bold" lengthAdjust="spacing" textLength="160" x="97" y="386.2734">[if courses list is not empty]</text><line style="stroke:#181818;stroke-width:1.0;" x1="507" x2="549" y1="412.2598" y2="412.2598"/><line style="stroke:#181818;stroke-width:1.0;" x1="549" x2="549" y1="412.2598" y2="425.2598"/><line style="stroke:#181818;stroke-width:1.0;" x1="508" x2="549" y1="425.2598" y2="425.2598"/><polygon fill="#181818" points="518,421.2598,508,425.2598,518,429.2598,514,425.2598" style="stroke:#181818;stroke-width:1.0;"/><text fill="#000000" font-family="FG Virgil" font-size="13" lengthAdjust="spacing" textLength="235" x="514" y="407.5176">output Courses List with Open status</text><polygon fill="#181818" points="94,465.8809,84,469.8809,94,473.8809,90,469.8809" style="stroke:#181818;stroke-width:1.0;"/><line style="stroke:#181818;stroke-width:1.0;stroke-dasharray:2.0,2.0;" x1="88" x2="501" y1="469.8809" y2="469.8809"/><text fill="#000000" font-family="FG Virgil" font-size="13" lengthAdjust="spacing" textLength="169" x="100" y="449.8281">Ask user to choose Course</text><text fill="#000000" font-family="FG Virgil" font-size="13" lengthAdjust="spacing" textLength="91" x="100" y="465.1387">Type Selection</text><polygon fill="#181818" points="485,495.1914,495,499.1914,485,503.1914,489,499.1914" style="stroke:#181818;stroke-width:1.0;"/><line style="stroke:#181818;stroke-width:1.0;stroke-dasharray:2.0,2.0;" x1="83" x2="491" y1="499.1914" y2="499.1914"/><text fill="#000000" font-family="FG Virgil" font-size="13" lengthAdjust="spacing" textLength="85" x="90" y="494.4492">Select Course</text><polygon fill="#181818" points="94,524.502,84,528.502,94,532.502,90,528.502" style="stroke:#181818;stroke-width:1.0;"/><line style="stroke:#181818;stroke-width:1.0;stroke-dasharray:2.0,2.0;" x1="88" x2="496" y1="528.502" y2="528.502"/><text fill="#000000" font-family="FG Virgil" font-size="13" lengthAdjust="spacing" textLength="125" x="100" y="523.7598">ask for closing date</text><path d="M30,543.502 L92,543.502 L92,550.8125 L82,560.8125 L30,560.8125 L30,543.502 " fill="#EEEEEE" style="stroke:#000000;stroke-width:1.5;"/><rect fill="none" height="268.3945" style="stroke:#000000;stroke-width:1.5;" width="1201" x="30" y="543.502"/><text fill="#000000" font-family="FG Virgil" font-size="13" font-weight="bold" lengthAdjust="spacing" textLength="17" x="45" y="557.0703">alt</text><text fill="#000000" font-family="FG Virgil" font-size="11" font-weight="bold" lengthAdjust="spacing" textLength="133" x="107" y="556.1367">[while date is not valid]</text><polygon fill="#181818" points="485,578.123,495,582.123,485,586.123,489,582.123" style="stroke:#181818;stroke-width:1.0;"/><line style="stroke:#181818;stroke-width:1.0;stroke-dasharray:2.0,2.0;" x1="83" x2="491" y1="582.123" y2="582.123"/><text fill="#000000" font-family="FG Virgil" font-size="13" lengthAdjust="spacing" textLength="117" x="90" y="577.3809">insert closing date</text><polygon fill="#181818" points="766,607.4336,776,611.4336,766,615.4336,770,611.4336" style="stroke:#181818;stroke-width:1.0;"/><line style="stroke:#181818;stroke-width:1.0;" x1="507" x2="772" y1="611.4336" y2="611.4336"/><text fill="#000000" font-family="FG Virgil" font-size="13" lengthAdjust="spacing" textLength="148" x="514" y="606.6914">validateDate(closeDate)</text><polygon fill="#181818" points="518,621.4336,508,625.4336,518,629.4336,514,625.4336" style="stroke:#181818;stroke-width:1.0;"/><line style="stroke:#181818;stroke-width:1.0;stroke-dasharray:2.0,2.0;" x1="512" x2="782" y1="625.4336" y2="625.4336"/><path d="M40,640.4336 L102,640.4336 L102,647.7441 L92,657.7441 L40,657.7441 L40,640.4336 " fill="#EEEEEE" style="stroke:#000000;stroke-width:1.5;"/><rect fill="none" height="120.1973" style="stroke:#000000;stroke-width:1.5;" width="1181" x="40" y="640.4336"/><text fill="#000000" font-family="FG Virgil" font-size="13" font-weight="bold" lengthAdjust="spacing" textLength="17" x="55" y="654.002">alt</text><text fill="#000000" font-family="FG Virgil" font-size="11" font-weight="bold" lengthAdjust="spacing" textLength="90" x="117" y="653.0684">[if date is valid]</text><polygon fill="#181818" points="766,675.0547,776,679.0547,766,683.0547,770,679.0547" style="stroke:#181818;stroke-width:1.0;"/><line style="stroke:#181818;stroke-width:1.0;" x1="507" x2="772" y1="679.0547" y2="679.0547"/><text fill="#000000" font-family="FG Virgil" font-size="13" lengthAdjust="spacing" textLength="252" x="514" y="674.3125">openEnrollments(course, endDateEnroll)</text><polygon fill="#181818" points="1130,704.3652,1140,708.3652,1130,712.3652,1134,708.3652" style="stroke:#181818;stroke-width:1.0;"/><line style="stroke:#181818;stroke-width:1.0;" x1="783" x2="1136" y1="708.3652" y2="708.3652"/><text fill="#000000" font-family="FG Virgil" font-size="13" lengthAdjust="spacing" textLength="202" x="790" y="703.623">openEnrollments(endDateEnroll)</text><line style="stroke:#000000;stroke-width:1.0;stroke-dasharray:2.0,2.0;" x1="40" x2="1221" y1="717.3652" y2="717.3652"/><text fill="#000000" font-family="FG Virgil" font-size="11" font-weight="bold" lengthAdjust="spacing" textLength="112" x="45" y="728">[if date is not valid]</text><polygon fill="#181818" points="94,748.6309,84,752.6309,94,756.6309,90,752.6309" style="stroke:#181818;stroke-width:1.0;"/><line style="stroke:#181818;stroke-width:1.0;stroke-dasharray:2.0,2.0;" x1="88" x2="496" y1="752.6309" y2="752.6309"/><text fill="#000000" font-family="FG Virgil" font-size="13" lengthAdjust="spacing" textLength="179" x="100" y="747.8887">informs about date not valid</text><line style="stroke:#000000;stroke-width:1.0;stroke-dasharray:2.0,2.0;" x1="30" x2="1231" y1="768.6309" y2="768.6309"/><text fill="#000000" font-family="FG Virgil" font-size="11" font-weight="bold" lengthAdjust="spacing" textLength="132" x="35" y="779.2656">[if course list is empty]</text><polygon fill="#181818" points="94,799.8965,84,803.8965,94,807.8965,90,803.8965" style="stroke:#181818;stroke-width:1.0;"/><line style="stroke:#181818;stroke-width:1.0;stroke-dasharray:2.0,2.0;" x1="88" x2="496" y1="803.8965" y2="803.8965"/><text fill="#000000" font-family="FG Virgil" font-size="13" lengthAdjust="spacing" textLength="388" x="100" y="799.1543">inform there are no courses available to open the enrollments</text><line style="stroke:#000000;stroke-width:1.0;stroke-dasharray:2.0,2.0;" x1="10" x2="1251" y1="826.8965" y2="826.8965"/><text fill="#000000" font-family="FG Virgil" font-size="11" font-weight="bold" lengthAdjust="spacing" textLength="119" x="15" y="837.5313">[if option == CLOSE]</text><polygon fill="#181818" points="766,858.1621,776,862.1621,766,866.1621,770,862.1621" style="stroke:#181818;stroke-width:1.0;"/><line style="stroke:#181818;stroke-width:1.0;" x1="507" x2="772" y1="862.1621" y2="862.1621"/><text fill="#000000" font-family="FG Virgil" font-size="13" lengthAdjust="spacing" textLength="111" x="514" y="857.4199">listEnrolCourses()</text><polygon fill="#181818" points="982,887.4727,992,891.4727,982,895.4727,986,891.4727" style="stroke:#181818;stroke-width:1.0;"/><line style="stroke:#181818;stroke-width:1.0;" x1="788" x2="988" y1="891.4727" y2="891.4727"/><text fill="#000000" font-family="FG Virgil" font-size="13" lengthAdjust="spacing" textLength="187" x="795" y="886.7305">findCoursesWithEnrollStatus()</text><polygon fill="#181818" points="799,901.4727,789,905.4727,799,909.4727,795,905.4727" style="stroke:#181818;stroke-width:1.0;"/><line style="stroke:#181818;stroke-width:1.0;stroke-dasharray:2.0,2.0;" x1="793" x2="998" y1="905.4727" y2="905.4727"/><polygon fill="#181818" points="518,915.4727,508,919.4727,518,923.4727,514,919.4727" style="stroke:#181818;stroke-width:1.0;"/><line style="stroke:#181818;stroke-width:1.0;stroke-dasharray:2.0,2.0;" x1="512" x2="782" y1="919.4727" y2="919.4727"/><path d="M40,934.4727 L102,934.4727 L102,941.7832 L92,951.7832 L40,951.7832 L40,934.4727 " fill="#EEEEEE" style="stroke:#000000;stroke-width:1.5;"/><rect fill="none" height="236.4395" style="stroke:#000000;stroke-width:1.5;" width="1181" x="40" y="934.4727"/><text fill="#000000" font-family="FG Virgil" font-size="13" font-weight="bold" lengthAdjust="spacing" textLength="17" x="55" y="948.041">alt</text><text fill="#000000" font-family="FG Virgil" font-size="11" font-weight="bold" lengthAdjust="spacing" textLength="160" x="117" y="947.1074">[if courses list is not empty]</text><line style="stroke:#181818;stroke-width:1.0;" x1="507" x2="549" y1="973.0938" y2="973.0938"/><line style="stroke:#181818;stroke-width:1.0;" x1="549" x2="549" y1="973.0938" y2="986.0938"/><line style="stroke:#181818;stroke-width:1.0;" x1="508" x2="549" y1="986.0938" y2="986.0938"/><polygon fill="#181818" points="518,982.0938,508,986.0938,518,990.0938,514,986.0938" style="stroke:#181818;stroke-width:1.0;"/><text fill="#000000" font-family="FG Virgil" font-size="13" lengthAdjust="spacing" textLength="238" x="514" y="968.3516">output Courses List with Enroll status</text><polygon fill="#181818" points="94,1026.7148,84,1030.7148,94,1034.7148,90,1030.7148" style="stroke:#181818;stroke-width:1.0;"/><line style="stroke:#181818;stroke-width:1.0;stroke-dasharray:2.0,2.0;" x1="88" x2="496" y1="1030.7148" y2="1030.7148"/><text fill="#000000" font-family="FG Virgil" font-size="13" lengthAdjust="spacing" textLength="169" x="100" y="1010.6621">Ask user to choose Course</text><text fill="#000000" font-family="FG Virgil" font-size="13" lengthAdjust="spacing" textLength="91" x="100" y="1025.9727">Type Selection</text><polygon fill="#181818" points="485,1056.0254,495,1060.0254,485,1064.0254,489,1060.0254" style="stroke:#181818;stroke-width:1.0;"/><line style="stroke:#181818;stroke-width:1.0;stroke-dasharray:2.0,2.0;" x1="83" x2="491" y1="1060.0254" y2="1060.0254"/><text fill="#000000" font-family="FG Virgil" font-size="13" lengthAdjust="spacing" textLength="85" x="90" y="1055.2832">Select Course</text><polygon fill="#181818" points="766,1085.3359,776,1089.3359,766,1093.3359,770,1089.3359" style="stroke:#181818;stroke-width:1.0;"/><line style="stroke:#181818;stroke-width:1.0;" x1="507" x2="772" y1="1089.3359" y2="1089.3359"/><text fill="#000000" font-family="FG Virgil" font-size="13" lengthAdjust="spacing" textLength="158" x="514" y="1084.5938">closeEnrollments(course)</text><polygon fill="#181818" points="1130,1114.6465,1140,1118.6465,1130,1122.6465,1134,1118.6465" style="stroke:#181818;stroke-width:1.0;"/><line style="stroke:#181818;stroke-width:1.0;" x1="783" x2="1136" y1="1118.6465" y2="1118.6465"/><text fill="#000000" font-family="FG Virgil" font-size="13" lengthAdjust="spacing" textLength="116" x="790" y="1113.9043">closeEnrollments()</text><line style="stroke:#000000;stroke-width:1.0;stroke-dasharray:2.0,2.0;" x1="40" x2="1221" y1="1127.6465" y2="1127.6465"/><text fill="#000000" font-family="FG Virgil" font-size="11" font-weight="bold" lengthAdjust="spacing" textLength="132" x="45" y="1138.2813">[if course list is empty]</text><polygon fill="#181818" points="94,1158.9121,84,1162.9121,94,1166.9121,90,1162.9121" style="stroke:#181818;stroke-width:1.0;"/><line style="stroke:#181818;stroke-width:1.0;stroke-dasharray:2.0,2.0;" x1="88" x2="496" y1="1162.9121" y2="1162.9121"/><text fill="#000000" font-family="FG Virgil" font-size="13" lengthAdjust="spacing" textLength="390" x="100" y="1158.1699">inform there are no courses available to close the enrollments</text><polygon fill="#181818" points="987,1202.2227,997,1206.2227,987,1210.2227,991,1206.2227" style="stroke:#181818;stroke-width:1.0;"/><line style="stroke:#181818;stroke-width:1.0;stroke-dasharray:2.0,2.0;" x1="783" x2="993" y1="1206.2227" y2="1206.2227"/><text fill="#000000" font-family="FG Virgil" font-size="13" lengthAdjust="spacing" textLength="78" x="790" y="1201.4805">save(course)</text><polygon fill="#181818" points="94,1231.5332,84,1235.5332,94,1239.5332,90,1235.5332" style="stroke:#181818;stroke-width:1.0;"/><line style="stroke:#181818;stroke-width:1.0;stroke-dasharray:2.0,2.0;" x1="88" x2="501" y1="1235.5332" y2="1235.5332"/><text fill="#000000" font-family="FG Virgil" font-size="13" lengthAdjust="spacing" textLength="86" x="100" y="1230.791">back to menu</text><!--SRC=[lLTBJzj04BxxLuou5AG2ToiWeK2hIXIgfYsNNYRs9bwnthLsruduzvtPTOmT1t18sqXvs3kFRrxVE1yAxwlq_BnIg7rTghFCbEVkKUeABPPdXIzLqbv2QRJ92cjA0TxMedDIOVQ8Ip7pJqg05PdldELYWRNodupsTqYgdpx3BscNiclP5PYRjTHBMA1o8aamyyR2LzHarG8wkE8R2KbxcScAqCAqGBqKDzeQfKgXlPjvzBNx-ON5wNCogQnmT81U6drvcIH9C0AdbtISmWCPSU0Dc4feeFkPCaw0U3R8AEGAlI3v1EYLMS5N6OL2GYyXcCPZ9MnG8YZayKrPI1lpnoUj6kb5o2bSkKS781Umti2-_tPp1xyrdKvlxsStFU2vw49lmWvnaoad55N8KToSc5wGmNEE7kT8gPYQsZhnNLJ6IRBmn8aTt9jCR7j1IMO3tIeT-K94dJH-7R6LQrEYrAIRXnzS75P4vJd420mkBaAC-oGn1IMTlwU2HcUkIMORuxYIyUljWZ6WxMoai90wRvm_I5ymbgZPGEd3sT9l9GA2RUEdu_geDTBfWXSTZGWpz4soRN1K8fk2PZ4VeJWW7MZZGPILRs74yl9KcjfNjM_mEhXbZJNb4JYHu8AJhjPcHCA4GEq8CCr6LXZJDZ0DoO-dIi0iz3st_ClZaJPIZUfmEFe-aNmk6kfWzgBH4MtWwq8I6_AjJSmhL39lKz_tApLXzqDB-r58y42grqmaWT3urwxE6pq8UtV9kpgbqosRZFMpjLyUcDCx4iUn0pyIIUQSa7XqqZF-pjICveg6yuRONi7qhZGAsg3TF0uxRyT-aPhwk7I0Svh0g3hK8wH9rqFCQZlMlP7UxG1e7LW1QDbyomkuGgbmJjEoMSSarbje6-_yxa5utXLX2-uxCd5X187-nlYtmp9cSqG3WzqnVd_ybHqoTe_yTvPuSwUCNIpHvzPgEMo_T8syjbswSeFIxV7So3m_PBkJWSa3A6v_cXkW6k8vYDvU9Pz322Z-3zZ5G3qEt33HkAxVCUyELw9NgYt0S_fJnNZ8Q9riFRFy0G00]--></g></svg>