<?xml version="1.0" encoding="us-ascii" standalone="no"?><svg xmlns="http://www.w3.org/2000/svg" xmlns:xlink="http://www.w3.org/1999/xlink" contentStyleType="text/css" height="1220px" preserveAspectRatio="none" style="width:1322px;height:1220px;background:#FFFFFF;" version="1.1" viewBox="0 0 1322 1220" width="1322px" zoomAndPan="magnify"><defs/><g><!--class ChangeClassSchedule--><g id="elem_ChangeClassSchedule"><rect codeLine="6" fill="#F1F1F1" height="110.5625" id="ChangeClassSchedule" rx="2.5" ry="2.5" style="stroke:#181818;stroke-width:0.5;" width="206" x="774" y="7"/><ellipse cx="802.5" cy="23" fill="#ADD1B2" rx="11" ry="11" style="stroke:#181818;stroke-width:1.0;"/><path d="M805.2656,18.875 Q805.4219,18.6563 805.6094,18.5469 Q805.7969,18.4375 806.0156,18.4375 Q806.3906,18.4375 806.625,18.7031 Q806.8594,18.9531 806.8594,19.5625 L806.8594,21.0156 Q806.8594,21.625 806.625,21.8906 Q806.3906,22.1563 806.0156,22.1563 Q805.6719,22.1563 805.4688,21.9531 Q805.2656,21.7656 805.1563,21.25 Q805.1094,20.8906 804.9219,20.7031 Q804.5938,20.3281 803.9844,20.1094 Q803.375,19.8906 802.75,19.8906 Q801.9844,19.8906 801.3438,20.2188 Q800.7188,20.5469 800.2188,21.2969 Q799.7344,22.0469 799.7344,23.0781 L799.7344,24.1719 Q799.7344,25.4063 800.625,26.2344 Q801.5156,27.0469 803.1094,27.0469 Q804.0469,27.0469 804.7031,26.7969 Q805.0938,26.6406 805.5156,26.2031 Q805.7813,25.9375 805.9219,25.8594 Q806.0781,25.7813 806.2813,25.7813 Q806.6094,25.7813 806.8594,26.0469 Q807.125,26.2969 807.125,26.6406 Q807.125,26.9844 806.7813,27.3906 Q806.2813,27.9688 805.4844,28.2969 Q804.4063,28.75 803.1094,28.75 Q801.5938,28.75 800.3906,28.125 Q799.4063,27.625 798.7188,26.5625 Q798.0313,25.4844 798.0313,24.2031 L798.0313,23.0469 Q798.0313,21.7188 798.6406,20.5781 Q799.2656,19.4219 800.3594,18.8125 Q801.4531,18.1875 802.6875,18.1875 Q803.4219,18.1875 804.0625,18.3594 Q804.7188,18.5156 805.2656,18.875 Z " fill="#000000"/><text fill="#000000" font-family="sans-serif" font-size="14" lengthAdjust="spacing" textLength="144" x="819.5" y="27.8535">ChangeClassSchedule</text><line style="stroke:#181818;stroke-width:0.5;" x1="775" x2="979" y1="39" y2="39"/><line style="stroke:#181818;stroke-width:0.5;" x1="775" x2="979" y1="47" y2="47"/><ellipse cx="785" cy="60.3203" fill="#84BE84" rx="3" ry="3" style="stroke:#038048;stroke-width:1.0;"/><text fill="#000000" font-family="sans-serif" font-size="14" lengthAdjust="spacing" textLength="158" x="794" y="63.6738">ChangeClassSchedule():</text><ellipse cx="785" cy="75.9609" fill="#84BE84" rx="3" ry="3" style="stroke:#038048;stroke-width:1.0;"/><text fill="#000000" font-family="sans-serif" font-size="14" lengthAdjust="spacing" textLength="109" x="794" y="79.3145">headline(): String</text><rect fill="#F24D5C" height="6" style="stroke:#C82930;stroke-width:1.0;" width="6" x="782" y="88.6016"/><text fill="#000000" font-family="sans-serif" font-size="14" lengthAdjust="spacing" textLength="180" x="794" y="94.9551">readTime(String): LocalTime</text><polygon fill="#FFFF44" points="785,102.2422,789,106.2422,785,110.2422,781,106.2422" style="stroke:#B38D22;stroke-width:1.0;"/><text fill="#000000" font-family="sans-serif" font-size="14" lengthAdjust="spacing" textLength="119" x="794" y="110.5957">doShow(): boolean</text></g><!--class CheckIfUserIsFreeService--><g id="elem_CheckIfUserIsFreeService"><rect codeLine="86" fill="#F1F1F1" height="133.25" id="CheckIfUserIsFreeService" rx="2.5" ry="2.5" style="stroke:#181818;stroke-width:0.5;" width="782" x="7" y="427"/><ellipse cx="312.25" cy="446.5234" fill="#ADD1B2" rx="11" ry="11" style="stroke:#181818;stroke-width:1.0;"/><path d="M315.0156,442.3984 Q315.1719,442.1797 315.3594,442.0703 Q315.5469,441.9609 315.7656,441.9609 Q316.1406,441.9609 316.375,442.2266 Q316.6094,442.4766 316.6094,443.0859 L316.6094,444.5391 Q316.6094,445.1484 316.375,445.4141 Q316.1406,445.6797 315.7656,445.6797 Q315.4219,445.6797 315.2188,445.4766 Q315.0156,445.2891 314.9063,444.7734 Q314.8594,444.4141 314.6719,444.2266 Q314.3438,443.8516 313.7344,443.6328 Q313.125,443.4141 312.5,443.4141 Q311.7344,443.4141 311.0938,443.7422 Q310.4688,444.0703 309.9688,444.8203 Q309.4844,445.5703 309.4844,446.6016 L309.4844,447.6953 Q309.4844,448.9297 310.375,449.7578 Q311.2656,450.5703 312.8594,450.5703 Q313.7969,450.5703 314.4531,450.3203 Q314.8438,450.1641 315.2656,449.7266 Q315.5313,449.4609 315.6719,449.3828 Q315.8281,449.3047 316.0313,449.3047 Q316.3594,449.3047 316.6094,449.5703 Q316.875,449.8203 316.875,450.1641 Q316.875,450.5078 316.5313,450.9141 Q316.0313,451.4922 315.2344,451.8203 Q314.1563,452.2734 312.8594,452.2734 Q311.3438,452.2734 310.1406,451.6484 Q309.1563,451.1484 308.4688,450.0859 Q307.7813,449.0078 307.7813,447.7266 L307.7813,446.5703 Q307.7813,445.2422 308.3906,444.1016 Q309.0156,442.9453 310.1094,442.3359 Q311.2031,441.7109 312.4375,441.7109 Q313.1719,441.7109 313.8125,441.8828 Q314.4688,442.0391 315.0156,442.3984 Z " fill="#000000"/><text fill="#000000" font-family="sans-serif" font-size="12" font-style="italic" lengthAdjust="spacing" textLength="55" x="386.75" y="442.8633">&#171;Service&#187;</text><text fill="#000000" font-family="sans-serif" font-size="14" lengthAdjust="spacing" textLength="163" x="332.75" y="458.0801">CheckIfUserIsFreeService</text><line style="stroke:#181818;stroke-width:0.5;" x1="8" x2="788" y1="466.0469" y2="466.0469"/><line style="stroke:#181818;stroke-width:0.5;" x1="8" x2="788" y1="474.0469" y2="474.0469"/><ellipse cx="18" cy="487.3672" fill="#84BE84" rx="3" ry="3" style="stroke:#038048;stroke-width:1.0;"/><text fill="#000000" font-family="sans-serif" font-size="14" lengthAdjust="spacing" textLength="250" x="27" y="490.7207">checkIfUserIsFree(user, date) : boolean</text><ellipse cx="18" cy="503.0078" fill="#84BE84" rx="3" ry="3" style="stroke:#038048;stroke-width:1.0;"/><text fill="#000000" font-family="sans-serif" font-size="14" lengthAdjust="spacing" textLength="177" x="27" y="506.3613">CheckIfUserIsFreeService():</text><rect fill="#F24D5C" height="6" style="stroke:#C82930;stroke-width:1.0;" width="6" x="15" y="515.6484"/><text fill="#000000" font-family="sans-serif" font-size="14" lengthAdjust="spacing" textLength="756" x="27" y="522.002">checkIfDatesCoincide(Date, LocalTime, LocalTime, List&lt;CourseClass&gt;, List&lt;Meeting&gt;, List&lt;MeetingInvitation&gt;): boolean</text><rect fill="#F24D5C" height="6" style="stroke:#C82930;stroke-width:1.0;" width="6" x="15" y="531.2891"/><text fill="#000000" font-family="sans-serif" font-size="14" lengthAdjust="spacing" textLength="444" x="27" y="537.6426">isTimeOverlap(LocalTime, LocalTime, LocalTime, LocalTime): boolean</text><ellipse cx="18" cy="549.9297" fill="#84BE84" rx="3" ry="3" style="stroke:#038048;stroke-width:1.0;"/><text fill="#000000" font-family="sans-serif" font-size="14" lengthAdjust="spacing" textLength="462" x="27" y="553.2832">checkIfUserIsNotFree(SystemUser, Date, LocalTime, LocalTime): boolean</text></g><!--class CourseClass--><g id="elem_CourseClass"><rect codeLine="28" fill="#F1F1F1" height="329.5313" id="CourseClass" rx="2.5" ry="2.5" style="stroke:#181818;stroke-width:0.5;" width="360" x="733" y="884"/><ellipse cx="868.25" cy="900" fill="#ADD1B2" rx="11" ry="11" style="stroke:#181818;stroke-width:1.0;"/><path d="M871.0156,895.875 Q871.1719,895.6563 871.3594,895.5469 Q871.5469,895.4375 871.7656,895.4375 Q872.1406,895.4375 872.375,895.7031 Q872.6094,895.9531 872.6094,896.5625 L872.6094,898.0156 Q872.6094,898.625 872.375,898.8906 Q872.1406,899.1563 871.7656,899.1563 Q871.4219,899.1563 871.2188,898.9531 Q871.0156,898.7656 870.9063,898.25 Q870.8594,897.8906 870.6719,897.7031 Q870.3438,897.3281 869.7344,897.1094 Q869.125,896.8906 868.5,896.8906 Q867.7344,896.8906 867.0938,897.2188 Q866.4688,897.5469 865.9688,898.2969 Q865.4844,899.0469 865.4844,900.0781 L865.4844,901.1719 Q865.4844,902.4063 866.375,903.2344 Q867.2656,904.0469 868.8594,904.0469 Q869.7969,904.0469 870.4531,903.7969 Q870.8438,903.6406 871.2656,903.2031 Q871.5313,902.9375 871.6719,902.8594 Q871.8281,902.7813 872.0313,902.7813 Q872.3594,902.7813 872.6094,903.0469 Q872.875,903.2969 872.875,903.6406 Q872.875,903.9844 872.5313,904.3906 Q872.0313,904.9688 871.2344,905.2969 Q870.1563,905.75 868.8594,905.75 Q867.3438,905.75 866.1406,905.125 Q865.1563,904.625 864.4688,903.5625 Q863.7813,902.4844 863.7813,901.2031 L863.7813,900.0469 Q863.7813,898.7188 864.3906,897.5781 Q865.0156,896.4219 866.1094,895.8125 Q867.2031,895.1875 868.4375,895.1875 Q869.1719,895.1875 869.8125,895.3594 Q870.4688,895.5156 871.0156,895.875 Z " fill="#000000"/><text fill="#000000" font-family="sans-serif" font-size="14" lengthAdjust="spacing" textLength="81" x="888.75" y="904.8535">CourseClass</text><line style="stroke:#181818;stroke-width:0.5;" x1="734" x2="1092" y1="916" y2="916"/><rect fill="none" height="6" style="stroke:#C82930;stroke-width:1.0;" width="6" x="741" y="926.3203"/><text fill="#000000" font-family="sans-serif" font-size="14" lengthAdjust="spacing" textLength="104" x="753" y="932.6738">classTitle: String</text><rect fill="none" height="6" style="stroke:#C82930;stroke-width:1.0;" width="6" x="741" y="941.9609"/><text fill="#000000" font-family="sans-serif" font-size="14" lengthAdjust="spacing" textLength="97" x="753" y="948.3145">course: Course</text><rect fill="none" height="6" style="stroke:#C82930;stroke-width:1.0;" width="6" x="741" y="957.6016"/><text fill="#000000" font-family="sans-serif" font-size="14" lengthAdjust="spacing" textLength="162" x="753" y="963.9551">dateOfCourseClass: Date</text><rect fill="none" height="6" style="stroke:#C82930;stroke-width:1.0;" width="6" x="741" y="973.2422"/><text fill="#000000" font-family="sans-serif" font-size="14" lengthAdjust="spacing" textLength="128" x="753" y="979.5957">endTime: LocalTime</text><rect fill="none" height="6" style="stroke:#C82930;stroke-width:1.0;" width="6" x="741" y="988.8828"/><text fill="#000000" font-family="sans-serif" font-size="14" lengthAdjust="spacing" textLength="51" x="753" y="995.2363">id: Long</text><rect fill="none" height="6" style="stroke:#C82930;stroke-width:1.0;" width="6" x="741" y="1004.5234"/><text fill="#000000" font-family="sans-serif" font-size="14" lengthAdjust="spacing" textLength="132" x="753" y="1010.877">startTime: LocalTime</text><rect fill="none" height="6" style="stroke:#C82930;stroke-width:1.0;" width="6" x="741" y="1020.1641"/><text fill="#000000" font-family="sans-serif" font-size="14" lengthAdjust="spacing" textLength="178" x="753" y="1026.5176">students: List&amp;lt;Student&amp;gt;</text><rect fill="none" height="6" style="stroke:#C82930;stroke-width:1.0;" width="6" x="741" y="1035.8047"/><text fill="#000000" font-family="sans-serif" font-size="14" lengthAdjust="spacing" textLength="109" x="753" y="1042.1582">teacher: Teacher</text><rect fill="none" height="6" style="stroke:#C82930;stroke-width:1.0;" width="6" x="741" y="1051.4453"/><text fill="#000000" font-family="sans-serif" font-size="14" lengthAdjust="spacing" textLength="86" x="753" y="1057.7988">version: Long</text><rect fill="none" height="6" style="stroke:#C82930;stroke-width:1.0;" width="6" x="741" y="1067.0859"/><text fill="#000000" font-family="sans-serif" font-size="14" lengthAdjust="spacing" textLength="102" x="753" y="1073.4395">weekDay: String</text><line style="stroke:#181818;stroke-width:0.5;" x1="734" x2="1092" y1="1080.4063" y2="1080.4063"/><ellipse cx="744" cy="1093.7266" fill="#84BE84" rx="3" ry="3" style="stroke:#038048;stroke-width:1.0;"/><text fill="#000000" font-family="sans-serif" font-size="14" lengthAdjust="spacing" textLength="114" x="753" y="1097.0801">classTitle(): String</text><rect fill="#F24D5C" height="6" style="stroke:#C82930;stroke-width:1.0;" width="6" x="741" y="1106.3672"/><text fill="#000000" font-family="sans-serif" font-size="14" lengthAdjust="spacing" textLength="334" x="753" y="1112.7207">getDurationInMinutes(startTime: LocalTime, endTime</text><ellipse cx="744" cy="1125.0078" fill="#84BE84" rx="3" ry="3" style="stroke:#038048;stroke-width:1.0;"/><text fill="#000000" font-family="sans-serif" font-size="14" lengthAdjust="spacing" textLength="95" x="753" y="1128.3613">identity(): Long</text><rect fill="#F24D5C" height="6" style="stroke:#C82930;stroke-width:1.0;" width="6" x="741" y="1137.6484"/><text fill="#000000" font-family="sans-serif" font-size="14" lengthAdjust="spacing" textLength="283" x="753" y="1144.002">isDateAfterCurrentDate(date: Date): boolean</text><ellipse cx="744" cy="1156.2891" fill="#84BE84" rx="3" ry="3" style="stroke:#038048;stroke-width:1.0;"/><text fill="#000000" font-family="sans-serif" font-size="14" lengthAdjust="spacing" textLength="269" x="753" y="1159.6426">isValidWeekday(weekday: String): boolean</text><ellipse cx="744" cy="1171.9297" fill="#84BE84" rx="3" ry="3" style="stroke:#038048;stroke-width:1.0;"/><text fill="#000000" font-family="sans-serif" font-size="14" lengthAdjust="spacing" textLength="201" x="753" y="1175.2832">sameAs(other: Object): boolean</text><rect fill="#F24D5C" height="6" style="stroke:#C82930;stroke-width:1.0;" width="6" x="741" y="1184.5703"/><text fill="#000000" font-family="sans-serif" font-size="14" lengthAdjust="spacing" textLength="319" x="753" y="1190.9238">validateClassTime(startTime: LocalTime, endTime:</text><rect fill="#F24D5C" height="6" style="stroke:#C82930;stroke-width:1.0;" width="6" x="741" y="1200.2109"/><text fill="#000000" font-family="sans-serif" font-size="14" lengthAdjust="spacing" textLength="212" x="753" y="1206.5645">validateTitle(title: String): boolean</text></g><!--class ChangeClassScheduleController--><g id="elem_ChangeClassScheduleController"><rect codeLine="52" fill="#F1F1F1" height="188.7656" id="ChangeClassScheduleController" rx="2.5" ry="2.5" style="stroke:#181818;stroke-width:0.5;" width="555" x="599.5" y="178"/><ellipse cx="769.75" cy="194" fill="#ADD1B2" rx="11" ry="11" style="stroke:#181818;stroke-width:1.0;"/><path d="M772.5156,189.875 Q772.6719,189.6563 772.8594,189.5469 Q773.0469,189.4375 773.2656,189.4375 Q773.6406,189.4375 773.875,189.7031 Q774.1094,189.9531 774.1094,190.5625 L774.1094,192.0156 Q774.1094,192.625 773.875,192.8906 Q773.6406,193.1563 773.2656,193.1563 Q772.9219,193.1563 772.7188,192.9531 Q772.5156,192.7656 772.4063,192.25 Q772.3594,191.8906 772.1719,191.7031 Q771.8438,191.3281 771.2344,191.1094 Q770.625,190.8906 770,190.8906 Q769.2344,190.8906 768.5938,191.2188 Q767.9688,191.5469 767.4688,192.2969 Q766.9844,193.0469 766.9844,194.0781 L766.9844,195.1719 Q766.9844,196.4063 767.875,197.2344 Q768.7656,198.0469 770.3594,198.0469 Q771.2969,198.0469 771.9531,197.7969 Q772.3438,197.6406 772.7656,197.2031 Q773.0313,196.9375 773.1719,196.8594 Q773.3281,196.7813 773.5313,196.7813 Q773.8594,196.7813 774.1094,197.0469 Q774.375,197.2969 774.375,197.6406 Q774.375,197.9844 774.0313,198.3906 Q773.5313,198.9688 772.7344,199.2969 Q771.6563,199.75 770.3594,199.75 Q768.8438,199.75 767.6406,199.125 Q766.6563,198.625 765.9688,197.5625 Q765.2813,196.4844 765.2813,195.2031 L765.2813,194.0469 Q765.2813,192.7188 765.8906,191.5781 Q766.5156,190.4219 767.6094,189.8125 Q768.7031,189.1875 769.9375,189.1875 Q770.6719,189.1875 771.3125,189.3594 Q771.9688,189.5156 772.5156,189.875 Z " fill="#000000"/><text fill="#000000" font-family="sans-serif" font-size="14" lengthAdjust="spacing" textLength="206" x="790.25" y="198.8535">ChangeClassScheduleController</text><line style="stroke:#181818;stroke-width:0.5;" x1="600.5" x2="1153.5" y1="210" y2="210"/><text fill="#000000" font-family="sans-serif" font-size="14" lengthAdjust="spacing" textLength="109" x="605.5" y="226.6738">teacher: Teacher</text><line style="stroke:#181818;stroke-width:0.5;" x1="600.5" x2="1153.5" y1="233.6406" y2="233.6406"/><ellipse cx="610.5" cy="246.9609" fill="#84BE84" rx="3" ry="3" style="stroke:#038048;stroke-width:1.0;"/><text fill="#000000" font-family="sans-serif" font-size="14" lengthAdjust="spacing" textLength="220" x="619.5" y="250.3145">ChangeClassScheduleController():</text><ellipse cx="610.5" cy="262.6016" fill="#84BE84" rx="3" ry="3" style="stroke:#038048;stroke-width:1.0;"/><text fill="#000000" font-family="sans-serif" font-size="14" lengthAdjust="spacing" textLength="529" x="619.5" y="265.9551">checkCourseClass(List&lt;SystemUser&gt;, String, Date, LocalTime, LocalTime): boolean</text><ellipse cx="610.5" cy="278.2422" fill="#84BE84" rx="3" ry="3" style="stroke:#038048;stroke-width:1.0;"/><text fill="#000000" font-family="sans-serif" font-size="14" lengthAdjust="spacing" textLength="152" x="619.5" y="281.5957">checkDate(String): Date</text><ellipse cx="610.5" cy="293.8828" fill="#84BE84" rx="3" ry="3" style="stroke:#038048;stroke-width:1.0;"/><text fill="#000000" font-family="sans-serif" font-size="14" lengthAdjust="spacing" textLength="392" x="619.5" y="297.2363">findClassOfTitleAndDate(String, Date): Iterable&lt;CourseClass&gt;</text><ellipse cx="610.5" cy="309.5234" fill="#84BE84" rx="3" ry="3" style="stroke:#038048;stroke-width:1.0;"/><text fill="#000000" font-family="sans-serif" font-size="14" lengthAdjust="spacing" textLength="200" x="619.5" y="312.877">checkAndGetDate(String): Date</text><ellipse cx="610.5" cy="325.1641" fill="#84BE84" rx="3" ry="3" style="stroke:#038048;stroke-width:1.0;"/><text fill="#000000" font-family="sans-serif" font-size="14" lengthAdjust="spacing" textLength="460" x="619.5" y="328.5176">changeSchedule(CourseClass, Date, String, LocalTime, LocalTime): void</text><ellipse cx="610.5" cy="340.8047" fill="#84BE84" rx="3" ry="3" style="stroke:#038048;stroke-width:1.0;"/><text fill="#000000" font-family="sans-serif" font-size="14" lengthAdjust="spacing" textLength="227" x="619.5" y="344.1582">getWeekdayFromDate(Date): String</text><ellipse cx="610.5" cy="356.4453" fill="#84BE84" rx="3" ry="3" style="stroke:#038048;stroke-width:1.0;"/><text fill="#000000" font-family="sans-serif" font-size="14" lengthAdjust="spacing" textLength="321" x="619.5" y="359.7988">isTimeRangeValid(LocalTime, LocalTime): boolean</text></g><!--class CourseClassBuilder--><g id="elem_CourseClassBuilder"><rect codeLine="71" fill="#F1F1F1" height="204.4063" id="CourseClassBuilder" rx="2.5" ry="2.5" style="stroke:#181818;stroke-width:0.5;" width="349" x="966.5" y="620"/><ellipse cx="1074.25" cy="636" fill="#ADD1B2" rx="11" ry="11" style="stroke:#181818;stroke-width:1.0;"/><path d="M1077.0156,631.875 Q1077.1719,631.6563 1077.3594,631.5469 Q1077.5469,631.4375 1077.7656,631.4375 Q1078.1406,631.4375 1078.375,631.7031 Q1078.6094,631.9531 1078.6094,632.5625 L1078.6094,634.0156 Q1078.6094,634.625 1078.375,634.8906 Q1078.1406,635.1563 1077.7656,635.1563 Q1077.4219,635.1563 1077.2188,634.9531 Q1077.0156,634.7656 1076.9063,634.25 Q1076.8594,633.8906 1076.6719,633.7031 Q1076.3438,633.3281 1075.7344,633.1094 Q1075.125,632.8906 1074.5,632.8906 Q1073.7344,632.8906 1073.0938,633.2188 Q1072.4688,633.5469 1071.9688,634.2969 Q1071.4844,635.0469 1071.4844,636.0781 L1071.4844,637.1719 Q1071.4844,638.4063 1072.375,639.2344 Q1073.2656,640.0469 1074.8594,640.0469 Q1075.7969,640.0469 1076.4531,639.7969 Q1076.8438,639.6406 1077.2656,639.2031 Q1077.5313,638.9375 1077.6719,638.8594 Q1077.8281,638.7813 1078.0313,638.7813 Q1078.3594,638.7813 1078.6094,639.0469 Q1078.875,639.2969 1078.875,639.6406 Q1078.875,639.9844 1078.5313,640.3906 Q1078.0313,640.9688 1077.2344,641.2969 Q1076.1563,641.75 1074.8594,641.75 Q1073.3438,641.75 1072.1406,641.125 Q1071.1563,640.625 1070.4688,639.5625 Q1069.7813,638.4844 1069.7813,637.2031 L1069.7813,636.0469 Q1069.7813,634.7188 1070.3906,633.5781 Q1071.0156,632.4219 1072.1094,631.8125 Q1073.2031,631.1875 1074.4375,631.1875 Q1075.1719,631.1875 1075.8125,631.3594 Q1076.4688,631.5156 1077.0156,631.875 Z " fill="#000000"/><text fill="#000000" font-family="sans-serif" font-size="14" lengthAdjust="spacing" textLength="125" x="1094.75" y="640.8535">CourseClassBuilder</text><line style="stroke:#181818;stroke-width:0.5;" x1="967.5" x2="1314.5" y1="652" y2="652"/><line style="stroke:#181818;stroke-width:0.5;" x1="967.5" x2="1314.5" y1="660" y2="660"/><ellipse cx="977.5" cy="673.3203" fill="#84BE84" rx="3" ry="3" style="stroke:#038048;stroke-width:1.0;"/><text fill="#000000" font-family="sans-serif" font-size="14" lengthAdjust="spacing" textLength="139" x="986.5" y="676.6738">CourseClassBuilder():</text><ellipse cx="977.5" cy="688.9609" fill="#84BE84" rx="3" ry="3" style="stroke:#038048;stroke-width:1.0;"/><text fill="#000000" font-family="sans-serif" font-size="14" lengthAdjust="spacing" textLength="323" x="986.5" y="692.3145">withDateOfCourseClass(Date): CourseClassBuilder</text><ellipse cx="977.5" cy="704.6016" fill="#84BE84" rx="3" ry="3" style="stroke:#038048;stroke-width:1.0;"/><text fill="#000000" font-family="sans-serif" font-size="14" lengthAdjust="spacing" textLength="259" x="986.5" y="707.9551">withCourse(Course): CourseClassBuilder</text><ellipse cx="977.5" cy="720.2422" fill="#84BE84" rx="3" ry="3" style="stroke:#038048;stroke-width:1.0;"/><text fill="#000000" font-family="sans-serif" font-size="14" lengthAdjust="spacing" textLength="273" x="986.5" y="723.5957">withTeacher(Teacher): CourseClassBuilder</text><ellipse cx="977.5" cy="735.8828" fill="#84BE84" rx="3" ry="3" style="stroke:#038048;stroke-width:1.0;"/><text fill="#000000" font-family="sans-serif" font-size="14" lengthAdjust="spacing" textLength="129" x="986.5" y="739.2363">build(): CourseClass</text><ellipse cx="977.5" cy="751.5234" fill="#84BE84" rx="3" ry="3" style="stroke:#038048;stroke-width:1.0;"/><text fill="#000000" font-family="sans-serif" font-size="14" lengthAdjust="spacing" textLength="310" x="986.5" y="754.877">withStudents(List&lt;Student&gt;): CourseClassBuilder</text><ellipse cx="977.5" cy="767.1641" fill="#84BE84" rx="3" ry="3" style="stroke:#038048;stroke-width:1.0;"/><text fill="#000000" font-family="sans-serif" font-size="14" lengthAdjust="spacing" textLength="272" x="986.5" y="770.5176">withWeekDays(String): CourseClassBuilder</text><ellipse cx="977.5" cy="782.8047" fill="#84BE84" rx="3" ry="3" style="stroke:#038048;stroke-width:1.0;"/><text fill="#000000" font-family="sans-serif" font-size="14" lengthAdjust="spacing" textLength="266" x="986.5" y="786.1582">withClassTitle(String): CourseClassBuilder</text><ellipse cx="977.5" cy="798.4453" fill="#84BE84" rx="3" ry="3" style="stroke:#038048;stroke-width:1.0;"/><text fill="#000000" font-family="sans-serif" font-size="14" lengthAdjust="spacing" textLength="293" x="986.5" y="801.7988">withStartTime(LocalTime): CourseClassBuilder</text><ellipse cx="977.5" cy="814.0859" fill="#84BE84" rx="3" ry="3" style="stroke:#038048;stroke-width:1.0;"/><text fill="#000000" font-family="sans-serif" font-size="14" lengthAdjust="spacing" textLength="288" x="986.5" y="817.4395">withEndTime(LocalTime): CourseClassBuilder</text></g><!--class CourseClassRepository--><g id="elem_CourseClassRepository"><rect codeLine="96" fill="#F1F1F1" height="164.5313" id="CourseClassRepository" rx="2.5" ry="2.5" style="stroke:#181818;stroke-width:0.5;" width="469" x="390.5" y="639.5"/><ellipse cx="546.25" cy="659.0234" fill="#B4A7E5" rx="11" ry="11" style="stroke:#181818;stroke-width:1.0;"/><path d="M547.2031,655.6641 L547.2031,662.3203 L548.9219,662.3203 Q549.5313,662.3203 549.7969,662.5547 Q550.0625,662.7891 550.0625,663.1797 Q550.0625,663.5547 549.7969,663.7891 Q549.5313,664.0234 548.9219,664.0234 L543.7813,664.0234 Q543.1719,664.0234 542.9063,663.7891 Q542.6406,663.5547 542.6406,663.1641 Q542.6406,662.7891 542.9063,662.5547 Q543.1719,662.3203 543.7813,662.3203 L545.5,662.3203 L545.5,655.6641 L543.7813,655.6641 Q543.1719,655.6641 542.9063,655.4297 Q542.6406,655.1953 542.6406,654.8047 Q542.6406,654.4297 542.9063,654.1953 Q543.1719,653.9609 543.7813,653.9609 L548.9219,653.9609 Q549.5313,653.9609 549.7969,654.1953 Q550.0625,654.4297 550.0625,654.8047 Q550.0625,655.1953 549.7969,655.4297 Q549.5313,655.6641 548.9219,655.6641 L547.2031,655.6641 Z " fill="#000000"/><text fill="#000000" font-family="sans-serif" font-size="12" font-style="italic" lengthAdjust="spacing" textLength="61" x="610.75" y="655.3633">&#171;interface&#187;</text><text fill="#000000" font-family="sans-serif" font-size="14" font-style="italic" lengthAdjust="spacing" textLength="149" x="566.75" y="670.5801">CourseClassRepository</text><line style="stroke:#181818;stroke-width:0.5;" x1="391.5" x2="858.5" y1="678.5469" y2="678.5469"/><line style="stroke:#181818;stroke-width:0.5;" x1="391.5" x2="858.5" y1="686.5469" y2="686.5469"/><ellipse cx="401.5" cy="699.8672" fill="#84BE84" rx="3" ry="3" style="stroke:#038048;stroke-width:1.0;"/><text fill="#000000" font-family="sans-serif" font-size="14" lengthAdjust="spacing" textLength="348" x="410.5" y="703.2207">findClassesOfStudent(Student): Iterable&lt;CourseClass&gt;</text><ellipse cx="401.5" cy="715.5078" fill="#84BE84" rx="3" ry="3" style="stroke:#038048;stroke-width:1.0;"/><text fill="#000000" font-family="sans-serif" font-size="14" lengthAdjust="spacing" textLength="392" x="410.5" y="718.8613">findClassOfTitleAndDate(String, Date): Iterable&lt;CourseClass&gt;</text><ellipse cx="401.5" cy="731.1484" fill="#84BE84" rx="3" ry="3" style="stroke:#038048;stroke-width:1.0;"/><text fill="#000000" font-family="sans-serif" font-size="14" lengthAdjust="spacing" textLength="443" x="410.5" y="734.502">findClassesOfTeacherOnDate(Teacher, Date): Iterable&lt;CourseClass&gt;</text><ellipse cx="401.5" cy="746.7891" fill="#84BE84" rx="3" ry="3" style="stroke:#038048;stroke-width:1.0;"/><text fill="#000000" font-family="sans-serif" font-size="14" lengthAdjust="spacing" textLength="435" x="410.5" y="750.1426">findClassesOfStudentOnDate(Student, Date): Iterable&lt;CourseClass&gt;</text><ellipse cx="401.5" cy="762.4297" fill="#84BE84" rx="3" ry="3" style="stroke:#038048;stroke-width:1.0;"/><text fill="#000000" font-family="sans-serif" font-size="14" lengthAdjust="spacing" textLength="296" x="410.5" y="765.7832">findAllCourseClasses(): Iterable&lt;CourseClass&gt;</text><ellipse cx="401.5" cy="778.0703" fill="#84BE84" rx="3" ry="3" style="stroke:#038048;stroke-width:1.0;"/><text fill="#000000" font-family="sans-serif" font-size="14" lengthAdjust="spacing" textLength="283" x="410.5" y="781.4238">findCourseClassByTitle(String): CourseClass</text><ellipse cx="401.5" cy="793.7109" fill="#84BE84" rx="3" ry="3" style="stroke:#038048;stroke-width:1.0;"/><text fill="#000000" font-family="sans-serif" font-size="14" lengthAdjust="spacing" textLength="356" x="410.5" y="797.0645">findClassesOfTeacher(Teacher): Iterable&lt;CourseClass&gt;</text></g><!--link ChangeClassSchedule to ChangeClassScheduleController--><g id="link_ChangeClassSchedule_ChangeClassScheduleController"><path codeLine="111" d="M877,118.15 C877,134.87 877,153.81 877,172.53 " fill="none" id="ChangeClassSchedule-to-ChangeClassScheduleController" style="stroke:#181818;stroke-width:1.0;stroke-dasharray:7.0,7.0;"/><polygon fill="#181818" points="877,177.81,881,168.81,877,172.81,873,168.81,877,177.81" style="stroke:#181818;stroke-width:1.0;"/></g><!--link ChangeClassScheduleController to CourseClassBuilder--><g id="link_ChangeClassScheduleController_CourseClassBuilder"><path codeLine="112" d="M932.18,367.04 C974.94,439.51 1034.19,539.95 1078.66,615.32 " fill="none" id="ChangeClassScheduleController-to-CourseClassBuilder" style="stroke:#181818;stroke-width:1.0;stroke-dasharray:7.0,7.0;"/><polygon fill="#181818" points="1081.3,619.8,1080.1619,610.0171,1078.7549,615.4962,1073.2758,614.0893,1081.3,619.8" style="stroke:#181818;stroke-width:1.0;"/></g><!--link ChangeClassScheduleController to CourseClass--><g id="link_ChangeClassScheduleController_CourseClass"><path codeLine="113" d="M881.36,367.31 C887.24,493.9 897.83,721.62 905.13,878.58 " fill="none" id="ChangeClassScheduleController-to-CourseClass" style="stroke:#181818;stroke-width:1.0;stroke-dasharray:7.0,7.0;"/><polygon fill="#181818" points="905.36,883.67,908.9448,874.4967,905.1317,878.6752,900.9532,874.8621,905.36,883.67" style="stroke:#181818;stroke-width:1.0;"/></g><!--link ChangeClassScheduleController to CourseClassRepository--><g id="link_ChangeClassScheduleController_CourseClassRepository"><path codeLine="114" d="M868.08,367.3 C859.16,426.05 841.37,501.44 806,560 C789.18,587.85 765.99,613.57 741.83,635.9 " fill="none" id="ChangeClassScheduleController-to-CourseClassRepository" style="stroke:#181818;stroke-width:1.0;stroke-dasharray:7.0,7.0;"/><polygon fill="#181818" points="737.94,639.46,747.2866,636.3549,741.6358,636.0924,741.8984,630.4416,737.94,639.46" style="stroke:#181818;stroke-width:1.0;"/></g><!--link ChangeClassScheduleController to CheckIfUserIsFreeService--><g id="link_ChangeClassScheduleController_CheckIfUserIsFreeService"><path codeLine="115" d="M672.47,367.01 C630.08,386.39 586.19,406.46 546.28,424.71 " fill="none" id="ChangeClassScheduleController-to-CheckIfUserIsFreeService" style="stroke:#181818;stroke-width:1.0;stroke-dasharray:7.0,7.0;"/><polygon fill="#181818" points="541.43,426.92,551.2785,426.8372,545.9818,424.851,547.9681,419.5543,541.43,426.92" style="stroke:#181818;stroke-width:1.0;"/></g><!--link CheckIfUserIsFreeService to CourseClassRepository--><g id="link_CheckIfUserIsFreeService_CourseClassRepository"><path codeLine="116" d="M463.66,560.01 C487.25,583.55 514.21,610.45 539.25,635.44 " fill="none" id="CheckIfUserIsFreeService-to-CourseClassRepository" style="stroke:#181818;stroke-width:1.0;stroke-dasharray:7.0,7.0;"/><polygon fill="#181818" points="542.93,639.11,539.3945,629.9176,539.3945,635.5745,533.7376,635.5745,542.93,639.11" style="stroke:#181818;stroke-width:1.0;"/></g><!--link CourseClassRepository to CourseClass--><g id="link_CourseClassRepository_CourseClass"><path codeLine="117" d="M697.3,804.59 C717.79,827.71 740.88,853.76 764.13,880.01 " fill="none" id="CourseClassRepository-to-CourseClass" style="stroke:#181818;stroke-width:1.0;stroke-dasharray:7.0,7.0;"/><polygon fill="#181818" points="767.56,883.88,764.5882,874.4902,764.2453,880.1367,758.5988,879.7938,767.56,883.88" style="stroke:#181818;stroke-width:1.0;"/></g><!--link CourseClassBuilder to CourseClass--><g id="link_CourseClassBuilder_CourseClass"><path codeLine="118" d="M1070.11,824.05 C1057.71,841.72 1044.52,860.53 1031.25,879.44 " fill="none" id="CourseClassBuilder-to-CourseClass" style="stroke:#181818;stroke-width:1.0;stroke-dasharray:7.0,7.0;"/><polygon fill="#181818" points="1028.24,883.74,1036.6876,878.6766,1031.115,879.6492,1030.1424,874.0766,1028.24,883.74" style="stroke:#181818;stroke-width:1.0;"/></g><!--SRC=[fLRRRjem6BxFKrYQLBbgw0DGX4HXdP3Q8PLklJR93tWrTcKx83JrtUTZOWv9gSPDxFzy_4p1Y59el2Py1MDxdXThA2i6w6-6qCqv3hxkEzOQICaejtSqrvBobI7ta3Ja5xe1x6c6-IWAmYp9yB-XKipNOcUL5a8m83pxoEol2950yJPT_b8Wf-f10in1Rca1Q308f-7GXMOZA8w5SMMEEIg9XclKECY2YyQBgAJoMHbRFMFCqL-ePj0au-XEiXyqFCsQdoqJ6tqqCIJF1EwoFyZQqcbfIT6iqaJgit9ALoLmRMm-KgMlcBwRUyhLIjzv4Gt4P2xxwCKVF7KBKb71KoyxWBS9sTSPtIHf9btheHNeIIM9DlfJ_aHvfK7XSp7cCJzZYzgegDxZw-2pXwYoXHWjDSXn9QNXspks1VCrIhfk3AZVXD7orKHPaZtU-MyCwq1KaGsC51RQvJrR_8529m8zjBMMZ8EnJz2CNsVu_KJ5bqEdlKzC-z4fsjPaBBYMWZ6GxGlJoCJLSOER312slHxCzqh3naxpC0-1vAvgUPf1VKo2h6swSjSv-Aaql2NbfNCqMxfiHxnC9FFOcgdf6ram62IX3HlZHki7w1ONXSkxneZ4GimXEcl9PIjewIoPOGmZyI35nhaByTKeOsV7gZrRdsw8yASLEbsR6XHEKU6-egniUdh2Y8tSKRsU7CD13FTKhTRnh52bRj4GBGxVTk65FUD3VcqbW4YSD7yRTdj-zV2XccvtPTGWooNYyxYTEErMXy9tlxYVYNzSy9J4HJtFzgtjnSV5zbAD1UM5mJlSlesvm-k3pGca9m1jwd5qdV8jrGvnXmTZsWkZFJDupiWxRl5r8Hx4_7uAxTx71c8kH1Q_8vGRP5WIKxialsTu5ufg8VVcSKQDI7YW4zG1WpjXv73uTgBDVyFLWUUmE3FkR8JRLus4i8EHSBlGo8YnX6vUri_T9eEzRr-grbmJi3ZlA4BVkJz-jxV3xbSiwtu7dVxfPdv9wMlIpIHUejUozrahNdHuExiD9xcSlYl78bds3m00]--></g></svg>