<?xml version="1.0" encoding="us-ascii" standalone="no"?><svg xmlns="http://www.w3.org/2000/svg" xmlns:xlink="http://www.w3.org/1999/xlink" contentStyleType="text/css" height="1044px" preserveAspectRatio="none" style="width:539px;height:1044px;background:#FFFFFF;" version="1.1" viewBox="0 0 539 1044" width="539px" zoomAndPan="magnify"><defs/><g><!--class CreateUpdateQuestionUI--><g id="elem_CreateUpdateQuestionUI"><rect codeLine="2" fill="#F1F1F1" height="56.6211" id="CreateUpdateQuestionUI" rx="2.5" ry="2.5" style="stroke:#181818;stroke-width:0.5;" width="202" x="202.5" y="7"/><ellipse cx="217.5" cy="27.3105" fill="#ADD1B2" rx="11" ry="11" style="stroke:#181818;stroke-width:1.0;"/><path d="M220.4731,32.9536 Q219.8921,33.2524 219.2529,33.4019 Q218.6138,33.5513 217.9082,33.5513 Q215.4014,33.5513 214.0815,31.8994 Q212.7617,30.2476 212.7617,27.1265 Q212.7617,23.9971 214.0815,22.3452 Q215.4014,20.6934 217.9082,20.6934 Q218.6138,20.6934 219.2612,20.8428 Q219.9087,20.9922 220.4731,21.291 L220.4731,24.0137 Q219.8423,23.4326 219.2488,23.1628 Q218.6553,22.8931 218.0244,22.8931 Q216.6797,22.8931 215.9949,23.9597 Q215.3101,25.0264 215.3101,27.1265 Q215.3101,29.2183 215.9949,30.2849 Q216.6797,31.3516 218.0244,31.3516 Q218.6553,31.3516 219.2488,31.0818 Q219.8423,30.812 220.4731,30.231 Z " fill="#000000"/><text fill="#000000" font-family="sans-serif" font-size="12" font-style="italic" lengthAdjust="spacing" textLength="23" x="305" y="23.6016">&#171;UI&#187;</text><text fill="#000000" font-family="sans-serif" font-size="14" lengthAdjust="spacing" textLength="170" x="231.5" y="39.668">CreateUpdateQuestionUI</text><line style="stroke:#181818;stroke-width:0.5;" x1="203.5" x2="403.5" y1="47.6211" y2="47.6211"/><line style="stroke:#181818;stroke-width:0.5;" x1="203.5" x2="403.5" y1="55.6211" y2="55.6211"/></g><!--class CreateUpdateQuestionController--><g id="elem_CreateUpdateQuestionController"><rect codeLine="5" fill="#F1F1F1" height="122.5742" id="CreateUpdateQuestionController" rx="2.5" ry="2.5" style="stroke:#181818;stroke-width:0.5;" width="309" x="149" y="125"/><ellipse cx="186.95" cy="145.3105" fill="#ADD1B2" rx="11" ry="11" style="stroke:#181818;stroke-width:1.0;"/><path d="M189.9231,150.9536 Q189.3421,151.2524 188.7029,151.4019 Q188.0638,151.5513 187.3582,151.5513 Q184.8514,151.5513 183.5315,149.8994 Q182.2117,148.2476 182.2117,145.1265 Q182.2117,141.9971 183.5315,140.3452 Q184.8514,138.6934 187.3582,138.6934 Q188.0638,138.6934 188.7112,138.8428 Q189.3587,138.9922 189.9231,139.291 L189.9231,142.0137 Q189.2923,141.4326 188.6988,141.1628 Q188.1053,140.8931 187.4744,140.8931 Q186.1297,140.8931 185.4449,141.9597 Q184.7601,143.0264 184.7601,145.1265 Q184.7601,147.2183 185.4449,148.2849 Q186.1297,149.3516 187.4744,149.3516 Q188.1053,149.3516 188.6988,149.0818 Q189.2923,148.812 189.9231,148.231 Z " fill="#000000"/><text fill="#000000" font-family="sans-serif" font-size="12" font-style="italic" lengthAdjust="spacing" textLength="68" x="285.05" y="141.6016">&#171;Controller&#187;</text><text fill="#000000" font-family="sans-serif" font-size="14" lengthAdjust="spacing" textLength="226" x="206.05" y="157.668">CreateUpdateQuestionController</text><line style="stroke:#181818;stroke-width:0.5;" x1="150" x2="457" y1="165.6211" y2="165.6211"/><line style="stroke:#181818;stroke-width:0.5;" x1="150" x2="457" y1="173.6211" y2="173.6211"/><ellipse cx="160" cy="187.3652" fill="#84BE84" rx="3" ry="3" style="stroke:#038048;stroke-width:1.0;"/><text fill="#000000" font-family="sans-serif" font-size="14" lengthAdjust="spacing" textLength="147" x="169" y="191.1563">File : importFile(path)</text><ellipse cx="160" cy="203.8535" fill="#84BE84" rx="3" ry="3" style="stroke:#038048;stroke-width:1.0;"/><text fill="#000000" font-family="sans-serif" font-size="14" lengthAdjust="spacing" textLength="272" x="169" y="207.6445">Iterable&lt;Question&gt; : findAllQuestions()</text><ellipse cx="160" cy="220.3418" fill="#84BE84" rx="3" ry="3" style="stroke:#038048;stroke-width:1.0;"/><text fill="#000000" font-family="sans-serif" font-size="14" lengthAdjust="spacing" textLength="209" x="169" y="224.1328">Question : createQuestion(file)</text><ellipse cx="160" cy="236.8301" fill="#84BE84" rx="3" ry="3" style="stroke:#038048;stroke-width:1.0;"/><text fill="#000000" font-family="sans-serif" font-size="14" lengthAdjust="spacing" textLength="283" x="169" y="240.6211">Question : updateQuestion(question, file)</text></g><!--class CreateUpdateQuestionService--><g id="elem_CreateUpdateQuestionService"><rect codeLine="12" fill="#F1F1F1" height="113.9531" id="CreateUpdateQuestionService" rx="2.5" ry="2.5" style="stroke:#181818;stroke-width:0.5;" width="309" x="149" y="309"/><ellipse cx="197.25" cy="325" fill="#ADD1B2" rx="11" ry="11" style="stroke:#181818;stroke-width:1.0;"/><path d="M200.2231,330.6431 Q199.6421,330.9419 199.0029,331.0913 Q198.3638,331.2407 197.6582,331.2407 Q195.1514,331.2407 193.8315,329.5889 Q192.5117,327.937 192.5117,324.8159 Q192.5117,321.6865 193.8315,320.0347 Q195.1514,318.3828 197.6582,318.3828 Q198.3638,318.3828 199.0112,318.5322 Q199.6587,318.6816 200.2231,318.9805 L200.2231,321.7031 Q199.5923,321.1221 198.9988,320.8523 Q198.4053,320.5825 197.7744,320.5825 Q196.4297,320.5825 195.7449,321.6492 Q195.0601,322.7158 195.0601,324.8159 Q195.0601,326.9077 195.7449,327.9744 Q196.4297,329.041 197.7744,329.041 Q198.4053,329.041 198.9988,328.7712 Q199.5923,328.5015 200.2231,327.9204 Z " fill="#000000"/><text fill="#000000" font-family="sans-serif" font-size="14" lengthAdjust="spacing" textLength="204" x="217.75" y="330.291">CreateUpdateQuestionService</text><line style="stroke:#181818;stroke-width:0.5;" x1="150" x2="457" y1="341" y2="341"/><line style="stroke:#181818;stroke-width:0.5;" x1="150" x2="457" y1="349" y2="349"/><ellipse cx="160" cy="362.7441" fill="#84BE84" rx="3" ry="3" style="stroke:#038048;stroke-width:1.0;"/><text fill="#000000" font-family="sans-serif" font-size="14" lengthAdjust="spacing" textLength="147" x="169" y="366.5352">File : importFile(path)</text><ellipse cx="160" cy="379.2324" fill="#84BE84" rx="3" ry="3" style="stroke:#038048;stroke-width:1.0;"/><text fill="#000000" font-family="sans-serif" font-size="14" lengthAdjust="spacing" textLength="209" x="169" y="383.0234">Question : createQuestion(file)</text><ellipse cx="160" cy="395.7207" fill="#84BE84" rx="3" ry="3" style="stroke:#038048;stroke-width:1.0;"/><text fill="#000000" font-family="sans-serif" font-size="14" lengthAdjust="spacing" textLength="283" x="169" y="399.5117">Question : updateQuestion(question, file)</text><ellipse cx="160" cy="412.209" fill="#84BE84" rx="3" ry="3" style="stroke:#038048;stroke-width:1.0;"/><text fill="#000000" font-family="sans-serif" font-size="14" lengthAdjust="spacing" textLength="228" x="169" y="416">Question : generateQuestion(file)</text></g><!--class EvalVisitor--><g id="elem_EvalVisitor"><rect codeLine="19" fill="#F1F1F1" height="73.1094" id="EvalVisitor" rx="2.5" ry="2.5" style="stroke:#181818;stroke-width:0.5;" width="234" x="94.5" y="484"/><ellipse cx="171.75" cy="504.3105" fill="#ADD1B2" rx="11" ry="11" style="stroke:#181818;stroke-width:1.0;"/><path d="M174.7231,509.9536 Q174.1421,510.2524 173.5029,510.4019 Q172.8638,510.5513 172.1582,510.5513 Q169.6514,510.5513 168.3315,508.8994 Q167.0117,507.2476 167.0117,504.1265 Q167.0117,500.9971 168.3315,499.3452 Q169.6514,497.6934 172.1582,497.6934 Q172.8638,497.6934 173.5112,497.8428 Q174.1587,497.9922 174.7231,498.291 L174.7231,501.0137 Q174.0923,500.4326 173.4988,500.1628 Q172.9053,499.8931 172.2744,499.8931 Q170.9297,499.8931 170.2449,500.9597 Q169.5601,502.0264 169.5601,504.1265 Q169.5601,506.2183 170.2449,507.2849 Q170.9297,508.3516 172.2744,508.3516 Q172.9053,508.3516 173.4988,508.0818 Q174.0923,507.812 174.7231,507.231 Z " fill="#000000"/><text fill="#000000" font-family="sans-serif" font-size="12" font-style="italic" lengthAdjust="spacing" textLength="48" x="203.75" y="500.6016">&#171;Visitor&#187;</text><text fill="#000000" font-family="sans-serif" font-size="14" lengthAdjust="spacing" textLength="71" x="192.25" y="516.668">EvalVisitor</text><line style="stroke:#181818;stroke-width:0.5;" x1="95.5" x2="327.5" y1="524.6211" y2="524.6211"/><line style="stroke:#181818;stroke-width:0.5;" x1="95.5" x2="327.5" y1="532.6211" y2="532.6211"/><ellipse cx="105.5" cy="546.3652" fill="#84BE84" rx="3" ry="3" style="stroke:#038048;stroke-width:1.0;"/><text fill="#000000" font-family="sans-serif" font-size="14" lengthAdjust="spacing" textLength="208" x="114.5" y="550.1563">Question : buildQuestion(tree)</text></g><!--class QuestionBuilder--><g id="elem_QuestionBuilder"><rect codeLine="23" fill="#F1F1F1" height="113.9531" id="QuestionBuilder" rx="2.5" ry="2.5" style="stroke:#181818;stroke-width:0.5;" width="319" x="7" y="740"/><ellipse cx="107.25" cy="756" fill="#ADD1B2" rx="11" ry="11" style="stroke:#181818;stroke-width:1.0;"/><path d="M110.2231,761.6431 Q109.6421,761.9419 109.0029,762.0913 Q108.3638,762.2407 107.6582,762.2407 Q105.1514,762.2407 103.8315,760.5889 Q102.5117,758.937 102.5117,755.8159 Q102.5117,752.6865 103.8315,751.0347 Q105.1514,749.3828 107.6582,749.3828 Q108.3638,749.3828 109.0112,749.5322 Q109.6587,749.6816 110.2231,749.9805 L110.2231,752.7031 Q109.5923,752.1221 108.9988,751.8523 Q108.4053,751.5825 107.7744,751.5825 Q106.4297,751.5825 105.7449,752.6492 Q105.0601,753.7158 105.0601,755.8159 Q105.0601,757.9077 105.7449,758.9744 Q106.4297,760.041 107.7744,760.041 Q108.4053,760.041 108.9988,759.7712 Q109.5923,759.5015 110.2231,758.9204 Z " fill="#000000"/><text fill="#000000" font-family="sans-serif" font-size="14" lengthAdjust="spacing" textLength="110" x="127.75" y="761.291">QuestionBuilder</text><line style="stroke:#181818;stroke-width:0.5;" x1="8" x2="325" y1="772" y2="772"/><line style="stroke:#181818;stroke-width:0.5;" x1="8" x2="325" y1="780" y2="780"/><ellipse cx="18" cy="793.7441" fill="#84BE84" rx="3" ry="3" style="stroke:#038048;stroke-width:1.0;"/><text fill="#000000" font-family="sans-serif" font-size="14" lengthAdjust="spacing" textLength="227" x="27" y="797.5352">QuestionBuilder: ofGroup(group)</text><ellipse cx="18" cy="810.2324" fill="#84BE84" rx="3" ry="3" style="stroke:#038048;stroke-width:1.0;"/><text fill="#000000" font-family="sans-serif" font-size="14" lengthAdjust="spacing" textLength="282" x="27" y="814.0234">QuestionBuilder: withStructure(structure)</text><ellipse cx="18" cy="826.7207" fill="#84BE84" rx="3" ry="3" style="stroke:#038048;stroke-width:1.0;"/><text fill="#000000" font-family="sans-serif" font-size="14" lengthAdjust="spacing" textLength="293" x="27" y="830.5117">QuestionBuilder: withQuotation(quotation)</text><ellipse cx="18" cy="843.209" fill="#84BE84" rx="3" ry="3" style="stroke:#038048;stroke-width:1.0;"/><text fill="#000000" font-family="sans-serif" font-size="14" lengthAdjust="spacing" textLength="115" x="27" y="847">Question: build()</text></g><!--class QuestionRepository--><g id="elem_QuestionRepository"><rect codeLine="30" fill="#F1F1F1" height="122.5742" id="QuestionRepository" rx="2.5" ry="2.5" style="stroke:#181818;stroke-width:0.5;" width="280" x="252.5" y="587"/><ellipse cx="320.75" cy="607.3105" fill="#ADD1B2" rx="11" ry="11" style="stroke:#181818;stroke-width:1.0;"/><path d="M323.7231,612.9536 Q323.1421,613.2524 322.5029,613.4019 Q321.8638,613.5513 321.1582,613.5513 Q318.6514,613.5513 317.3315,611.8994 Q316.0117,610.2476 316.0117,607.1265 Q316.0117,603.9971 317.3315,602.3452 Q318.6514,600.6934 321.1582,600.6934 Q321.8638,600.6934 322.5112,600.8428 Q323.1587,600.9922 323.7231,601.291 L323.7231,604.0137 Q323.0923,603.4326 322.4988,603.1628 Q321.9053,602.8931 321.2744,602.8931 Q319.9297,602.8931 319.2449,603.9597 Q318.5601,605.0264 318.5601,607.1265 Q318.5601,609.2183 319.2449,610.2849 Q319.9297,611.3516 321.2744,611.3516 Q321.9053,611.3516 322.4988,611.0818 Q323.0923,610.812 323.7231,610.231 Z " fill="#000000"/><text fill="#000000" font-family="sans-serif" font-size="12" font-style="italic" lengthAdjust="spacing" textLength="73" x="372.25" y="603.6016">&#171;Repository&#187;</text><text fill="#000000" font-family="sans-serif" font-size="14" lengthAdjust="spacing" textLength="135" x="341.25" y="619.668">QuestionRepository</text><line style="stroke:#181818;stroke-width:0.5;" x1="253.5" x2="531.5" y1="627.6211" y2="627.6211"/><line style="stroke:#181818;stroke-width:0.5;" x1="253.5" x2="531.5" y1="635.6211" y2="635.6211"/><ellipse cx="263.5" cy="649.3652" fill="#84BE84" rx="3" ry="3" style="stroke:#038048;stroke-width:1.0;"/><text fill="#000000" font-family="sans-serif" font-size="14" lengthAdjust="spacing" textLength="206" x="272.5" y="653.1563">Iterable&lt;Questions&gt;: findAll()</text><ellipse cx="263.5" cy="665.8535" fill="#84BE84" rx="3" ry="3" style="stroke:#038048;stroke-width:1.0;"/><text fill="#000000" font-family="sans-serif" font-size="14" lengthAdjust="spacing" textLength="254" x="272.5" y="669.6445">boolean: existsByStructure(structure)</text><ellipse cx="263.5" cy="682.3418" fill="#84BE84" rx="3" ry="3" style="stroke:#038048;stroke-width:1.0;"/><text fill="#000000" font-family="sans-serif" font-size="14" lengthAdjust="spacing" textLength="137" x="272.5" y="686.1328">void: save(question)</text><ellipse cx="263.5" cy="698.8301" fill="#84BE84" rx="3" ry="3" style="stroke:#038048;stroke-width:1.0;"/><text fill="#000000" font-family="sans-serif" font-size="14" lengthAdjust="spacing" textLength="149" x="272.5" y="702.6211">void: delete(question)</text></g><!--class Question--><g id="elem_Question"><rect codeLine="37" fill="#F1F1F1" height="106.0859" id="Question" rx="2.5" ry="2.5" style="stroke:#181818;stroke-width:0.5;" width="178" x="192.5" y="931"/><ellipse cx="246.25" cy="951.3105" fill="#ADD1B2" rx="11" ry="11" style="stroke:#181818;stroke-width:1.0;"/><path d="M249.2231,956.9536 Q248.6421,957.2524 248.0029,957.4019 Q247.3638,957.5513 246.6582,957.5513 Q244.1514,957.5513 242.8315,955.8994 Q241.5117,954.2476 241.5117,951.1265 Q241.5117,947.9971 242.8315,946.3452 Q244.1514,944.6934 246.6582,944.6934 Q247.3638,944.6934 248.0112,944.8428 Q248.6587,944.9922 249.2231,945.291 L249.2231,948.0137 Q248.5923,947.4326 247.9988,947.1628 Q247.4053,946.8931 246.7744,946.8931 Q245.4297,946.8931 244.7449,947.9597 Q244.0601,949.0264 244.0601,951.1265 Q244.0601,953.2183 244.7449,954.2849 Q245.4297,955.3516 246.7744,955.3516 Q247.4053,955.3516 247.9988,955.0818 Q248.5923,954.812 249.2231,954.231 Z " fill="#000000"/><text fill="#000000" font-family="sans-serif" font-size="12" font-style="italic" lengthAdjust="spacing" textLength="43" x="276.25" y="947.6016">&#171;Entity&#187;</text><text fill="#000000" font-family="sans-serif" font-size="14" lengthAdjust="spacing" textLength="62" x="266.75" y="963.668">Question</text><line style="stroke:#181818;stroke-width:0.5;" x1="193.5" x2="369.5" y1="971.6211" y2="971.6211"/><rect fill="none" height="6" style="stroke:#C82930;stroke-width:1.0;" width="6" x="200.5" y="982.3652"/><text fill="#000000" font-family="sans-serif" font-size="14" lengthAdjust="spacing" textLength="152" x="212.5" y="989.1563">String: questionGroup</text><rect fill="none" height="6" style="stroke:#C82930;stroke-width:1.0;" width="6" x="200.5" y="998.8535"/><text fill="#000000" font-family="sans-serif" font-size="14" lengthAdjust="spacing" textLength="111" x="212.5" y="1005.6445">String: structure</text><rect fill="none" height="6" style="stroke:#C82930;stroke-width:1.0;" width="6" x="200.5" y="1015.3418"/><text fill="#000000" font-family="sans-serif" font-size="14" lengthAdjust="spacing" textLength="120" x="212.5" y="1022.1328">Integer quotation</text><line style="stroke:#181818;stroke-width:0.5;" x1="193.5" x2="369.5" y1="1029.0859" y2="1029.0859"/></g><!--link CreateUpdateQuestionUI to CreateUpdateQuestionController--><g id="link_CreateUpdateQuestionUI_CreateUpdateQuestionController"><path codeLine="45" d="M303.5,64.18 C303.5,79.58 303.5,99.48 303.5,118.69 " fill="none" id="CreateUpdateQuestionUI-to-CreateUpdateQuestionController" style="stroke:#181818;stroke-width:1.0;stroke-dasharray:7.0,7.0;"/><polygon fill="#181818" points="303.5,123.63,307.5,114.63,303.5,118.63,299.5,114.63,303.5,123.63" style="stroke:#181818;stroke-width:1.0;"/></g><!--link CreateUpdateQuestionController to CreateUpdateQuestionService--><g id="link_CreateUpdateQuestionController_CreateUpdateQuestionService"><path codeLine="46" d="M303.5,248.09 C303.5,265.68 303.5,284.93 303.5,302.63 " fill="none" id="CreateUpdateQuestionController-to-CreateUpdateQuestionService" style="stroke:#181818;stroke-width:1.0;stroke-dasharray:7.0,7.0;"/><polygon fill="#181818" points="303.5,307.57,307.5,298.57,303.5,302.57,299.5,298.57,303.5,307.57" style="stroke:#181818;stroke-width:1.0;"/></g><!--link CreateUpdateQuestionService to QuestionRepository--><g id="link_CreateUpdateQuestionService_QuestionRepository"><path codeLine="47" d="M324.54,423.28 C331.48,442.46 339.07,464.08 345.5,484 C355.75,515.75 366.11,551.32 374.48,581.15 " fill="none" id="CreateUpdateQuestionService-to-QuestionRepository" style="stroke:#181818;stroke-width:1.0;"/><polygon fill="#181818" points="376.02,585.65,377.4548,575.9062,374.6766,580.8338,369.749,578.0556,376.02,585.65" style="stroke:#181818;stroke-width:1.0;"/></g><!--link QuestionRepository to Question--><g id="link_QuestionRepository_Question"><path codeLine="48" d="M381.44,710.43 C373.11,751.62 360.26,806.87 343.5,854 C334.95,878.06 323.27,903.59 312.36,925.53 " fill="none" id="QuestionRepository-to-Question" style="stroke:#181818;stroke-width:1.0;"/><polygon fill="#181818" points="309.75,929.74,317.3606,923.4887,311.9918,925.2707,310.2098,919.9019,309.75,929.74" style="stroke:#181818;stroke-width:1.0;"/><polygon fill="#000000" points="378.9711,801.9158,384.535,794.2026,378.9387,792.4053,378.9711,801.9158" style="stroke:#000000;stroke-width:1.0;"/><text fill="#000000" font-family="sans-serif" font-size="13" lengthAdjust="spacing" textLength="35" x="389.5" y="802.0684">saves</text></g><!--link CreateUpdateQuestionService to EvalVisitor--><g id="link_CreateUpdateQuestionService_EvalVisitor"><path codeLine="49" d="M269.5,423.35 C258.37,441.81 246.22,461.94 235.94,478.99 " fill="none" id="CreateUpdateQuestionService-to-EvalVisitor" style="stroke:#181818;stroke-width:1.0;"/><polygon fill="#181818" points="233.09,482.71,241.1643,477.0703,235.673,478.4288,234.3144,472.9375,233.09,482.71" style="stroke:#181818;stroke-width:1.0;"/></g><!--link EvalVisitor to QuestionBuilder--><g id="link_EvalVisitor_QuestionBuilder"><path codeLine="50" d="M205.62,557.39 C198.28,602.12 185.63,679.3 176.71,733.75 " fill="none" id="EvalVisitor-to-QuestionBuilder" style="stroke:#181818;stroke-width:1.0;"/><polygon fill="#181818" points="175.74,738.61,181.1536,730.3824,176.555,733.6769,173.2606,729.0783,175.74,738.61" style="stroke:#181818;stroke-width:1.0;"/></g><!--link QuestionBuilder to Question--><g id="link_QuestionBuilder_Question"><path codeLine="51" d="M201.47,854.26 C215.6,876.99 231.88,903.18 246.06,925.98 " fill="none" id="QuestionBuilder-to-Question" style="stroke:#181818;stroke-width:1.0;"/><polygon fill="#181818" points="249.05,929.8,247.7252,920.0407,246.4231,925.5456,240.9182,924.2436,249.05,929.8" style="stroke:#181818;stroke-width:1.0;"/><text fill="#000000" font-family="sans-serif" font-size="13" lengthAdjust="spacing" textLength="55" x="228.5" y="897.5684">creates&gt;</text></g><!--SRC=[hLHBRi8m4Dtx55u6jN2025agY5PPKaJt8Hc29JTExKbQLFNkTO8TJ7vqqImiU-RDctyI4MjDrmfYX7sHcdDRWaOkytr4byjzn1Zz9Z-49AF0jSnHII506OFhep6avdkWprm03Ib_BwJ2-X4KCPvcLXiXgFWWOEa8cS4UUPu-2U54Ed1e9p6Of0d62OAZ8Hv0bJV11X_syaWl-CdKTg0gdi0V4_dlq7hu379JgXvlcyAcYiKRrnnbtGfxy_hWKHrABjAM1nNuF4w-ga6chLrxAm-fFBueMHP1Lf-pCTGdnzCELPbWgI3GxZQ9tvOIOriLU-lYRHB1GE2lKCWc-REfm_NXbQ8tT9grGzVEsa5A0R5n15zSerwT9xAe94z3gkCAsZxUgb8GWBwo5xM9TPCZnskSzJUdnYlFiv0wqwRc0_es9ayNvGYPQM5RnTej8ICBlrYmEojExlm1nXZi9f6fBPlFsK07oK1JVIIzL5rJTfVSsm_YxufFPwUGT7UWu_Aou9gPMlu2]--></g></svg>