<?xml version="1.0" encoding="us-ascii" standalone="no"?><svg xmlns="http://www.w3.org/2000/svg" xmlns:xlink="http://www.w3.org/1999/xlink" contentStyleType="text/css" height="2190px" preserveAspectRatio="none" style="width:1484px;height:2190px;background:#FFFFFF;" version="1.1" viewBox="0 0 1484 2190" width="1484px" zoomAndPan="magnify"><defs/><g><rect fill="#FFFFFF" height="1969.873" style="stroke:#181818;stroke-width:1.0;" width="10" x="391.5" y="115.2871"/><rect fill="#FFFFFF" height="87.9316" style="stroke:#181818;stroke-width:1.0;" width="10" x="633.5" y="344.6387"/><rect fill="#FFFFFF" height="447.0137" style="stroke:#181818;stroke-width:1.0;" width="10" x="633.5" y="486.1914"/><rect fill="#FFFFFF" height="87.9316" style="stroke:#181818;stroke-width:1.0;" width="10" x="633.5" y="1133.623"/><rect fill="#FFFFFF" height="87.9316" style="stroke:#181818;stroke-width:1.0;" width="10" x="633.5" y="1324.7969"/><rect fill="#FFFFFF" height="447.6582" style="stroke:#181818;stroke-width:1.0;" width="10" x="633.5" y="1466.3496"/><rect fill="#FFFFFF" height="29.3105" style="stroke:#181818;stroke-width:1.0;" width="10" x="875.5" y="373.9492"/><rect fill="#FFFFFF" height="388.3926" style="stroke:#181818;stroke-width:1.0;" width="10" x="875.5" y="515.502"/><rect fill="#FFFFFF" height="29.3105" style="stroke:#181818;stroke-width:1.0;" width="10" x="875.5" y="1354.1074"/><rect fill="#FFFFFF" height="389.0371" style="stroke:#181818;stroke-width:1.0;" width="10" x="875.5" y="1495.6602"/><rect fill="#FFFFFF" height="29.3105" style="stroke:#181818;stroke-width:1.0;" width="10" x="1061" y="1162.9336"/><rect fill="#FFFFFF" height="269.1504" style="stroke:#181818;stroke-width:1.0;" width="10" x="1180" y="544.8125"/><rect fill="#FFFFFF" height="240.4844" style="stroke:#181818;stroke-width:1.0;" width="10" x="1180" y="1524.9707"/><rect fill="#FFFFFF" height="29.3105" style="stroke:#181818;stroke-width:1.0;" width="10" x="1390" y="755.3418"/><rect fill="#FFFFFF" height="29.3105" style="stroke:#181818;stroke-width:1.0;" width="10" x="1390" y="1706.834"/><rect fill="none" height="1830.7637" style="stroke:#000000;stroke-width:1.5;" width="1467" x="10" y="247.3965"/><rect fill="none" height="642.7871" style="stroke:#000000;stroke-width:1.5;" width="1447" x="20" y="447.5703"/><rect fill="none" height="46.6211" style="stroke:#000000;stroke-width:1.5;" width="567" x="765.5" y="828.9629"/><rect fill="none" height="90.8867" style="stroke:#000000;stroke-width:1.5;" width="468.5" x="30" y="948.2051"/><rect fill="none" height="643.4316" style="stroke:#000000;stroke-width:1.5;" width="1447" x="20" y="1427.7285"/><rect fill="none" height="75.9316" style="stroke:#000000;stroke-width:1.5;" width="381" x="765.5" y="1780.4551"/><rect fill="none" height="90.8867" style="stroke:#000000;stroke-width:1.5;" width="468.5" x="30" y="1929.0078"/><line style="stroke:#181818;stroke-width:0.5;stroke-dasharray:5.0,5.0;" x1="70" x2="70" y1="83.9766" y2="2095.1602"/><line style="stroke:#181818;stroke-width:0.5;stroke-dasharray:5.0,5.0;" x1="396.5" x2="396.5" y1="83.9766" y2="2095.1602"/><line style="stroke:#181818;stroke-width:0.5;stroke-dasharray:5.0,5.0;" x1="638.5" x2="638.5" y1="162.5313" y2="2095.1602"/><line style="stroke:#181818;stroke-width:0.5;stroke-dasharray:5.0,5.0;" x1="880.5" x2="880.5" y1="83.9766" y2="2095.1602"/><line style="stroke:#181818;stroke-width:0.5;stroke-dasharray:5.0,5.0;" x1="1065.5" x2="1065.5" y1="83.9766" y2="2095.1602"/><line style="stroke:#181818;stroke-width:0.5;stroke-dasharray:5.0,5.0;" x1="1184.5" x2="1184.5" y1="83.9766" y2="2095.1602"/><line style="stroke:#181818;stroke-width:0.5;stroke-dasharray:5.0,5.0;" x1="1395" x2="1395" y1="627.1113" y2="2095.1602"/><text fill="#000000" font-family="FG Virgil" font-size="14" lengthAdjust="spacing" textLength="55" x="40" y="81.0234">Teacher</text><ellipse cx="70.5" cy="15.9883" fill="#E3E3E3" rx="8" ry="8" style="stroke:#181818;stroke-width:0.5;"/><path d="M70.5,23.9883 L70.5,50.9883 M57.5,31.9883 L83.5,31.9883 M70.5,50.9883 L57.5,65.9883 M70.5,50.9883 L83.5,65.9883 " fill="none" style="stroke:#181818;stroke-width:0.5;"/><text fill="#000000" font-family="FG Virgil" font-size="14" lengthAdjust="spacing" textLength="55" x="40" y="2107.6953">Teacher</text><ellipse cx="70.5" cy="2119.1484" fill="#E3E3E3" rx="8" ry="8" style="stroke:#181818;stroke-width:0.5;"/><path d="M70.5,2127.1484 L70.5,2154.1484 M57.5,2135.1484 L83.5,2135.1484 M70.5,2154.1484 L57.5,2169.1484 M70.5,2154.1484 L83.5,2169.1484 " fill="none" style="stroke:#181818;stroke-width:0.5;"/><rect fill="#E3E3E3" height="46.9766" rx="2.5" ry="2.5" style="stroke:#181818;stroke-width:0.5;" width="184" x="304.5" y="36"/><text fill="#000000" font-family="FG Virgil" font-size="14" font-style="italic" lengthAdjust="spacing" textLength="101" x="346" y="56.5352">&#171;presentation&#187;</text><text fill="#000000" font-family="FG Virgil" font-size="14" lengthAdjust="spacing" textLength="170" x="311.5" y="73.0234">CreateUpdateQuestionUI</text><rect fill="#E3E3E3" height="46.9766" rx="2.5" ry="2.5" style="stroke:#181818;stroke-width:0.5;" width="184" x="304.5" y="2094.1602"/><text fill="#000000" font-family="FG Virgil" font-size="14" font-style="italic" lengthAdjust="spacing" textLength="101" x="346" y="2114.6953">&#171;presentation&#187;</text><text fill="#000000" font-family="FG Virgil" font-size="14" lengthAdjust="spacing" textLength="170" x="311.5" y="2131.1836">CreateUpdateQuestionUI</text><text fill="#000000" font-family="FG Virgil" font-size="14" lengthAdjust="spacing" textLength="226" x="522.5" y="2107.6953">CreateUpdateQuestionController</text><ellipse cx="638.5" cy="2126.6484" fill="#E3E3E3" rx="12" ry="12" style="stroke:#181818;stroke-width:0.5;"/><polygon fill="#181818" points="634.5,2114.6484,640.5,2109.6484,638.5,2114.6484,640.5,2119.6484,634.5,2114.6484" style="stroke:#181818;stroke-width:1.0;"/><text fill="#000000" font-family="FG Virgil" font-size="14" font-style="italic" lengthAdjust="spacing" textLength="90" x="832.5" y="64.5352">&#171;application&#187;</text><text fill="#000000" font-family="FG Virgil" font-size="14" lengthAdjust="spacing" textLength="204" x="775.5" y="81.0234">CreateUpdateQuestionService</text><ellipse cx="880.5" cy="35" fill="#E3E3E3" rx="12" ry="12" style="stroke:#181818;stroke-width:0.5;"/><polygon fill="#181818" points="876.5,23,882.5,18,880.5,23,882.5,28,876.5,23" style="stroke:#181818;stroke-width:1.0;"/><text fill="#000000" font-family="FG Virgil" font-size="14" font-style="italic" lengthAdjust="spacing" textLength="90" x="832.5" y="2107.6953">&#171;application&#187;</text><text fill="#000000" font-family="FG Virgil" font-size="14" lengthAdjust="spacing" textLength="204" x="775.5" y="2124.1836">CreateUpdateQuestionService</text><ellipse cx="880.5" cy="2143.1367" fill="#E3E3E3" rx="12" ry="12" style="stroke:#181818;stroke-width:0.5;"/><polygon fill="#181818" points="876.5,2131.1367,882.5,2126.1367,880.5,2131.1367,882.5,2136.1367,876.5,2131.1367" style="stroke:#181818;stroke-width:1.0;"/><text fill="#000000" font-family="FG Virgil" font-size="14" font-style="italic" lengthAdjust="spacing" textLength="84" x="1021" y="64.5352">&#171;repository&#187;</text><text fill="#000000" font-family="FG Virgil" font-size="14" lengthAdjust="spacing" textLength="135" x="995.5" y="81.0234">QuestionRepository</text><path d="M1048,15 C1048,5 1066,5 1066,5 C1066,5 1084,5 1084,15 L1084,41 C1084,51 1066,51 1066,51 C1066,51 1048,51 1048,41 L1048,15 " fill="#E3E3E3" style="stroke:#181818;stroke-width:1.5;"/><path d="M1048,15 C1048,25 1066,25 1066,25 C1066,25 1084,25 1084,15 " fill="none" style="stroke:#181818;stroke-width:1.5;"/><text fill="#000000" font-family="FG Virgil" font-size="14" font-style="italic" lengthAdjust="spacing" textLength="84" x="1021" y="2107.6953">&#171;repository&#187;</text><text fill="#000000" font-family="FG Virgil" font-size="14" lengthAdjust="spacing" textLength="135" x="995.5" y="2124.1836">QuestionRepository</text><path d="M1048,2137.1367 C1048,2127.1367 1066,2127.1367 1066,2127.1367 C1066,2127.1367 1084,2127.1367 1084,2137.1367 L1084,2163.1367 C1084,2173.1367 1066,2173.1367 1066,2173.1367 C1066,2173.1367 1048,2173.1367 1048,2163.1367 L1048,2137.1367 " fill="#E3E3E3" style="stroke:#181818;stroke-width:1.5;"/><path d="M1048,2137.1367 C1048,2147.1367 1066,2147.1367 1066,2147.1367 C1066,2147.1367 1084,2147.1367 1084,2137.1367 " fill="none" style="stroke:#181818;stroke-width:1.5;"/><text fill="#000000" font-family="FG Virgil" font-size="14" font-style="italic" lengthAdjust="spacing" textLength="56" x="1154" y="64.5352">&#171;visitor&#187;</text><text fill="#000000" font-family="FG Virgil" font-size="14" lengthAdjust="spacing" textLength="71" x="1146.5" y="81.0234">EvalVisitor</text><ellipse cx="1185" cy="35" fill="#E3E3E3" rx="12" ry="12" style="stroke:#181818;stroke-width:0.5;"/><polygon fill="#181818" points="1181,23,1187,18,1185,23,1187,28,1181,23" style="stroke:#181818;stroke-width:1.0;"/><text fill="#000000" font-family="FG Virgil" font-size="14" font-style="italic" lengthAdjust="spacing" textLength="56" x="1154" y="2107.6953">&#171;visitor&#187;</text><text fill="#000000" font-family="FG Virgil" font-size="14" lengthAdjust="spacing" textLength="71" x="1146.5" y="2124.1836">EvalVisitor</text><ellipse cx="1185" cy="2143.1367" fill="#E3E3E3" rx="12" ry="12" style="stroke:#181818;stroke-width:0.5;"/><polygon fill="#181818" points="1181,2131.1367,1187,2126.1367,1185,2131.1367,1187,2136.1367,1181,2131.1367" style="stroke:#181818;stroke-width:1.0;"/><rect fill="#E3E3E3" height="46.9766" rx="2.5" ry="2.5" style="stroke:#181818;stroke-width:0.5;" width="124" x="1333" y="2094.1602"/><text fill="#000000" font-family="FG Virgil" font-size="14" font-style="italic" lengthAdjust="spacing" textLength="61" x="1364.5" y="2114.6953">&#171;factory&#187;</text><text fill="#000000" font-family="FG Virgil" font-size="14" lengthAdjust="spacing" textLength="110" x="1340" y="2131.1836">QuestionBuilder</text><rect fill="#FFFFFF" height="1969.873" style="stroke:#181818;stroke-width:1.0;" width="10" x="391.5" y="115.2871"/><rect fill="#FFFFFF" height="87.9316" style="stroke:#181818;stroke-width:1.0;" width="10" x="633.5" y="344.6387"/><rect fill="#FFFFFF" height="447.0137" style="stroke:#181818;stroke-width:1.0;" width="10" x="633.5" y="486.1914"/><rect fill="#FFFFFF" height="87.9316" style="stroke:#181818;stroke-width:1.0;" width="10" x="633.5" y="1133.623"/><rect fill="#FFFFFF" height="87.9316" style="stroke:#181818;stroke-width:1.0;" width="10" x="633.5" y="1324.7969"/><rect fill="#FFFFFF" height="447.6582" style="stroke:#181818;stroke-width:1.0;" width="10" x="633.5" y="1466.3496"/><rect fill="#FFFFFF" height="29.3105" style="stroke:#181818;stroke-width:1.0;" width="10" x="875.5" y="373.9492"/><rect fill="#FFFFFF" height="388.3926" style="stroke:#181818;stroke-width:1.0;" width="10" x="875.5" y="515.502"/><rect fill="#FFFFFF" height="29.3105" style="stroke:#181818;stroke-width:1.0;" width="10" x="875.5" y="1354.1074"/><rect fill="#FFFFFF" height="389.0371" style="stroke:#181818;stroke-width:1.0;" width="10" x="875.5" y="1495.6602"/><rect fill="#FFFFFF" height="29.3105" style="stroke:#181818;stroke-width:1.0;" width="10" x="1061" y="1162.9336"/><rect fill="#FFFFFF" height="269.1504" style="stroke:#181818;stroke-width:1.0;" width="10" x="1180" y="544.8125"/><rect fill="#FFFFFF" height="240.4844" style="stroke:#181818;stroke-width:1.0;" width="10" x="1180" y="1524.9707"/><rect fill="#FFFFFF" height="29.3105" style="stroke:#181818;stroke-width:1.0;" width="10" x="1390" y="755.3418"/><rect fill="#FFFFFF" height="29.3105" style="stroke:#181818;stroke-width:1.0;" width="10" x="1390" y="1706.834"/><polygon fill="#181818" points="379.5,111.2871,389.5,115.2871,379.5,119.2871,383.5,115.2871" style="stroke:#181818;stroke-width:1.0;"/><line style="stroke:#181818;stroke-width:1.0;" x1="70.5" x2="385.5" y1="115.2871" y2="115.2871"/><text fill="#000000" font-family="FG Virgil" font-size="13" font-weight="bold" lengthAdjust="spacing" textLength="9" x="77.5" y="110.5449">1</text><text fill="#000000" font-family="FG Virgil" font-size="13" lengthAdjust="spacing" textLength="208" x="90.5" y="110.5449">asks to create/update a question</text><polygon fill="#181818" points="510.5,140.5977,520.5,144.5977,510.5,148.5977,514.5,144.5977" style="stroke:#181818;stroke-width:1.0;"/><line style="stroke:#181818;stroke-width:1.0;" x1="401.5" x2="516.5" y1="144.5977" y2="144.5977"/><text fill="#000000" font-family="FG Virgil" font-size="13" font-weight="bold" lengthAdjust="spacing" textLength="9" x="408.5" y="139.8555">2</text><text fill="#000000" font-family="FG Virgil" font-size="13" lengthAdjust="spacing" textLength="46" x="421.5" y="139.8555">create()</text><text fill="#000000" font-family="FG Virgil" font-size="14" lengthAdjust="spacing" textLength="226" x="522.5" y="168.8223">CreateUpdateQuestionController</text><ellipse cx="638.5" cy="139.2871" fill="#E3E3E3" rx="12" ry="12" style="stroke:#181818;stroke-width:0.5;"/><polygon fill="#181818" points="634.5,127.2871,640.5,122.2871,638.5,127.2871,640.5,132.2871,634.5,127.2871" style="stroke:#181818;stroke-width:1.0;"/><polygon fill="#181818" points="81.5,199.0859,71.5,203.0859,81.5,207.0859,77.5,203.0859" style="stroke:#181818;stroke-width:1.0;"/><line style="stroke:#181818;stroke-width:1.0;stroke-dasharray:2.0,2.0;" x1="75.5" x2="390.5" y1="203.0859" y2="203.0859"/><text fill="#000000" font-family="FG Virgil" font-size="13" font-weight="bold" lengthAdjust="spacing" textLength="9" x="87.5" y="198.3438">3</text><text fill="#000000" font-family="FG Virgil" font-size="13" lengthAdjust="spacing" textLength="259" x="100.5" y="198.3438">asks to select one option (create/update)</text><polygon fill="#181818" points="379.5,228.3965,389.5,232.3965,379.5,236.3965,383.5,232.3965" style="stroke:#181818;stroke-width:1.0;"/><line style="stroke:#181818;stroke-width:1.0;" x1="70.5" x2="385.5" y1="232.3965" y2="232.3965"/><text fill="#000000" font-family="FG Virgil" font-size="13" font-weight="bold" lengthAdjust="spacing" textLength="9" x="77.5" y="227.6543">4</text><text fill="#000000" font-family="FG Virgil" font-size="13" lengthAdjust="spacing" textLength="97" x="90.5" y="227.6543">chooses option</text><path d="M10,247.3965 L72,247.3965 L72,254.707 L62,264.707 L10,264.707 L10,247.3965 " fill="#EEEEEE" style="stroke:#000000;stroke-width:1.5;"/><rect fill="none" height="1830.7637" style="stroke:#000000;stroke-width:1.5;" width="1467" x="10" y="247.3965"/><text fill="#000000" font-family="FG Virgil" font-size="13" font-weight="bold" lengthAdjust="spacing" textLength="17" x="25" y="260.9648">alt</text><text fill="#000000" font-family="FG Virgil" font-size="11" font-weight="bold" lengthAdjust="spacing" textLength="160" x="87" y="260.0313">[if option is create question]</text><polygon fill="#181818" points="81.5,282.0176,71.5,286.0176,81.5,290.0176,77.5,286.0176" style="stroke:#181818;stroke-width:1.0;"/><line style="stroke:#181818;stroke-width:1.0;stroke-dasharray:2.0,2.0;" x1="75.5" x2="390.5" y1="286.0176" y2="286.0176"/><text fill="#000000" font-family="FG Virgil" font-size="13" font-weight="bold" lengthAdjust="spacing" textLength="9" x="87.5" y="281.2754">5</text><text fill="#000000" font-family="FG Virgil" font-size="13" lengthAdjust="spacing" textLength="142" x="100.5" y="281.2754">asks to insert file path</text><polygon fill="#181818" points="379.5,311.3281,389.5,315.3281,379.5,319.3281,383.5,315.3281" style="stroke:#181818;stroke-width:1.0;"/><line style="stroke:#181818;stroke-width:1.0;" x1="70.5" x2="385.5" y1="315.3281" y2="315.3281"/><text fill="#000000" font-family="FG Virgil" font-size="13" font-weight="bold" lengthAdjust="spacing" textLength="9" x="77.5" y="310.5859">6</text><text fill="#000000" font-family="FG Virgil" font-size="13" lengthAdjust="spacing" textLength="99" x="90.5" y="310.5859">inserts file path</text><polygon fill="#181818" points="621.5,340.6387,631.5,344.6387,621.5,348.6387,625.5,344.6387" style="stroke:#181818;stroke-width:1.0;"/><line style="stroke:#181818;stroke-width:1.0;" x1="401.5" x2="627.5" y1="344.6387" y2="344.6387"/><text fill="#000000" font-family="FG Virgil" font-size="13" font-weight="bold" lengthAdjust="spacing" textLength="9" x="408.5" y="339.8965">7</text><text fill="#000000" font-family="FG Virgil" font-size="13" lengthAdjust="spacing" textLength="100" x="421.5" y="339.8965">importFile(path)</text><polygon fill="#181818" points="863.5,369.9492,873.5,373.9492,863.5,377.9492,867.5,373.9492" style="stroke:#181818;stroke-width:1.0;"/><line style="stroke:#181818;stroke-width:1.0;" x1="643.5" x2="869.5" y1="373.9492" y2="373.9492"/><text fill="#000000" font-family="FG Virgil" font-size="13" font-weight="bold" lengthAdjust="spacing" textLength="9" x="650.5" y="369.207">8</text><text fill="#000000" font-family="FG Virgil" font-size="13" lengthAdjust="spacing" textLength="100" x="663.5" y="369.207">importFile(path)</text><polygon fill="#181818" points="654.5,399.2598,644.5,403.2598,654.5,407.2598,650.5,403.2598" style="stroke:#181818;stroke-width:1.0;"/><line style="stroke:#181818;stroke-width:1.0;stroke-dasharray:2.0,2.0;" x1="648.5" x2="879.5" y1="403.2598" y2="403.2598"/><text fill="#000000" font-family="FG Virgil" font-size="13" font-weight="bold" lengthAdjust="spacing" textLength="9" x="660.5" y="398.5176">9</text><text fill="#000000" font-family="FG Virgil" font-size="13" lengthAdjust="spacing" textLength="81" x="673.5" y="398.5176">file imported</text><polygon fill="#181818" points="412.5,428.5703,402.5,432.5703,412.5,436.5703,408.5,432.5703" style="stroke:#181818;stroke-width:1.0;"/><line style="stroke:#181818;stroke-width:1.0;stroke-dasharray:2.0,2.0;" x1="406.5" x2="637.5" y1="432.5703" y2="432.5703"/><text fill="#000000" font-family="FG Virgil" font-size="13" font-weight="bold" lengthAdjust="spacing" textLength="18" x="418.5" y="427.8281">10</text><text fill="#000000" font-family="FG Virgil" font-size="13" lengthAdjust="spacing" textLength="81" x="440.5" y="427.8281">file imported</text><path d="M20,447.5703 L82,447.5703 L82,454.8809 L72,464.8809 L20,464.8809 L20,447.5703 " fill="#EEEEEE" style="stroke:#000000;stroke-width:1.5;"/><rect fill="none" height="642.7871" style="stroke:#000000;stroke-width:1.5;" width="1447" x="20" y="447.5703"/><text fill="#000000" font-family="FG Virgil" font-size="13" font-weight="bold" lengthAdjust="spacing" textLength="17" x="35" y="461.1387">alt</text><text fill="#000000" font-family="FG Virgil" font-size="11" font-weight="bold" lengthAdjust="spacing" textLength="102" x="97" y="460.2051">[if file is not null]</text><polygon fill="#181818" points="621.5,482.1914,631.5,486.1914,621.5,490.1914,625.5,486.1914" style="stroke:#181818;stroke-width:1.0;"/><line style="stroke:#181818;stroke-width:1.0;" x1="401.5" x2="627.5" y1="486.1914" y2="486.1914"/><text fill="#000000" font-family="FG Virgil" font-size="13" font-weight="bold" lengthAdjust="spacing" textLength="18" x="408.5" y="481.4492">11</text><text fill="#000000" font-family="FG Virgil" font-size="13" lengthAdjust="spacing" textLength="123" x="430.5" y="481.4492">createQuestion(file)</text><polygon fill="#181818" points="863.5,511.502,873.5,515.502,863.5,519.502,867.5,515.502" style="stroke:#181818;stroke-width:1.0;"/><line style="stroke:#181818;stroke-width:1.0;" x1="643.5" x2="869.5" y1="515.502" y2="515.502"/><text fill="#000000" font-family="FG Virgil" font-size="13" font-weight="bold" lengthAdjust="spacing" textLength="18" x="650.5" y="510.7598">12</text><text fill="#000000" font-family="FG Virgil" font-size="13" lengthAdjust="spacing" textLength="123" x="672.5" y="510.7598">createQuestion(file)</text><polygon fill="#181818" points="1168,540.8125,1178,544.8125,1168,548.8125,1172,544.8125" style="stroke:#181818;stroke-width:1.0;"/><line style="stroke:#181818;stroke-width:1.0;" x1="885.5" x2="1174" y1="544.8125" y2="544.8125"/><text fill="#000000" font-family="FG Virgil" font-size="13" font-weight="bold" lengthAdjust="spacing" textLength="18" x="892.5" y="540.0703">13</text><text fill="#000000" font-family="FG Virgil" font-size="13" lengthAdjust="spacing" textLength="185" x="914.5" y="540.0703">buildQuestion(ParseTree tree)</text><path d="M1195,557.8125 L1195,582.8125 L1418,582.8125 L1418,567.8125 L1408,557.8125 L1195,557.8125 " fill="#FAFAFA" style="stroke:#181818;stroke-width:0.5;"/><path d="M1408,557.8125 L1408,567.8125 L1418,567.8125 L1408,557.8125 " fill="#FAFAFA" style="stroke:#181818;stroke-width:0.5;"/><text fill="#000000" font-family="FG Virgil" font-size="13" lengthAdjust="spacing" textLength="202" x="1201" y="575.3809">this is the part related to ANTLR</text><polygon fill="#181818" points="1321,605.4336,1331,609.4336,1321,613.4336,1325,609.4336" style="stroke:#181818;stroke-width:1.0;"/><line style="stroke:#181818;stroke-width:1.0;" x1="1190" x2="1327" y1="609.4336" y2="609.4336"/><text fill="#000000" font-family="FG Virgil" font-size="13" font-weight="bold" lengthAdjust="spacing" textLength="18" x="1197" y="604.6914">14</text><text fill="#000000" font-family="FG Virgil" font-size="13" lengthAdjust="spacing" textLength="46" x="1219" y="604.6914">create()</text><rect fill="#E3E3E3" height="46.9766" rx="2.5" ry="2.5" style="stroke:#181818;stroke-width:0.5;" width="124" x="1333" y="588.123"/><text fill="#000000" font-family="FG Virgil" font-size="14" font-style="italic" lengthAdjust="spacing" textLength="61" x="1364.5" y="608.6582">&#171;factory&#187;</text><text fill="#000000" font-family="FG Virgil" font-size="14" lengthAdjust="spacing" textLength="110" x="1340" y="625.1465">QuestionBuilder</text><polygon fill="#181818" points="1383,663.4102,1393,667.4102,1383,671.4102,1387,667.4102" style="stroke:#181818;stroke-width:1.0;"/><line style="stroke:#181818;stroke-width:1.0;" x1="1190" x2="1389" y1="667.4102" y2="667.4102"/><text fill="#000000" font-family="FG Virgil" font-size="13" font-weight="bold" lengthAdjust="spacing" textLength="18" x="1197" y="662.668">15</text><text fill="#000000" font-family="FG Virgil" font-size="13" lengthAdjust="spacing" textLength="96" x="1219" y="662.668">ofGroup(group)</text><polygon fill="#181818" points="1383,692.7207,1393,696.7207,1383,700.7207,1387,696.7207" style="stroke:#181818;stroke-width:1.0;"/><line style="stroke:#181818;stroke-width:1.0;" x1="1190" x2="1389" y1="696.7207" y2="696.7207"/><text fill="#000000" font-family="FG Virgil" font-size="13" font-weight="bold" lengthAdjust="spacing" textLength="18" x="1197" y="691.9785">16</text><text fill="#000000" font-family="FG Virgil" font-size="13" lengthAdjust="spacing" textLength="149" x="1219" y="691.9785">withStructure(structure)</text><polygon fill="#181818" points="1383,722.0313,1393,726.0313,1383,730.0313,1387,726.0313" style="stroke:#181818;stroke-width:1.0;"/><line style="stroke:#181818;stroke-width:1.0;" x1="1190" x2="1389" y1="726.0313" y2="726.0313"/><text fill="#000000" font-family="FG Virgil" font-size="13" font-weight="bold" lengthAdjust="spacing" textLength="18" x="1197" y="721.2891">17</text><text fill="#000000" font-family="FG Virgil" font-size="13" lengthAdjust="spacing" textLength="159" x="1219" y="721.2891">withQuotation(quotation)</text><polygon fill="#181818" points="1378,751.3418,1388,755.3418,1378,759.3418,1382,755.3418" style="stroke:#181818;stroke-width:1.0;"/><line style="stroke:#181818;stroke-width:1.0;" x1="1190" x2="1384" y1="755.3418" y2="755.3418"/><text fill="#000000" font-family="FG Virgil" font-size="13" font-weight="bold" lengthAdjust="spacing" textLength="18" x="1197" y="750.5996">18</text><text fill="#000000" font-family="FG Virgil" font-size="13" lengthAdjust="spacing" textLength="40" x="1219" y="750.5996">build()</text><polygon fill="#181818" points="1201,780.6523,1191,784.6523,1201,788.6523,1197,784.6523" style="stroke:#181818;stroke-width:1.0;"/><line style="stroke:#181818;stroke-width:1.0;stroke-dasharray:2.0,2.0;" x1="1195" x2="1394" y1="784.6523" y2="784.6523"/><text fill="#000000" font-family="FG Virgil" font-size="13" font-weight="bold" lengthAdjust="spacing" textLength="18" x="1207" y="779.9102">19</text><text fill="#000000" font-family="FG Virgil" font-size="13" lengthAdjust="spacing" textLength="105" x="1229" y="779.9102">question created</text><polygon fill="#181818" points="896.5,809.9629,886.5,813.9629,896.5,817.9629,892.5,813.9629" style="stroke:#181818;stroke-width:1.0;"/><line style="stroke:#181818;stroke-width:1.0;stroke-dasharray:2.0,2.0;" x1="890.5" x2="1184" y1="813.9629" y2="813.9629"/><text fill="#000000" font-family="FG Virgil" font-size="13" font-weight="bold" lengthAdjust="spacing" textLength="18" x="902.5" y="809.2207">20</text><text fill="#000000" font-family="FG Virgil" font-size="13" lengthAdjust="spacing" textLength="121" x="924.5" y="809.2207">question generated</text><path d="M765.5,828.9629 L827.5,828.9629 L827.5,836.2734 L817.5,846.2734 L765.5,846.2734 L765.5,828.9629 " fill="#EEEEEE" style="stroke:#000000;stroke-width:1.5;"/><rect fill="none" height="46.6211" style="stroke:#000000;stroke-width:1.5;" width="567" x="765.5" y="828.9629"/><text fill="#000000" font-family="FG Virgil" font-size="13" font-weight="bold" lengthAdjust="spacing" textLength="17" x="780.5" y="842.5313">alt</text><text fill="#000000" font-family="FG Virgil" font-size="11" font-weight="bold" lengthAdjust="spacing" textLength="485" x="842.5" y="841.5977">[if question is not null and !questionRepository.existsByStructure(question.structure())]</text><polygon fill="#181818" points="1054,863.584,1064,867.584,1054,871.584,1058,867.584" style="stroke:#181818;stroke-width:1.0;"/><line style="stroke:#181818;stroke-width:1.0;" x1="885.5" x2="1060" y1="867.584" y2="867.584"/><text fill="#000000" font-family="FG Virgil" font-size="13" font-weight="bold" lengthAdjust="spacing" textLength="18" x="892.5" y="862.8418">21</text><text fill="#000000" font-family="FG Virgil" font-size="13" lengthAdjust="spacing" textLength="91" x="914.5" y="862.8418">save(question)</text><polygon fill="#181818" points="654.5,899.8945,644.5,903.8945,654.5,907.8945,650.5,903.8945" style="stroke:#181818;stroke-width:1.0;"/><line style="stroke:#181818;stroke-width:1.0;stroke-dasharray:2.0,2.0;" x1="648.5" x2="879.5" y1="903.8945" y2="903.8945"/><text fill="#000000" font-family="FG Virgil" font-size="13" font-weight="bold" lengthAdjust="spacing" textLength="18" x="660.5" y="899.1523">22</text><text fill="#000000" font-family="FG Virgil" font-size="13" lengthAdjust="spacing" textLength="121" x="682.5" y="899.1523">question generated</text><polygon fill="#181818" points="412.5,929.2051,402.5,933.2051,412.5,937.2051,408.5,933.2051" style="stroke:#181818;stroke-width:1.0;"/><line style="stroke:#181818;stroke-width:1.0;stroke-dasharray:2.0,2.0;" x1="406.5" x2="637.5" y1="933.2051" y2="933.2051"/><text fill="#000000" font-family="FG Virgil" font-size="13" font-weight="bold" lengthAdjust="spacing" textLength="18" x="418.5" y="928.4629">23</text><text fill="#000000" font-family="FG Virgil" font-size="13" lengthAdjust="spacing" textLength="121" x="440.5" y="928.4629">question generated</text><path d="M30,948.2051 L92,948.2051 L92,955.5156 L82,965.5156 L30,965.5156 L30,948.2051 " fill="#EEEEEE" style="stroke:#000000;stroke-width:1.5;"/><rect fill="none" height="90.8867" style="stroke:#000000;stroke-width:1.5;" width="468.5" x="30" y="948.2051"/><text fill="#000000" font-family="FG Virgil" font-size="13" font-weight="bold" lengthAdjust="spacing" textLength="17" x="45" y="961.7734">alt</text><text fill="#000000" font-family="FG Virgil" font-size="11" font-weight="bold" lengthAdjust="spacing" textLength="131" x="107" y="960.8398">[if question is not null]</text><polygon fill="#181818" points="81.5,982.8262,71.5,986.8262,81.5,990.8262,77.5,986.8262" style="stroke:#181818;stroke-width:1.0;"/><line style="stroke:#181818;stroke-width:1.0;stroke-dasharray:2.0,2.0;" x1="75.5" x2="390.5" y1="986.8262" y2="986.8262"/><text fill="#000000" font-family="FG Virgil" font-size="13" font-weight="bold" lengthAdjust="spacing" textLength="18" x="87.5" y="982.084">24</text><text fill="#000000" font-family="FG Virgil" font-size="13" lengthAdjust="spacing" textLength="173" x="109.5" y="982.084">shows the question created</text><line style="stroke:#000000;stroke-width:1.0;stroke-dasharray:2.0,2.0;" x1="30" x2="498.5" y1="995.8262" y2="995.8262"/><text fill="#000000" font-family="FG Virgil" font-size="11" font-weight="bold" lengthAdjust="spacing" textLength="109" x="35" y="1006.4609">[if question is null]</text><polygon fill="#181818" points="81.5,1027.0918,71.5,1031.0918,81.5,1035.0918,77.5,1031.0918" style="stroke:#181818;stroke-width:1.0;"/><line style="stroke:#181818;stroke-width:1.0;stroke-dasharray:2.0,2.0;" x1="75.5" x2="390.5" y1="1031.0918" y2="1031.0918"/><text fill="#000000" font-family="FG Virgil" font-size="13" font-weight="bold" lengthAdjust="spacing" textLength="18" x="87.5" y="1026.3496">25</text><text fill="#000000" font-family="FG Virgil" font-size="13" lengthAdjust="spacing" textLength="246" x="109.5" y="1026.3496">informs about question not being valid</text><line style="stroke:#000000;stroke-width:1.0;stroke-dasharray:2.0,2.0;" x1="20" x2="1467" y1="1047.0918" y2="1047.0918"/><text fill="#000000" font-family="FG Virgil" font-size="11" font-weight="bold" lengthAdjust="spacing" textLength="80" x="25" y="1057.7266">[if file is null]</text><polygon fill="#181818" points="81.5,1078.3574,71.5,1082.3574,81.5,1086.3574,77.5,1082.3574" style="stroke:#181818;stroke-width:1.0;"/><line style="stroke:#181818;stroke-width:1.0;stroke-dasharray:2.0,2.0;" x1="75.5" x2="390.5" y1="1082.3574" y2="1082.3574"/><text fill="#000000" font-family="FG Virgil" font-size="13" font-weight="bold" lengthAdjust="spacing" textLength="18" x="87.5" y="1077.6152">26</text><text fill="#000000" font-family="FG Virgil" font-size="13" lengthAdjust="spacing" textLength="211" x="109.5" y="1077.6152">informs about file not being valid</text><line style="stroke:#000000;stroke-width:1.0;stroke-dasharray:2.0,2.0;" x1="10" x2="1477" y1="1098.3574" y2="1098.3574"/><text fill="#000000" font-family="FG Virgil" font-size="11" font-weight="bold" lengthAdjust="spacing" textLength="164" x="15" y="1108.9922">[if option is update question]</text><polygon fill="#181818" points="621.5,1129.623,631.5,1133.623,621.5,1137.623,625.5,1133.623" style="stroke:#181818;stroke-width:1.0;"/><line style="stroke:#181818;stroke-width:1.0;" x1="401.5" x2="627.5" y1="1133.623" y2="1133.623"/><text fill="#000000" font-family="FG Virgil" font-size="13" font-weight="bold" lengthAdjust="spacing" textLength="18" x="408.5" y="1128.8809">27</text><text fill="#000000" font-family="FG Virgil" font-size="13" lengthAdjust="spacing" textLength="114" x="430.5" y="1128.8809">findAllQuestions()</text><polygon fill="#181818" points="1049,1158.9336,1059,1162.9336,1049,1166.9336,1053,1162.9336" style="stroke:#181818;stroke-width:1.0;"/><line style="stroke:#181818;stroke-width:1.0;" x1="643.5" x2="1055" y1="1162.9336" y2="1162.9336"/><text fill="#000000" font-family="FG Virgil" font-size="13" font-weight="bold" lengthAdjust="spacing" textLength="18" x="650.5" y="1158.1914">28</text><text fill="#000000" font-family="FG Virgil" font-size="13" lengthAdjust="spacing" textLength="50" x="672.5" y="1158.1914">findAll()</text><polygon fill="#181818" points="654.5,1188.2441,644.5,1192.2441,654.5,1196.2441,650.5,1192.2441" style="stroke:#181818;stroke-width:1.0;"/><line style="stroke:#181818;stroke-width:1.0;stroke-dasharray:2.0,2.0;" x1="648.5" x2="1065" y1="1192.2441" y2="1192.2441"/><text fill="#000000" font-family="FG Virgil" font-size="13" font-weight="bold" lengthAdjust="spacing" textLength="18" x="660.5" y="1187.502">29</text><text fill="#000000" font-family="FG Virgil" font-size="13" lengthAdjust="spacing" textLength="4" x="682.5" y="1187.502">&#160;</text><polygon fill="#181818" points="412.5,1217.5547,402.5,1221.5547,412.5,1225.5547,408.5,1221.5547" style="stroke:#181818;stroke-width:1.0;"/><line style="stroke:#181818;stroke-width:1.0;stroke-dasharray:2.0,2.0;" x1="406.5" x2="637.5" y1="1221.5547" y2="1221.5547"/><text fill="#000000" font-family="FG Virgil" font-size="13" font-weight="bold" lengthAdjust="spacing" textLength="18" x="418.5" y="1216.8125">30</text><text fill="#000000" font-family="FG Virgil" font-size="13" lengthAdjust="spacing" textLength="4" x="440.5" y="1216.8125">&#160;</text><polygon fill="#181818" points="81.5,1262.1758,71.5,1266.1758,81.5,1270.1758,77.5,1266.1758" style="stroke:#181818;stroke-width:1.0;"/><line style="stroke:#181818;stroke-width:1.0;stroke-dasharray:2.0,2.0;" x1="75.5" x2="390.5" y1="1266.1758" y2="1266.1758"/><text fill="#000000" font-family="FG Virgil" font-size="13" font-weight="bold" lengthAdjust="spacing" textLength="18" x="87.5" y="1253.7783">31</text><text fill="#000000" font-family="FG Virgil" font-size="13" lengthAdjust="spacing" textLength="182" x="109.5" y="1246.123">shows avaliable question list</text><text fill="#000000" font-family="FG Virgil" font-size="13" lengthAdjust="spacing" textLength="218" x="109.5" y="1261.4336">asks to choose question to update</text><polygon fill="#181818" points="379.5,1291.4863,389.5,1295.4863,379.5,1299.4863,383.5,1295.4863" style="stroke:#181818;stroke-width:1.0;"/><line style="stroke:#181818;stroke-width:1.0;" x1="70.5" x2="385.5" y1="1295.4863" y2="1295.4863"/><text fill="#000000" font-family="FG Virgil" font-size="13" font-weight="bold" lengthAdjust="spacing" textLength="18" x="77.5" y="1290.7441">32</text><text fill="#000000" font-family="FG Virgil" font-size="13" lengthAdjust="spacing" textLength="175" x="99.5" y="1290.7441">chooses question to update</text><polygon fill="#181818" points="621.5,1320.7969,631.5,1324.7969,621.5,1328.7969,625.5,1324.7969" style="stroke:#181818;stroke-width:1.0;"/><line style="stroke:#181818;stroke-width:1.0;" x1="401.5" x2="627.5" y1="1324.7969" y2="1324.7969"/><text fill="#000000" font-family="FG Virgil" font-size="13" font-weight="bold" lengthAdjust="spacing" textLength="18" x="408.5" y="1320.0547">33</text><text fill="#000000" font-family="FG Virgil" font-size="13" lengthAdjust="spacing" textLength="100" x="430.5" y="1320.0547">importFile(path)</text><polygon fill="#181818" points="863.5,1350.1074,873.5,1354.1074,863.5,1358.1074,867.5,1354.1074" style="stroke:#181818;stroke-width:1.0;"/><line style="stroke:#181818;stroke-width:1.0;" x1="643.5" x2="869.5" y1="1354.1074" y2="1354.1074"/><text fill="#000000" font-family="FG Virgil" font-size="13" font-weight="bold" lengthAdjust="spacing" textLength="18" x="650.5" y="1349.3652">34</text><text fill="#000000" font-family="FG Virgil" font-size="13" lengthAdjust="spacing" textLength="100" x="672.5" y="1349.3652">importFile(path)</text><polygon fill="#181818" points="654.5,1379.418,644.5,1383.418,654.5,1387.418,650.5,1383.418" style="stroke:#181818;stroke-width:1.0;"/><line style="stroke:#181818;stroke-width:1.0;stroke-dasharray:2.0,2.0;" x1="648.5" x2="879.5" y1="1383.418" y2="1383.418"/><text fill="#000000" font-family="FG Virgil" font-size="13" font-weight="bold" lengthAdjust="spacing" textLength="18" x="660.5" y="1378.6758">35</text><text fill="#000000" font-family="FG Virgil" font-size="13" lengthAdjust="spacing" textLength="81" x="682.5" y="1378.6758">file imported</text><polygon fill="#181818" points="412.5,1408.7285,402.5,1412.7285,412.5,1416.7285,408.5,1412.7285" style="stroke:#181818;stroke-width:1.0;"/><line style="stroke:#181818;stroke-width:1.0;stroke-dasharray:2.0,2.0;" x1="406.5" x2="637.5" y1="1412.7285" y2="1412.7285"/><text fill="#000000" font-family="FG Virgil" font-size="13" font-weight="bold" lengthAdjust="spacing" textLength="18" x="418.5" y="1407.9863">36</text><text fill="#000000" font-family="FG Virgil" font-size="13" lengthAdjust="spacing" textLength="81" x="440.5" y="1407.9863">file imported</text><path d="M20,1427.7285 L82,1427.7285 L82,1435.0391 L72,1445.0391 L20,1445.0391 L20,1427.7285 " fill="#EEEEEE" style="stroke:#000000;stroke-width:1.5;"/><rect fill="none" height="643.4316" style="stroke:#000000;stroke-width:1.5;" width="1447" x="20" y="1427.7285"/><text fill="#000000" font-family="FG Virgil" font-size="13" font-weight="bold" lengthAdjust="spacing" textLength="17" x="35" y="1441.2969">alt</text><text fill="#000000" font-family="FG Virgil" font-size="11" font-weight="bold" lengthAdjust="spacing" textLength="102" x="97" y="1440.3633">[if file is not null]</text><polygon fill="#181818" points="621.5,1462.3496,631.5,1466.3496,621.5,1470.3496,625.5,1466.3496" style="stroke:#181818;stroke-width:1.0;"/><line style="stroke:#181818;stroke-width:1.0;" x1="401.5" x2="627.5" y1="1466.3496" y2="1466.3496"/><text fill="#000000" font-family="FG Virgil" font-size="13" font-weight="bold" lengthAdjust="spacing" textLength="18" x="408.5" y="1461.6074">37</text><text fill="#000000" font-family="FG Virgil" font-size="13" lengthAdjust="spacing" textLength="191" x="430.5" y="1461.6074">updateQuestion(question, file)</text><polygon fill="#181818" points="863.5,1491.6602,873.5,1495.6602,863.5,1499.6602,867.5,1495.6602" style="stroke:#181818;stroke-width:1.0;"/><line style="stroke:#181818;stroke-width:1.0;" x1="643.5" x2="869.5" y1="1495.6602" y2="1495.6602"/><text fill="#000000" font-family="FG Virgil" font-size="13" font-weight="bold" lengthAdjust="spacing" textLength="18" x="650.5" y="1490.918">38</text><text fill="#000000" font-family="FG Virgil" font-size="13" lengthAdjust="spacing" textLength="191" x="672.5" y="1490.918">updateQuestion(question, file)</text><polygon fill="#181818" points="1168,1520.9707,1178,1524.9707,1168,1528.9707,1172,1524.9707" style="stroke:#181818;stroke-width:1.0;"/><line style="stroke:#181818;stroke-width:1.0;" x1="885.5" x2="1174" y1="1524.9707" y2="1524.9707"/><text fill="#000000" font-family="FG Virgil" font-size="13" font-weight="bold" lengthAdjust="spacing" textLength="18" x="892.5" y="1520.2285">39</text><text fill="#000000" font-family="FG Virgil" font-size="13" lengthAdjust="spacing" textLength="185" x="914.5" y="1520.2285">buildQuestion(ParseTree tree)</text><path d="M1195,1537.9707 L1195,1562.9707 L1418,1562.9707 L1418,1547.9707 L1408,1537.9707 L1195,1537.9707 " fill="#FAFAFA" style="stroke:#181818;stroke-width:0.5;"/><path d="M1408,1537.9707 L1408,1547.9707 L1418,1547.9707 L1408,1537.9707 " fill="#FAFAFA" style="stroke:#181818;stroke-width:0.5;"/><text fill="#000000" font-family="FG Virgil" font-size="13" lengthAdjust="spacing" textLength="202" x="1201" y="1555.5391">this is the part related to ANTLR</text><polygon fill="#181818" points="1383,1585.5918,1393,1589.5918,1383,1593.5918,1387,1589.5918" style="stroke:#181818;stroke-width:1.0;"/><line style="stroke:#181818;stroke-width:1.0;" x1="1190" x2="1389" y1="1589.5918" y2="1589.5918"/><text fill="#000000" font-family="FG Virgil" font-size="13" font-weight="bold" lengthAdjust="spacing" textLength="18" x="1197" y="1584.8496">40</text><text fill="#000000" font-family="FG Virgil" font-size="13" lengthAdjust="spacing" textLength="46" x="1219" y="1584.8496">create()</text><polygon fill="#181818" points="1383,1614.9023,1393,1618.9023,1383,1622.9023,1387,1618.9023" style="stroke:#181818;stroke-width:1.0;"/><line style="stroke:#181818;stroke-width:1.0;" x1="1190" x2="1389" y1="1618.9023" y2="1618.9023"/><text fill="#000000" font-family="FG Virgil" font-size="13" font-weight="bold" lengthAdjust="spacing" textLength="18" x="1197" y="1614.1602">41</text><text fill="#000000" font-family="FG Virgil" font-size="13" lengthAdjust="spacing" textLength="96" x="1219" y="1614.1602">ofGroup(group)</text><polygon fill="#181818" points="1383,1644.2129,1393,1648.2129,1383,1652.2129,1387,1648.2129" style="stroke:#181818;stroke-width:1.0;"/><line style="stroke:#181818;stroke-width:1.0;" x1="1190" x2="1389" y1="1648.2129" y2="1648.2129"/><text fill="#000000" font-family="FG Virgil" font-size="13" font-weight="bold" lengthAdjust="spacing" textLength="18" x="1197" y="1643.4707">42</text><text fill="#000000" font-family="FG Virgil" font-size="13" lengthAdjust="spacing" textLength="149" x="1219" y="1643.4707">withStructure(structure)</text><polygon fill="#181818" points="1383,1673.5234,1393,1677.5234,1383,1681.5234,1387,1677.5234" style="stroke:#181818;stroke-width:1.0;"/><line style="stroke:#181818;stroke-width:1.0;" x1="1190" x2="1389" y1="1677.5234" y2="1677.5234"/><text fill="#000000" font-family="FG Virgil" font-size="13" font-weight="bold" lengthAdjust="spacing" textLength="18" x="1197" y="1672.7813">43</text><text fill="#000000" font-family="FG Virgil" font-size="13" lengthAdjust="spacing" textLength="159" x="1219" y="1672.7813">withQuotation(quotation)</text><polygon fill="#181818" points="1378,1702.834,1388,1706.834,1378,1710.834,1382,1706.834" style="stroke:#181818;stroke-width:1.0;"/><line style="stroke:#181818;stroke-width:1.0;" x1="1190" x2="1384" y1="1706.834" y2="1706.834"/><text fill="#000000" font-family="FG Virgil" font-size="13" font-weight="bold" lengthAdjust="spacing" textLength="18" x="1197" y="1702.0918">44</text><text fill="#000000" font-family="FG Virgil" font-size="13" lengthAdjust="spacing" textLength="40" x="1219" y="1702.0918">build()</text><polygon fill="#181818" points="1201,1732.1445,1191,1736.1445,1201,1740.1445,1197,1736.1445" style="stroke:#181818;stroke-width:1.0;"/><line style="stroke:#181818;stroke-width:1.0;stroke-dasharray:2.0,2.0;" x1="1195" x2="1394" y1="1736.1445" y2="1736.1445"/><text fill="#000000" font-family="FG Virgil" font-size="13" font-weight="bold" lengthAdjust="spacing" textLength="18" x="1207" y="1731.4023">45</text><text fill="#000000" font-family="FG Virgil" font-size="13" lengthAdjust="spacing" textLength="105" x="1229" y="1731.4023">question created</text><polygon fill="#181818" points="896.5,1761.4551,886.5,1765.4551,896.5,1769.4551,892.5,1765.4551" style="stroke:#181818;stroke-width:1.0;"/><line style="stroke:#181818;stroke-width:1.0;stroke-dasharray:2.0,2.0;" x1="890.5" x2="1184" y1="1765.4551" y2="1765.4551"/><text fill="#000000" font-family="FG Virgil" font-size="13" font-weight="bold" lengthAdjust="spacing" textLength="18" x="902.5" y="1760.7129">46</text><text fill="#000000" font-family="FG Virgil" font-size="13" lengthAdjust="spacing" textLength="121" x="924.5" y="1760.7129">question generated</text><path d="M765.5,1780.4551 L827.5,1780.4551 L827.5,1787.7656 L817.5,1797.7656 L765.5,1797.7656 L765.5,1780.4551 " fill="#EEEEEE" style="stroke:#000000;stroke-width:1.5;"/><rect fill="none" height="75.9316" style="stroke:#000000;stroke-width:1.5;" width="381" x="765.5" y="1780.4551"/><text fill="#000000" font-family="FG Virgil" font-size="13" font-weight="bold" lengthAdjust="spacing" textLength="17" x="780.5" y="1794.0234">alt</text><text fill="#000000" font-family="FG Virgil" font-size="11" font-weight="bold" lengthAdjust="spacing" textLength="131" x="842.5" y="1793.0898">[if question is not null]</text><polygon fill="#181818" points="1054,1815.0762,1064,1819.0762,1054,1823.0762,1058,1819.0762" style="stroke:#181818;stroke-width:1.0;"/><line style="stroke:#181818;stroke-width:1.0;" x1="885.5" x2="1060" y1="1819.0762" y2="1819.0762"/><text fill="#000000" font-family="FG Virgil" font-size="13" font-weight="bold" lengthAdjust="spacing" textLength="18" x="892.5" y="1814.334">47</text><text fill="#000000" font-family="FG Virgil" font-size="13" lengthAdjust="spacing" textLength="101" x="914.5" y="1814.334">delete(question)</text><polygon fill="#181818" points="1054,1844.3867,1064,1848.3867,1054,1852.3867,1058,1848.3867" style="stroke:#181818;stroke-width:1.0;"/><line style="stroke:#181818;stroke-width:1.0;" x1="885.5" x2="1060" y1="1848.3867" y2="1848.3867"/><text fill="#000000" font-family="FG Virgil" font-size="13" font-weight="bold" lengthAdjust="spacing" textLength="18" x="892.5" y="1843.6445">48</text><text fill="#000000" font-family="FG Virgil" font-size="13" lengthAdjust="spacing" textLength="91" x="914.5" y="1843.6445">save(question)</text><polygon fill="#181818" points="654.5,1880.6973,644.5,1884.6973,654.5,1888.6973,650.5,1884.6973" style="stroke:#181818;stroke-width:1.0;"/><line style="stroke:#181818;stroke-width:1.0;stroke-dasharray:2.0,2.0;" x1="648.5" x2="879.5" y1="1884.6973" y2="1884.6973"/><text fill="#000000" font-family="FG Virgil" font-size="13" font-weight="bold" lengthAdjust="spacing" textLength="18" x="660.5" y="1879.9551">49</text><text fill="#000000" font-family="FG Virgil" font-size="13" lengthAdjust="spacing" textLength="150" x="682.5" y="1879.9551">new question generated</text><polygon fill="#181818" points="412.5,1910.0078,402.5,1914.0078,412.5,1918.0078,408.5,1914.0078" style="stroke:#181818;stroke-width:1.0;"/><line style="stroke:#181818;stroke-width:1.0;stroke-dasharray:2.0,2.0;" x1="406.5" x2="637.5" y1="1914.0078" y2="1914.0078"/><text fill="#000000" font-family="FG Virgil" font-size="13" font-weight="bold" lengthAdjust="spacing" textLength="18" x="418.5" y="1909.2656">50</text><text fill="#000000" font-family="FG Virgil" font-size="13" lengthAdjust="spacing" textLength="150" x="440.5" y="1909.2656">new question generated</text><path d="M30,1929.0078 L92,1929.0078 L92,1936.3184 L82,1946.3184 L30,1946.3184 L30,1929.0078 " fill="#EEEEEE" style="stroke:#000000;stroke-width:1.5;"/><rect fill="none" height="90.8867" style="stroke:#000000;stroke-width:1.5;" width="468.5" x="30" y="1929.0078"/><text fill="#000000" font-family="FG Virgil" font-size="13" font-weight="bold" lengthAdjust="spacing" textLength="17" x="45" y="1942.5762">alt</text><text fill="#000000" font-family="FG Virgil" font-size="11" font-weight="bold" lengthAdjust="spacing" textLength="157" x="107" y="1941.6426">[if new question is not null]</text><polygon fill="#181818" points="81.5,1963.6289,71.5,1967.6289,81.5,1971.6289,77.5,1967.6289" style="stroke:#181818;stroke-width:1.0;"/><line style="stroke:#181818;stroke-width:1.0;stroke-dasharray:2.0,2.0;" x1="75.5" x2="390.5" y1="1967.6289" y2="1967.6289"/><text fill="#000000" font-family="FG Virgil" font-size="13" font-weight="bold" lengthAdjust="spacing" textLength="18" x="87.5" y="1962.8867">51</text><text fill="#000000" font-family="FG Virgil" font-size="13" lengthAdjust="spacing" textLength="202" x="109.5" y="1962.8867">shows the new question created</text><line style="stroke:#000000;stroke-width:1.0;stroke-dasharray:2.0,2.0;" x1="30" x2="498.5" y1="1976.6289" y2="1976.6289"/><text fill="#000000" font-family="FG Virgil" font-size="11" font-weight="bold" lengthAdjust="spacing" textLength="135" x="35" y="1987.2637">[if new question is null]</text><polygon fill="#181818" points="81.5,2007.8945,71.5,2011.8945,81.5,2015.8945,77.5,2011.8945" style="stroke:#181818;stroke-width:1.0;"/><line style="stroke:#181818;stroke-width:1.0;stroke-dasharray:2.0,2.0;" x1="75.5" x2="390.5" y1="2011.8945" y2="2011.8945"/><text fill="#000000" font-family="FG Virgil" font-size="13" font-weight="bold" lengthAdjust="spacing" textLength="18" x="87.5" y="2007.1523">52</text><text fill="#000000" font-family="FG Virgil" font-size="13" lengthAdjust="spacing" textLength="275" x="109.5" y="2007.1523">informs about new question not being valid</text><line style="stroke:#000000;stroke-width:1.0;stroke-dasharray:2.0,2.0;" x1="20" x2="1467" y1="2027.8945" y2="2027.8945"/><text fill="#000000" font-family="FG Virgil" font-size="11" font-weight="bold" lengthAdjust="spacing" textLength="80" x="25" y="2038.5293">[if file is null]</text><polygon fill="#181818" points="81.5,2059.1602,71.5,2063.1602,81.5,2067.1602,77.5,2063.1602" style="stroke:#181818;stroke-width:1.0;"/><line style="stroke:#181818;stroke-width:1.0;stroke-dasharray:2.0,2.0;" x1="75.5" x2="390.5" y1="2063.1602" y2="2063.1602"/><text fill="#000000" font-family="FG Virgil" font-size="13" font-weight="bold" lengthAdjust="spacing" textLength="18" x="87.5" y="2058.418">53</text><text fill="#000000" font-family="FG Virgil" font-size="13" lengthAdjust="spacing" textLength="211" x="109.5" y="2058.418">informs about file not being valid</text><!--SRC=[xLVRRgCm47tdAxnFIwHDyXwXI6srhIgjgkqbVTeN1oR1gh6fRPBjtwyDc9Y4MvhkJIsgKi2USyQUySpXSwnKEfjEKugPoX8w2NaobK-4fLZWP1AhX7hL8qeuus4iU098YGoSaHI7JtWDz-g50X8GAcSiWXNEgBhaJDrWRNfvXHw9M1CNMSOuubl2rcY5gGGFPugpB5c2y3mSAYxG0-0m1e6mH6VcXQSD5Gb9gXr75mAmWaKQwT_R3AGYd2skpLpz6mIf00bCOVDwFlUy702DvsPqfcSzIQGu2dEGQPQZ88oUIo3Z0DcOTujh3-chc8X2lI31QIFvHJ56jV_6GlDejkw9inBN7ta5ImVyFOWD2S4iqDu60KvJIaAxI0EXJV0IIq3MxWvIBebU_8inRNWR1A9wA46i7rytc3wIVCWOkuz1i2dkpERQzUe55_kyss49LAS6uWmGJmqpyckRFigDwz49OyuboD8Wdu2fGcHb8OYq0Qa2XighnGt290Y5LaJdQefLNCslCnVJPCEy8U4q04dAXRhKvhun7rNsLK8DI1rxzR1fVsmcT13NoClvjK5pMPpna3NccrFmGLI3Yg2JgMyzDWhD10xum3qiawQ0auXnXLX6QSsdWN4jqiqE-GQoPOkFYE-nCUvrOb2iQ_6Urmxr32qpGgEAuJiM4Xu4cDeF3LmrFWUeSQAvT0Xqho3hM5U4rHwrYdMCz9-ApT7JXrK0rRYHERvdDm_VxbfHorhWTWUxX7EpdgA5xByAWbNUPcpHQxfS3_LUxKCuzVlL27nr9NYM-clpUmBEbgZuNhVeK6K2V6dlJaIypNZHG_rdUtS2OfvTjjbr9jEURQk1kVPvnWTPRRj46Qwe5SwfCKCzg2swTbmhrZKm4Asy3cVV4IeBMWNi53M4MOG-FH-qzmdy95B9yvTTRjX9aof9_55xK9rIqI0UPaZYpGwo6GPOr5s5XbJW0RlPqtwEQK4zRCVtefxm7JYwfsDapBT5QUpCPT12-e1Y03nXAouIYV2IPsfdRRnRWf7eEZ797fKJL4jRTTgZANFBDZfBPMbsAh0KxeqgS92IOT4PfNPC-hzRhpMUeD8BlqLG7DfuJTNFWUm_JrvFqMlX6dHwJX1iHMu4ut5n28kanoOPy98wgKzrIVl1ge-u_7DXDwfV5NdH8lBjvqM7mOVQVzTgFwiDLTtj2_exkly8Tzxf5y27Jl_GwV-7Jd-rpew0WkfJsl-IO6Um_SEYVG3ZISAzXlygyLv3w1Bm1rH7A-eQmfi9-JSGyVg_4uN5zIy0]--></g></svg>