<?xml version="1.0" encoding="us-ascii" standalone="no"?><svg xmlns="http://www.w3.org/2000/svg" xmlns:xlink="http://www.w3.org/1999/xlink" contentStyleType="text/css" height="502px" preserveAspectRatio="none" style="width:630px;height:502px;background:#FFFFFF;" version="1.1" viewBox="0 0 630 502" width="630px" zoomAndPan="magnify"><defs/><g><!--class CreateCourseUI--><g id="elem_CreateCourseUI"><rect codeLine="2" fill="#F1F1F1" height="56.6211" id="CreateCourseUI" rx="2.5" ry="2.5" style="stroke:#181818;stroke-width:0.5;" width="140" x="245" y="7"/><ellipse cx="260" cy="27.3105" fill="#ADD1B2" rx="11" ry="11" style="stroke:#181818;stroke-width:1.0;"/><path d="M262.9731,32.9536 Q262.3921,33.2524 261.7529,33.4019 Q261.1138,33.5513 260.4082,33.5513 Q257.9014,33.5513 256.5815,31.8994 Q255.2617,30.2476 255.2617,27.1265 Q255.2617,23.9971 256.5815,22.3452 Q257.9014,20.6934 260.4082,20.6934 Q261.1138,20.6934 261.7612,20.8428 Q262.4087,20.9922 262.9731,21.291 L262.9731,24.0137 Q262.3423,23.4326 261.7488,23.1628 Q261.1553,22.8931 260.5244,22.8931 Q259.1797,22.8931 258.4949,23.9597 Q257.8101,25.0264 257.8101,27.1265 Q257.8101,29.2183 258.4949,30.2849 Q259.1797,31.3516 260.5244,31.3516 Q261.1553,31.3516 261.7488,31.0818 Q262.3423,30.812 262.9731,30.231 Z " fill="#000000"/><text fill="#000000" font-family="sans-serif" font-size="12" font-style="italic" lengthAdjust="spacing" textLength="23" x="316.5" y="23.6016">&#171;UI&#187;</text><text fill="#000000" font-family="sans-serif" font-size="14" lengthAdjust="spacing" textLength="108" x="274" y="39.668">CreateCourseUI</text><line style="stroke:#181818;stroke-width:0.5;" x1="246" x2="384" y1="47.6211" y2="47.6211"/><line style="stroke:#181818;stroke-width:0.5;" x1="246" x2="384" y1="55.6211" y2="55.6211"/></g><!--class CreateCourseController--><g id="elem_CreateCourseController"><rect codeLine="5" fill="#F1F1F1" height="155.5508" id="CreateCourseController" rx="2.5" ry="2.5" style="stroke:#181818;stroke-width:0.5;" width="616" x="7" y="124"/><ellipse cx="228.75" cy="144.3105" fill="#ADD1B2" rx="11" ry="11" style="stroke:#181818;stroke-width:1.0;"/><path d="M231.7231,149.9536 Q231.1421,150.2524 230.5029,150.4019 Q229.8638,150.5513 229.1582,150.5513 Q226.6514,150.5513 225.3315,148.8994 Q224.0117,147.2476 224.0117,144.1265 Q224.0117,140.9971 225.3315,139.3452 Q226.6514,137.6934 229.1582,137.6934 Q229.8638,137.6934 230.5112,137.8428 Q231.1587,137.9922 231.7231,138.291 L231.7231,141.0137 Q231.0923,140.4326 230.4988,140.1628 Q229.9053,139.8931 229.2744,139.8931 Q227.9297,139.8931 227.2449,140.9597 Q226.5601,142.0264 226.5601,144.1265 Q226.5601,146.2183 227.2449,147.2849 Q227.9297,148.3516 229.2744,148.3516 Q229.9053,148.3516 230.4988,148.0818 Q231.0923,147.812 231.7231,147.231 Z " fill="#000000"/><text fill="#000000" font-family="sans-serif" font-size="12" font-style="italic" lengthAdjust="spacing" textLength="68" x="297.25" y="140.6016">&#171;Controller&#187;</text><text fill="#000000" font-family="sans-serif" font-size="14" lengthAdjust="spacing" textLength="164" x="249.25" y="156.668">CreateCourseController</text><line style="stroke:#181818;stroke-width:0.5;" x1="8" x2="622" y1="164.6211" y2="164.6211"/><line style="stroke:#181818;stroke-width:0.5;" x1="8" x2="622" y1="172.6211" y2="172.6211"/><ellipse cx="18" cy="186.3652" fill="#84BE84" rx="3" ry="3" style="stroke:#038048;stroke-width:1.0;"/><text fill="#000000" font-family="sans-serif" font-size="14" lengthAdjust="spacing" textLength="590" x="27" y="190.1563">void: createCourse(courseCode, courseName, description, minStudents, maxStudents)</text><ellipse cx="18" cy="202.8535" fill="#84BE84" rx="3" ry="3" style="stroke:#038048;stroke-width:1.0;"/><text fill="#000000" font-family="sans-serif" font-size="14" lengthAdjust="spacing" textLength="294" x="27" y="206.6445">boolean: validateCourseCode(courseCode)</text><ellipse cx="18" cy="219.3418" fill="#84BE84" rx="3" ry="3" style="stroke:#038048;stroke-width:1.0;"/><text fill="#000000" font-family="sans-serif" font-size="14" lengthAdjust="spacing" textLength="300" x="27" y="223.1328">boolean: validateCourseName(courseName)</text><ellipse cx="18" cy="235.8301" fill="#84BE84" rx="3" ry="3" style="stroke:#038048;stroke-width:1.0;"/><text fill="#000000" font-family="sans-serif" font-size="14" lengthAdjust="spacing" textLength="331" x="27" y="239.6211">boolean: validateCourseDescription(description)</text><ellipse cx="18" cy="252.3184" fill="#84BE84" rx="3" ry="3" style="stroke:#038048;stroke-width:1.0;"/><text fill="#000000" font-family="sans-serif" font-size="14" lengthAdjust="spacing" textLength="298" x="27" y="256.1094">boolean: validateMinStudents(minStudents)</text><ellipse cx="18" cy="268.8066" fill="#84BE84" rx="3" ry="3" style="stroke:#038048;stroke-width:1.0;"/><text fill="#000000" font-family="sans-serif" font-size="14" lengthAdjust="spacing" textLength="400" x="27" y="272.5977">boolean: validateMaxStudents(minStudents, maxStudents)</text></g><!--class CourseRepository--><g id="elem_CourseRepository"><rect codeLine="15" fill="#F1F1F1" height="73.1094" id="CourseRepository" rx="2.5" ry="2.5" style="stroke:#181818;stroke-width:0.5;" width="180" x="94" y="381.5"/><ellipse cx="120.7" cy="401.8105" fill="#ADD1B2" rx="11" ry="11" style="stroke:#181818;stroke-width:1.0;"/><path d="M123.6731,407.4536 Q123.0921,407.7524 122.4529,407.9019 Q121.8138,408.0513 121.1082,408.0513 Q118.6014,408.0513 117.2815,406.3994 Q115.9617,404.7476 115.9617,401.6265 Q115.9617,398.4971 117.2815,396.8452 Q118.6014,395.1934 121.1082,395.1934 Q121.8138,395.1934 122.4612,395.3428 Q123.1087,395.4922 123.6731,395.791 L123.6731,398.5137 Q123.0423,397.9326 122.4488,397.6628 Q121.8553,397.3931 121.2244,397.3931 Q119.8797,397.3931 119.1949,398.4597 Q118.5101,399.5264 118.5101,401.6265 Q118.5101,403.7183 119.1949,404.7849 Q119.8797,405.8516 121.2244,405.8516 Q121.8553,405.8516 122.4488,405.5818 Q123.0423,405.312 123.6731,404.731 Z " fill="#000000"/><text fill="#000000" font-family="sans-serif" font-size="12" font-style="italic" lengthAdjust="spacing" textLength="73" x="161.8" y="398.1016">&#171;Repository&#187;</text><text fill="#000000" font-family="sans-serif" font-size="14" lengthAdjust="spacing" textLength="122" x="137.3" y="414.168">CourseRepository</text><line style="stroke:#181818;stroke-width:0.5;" x1="95" x2="273" y1="422.1211" y2="422.1211"/><line style="stroke:#181818;stroke-width:0.5;" x1="95" x2="273" y1="430.1211" y2="430.1211"/><ellipse cx="105" cy="443.8652" fill="#84BE84" rx="3" ry="3" style="stroke:#038048;stroke-width:1.0;"/><text fill="#000000" font-family="sans-serif" font-size="14" lengthAdjust="spacing" textLength="154" x="114" y="447.6563">void: save(newCourse)</text></g><!--class CourseBuilder--><g id="elem_CourseBuilder"><rect codeLine="21" fill="#F1F1F1" height="155.5508" id="CourseBuilder" rx="2.5" ry="2.5" style="stroke:#181818;stroke-width:0.5;" width="276" x="309" y="340"/><ellipse cx="394.25" cy="360.3105" fill="#ADD1B2" rx="11" ry="11" style="stroke:#181818;stroke-width:1.0;"/><path d="M397.2231,365.9536 Q396.6421,366.2524 396.0029,366.4019 Q395.3638,366.5513 394.6582,366.5513 Q392.1514,366.5513 390.8315,364.8994 Q389.5117,363.2476 389.5117,360.1265 Q389.5117,356.9971 390.8315,355.3452 Q392.1514,353.6934 394.6582,353.6934 Q395.3638,353.6934 396.0112,353.8428 Q396.6587,353.9922 397.2231,354.291 L397.2231,357.0137 Q396.5923,356.4326 395.9988,356.1628 Q395.4053,355.8931 394.7744,355.8931 Q393.4297,355.8931 392.7449,356.9597 Q392.0601,358.0264 392.0601,360.1265 Q392.0601,362.2183 392.7449,363.2849 Q393.4297,364.3516 394.7744,364.3516 Q395.4053,364.3516 395.9988,364.0818 Q396.5923,363.812 397.2231,363.231 Z " fill="#000000"/><text fill="#000000" font-family="sans-serif" font-size="12" font-style="italic" lengthAdjust="spacing" textLength="53" x="436.75" y="356.6016">&#171;builder&#187;</text><text fill="#000000" font-family="sans-serif" font-size="14" lengthAdjust="spacing" textLength="97" x="414.75" y="372.668">CourseBuilder</text><line style="stroke:#181818;stroke-width:0.5;" x1="310" x2="584" y1="380.6211" y2="380.6211"/><line style="stroke:#181818;stroke-width:0.5;" x1="310" x2="584" y1="388.6211" y2="388.6211"/><ellipse cx="320" cy="402.3652" fill="#84BE84" rx="3" ry="3" style="stroke:#038048;stroke-width:1.0;"/><text fill="#000000" font-family="sans-serif" font-size="14" lengthAdjust="spacing" textLength="194" x="329" y="406.1563">void: withCode(courseCode)</text><ellipse cx="320" cy="418.8535" fill="#84BE84" rx="3" ry="3" style="stroke:#038048;stroke-width:1.0;"/><text fill="#000000" font-family="sans-serif" font-size="14" lengthAdjust="spacing" textLength="200" x="329" y="422.6445">void: withName(courseName)</text><ellipse cx="320" cy="435.3418" fill="#84BE84" rx="3" ry="3" style="stroke:#038048;stroke-width:1.0;"/><text fill="#000000" font-family="sans-serif" font-size="14" lengthAdjust="spacing" textLength="231" x="329" y="439.1328">void: withDescription(description)</text><ellipse cx="320" cy="451.8301" fill="#84BE84" rx="3" ry="3" style="stroke:#038048;stroke-width:1.0;"/><text fill="#000000" font-family="sans-serif" font-size="14" lengthAdjust="spacing" textLength="242" x="329" y="455.6211">void: hasMinStudents(minStudents)</text><ellipse cx="320" cy="468.3184" fill="#84BE84" rx="3" ry="3" style="stroke:#038048;stroke-width:1.0;"/><text fill="#000000" font-family="sans-serif" font-size="14" lengthAdjust="spacing" textLength="250" x="329" y="472.1094">void: hasMaxStudents(maxStudents)</text><ellipse cx="320" cy="484.8066" fill="#84BE84" rx="3" ry="3" style="stroke:#038048;stroke-width:1.0;"/><text fill="#000000" font-family="sans-serif" font-size="14" lengthAdjust="spacing" textLength="82" x="329" y="488.5977">void: build()</text></g><!--link CreateCourseUI to CreateCourseController--><g id="link_CreateCourseUI_CreateCourseController"><path codeLine="30" d="M315,64.41 C315,79.27 315,98.43 315,117.67 " fill="none" id="CreateCourseUI-to-CreateCourseController" style="stroke:#181818;stroke-width:1.0;stroke-dasharray:7.0,7.0;"/><polygon fill="#181818" points="315,122.64,319,113.64,315,117.64,311,113.64,315,122.64" style="stroke:#181818;stroke-width:1.0;"/></g><!--link CreateCourseController to CourseRepository--><g id="link_CreateCourseController_CourseRepository"><path codeLine="31" d="M267.71,280.26 C247.84,312.72 225.54,349.14 208.95,376.23 " fill="none" id="CreateCourseController-to-CourseRepository" style="stroke:#181818;stroke-width:1.0;stroke-dasharray:7.0,7.0;"/><polygon fill="#181818" points="205.93,380.18,214.04,374.5917,208.5401,375.9154,207.2165,370.4155,205.93,380.18" style="stroke:#181818;stroke-width:1.0;"/></g><!--link CreateCourseController to CourseBuilder--><g id="link_CreateCourseController_CourseBuilder"><path codeLine="32" d="M362.66,280.26 C373.59,297.99 385.26,316.9 396.31,334.83 " fill="none" id="CreateCourseController-to-CourseBuilder" style="stroke:#181818;stroke-width:1.0;stroke-dasharray:7.0,7.0;"/><polygon fill="#181818" points="399.41,338.85,398.0852,329.0907,396.7831,334.5956,391.2782,333.2936,399.41,338.85" style="stroke:#181818;stroke-width:1.0;"/></g><!--SRC=[XL91ZW8X4Bpp2euOZGymPWxENZpi7dRZ0n0waGHf0younkpV5s4Cw8J0gJkfQgggMsZk7EqjS0yz3jR1OK-tsyE-w-YT_14YPe0UZRUeDTW0p4qaqF2MT4GbDrGK72OcgeGLJVKNFuTQWXDMNRn2iw9dPNxy8C5u5nh- -smMqzmZeWPkDdJaMib2a2m_QA0V_x8ieO7-oFfOeRNA-imMM66dZiykMTr-iOYewXikw9H7UmihoCri1OwFm0nS4sln6FCwQ3SeBUCYZwcQZRWgVwe4d06LJ3EW4MC2dhXhn9TnPMppGqcuQ8b5rsy7lbvtbPCcbKkFZBViszWfNl8F]--></g></svg>