<?xml version="1.0" encoding="us-ascii" standalone="no"?><svg xmlns="http://www.w3.org/2000/svg" xmlns:xlink="http://www.w3.org/1999/xlink" contentStyleType="text/css" height="819.7px" preserveAspectRatio="none" style="width:886px;height:819px;background:#FFFFFF;" version="1.1" viewBox="0 0 886 819" width="886.9px" zoomAndPan="magnify"><defs/><g><!--class TakeExamUI--><g id="elem_TakeExamUI"><rect codeLine="2" fill="#F1F1F1" height="42.4074" id="TakeExamUI" rx="1.75" ry="1.75" style="stroke:#181818;stroke-width:0.3499999999999999;" width="77" x="309.4" y="4.9"/><ellipse cx="319.9" cy="20.5037" fill="#ADD1B2" rx="7.7" ry="7.7" style="stroke:#181818;stroke-width:0.6999999999999998;"/><path d="M321.8359,17.6162 Q321.9453,17.4631 322.0766,17.3865 Q322.2078,17.31 322.3609,17.31 Q322.6234,17.31 322.7875,17.4959 Q322.9516,17.6709 322.9516,18.0975 L322.9516,19.1146 Q322.9516,19.5412 322.7875,19.7271 Q322.6234,19.9131 322.3609,19.9131 Q322.1203,19.9131 321.9781,19.7709 Q321.8359,19.6396 321.7594,19.2787 Q321.7266,19.0271 321.5953,18.8959 Q321.3656,18.6334 320.9391,18.4803 Q320.5125,18.3271 320.075,18.3271 Q319.5391,18.3271 319.0906,18.5568 Q318.6531,18.7865 318.3031,19.3115 Q317.9641,19.8365 317.9641,20.5584 L317.9641,21.324 Q317.9641,22.1881 318.5875,22.7678 Q319.2109,23.3365 320.3266,23.3365 Q320.9828,23.3365 321.4422,23.1615 Q321.7156,23.0521 322.0109,22.7459 Q322.1969,22.56 322.2953,22.5053 Q322.4047,22.4506 322.5469,22.4506 Q322.7766,22.4506 322.9516,22.6365 Q323.1375,22.8115 323.1375,23.0521 Q323.1375,23.2928 322.8969,23.5771 Q322.5469,23.9818 321.9891,24.2115 Q321.2344,24.5287 320.3266,24.5287 Q319.2656,24.5287 318.4234,24.0912 Q317.7344,23.7412 317.2531,22.9975 Q316.7719,22.2428 316.7719,21.3459 L316.7719,20.5365 Q316.7719,19.6068 317.1984,18.8084 Q317.6359,17.999 318.4016,17.5725 Q319.1672,17.135 320.0312,17.135 Q320.5453,17.135 320.9937,17.2553 Q321.4531,17.3646 321.8359,17.6162 Z " fill="#000000"/><text fill="#000000" font-family="sans-serif" font-size="8.4" font-style="italic" lengthAdjust="spacing" textLength="18.9" x="347.55" y="17.4645">&#171;UI&#187;</text><text fill="#000000" font-family="sans-serif" font-size="9.8" lengthAdjust="spacing" textLength="54.6" x="329.7" y="30.1479">TakeExamUI</text><line style="stroke:#181818;stroke-width:0.3499999999999999;" x1="310.1" x2="385.7" y1="36.1074" y2="36.1074"/><line style="stroke:#181818;stroke-width:0.3499999999999999;" x1="310.1" x2="385.7" y1="41.7074" y2="41.7074"/></g><!--class TakeExamController--><g id="elem_TakeExamController"><rect codeLine="5" fill="#F1F1F1" height="81.5117" id="TakeExamController" rx="1.75" ry="1.75" style="stroke:#181818;stroke-width:0.3499999999999999;" width="273.7" x="129.85" y="305.9"/><ellipse cx="218.925" cy="321.5037" fill="#ADD1B2" rx="7.7" ry="7.7" style="stroke:#181818;stroke-width:0.6999999999999998;"/><path d="M220.8609,318.6162 Q220.9703,318.4631 221.1016,318.3865 Q221.2328,318.31 221.3859,318.31 Q221.6484,318.31 221.8125,318.4959 Q221.9766,318.6709 221.9766,319.0975 L221.9766,320.1146 Q221.9766,320.5412 221.8125,320.7271 Q221.6484,320.9131 221.3859,320.9131 Q221.1453,320.9131 221.0031,320.7709 Q220.8609,320.6396 220.7844,320.2787 Q220.7516,320.0271 220.6203,319.8959 Q220.3906,319.6334 219.9641,319.4803 Q219.5375,319.3271 219.1,319.3271 Q218.5641,319.3271 218.1156,319.5568 Q217.6781,319.7865 217.3281,320.3115 Q216.9891,320.8365 216.9891,321.5584 L216.9891,322.324 Q216.9891,323.1881 217.6125,323.7678 Q218.2359,324.3365 219.3516,324.3365 Q220.0078,324.3365 220.4672,324.1615 Q220.7406,324.0521 221.0359,323.7459 Q221.2219,323.56 221.3203,323.5053 Q221.4297,323.4506 221.5719,323.4506 Q221.8016,323.4506 221.9766,323.6365 Q222.1625,323.8115 222.1625,324.0521 Q222.1625,324.2928 221.9219,324.5771 Q221.5719,324.9818 221.0141,325.2115 Q220.2594,325.5287 219.3516,325.5287 Q218.2906,325.5287 217.4484,325.0912 Q216.7594,324.7412 216.2781,323.9975 Q215.7969,323.2428 215.7969,322.3459 L215.7969,321.5365 Q215.7969,320.6068 216.2234,319.8084 Q216.6609,318.999 217.4266,318.5725 Q218.1922,318.135 219.0562,318.135 Q219.5703,318.135 220.0187,318.2553 Q220.4781,318.3646 220.8609,318.6162 Z " fill="#000000"/><text fill="#000000" font-family="sans-serif" font-size="8.4" font-style="italic" lengthAdjust="spacing" textLength="47.6" x="254.275" y="318.4645">&#171;Controller&#187;</text><text fill="#000000" font-family="sans-serif" font-size="9.8" lengthAdjust="spacing" textLength="89.6" x="233.275" y="331.1479">TakeExamController</text><line style="stroke:#181818;stroke-width:0.3499999999999999;" x1="130.55" x2="402.85" y1="337.1074" y2="337.1074"/><line style="stroke:#181818;stroke-width:0.3499999999999999;" x1="130.55" x2="402.85" y1="342.7074" y2="342.7074"/><ellipse cx="137.55" cy="353.0748" fill="#84BE84" rx="2.1" ry="2.1" style="stroke:#038048;stroke-width:0.6999999999999998;"/><text fill="#000000" font-family="sans-serif" font-size="9.8" lengthAdjust="spacing" textLength="254.8" x="143.85" y="356.0826">Iterable &lt;Exam&gt; : findExamsAvailableForStudentToTake()</text><ellipse cx="137.55" cy="366.1096" fill="#84BE84" rx="2.1" ry="2.1" style="stroke:#038048;stroke-width:0.6999999999999998;"/><text fill="#000000" font-family="sans-serif" font-size="9.8" lengthAdjust="spacing" textLength="255.5" x="143.85" y="369.1174">Iterable &lt;Exam&gt; : saveStudentGradeInExam(exam, grade)</text><ellipse cx="137.55" cy="379.1443" fill="#84BE84" rx="2.1" ry="2.1" style="stroke:#038048;stroke-width:0.6999999999999998;"/><text fill="#000000" font-family="sans-serif" font-size="9.8" lengthAdjust="spacing" textLength="233.8" x="143.85" y="382.1521">Iterable &lt;Exam&gt; : findExamsWithExamsIds(examsIDs)</text></g><!--class CommonTakeExamUI--><g id="elem_CommonTakeExamUI"><rect codeLine="11" fill="#F1F1F1" height="172.7551" id="CommonTakeExamUI" rx="1.75" ry="1.75" style="stroke:#181818;stroke-width:0.3499999999999999;" width="194.6" x="438.2" y="90.3"/><ellipse cx="485.625" cy="105.9037" fill="#ADD1B2" rx="7.7" ry="7.7" style="stroke:#181818;stroke-width:0.6999999999999998;"/><path d="M487.5609,103.0162 Q487.6703,102.8631 487.8016,102.7865 Q487.9328,102.71 488.0859,102.71 Q488.3484,102.71 488.5125,102.8959 Q488.6766,103.0709 488.6766,103.4975 L488.6766,104.5146 Q488.6766,104.9412 488.5125,105.1271 Q488.3484,105.3131 488.0859,105.3131 Q487.8453,105.3131 487.7031,105.1709 Q487.5609,105.0396 487.4844,104.6787 Q487.4516,104.4271 487.3203,104.2959 Q487.0906,104.0334 486.6641,103.8803 Q486.2375,103.7271 485.8,103.7271 Q485.2641,103.7271 484.8156,103.9568 Q484.3781,104.1865 484.0281,104.7115 Q483.6891,105.2365 483.6891,105.9584 L483.6891,106.724 Q483.6891,107.5881 484.3125,108.1678 Q484.9359,108.7365 486.0516,108.7365 Q486.7078,108.7365 487.1672,108.5615 Q487.4406,108.4521 487.7359,108.1459 Q487.9219,107.96 488.0203,107.9053 Q488.1297,107.8506 488.2719,107.8506 Q488.5016,107.8506 488.6766,108.0365 Q488.8625,108.2115 488.8625,108.4521 Q488.8625,108.6928 488.6219,108.9771 Q488.2719,109.3818 487.7141,109.6115 Q486.9594,109.9287 486.0516,109.9287 Q484.9906,109.9287 484.1484,109.4912 Q483.4594,109.1412 482.9781,108.3975 Q482.4969,107.6428 482.4969,106.7459 L482.4969,105.9365 Q482.4969,105.0068 482.9234,104.2084 Q483.3609,103.399 484.1266,102.9725 Q484.8922,102.535 485.7562,102.535 Q486.2703,102.535 486.7187,102.6553 Q487.1781,102.7646 487.5609,103.0162 Z " fill="#000000"/><text fill="#000000" font-family="sans-serif" font-size="8.4" font-style="italic" lengthAdjust="spacing" textLength="18.9" x="537.425" y="102.8645">&#171;UI&#187;</text><text fill="#000000" font-family="sans-serif" font-size="9.8" lengthAdjust="spacing" textLength="93.8" x="499.975" y="115.5479">CommonTakeExamUI</text><line style="stroke:#181818;stroke-width:0.3499999999999999;" x1="438.9" x2="632.1" y1="121.5074" y2="121.5074"/><line style="stroke:#181818;stroke-width:0.3499999999999999;" x1="438.9" x2="632.1" y1="127.1074" y2="127.1074"/><ellipse cx="445.9" cy="137.4748" fill="#84BE84" rx="2.1" ry="2.1" style="stroke:#038048;stroke-width:0.6999999999999998;"/><text fill="#000000" font-family="sans-serif" font-size="9.8" lengthAdjust="spacing" textLength="109.2" x="452.2" y="140.4826">Grade : takeExam(exam)</text><ellipse cx="445.9" cy="150.5096" fill="#84BE84" rx="2.1" ry="2.1" style="stroke:#038048;stroke-width:0.6999999999999998;"/><text fill="#000000" font-family="sans-serif" font-size="9.8" lengthAdjust="spacing" textLength="141.4" x="452.2" y="153.5174">Grade : takeManualExam(exam)</text><ellipse cx="445.9" cy="163.5443" fill="#84BE84" rx="2.1" ry="2.1" style="stroke:#038048;stroke-width:0.6999999999999998;"/><text fill="#000000" font-family="sans-serif" font-size="9.8" lengthAdjust="spacing" textLength="136.5" x="452.2" y="166.5521">Grade : takeExamByFile(exam)</text><ellipse cx="445.9" cy="176.5791" fill="#84BE84" rx="2.1" ry="2.1" style="stroke:#038048;stroke-width:0.6999999999999998;"/><text fill="#000000" font-family="sans-serif" font-size="9.8" lengthAdjust="spacing" textLength="176.4" x="452.2" y="179.5869">String : askForStudentAnswer(question)</text><ellipse cx="445.9" cy="189.6139" fill="#84BE84" rx="2.1" ry="2.1" style="stroke:#038048;stroke-width:0.6999999999999998;"/><text fill="#000000" font-family="sans-serif" font-size="9.8" lengthAdjust="spacing" textLength="147" x="452.2" y="192.6217">String : askfForMatchingAnswer()</text><ellipse cx="445.9" cy="202.6486" fill="#84BE84" rx="2.1" ry="2.1" style="stroke:#038048;stroke-width:0.6999999999999998;"/><text fill="#000000" font-family="sans-serif" font-size="9.8" lengthAdjust="spacing" textLength="163.8" x="452.2" y="205.6564">String : askfForMissingWordAnswer()</text><ellipse cx="445.9" cy="215.6834" fill="#84BE84" rx="2.1" ry="2.1" style="stroke:#038048;stroke-width:0.6999999999999998;"/><text fill="#000000" font-family="sans-serif" font-size="9.8" lengthAdjust="spacing" textLength="171.5" x="452.2" y="218.6912">String : askfForMultipleChoiceAnswer()</text><ellipse cx="445.9" cy="228.7182" fill="#84BE84" rx="2.1" ry="2.1" style="stroke:#038048;stroke-width:0.6999999999999998;"/><text fill="#000000" font-family="sans-serif" font-size="9.8" lengthAdjust="spacing" textLength="130.9" x="452.2" y="231.726">String : askfForShortAnswer()</text><ellipse cx="445.9" cy="241.7529" fill="#84BE84" rx="2.1" ry="2.1" style="stroke:#038048;stroke-width:0.6999999999999998;"/><text fill="#000000" font-family="sans-serif" font-size="9.8" lengthAdjust="spacing" textLength="142.8" x="452.2" y="244.7607">String : askfForNumericAnswer()</text><ellipse cx="445.9" cy="254.7877" fill="#84BE84" rx="2.1" ry="2.1" style="stroke:#038048;stroke-width:0.6999999999999998;"/><text fill="#000000" font-family="sans-serif" font-size="9.8" lengthAdjust="spacing" textLength="163.8" x="452.2" y="257.7955">String : askfForTrueOrFalseAnswer()</text></g><!--class CommonTakeExamController--><g id="elem_CommonTakeExamController"><rect codeLine="24" fill="#F1F1F1" height="81.5117" id="CommonTakeExamController" rx="1.75" ry="1.75" style="stroke:#181818;stroke-width:0.3499999999999999;" width="214.9" x="428.05" y="305.9"/><ellipse cx="468.125" cy="321.5037" fill="#ADD1B2" rx="7.7" ry="7.7" style="stroke:#181818;stroke-width:0.6999999999999998;"/><path d="M470.0609,318.6162 Q470.1703,318.4631 470.3016,318.3865 Q470.4328,318.31 470.5859,318.31 Q470.8484,318.31 471.0125,318.4959 Q471.1766,318.6709 471.1766,319.0975 L471.1766,320.1146 Q471.1766,320.5412 471.0125,320.7271 Q470.8484,320.9131 470.5859,320.9131 Q470.3453,320.9131 470.2031,320.7709 Q470.0609,320.6396 469.9844,320.2787 Q469.9516,320.0271 469.8203,319.8959 Q469.5906,319.6334 469.1641,319.4803 Q468.7375,319.3271 468.3,319.3271 Q467.7641,319.3271 467.3156,319.5568 Q466.8781,319.7865 466.5281,320.3115 Q466.1891,320.8365 466.1891,321.5584 L466.1891,322.324 Q466.1891,323.1881 466.8125,323.7678 Q467.4359,324.3365 468.5516,324.3365 Q469.2078,324.3365 469.6672,324.1615 Q469.9406,324.0521 470.2359,323.7459 Q470.4219,323.56 470.5203,323.5053 Q470.6297,323.4506 470.7719,323.4506 Q471.0016,323.4506 471.1766,323.6365 Q471.3625,323.8115 471.3625,324.0521 Q471.3625,324.2928 471.1219,324.5771 Q470.7719,324.9818 470.2141,325.2115 Q469.4594,325.5287 468.5516,325.5287 Q467.4906,325.5287 466.6484,325.0912 Q465.9594,324.7412 465.4781,323.9975 Q464.9969,323.2428 464.9969,322.3459 L464.9969,321.5365 Q464.9969,320.6068 465.4234,319.8084 Q465.8609,318.999 466.6266,318.5725 Q467.3922,318.135 468.2562,318.135 Q468.7703,318.135 469.2187,318.2553 Q469.6781,318.3646 470.0609,318.6162 Z " fill="#000000"/><text fill="#000000" font-family="sans-serif" font-size="8.4" font-style="italic" lengthAdjust="spacing" textLength="47.6" x="523.075" y="318.4645">&#171;Controller&#187;</text><text fill="#000000" font-family="sans-serif" font-size="9.8" lengthAdjust="spacing" textLength="128.8" x="482.475" y="331.1479">CommonTakeExamController</text><line style="stroke:#181818;stroke-width:0.3499999999999999;" x1="428.75" x2="642.25" y1="337.1074" y2="337.1074"/><line style="stroke:#181818;stroke-width:0.3499999999999999;" x1="428.75" x2="642.25" y1="342.7074" y2="342.7074"/><ellipse cx="435.75" cy="353.0748" fill="#84BE84" rx="2.1" ry="2.1" style="stroke:#038048;stroke-width:0.6999999999999998;"/><text fill="#000000" font-family="sans-serif" font-size="9.8" lengthAdjust="spacing" textLength="94.5" x="442.05" y="356.0826">File : importFile(path)</text><ellipse cx="435.75" cy="366.1096" fill="#84BE84" rx="2.1" ry="2.1" style="stroke:#038048;stroke-width:0.6999999999999998;"/><text fill="#000000" font-family="sans-serif" font-size="9.8" lengthAdjust="spacing" textLength="196.7" x="442.05" y="369.1174">boolean : correctQuestion(question, answer)</text><ellipse cx="435.75" cy="379.1443" fill="#84BE84" rx="2.1" ry="2.1" style="stroke:#038048;stroke-width:0.6999999999999998;"/><text fill="#000000" font-family="sans-serif" font-size="9.8" lengthAdjust="spacing" textLength="166.6" x="442.05" y="382.1521">Grade : correctExamByFile(exam, file)</text></g><!--class CommonTakeExamService--><g id="elem_CommonTakeExamService"><rect codeLine="30" fill="#F1F1F1" height="81.5117" id="CommonTakeExamService" rx="1.75" ry="1.75" style="stroke:#181818;stroke-width:0.3499999999999999;" width="214.9" x="667.45" y="305.9"/><ellipse cx="712.775" cy="321.5037" fill="#ADD1B2" rx="7.7" ry="7.7" style="stroke:#181818;stroke-width:0.6999999999999998;"/><path d="M714.7109,318.6162 Q714.8203,318.4631 714.9516,318.3865 Q715.0828,318.31 715.2359,318.31 Q715.4984,318.31 715.6625,318.4959 Q715.8266,318.6709 715.8266,319.0975 L715.8266,320.1146 Q715.8266,320.5412 715.6625,320.7271 Q715.4984,320.9131 715.2359,320.9131 Q714.9953,320.9131 714.8531,320.7709 Q714.7109,320.6396 714.6344,320.2787 Q714.6016,320.0271 714.4703,319.8959 Q714.2406,319.6334 713.8141,319.4803 Q713.3875,319.3271 712.95,319.3271 Q712.4141,319.3271 711.9656,319.5568 Q711.5281,319.7865 711.1781,320.3115 Q710.8391,320.8365 710.8391,321.5584 L710.8391,322.324 Q710.8391,323.1881 711.4625,323.7678 Q712.0859,324.3365 713.2016,324.3365 Q713.8578,324.3365 714.3172,324.1615 Q714.5906,324.0521 714.8859,323.7459 Q715.0719,323.56 715.1703,323.5053 Q715.2797,323.4506 715.4219,323.4506 Q715.6516,323.4506 715.8266,323.6365 Q716.0125,323.8115 716.0125,324.0521 Q716.0125,324.2928 715.7719,324.5771 Q715.4219,324.9818 714.8641,325.2115 Q714.1094,325.5287 713.2016,325.5287 Q712.1406,325.5287 711.2984,325.0912 Q710.6094,324.7412 710.1281,323.9975 Q709.6469,323.2428 709.6469,322.3459 L709.6469,321.5365 Q709.6469,320.6068 710.0734,319.8084 Q710.5109,318.999 711.2766,318.5725 Q712.0422,318.135 712.9062,318.135 Q713.4203,318.135 713.8687,318.2553 Q714.3281,318.3646 714.7109,318.6162 Z " fill="#000000"/><text fill="#000000" font-family="sans-serif" font-size="8.4" font-style="italic" lengthAdjust="spacing" textLength="38.5" x="767.025" y="318.4645">&#171;Service&#187;</text><text fill="#000000" font-family="sans-serif" font-size="9.8" lengthAdjust="spacing" textLength="118.3" x="727.125" y="331.1479">CommonTakeExamService</text><line style="stroke:#181818;stroke-width:0.3499999999999999;" x1="668.15" x2="881.65" y1="337.1074" y2="337.1074"/><line style="stroke:#181818;stroke-width:0.3499999999999999;" x1="668.15" x2="881.65" y1="342.7074" y2="342.7074"/><ellipse cx="675.15" cy="353.0748" fill="#84BE84" rx="2.1" ry="2.1" style="stroke:#038048;stroke-width:0.6999999999999998;"/><text fill="#000000" font-family="sans-serif" font-size="9.8" lengthAdjust="spacing" textLength="94.5" x="681.45" y="356.0826">File : importFile(path)</text><ellipse cx="675.15" cy="366.1096" fill="#84BE84" rx="2.1" ry="2.1" style="stroke:#038048;stroke-width:0.6999999999999998;"/><text fill="#000000" font-family="sans-serif" font-size="9.8" lengthAdjust="spacing" textLength="196.7" x="681.45" y="369.1174">boolean : correctQuestion(question, answer)</text><ellipse cx="675.15" cy="379.1443" fill="#84BE84" rx="2.1" ry="2.1" style="stroke:#038048;stroke-width:0.6999999999999998;"/><text fill="#000000" font-family="sans-serif" font-size="9.8" lengthAdjust="spacing" textLength="166.6" x="681.45" y="382.1521">Grade : correctExamByFile(exam, file)</text></g><!--class TakeExamEvalVisitor--><g id="elem_TakeExamEvalVisitor"><rect codeLine="36" fill="#F1F1F1" height="55.4422" id="TakeExamEvalVisitor" rx="1.75" ry="1.75" style="stroke:#181818;stroke-width:0.3499999999999999;" width="162.4" x="673.4" y="431.9"/><ellipse cx="705.425" cy="447.5037" fill="#ADD1B2" rx="7.7" ry="7.7" style="stroke:#181818;stroke-width:0.6999999999999998;"/><path d="M707.3609,444.6162 Q707.4703,444.4631 707.6016,444.3865 Q707.7328,444.31 707.8859,444.31 Q708.1484,444.31 708.3125,444.4959 Q708.4766,444.6709 708.4766,445.0975 L708.4766,446.1146 Q708.4766,446.5412 708.3125,446.7271 Q708.1484,446.9131 707.8859,446.9131 Q707.6453,446.9131 707.5031,446.7709 Q707.3609,446.6396 707.2844,446.2787 Q707.2516,446.0271 707.1203,445.8959 Q706.8906,445.6334 706.4641,445.4803 Q706.0375,445.3271 705.6,445.3271 Q705.0641,445.3271 704.6156,445.5568 Q704.1781,445.7865 703.8281,446.3115 Q703.4891,446.8365 703.4891,447.5584 L703.4891,448.324 Q703.4891,449.1881 704.1125,449.7678 Q704.7359,450.3365 705.8516,450.3365 Q706.5078,450.3365 706.9672,450.1615 Q707.2406,450.0521 707.5359,449.7459 Q707.7219,449.56 707.8203,449.5053 Q707.9297,449.4506 708.0719,449.4506 Q708.3016,449.4506 708.4766,449.6365 Q708.6625,449.8115 708.6625,450.0521 Q708.6625,450.2928 708.4219,450.5771 Q708.0719,450.9818 707.5141,451.2115 Q706.7594,451.5287 705.8516,451.5287 Q704.7906,451.5287 703.9484,451.0912 Q703.2594,450.7412 702.7781,449.9975 Q702.2969,449.2428 702.2969,448.3459 L702.2969,447.5365 Q702.2969,446.6068 702.7234,445.8084 Q703.1609,444.999 703.9266,444.5725 Q704.6922,444.135 705.5562,444.135 Q706.0703,444.135 706.5187,444.2553 Q706.9781,444.3646 707.3609,444.6162 Z " fill="#000000"/><text fill="#000000" font-family="sans-serif" font-size="8.4" font-style="italic" lengthAdjust="spacing" textLength="33.6" x="749.175" y="444.4645">&#171;Visitor&#187;</text><text fill="#000000" font-family="sans-serif" font-size="9.8" lengthAdjust="spacing" textLength="92.4" x="719.775" y="457.1479">TakeExamEvalVisitor</text><line style="stroke:#181818;stroke-width:0.3499999999999999;" x1="674.1" x2="835.1" y1="463.1074" y2="463.1074"/><line style="stroke:#181818;stroke-width:0.3499999999999999;" x1="674.1" x2="835.1" y1="468.7074" y2="468.7074"/><ellipse cx="681.1" cy="479.0748" fill="#84BE84" rx="2.1" ry="2.1" style="stroke:#038048;stroke-width:0.6999999999999998;"/><text fill="#000000" font-family="sans-serif" font-size="9.8" lengthAdjust="spacing" textLength="144.2" x="687.4" y="482.0826">Grade : correctExam(tree, exam)</text></g><!--class Exam--><g id="elem_Exam"><rect codeLine="40" fill="#F1F1F1" height="159.7203" id="Exam" rx="1.75" ry="1.75" style="stroke:#181818;stroke-width:0.3499999999999999;" width="130.2" x="561.4" y="544.6"/><ellipse cx="604.625" cy="560.2037" fill="#ADD1B2" rx="7.7" ry="7.7" style="stroke:#181818;stroke-width:0.6999999999999998;"/><path d="M606.5609,557.3162 Q606.6703,557.1631 606.8016,557.0865 Q606.9328,557.01 607.0859,557.01 Q607.3484,557.01 607.5125,557.1959 Q607.6766,557.3709 607.6766,557.7975 L607.6766,558.8146 Q607.6766,559.2412 607.5125,559.4271 Q607.3484,559.6131 607.0859,559.6131 Q606.8453,559.6131 606.7031,559.4709 Q606.5609,559.3396 606.4844,558.9787 Q606.4516,558.7271 606.3203,558.5959 Q606.0906,558.3334 605.6641,558.1803 Q605.2375,558.0271 604.8,558.0271 Q604.2641,558.0271 603.8156,558.2568 Q603.3781,558.4865 603.0281,559.0115 Q602.6891,559.5365 602.6891,560.2584 L602.6891,561.024 Q602.6891,561.8881 603.3125,562.4678 Q603.9359,563.0365 605.0516,563.0365 Q605.7078,563.0365 606.1672,562.8615 Q606.4406,562.7521 606.7359,562.4459 Q606.9219,562.26 607.0203,562.2053 Q607.1297,562.1506 607.2719,562.1506 Q607.5016,562.1506 607.6766,562.3365 Q607.8625,562.5115 607.8625,562.7521 Q607.8625,562.9928 607.6219,563.2771 Q607.2719,563.6818 606.7141,563.9115 Q605.9594,564.2287 605.0516,564.2287 Q603.9906,564.2287 603.1484,563.7912 Q602.4594,563.4412 601.9781,562.6975 Q601.4969,561.9428 601.4969,561.0459 L601.4969,560.2365 Q601.4969,559.3068 601.9234,558.5084 Q602.3609,557.699 603.1266,557.2725 Q603.8922,556.835 604.7562,556.835 Q605.2703,556.835 605.7187,556.9553 Q606.1781,557.0646 606.5609,557.3162 Z " fill="#000000"/><text fill="#000000" font-family="sans-serif" font-size="8.4" font-style="italic" lengthAdjust="spacing" textLength="40.6" x="617.575" y="557.1645">&#171;Domain&#187;</text><text fill="#000000" font-family="sans-serif" font-size="9.8" lengthAdjust="spacing" textLength="23.8" x="625.975" y="569.8479">Exam</text><line style="stroke:#181818;stroke-width:0.3499999999999999;" x1="562.1" x2="690.9" y1="575.8074" y2="575.8074"/><rect fill="none" height="4.2" style="stroke:#C82930;stroke-width:0.6999999999999998;" width="4.2" x="567" y="584.0748"/><text fill="#000000" font-family="sans-serif" font-size="9.8" lengthAdjust="spacing" textLength="63" x="575.4" y="589.1826">Long : examID</text><rect fill="none" height="4.2" style="stroke:#C82930;stroke-width:0.6999999999999998;" width="4.2" x="567" y="597.1096"/><text fill="#000000" font-family="sans-serif" font-size="9.8" lengthAdjust="spacing" textLength="70.7" x="575.4" y="602.2174">Course : course</text><rect fill="none" height="4.2" style="stroke:#C82930;stroke-width:0.6999999999999998;" width="4.2" x="567" y="610.1443"/><text fill="#000000" font-family="sans-serif" font-size="9.8" lengthAdjust="spacing" textLength="82.6" x="575.4" y="615.2521">String : description</text><rect fill="none" height="4.2" style="stroke:#C82930;stroke-width:0.6999999999999998;" width="4.2" x="567" y="623.1791"/><text fill="#000000" font-family="sans-serif" font-size="9.8" lengthAdjust="spacing" textLength="72.8" x="575.4" y="628.2869">Date : openDate</text><rect fill="none" height="4.2" style="stroke:#C82930;stroke-width:0.6999999999999998;" width="4.2" x="567" y="636.2139"/><text fill="#000000" font-family="sans-serif" font-size="9.8" lengthAdjust="spacing" textLength="73.5" x="575.4" y="641.3217">Date : closeDate</text><rect fill="none" height="4.2" style="stroke:#C82930;stroke-width:0.6999999999999998;" width="4.2" x="567" y="649.2486"/><text fill="#000000" font-family="sans-serif" font-size="9.8" lengthAdjust="spacing" textLength="94.5" x="575.4" y="654.3564">Language : language</text><rect fill="none" height="4.2" style="stroke:#C82930;stroke-width:0.6999999999999998;" width="4.2" x="567" y="662.2834"/><text fill="#000000" font-family="sans-serif" font-size="9.8" lengthAdjust="spacing" textLength="72.1" x="575.4" y="667.3912">Header : header</text><rect fill="none" height="4.2" style="stroke:#C82930;stroke-width:0.6999999999999998;" width="4.2" x="567" y="675.3182"/><text fill="#000000" font-family="sans-serif" font-size="9.8" lengthAdjust="spacing" textLength="88.2" x="575.4" y="680.426">Structure : structure</text><rect fill="none" height="4.2" style="stroke:#C82930;stroke-width:0.6999999999999998;" width="4.2" x="567" y="688.3529"/><text fill="#000000" font-family="sans-serif" font-size="9.8" lengthAdjust="spacing" textLength="112" x="575.4" y="693.4607">ExamStatus : ExamStatus</text><line style="stroke:#181818;stroke-width:0.3499999999999999;" x1="562.1" x2="690.9" y1="698.7203" y2="698.7203"/></g><!--class ExamEnrollment--><g id="elem_ExamEnrollment"><rect codeLine="52" fill="#F1F1F1" height="120.616" id="ExamEnrollment" rx="1.75" ry="1.75" style="stroke:#181818;stroke-width:0.3499999999999999;" width="229.6" x="4.9" y="564.2"/><ellipse cx="81.375" cy="579.8037" fill="#ADD1B2" rx="7.7" ry="7.7" style="stroke:#181818;stroke-width:0.6999999999999998;"/><path d="M83.3109,576.9162 Q83.4203,576.7631 83.5516,576.6865 Q83.6828,576.61 83.8359,576.61 Q84.0984,576.61 84.2625,576.7959 Q84.4266,576.9709 84.4266,577.3975 L84.4266,578.4146 Q84.4266,578.8412 84.2625,579.0271 Q84.0984,579.2131 83.8359,579.2131 Q83.5953,579.2131 83.4531,579.0709 Q83.3109,578.9396 83.2344,578.5787 Q83.2016,578.3271 83.0703,578.1959 Q82.8406,577.9334 82.4141,577.7803 Q81.9875,577.6271 81.55,577.6271 Q81.0141,577.6271 80.5656,577.8568 Q80.1281,578.0865 79.7781,578.6115 Q79.4391,579.1365 79.4391,579.8584 L79.4391,580.624 Q79.4391,581.4881 80.0625,582.0678 Q80.6859,582.6365 81.8016,582.6365 Q82.4578,582.6365 82.9172,582.4615 Q83.1906,582.3521 83.4859,582.0459 Q83.6719,581.86 83.7703,581.8053 Q83.8797,581.7506 84.0219,581.7506 Q84.2516,581.7506 84.4266,581.9365 Q84.6125,582.1115 84.6125,582.3521 Q84.6125,582.5928 84.3719,582.8771 Q84.0219,583.2818 83.4641,583.5115 Q82.7094,583.8287 81.8016,583.8287 Q80.7406,583.8287 79.8984,583.3912 Q79.2094,583.0412 78.7281,582.2975 Q78.2469,581.5428 78.2469,580.6459 L78.2469,579.8365 Q78.2469,578.9068 78.6734,578.1084 Q79.1109,577.299 79.8766,576.8725 Q80.6422,576.435 81.5062,576.435 Q82.0203,576.435 82.4687,576.5553 Q82.9281,576.6646 83.3109,576.9162 Z " fill="#000000"/><text fill="#000000" font-family="sans-serif" font-size="8.4" font-style="italic" lengthAdjust="spacing" textLength="40.6" x="110.775" y="576.7645">&#171;Domain&#187;</text><text fill="#000000" font-family="sans-serif" font-size="9.8" lengthAdjust="spacing" textLength="70.7" x="95.725" y="589.4479">ExamEnrollment</text><line style="stroke:#181818;stroke-width:0.3499999999999999;" x1="5.6" x2="233.8" y1="595.4074" y2="595.4074"/><rect fill="none" height="4.2" style="stroke:#C82930;stroke-width:0.6999999999999998;" width="4.2" x="10.5" y="603.6748"/><text fill="#000000" font-family="sans-serif" font-size="9.8" lengthAdjust="spacing" textLength="109.9" x="18.9" y="608.7826">Long : examEnrollmentID</text><rect fill="none" height="4.2" style="stroke:#C82930;stroke-width:0.6999999999999998;" width="4.2" x="10.5" y="616.7096"/><text fill="#000000" font-family="sans-serif" font-size="9.8" lengthAdjust="spacing" textLength="101.5" x="18.9" y="621.8174">Enrollment : enrollment</text><rect fill="none" height="4.2" style="stroke:#C82930;stroke-width:0.6999999999999998;" width="4.2" x="10.5" y="629.7443"/><text fill="#000000" font-family="sans-serif" font-size="9.8" lengthAdjust="spacing" textLength="87.5" x="18.9" y="634.8521">Grade : examGrade</text><rect fill="none" height="4.2" style="stroke:#C82930;stroke-width:0.6999999999999998;" width="4.2" x="10.5" y="642.7791"/><text fill="#000000" font-family="sans-serif" font-size="9.8" lengthAdjust="spacing" textLength="205.1" x="18.9" y="647.8869">ExamEnrollmentStatus : examEnrollmentStatus</text><line style="stroke:#181818;stroke-width:0.3499999999999999;" x1="5.6" x2="233.8" y1="653.1465" y2="653.1465"/><ellipse cx="12.6" cy="663.5139" fill="#84BE84" rx="2.1" ry="2.1" style="stroke:#038048;stroke-width:0.6999999999999998;"/><text fill="#000000" font-family="sans-serif" font-size="9.8" lengthAdjust="spacing" textLength="144.2" x="18.9" y="666.5217">void : changeExamGrade(grade)</text><ellipse cx="12.6" cy="676.5486" fill="#84BE84" rx="2.1" ry="2.1" style="stroke:#038048;stroke-width:0.6999999999999998;"/><text fill="#000000" font-family="sans-serif" font-size="9.8" lengthAdjust="spacing" textLength="211.4" x="18.9" y="679.5564">void : changeExamEnrollmentStatusToPresent()</text></g><!--class Grade--><g id="elem_Grade"><rect codeLine="61" fill="#F1F1F1" height="55.4422" id="Grade" rx="1.75" ry="1.75" style="stroke:#181818;stroke-width:0.3499999999999999;" width="74.9" x="650.65" y="759.5"/><ellipse cx="670.915" cy="775.1037" fill="#ADD1B2" rx="7.7" ry="7.7" style="stroke:#181818;stroke-width:0.6999999999999998;"/><path d="M672.8509,772.2162 Q672.9603,772.0631 673.0916,771.9865 Q673.2228,771.91 673.3759,771.91 Q673.6384,771.91 673.8025,772.0959 Q673.9666,772.2709 673.9666,772.6975 L673.9666,773.7146 Q673.9666,774.1412 673.8025,774.3271 Q673.6384,774.5131 673.3759,774.5131 Q673.1353,774.5131 672.9931,774.3709 Q672.8509,774.2396 672.7744,773.8787 Q672.7416,773.6271 672.6103,773.4959 Q672.3806,773.2334 671.9541,773.0803 Q671.5275,772.9271 671.09,772.9271 Q670.5541,772.9271 670.1056,773.1568 Q669.6681,773.3865 669.3181,773.9115 Q668.9791,774.4365 668.9791,775.1584 L668.9791,775.924 Q668.9791,776.7881 669.6025,777.3678 Q670.2259,777.9365 671.3416,777.9365 Q671.9978,777.9365 672.4572,777.7615 Q672.7306,777.6521 673.0259,777.3459 Q673.2119,777.16 673.3103,777.1053 Q673.4197,777.0506 673.5619,777.0506 Q673.7916,777.0506 673.9666,777.2365 Q674.1525,777.4115 674.1525,777.6521 Q674.1525,777.8928 673.9119,778.1771 Q673.5619,778.5818 673.0041,778.8115 Q672.2494,779.1287 671.3416,779.1287 Q670.2806,779.1287 669.4384,778.6912 Q668.7494,778.3412 668.2681,777.5975 Q667.7869,776.8428 667.7869,775.9459 L667.7869,775.1365 Q667.7869,774.2068 668.2134,773.4084 Q668.6509,772.599 669.4166,772.1725 Q670.1822,771.735 671.0462,771.735 Q671.5603,771.735 672.0087,771.8553 Q672.4681,771.9646 672.8509,772.2162 Z " fill="#000000"/><text fill="#000000" font-family="sans-serif" font-size="8.4" font-style="italic" lengthAdjust="spacing" textLength="33.6" x="681.485" y="772.0645">&#171;Grade&#187;</text><text fill="#000000" font-family="sans-serif" font-size="9.8" lengthAdjust="spacing" textLength="28" x="684.285" y="784.7479">Grade</text><line style="stroke:#181818;stroke-width:0.3499999999999999;" x1="651.35" x2="724.85" y1="790.7074" y2="790.7074"/><rect fill="none" height="4.2" style="stroke:#C82930;stroke-width:0.6999999999999998;" width="4.2" x="656.25" y="798.9748"/><text fill="#000000" font-family="sans-serif" font-size="9.8" lengthAdjust="spacing" textLength="56.7" x="664.65" y="804.0826">Float : grade</text><line style="stroke:#181818;stroke-width:0.3499999999999999;" x1="651.35" x2="724.85" y1="809.3422" y2="809.3422"/></g><!--class ExamRepository--><g id="elem_ExamRepository"><rect codeLine="65" fill="#F1F1F1" height="46.6348" id="ExamRepository" rx="1.75" ry="1.75" style="stroke:#181818;stroke-width:0.3499999999999999;" width="123.2" x="525.7" y="436.1"/><ellipse cx="549.43" cy="447.3" fill="#ADD1B2" rx="7.7" ry="7.7" style="stroke:#181818;stroke-width:0.6999999999999998;"/><path d="M551.3659,444.4125 Q551.4753,444.2594 551.6066,444.1828 Q551.7378,444.1062 551.8909,444.1062 Q552.1534,444.1062 552.3175,444.2922 Q552.4816,444.4672 552.4816,444.8937 L552.4816,445.9109 Q552.4816,446.3375 552.3175,446.5234 Q552.1534,446.7094 551.8909,446.7094 Q551.6503,446.7094 551.5081,446.5672 Q551.3659,446.4359 551.2894,446.075 Q551.2566,445.8234 551.1253,445.6922 Q550.8956,445.4297 550.4691,445.2766 Q550.0425,445.1234 549.605,445.1234 Q549.0691,445.1234 548.6206,445.3531 Q548.1831,445.5828 547.8331,446.1078 Q547.4941,446.6328 547.4941,447.3547 L547.4941,448.1203 Q547.4941,448.9844 548.1175,449.5641 Q548.7409,450.1328 549.8566,450.1328 Q550.5128,450.1328 550.9722,449.9578 Q551.2456,449.8484 551.5409,449.5422 Q551.7269,449.3562 551.8253,449.3016 Q551.9347,449.2469 552.0769,449.2469 Q552.3066,449.2469 552.4816,449.4328 Q552.6675,449.6078 552.6675,449.8484 Q552.6675,450.0891 552.4269,450.3734 Q552.0769,450.7781 551.5191,451.0078 Q550.7644,451.325 549.8566,451.325 Q548.7956,451.325 547.9534,450.8875 Q547.2644,450.5375 546.7831,449.7937 Q546.3019,449.0391 546.3019,448.1422 L546.3019,447.3328 Q546.3019,446.4031 546.7284,445.6047 Q547.1659,444.7953 547.9316,444.3687 Q548.6972,443.9312 549.5612,443.9312 Q550.0753,443.9312 550.5237,444.0516 Q550.9831,444.1609 551.3659,444.4125 Z " fill="#000000"/><text fill="#000000" font-family="sans-serif" font-size="9.8" lengthAdjust="spacing" textLength="71.4" x="562.17" y="451.3578">ExamRepository</text><line style="stroke:#181818;stroke-width:0.3499999999999999;" x1="526.4" x2="648.2" y1="458.5" y2="458.5"/><line style="stroke:#181818;stroke-width:0.3499999999999999;" x1="526.4" x2="648.2" y1="464.1" y2="464.1"/><ellipse cx="533.4" cy="474.4674" fill="#84BE84" rx="2.1" ry="2.1" style="stroke:#038048;stroke-width:0.6999999999999998;"/><text fill="#000000" font-family="sans-serif" font-size="9.8" lengthAdjust="spacing" textLength="105" x="539.7" y="477.4752">Exam : findById(examId)</text></g><!--class ExamEnrollmentRepository--><g id="elem_ExamEnrollmentRepository"><rect codeLine="69" fill="#F1F1F1" height="59.6695" id="ExamEnrollmentRepository" rx="1.75" ry="1.75" style="stroke:#181818;stroke-width:0.3499999999999999;" width="311.5" x="110.95" y="429.8"/><ellipse cx="204.575" cy="441" fill="#ADD1B2" rx="7.7" ry="7.7" style="stroke:#181818;stroke-width:0.6999999999999998;"/><path d="M206.5109,438.1125 Q206.6203,437.9594 206.7516,437.8828 Q206.8828,437.8062 207.0359,437.8062 Q207.2984,437.8062 207.4625,437.9922 Q207.6266,438.1672 207.6266,438.5937 L207.6266,439.6109 Q207.6266,440.0375 207.4625,440.2234 Q207.2984,440.4094 207.0359,440.4094 Q206.7953,440.4094 206.6531,440.2672 Q206.5109,440.1359 206.4344,439.775 Q206.4016,439.5234 206.2703,439.3922 Q206.0406,439.1297 205.6141,438.9766 Q205.1875,438.8234 204.75,438.8234 Q204.2141,438.8234 203.7656,439.0531 Q203.3281,439.2828 202.9781,439.8078 Q202.6391,440.3328 202.6391,441.0547 L202.6391,441.8203 Q202.6391,442.6844 203.2625,443.2641 Q203.8859,443.8328 205.0016,443.8328 Q205.6578,443.8328 206.1172,443.6578 Q206.3906,443.5484 206.6859,443.2422 Q206.8719,443.0562 206.9703,443.0016 Q207.0797,442.9469 207.2219,442.9469 Q207.4516,442.9469 207.6266,443.1328 Q207.8125,443.3078 207.8125,443.5484 Q207.8125,443.7891 207.5719,444.0734 Q207.2219,444.4781 206.6641,444.7078 Q205.9094,445.025 205.0016,445.025 Q203.9406,445.025 203.0984,444.5875 Q202.4094,444.2375 201.9281,443.4937 Q201.4469,442.7391 201.4469,441.8422 L201.4469,441.0328 Q201.4469,440.1031 201.8734,439.3047 Q202.3109,438.4953 203.0766,438.0687 Q203.8422,437.6312 204.7062,437.6312 Q205.2203,437.6312 205.6687,437.7516 Q206.1281,437.8609 206.5109,438.1125 Z " fill="#000000"/><text fill="#000000" font-family="sans-serif" font-size="9.8" lengthAdjust="spacing" textLength="118.3" x="218.925" y="445.0578">ExamEnrollmentRepository</text><line style="stroke:#181818;stroke-width:0.3499999999999999;" x1="111.65" x2="421.75" y1="452.2" y2="452.2"/><line style="stroke:#181818;stroke-width:0.3499999999999999;" x1="111.65" x2="421.75" y1="457.8" y2="457.8"/><ellipse cx="118.65" cy="468.1674" fill="#84BE84" rx="2.1" ry="2.1" style="stroke:#038048;stroke-width:0.6999999999999998;"/><text fill="#000000" font-family="sans-serif" font-size="9.8" lengthAdjust="spacing" textLength="293.3" x="124.95" y="471.1752">Iterable&lt;Exam&gt; : findIdsOfExamAvailableForStudentToTake(exam)</text><ellipse cx="118.65" cy="481.2021" fill="#84BE84" rx="2.1" ry="2.1" style="stroke:#038048;stroke-width:0.6999999999999998;"/><text fill="#000000" font-family="sans-serif" font-size="9.8" lengthAdjust="spacing" textLength="121.8" x="124.95" y="484.21">void: save(examEnrollment)</text></g><!--link TakeExamUI to TakeExamController--><g id="link_TakeExamUI_TakeExamController"><path codeLine="74" d="M342.636,47.628 C329.588,98.854 295.54,232.554 277.802,302.197 " fill="none" id="TakeExamUI-to-TakeExamController" style="stroke:#181818;stroke-width:0.6999999999999998;stroke-dasharray:7.0,7.0;"/><polygon fill="#181818" points="276.92,305.669,281.1832,300.251,277.7806,302.2765,275.7551,298.8739,276.92,305.669" style="stroke:#181818;stroke-width:0.6999999999999998;"/></g><!--link TakeExamUI to CommonTakeExamUI--><g id="link_TakeExamUI_CommonTakeExamUI"><path codeLine="75" d="M373.982,47.684 C390.334,60.676 412.559,78.344 435.295,96.411 " fill="none" id="TakeExamUI-to-CommonTakeExamUI" style="stroke:#181818;stroke-width:0.6999999999999998;stroke-dasharray:7.0,7.0;"/><polygon fill="#181818" points="438.067,98.616,434.8803,92.5025,435.3281,96.4369,431.3937,96.8847,438.067,98.616" style="stroke:#181818;stroke-width:0.6999999999999998;"/></g><!--link CommonTakeExamUI to CommonTakeExamController--><g id="link_CommonTakeExamUI_CommonTakeExamController"><path codeLine="76" d="M535.5,263.354 C535.5,276.794 535.5,290.178 535.5,302.134 " fill="none" id="CommonTakeExamUI-to-CommonTakeExamController" style="stroke:#181818;stroke-width:0.6999999999999998;stroke-dasharray:7.0,7.0;"/><polygon fill="#181818" points="535.5,305.795,538.3,299.495,535.5,302.295,532.7,299.495,535.5,305.795" style="stroke:#181818;stroke-width:0.6999999999999998;"/></g><!--link CommonTakeExamUI to CommonTakeExamService--><g id="link_CommonTakeExamUI_CommonTakeExamService"><path codeLine="77" d="M632.87,245.924 C660.611,265.433 690.011,286.104 714.819,303.555 " fill="none" id="CommonTakeExamUI-to-CommonTakeExamService" style="stroke:#181818;stroke-width:0.6999999999999998;stroke-dasharray:7.0,7.0;"/><polygon fill="#181818" points="717.822,305.662,714.2679,299.7545,714.9552,303.6542,711.0555,304.3415,717.822,305.662" style="stroke:#181818;stroke-width:0.6999999999999998;"/></g><!--link CommonTakeExamService to TakeExamEvalVisitor--><g id="link_CommonTakeExamService_TakeExamEvalVisitor"><path codeLine="78" d="M767.627,387.191 C765.177,400.694 762.475,415.534 760.172,428.197 " fill="none" id="CommonTakeExamService-to-TakeExamEvalVisitor" style="stroke:#181818;stroke-width:0.6999999999999998;"/><polygon fill="#181818" points="759.535,431.704,763.4052,425.9986,760.1541,428.2592,757.8935,425.0081,759.535,431.704" style="stroke:#181818;stroke-width:0.6999999999999998;"/></g><!--link TakeExamEvalVisitor to Exam--><g id="link_TakeExamEvalVisitor_Exam"><path codeLine="79" d="M712.838,487.354 C704.046,494.193 695.275,501.984 688.1,510.3 C679.945,519.764 672.413,530.481 665.63,541.457 " fill="none" id="TakeExamEvalVisitor-to-Exam" style="stroke:#181818;stroke-width:0.6999999999999998;"/><polygon fill="#181818" points="663.74,544.565,669.4074,540.6394,665.5598,541.5753,664.6239,537.7277,663.74,544.565" style="stroke:#181818;stroke-width:0.6999999999999998;"/><polygon fill="#000000" points="689.2989,519.6891,695.0118,516.2709,691.9115,513.5657,689.2989,519.6891" style="stroke:#000000;stroke-width:0.6999999999999998;"/><text fill="#000000" font-family="sans-serif" font-size="9.1" lengthAdjust="spacing" textLength="32.9" x="697.9" y="520.8198">corrects</text></g><!--link TakeExamEvalVisitor to Grade--><g id="link_TakeExamEvalVisitor_Grade"><path codeLine="80" d="M749.308,487.34 C739.543,537.124 717.927,646.513 698.6,738.5 C697.424,744.093 696.143,750.05 694.897,755.79 " fill="none" id="TakeExamEvalVisitor-to-Grade" style="stroke:#181818;stroke-width:0.6999999999999998;"/><polygon fill="#181818" points="694.12,759.332,698.2045,753.778,694.8697,755.9132,692.7345,752.5785,694.12,759.332" style="stroke:#181818;stroke-width:0.6999999999999998;"/><polygon fill="#000000" points="739.9047,627.9321,743.1787,622.1354,739.1462,621.3181,739.9047,627.9321" style="stroke:#000000;stroke-width:0.6999999999999998;"/><text fill="#000000" font-family="sans-serif" font-size="9.1" lengthAdjust="spacing" textLength="39.9" x="746.9" y="628.2698">generates</text></g><!--link Exam to Grade--><g id="link_Exam_Grade"><path codeLine="81" d="M656.761,704.354 C663.803,722.806 670.88,741.356 676.529,756.14 " fill="none" id="Exam-to-Grade" style="stroke:#181818;stroke-width:0.6999999999999998;"/><polygon fill="#181818" points="677.782,759.43,678.1479,752.5455,676.5323,756.1607,672.9171,754.5451,677.782,759.43" style="stroke:#181818;stroke-width:0.6999999999999998;"/><polygon fill="#000000" points="672.5482,735.2217,672.2122,728.5728,668.3682,730.0401,672.5482,735.2217" style="stroke:#000000;stroke-width:0.6999999999999998;"/><text fill="#000000" font-family="sans-serif" font-size="9.1" lengthAdjust="spacing" textLength="14.7" x="677.6" y="735.7198">has</text></g><!--link TakeExamController to ExamEnrollmentRepository--><g id="link_TakeExamController_ExamEnrollmentRepository"><path codeLine="82" d="M266.7,387.191 C266.7,399.896 266.7,413.791 266.7,425.936 " fill="none" id="TakeExamController-to-ExamEnrollmentRepository" style="stroke:#181818;stroke-width:0.6999999999999998;"/><polygon fill="#181818" points="266.7,429.646,269.5,423.346,266.7,426.146,263.9,423.346,266.7,429.646" style="stroke:#181818;stroke-width:0.6999999999999998;"/></g><!--link TakeExamController to ExamEnrollment--><g id="link_TakeExamController_ExamEnrollment"><path codeLine="83" d="M129.829,379.61 C105.91,391.482 84.014,407.687 69.3,429.8 C43.288,468.881 58.716,520.66 79.121,560.875 " fill="none" id="TakeExamController-to-ExamEnrollment" style="stroke:#181818;stroke-width:0.6999999999999998;"/><polygon fill="#181818" points="80.724,563.997,80.3317,557.114,79.1228,560.8847,75.3521,559.6758,80.724,563.997" style="stroke:#181818;stroke-width:0.6999999999999998;"/><polygon fill="#000000" points="71.8571,463.0225,75.544,457.4792,71.5816,456.3708,71.8571,463.0225" style="stroke:#000000;stroke-width:0.6999999999999998;"/><text fill="#000000" font-family="sans-serif" font-size="9.1" lengthAdjust="spacing" textLength="18.9" x="79.1" y="463.4198">finds</text></g><!--link ExamEnrollmentRepository to ExamEnrollment--><g id="link_ExamEnrollmentRepository_ExamEnrollment"><path codeLine="84" d="M240.422,489.475 C222.488,509.404 198.065,536.564 175.868,561.246 " fill="none" id="ExamEnrollmentRepository-to-ExamEnrollment" style="stroke:#181818;stroke-width:0.6999999999999998;"/><polygon fill="#181818" points="173.453,563.927,179.7433,561.1053,175.7894,561.321,175.5737,557.3671,173.453,563.927" style="stroke:#181818;stroke-width:0.6999999999999998;"/><polygon fill="#000000" points="220.9594,519.6541,226.7231,516.3223,223.664,513.5708,220.9594,519.6541" style="stroke:#000000;stroke-width:0.6999999999999998;"/><text fill="#000000" font-family="sans-serif" font-size="9.1" lengthAdjust="spacing" textLength="34.3" x="229.6" y="520.8198">contains</text></g><!--link TakeExamController to ExamRepository--><g id="link_TakeExamController_ExamRepository"><path codeLine="85" d="M403.62,383.929 C447.006,395.682 485.114,406.182 490,408.1 C508.62,415.394 528.325,425.243 545.104,434.322 " fill="none" id="TakeExamController-to-ExamRepository" style="stroke:#181818;stroke-width:0.6999999999999998;"/><polygon fill="#181818" points="548.198,436.002,544.0155,430.5214,545.1277,434.3218,541.3272,435.4339,548.198,436.002" style="stroke:#181818;stroke-width:0.6999999999999998;"/></g><!--link TakeExamController to Exam--><g id="link_TakeExamController_Exam"><path codeLine="86" d="M365.505,387.107 C389.354,399.021 413.931,413.364 434.7,429.8 C461.566,451.059 460.292,464.289 483.7,489.3 C507.213,514.423 534.415,540.659 558.733,563.206 " fill="none" id="TakeExamController-to-Exam" style="stroke:#181818;stroke-width:0.6999999999999998;"/><polygon fill="#181818" points="561.379,565.656,558.6591,559.321,558.811,563.2779,554.8541,563.4298,561.379,565.656" style="stroke:#181818;stroke-width:0.6999999999999998;"/><polygon fill="#000000" points="489.7869,462.0094,486.4929,456.224,483.7214,459.2651,489.7869,462.0094" style="stroke:#000000;stroke-width:0.6999999999999998;"/><text fill="#000000" font-family="sans-serif" font-size="9.1" lengthAdjust="spacing" textLength="18.9" x="493.5" y="463.4198">finds</text></g><!--link ExamRepository to Exam--><g id="link_ExamRepository_Exam"><path codeLine="87" d="M592.83,483.322 C596.512,498.652 601.58,519.792 606.669,541.023 " fill="none" id="ExamRepository-to-Exam" style="stroke:#181818;stroke-width:0.6999999999999998;"/><polygon fill="#181818" points="607.488,544.432,608.7374,537.652,606.6697,541.029,603.2926,538.9613,607.488,544.432" style="stroke:#181818;stroke-width:0.6999999999999998;"/><polygon fill="#000000" points="606.3163,520.4553,606.8401,513.8186,602.8391,514.7782,606.3163,520.4553" style="stroke:#000000;stroke-width:0.6999999999999998;"/><text fill="#000000" font-family="sans-serif" font-size="9.1" lengthAdjust="spacing" textLength="34.3" x="611.8" y="520.8198">contains</text></g><!--SRC=[pLNDRjim3BxxANHCiAGFC0G1sgJP3BJhjgJhMRNPMAWYPPAShHZsxYCL-RTotUDwI6douuy-KbGckRLinv_X-ZS_tATiiRXFbqls9_cR95d7kDBA6Iqb60Gr7nxCyEy3InqO_YY1BGY_P1_Par0voVRon8KasqQRhIjpK6wdAV9aEkXi-Ga2zfFXEQIAB1F0dndRasOwdlX1kC8BQMwzgqtNTjgSRgKF1wrY19n3-ymOq0M4Zp6D66-vAhby4qB6gvUDaD21R9qHQeyORfyRUYwL_GLcyhC4wuHMCV0Jec-vomhK1FWWJ5YBYWTjyZ5aAPquIbWLMcGm0juMshWHp9Vo04Pa8wYTAU7ERBYqJSw19eqF8b6CeSNXYELvle_S5LNgHwqbS8M0J1i3cViMEAx9dZ7kQ-WtCU1xVPpXj4aOB7SBveHCOgr1-dyAhKgyFd7vGrZXD57AWXYv1Qsu4sS0Pkmyo7L4ic28jJvmeUe0StQZVRC9dQw3RgLBOyzHIGZQUZ1oi9aHHpfcCAsv8xW-WYAngysajj1Itt2rB_cUJ3A8mV8Py306zOKNchnbvaf33hQIWystqN5NMZGs7zrZNokQmmDUtH426c1DHSiNCVL7i5RiaxENMsKrddM14567Ffwqo8ch0XdndVVX9frb-WhJZxNJNmrO_6nVqNEDYuN_tphtHcfEX_8fkeHzXwFsW_PIpvaVd_Fsldf9Sp-rQJuT8ZeIeNeAEYy1xlwx9r8CFqFjXKmCd9-VIPTBNqZhhRYuM4QUnpwY_yGahzuSGWqkkNV1msf9ugjdFb_6xdeIk_-43Mq8jzsovI2o6iqzAEJT0M6zTzjOy7Q8rlgkSiKw6iNtuQ6_LTRePCnZNXa6nGiwKjUxgkdL4CdSpPSa_m00]--></g></svg>