<?xml version="1.0" encoding="us-ascii" standalone="no"?><svg xmlns="http://www.w3.org/2000/svg" xmlns:xlink="http://www.w3.org/1999/xlink" contentStyleType="text/css" height="598.53px" preserveAspectRatio="none" style="width:328px;height:598px;background:#FFFFFF;" version="1.1" viewBox="0 0 328 598" width="328.73px" zoomAndPan="magnify"><defs/><g><rect fill="none" height="434.3716" style="stroke:#000000;stroke-width:1.065;" width="317.015" x="7.1" y="93.6576"/><rect fill="none" height="229.7141" style="stroke:#000000;stroke-width:1.065;" width="302.815" x="14.2" y="213.4673"/><rect fill="none" height="103.9831" style="stroke:#000000;stroke-width:1.065;" width="288.615" x="21.3" y="232.1339"/><rect fill="none" height="58.1299" style="stroke:#000000;stroke-width:1.065;" width="274.415" x="28.4" y="273.0172"/><rect fill="none" height="35.9132" style="stroke:#000000;stroke-width:1.065;" width="274.415" x="28.4" y="402.2982"/><rect fill="none" height="35.9132" style="stroke:#000000;stroke-width:1.065;" width="274.415" x="28.4" y="453.1214"/><line style="stroke:#181818;stroke-width:0.355;stroke-dasharray:5.0,5.0;" x1="56.09" x2="56.09" y1="59.371" y2="540.0992"/><line style="stroke:#181818;stroke-width:0.355;stroke-dasharray:5.0,5.0;" x1="274.415" x2="274.415" y1="59.371" y2="540.0992"/><text fill="#000000" font-family="sans-serif" font-size="9.94" lengthAdjust="spacing" textLength="37.63" x="35.5" y="56.8763">Teacher</text><ellipse cx="56.445" cy="9.585" fill="#E2E2F0" rx="5.68" ry="5.68" style="stroke:#181818;stroke-width:0.355;"/><path d="M56.445,15.265 L56.445,34.435 M47.215,20.945 L65.675,20.945 M56.445,34.435 L47.215,45.085 M56.445,34.435 L65.675,45.085 " fill="none" style="stroke:#181818;stroke-width:0.355;"/><text fill="#000000" font-family="sans-serif" font-size="9.94" lengthAdjust="spacing" textLength="37.63" x="35.5" y="550.1155">Teacher</text><ellipse cx="56.445" cy="558.6452" fill="#E2E2F0" rx="5.68" ry="5.68" style="stroke:#181818;stroke-width:0.355;"/><path d="M56.445,564.3252 L56.445,583.4952 M47.215,570.0052 L65.675,570.0052 M56.445,583.4952 L47.215,594.1452 M56.445,583.4952 L65.675,594.1452 " fill="none" style="stroke:#181818;stroke-width:0.355;"/><rect fill="#E2E2F0" height="23.161" rx="1.775" ry="1.775" style="stroke:#181818;stroke-width:0.355;" width="42.6" x="253.115" y="35.5"/><text fill="#000000" font-family="sans-serif" font-size="9.94" lengthAdjust="spacing" textLength="32.66" x="258.085" y="51.1963">System</text><rect fill="#E2E2F0" height="23.161" rx="1.775" ry="1.775" style="stroke:#181818;stroke-width:0.355;" width="42.6" x="253.115" y="539.3892"/><text fill="#000000" font-family="sans-serif" font-size="9.94" lengthAdjust="spacing" textLength="32.66" x="258.085" y="555.0855">System</text><polygon fill="#181818" points="265.895,80.1676,272.995,83.0076,265.895,85.8476,268.735,83.0076" style="stroke:#181818;stroke-width:0.71;"/><line style="stroke:#181818;stroke-width:0.71;" x1="56.445" x2="270.155" y1="83.0076" y2="83.0076"/><text fill="#000000" font-family="sans-serif" font-size="9.23" font-weight="bold" lengthAdjust="spacing" textLength="4.97" x="61.415" y="79.2711">1</text><text fill="#000000" font-family="sans-serif" font-size="9.23" lengthAdjust="spacing" textLength="76.68" x="69.225" y="79.2711">asks to take exam</text><path d="M7.1,93.6576 L50.41,93.6576 L50.41,100.2542 L43.31,107.3542 L7.1,107.3542 L7.1,93.6576 " fill="#EEEEEE" style="stroke:#000000;stroke-width:1.065;"/><rect fill="none" height="434.3716" style="stroke:#000000;stroke-width:1.065;" width="317.015" x="7.1" y="93.6576"/><text fill="#000000" font-family="sans-serif" font-size="9.23" font-weight="bold" lengthAdjust="spacing" textLength="11.36" x="17.75" y="104.3277">alt</text><text fill="#000000" font-family="sans-serif" font-size="7.81" font-weight="bold" lengthAdjust="spacing" textLength="195.96" x="61.06" y="103.5054">[if list of exams available for student is not empty]</text><polygon fill="#181818" points="64.255,121.0508,57.155,123.8908,64.255,126.7308,61.415,123.8908" style="stroke:#181818;stroke-width:0.71;"/><line style="stroke:#181818;stroke-width:0.71;stroke-dasharray:2.0,2.0;" x1="59.995" x2="273.705" y1="123.8908" y2="123.8908"/><text fill="#000000" font-family="sans-serif" font-size="9.23" font-weight="bold" lengthAdjust="spacing" textLength="4.97" x="68.515" y="120.1543">2</text><text fill="#000000" font-family="sans-serif" font-size="9.23" lengthAdjust="spacing" textLength="101.53" x="76.325" y="120.1543">asks to select one exam</text><polygon fill="#181818" points="265.895,143.2675,272.995,146.1075,265.895,148.9475,268.735,146.1075" style="stroke:#181818;stroke-width:0.71;"/><line style="stroke:#181818;stroke-width:0.71;" x1="56.445" x2="270.155" y1="146.1075" y2="146.1075"/><text fill="#000000" font-family="sans-serif" font-size="9.23" font-weight="bold" lengthAdjust="spacing" textLength="4.97" x="61.415" y="142.3709">3</text><text fill="#000000" font-family="sans-serif" font-size="9.23" lengthAdjust="spacing" textLength="68.16" x="69.225" y="142.3709">selects on exam</text><polygon fill="#181818" points="64.255,177.7607,57.155,180.6007,64.255,183.4407,61.415,180.6007" style="stroke:#181818;stroke-width:0.71;"/><line style="stroke:#181818;stroke-width:0.71;stroke-dasharray:2.0,2.0;" x1="59.995" x2="273.705" y1="180.6007" y2="180.6007"/><text fill="#000000" font-family="sans-serif" font-size="9.23" font-weight="bold" lengthAdjust="spacing" textLength="4.97" x="68.515" y="170.7259">4</text><text fill="#000000" font-family="sans-serif" font-size="9.23" lengthAdjust="spacing" textLength="126.38" x="76.325" y="164.5876">asks if student wants to do the</text><text fill="#000000" font-family="sans-serif" font-size="9.23" lengthAdjust="spacing" textLength="123.54" x="79.165" y="176.8642">exam manually or import a file</text><polygon fill="#181818" points="265.895,199.9773,272.995,202.8173,265.895,205.6573,268.735,202.8173" style="stroke:#181818;stroke-width:0.71;"/><line style="stroke:#181818;stroke-width:0.71;" x1="56.445" x2="270.155" y1="202.8173" y2="202.8173"/><text fill="#000000" font-family="sans-serif" font-size="9.23" font-weight="bold" lengthAdjust="spacing" textLength="4.97" x="61.415" y="199.0808">5</text><text fill="#000000" font-family="sans-serif" font-size="9.23" lengthAdjust="spacing" textLength="57.51" x="69.225" y="199.0808">selects option</text><path d="M14.2,213.4673 L57.51,213.4673 L57.51,220.0639 L50.41,227.1639 L14.2,227.1639 L14.2,213.4673 " fill="#EEEEEE" style="stroke:#000000;stroke-width:1.065;"/><rect fill="none" height="229.7141" style="stroke:#000000;stroke-width:1.065;" width="302.815" x="14.2" y="213.4673"/><text fill="#000000" font-family="sans-serif" font-size="9.23" font-weight="bold" lengthAdjust="spacing" textLength="11.36" x="24.85" y="224.1374">alt</text><text fill="#000000" font-family="sans-serif" font-size="7.81" font-weight="bold" lengthAdjust="spacing" textLength="83.78" x="68.16" y="223.3151">[if option is manually]</text><path d="M21.3,232.1339 L64.61,232.1339 L64.61,238.7306 L57.51,245.8306 L21.3,245.8306 L21.3,232.1339 " fill="#EEEEEE" style="stroke:#000000;stroke-width:1.065;"/><rect fill="none" height="103.9831" style="stroke:#000000;stroke-width:1.065;" width="288.615" x="21.3" y="232.1339"/><text fill="#000000" font-family="sans-serif" font-size="9.23" font-weight="bold" lengthAdjust="spacing" textLength="11.36" x="31.95" y="242.8041">alt</text><text fill="#000000" font-family="sans-serif" font-size="7.81" font-weight="bold" lengthAdjust="spacing" textLength="123.54" x="75.26" y="241.9817">[for each section in section list]</text><polygon fill="#181818" points="64.255,259.5272,57.155,262.3672,64.255,265.2072,61.415,262.3672" style="stroke:#181818;stroke-width:0.71;"/><line style="stroke:#181818;stroke-width:0.71;stroke-dasharray:2.0,2.0;" x1="59.995" x2="273.705" y1="262.3672" y2="262.3672"/><text fill="#000000" font-family="sans-serif" font-size="9.23" font-weight="bold" lengthAdjust="spacing" textLength="4.97" x="68.515" y="258.6307">6</text><text fill="#000000" font-family="sans-serif" font-size="9.23" lengthAdjust="spacing" textLength="106.5" x="76.325" y="258.6307">shows section information</text><path d="M28.4,273.0172 L71.71,273.0172 L71.71,279.6138 L64.61,286.7138 L28.4,286.7138 L28.4,273.0172 " fill="#EEEEEE" style="stroke:#000000;stroke-width:1.065;"/><rect fill="none" height="58.1299" style="stroke:#000000;stroke-width:1.065;" width="274.415" x="28.4" y="273.0172"/><text fill="#000000" font-family="sans-serif" font-size="9.23" font-weight="bold" lengthAdjust="spacing" textLength="11.36" x="39.05" y="283.6873">alt</text><text fill="#000000" font-family="sans-serif" font-size="7.81" font-weight="bold" lengthAdjust="spacing" textLength="134.9" x="82.36" y="282.865">[for each question in question list]</text><polygon fill="#181818" points="64.255,300.4104,57.155,303.2504,64.255,306.0904,61.415,303.2504" style="stroke:#181818;stroke-width:0.71;"/><line style="stroke:#181818;stroke-width:0.71;stroke-dasharray:2.0,2.0;" x1="59.995" x2="273.705" y1="303.2504" y2="303.2504"/><text fill="#000000" font-family="sans-serif" font-size="9.23" font-weight="bold" lengthAdjust="spacing" textLength="4.97" x="68.515" y="299.5139">7</text><text fill="#000000" font-family="sans-serif" font-size="9.23" lengthAdjust="spacing" textLength="193.12" x="76.325" y="299.5139">shows question and asks for student to answer</text><polygon fill="#181818" points="265.895,322.6271,272.995,325.4671,265.895,328.3071,268.735,325.4671" style="stroke:#181818;stroke-width:0.71;"/><line style="stroke:#181818;stroke-width:0.71;" x1="56.445" x2="270.155" y1="325.4671" y2="325.4671"/><text fill="#000000" font-family="sans-serif" font-size="9.23" font-weight="bold" lengthAdjust="spacing" textLength="4.97" x="61.415" y="321.7305">8</text><text fill="#000000" font-family="sans-serif" font-size="9.23" lengthAdjust="spacing" textLength="71.71" x="69.225" y="321.7305">answers question</text><line style="stroke:#000000;stroke-width:0.71;stroke-dasharray:2.0,2.0;" x1="14.2" x2="317.015" y1="341.7971" y2="341.7971"/><text fill="#000000" font-family="sans-serif" font-size="7.81" font-weight="bold" lengthAdjust="spacing" textLength="72.42" x="17.75" y="350.2248">[if option is by file]</text><polygon fill="#181818" points="64.255,366.5916,57.155,369.4316,64.255,372.2716,61.415,369.4316" style="stroke:#181818;stroke-width:0.71;"/><line style="stroke:#181818;stroke-width:0.71;stroke-dasharray:2.0,2.0;" x1="59.995" x2="273.705" y1="369.4316" y2="369.4316"/><text fill="#000000" font-family="sans-serif" font-size="9.23" font-weight="bold" lengthAdjust="spacing" textLength="4.97" x="68.515" y="365.6951">9</text><text fill="#000000" font-family="sans-serif" font-size="9.23" lengthAdjust="spacing" textLength="62.48" x="76.325" y="365.6951">ask for file path</text><polygon fill="#181818" points="265.895,388.8082,272.995,391.6482,265.895,394.4882,268.735,391.6482" style="stroke:#181818;stroke-width:0.71;"/><line style="stroke:#181818;stroke-width:0.71;" x1="56.445" x2="270.155" y1="391.6482" y2="391.6482"/><text fill="#000000" font-family="sans-serif" font-size="9.23" font-weight="bold" lengthAdjust="spacing" textLength="9.94" x="61.415" y="387.9117">10</text><text fill="#000000" font-family="sans-serif" font-size="9.23" lengthAdjust="spacing" textLength="62.48" x="74.195" y="387.9117">inserts file path</text><path d="M28.4,402.2982 L71.71,402.2982 L71.71,408.8948 L64.61,415.9948 L28.4,415.9948 L28.4,402.2982 " fill="#EEEEEE" style="stroke:#000000;stroke-width:1.065;"/><rect fill="none" height="35.9132" style="stroke:#000000;stroke-width:1.065;" width="274.415" x="28.4" y="402.2982"/><text fill="#000000" font-family="sans-serif" font-size="9.23" font-weight="bold" lengthAdjust="spacing" textLength="11.36" x="39.05" y="412.9683">alt</text><text fill="#000000" font-family="sans-serif" font-size="7.81" font-weight="bold" lengthAdjust="spacing" textLength="50.41" x="82.36" y="412.146">[if file is null]</text><polygon fill="#181818" points="64.255,429.6914,57.155,432.5314,64.255,435.3714,61.415,432.5314" style="stroke:#181818;stroke-width:0.71;"/><line style="stroke:#181818;stroke-width:0.71;stroke-dasharray:2.0,2.0;" x1="59.995" x2="273.705" y1="432.5314" y2="432.5314"/><text fill="#000000" font-family="sans-serif" font-size="9.23" font-weight="bold" lengthAdjust="spacing" textLength="9.94" x="68.515" y="428.7949">11</text><text fill="#000000" font-family="sans-serif" font-size="9.23" lengthAdjust="spacing" textLength="105.79" x="81.295" y="428.7949">informs about file not valid</text><path d="M28.4,453.1214 L71.71,453.1214 L71.71,459.7181 L64.61,466.8181 L28.4,466.8181 L28.4,453.1214 " fill="#EEEEEE" style="stroke:#000000;stroke-width:1.065;"/><rect fill="none" height="35.9132" style="stroke:#000000;stroke-width:1.065;" width="274.415" x="28.4" y="453.1214"/><text fill="#000000" font-family="sans-serif" font-size="9.23" font-weight="bold" lengthAdjust="spacing" textLength="11.36" x="39.05" y="463.7916">alt</text><text fill="#000000" font-family="sans-serif" font-size="7.81" font-weight="bold" lengthAdjust="spacing" textLength="155.49" x="82.36" y="462.9692">[if exam grade type is 'ON_SUBMISSION']</text><polygon fill="#181818" points="64.255,480.5147,57.155,483.3547,64.255,486.1947,61.415,483.3547" style="stroke:#181818;stroke-width:0.71;"/><line style="stroke:#181818;stroke-width:0.71;stroke-dasharray:2.0,2.0;" x1="59.995" x2="273.705" y1="483.3547" y2="483.3547"/><text fill="#000000" font-family="sans-serif" font-size="9.23" font-weight="bold" lengthAdjust="spacing" textLength="9.94" x="68.515" y="479.6182">12</text><text fill="#000000" font-family="sans-serif" font-size="9.23" lengthAdjust="spacing" textLength="85.2" x="81.295" y="479.6182">shows student grade</text><line style="stroke:#000000;stroke-width:0.71;stroke-dasharray:2.0,2.0;" x1="7.1" x2="324.115" y1="494.7147" y2="494.7147"/><text fill="#000000" font-family="sans-serif" font-size="7.81" font-weight="bold" lengthAdjust="spacing" textLength="181.05" x="10.65" y="503.1425">[if list of exams available for student is empty]</text><polygon fill="#181818" points="64.255,519.5092,57.155,522.3492,64.255,525.1892,61.415,522.3492" style="stroke:#181818;stroke-width:0.71;"/><line style="stroke:#181818;stroke-width:0.71;stroke-dasharray:2.0,2.0;" x1="59.995" x2="273.705" y1="522.3492" y2="522.3492"/><text fill="#000000" font-family="sans-serif" font-size="9.23" font-weight="bold" lengthAdjust="spacing" textLength="9.94" x="68.515" y="518.6127">13</text><text fill="#000000" font-family="sans-serif" font-size="9.23" lengthAdjust="spacing" textLength="167.56" x="81.295" y="518.6127">informs about no exams available to take</text><!--SRC=[ZLJBJiD03BpdAtphgVIE41BSUW0EXHiISXENhDX7Y9sM_3tUpQEFj9ISLjxnZ3tsPbQAL7oxM5GMlJJEtkJ1BPY-6_8vpGk3dpMwBCDSGWslX7b9DI33Gmnel97W6xScFQSGpEzXrRAGWrl5VJ580C4l0lfH8hG2PWFMi43Of1W3Rj5ON5k2ZHAmD0LvXJ7u842kaZO3_Jh-k_byAi1aALT6tyliuOVbT2XMs2bgIgf53eNir9caKcWd9RrtsU3GDsXj2vflN1Lg0OIDiNHDlH8JV0BrRdIHsF30cMu7H3Gb6gyCUGVqup4QEO8lzCDbsF51il8v76iugwJZvq5gF4-q_jGRqz0NdQM7mrKtqVDEr-OyuT4M9U2UyIY5V96Tdiao7VkwRlUJkJprL674GOLIPfShCfwfrb5EiVr4qqLSuCRQQ-Ff1gAlO1qQwJBZtc_HcZEjgPdw7MvFMaPzfGM1j5MIdRqyVwpU7f-MgzNovNcMNL-EVYo9PX3A1X__-Lh_VAd7NVem8Uj_4raK_WK0]--></g></svg>