<?xml version="1.0" encoding="us-ascii" standalone="no"?><svg xmlns="http://www.w3.org/2000/svg" xmlns:xlink="http://www.w3.org/1999/xlink" contentStyleType="text/css" height="864px" preserveAspectRatio="none" style="width:1434px;height:864px;background:#FFFFFF;" version="1.1" viewBox="0 0 1434 864" width="1434px" zoomAndPan="magnify"><defs/><g><!--class BulkEnrollStudentsUI--><g id="elem_BulkEnrollStudentsUI"><rect codeLine="2" fill="#F1F1F1" height="60.582" id="BulkEnrollStudentsUI" rx="2.5" ry="2.5" style="stroke:#181818;stroke-width:0.5;" width="163" x="602" y="7"/><ellipse cx="617" cy="29.291" fill="#ADD1B2" rx="11" ry="11" style="stroke:#181818;stroke-width:1.0;"/><path d="M619.7656,25.166 Q619.9219,24.9473 620.1094,24.8379 Q620.2969,24.7285 620.5156,24.7285 Q620.8906,24.7285 621.125,24.9941 Q621.3594,25.2441 621.3594,25.8535 L621.3594,27.3066 Q621.3594,27.916 621.125,28.1816 Q620.8906,28.4473 620.5156,28.4473 Q620.1719,28.4473 619.9688,28.2441 Q619.7656,28.0566 619.6563,27.541 Q619.6094,27.1816 619.4219,26.9941 Q619.0938,26.6191 618.4844,26.4004 Q617.875,26.1816 617.25,26.1816 Q616.4844,26.1816 615.8438,26.5098 Q615.2188,26.8379 614.7188,27.5879 Q614.2344,28.3379 614.2344,29.3691 L614.2344,30.4629 Q614.2344,31.6973 615.125,32.5254 Q616.0156,33.3379 617.6094,33.3379 Q618.5469,33.3379 619.2031,33.0879 Q619.5938,32.9316 620.0156,32.4941 Q620.2813,32.2285 620.4219,32.1504 Q620.5781,32.0723 620.7813,32.0723 Q621.1094,32.0723 621.3594,32.3379 Q621.625,32.5879 621.625,32.9316 Q621.625,33.2754 621.2813,33.6816 Q620.7813,34.2598 619.9844,34.5879 Q618.9063,35.041 617.6094,35.041 Q616.0938,35.041 614.8906,34.416 Q613.9063,33.916 613.2188,32.8535 Q612.5313,31.7754 612.5313,30.4941 L612.5313,29.3379 Q612.5313,28.0098 613.1406,26.8691 Q613.7656,25.7129 614.8594,25.1035 Q615.9531,24.4785 617.1875,24.4785 Q617.9219,24.4785 618.5625,24.6504 Q619.2188,24.8066 619.7656,25.166 Z " fill="#000000"/><text fill="#000000" font-family="sans-serif" font-size="12" font-style="italic" lengthAdjust="spacing" textLength="27" x="683" y="24.9492">&#171;UI&#187;</text><text fill="#000000" font-family="sans-serif" font-size="14" lengthAdjust="spacing" textLength="131" x="631" y="43.0684">BulkEnrollStudentsUI</text><line style="stroke:#181818;stroke-width:0.5;" x1="603" x2="764" y1="51.582" y2="51.582"/><line style="stroke:#181818;stroke-width:0.5;" x1="603" x2="764" y1="59.582" y2="59.582"/></g><!--class BulkEnrollStudentsController--><g id="elem_BulkEnrollStudentsController"><rect codeLine="5" fill="#F1F1F1" height="116.4453" id="BulkEnrollStudentsController" rx="2.5" ry="2.5" style="stroke:#181818;stroke-width:0.5;" width="228" x="569.5" y="129"/><ellipse cx="591.25" cy="151.291" fill="#ADD1B2" rx="11" ry="11" style="stroke:#181818;stroke-width:1.0;"/><path d="M594.0156,147.166 Q594.1719,146.9473 594.3594,146.8379 Q594.5469,146.7285 594.7656,146.7285 Q595.1406,146.7285 595.375,146.9941 Q595.6094,147.2441 595.6094,147.8535 L595.6094,149.3066 Q595.6094,149.916 595.375,150.1816 Q595.1406,150.4473 594.7656,150.4473 Q594.4219,150.4473 594.2188,150.2441 Q594.0156,150.0566 593.9063,149.541 Q593.8594,149.1816 593.6719,148.9941 Q593.3438,148.6191 592.7344,148.4004 Q592.125,148.1816 591.5,148.1816 Q590.7344,148.1816 590.0938,148.5098 Q589.4688,148.8379 588.9688,149.5879 Q588.4844,150.3379 588.4844,151.3691 L588.4844,152.4629 Q588.4844,153.6973 589.375,154.5254 Q590.2656,155.3379 591.8594,155.3379 Q592.7969,155.3379 593.4531,155.0879 Q593.8438,154.9316 594.2656,154.4941 Q594.5313,154.2285 594.6719,154.1504 Q594.8281,154.0723 595.0313,154.0723 Q595.3594,154.0723 595.6094,154.3379 Q595.875,154.5879 595.875,154.9316 Q595.875,155.2754 595.5313,155.6816 Q595.0313,156.2598 594.2344,156.5879 Q593.1563,157.041 591.8594,157.041 Q590.3438,157.041 589.1406,156.416 Q588.1563,155.916 587.4688,154.8535 Q586.7813,153.7754 586.7813,152.4941 L586.7813,151.3379 Q586.7813,150.0098 587.3906,148.8691 Q588.0156,147.7129 589.1094,147.1035 Q590.2031,146.4785 591.4375,146.4785 Q592.1719,146.4785 592.8125,146.6504 Q593.4688,146.8066 594.0156,147.166 Z " fill="#000000"/><text fill="#000000" font-family="sans-serif" font-size="12" font-style="italic" lengthAdjust="spacing" textLength="68" x="663.25" y="146.9492">&#171;Controller&#187;</text><text fill="#000000" font-family="sans-serif" font-size="14" lengthAdjust="spacing" textLength="181" x="606.75" y="165.0684">BulkEnrollStudentsController</text><line style="stroke:#181818;stroke-width:0.5;" x1="570.5" x2="796.5" y1="173.582" y2="173.582"/><line style="stroke:#181818;stroke-width:0.5;" x1="570.5" x2="796.5" y1="181.582" y2="181.582"/><ellipse cx="580.5" cy="196.3926" fill="#84BE84" rx="3" ry="3" style="stroke:#038048;stroke-width:1.0;"/><text fill="#000000" font-family="sans-serif" font-size="14" lengthAdjust="spacing" textLength="135" x="589.5" y="200.6895">File : importFile(path)</text><ellipse cx="580.5" cy="215.0137" fill="#84BE84" rx="3" ry="3" style="stroke:#038048;stroke-width:1.0;"/><text fill="#000000" font-family="sans-serif" font-size="14" lengthAdjust="spacing" textLength="163" x="589.5" y="219.3105">boolean : validateFile(file)</text><ellipse cx="580.5" cy="233.6348" fill="#84BE84" rx="3" ry="3" style="stroke:#038048;stroke-width:1.0;"/><text fill="#000000" font-family="sans-serif" font-size="14" lengthAdjust="spacing" textLength="202" x="589.5" y="237.9316">Integer : bulkEnrollStudents(file)</text></g><!--class BulkEnrollStudentsService--><g id="elem_BulkEnrollStudentsService"><rect codeLine="11" fill="#F1F1F1" height="103.8633" id="BulkEnrollStudentsService" rx="2.5" ry="2.5" style="stroke:#181818;stroke-width:0.5;" width="210" x="578.5" y="306"/><ellipse cx="598.9" cy="322" fill="#ADD1B2" rx="11" ry="11" style="stroke:#181818;stroke-width:1.0;"/><path d="M601.6656,317.875 Q601.8219,317.6563 602.0094,317.5469 Q602.1969,317.4375 602.4156,317.4375 Q602.7906,317.4375 603.025,317.7031 Q603.2594,317.9531 603.2594,318.5625 L603.2594,320.0156 Q603.2594,320.625 603.025,320.8906 Q602.7906,321.1563 602.4156,321.1563 Q602.0719,321.1563 601.8688,320.9531 Q601.6656,320.7656 601.5563,320.25 Q601.5094,319.8906 601.3219,319.7031 Q600.9938,319.3281 600.3844,319.1094 Q599.775,318.8906 599.15,318.8906 Q598.3844,318.8906 597.7438,319.2188 Q597.1188,319.5469 596.6188,320.2969 Q596.1344,321.0469 596.1344,322.0781 L596.1344,323.1719 Q596.1344,324.4063 597.025,325.2344 Q597.9156,326.0469 599.5094,326.0469 Q600.4469,326.0469 601.1031,325.7969 Q601.4938,325.6406 601.9156,325.2031 Q602.1813,324.9375 602.3219,324.8594 Q602.4781,324.7813 602.6813,324.7813 Q603.0094,324.7813 603.2594,325.0469 Q603.525,325.2969 603.525,325.6406 Q603.525,325.9844 603.1813,326.3906 Q602.6813,326.9688 601.8844,327.2969 Q600.8063,327.75 599.5094,327.75 Q597.9938,327.75 596.7906,327.125 Q595.8063,326.625 595.1188,325.5625 Q594.4313,324.4844 594.4313,323.2031 L594.4313,322.0469 Q594.4313,320.7188 595.0406,319.5781 Q595.6656,318.4219 596.7594,317.8125 Q597.8531,317.1875 599.0875,317.1875 Q599.8219,317.1875 600.4625,317.3594 Q601.1188,317.5156 601.6656,317.875 Z " fill="#000000"/><text fill="#000000" font-family="sans-serif" font-size="14" lengthAdjust="spacing" textLength="166" x="614.1" y="327.7969">BulkEnrollStudentsService</text><line style="stroke:#181818;stroke-width:0.5;" x1="579.5" x2="787.5" y1="338" y2="338"/><line style="stroke:#181818;stroke-width:0.5;" x1="579.5" x2="787.5" y1="346" y2="346"/><ellipse cx="589.5" cy="360.8105" fill="#84BE84" rx="3" ry="3" style="stroke:#038048;stroke-width:1.0;"/><text fill="#000000" font-family="sans-serif" font-size="14" lengthAdjust="spacing" textLength="135" x="598.5" y="365.1074">File : importFile(path)</text><ellipse cx="589.5" cy="379.4316" fill="#84BE84" rx="3" ry="3" style="stroke:#038048;stroke-width:1.0;"/><text fill="#000000" font-family="sans-serif" font-size="14" lengthAdjust="spacing" textLength="163" x="598.5" y="383.7285">boolean : validateFile(file)</text><ellipse cx="589.5" cy="398.0527" fill="#84BE84" rx="3" ry="3" style="stroke:#038048;stroke-width:1.0;"/><text fill="#000000" font-family="sans-serif" font-size="14" lengthAdjust="spacing" textLength="184" x="598.5" y="402.3496">void : bulkEnrollStudents(file)</text></g><!--class StudentRepository--><g id="elem_StudentRepository"><rect codeLine="17" fill="#F1F1F1" height="79.2031" id="StudentRepository" rx="2.5" ry="2.5" style="stroke:#181818;stroke-width:0.5;" width="497" x="7" y="499"/><ellipse cx="192.75" cy="521.291" fill="#ADD1B2" rx="11" ry="11" style="stroke:#181818;stroke-width:1.0;"/><path d="M195.5156,517.166 Q195.6719,516.9473 195.8594,516.8379 Q196.0469,516.7285 196.2656,516.7285 Q196.6406,516.7285 196.875,516.9941 Q197.1094,517.2441 197.1094,517.8535 L197.1094,519.3066 Q197.1094,519.916 196.875,520.1816 Q196.6406,520.4473 196.2656,520.4473 Q195.9219,520.4473 195.7188,520.2441 Q195.5156,520.0566 195.4063,519.541 Q195.3594,519.1816 195.1719,518.9941 Q194.8438,518.6191 194.2344,518.4004 Q193.625,518.1816 193,518.1816 Q192.2344,518.1816 191.5938,518.5098 Q190.9688,518.8379 190.4688,519.5879 Q189.9844,520.3379 189.9844,521.3691 L189.9844,522.4629 Q189.9844,523.6973 190.875,524.5254 Q191.7656,525.3379 193.3594,525.3379 Q194.2969,525.3379 194.9531,525.0879 Q195.3438,524.9316 195.7656,524.4941 Q196.0313,524.2285 196.1719,524.1504 Q196.3281,524.0723 196.5313,524.0723 Q196.8594,524.0723 197.1094,524.3379 Q197.375,524.5879 197.375,524.9316 Q197.375,525.2754 197.0313,525.6816 Q196.5313,526.2598 195.7344,526.5879 Q194.6563,527.041 193.3594,527.041 Q191.8438,527.041 190.6406,526.416 Q189.6563,525.916 188.9688,524.8535 Q188.2813,523.7754 188.2813,522.4941 L188.2813,521.3379 Q188.2813,520.0098 188.8906,518.8691 Q189.5156,517.7129 190.6094,517.1035 Q191.7031,516.4785 192.9375,516.4785 Q193.6719,516.4785 194.3125,516.6504 Q194.9688,516.8066 195.5156,517.166 Z " fill="#000000"/><text fill="#000000" font-family="sans-serif" font-size="12" font-style="italic" lengthAdjust="spacing" textLength="73" x="235.25" y="516.9492">&#171;Repository&#187;</text><text fill="#000000" font-family="sans-serif" font-size="14" lengthAdjust="spacing" textLength="117" x="213.25" y="535.0684">StudentRepository</text><line style="stroke:#181818;stroke-width:0.5;" x1="8" x2="503" y1="543.582" y2="543.582"/><line style="stroke:#181818;stroke-width:0.5;" x1="8" x2="503" y1="551.582" y2="551.582"/><ellipse cx="18" cy="566.3926" fill="#84BE84" rx="3" ry="3" style="stroke:#038048;stroke-width:1.0;"/><text fill="#000000" font-family="sans-serif" font-size="14" lengthAdjust="spacing" textLength="471" x="27" y="570.6895">Optional&lt;Student&gt; : findByMecanographicNumber(mecanographicNumber)</text></g><!--class CourseRepository--><g id="elem_CourseRepository"><rect codeLine="21" fill="#F1F1F1" height="79.2031" id="CourseRepository" rx="2.5" ry="2.5" style="stroke:#181818;stroke-width:0.5;" width="248" x="539.5" y="499"/><ellipse cx="602.25" cy="521.291" fill="#ADD1B2" rx="11" ry="11" style="stroke:#181818;stroke-width:1.0;"/><path d="M605.0156,517.166 Q605.1719,516.9473 605.3594,516.8379 Q605.5469,516.7285 605.7656,516.7285 Q606.1406,516.7285 606.375,516.9941 Q606.6094,517.2441 606.6094,517.8535 L606.6094,519.3066 Q606.6094,519.916 606.375,520.1816 Q606.1406,520.4473 605.7656,520.4473 Q605.4219,520.4473 605.2188,520.2441 Q605.0156,520.0566 604.9063,519.541 Q604.8594,519.1816 604.6719,518.9941 Q604.3438,518.6191 603.7344,518.4004 Q603.125,518.1816 602.5,518.1816 Q601.7344,518.1816 601.0938,518.5098 Q600.4688,518.8379 599.9688,519.5879 Q599.4844,520.3379 599.4844,521.3691 L599.4844,522.4629 Q599.4844,523.6973 600.375,524.5254 Q601.2656,525.3379 602.8594,525.3379 Q603.7969,525.3379 604.4531,525.0879 Q604.8438,524.9316 605.2656,524.4941 Q605.5313,524.2285 605.6719,524.1504 Q605.8281,524.0723 606.0313,524.0723 Q606.3594,524.0723 606.6094,524.3379 Q606.875,524.5879 606.875,524.9316 Q606.875,525.2754 606.5313,525.6816 Q606.0313,526.2598 605.2344,526.5879 Q604.1563,527.041 602.8594,527.041 Q601.3438,527.041 600.1406,526.416 Q599.1563,525.916 598.4688,524.8535 Q597.7813,523.7754 597.7813,522.4941 L597.7813,521.3379 Q597.7813,520.0098 598.3906,518.8691 Q599.0156,517.7129 600.1094,517.1035 Q601.2031,516.4785 602.4375,516.4785 Q603.1719,516.4785 603.8125,516.6504 Q604.4688,516.8066 605.0156,517.166 Z " fill="#000000"/><text fill="#000000" font-family="sans-serif" font-size="12" font-style="italic" lengthAdjust="spacing" textLength="73" x="643.25" y="516.9492">&#171;Repository&#187;</text><text fill="#000000" font-family="sans-serif" font-size="14" lengthAdjust="spacing" textLength="114" x="622.75" y="535.0684">CourseRepository</text><line style="stroke:#181818;stroke-width:0.5;" x1="540.5" x2="786.5" y1="543.582" y2="543.582"/><line style="stroke:#181818;stroke-width:0.5;" x1="540.5" x2="786.5" y1="551.582" y2="551.582"/><ellipse cx="550.5" cy="566.3926" fill="#84BE84" rx="3" ry="3" style="stroke:#038048;stroke-width:1.0;"/><text fill="#000000" font-family="sans-serif" font-size="14" lengthAdjust="spacing" textLength="222" x="559.5" y="570.6895">Course : findByName(courseName)</text></g><!--class EnrollmentBuilder--><g id="elem_EnrollmentBuilder"><rect codeLine="25" fill="#F1F1F1" height="135.0664" id="EnrollmentBuilder" rx="2.5" ry="2.5" style="stroke:#181818;stroke-width:0.5;" width="396" x="822.5" y="471"/><ellipse cx="960.75" cy="493.291" fill="#ADD1B2" rx="11" ry="11" style="stroke:#181818;stroke-width:1.0;"/><path d="M963.5156,489.166 Q963.6719,488.9473 963.8594,488.8379 Q964.0469,488.7285 964.2656,488.7285 Q964.6406,488.7285 964.875,488.9941 Q965.1094,489.2441 965.1094,489.8535 L965.1094,491.3066 Q965.1094,491.916 964.875,492.1816 Q964.6406,492.4473 964.2656,492.4473 Q963.9219,492.4473 963.7188,492.2441 Q963.5156,492.0566 963.4063,491.541 Q963.3594,491.1816 963.1719,490.9941 Q962.8438,490.6191 962.2344,490.4004 Q961.625,490.1816 961,490.1816 Q960.2344,490.1816 959.5938,490.5098 Q958.9688,490.8379 958.4688,491.5879 Q957.9844,492.3379 957.9844,493.3691 L957.9844,494.4629 Q957.9844,495.6973 958.875,496.5254 Q959.7656,497.3379 961.3594,497.3379 Q962.2969,497.3379 962.9531,497.0879 Q963.3438,496.9316 963.7656,496.4941 Q964.0313,496.2285 964.1719,496.1504 Q964.3281,496.0723 964.5313,496.0723 Q964.8594,496.0723 965.1094,496.3379 Q965.375,496.5879 965.375,496.9316 Q965.375,497.2754 965.0313,497.6816 Q964.5313,498.2598 963.7344,498.5879 Q962.6563,499.041 961.3594,499.041 Q959.8438,499.041 958.6406,498.416 Q957.6563,497.916 956.9688,496.8535 Q956.2813,495.7754 956.2813,494.4941 L956.2813,493.3379 Q956.2813,492.0098 956.8906,490.8691 Q957.5156,489.7129 958.6094,489.1035 Q959.7031,488.4785 960.9375,488.4785 Q961.6719,488.4785 962.3125,488.6504 Q962.9688,488.8066 963.5156,489.166 Z " fill="#000000"/><text fill="#000000" font-family="sans-serif" font-size="12" font-style="italic" lengthAdjust="spacing" textLength="53" x="1010.25" y="488.9492">&#171;Builder&#187;</text><text fill="#000000" font-family="sans-serif" font-size="14" lengthAdjust="spacing" textLength="111" x="981.25" y="507.0684">EnrollmentBuilder</text><line style="stroke:#181818;stroke-width:0.5;" x1="823.5" x2="1217.5" y1="515.582" y2="515.582"/><line style="stroke:#181818;stroke-width:0.5;" x1="823.5" x2="1217.5" y1="523.582" y2="523.582"/><ellipse cx="833.5" cy="538.3926" fill="#84BE84" rx="3" ry="3" style="stroke:#038048;stroke-width:1.0;"/><text fill="#000000" font-family="sans-serif" font-size="14" lengthAdjust="spacing" textLength="370" x="842.5" y="542.6895">EnrollmentBuilder : withEnrollmentStatus(enrollmentStatus)</text><ellipse cx="833.5" cy="557.0137" fill="#84BE84" rx="3" ry="3" style="stroke:#038048;stroke-width:1.0;"/><text fill="#000000" font-family="sans-serif" font-size="14" lengthAdjust="spacing" textLength="241" x="842.5" y="561.3105">EnrollmentBuilder : ofStudent(student)</text><ellipse cx="833.5" cy="575.6348" fill="#84BE84" rx="3" ry="3" style="stroke:#038048;stroke-width:1.0;"/><text fill="#000000" font-family="sans-serif" font-size="14" lengthAdjust="spacing" textLength="233" x="842.5" y="579.9316">EnrollmentBuilder : inCourse(course)</text><ellipse cx="833.5" cy="594.2559" fill="#84BE84" rx="3" ry="3" style="stroke:#038048;stroke-width:1.0;"/><text fill="#000000" font-family="sans-serif" font-size="14" lengthAdjust="spacing" textLength="119" x="842.5" y="598.5527">Enrollment : build()</text></g><!--class Enrollment--><g id="elem_Enrollment"><rect codeLine="32" fill="#F1F1F1" height="172.3086" id="Enrollment" rx="2.5" ry="2.5" style="stroke:#181818;stroke-width:0.5;" width="277" x="1042" y="685"/><ellipse cx="1142.75" cy="707.291" fill="#ADD1B2" rx="11" ry="11" style="stroke:#181818;stroke-width:1.0;"/><path d="M1145.5156,703.166 Q1145.6719,702.9473 1145.8594,702.8379 Q1146.0469,702.7285 1146.2656,702.7285 Q1146.6406,702.7285 1146.875,702.9941 Q1147.1094,703.2441 1147.1094,703.8535 L1147.1094,705.3066 Q1147.1094,705.916 1146.875,706.1816 Q1146.6406,706.4473 1146.2656,706.4473 Q1145.9219,706.4473 1145.7188,706.2441 Q1145.5156,706.0566 1145.4063,705.541 Q1145.3594,705.1816 1145.1719,704.9941 Q1144.8438,704.6191 1144.2344,704.4004 Q1143.625,704.1816 1143,704.1816 Q1142.2344,704.1816 1141.5938,704.5098 Q1140.9688,704.8379 1140.4688,705.5879 Q1139.9844,706.3379 1139.9844,707.3691 L1139.9844,708.4629 Q1139.9844,709.6973 1140.875,710.5254 Q1141.7656,711.3379 1143.3594,711.3379 Q1144.2969,711.3379 1144.9531,711.0879 Q1145.3438,710.9316 1145.7656,710.4941 Q1146.0313,710.2285 1146.1719,710.1504 Q1146.3281,710.0723 1146.5313,710.0723 Q1146.8594,710.0723 1147.1094,710.3379 Q1147.375,710.5879 1147.375,710.9316 Q1147.375,711.2754 1147.0313,711.6816 Q1146.5313,712.2598 1145.7344,712.5879 Q1144.6563,713.041 1143.3594,713.041 Q1141.8438,713.041 1140.6406,712.416 Q1139.6563,711.916 1138.9688,710.8535 Q1138.2813,709.7754 1138.2813,708.4941 L1138.2813,707.3379 Q1138.2813,706.0098 1138.8906,704.8691 Q1139.5156,703.7129 1140.6094,703.1035 Q1141.7031,702.4785 1142.9375,702.4785 Q1143.6719,702.4785 1144.3125,702.6504 Q1144.9688,702.8066 1145.5156,703.166 Z " fill="#000000"/><text fill="#000000" font-family="sans-serif" font-size="12" font-style="italic" lengthAdjust="spacing" textLength="58" x="1167.75" y="702.9492">&#171;Domain&#187;</text><text fill="#000000" font-family="sans-serif" font-size="14" lengthAdjust="spacing" textLength="67" x="1163.25" y="721.0684">Enrollment</text><line style="stroke:#181818;stroke-width:0.5;" x1="1043" x2="1318" y1="729.582" y2="729.582"/><rect fill="none" height="6" style="stroke:#C82930;stroke-width:1.0;" width="6" x="1050" y="741.3926"/><text fill="#000000" font-family="sans-serif" font-size="14" lengthAdjust="spacing" textLength="123" x="1062" y="748.6895">Long : enrollmentID</text><rect fill="none" height="6" style="stroke:#C82930;stroke-width:1.0;" width="6" x="1050" y="760.0137"/><text fill="#000000" font-family="sans-serif" font-size="14" lengthAdjust="spacing" textLength="108" x="1062" y="767.3105">Student : student</text><rect fill="none" height="6" style="stroke:#C82930;stroke-width:1.0;" width="6" x="1050" y="778.6348"/><text fill="#000000" font-family="sans-serif" font-size="14" lengthAdjust="spacing" textLength="101" x="1062" y="785.9316">Course : course</text><rect fill="none" height="6" style="stroke:#C82930;stroke-width:1.0;" width="6" x="1050" y="797.2559"/><text fill="#000000" font-family="sans-serif" font-size="14" lengthAdjust="spacing" textLength="225" x="1062" y="804.5527">EnrollmentStatus : enrollmentStatus</text><rect fill="none" height="6" style="stroke:#C82930;stroke-width:1.0;" width="6" x="1050" y="815.877"/><text fill="#000000" font-family="sans-serif" font-size="14" lengthAdjust="spacing" textLength="135" x="1062" y="823.1738">Grade : courseGrade</text><rect fill="none" height="6" style="stroke:#C82930;stroke-width:1.0;" width="6" x="1050" y="834.498"/><text fill="#000000" font-family="sans-serif" font-size="14" lengthAdjust="spacing" textLength="251" x="1062" y="841.7949">List&lt;ExamEnrollment&gt; : examEnrollment</text><line style="stroke:#181818;stroke-width:0.5;" x1="1043" x2="1318" y1="849.3086" y2="849.3086"/></g><!--class EnrollmentRepository--><g id="elem_EnrollmentRepository"><rect codeLine="41" fill="#F1F1F1" height="66.6211" id="EnrollmentRepository" rx="2.5" ry="2.5" style="stroke:#181818;stroke-width:0.5;" width="174" x="1253.5" y="505"/><ellipse cx="1271.65" cy="521" fill="#ADD1B2" rx="11" ry="11" style="stroke:#181818;stroke-width:1.0;"/><path d="M1274.4156,516.875 Q1274.5719,516.6563 1274.7594,516.5469 Q1274.9469,516.4375 1275.1656,516.4375 Q1275.5406,516.4375 1275.775,516.7031 Q1276.0094,516.9531 1276.0094,517.5625 L1276.0094,519.0156 Q1276.0094,519.625 1275.775,519.8906 Q1275.5406,520.1563 1275.1656,520.1563 Q1274.8219,520.1563 1274.6188,519.9531 Q1274.4156,519.7656 1274.3063,519.25 Q1274.2594,518.8906 1274.0719,518.7031 Q1273.7438,518.3281 1273.1344,518.1094 Q1272.525,517.8906 1271.9,517.8906 Q1271.1344,517.8906 1270.4938,518.2188 Q1269.8688,518.5469 1269.3688,519.2969 Q1268.8844,520.0469 1268.8844,521.0781 L1268.8844,522.1719 Q1268.8844,523.4063 1269.775,524.2344 Q1270.6656,525.0469 1272.2594,525.0469 Q1273.1969,525.0469 1273.8531,524.7969 Q1274.2438,524.6406 1274.6656,524.2031 Q1274.9313,523.9375 1275.0719,523.8594 Q1275.2281,523.7813 1275.4313,523.7813 Q1275.7594,523.7813 1276.0094,524.0469 Q1276.275,524.2969 1276.275,524.6406 Q1276.275,524.9844 1275.9313,525.3906 Q1275.4313,525.9688 1274.6344,526.2969 Q1273.5563,526.75 1272.2594,526.75 Q1270.7438,526.75 1269.5406,526.125 Q1268.5563,525.625 1267.8688,524.5625 Q1267.1813,523.4844 1267.1813,522.2031 L1267.1813,521.0469 Q1267.1813,519.7188 1267.7906,518.5781 Q1268.4156,517.4219 1269.5094,516.8125 Q1270.6031,516.1875 1271.8375,516.1875 Q1272.5719,516.1875 1273.2125,516.3594 Q1273.8688,516.5156 1274.4156,516.875 Z " fill="#000000"/><text fill="#000000" font-family="sans-serif" font-size="14" lengthAdjust="spacing" textLength="135" x="1286.35" y="526.7969">EnrollmentRepository</text><line style="stroke:#181818;stroke-width:0.5;" x1="1254.5" x2="1426.5" y1="537" y2="537"/><line style="stroke:#181818;stroke-width:0.5;" x1="1254.5" x2="1426.5" y1="545" y2="545"/><ellipse cx="1264.5" cy="559.8105" fill="#84BE84" rx="3" ry="3" style="stroke:#038048;stroke-width:1.0;"/><text fill="#000000" font-family="sans-serif" font-size="14" lengthAdjust="spacing" textLength="148" x="1273.5" y="564.1074">void : save (enrollment)</text></g><!--link BulkEnrollStudentsUI to BulkEnrollStudentsController--><g id="link_BulkEnrollStudentsUI_BulkEnrollStudentsController"><path codeLine="45" d="M683.5,68.35 C683.5,84.2 683.5,104.3 683.5,123.39 " fill="none" id="BulkEnrollStudentsUI-to-BulkEnrollStudentsController" style="stroke:#181818;stroke-width:1.0;stroke-dasharray:7.0,7.0;"/><polygon fill="#181818" points="683.5,128.74,687.5,119.74,683.5,123.74,679.5,119.74,683.5,128.74" style="stroke:#181818;stroke-width:1.0;"/></g><!--link BulkEnrollStudentsController to BulkEnrollStudentsService--><g id="link_BulkEnrollStudentsController_BulkEnrollStudentsService"><path codeLine="46" d="M683.5,245.22 C683.5,263.01 683.5,282.6 683.5,300.35 " fill="none" id="BulkEnrollStudentsController-to-BulkEnrollStudentsService" style="stroke:#181818;stroke-width:1.0;stroke-dasharray:7.0,7.0;"/><polygon fill="#181818" points="683.5,305.8,687.5,296.8,683.5,300.8,679.5,296.8,683.5,305.8" style="stroke:#181818;stroke-width:1.0;"/></g><!--link BulkEnrollStudentsService to StudentRepository--><g id="link_BulkEnrollStudentsService_StudentRepository"><path codeLine="47" d="M578.25,402.89 C509.36,431.62 420,468.9 352.77,496.93 " fill="none" id="BulkEnrollStudentsService-to-StudentRepository" style="stroke:#181818;stroke-width:1.0;"/><polygon fill="#181818" points="347.97,498.93,357.8164,499.15,352.5833,497.0019,354.7314,491.7687,347.97,498.93" style="stroke:#181818;stroke-width:1.0;"/></g><!--link BulkEnrollStudentsService to CourseRepository--><g id="link_BulkEnrollStudentsService_CourseRepository"><path codeLine="48" d="M677.77,410.15 C674.82,436.5 671.25,468.31 668.42,493.55 " fill="none" id="BulkEnrollStudentsService-to-CourseRepository" style="stroke:#181818;stroke-width:1.0;"/><polygon fill="#181818" points="667.83,498.83,672.8075,490.3315,668.3869,493.8611,664.8572,489.4405,667.83,498.83" style="stroke:#181818;stroke-width:1.0;"/></g><!--link BulkEnrollStudentsService to EnrollmentRepository--><g id="link_BulkEnrollStudentsService_EnrollmentRepository"><path codeLine="49" d="M788.74,368.84 C902.3,382.07 1086.83,411.21 1235.5,471 C1255.25,478.94 1275.37,490.64 1292.64,502.01 " fill="none" id="BulkEnrollStudentsService-to-EnrollmentRepository" style="stroke:#181818;stroke-width:1.0;"/><polygon fill="#181818" points="1296.97,504.9,1291.7003,496.5795,1292.8097,502.1265,1287.2627,503.2359,1296.97,504.9" style="stroke:#181818;stroke-width:1.0;"/></g><!--link BulkEnrollStudentsService to EnrollmentBuilder--><g id="link_BulkEnrollStudentsService_EnrollmentBuilder"><path codeLine="50" d="M780.07,410.15 C814.37,428.32 853.56,449.07 890.2,468.49 " fill="none" id="BulkEnrollStudentsService-to-EnrollmentBuilder" style="stroke:#181818;stroke-width:1.0;"/><polygon fill="#181818" points="894.66,470.85,888.5855,463.0975,890.2435,468.506,884.8351,470.1639,894.66,470.85" style="stroke:#181818;stroke-width:1.0;"/></g><!--link EnrollmentBuilder to Enrollment--><g id="link_EnrollmentBuilder_Enrollment"><path codeLine="51" d="M1066.78,606.17 C1082.92,629.42 1101.3,655.9 1118.51,680.7 " fill="none" id="EnrollmentBuilder-to-Enrollment" style="stroke:#181818;stroke-width:1.0;"/><polygon fill="#181818" points="1121.48,684.98,1119.6389,675.3048,1118.631,680.8711,1113.0646,679.8632,1121.48,684.98" style="stroke:#181818;stroke-width:1.0;"/><polygon fill="#000000" points="1108.351,649.7531,1105.6079,640.6467,1100.7792,643.9982,1108.351,649.7531" style="stroke:#000000;stroke-width:1.0;"/><text fill="#000000" font-family="sans-serif" font-size="13" lengthAdjust="spacing" textLength="43" x="1114.5" y="651.0283">creates</text></g><!--link EnrollmentRepository to Enrollment--><g id="link_EnrollmentRepository_Enrollment"><path codeLine="52" d="M1317.92,572.04 C1298.3,600.29 1268.95,642.57 1242.41,680.81 " fill="none" id="EnrollmentRepository-to-Enrollment" style="stroke:#181818;stroke-width:1.0;"/><polygon fill="#181818" points="1239.52,684.97,1247.927,679.8395,1242.3623,680.8565,1241.3454,675.2918,1239.52,684.97" style="stroke:#181818;stroke-width:1.0;"/><polygon fill="#000000" points="1272.6487,649.7528,1280.221,643.9986,1275.3926,640.6467,1272.6487,649.7528" style="stroke:#000000;stroke-width:1.0;"/><text fill="#000000" font-family="sans-serif" font-size="13" lengthAdjust="spacing" textLength="33" x="1284.5" y="651.0283">saves</text></g><!--SRC=[hLJTRe8m5BxdANg9MVG13E72dncIpIKpFa25epOhBMaBcp5xznKu2bX4ByO5SBv-v_GxFstCgTPablElfL2Iyut94n16RoCI1Die3CdP-_My-0vjBeKfRL2MtXYL6x7F2tbb7CYKi3IJofI6dr5p7E7gJaeEL5X2GJbBg86AihUl2oKI1Wus_fJidEsHE21m0wfWCVoVd4Aov2ajY7z29ZKpKfriXHgZLQ6Fp30fA0_G8xJXzqmaizCxn5J8WwBPaSNhFDs1ybCNQsqwbxdIy7ZFcdVTQ4rJyECAAtzR0UiSKojhbZEUL7t6lrOubpKbtymS6tnZgCcr3pV0Q220t6D1V5r_XyXCr2bX5Ywrwfbb-xt9sQmMCgLCN9CQapSf3jQhaHmjS0LrsKLKXlYrghK8H6-Bq8bPGyXSAPeqxfLrqSAq2PO_D6s2bMC27QGliTOedBiJh6a1fDMGgYwz5y5a4WuUVM_mNkZtndFftJ-nut7edg47_DlnVq3lAzFJBZXxdZkDNLxPJmNsAj4az7eRu_3BrfJiFm00]--></g></svg>