<?xml version="1.0" encoding="us-ascii" standalone="no"?><svg xmlns="http://www.w3.org/2000/svg" xmlns:xlink="http://www.w3.org/1999/xlink" contentStyleType="text/css" height="1293px" preserveAspectRatio="none" style="width:1908px;height:1293px;background:#FFFFFF;" version="1.1" viewBox="0 0 1908 1293" width="1908px" zoomAndPan="magnify"><defs/><g><rect fill="#FFFFFF" height="1062.8359" style="stroke:#181818;stroke-width:1.0;" width="10" x="485" y="121.5332"/><rect fill="#FFFFFF" height="93.873" style="stroke:#181818;stroke-width:1.0;" width="10" x="712" y="246.6973"/><rect fill="#FFFFFF" height="93.873" style="stroke:#181818;stroke-width:1.0;" width="10" x="712" y="371.8613"/><rect fill="#FFFFFF" height="566.8398" style="stroke:#181818;stroke-width:1.0;" width="10" x="712" y="523.3164"/><rect fill="#FFFFFF" height="31.291" style="stroke:#181818;stroke-width:1.0;" width="10" x="939" y="277.9883"/><rect fill="#FFFFFF" height="31.291" style="stroke:#181818;stroke-width:1.0;" width="10" x="939" y="403.1523"/><rect fill="#FFFFFF" height="504.2578" style="stroke:#181818;stroke-width:1.0;" width="10" x="939" y="554.6074"/><rect fill="#FFFFFF" height="31.291" style="stroke:#181818;stroke-width:1.0;" width="10" x="1296" y="669.7715"/><rect fill="#FFFFFF" height="31.291" style="stroke:#181818;stroke-width:1.0;" width="10" x="1427.5" y="732.3535"/><rect fill="#FFFFFF" height="31.291" style="stroke:#181818;stroke-width:1.0;" width="10" x="1560" y="943.9922"/><rect fill="none" height="696.6348" style="stroke:#000000;stroke-width:1.5;" width="1891.5" x="10" y="480.7344"/><rect fill="none" height="427.6758" style="stroke:#000000;stroke-width:1.5;" width="1067.5" x="824" y="600.8984"/><rect fill="none" height="394.3848" style="stroke:#000000;stroke-width:1.5;" width="1047.5" x="834" y="627.1895"/><rect fill="none" height="235.9297" style="stroke:#000000;stroke-width:1.5;" width="1027.5" x="844" y="778.6445"/><line style="stroke:#181818;stroke-width:0.5;stroke-dasharray:5.0,5.0;" x1="51" x2="51" y1="88.2422" y2="1194.3691"/><line style="stroke:#181818;stroke-width:0.5;stroke-dasharray:5.0,5.0;" x1="489.5" x2="489.5" y1="88.2422" y2="1194.3691"/><line style="stroke:#181818;stroke-width:0.5;stroke-dasharray:5.0,5.0;" x1="716.5" x2="716.5" y1="88.2422" y2="1194.3691"/><line style="stroke:#181818;stroke-width:0.5;stroke-dasharray:5.0,5.0;" x1="944" x2="944" y1="88.2422" y2="1194.3691"/><line style="stroke:#181818;stroke-width:0.5;stroke-dasharray:5.0,5.0;" x1="1300.5" x2="1300.5" y1="88.2422" y2="1194.3691"/><line style="stroke:#181818;stroke-width:0.5;stroke-dasharray:5.0,5.0;" x1="1432.5" x2="1432.5" y1="88.2422" y2="1194.3691"/><line style="stroke:#181818;stroke-width:0.5;stroke-dasharray:5.0,5.0;" x1="1564.5" x2="1564.5" y1="88.2422" y2="1194.3691"/><line style="stroke:#181818;stroke-width:0.5;stroke-dasharray:5.0,5.0;" x1="1673.5" x2="1673.5" y1="88.2422" y2="1194.3691"/><line style="stroke:#181818;stroke-width:0.5;stroke-dasharray:5.0,5.0;" x1="1790.5" x2="1790.5" y1="88.2422" y2="1194.3691"/><text fill="#000000" font-family="FG Virgil" font-size="14" lengthAdjust="spacing" textLength="56" x="20" y="84.7285">Manager</text><ellipse cx="51" cy="18.1211" fill="#E3E3E3" rx="8" ry="8" style="stroke:#181818;stroke-width:0.5;"/><path d="M51,26.1211 L51,53.1211 M38,34.1211 L64,34.1211 M51,53.1211 L38,68.1211 M51,53.1211 L64,68.1211 " fill="none" style="stroke:#181818;stroke-width:0.5;"/><text fill="#000000" font-family="FG Virgil" font-size="14" lengthAdjust="spacing" textLength="56" x="20" y="1208.4766">Manager</text><ellipse cx="51" cy="1220.4902" fill="#E3E3E3" rx="8" ry="8" style="stroke:#181818;stroke-width:0.5;"/><path d="M51,1228.4902 L51,1255.4902 M38,1236.4902 L64,1236.4902 M51,1255.4902 L38,1270.4902 M51,1255.4902 L64,1270.4902 " fill="none" style="stroke:#181818;stroke-width:0.5;"/><rect fill="#E3E3E3" height="51.2422" rx="2.5" ry="2.5" style="stroke:#181818;stroke-width:0.5;" width="145" x="417.5" y="36"/><text fill="#000000" font-family="FG Virgil" font-size="14" font-style="italic" lengthAdjust="spacing" textLength="95" x="442.5" y="58.1074">&#171;presentation&#187;</text><text fill="#000000" font-family="FG Virgil" font-size="14" lengthAdjust="spacing" textLength="131" x="424.5" y="76.7285">BulkEnrollStudentsUI</text><rect fill="#E3E3E3" height="51.2422" rx="2.5" ry="2.5" style="stroke:#181818;stroke-width:0.5;" width="145" x="417.5" y="1193.3691"/><text fill="#000000" font-family="FG Virgil" font-size="14" font-style="italic" lengthAdjust="spacing" textLength="95" x="442.5" y="1215.4766">&#171;presentation&#187;</text><text fill="#000000" font-family="FG Virgil" font-size="14" lengthAdjust="spacing" textLength="131" x="424.5" y="1234.0977">BulkEnrollStudentsUI</text><text fill="#000000" font-family="FG Virgil" font-size="14" font-style="italic" lengthAdjust="spacing" textLength="84" x="672" y="66.1074">&#171;application&#187;</text><text fill="#000000" font-family="FG Virgil" font-size="14" lengthAdjust="spacing" textLength="181" x="623.5" y="84.7285">BulkEnrollStudentsController</text><ellipse cx="717" cy="35" fill="#E3E3E3" rx="12" ry="12" style="stroke:#181818;stroke-width:0.5;"/><polygon fill="#181818" points="713,23,719,18,717,23,719,28,713,23" style="stroke:#181818;stroke-width:1.0;"/><text fill="#000000" font-family="FG Virgil" font-size="14" font-style="italic" lengthAdjust="spacing" textLength="84" x="672" y="1208.4766">&#171;application&#187;</text><text fill="#000000" font-family="FG Virgil" font-size="14" lengthAdjust="spacing" textLength="181" x="623.5" y="1227.0977">BulkEnrollStudentsController</text><ellipse cx="717" cy="1246.6113" fill="#E3E3E3" rx="12" ry="12" style="stroke:#181818;stroke-width:0.5;"/><polygon fill="#181818" points="713,1234.6113,719,1229.6113,717,1234.6113,719,1239.6113,713,1234.6113" style="stroke:#181818;stroke-width:1.0;"/><rect fill="#E3E3E3" height="51.2422" rx="2.5" ry="2.5" style="stroke:#181818;stroke-width:0.5;" width="180" x="854" y="36"/><text fill="#000000" font-family="FG Virgil" font-size="14" font-style="italic" lengthAdjust="spacing" textLength="60" x="914" y="58.1074">&#171;service&#187;</text><text fill="#000000" font-family="FG Virgil" font-size="14" lengthAdjust="spacing" textLength="166" x="861" y="76.7285">BulkEnrollStudentsService</text><rect fill="#E3E3E3" height="51.2422" rx="2.5" ry="2.5" style="stroke:#181818;stroke-width:0.5;" width="180" x="854" y="1193.3691"/><text fill="#000000" font-family="FG Virgil" font-size="14" font-style="italic" lengthAdjust="spacing" textLength="60" x="914" y="1215.4766">&#171;service&#187;</text><text fill="#000000" font-family="FG Virgil" font-size="14" lengthAdjust="spacing" textLength="166" x="861" y="1234.0977">BulkEnrollStudentsService</text><text fill="#000000" font-family="FG Virgil" font-size="14" font-style="italic" lengthAdjust="spacing" textLength="79" x="1258.5" y="66.1074">&#171;repository&#187;</text><text fill="#000000" font-family="FG Virgil" font-size="14" lengthAdjust="spacing" textLength="117" x="1239.5" y="84.7285">StudentRepository</text><path d="M1283,15 C1283,5 1301,5 1301,5 C1301,5 1319,5 1319,15 L1319,41 C1319,51 1301,51 1301,51 C1301,51 1283,51 1283,41 L1283,15 " fill="#E3E3E3" style="stroke:#181818;stroke-width:1.5;"/><path d="M1283,15 C1283,25 1301,25 1301,25 C1301,25 1319,25 1319,15 " fill="none" style="stroke:#181818;stroke-width:1.5;"/><text fill="#000000" font-family="FG Virgil" font-size="14" font-style="italic" lengthAdjust="spacing" textLength="79" x="1258.5" y="1208.4766">&#171;repository&#187;</text><text fill="#000000" font-family="FG Virgil" font-size="14" lengthAdjust="spacing" textLength="117" x="1239.5" y="1227.0977">StudentRepository</text><path d="M1283,1240.6113 C1283,1230.6113 1301,1230.6113 1301,1230.6113 C1301,1230.6113 1319,1230.6113 1319,1240.6113 L1319,1266.6113 C1319,1276.6113 1301,1276.6113 1301,1276.6113 C1301,1276.6113 1283,1276.6113 1283,1266.6113 L1283,1240.6113 " fill="#E3E3E3" style="stroke:#181818;stroke-width:1.5;"/><path d="M1283,1240.6113 C1283,1250.6113 1301,1250.6113 1301,1250.6113 C1301,1250.6113 1319,1250.6113 1319,1240.6113 " fill="none" style="stroke:#181818;stroke-width:1.5;"/><text fill="#000000" font-family="FG Virgil" font-size="14" font-style="italic" lengthAdjust="spacing" textLength="79" x="1390" y="66.1074">&#171;repository&#187;</text><text fill="#000000" font-family="FG Virgil" font-size="14" lengthAdjust="spacing" textLength="114" x="1372.5" y="84.7285">CourseRepository</text><path d="M1414.5,15 C1414.5,5 1432.5,5 1432.5,5 C1432.5,5 1450.5,5 1450.5,15 L1450.5,41 C1450.5,51 1432.5,51 1432.5,51 C1432.5,51 1414.5,51 1414.5,41 L1414.5,15 " fill="#E3E3E3" style="stroke:#181818;stroke-width:1.5;"/><path d="M1414.5,15 C1414.5,25 1432.5,25 1432.5,25 C1432.5,25 1450.5,25 1450.5,15 " fill="none" style="stroke:#181818;stroke-width:1.5;"/><text fill="#000000" font-family="FG Virgil" font-size="14" font-style="italic" lengthAdjust="spacing" textLength="79" x="1390" y="1208.4766">&#171;repository&#187;</text><text fill="#000000" font-family="FG Virgil" font-size="14" lengthAdjust="spacing" textLength="114" x="1372.5" y="1227.0977">CourseRepository</text><path d="M1414.5,1240.6113 C1414.5,1230.6113 1432.5,1230.6113 1432.5,1230.6113 C1432.5,1230.6113 1450.5,1230.6113 1450.5,1240.6113 L1450.5,1266.6113 C1450.5,1276.6113 1432.5,1276.6113 1432.5,1276.6113 C1432.5,1276.6113 1414.5,1276.6113 1414.5,1266.6113 L1414.5,1240.6113 " fill="#E3E3E3" style="stroke:#181818;stroke-width:1.5;"/><path d="M1414.5,1240.6113 C1414.5,1250.6113 1432.5,1250.6113 1432.5,1250.6113 C1432.5,1250.6113 1450.5,1250.6113 1450.5,1240.6113 " fill="none" style="stroke:#181818;stroke-width:1.5;"/><rect fill="#E3E3E3" height="51.2422" rx="2.5" ry="2.5" style="stroke:#181818;stroke-width:0.5;" width="125" x="1502.5" y="36"/><text fill="#000000" font-family="FG Virgil" font-size="14" font-style="italic" lengthAdjust="spacing" textLength="59" x="1535.5" y="58.1074">&#171;builder&#187;</text><text fill="#000000" font-family="FG Virgil" font-size="14" lengthAdjust="spacing" textLength="111" x="1509.5" y="76.7285">EnrollmentBuilder</text><rect fill="#E3E3E3" height="51.2422" rx="2.5" ry="2.5" style="stroke:#181818;stroke-width:0.5;" width="125" x="1502.5" y="1193.3691"/><text fill="#000000" font-family="FG Virgil" font-size="14" font-style="italic" lengthAdjust="spacing" textLength="59" x="1535.5" y="1215.4766">&#171;builder&#187;</text><text fill="#000000" font-family="FG Virgil" font-size="14" lengthAdjust="spacing" textLength="111" x="1509.5" y="1234.0977">EnrollmentBuilder</text><text fill="#000000" font-family="FG Virgil" font-size="14" font-style="italic" lengthAdjust="spacing" textLength="64" x="1639" y="66.1074">&#171;Domain&#187;</text><text fill="#000000" font-family="FG Virgil" font-size="14" lengthAdjust="spacing" textLength="67" x="1637.5" y="84.7285">Enrollment</text><ellipse cx="1674" cy="35" fill="#E3E3E3" rx="12" ry="12" style="stroke:#181818;stroke-width:0.5;"/><line style="stroke:#181818;stroke-width:0.5;" x1="1662" x2="1686" y1="49" y2="49"/><text fill="#000000" font-family="FG Virgil" font-size="14" font-style="italic" lengthAdjust="spacing" textLength="64" x="1639" y="1208.4766">&#171;Domain&#187;</text><text fill="#000000" font-family="FG Virgil" font-size="14" lengthAdjust="spacing" textLength="67" x="1637.5" y="1227.0977">Enrollment</text><ellipse cx="1674" cy="1246.6113" fill="#E3E3E3" rx="12" ry="12" style="stroke:#181818;stroke-width:0.5;"/><line style="stroke:#181818;stroke-width:0.5;" x1="1662" x2="1686" y1="1260.6113" y2="1260.6113"/><text fill="#000000" font-family="FG Virgil" font-size="14" font-style="italic" lengthAdjust="spacing" textLength="79" x="1748.5" y="66.1074">&#171;repository&#187;</text><text fill="#000000" font-family="FG Virgil" font-size="14" lengthAdjust="spacing" textLength="135" x="1720.5" y="84.7285">EnrollmentRepository</text><path d="M1773,15 C1773,5 1791,5 1791,5 C1791,5 1809,5 1809,15 L1809,41 C1809,51 1791,51 1791,51 C1791,51 1773,51 1773,41 L1773,15 " fill="#E3E3E3" style="stroke:#181818;stroke-width:1.5;"/><path d="M1773,15 C1773,25 1791,25 1791,25 C1791,25 1809,25 1809,15 " fill="none" style="stroke:#181818;stroke-width:1.5;"/><text fill="#000000" font-family="FG Virgil" font-size="14" font-style="italic" lengthAdjust="spacing" textLength="79" x="1748.5" y="1208.4766">&#171;repository&#187;</text><text fill="#000000" font-family="FG Virgil" font-size="14" lengthAdjust="spacing" textLength="135" x="1720.5" y="1227.0977">EnrollmentRepository</text><path d="M1773,1240.6113 C1773,1230.6113 1791,1230.6113 1791,1230.6113 C1791,1230.6113 1809,1230.6113 1809,1240.6113 L1809,1266.6113 C1809,1276.6113 1791,1276.6113 1791,1276.6113 C1791,1276.6113 1773,1276.6113 1773,1266.6113 L1773,1240.6113 " fill="#E3E3E3" style="stroke:#181818;stroke-width:1.5;"/><path d="M1773,1240.6113 C1773,1250.6113 1791,1250.6113 1791,1250.6113 C1791,1250.6113 1809,1250.6113 1809,1240.6113 " fill="none" style="stroke:#181818;stroke-width:1.5;"/><rect fill="#FFFFFF" height="1062.8359" style="stroke:#181818;stroke-width:1.0;" width="10" x="485" y="121.5332"/><rect fill="#FFFFFF" height="93.873" style="stroke:#181818;stroke-width:1.0;" width="10" x="712" y="246.6973"/><rect fill="#FFFFFF" height="93.873" style="stroke:#181818;stroke-width:1.0;" width="10" x="712" y="371.8613"/><rect fill="#FFFFFF" height="566.8398" style="stroke:#181818;stroke-width:1.0;" width="10" x="712" y="523.3164"/><rect fill="#FFFFFF" height="31.291" style="stroke:#181818;stroke-width:1.0;" width="10" x="939" y="277.9883"/><rect fill="#FFFFFF" height="31.291" style="stroke:#181818;stroke-width:1.0;" width="10" x="939" y="403.1523"/><rect fill="#FFFFFF" height="504.2578" style="stroke:#181818;stroke-width:1.0;" width="10" x="939" y="554.6074"/><rect fill="#FFFFFF" height="31.291" style="stroke:#181818;stroke-width:1.0;" width="10" x="1296" y="669.7715"/><rect fill="#FFFFFF" height="31.291" style="stroke:#181818;stroke-width:1.0;" width="10" x="1427.5" y="732.3535"/><rect fill="#FFFFFF" height="31.291" style="stroke:#181818;stroke-width:1.0;" width="10" x="1560" y="943.9922"/><polygon fill="#181818" points="473,117.5332,483,121.5332,473,125.5332,477,121.5332" style="stroke:#181818;stroke-width:1.0;"/><line style="stroke:#181818;stroke-width:1.0;" x1="51" x2="479" y1="121.5332" y2="121.5332"/><text fill="#000000" font-family="FG Virgil" font-size="13" font-weight="bold" lengthAdjust="spacing" textLength="7" x="58" y="116.2705">1</text><text fill="#000000" font-family="FG Virgil" font-size="13" lengthAdjust="spacing" textLength="160" x="69" y="116.2705">asks to bulk enroll students</text><polygon fill="#181818" points="705,148.8242,715,152.8242,705,156.8242,709,152.8242" style="stroke:#181818;stroke-width:1.0;"/><line style="stroke:#181818;stroke-width:1.0;" x1="495" x2="711" y1="152.8242" y2="152.8242"/><text fill="#000000" font-family="FG Virgil" font-size="13" font-weight="bold" lengthAdjust="spacing" textLength="7" x="502" y="147.5615">2</text><text fill="#000000" font-family="FG Virgil" font-size="13" lengthAdjust="spacing" textLength="44" x="513" y="147.5615">create()</text><polygon fill="#181818" points="62,180.1152,52,184.1152,62,188.1152,58,184.1152" style="stroke:#181818;stroke-width:1.0;"/><line style="stroke:#181818;stroke-width:1.0;stroke-dasharray:2.0,2.0;" x1="56" x2="484" y1="184.1152" y2="184.1152"/><text fill="#000000" font-family="FG Virgil" font-size="13" font-weight="bold" lengthAdjust="spacing" textLength="7" x="68" y="178.8525">3</text><text fill="#000000" font-family="FG Virgil" font-size="13" lengthAdjust="spacing" textLength="118" x="79" y="178.8525">asks for csv file path</text><polygon fill="#181818" points="473,211.4063,483,215.4063,473,219.4063,477,215.4063" style="stroke:#181818;stroke-width:1.0;"/><line style="stroke:#181818;stroke-width:1.0;" x1="51" x2="479" y1="215.4063" y2="215.4063"/><text fill="#000000" font-family="FG Virgil" font-size="13" font-weight="bold" lengthAdjust="spacing" textLength="7" x="58" y="210.1436">4</text><text fill="#000000" font-family="FG Virgil" font-size="13" lengthAdjust="spacing" textLength="88" x="69" y="210.1436">inserts file path</text><polygon fill="#181818" points="700,242.6973,710,246.6973,700,250.6973,704,246.6973" style="stroke:#181818;stroke-width:1.0;"/><line style="stroke:#181818;stroke-width:1.0;" x1="495" x2="706" y1="246.6973" y2="246.6973"/><text fill="#000000" font-family="FG Virgil" font-size="13" font-weight="bold" lengthAdjust="spacing" textLength="7" x="502" y="241.4346">5</text><text fill="#000000" font-family="FG Virgil" font-size="13" lengthAdjust="spacing" textLength="90" x="513" y="241.4346">importFile(path)</text><polygon fill="#181818" points="927,273.9883,937,277.9883,927,281.9883,931,277.9883" style="stroke:#181818;stroke-width:1.0;"/><line style="stroke:#181818;stroke-width:1.0;" x1="722" x2="933" y1="277.9883" y2="277.9883"/><text fill="#000000" font-family="FG Virgil" font-size="13" font-weight="bold" lengthAdjust="spacing" textLength="7" x="729" y="272.7256">6</text><text fill="#000000" font-family="FG Virgil" font-size="13" lengthAdjust="spacing" textLength="90" x="740" y="272.7256">importFile(path)</text><polygon fill="#181818" points="733,305.2793,723,309.2793,733,313.2793,729,309.2793" style="stroke:#181818;stroke-width:1.0;"/><line style="stroke:#181818;stroke-width:1.0;stroke-dasharray:2.0,2.0;" x1="727" x2="943" y1="309.2793" y2="309.2793"/><text fill="#000000" font-family="FG Virgil" font-size="13" font-weight="bold" lengthAdjust="spacing" textLength="7" x="739" y="304.0166">7</text><text fill="#000000" font-family="FG Virgil" font-size="13" lengthAdjust="spacing" textLength="70" x="750" y="304.0166">file imported</text><polygon fill="#181818" points="506,336.5703,496,340.5703,506,344.5703,502,340.5703" style="stroke:#181818;stroke-width:1.0;"/><line style="stroke:#181818;stroke-width:1.0;stroke-dasharray:2.0,2.0;" x1="500" x2="716" y1="340.5703" y2="340.5703"/><text fill="#000000" font-family="FG Virgil" font-size="13" font-weight="bold" lengthAdjust="spacing" textLength="7" x="512" y="335.3076">8</text><text fill="#000000" font-family="FG Virgil" font-size="13" lengthAdjust="spacing" textLength="4" x="523" y="335.3076">&#160;</text><polygon fill="#181818" points="700,367.8613,710,371.8613,700,375.8613,704,371.8613" style="stroke:#181818;stroke-width:1.0;"/><line style="stroke:#181818;stroke-width:1.0;" x1="495" x2="706" y1="371.8613" y2="371.8613"/><text fill="#000000" font-family="FG Virgil" font-size="13" font-weight="bold" lengthAdjust="spacing" textLength="7" x="502" y="366.5986">9</text><text fill="#000000" font-family="FG Virgil" font-size="13" lengthAdjust="spacing" textLength="170" x="513" y="366.5986">validateFile(file) : file imported</text><polygon fill="#181818" points="927,399.1523,937,403.1523,927,407.1523,931,403.1523" style="stroke:#181818;stroke-width:1.0;"/><line style="stroke:#181818;stroke-width:1.0;" x1="722" x2="933" y1="403.1523" y2="403.1523"/><text fill="#000000" font-family="FG Virgil" font-size="13" font-weight="bold" lengthAdjust="spacing" textLength="14" x="729" y="397.8896">10</text><text fill="#000000" font-family="FG Virgil" font-size="13" lengthAdjust="spacing" textLength="84" x="747" y="397.8896">validateFile(file</text><polygon fill="#181818" points="733,430.4434,723,434.4434,733,438.4434,729,434.4434" style="stroke:#181818;stroke-width:1.0;"/><line style="stroke:#181818;stroke-width:1.0;stroke-dasharray:2.0,2.0;" x1="727" x2="943" y1="434.4434" y2="434.4434"/><text fill="#000000" font-family="FG Virgil" font-size="13" font-weight="bold" lengthAdjust="spacing" textLength="14" x="739" y="429.1807">11</text><text fill="#000000" font-family="FG Virgil" font-size="13" lengthAdjust="spacing" textLength="122" x="757" y="429.1807">file validation boolean</text><polygon fill="#181818" points="506,461.7344,496,465.7344,506,469.7344,502,465.7344" style="stroke:#181818;stroke-width:1.0;"/><line style="stroke:#181818;stroke-width:1.0;stroke-dasharray:2.0,2.0;" x1="500" x2="716" y1="465.7344" y2="465.7344"/><text fill="#000000" font-family="FG Virgil" font-size="13" font-weight="bold" lengthAdjust="spacing" textLength="14" x="512" y="460.4717">12</text><text fill="#000000" font-family="FG Virgil" font-size="13" lengthAdjust="spacing" textLength="122" x="530" y="460.4717">file validation boolean</text><path d="M10,480.7344 L71,480.7344 L71,490.0254 L61,500.0254 L10,500.0254 L10,480.7344 " fill="#EEEEEE" style="stroke:#000000;stroke-width:1.5;"/><rect fill="none" height="696.6348" style="stroke:#000000;stroke-width:1.5;" width="1891.5" x="10" y="480.7344"/><text fill="#000000" font-family="FG Virgil" font-size="13" font-weight="bold" lengthAdjust="spacing" textLength="16" x="25" y="495.7627">alt</text><text fill="#000000" font-family="FG Virgil" font-size="11" font-weight="bold" lengthAdjust="spacing" textLength="106" x="86" y="494.6045">[if fileValid == True]</text><polygon fill="#181818" points="700,519.3164,710,523.3164,700,527.3164,704,523.3164" style="stroke:#181818;stroke-width:1.0;"/><line style="stroke:#181818;stroke-width:1.0;" x1="495" x2="706" y1="523.3164" y2="523.3164"/><text fill="#000000" font-family="FG Virgil" font-size="13" font-weight="bold" lengthAdjust="spacing" textLength="14" x="502" y="518.0537">13</text><text fill="#000000" font-family="FG Virgil" font-size="13" lengthAdjust="spacing" textLength="133" x="520" y="518.0537">bulkEnrollStudents(file)</text><polygon fill="#181818" points="927,550.6074,937,554.6074,927,558.6074,931,554.6074" style="stroke:#181818;stroke-width:1.0;"/><line style="stroke:#181818;stroke-width:1.0;" x1="722" x2="933" y1="554.6074" y2="554.6074"/><text fill="#000000" font-family="FG Virgil" font-size="13" font-weight="bold" lengthAdjust="spacing" textLength="14" x="729" y="549.3447">14</text><text fill="#000000" font-family="FG Virgil" font-size="13" lengthAdjust="spacing" textLength="133" x="747" y="549.3447">bulkEnrollStudents(file)</text><polygon fill="#181818" points="1553,581.8984,1563,585.8984,1553,589.8984,1557,585.8984" style="stroke:#181818;stroke-width:1.0;"/><line style="stroke:#181818;stroke-width:1.0;" x1="949" x2="1559" y1="585.8984" y2="585.8984"/><text fill="#000000" font-family="FG Virgil" font-size="13" font-weight="bold" lengthAdjust="spacing" textLength="14" x="956" y="580.6357">15</text><text fill="#000000" font-family="FG Virgil" font-size="13" lengthAdjust="spacing" textLength="44" x="974" y="580.6357">create()</text><path d="M824,600.8984 L885,600.8984 L885,610.1895 L875,620.1895 L824,620.1895 L824,600.8984 " fill="#EEEEEE" style="stroke:#000000;stroke-width:1.5;"/><rect fill="none" height="427.6758" style="stroke:#000000;stroke-width:1.5;" width="1067.5" x="824" y="600.8984"/><text fill="#000000" font-family="FG Virgil" font-size="13" font-weight="bold" lengthAdjust="spacing" textLength="16" x="839" y="615.9268">alt</text><text fill="#000000" font-family="FG Virgil" font-size="11" font-weight="bold" lengthAdjust="spacing" textLength="137" x="900" y="614.7686">[while file.hasNextLine()]</text><path d="M834,627.1895 L895,627.1895 L895,636.4805 L885,646.4805 L834,646.4805 L834,627.1895 " fill="#EEEEEE" style="stroke:#000000;stroke-width:1.5;"/><rect fill="none" height="394.3848" style="stroke:#000000;stroke-width:1.5;" width="1047.5" x="834" y="627.1895"/><text fill="#000000" font-family="FG Virgil" font-size="13" font-weight="bold" lengthAdjust="spacing" textLength="16" x="849" y="642.2178">alt</text><text fill="#000000" font-family="FG Virgil" font-size="11" font-weight="bold" lengthAdjust="spacing" textLength="110" x="910" y="641.0596">[if line is not empty]</text><polygon fill="#181818" points="1284,665.7715,1294,669.7715,1284,673.7715,1288,669.7715" style="stroke:#181818;stroke-width:1.0;"/><line style="stroke:#181818;stroke-width:1.0;" x1="949" x2="1290" y1="669.7715" y2="669.7715"/><text fill="#000000" font-family="FG Virgil" font-size="13" font-weight="bold" lengthAdjust="spacing" textLength="14" x="956" y="664.5088">16</text><text fill="#000000" font-family="FG Virgil" font-size="13" lengthAdjust="spacing" textLength="310" x="974" y="664.5088">findByMecanographicNumber(mecanographicNumber)</text><polygon fill="#181818" points="960,697.0625,950,701.0625,960,705.0625,956,701.0625" style="stroke:#181818;stroke-width:1.0;"/><line style="stroke:#181818;stroke-width:1.0;stroke-dasharray:2.0,2.0;" x1="954" x2="1300" y1="701.0625" y2="701.0625"/><text fill="#000000" font-family="FG Virgil" font-size="13" font-weight="bold" lengthAdjust="spacing" textLength="14" x="966" y="695.7998">17</text><text fill="#000000" font-family="FG Virgil" font-size="13" lengthAdjust="spacing" textLength="43" x="984" y="695.7998">student</text><polygon fill="#181818" points="1415.5,728.3535,1425.5,732.3535,1415.5,736.3535,1419.5,732.3535" style="stroke:#181818;stroke-width:1.0;"/><line style="stroke:#181818;stroke-width:1.0;" x1="949" x2="1421.5" y1="732.3535" y2="732.3535"/><text fill="#000000" font-family="FG Virgil" font-size="13" font-weight="bold" lengthAdjust="spacing" textLength="14" x="956" y="727.0908">18</text><text fill="#000000" font-family="FG Virgil" font-size="13" lengthAdjust="spacing" textLength="110" x="974" y="727.0908">findByName(name)</text><polygon fill="#181818" points="960,759.6445,950,763.6445,960,767.6445,956,763.6445" style="stroke:#181818;stroke-width:1.0;"/><line style="stroke:#181818;stroke-width:1.0;stroke-dasharray:2.0,2.0;" x1="954" x2="1431.5" y1="763.6445" y2="763.6445"/><text fill="#000000" font-family="FG Virgil" font-size="13" font-weight="bold" lengthAdjust="spacing" textLength="14" x="966" y="758.3818">19</text><text fill="#000000" font-family="FG Virgil" font-size="13" lengthAdjust="spacing" textLength="39" x="984" y="758.3818">course</text><path d="M844,778.6445 L905,778.6445 L905,787.9355 L895,797.9355 L844,797.9355 L844,778.6445 " fill="#EEEEEE" style="stroke:#000000;stroke-width:1.5;"/><rect fill="none" height="235.9297" style="stroke:#000000;stroke-width:1.5;" width="1027.5" x="844" y="778.6445"/><text fill="#000000" font-family="FG Virgil" font-size="13" font-weight="bold" lengthAdjust="spacing" textLength="16" x="859" y="793.6729">alt</text><text fill="#000000" font-family="FG Virgil" font-size="11" font-weight="bold" lengthAdjust="spacing" textLength="236" x="920" y="792.5146">[if student is not null and course is not null</text><text fill="#000000" font-family="FG Virgil" font-size="11" font-weight="bold" lengthAdjust="spacing" textLength="216" x="923" y="807.1455">and course.courseStatus is enrollment</text><text fill="#000000" font-family="FG Virgil" font-size="11" font-weight="bold" lengthAdjust="spacing" textLength="460" x="923" y="821.7764">and enrollmentRepository.findStudentEnrollmentInCourse(student, course) == null]</text><polygon fill="#181818" points="1553,846.1191,1563,850.1191,1553,854.1191,1557,850.1191" style="stroke:#181818;stroke-width:1.0;"/><line style="stroke:#181818;stroke-width:1.0;" x1="949" x2="1559" y1="850.1191" y2="850.1191"/><text fill="#000000" font-family="FG Virgil" font-size="13" font-weight="bold" lengthAdjust="spacing" textLength="14" x="956" y="844.8564">20</text><text fill="#000000" font-family="FG Virgil" font-size="13" lengthAdjust="spacing" textLength="305" x="974" y="844.8564">withEnrollmentStatus(EnrollmentStatus.ACCEPTED)</text><polygon fill="#181818" points="1553,877.4102,1563,881.4102,1553,885.4102,1557,881.4102" style="stroke:#181818;stroke-width:1.0;"/><line style="stroke:#181818;stroke-width:1.0;" x1="949" x2="1559" y1="881.4102" y2="881.4102"/><text fill="#000000" font-family="FG Virgil" font-size="13" font-weight="bold" lengthAdjust="spacing" textLength="14" x="956" y="876.1475">21</text><text fill="#000000" font-family="FG Virgil" font-size="13" lengthAdjust="spacing" textLength="106" x="974" y="876.1475">ofStudent(student)</text><polygon fill="#181818" points="1553,908.7012,1563,912.7012,1553,916.7012,1557,912.7012" style="stroke:#181818;stroke-width:1.0;"/><line style="stroke:#181818;stroke-width:1.0;" x1="949" x2="1559" y1="912.7012" y2="912.7012"/><text fill="#000000" font-family="FG Virgil" font-size="13" font-weight="bold" lengthAdjust="spacing" textLength="14" x="956" y="907.4385">22</text><text fill="#000000" font-family="FG Virgil" font-size="13" lengthAdjust="spacing" textLength="98" x="974" y="907.4385">inCourse(course)</text><polygon fill="#181818" points="1548,939.9922,1558,943.9922,1548,947.9922,1552,943.9922" style="stroke:#181818;stroke-width:1.0;"/><line style="stroke:#181818;stroke-width:1.0;" x1="949" x2="1554" y1="943.9922" y2="943.9922"/><text fill="#000000" font-family="FG Virgil" font-size="13" font-weight="bold" lengthAdjust="spacing" textLength="14" x="956" y="938.7295">23</text><text fill="#000000" font-family="FG Virgil" font-size="13" lengthAdjust="spacing" textLength="35" x="974" y="938.7295">build()</text><polygon fill="#181818" points="960,971.2832,950,975.2832,960,979.2832,956,975.2832" style="stroke:#181818;stroke-width:1.0;"/><line style="stroke:#181818;stroke-width:1.0;stroke-dasharray:2.0,2.0;" x1="954" x2="1564" y1="975.2832" y2="975.2832"/><text fill="#000000" font-family="FG Virgil" font-size="13" font-weight="bold" lengthAdjust="spacing" textLength="14" x="966" y="970.0205">24</text><text fill="#000000" font-family="FG Virgil" font-size="13" lengthAdjust="spacing" textLength="60" x="984" y="970.0205">enrollment</text><polygon fill="#181818" points="1779,1002.5742,1789,1006.5742,1779,1010.5742,1783,1006.5742" style="stroke:#181818;stroke-width:1.0;"/><line style="stroke:#181818;stroke-width:1.0;" x1="949" x2="1785" y1="1006.5742" y2="1006.5742"/><text fill="#000000" font-family="FG Virgil" font-size="13" font-weight="bold" lengthAdjust="spacing" textLength="14" x="956" y="1001.3115">25</text><text fill="#000000" font-family="FG Virgil" font-size="13" lengthAdjust="spacing" textLength="94" x="974" y="1001.3115">save(enrollment)</text><polygon fill="#181818" points="733,1054.8652,723,1058.8652,733,1062.8652,729,1058.8652" style="stroke:#181818;stroke-width:1.0;"/><line style="stroke:#181818;stroke-width:1.0;stroke-dasharray:2.0,2.0;" x1="727" x2="943" y1="1058.8652" y2="1058.8652"/><text fill="#000000" font-family="FG Virgil" font-size="13" font-weight="bold" lengthAdjust="spacing" textLength="14" x="739" y="1053.6025">26</text><text fill="#000000" font-family="FG Virgil" font-size="13" lengthAdjust="spacing" textLength="175" x="757" y="1053.6025">number of enrollments created</text><polygon fill="#181818" points="506,1086.1563,496,1090.1563,506,1094.1563,502,1090.1563" style="stroke:#181818;stroke-width:1.0;"/><line style="stroke:#181818;stroke-width:1.0;stroke-dasharray:2.0,2.0;" x1="500" x2="716" y1="1090.1563" y2="1090.1563"/><text fill="#000000" font-family="FG Virgil" font-size="13" font-weight="bold" lengthAdjust="spacing" textLength="14" x="512" y="1084.8936">27</text><text fill="#000000" font-family="FG Virgil" font-size="13" lengthAdjust="spacing" textLength="175" x="530" y="1084.8936">number of enrollments created</text><polygon fill="#181818" points="62,1117.4473,52,1121.4473,62,1125.4473,58,1121.4473" style="stroke:#181818;stroke-width:1.0;"/><line style="stroke:#181818;stroke-width:1.0;stroke-dasharray:2.0,2.0;" x1="56" x2="484" y1="1121.4473" y2="1121.4473"/><text fill="#000000" font-family="FG Virgil" font-size="13" font-weight="bold" lengthAdjust="spacing" textLength="14" x="68" y="1116.1846">28</text><text fill="#000000" font-family="FG Virgil" font-size="13" lengthAdjust="spacing" textLength="392" x="86" y="1116.1846">informs about operation success and number of enrollments created</text><line style="stroke:#000000;stroke-width:1.0;stroke-dasharray:2.0,2.0;" x1="10" x2="1901.5" y1="1130.4473" y2="1130.4473"/><text fill="#000000" font-family="FG Virgil" font-size="11" font-weight="bold" lengthAdjust="spacing" textLength="109" x="15" y="1142.3174">[if fileValid == False]</text><polygon fill="#181818" points="62,1165.3691,52,1169.3691,62,1173.3691,58,1169.3691" style="stroke:#181818;stroke-width:1.0;"/><line style="stroke:#181818;stroke-width:1.0;stroke-dasharray:2.0,2.0;" x1="56" x2="484" y1="1169.3691" y2="1169.3691"/><text fill="#000000" font-family="FG Virgil" font-size="13" font-weight="bold" lengthAdjust="spacing" textLength="14" x="68" y="1164.1064">29</text><text fill="#000000" font-family="FG Virgil" font-size="13" lengthAdjust="spacing" textLength="297" x="86" y="1164.1064">informs about operation insuccess due to invalid file</text><!--SRC=[hLTBJ-Cm4BxdL_YsgRIKEmgLeD0Lqe9MM-2q5pUPDbOTExATilttEtOUTPuKs1nACfxvvflFumVVKcFogylBd5DXYepFOvbTwZqJELKqcwScuq7pIJ8fP9mgcG4ngW1l9AVndkvWROuSY8BOU6C9R6d1pKeAyqGnTFM3l3ArOpwoJcaYtvZOaItb6W9Q62cAR0Cg26Xif2AFL602HQWcDzOGOA1XCSkHEBaj-FvUACdvsXG92ADV7gmd_aPHha2ZYHecnM8HnCW3FGTYbkK8BxDuNr54yvopk8QOJhq6TM0nM8pwDOfq-OR12JLqGpMGolytv58phEZe8dh6A5BDXn- -b8NIq8xksJh1Fl6IT8R9RWl6axBelZ6ADkKRXgEPcQFdr0v1tpkPKIPycgVXDjL1UuTku6QQN2nm8gymQA-9aMI3YXDmuKHNcjicOGTg03q3WW_EF8PvStX5OWNe4CwQSNGe4rJOMtoDzO5i6JPnJatgF3qEwCW4pgJH7P-1R2pBfJ8hT0kjMvcrONboTNRxUD68LNVE250BhF9j1knJnrzqUJdY9IOaJKW2esW-BwT2q0der3AWnO5oXWq1hWXBO3P8v3FgzA3_XpmLA2vsif6I0nMV4keTk749AJU4RLtmguqbrzVasMwuTQe1ZJUzVQXKkg_7WBgZ2f-1-wxMBRqN0rjCPscsW569jzIAQ9FEKwgVuA_voSIGioSTHm_2D17I4CXoSnnqxZ3hxxrs0aLoUto4c0gvKpHFMVpapgKmwzjcerbE0dLpZ8OuSZr65wtkhxQ_KGo_MyzEx2dIEqzgGUn17WhyEQFaBiXanRsCxO9ZDtnElODPnycMRLFfMNUEAF28eIAfqlhcFy8Rc9T_rdZ7ABJrWgR7ApyOEEtcLifgMawBua6KpCEAo_Sgnynk0ZRpTCDChxCtPjAJlUGRTWtpc-No_jVp_TtiAwdajYgjBkHBQAnMfHBZArZkFXDEGpHjr0EO3BDFFsMxXK-jC0dbjVB7E0nMtrh2cXuWFD4OLm944fnh7xADdhBbrHvxn5D3LwT06sRYl1qxSyy37pzz1ww7JE3TCDE4RcHXYCn1bSUvBk8Oj7PB_FsqmEqUqZdNL-x_dG_cnLjebJafmDw9cN2N3DBSWEnqU2M-FFm3]--></g></svg>