<?xml version="1.0" encoding="us-ascii" standalone="no"?><svg xmlns="http://www.w3.org/2000/svg" xmlns:xlink="http://www.w3.org/1999/xlink" contentStyleType="text/css" height="284.5px" preserveAspectRatio="none" style="width:419px;height:284px;background:#FFFFFF;" version="1.1" viewBox="0 0 419 284" width="419.5px" zoomAndPan="magnify"><defs/><g><!--class listExamsInCourseUI--><g id="elem_listExamsInCourseUI"><rect codeLine="2" fill="#F1F1F1" height="30.291" id="listExamsInCourseUI" rx="1.25" ry="1.25" style="stroke:#181818;stroke-width:0.25;" width="79.5" x="185.5" y="3.5"/><ellipse cx="193" cy="14.6455" fill="#ADD1B2" rx="5.5" ry="5.5" style="stroke:#181818;stroke-width:0.5;"/><path d="M194.3828,12.583 Q194.4609,12.4736 194.5547,12.4189 Q194.6484,12.3643 194.7578,12.3643 Q194.9453,12.3643 195.0625,12.4971 Q195.1797,12.6221 195.1797,12.9268 L195.1797,13.6533 Q195.1797,13.958 195.0625,14.0908 Q194.9453,14.2236 194.7578,14.2236 Q194.5859,14.2236 194.4844,14.1221 Q194.3828,14.0283 194.3281,13.7705 Q194.3047,13.5908 194.2109,13.4971 Q194.0469,13.3096 193.7422,13.2002 Q193.4375,13.0908 193.125,13.0908 Q192.7422,13.0908 192.4219,13.2549 Q192.1094,13.4189 191.8594,13.7939 Q191.6172,14.1689 191.6172,14.6846 L191.6172,15.2314 Q191.6172,15.8486 192.0625,16.2627 Q192.5078,16.6689 193.3047,16.6689 Q193.7734,16.6689 194.1016,16.5439 Q194.2969,16.4658 194.5078,16.2471 Q194.6406,16.1143 194.7109,16.0752 Q194.7891,16.0361 194.8906,16.0361 Q195.0547,16.0361 195.1797,16.1689 Q195.3125,16.2939 195.3125,16.4658 Q195.3125,16.6377 195.1406,16.8408 Q194.8906,17.1299 194.4922,17.2939 Q193.9531,17.5205 193.3047,17.5205 Q192.5469,17.5205 191.9453,17.208 Q191.4531,16.958 191.1094,16.4268 Q190.7656,15.8877 190.7656,15.2471 L190.7656,14.6689 Q190.7656,14.0049 191.0703,13.4346 Q191.3828,12.8564 191.9297,12.5518 Q192.4766,12.2393 193.0938,12.2393 Q193.4609,12.2393 193.7813,12.3252 Q194.1094,12.4033 194.3828,12.583 Z " fill="#000000"/><text fill="#000000" font-family="sans-serif" font-size="6" font-style="italic" lengthAdjust="spacing" textLength="13.5" x="225" y="12.4746">&#171;UI&#187;</text><text fill="#000000" font-family="sans-serif" font-size="7" lengthAdjust="spacing" textLength="63.5" x="200" y="21.5342">listExamsInCourseUI</text><line style="stroke:#181818;stroke-width:0.25;" x1="186" x2="264.5" y1="25.791" y2="25.791"/><line style="stroke:#181818;stroke-width:0.25;" x1="186" x2="264.5" y1="29.791" y2="29.791"/></g><!--class listExamsInCourseController--><g id="elem_listExamsInCourseController"><rect codeLine="5" fill="#F1F1F1" height="48.9121" id="listExamsInCourseController" rx="1.25" ry="1.25" style="stroke:#181818;stroke-width:0.25;" width="173.5" x="138.5" y="64.5"/><ellipse cx="178.875" cy="75.6455" fill="#ADD1B2" rx="5.5" ry="5.5" style="stroke:#181818;stroke-width:0.5;"/><path d="M180.2578,73.583 Q180.3359,73.4736 180.4297,73.4189 Q180.5234,73.3643 180.6328,73.3643 Q180.8203,73.3643 180.9375,73.4971 Q181.0547,73.6221 181.0547,73.9268 L181.0547,74.6533 Q181.0547,74.958 180.9375,75.0908 Q180.8203,75.2236 180.6328,75.2236 Q180.4609,75.2236 180.3594,75.1221 Q180.2578,75.0283 180.2031,74.7705 Q180.1797,74.5908 180.0859,74.4971 Q179.9219,74.3096 179.6172,74.2002 Q179.3125,74.0908 179,74.0908 Q178.6172,74.0908 178.2969,74.2549 Q177.9844,74.4189 177.7344,74.7939 Q177.4922,75.1689 177.4922,75.6846 L177.4922,76.2314 Q177.4922,76.8486 177.9375,77.2627 Q178.3828,77.6689 179.1797,77.6689 Q179.6484,77.6689 179.9766,77.5439 Q180.1719,77.4658 180.3828,77.2471 Q180.5156,77.1143 180.5859,77.0752 Q180.6641,77.0361 180.7656,77.0361 Q180.9297,77.0361 181.0547,77.1689 Q181.1875,77.2939 181.1875,77.4658 Q181.1875,77.6377 181.0156,77.8408 Q180.7656,78.1299 180.3672,78.2939 Q179.8281,78.5205 179.1797,78.5205 Q178.4219,78.5205 177.8203,78.208 Q177.3281,77.958 176.9844,77.4268 Q176.6406,76.8877 176.6406,76.2471 L176.6406,75.6689 Q176.6406,75.0049 176.9453,74.4346 Q177.2578,73.8564 177.8047,73.5518 Q178.3516,73.2393 178.9688,73.2393 Q179.3359,73.2393 179.6563,73.3252 Q179.9844,73.4033 180.2578,73.583 Z " fill="#000000"/><text fill="#000000" font-family="sans-serif" font-size="6" font-style="italic" lengthAdjust="spacing" textLength="34" x="216.375" y="73.4746">&#171;Controller&#187;</text><text fill="#000000" font-family="sans-serif" font-size="7" lengthAdjust="spacing" textLength="88.5" x="189.125" y="82.5342">listExamsInCourseController</text><line style="stroke:#181818;stroke-width:0.25;" x1="139" x2="311.5" y1="86.791" y2="86.791"/><line style="stroke:#181818;stroke-width:0.25;" x1="139" x2="311.5" y1="90.791" y2="90.791"/><ellipse cx="144" cy="98.1963" fill="#84BE84" rx="1.5" ry="1.5" style="stroke:#038048;stroke-width:0.5;"/><text fill="#000000" font-family="sans-serif" font-size="7" lengthAdjust="spacing" textLength="152" x="148.5" y="100.3447">List&lt;Course&gt;: listCoursesAvailableForTeacher()</text><ellipse cx="144" cy="107.5068" fill="#84BE84" rx="1.5" ry="1.5" style="stroke:#038048;stroke-width:0.5;"/><text fill="#000000" font-family="sans-serif" font-size="7" lengthAdjust="spacing" textLength="160.5" x="148.5" y="109.6553">List&lt;Exam&gt; : listAllExamsOfCourse(Course course)</text></g><!--class TeachingRepository--><g id="elem_TeachingRepository"><rect codeLine="10" fill="#F1F1F1" height="39.6016" id="TeachingRepository" rx="1.25" ry="1.25" style="stroke:#181818;stroke-width:0.25;" width="229.5" x="3.5" y="144"/><ellipse cx="84.375" cy="155.1455" fill="#ADD1B2" rx="5.5" ry="5.5" style="stroke:#181818;stroke-width:0.5;"/><path d="M85.7578,153.083 Q85.8359,152.9736 85.9297,152.9189 Q86.0234,152.8643 86.1328,152.8643 Q86.3203,152.8643 86.4375,152.9971 Q86.5547,153.1221 86.5547,153.4268 L86.5547,154.1533 Q86.5547,154.458 86.4375,154.5908 Q86.3203,154.7236 86.1328,154.7236 Q85.9609,154.7236 85.8594,154.6221 Q85.7578,154.5283 85.7031,154.2705 Q85.6797,154.0908 85.5859,153.9971 Q85.4219,153.8096 85.1172,153.7002 Q84.8125,153.5908 84.5,153.5908 Q84.1172,153.5908 83.7969,153.7549 Q83.4844,153.9189 83.2344,154.2939 Q82.9922,154.6689 82.9922,155.1846 L82.9922,155.7314 Q82.9922,156.3486 83.4375,156.7627 Q83.8828,157.1689 84.6797,157.1689 Q85.1484,157.1689 85.4766,157.0439 Q85.6719,156.9658 85.8828,156.7471 Q86.0156,156.6143 86.0859,156.5752 Q86.1641,156.5361 86.2656,156.5361 Q86.4297,156.5361 86.5547,156.6689 Q86.6875,156.7939 86.6875,156.9658 Q86.6875,157.1377 86.5156,157.3408 Q86.2656,157.6299 85.8672,157.7939 Q85.3281,158.0205 84.6797,158.0205 Q83.9219,158.0205 83.3203,157.708 Q82.8281,157.458 82.4844,156.9268 Q82.1406,156.3877 82.1406,155.7471 L82.1406,155.1689 Q82.1406,154.5049 82.4453,153.9346 Q82.7578,153.3564 83.3047,153.0518 Q83.8516,152.7393 84.4688,152.7393 Q84.8359,152.7393 85.1563,152.8252 Q85.4844,152.9033 85.7578,153.083 Z " fill="#000000"/><text fill="#000000" font-family="sans-serif" font-size="6" font-style="italic" lengthAdjust="spacing" textLength="36.5" x="108.125" y="152.9746">&#171;Repository&#187;</text><text fill="#000000" font-family="sans-serif" font-size="7" lengthAdjust="spacing" textLength="63.5" x="94.625" y="162.0342">TeachingRepository</text><line style="stroke:#181818;stroke-width:0.25;" x1="4" x2="232.5" y1="166.291" y2="166.291"/><line style="stroke:#181818;stroke-width:0.25;" x1="4" x2="232.5" y1="170.291" y2="170.291"/><ellipse cx="9" cy="177.6963" fill="#84BE84" rx="1.5" ry="1.5" style="stroke:#038048;stroke-width:0.5;"/><text fill="#000000" font-family="sans-serif" font-size="7" lengthAdjust="spacing" textLength="216.5" x="13.5" y="179.8447">List&lt;Course&gt;: findCoursesWhereTeacherTeaches(Teacher teacher)</text></g><!--class ExamRepository--><g id="elem_ExamRepository"><rect codeLine="15" fill="#F1F1F1" height="39.6016" id="ExamRepository" rx="1.25" ry="1.25" style="stroke:#181818;stroke-width:0.25;" width="165.5" x="250.5" y="144"/><ellipse cx="305.625" cy="155.1455" fill="#ADD1B2" rx="5.5" ry="5.5" style="stroke:#181818;stroke-width:0.5;"/><path d="M307.0078,153.083 Q307.0859,152.9736 307.1797,152.9189 Q307.2734,152.8643 307.3828,152.8643 Q307.5703,152.8643 307.6875,152.9971 Q307.8047,153.1221 307.8047,153.4268 L307.8047,154.1533 Q307.8047,154.458 307.6875,154.5908 Q307.5703,154.7236 307.3828,154.7236 Q307.2109,154.7236 307.1094,154.6221 Q307.0078,154.5283 306.9531,154.2705 Q306.9297,154.0908 306.8359,153.9971 Q306.6719,153.8096 306.3672,153.7002 Q306.0625,153.5908 305.75,153.5908 Q305.3672,153.5908 305.0469,153.7549 Q304.7344,153.9189 304.4844,154.2939 Q304.2422,154.6689 304.2422,155.1846 L304.2422,155.7314 Q304.2422,156.3486 304.6875,156.7627 Q305.1328,157.1689 305.9297,157.1689 Q306.3984,157.1689 306.7266,157.0439 Q306.9219,156.9658 307.1328,156.7471 Q307.2656,156.6143 307.3359,156.5752 Q307.4141,156.5361 307.5156,156.5361 Q307.6797,156.5361 307.8047,156.6689 Q307.9375,156.7939 307.9375,156.9658 Q307.9375,157.1377 307.7656,157.3408 Q307.5156,157.6299 307.1172,157.7939 Q306.5781,158.0205 305.9297,158.0205 Q305.1719,158.0205 304.5703,157.708 Q304.0781,157.458 303.7344,156.9268 Q303.3906,156.3877 303.3906,155.7471 L303.3906,155.1689 Q303.3906,154.5049 303.6953,153.9346 Q304.0078,153.3564 304.5547,153.0518 Q305.1016,152.7393 305.7188,152.7393 Q306.0859,152.7393 306.4063,152.8252 Q306.7344,152.9033 307.0078,153.083 Z " fill="#000000"/><text fill="#000000" font-family="sans-serif" font-size="6" font-style="italic" lengthAdjust="spacing" textLength="36.5" x="323.125" y="152.9746">&#171;Repository&#187;</text><text fill="#000000" font-family="sans-serif" font-size="7" lengthAdjust="spacing" textLength="51" x="315.875" y="162.0342">ExamRepository</text><line style="stroke:#181818;stroke-width:0.25;" x1="251" x2="415.5" y1="166.291" y2="166.291"/><line style="stroke:#181818;stroke-width:0.25;" x1="251" x2="415.5" y1="170.291" y2="170.291"/><ellipse cx="256" cy="177.6963" fill="#84BE84" rx="1.5" ry="1.5" style="stroke:#038048;stroke-width:0.5;"/><text fill="#000000" font-family="sans-serif" font-size="7" lengthAdjust="spacing" textLength="152.5" x="260.5" y="179.8447">List&lt;Exam&gt; : findExamOfCourse(Course course)</text></g><!--class Teaching--><g id="elem_Teaching"><rect codeLine="19" fill="#F1F1F1" height="58.2227" id="Teaching" rx="1.25" ry="1.25" style="stroke:#181818;stroke-width:0.25;" width="67.5" x="84.5" y="223"/><ellipse cx="93.575" cy="234.1455" fill="#ADD1B2" rx="5.5" ry="5.5" style="stroke:#181818;stroke-width:0.5;"/><path d="M94.9578,232.083 Q95.0359,231.9736 95.1297,231.9189 Q95.2234,231.8643 95.3328,231.8643 Q95.5203,231.8643 95.6375,231.9971 Q95.7547,232.1221 95.7547,232.4268 L95.7547,233.1533 Q95.7547,233.458 95.6375,233.5908 Q95.5203,233.7236 95.3328,233.7236 Q95.1609,233.7236 95.0594,233.6221 Q94.9578,233.5283 94.9031,233.2705 Q94.8797,233.0908 94.7859,232.9971 Q94.6219,232.8096 94.3172,232.7002 Q94.0125,232.5908 93.7,232.5908 Q93.3172,232.5908 92.9969,232.7549 Q92.6844,232.9189 92.4344,233.2939 Q92.1922,233.6689 92.1922,234.1846 L92.1922,234.7314 Q92.1922,235.3486 92.6375,235.7627 Q93.0828,236.1689 93.8797,236.1689 Q94.3484,236.1689 94.6766,236.0439 Q94.8719,235.9658 95.0828,235.7471 Q95.2156,235.6143 95.2859,235.5752 Q95.3641,235.5361 95.4656,235.5361 Q95.6297,235.5361 95.7547,235.6689 Q95.8875,235.7939 95.8875,235.9658 Q95.8875,236.1377 95.7156,236.3408 Q95.4656,236.6299 95.0672,236.7939 Q94.5281,237.0205 93.8797,237.0205 Q93.1219,237.0205 92.5203,236.708 Q92.0281,236.458 91.6844,235.9268 Q91.3406,235.3877 91.3406,234.7471 L91.3406,234.1689 Q91.3406,233.5049 91.6453,232.9346 Q91.9578,232.3564 92.5047,232.0518 Q93.0516,231.7393 93.6688,231.7393 Q94.0359,231.7393 94.3563,231.8252 Q94.6844,231.9033 94.9578,232.083 Z " fill="#000000"/><text fill="#000000" font-family="sans-serif" font-size="6" font-style="italic" lengthAdjust="spacing" textLength="50" x="99.925" y="231.9746">&#171;Aggregate Root&#187;</text><text fill="#000000" font-family="sans-serif" font-size="7" lengthAdjust="spacing" textLength="29.5" x="110.175" y="241.0342">Teaching</text><line style="stroke:#181818;stroke-width:0.25;" x1="85" x2="151.5" y1="245.291" y2="245.291"/><rect fill="none" height="3" style="stroke:#C82930;stroke-width:0.5;" width="3" x="88.5" y="251.1963"/><text fill="#000000" font-family="sans-serif" font-size="7" lengthAdjust="spacing" textLength="54.5" x="94.5" y="254.8447">Teacher: teacher</text><rect fill="none" height="3" style="stroke:#C82930;stroke-width:0.5;" width="3" x="88.5" y="260.5068"/><text fill="#000000" font-family="sans-serif" font-size="7" lengthAdjust="spacing" textLength="48.5" x="94.5" y="264.1553">Course: course</text><rect fill="none" height="3" style="stroke:#C82930;stroke-width:0.5;" width="3" x="88.5" y="269.8174"/><text fill="#000000" font-family="sans-serif" font-size="7" lengthAdjust="spacing" textLength="46.5" x="94.5" y="273.4658">bool: isPrimary</text><line style="stroke:#181818;stroke-width:0.25;" x1="85" x2="151.5" y1="277.2227" y2="277.2227"/></g><!--class Exam--><g id="elem_Exam"><rect codeLine="25" fill="#F1F1F1" height="58.2227" id="Exam" rx="1.25" ry="1.25" style="stroke:#181818;stroke-width:0.25;" width="88.5" x="289" y="223"/><ellipse cx="307.525" cy="234.1455" fill="#ADD1B2" rx="5.5" ry="5.5" style="stroke:#181818;stroke-width:0.5;"/><path d="M308.9078,232.083 Q308.9859,231.9736 309.0797,231.9189 Q309.1734,231.8643 309.2828,231.8643 Q309.4703,231.8643 309.5875,231.9971 Q309.7047,232.1221 309.7047,232.4268 L309.7047,233.1533 Q309.7047,233.458 309.5875,233.5908 Q309.4703,233.7236 309.2828,233.7236 Q309.1109,233.7236 309.0094,233.6221 Q308.9078,233.5283 308.8531,233.2705 Q308.8297,233.0908 308.7359,232.9971 Q308.5719,232.8096 308.2672,232.7002 Q307.9625,232.5908 307.65,232.5908 Q307.2672,232.5908 306.9469,232.7549 Q306.6344,232.9189 306.3844,233.2939 Q306.1422,233.6689 306.1422,234.1846 L306.1422,234.7314 Q306.1422,235.3486 306.5875,235.7627 Q307.0328,236.1689 307.8297,236.1689 Q308.2984,236.1689 308.6266,236.0439 Q308.8219,235.9658 309.0328,235.7471 Q309.1656,235.6143 309.2359,235.5752 Q309.3141,235.5361 309.4156,235.5361 Q309.5797,235.5361 309.7047,235.6689 Q309.8375,235.7939 309.8375,235.9658 Q309.8375,236.1377 309.6656,236.3408 Q309.4156,236.6299 309.0172,236.7939 Q308.4781,237.0205 307.8297,237.0205 Q307.0719,237.0205 306.4703,236.708 Q305.9781,236.458 305.6344,235.9268 Q305.2906,235.3877 305.2906,234.7471 L305.2906,234.1689 Q305.2906,233.5049 305.5953,232.9346 Q305.9078,232.3564 306.4547,232.0518 Q307.0016,231.7393 307.6188,231.7393 Q307.9859,231.7393 308.3063,231.8252 Q308.6344,231.9033 308.9078,232.083 Z " fill="#000000"/><text fill="#000000" font-family="sans-serif" font-size="6" font-style="italic" lengthAdjust="spacing" textLength="50" x="315.975" y="231.9746">&#171;Aggregate Root&#187;</text><text fill="#000000" font-family="sans-serif" font-size="7" lengthAdjust="spacing" textLength="17" x="332.475" y="241.0342">Exam</text><line style="stroke:#181818;stroke-width:0.25;" x1="289.5" x2="377" y1="245.291" y2="245.291"/><rect fill="none" height="3" style="stroke:#C82930;stroke-width:0.5;" width="3" x="293" y="251.1963"/><text fill="#000000" font-family="sans-serif" font-size="7" lengthAdjust="spacing" textLength="45.5" x="299" y="254.8447">String: examID</text><rect fill="none" height="3" style="stroke:#C82930;stroke-width:0.5;" width="3" x="293" y="260.5068"/><text fill="#000000" font-family="sans-serif" font-size="7" lengthAdjust="spacing" textLength="57" x="299" y="264.1553">String: description</text><rect fill="none" height="3" style="stroke:#C82930;stroke-width:0.5;" width="3" x="293" y="269.8174"/><text fill="#000000" font-family="sans-serif" font-size="7" lengthAdjust="spacing" textLength="75.5" x="299" y="273.4658">DateInterval: timePeriod</text><line style="stroke:#181818;stroke-width:0.25;" x1="289.5" x2="377" y1="277.2227" y2="277.2227"/></g><!--link listExamsInCourseUI to listExamsInCourseController--><g id="link_listExamsInCourseUI_listExamsInCourseController"><path codeLine="31" d="M225.25,34.105 C225.25,42.17 225.25,52.385 225.25,61.78 " fill="none" id="listExamsInCourseUI-to-listExamsInCourseController" style="stroke:#181818;stroke-width:0.5;stroke-dasharray:7.0,7.0;"/><polygon fill="#181818" points="225.25,64.41,227.25,59.91,225.25,61.91,223.25,59.91,225.25,64.41" style="stroke:#181818;stroke-width:0.5;"/></g><!--link listExamsInCourseController to TeachingRepository--><g id="link_listExamsInCourseController_TeachingRepository"><path codeLine="32" d="M190.36,113.545 C176.815,122.885 161.45,133.475 148.395,142.47 " fill="none" id="listExamsInCourseController-to-TeachingRepository" style="stroke:#181818;stroke-width:0.5;stroke-dasharray:7.0,7.0;"/><polygon fill="#181818" points="146.32,143.9,151.1612,142.9987,148.3801,142.4837,148.8951,139.7025,146.32,143.9" style="stroke:#181818;stroke-width:0.5;"/></g><!--link listExamsInCourseController to ExamRepository--><g id="link_listExamsInCourseController_ExamRepository"><path codeLine="33" d="M260.465,113.545 C274.135,122.885 289.645,133.475 302.82,142.47 " fill="none" id="listExamsInCourseController-to-ExamRepository" style="stroke:#181818;stroke-width:0.5;stroke-dasharray:7.0,7.0;"/><polygon fill="#181818" points="304.915,143.9,302.3232,139.7128,302.8493,142.4919,300.0702,143.018,304.915,143.9" style="stroke:#181818;stroke-width:0.5;"/></g><!--link ExamRepository to Exam--><g id="link_ExamRepository_Exam"><path codeLine="35" d="M333.25,183.615 C333.25,194.395 333.25,208.07 333.25,220.32 " fill="none" id="ExamRepository-to-Exam" style="stroke:#181818;stroke-width:0.5;"/><polygon fill="#181818" points="333.25,222.91,335.25,218.41,333.25,220.41,331.25,218.41,333.25,222.91" style="stroke:#181818;stroke-width:0.5;"/><polygon fill="#000000" points="335.75,205.8228,337.2195,201.3002,334.2805,201.3002,335.75,205.8228" style="stroke:#000000;stroke-width:0.5;"/><text fill="#000000" font-family="sans-serif" font-size="6.5" lengthAdjust="spacing" textLength="16.5" x="340.25" y="206.0142">saves</text></g><!--link TeachingRepository to Teaching--><g id="link_TeachingRepository_Teaching"><path codeLine="36" d="M118.25,183.615 C118.25,194.395 118.25,208.07 118.25,220.32 " fill="none" id="TeachingRepository-to-Teaching" style="stroke:#181818;stroke-width:0.5;"/><polygon fill="#181818" points="118.25,222.91,120.25,218.41,118.25,220.41,116.25,218.41,118.25,222.91" style="stroke:#181818;stroke-width:0.5;"/><polygon fill="#000000" points="120.75,205.8228,122.2195,201.3002,119.2805,201.3002,120.75,205.8228" style="stroke:#000000;stroke-width:0.5;"/><text fill="#000000" font-family="sans-serif" font-size="6.5" lengthAdjust="spacing" textLength="16.5" x="125.25" y="206.0142">saves</text></g><!--SRC=[ZL9VIyCm47_FfxZ75Ua-G2c1iYaK1CTq-9orjnf8at69nI5-TzEcCvRLkRvSV-5-VowNIWbhGKdhxZz4QqkzCkzaSLT2dkzApk6JVJ5MpNUjZ7Pab4BotH4CBF3V7JnwIXwQUJO8162BJaWbzWeV3BsWgDwG5iblKc_48N0AfGRVfqDWBqA1QYX9J3WeITriyMYiT8PEFbW4VmOxI5sFmLvz4XmJXM8N8mGNQiAYOv_hHhVpHBrP_t_pD5wrQ1h2HZY4hJ6Eyo2SZi6oSx9m6lIoKJ2SxOrH6KYx8TaAEaq7c37mqTDdHzuz0_GjvJhY6cr5ykYaqInTUqwf7L8dl86JBMwGfAbxXxbdjLpoQm-9NNjaFVTonVzIfZjYR8hJb0zta84L7LhWxDB2z_mi8_QnRm00]--></g></svg>