<?xml version="1.0" encoding="us-ascii" standalone="no"?><svg xmlns="http://www.w3.org/2000/svg" xmlns:xlink="http://www.w3.org/1999/xlink" contentStyleType="text/css" height="689px" preserveAspectRatio="none" style="width:1013px;height:689px;background:#FFFFFF;" version="1.1" viewBox="0 0 1013 689" width="1013px" zoomAndPan="magnify"><defs/><g><rect fill="#FFFFFF" height="474.3652" style="stroke:#181818;stroke-width:1.0;" width="10" x="29.5" y="98.2422"/><rect fill="#FFFFFF" height="460.0742" style="stroke:#181818;stroke-width:1.0;" width="10" x="221.5" y="121.5332"/><rect fill="#FFFFFF" height="93.873" style="stroke:#181818;stroke-width:1.0;" width="10" x="480.5" y="184.1152"/><rect fill="#FFFFFF" height="209.7461" style="stroke:#181818;stroke-width:1.0;" width="10" x="480.5" y="371.8613"/><rect fill="#FFFFFF" height="31.291" style="stroke:#181818;stroke-width:1.0;" width="10" x="822.5" y="215.4063"/><rect fill="#FFFFFF" height="178.4551" style="stroke:#181818;stroke-width:1.0;" width="10" x="953" y="403.1523"/><line style="stroke:#181818;stroke-width:0.5;stroke-dasharray:5.0,5.0;" x1="34" x2="34" y1="88.2422" y2="590.6074"/><line style="stroke:#181818;stroke-width:0.5;stroke-dasharray:5.0,5.0;" x1="226" x2="226" y1="88.2422" y2="590.6074"/><line style="stroke:#181818;stroke-width:0.5;stroke-dasharray:5.0,5.0;" x1="485" x2="485" y1="88.2422" y2="590.6074"/><line style="stroke:#181818;stroke-width:0.5;stroke-dasharray:5.0,5.0;" x1="827" x2="827" y1="88.2422" y2="590.6074"/><line style="stroke:#181818;stroke-width:0.5;stroke-dasharray:5.0,5.0;" x1="958" x2="958" y1="88.2422" y2="590.6074"/><text fill="#000000" font-family="FG Virgil" font-size="14" lengthAdjust="spacing" textLength="53" x="5" y="84.7285">Teacher</text><ellipse cx="34.5" cy="18.1211" fill="#E3E3E3" rx="8" ry="8" style="stroke:#181818;stroke-width:0.5;"/><path d="M34.5,26.1211 L34.5,53.1211 M21.5,34.1211 L47.5,34.1211 M34.5,53.1211 L21.5,68.1211 M34.5,53.1211 L47.5,68.1211 " fill="none" style="stroke:#181818;stroke-width:0.5;"/><text fill="#000000" font-family="FG Virgil" font-size="14" lengthAdjust="spacing" textLength="53" x="5" y="604.7148">Teacher</text><ellipse cx="34.5" cy="616.7285" fill="#E3E3E3" rx="8" ry="8" style="stroke:#181818;stroke-width:0.5;"/><path d="M34.5,624.7285 L34.5,651.7285 M21.5,632.7285 L47.5,632.7285 M34.5,651.7285 L21.5,666.7285 M34.5,651.7285 L47.5,666.7285 " fill="none" style="stroke:#181818;stroke-width:0.5;"/><rect fill="#E3E3E3" height="51.2422" rx="2.5" ry="2.5" style="stroke:#181818;stroke-width:0.5;" width="141" x="156" y="36"/><text fill="#000000" font-family="FG Virgil" font-size="14" font-style="italic" lengthAdjust="spacing" textLength="95" x="179" y="58.1074">&#171;presentation&#187;</text><text fill="#000000" font-family="FG Virgil" font-size="14" lengthAdjust="spacing" textLength="127" x="163" y="76.7285">listExamsInCourseUI</text><rect fill="#E3E3E3" height="51.2422" rx="2.5" ry="2.5" style="stroke:#181818;stroke-width:0.5;" width="141" x="156" y="589.6074"/><text fill="#000000" font-family="FG Virgil" font-size="14" font-style="italic" lengthAdjust="spacing" textLength="95" x="179" y="611.7148">&#171;presentation&#187;</text><text fill="#000000" font-family="FG Virgil" font-size="14" lengthAdjust="spacing" textLength="127" x="163" y="630.3359">listExamsInCourseUI</text><text fill="#000000" font-family="FG Virgil" font-size="14" font-style="italic" lengthAdjust="spacing" textLength="84" x="440.5" y="66.1074">&#171;application&#187;</text><text fill="#000000" font-family="FG Virgil" font-size="14" lengthAdjust="spacing" textLength="177" x="394" y="84.7285">listExamsInCourseController</text><ellipse cx="485.5" cy="35" fill="#E3E3E3" rx="12" ry="12" style="stroke:#181818;stroke-width:0.5;"/><polygon fill="#181818" points="481.5,23,487.5,18,485.5,23,487.5,28,481.5,23" style="stroke:#181818;stroke-width:1.0;"/><text fill="#000000" font-family="FG Virgil" font-size="14" font-style="italic" lengthAdjust="spacing" textLength="84" x="440.5" y="604.7148">&#171;application&#187;</text><text fill="#000000" font-family="FG Virgil" font-size="14" lengthAdjust="spacing" textLength="177" x="394" y="623.3359">listExamsInCourseController</text><ellipse cx="485.5" cy="642.8496" fill="#E3E3E3" rx="12" ry="12" style="stroke:#181818;stroke-width:0.5;"/><polygon fill="#181818" points="481.5,630.8496,487.5,625.8496,485.5,630.8496,487.5,635.8496,481.5,630.8496" style="stroke:#181818;stroke-width:1.0;"/><text fill="#000000" font-family="FG Virgil" font-size="14" font-style="italic" lengthAdjust="spacing" textLength="79" x="785" y="66.1074">&#171;repository&#187;</text><text fill="#000000" font-family="FG Virgil" font-size="14" lengthAdjust="spacing" textLength="127" x="761" y="84.7285">TeachingRepository</text><path d="M809.5,15 C809.5,5 827.5,5 827.5,5 C827.5,5 845.5,5 845.5,15 L845.5,41 C845.5,51 827.5,51 827.5,51 C827.5,51 809.5,51 809.5,41 L809.5,15 " fill="#E3E3E3" style="stroke:#181818;stroke-width:1.5;"/><path d="M809.5,15 C809.5,25 827.5,25 827.5,25 C827.5,25 845.5,25 845.5,15 " fill="none" style="stroke:#181818;stroke-width:1.5;"/><text fill="#000000" font-family="FG Virgil" font-size="14" font-style="italic" lengthAdjust="spacing" textLength="79" x="785" y="604.7148">&#171;repository&#187;</text><text fill="#000000" font-family="FG Virgil" font-size="14" lengthAdjust="spacing" textLength="127" x="761" y="623.3359">TeachingRepository</text><path d="M809.5,636.8496 C809.5,626.8496 827.5,626.8496 827.5,626.8496 C827.5,626.8496 845.5,626.8496 845.5,636.8496 L845.5,662.8496 C845.5,672.8496 827.5,672.8496 827.5,672.8496 C827.5,672.8496 809.5,672.8496 809.5,662.8496 L809.5,636.8496 " fill="#E3E3E3" style="stroke:#181818;stroke-width:1.5;"/><path d="M809.5,636.8496 C809.5,646.8496 827.5,646.8496 827.5,646.8496 C827.5,646.8496 845.5,646.8496 845.5,636.8496 " fill="none" style="stroke:#181818;stroke-width:1.5;"/><text fill="#000000" font-family="FG Virgil" font-size="14" font-style="italic" lengthAdjust="spacing" textLength="79" x="915.5" y="66.1074">&#171;repository&#187;</text><text fill="#000000" font-family="FG Virgil" font-size="14" lengthAdjust="spacing" textLength="102" x="904" y="84.7285">ExamRepository</text><path d="M940,15 C940,5 958,5 958,5 C958,5 976,5 976,15 L976,41 C976,51 958,51 958,51 C958,51 940,51 940,41 L940,15 " fill="#E3E3E3" style="stroke:#181818;stroke-width:1.5;"/><path d="M940,15 C940,25 958,25 958,25 C958,25 976,25 976,15 " fill="none" style="stroke:#181818;stroke-width:1.5;"/><text fill="#000000" font-family="FG Virgil" font-size="14" font-style="italic" lengthAdjust="spacing" textLength="79" x="915.5" y="604.7148">&#171;repository&#187;</text><text fill="#000000" font-family="FG Virgil" font-size="14" lengthAdjust="spacing" textLength="102" x="904" y="623.3359">ExamRepository</text><path d="M940,636.8496 C940,626.8496 958,626.8496 958,626.8496 C958,626.8496 976,626.8496 976,636.8496 L976,662.8496 C976,672.8496 958,672.8496 958,672.8496 C958,672.8496 940,672.8496 940,662.8496 L940,636.8496 " fill="#E3E3E3" style="stroke:#181818;stroke-width:1.5;"/><path d="M940,636.8496 C940,646.8496 958,646.8496 958,646.8496 C958,646.8496 976,646.8496 976,636.8496 " fill="none" style="stroke:#181818;stroke-width:1.5;"/><rect fill="#FFFFFF" height="474.3652" style="stroke:#181818;stroke-width:1.0;" width="10" x="29.5" y="98.2422"/><rect fill="#FFFFFF" height="460.0742" style="stroke:#181818;stroke-width:1.0;" width="10" x="221.5" y="121.5332"/><rect fill="#FFFFFF" height="93.873" style="stroke:#181818;stroke-width:1.0;" width="10" x="480.5" y="184.1152"/><rect fill="#FFFFFF" height="209.7461" style="stroke:#181818;stroke-width:1.0;" width="10" x="480.5" y="371.8613"/><rect fill="#FFFFFF" height="31.291" style="stroke:#181818;stroke-width:1.0;" width="10" x="822.5" y="215.4063"/><rect fill="#FFFFFF" height="178.4551" style="stroke:#181818;stroke-width:1.0;" width="10" x="953" y="403.1523"/><polygon fill="#181818" points="209.5,117.5332,219.5,121.5332,209.5,125.5332,213.5,121.5332" style="stroke:#181818;stroke-width:1.0;"/><line style="stroke:#181818;stroke-width:1.0;" x1="39.5" x2="215.5" y1="121.5332" y2="121.5332"/><text fill="#000000" font-family="FG Virgil" font-size="13" font-weight="bold" lengthAdjust="spacing" textLength="7" x="46.5" y="116.2705">1</text><text fill="#000000" font-family="FG Virgil" font-size="13" lengthAdjust="spacing" textLength="137" x="57.5" y="116.2705">Asks the list of courses</text><polygon fill="#181818" points="473.5,148.8242,483.5,152.8242,473.5,156.8242,477.5,152.8242" style="stroke:#181818;stroke-width:1.0;"/><line style="stroke:#181818;stroke-width:1.0;" x1="231.5" x2="479.5" y1="152.8242" y2="152.8242"/><text fill="#000000" font-family="FG Virgil" font-size="13" font-weight="bold" lengthAdjust="spacing" textLength="7" x="238.5" y="147.5615">2</text><text fill="#000000" font-family="FG Virgil" font-size="13" lengthAdjust="spacing" textLength="44" x="249.5" y="147.5615">create()</text><polygon fill="#181818" points="468.5,180.1152,478.5,184.1152,468.5,188.1152,472.5,184.1152" style="stroke:#181818;stroke-width:1.0;"/><line style="stroke:#181818;stroke-width:1.0;" x1="231.5" x2="474.5" y1="184.1152" y2="184.1152"/><text fill="#000000" font-family="FG Virgil" font-size="13" font-weight="bold" lengthAdjust="spacing" textLength="7" x="238.5" y="178.8525">3</text><text fill="#000000" font-family="FG Virgil" font-size="13" lengthAdjust="spacing" textLength="189" x="249.5" y="178.8525">listCoursesAvailableForTeacher()</text><polygon fill="#181818" points="810.5,211.4063,820.5,215.4063,810.5,219.4063,814.5,215.4063" style="stroke:#181818;stroke-width:1.0;"/><line style="stroke:#181818;stroke-width:1.0;" x1="490.5" x2="816.5" y1="215.4063" y2="215.4063"/><text fill="#000000" font-family="FG Virgil" font-size="13" font-weight="bold" lengthAdjust="spacing" textLength="7" x="497.5" y="210.1436">4</text><text fill="#000000" font-family="FG Virgil" font-size="13" lengthAdjust="spacing" textLength="302" x="508.5" y="210.1436">findCoursesWhereTeacherTeaches(Teacher teacher)</text><polygon fill="#181818" points="501.5,242.6973,491.5,246.6973,501.5,250.6973,497.5,246.6973" style="stroke:#181818;stroke-width:1.0;"/><line style="stroke:#181818;stroke-width:1.0;stroke-dasharray:2.0,2.0;" x1="495.5" x2="826.5" y1="246.6973" y2="246.6973"/><text fill="#000000" font-family="FG Virgil" font-size="13" font-weight="bold" lengthAdjust="spacing" textLength="7" x="507.5" y="241.4346">5</text><text fill="#000000" font-family="FG Virgil" font-size="13" lengthAdjust="spacing" textLength="65" x="518.5" y="241.4346">listCourses</text><polygon fill="#181818" points="242.5,273.9883,232.5,277.9883,242.5,281.9883,238.5,277.9883" style="stroke:#181818;stroke-width:1.0;"/><line style="stroke:#181818;stroke-width:1.0;stroke-dasharray:2.0,2.0;" x1="236.5" x2="484.5" y1="277.9883" y2="277.9883"/><text fill="#000000" font-family="FG Virgil" font-size="13" font-weight="bold" lengthAdjust="spacing" textLength="7" x="248.5" y="272.7256">6</text><text fill="#000000" font-family="FG Virgil" font-size="13" lengthAdjust="spacing" textLength="65" x="259.5" y="272.7256">listCourses</text><polygon fill="#181818" points="50.5,305.2793,40.5,309.2793,50.5,313.2793,46.5,309.2793" style="stroke:#181818;stroke-width:1.0;"/><line style="stroke:#181818;stroke-width:1.0;stroke-dasharray:2.0,2.0;" x1="44.5" x2="220.5" y1="309.2793" y2="309.2793"/><text fill="#000000" font-family="FG Virgil" font-size="13" font-weight="bold" lengthAdjust="spacing" textLength="7" x="56.5" y="304.0166">7</text><text fill="#000000" font-family="FG Virgil" font-size="13" lengthAdjust="spacing" textLength="65" x="67.5" y="304.0166">listCourses</text><polygon fill="#181818" points="209.5,336.5703,219.5,340.5703,209.5,344.5703,213.5,340.5703" style="stroke:#181818;stroke-width:1.0;"/><line style="stroke:#181818;stroke-width:1.0;" x1="39.5" x2="215.5" y1="340.5703" y2="340.5703"/><text fill="#000000" font-family="FG Virgil" font-size="13" font-weight="bold" lengthAdjust="spacing" textLength="7" x="46.5" y="335.3076">8</text><text fill="#000000" font-family="FG Virgil" font-size="13" lengthAdjust="spacing" textLength="96" x="57.5" y="335.3076">selects a course</text><polygon fill="#181818" points="468.5,367.8613,478.5,371.8613,468.5,375.8613,472.5,371.8613" style="stroke:#181818;stroke-width:1.0;"/><line style="stroke:#181818;stroke-width:1.0;" x1="231.5" x2="474.5" y1="371.8613" y2="371.8613"/><text fill="#000000" font-family="FG Virgil" font-size="13" font-weight="bold" lengthAdjust="spacing" textLength="7" x="238.5" y="366.5986">9</text><text fill="#000000" font-family="FG Virgil" font-size="13" lengthAdjust="spacing" textLength="219" x="249.5" y="366.5986">listAllExamsOfCourse(Course course)</text><polygon fill="#181818" points="941,399.1523,951,403.1523,941,407.1523,945,403.1523" style="stroke:#181818;stroke-width:1.0;"/><line style="stroke:#181818;stroke-width:1.0;" x1="490.5" x2="947" y1="403.1523" y2="403.1523"/><text fill="#000000" font-family="FG Virgil" font-size="13" font-weight="bold" lengthAdjust="spacing" textLength="14" x="497.5" y="397.8896">10</text><text fill="#000000" font-family="FG Virgil" font-size="13" lengthAdjust="spacing" textLength="207" x="515.5" y="397.8896">findExamsOfCourse(Course course)</text><polygon fill="#181818" points="501.5,430.4434,491.5,434.4434,501.5,438.4434,497.5,434.4434" style="stroke:#181818;stroke-width:1.0;"/><line style="stroke:#181818;stroke-width:1.0;stroke-dasharray:2.0,2.0;" x1="495.5" x2="952" y1="434.4434" y2="434.4434"/><text fill="#000000" font-family="FG Virgil" font-size="13" font-weight="bold" lengthAdjust="spacing" textLength="14" x="507.5" y="429.1807">11</text><text fill="#000000" font-family="FG Virgil" font-size="13" lengthAdjust="spacing" textLength="99" x="525.5" y="429.1807">listCourseExams</text><polygon fill="#181818" points="242.5,461.7344,232.5,465.7344,242.5,469.7344,238.5,465.7344" style="stroke:#181818;stroke-width:1.0;"/><line style="stroke:#181818;stroke-width:1.0;stroke-dasharray:2.0,2.0;" x1="236.5" x2="479.5" y1="465.7344" y2="465.7344"/><text fill="#000000" font-family="FG Virgil" font-size="13" font-weight="bold" lengthAdjust="spacing" textLength="14" x="248.5" y="460.4717">12</text><text fill="#000000" font-family="FG Virgil" font-size="13" lengthAdjust="spacing" textLength="99" x="266.5" y="460.4717">listCourseExams</text><line style="stroke:#181818;stroke-width:1.0;" x1="231.5" x2="273.5" y1="497.0254" y2="497.0254"/><line style="stroke:#181818;stroke-width:1.0;" x1="273.5" x2="273.5" y1="497.0254" y2="510.0254"/><line style="stroke:#181818;stroke-width:1.0;" x1="232.5" x2="273.5" y1="510.0254" y2="510.0254"/><polygon fill="#181818" points="242.5,506.0254,232.5,510.0254,242.5,514.0254,238.5,510.0254" style="stroke:#181818;stroke-width:1.0;"/><text fill="#000000" font-family="FG Virgil" font-size="13" font-weight="bold" lengthAdjust="spacing" textLength="14" x="238.5" y="491.7627">13</text><text fill="#000000" font-family="FG Virgil" font-size="13" lengthAdjust="spacing" textLength="151" x="256.5" y="491.7627">output Course Exams List</text><polygon fill="#181818" points="50.5,537.3164,40.5,541.3164,50.5,545.3164,46.5,541.3164" style="stroke:#181818;stroke-width:1.0;"/><line style="stroke:#181818;stroke-width:1.0;stroke-dasharray:2.0,2.0;" x1="44.5" x2="220.5" y1="541.3164" y2="541.3164"/><text fill="#000000" font-family="FG Virgil" font-size="13" font-weight="bold" lengthAdjust="spacing" textLength="14" x="56.5" y="536.0537">14</text><text fill="#000000" font-family="FG Virgil" font-size="13" lengthAdjust="spacing" textLength="99" x="74.5" y="536.0537">listCourseExams</text><polygon fill="#181818" points="45.5,568.6074,35.5,572.6074,45.5,576.6074,41.5,572.6074" style="stroke:#181818;stroke-width:1.0;"/><line style="stroke:#181818;stroke-width:1.0;stroke-dasharray:2.0,2.0;" x1="39.5" x2="220.5" y1="572.6074" y2="572.6074"/><text fill="#000000" font-family="FG Virgil" font-size="13" font-weight="bold" lengthAdjust="spacing" textLength="14" x="51.5" y="567.3447">15</text><text fill="#000000" font-family="FG Virgil" font-size="13" lengthAdjust="spacing" textLength="140" x="69.5" y="567.3447">show operation success</text><!--SRC=[bLDDRzim3BtxL_2svD3cRXW1Wc8P30mhq2tRcP7fM8Xi2HBThlz-ikGaikjrdG-IHV8zVZpfKyDiyit6AEouRzMzqEt6dMLdq69xtt2hikiHMjrfqLZT4h3jAV4O56SyqNT-LGIM12U-Ychi5Uzrnz_GG_TVuAUq9vaokmOh_IAx4zIe76KPzgoxlZsIzV-2jOKVXA8X2-XWDnWoZsGffF6LWvAEF__6rfNTW-wjeqCv1FgrA8mbHnqZIzrjjvdmTLYjta8UeaF57CcfAD0O9SM5eKB68pgA9VcYdyXe9trDhmDomLeKzdf82ORyK_3CCWCEev3Fo3IE8AnmjnqQpM7dpWwueT0Qw1f4wClTK8Sooy1_Fjo3aXPp49Pyn6hz5_z06SVaTiye5HuLxRKTHV6mWBicka63FM7ol0i3og6MNJKc-EKPQMIEcrjTrEUuhwVftZ86_qAYktdVIMC1Kz6_MDDcBgD_XsKsYaCvWA9mKrmSuLHIHye_9WSuQdcXM6XYfrIupezr95p5RGIk_qEVsHsCsdoSUmeFlXdZEoA4D1yOyoqktjL3cOFksVGCOsqX0hvwn3NCnorCFgLAjN6DVW5jo8Pt3wuNWfoNAT4slaB__G40]--></g></svg>