<?xml version="1.0" encoding="us-ascii" standalone="no"?><svg xmlns="http://www.w3.org/2000/svg" xmlns:xlink="http://www.w3.org/1999/xlink" contentStyleType="text/css" height="1398px" preserveAspectRatio="none" style="width:940px;height:1398px;background:#FFFFFF;" version="1.1" viewBox="0 0 940 1398" width="940.8px" zoomAndPan="magnify"><defs/><g><!--class TakeAutoExamUI--><g id="elem_TakeAutoExamUI"><rect codeLine="2" fill="#F1F1F1" height="72.6984" id="TakeAutoExamUI" rx="3" ry="3" style="stroke:#181818;stroke-width:0.6;" width="166.8" x="66" y="8.4"/><ellipse cx="84" cy="35.1492" fill="#ADD1B2" rx="13.2" ry="13.2" style="stroke:#181818;stroke-width:1.2;"/><path d="M87.3188,30.1992 Q87.5063,29.9367 87.7313,29.8055 Q87.9563,29.6742 88.2188,29.6742 Q88.6688,29.6742 88.95,29.993 Q89.2313,30.293 89.2313,31.0242 L89.2313,32.768 Q89.2313,33.4992 88.95,33.818 Q88.6688,34.1367 88.2188,34.1367 Q87.8062,34.1367 87.5625,33.893 Q87.3188,33.668 87.1875,33.0492 Q87.1313,32.618 86.9063,32.393 Q86.5125,31.943 85.7813,31.6805 Q85.05,31.418 84.3,31.418 Q83.3813,31.418 82.6125,31.8117 Q81.8625,32.2055 81.2625,33.1055 Q80.6812,34.0055 80.6812,35.243 L80.6812,36.5555 Q80.6812,38.0367 81.75,39.0305 Q82.8188,40.0055 84.7313,40.0055 Q85.8563,40.0055 86.6438,39.7055 Q87.1125,39.518 87.6187,38.993 Q87.9375,38.6742 88.1063,38.5805 Q88.2938,38.4867 88.5375,38.4867 Q88.9312,38.4867 89.2313,38.8055 Q89.55,39.1055 89.55,39.518 Q89.55,39.9305 89.1375,40.418 Q88.5375,41.1117 87.5813,41.5055 Q86.2875,42.0492 84.7313,42.0492 Q82.9125,42.0492 81.4688,41.2992 Q80.2875,40.6992 79.4625,39.4242 Q78.6375,38.1305 78.6375,36.593 L78.6375,35.2055 Q78.6375,33.6117 79.3687,32.243 Q80.1187,30.8555 81.4312,30.1242 Q82.7437,29.3742 84.225,29.3742 Q85.1063,29.3742 85.875,29.5805 Q86.6625,29.768 87.3188,30.1992 Z " fill="#000000"/><text fill="#000000" font-family="sans-serif" font-size="14.4" font-style="italic" lengthAdjust="spacing" textLength="32.4" x="148.8" y="29.9391">&#171;UI&#187;</text><text fill="#000000" font-family="sans-serif" font-size="16.8" lengthAdjust="spacing" textLength="128.4" x="100.8" y="51.682">TakeAutoExamUI</text><line style="stroke:#181818;stroke-width:0.6;" x1="67.2" x2="231.6" y1="61.8984" y2="61.8984"/><line style="stroke:#181818;stroke-width:0.6;" x1="67.2" x2="231.6" y1="71.4984" y2="71.4984"/></g><!--class CreateUpdateAutoExamUI--><g id="elem_CreateUpdateAutoExamUI"><rect codeLine="5" fill="#F1F1F1" height="72.6984" id="CreateUpdateAutoExamUI" rx="3" ry="3" style="stroke:#181818;stroke-width:0.6;" width="234" x="8.4" y="266.4"/><ellipse cx="26.4" cy="293.1492" fill="#ADD1B2" rx="13.2" ry="13.2" style="stroke:#181818;stroke-width:1.2;"/><path d="M29.7188,288.1992 Q29.9063,287.9367 30.1312,287.8055 Q30.3563,287.6742 30.6188,287.6742 Q31.0687,287.6742 31.35,287.993 Q31.6312,288.293 31.6312,289.0242 L31.6312,290.768 Q31.6312,291.4992 31.35,291.818 Q31.0687,292.1367 30.6188,292.1367 Q30.2062,292.1367 29.9625,291.893 Q29.7188,291.668 29.5875,291.0492 Q29.5313,290.618 29.3063,290.393 Q28.9125,289.943 28.1813,289.6805 Q27.45,289.418 26.7,289.418 Q25.7813,289.418 25.0125,289.8117 Q24.2625,290.2055 23.6625,291.1055 Q23.0813,292.0055 23.0813,293.243 L23.0813,294.5555 Q23.0813,296.0367 24.15,297.0305 Q25.2188,298.0055 27.1312,298.0055 Q28.2562,298.0055 29.0438,297.7055 Q29.5125,297.518 30.0187,296.993 Q30.3375,296.6742 30.5062,296.5805 Q30.6937,296.4867 30.9375,296.4867 Q31.3312,296.4867 31.6312,296.8055 Q31.95,297.1055 31.95,297.518 Q31.95,297.9305 31.5375,298.418 Q30.9375,299.1117 29.9813,299.5055 Q28.6875,300.0492 27.1312,300.0492 Q25.3125,300.0492 23.8688,299.2992 Q22.6875,298.6992 21.8625,297.4242 Q21.0375,296.1305 21.0375,294.593 L21.0375,293.2055 Q21.0375,291.6117 21.7688,290.243 Q22.5188,288.8555 23.8313,288.1242 Q25.1438,287.3742 26.625,287.3742 Q27.5062,287.3742 28.275,287.5805 Q29.0625,287.768 29.7188,288.1992 Z " fill="#000000"/><text fill="#000000" font-family="sans-serif" font-size="14.4" font-style="italic" lengthAdjust="spacing" textLength="32.4" x="124.8" y="287.9391">&#171;UI&#187;</text><text fill="#000000" font-family="sans-serif" font-size="16.8" lengthAdjust="spacing" textLength="195.6" x="43.2" y="309.682">CreateUpdateAutoExamUI</text><line style="stroke:#181818;stroke-width:0.6;" x1="9.6" x2="241.2" y1="319.8984" y2="319.8984"/><line style="stroke:#181818;stroke-width:0.6;" x1="9.6" x2="241.2" y1="329.4984" y2="329.4984"/></g><!--class CommonTakeExamUI--><g id="elem_CommonTakeExamUI"><rect codeLine="8" fill="#F1F1F1" height="296.1516" id="CommonTakeExamUI" rx="3" ry="3" style="stroke:#181818;stroke-width:0.6;" width="333.6" x="285" y="154.8"/><ellipse cx="366.3" cy="181.5492" fill="#ADD1B2" rx="13.2" ry="13.2" style="stroke:#181818;stroke-width:1.2;"/><path d="M369.6188,176.5992 Q369.8063,176.3367 370.0313,176.2055 Q370.2562,176.0742 370.5188,176.0742 Q370.9688,176.0742 371.25,176.393 Q371.5313,176.693 371.5313,177.4242 L371.5313,179.168 Q371.5313,179.8992 371.25,180.218 Q370.9688,180.5367 370.5188,180.5367 Q370.1063,180.5367 369.8625,180.293 Q369.6188,180.068 369.4875,179.4492 Q369.4313,179.018 369.2063,178.793 Q368.8125,178.343 368.0813,178.0805 Q367.35,177.818 366.6,177.818 Q365.6813,177.818 364.9125,178.2117 Q364.1625,178.6055 363.5625,179.5055 Q362.9813,180.4055 362.9813,181.643 L362.9813,182.9555 Q362.9813,184.4367 364.05,185.4305 Q365.1188,186.4055 367.0313,186.4055 Q368.1563,186.4055 368.9437,186.1055 Q369.4125,185.918 369.9188,185.393 Q370.2375,185.0742 370.4063,184.9805 Q370.5938,184.8867 370.8375,184.8867 Q371.2313,184.8867 371.5313,185.2055 Q371.85,185.5055 371.85,185.918 Q371.85,186.3305 371.4375,186.818 Q370.8375,187.5117 369.8812,187.9055 Q368.5875,188.4492 367.0313,188.4492 Q365.2125,188.4492 363.7688,187.6992 Q362.5875,187.0992 361.7625,185.8242 Q360.9375,184.5305 360.9375,182.993 L360.9375,181.6055 Q360.9375,180.0117 361.6688,178.643 Q362.4188,177.2555 363.7313,176.5242 Q365.0438,175.7742 366.525,175.7742 Q367.4063,175.7742 368.175,175.9805 Q368.9625,176.168 369.6188,176.5992 Z " fill="#000000"/><text fill="#000000" font-family="sans-serif" font-size="14.4" font-style="italic" lengthAdjust="spacing" textLength="32.4" x="455.1" y="176.3391">&#171;UI&#187;</text><text fill="#000000" font-family="sans-serif" font-size="16.8" lengthAdjust="spacing" textLength="160.8" x="390.9" y="198.082">CommonTakeExamUI</text><line style="stroke:#181818;stroke-width:0.6;" x1="286.2" x2="617.4" y1="208.2984" y2="208.2984"/><line style="stroke:#181818;stroke-width:0.6;" x1="286.2" x2="617.4" y1="217.8984" y2="217.8984"/><ellipse cx="298.2" cy="235.6711" fill="#84BE84" rx="3.6" ry="3.6" style="stroke:#038048;stroke-width:1.2;"/><text fill="#000000" font-family="sans-serif" font-size="16.8" lengthAdjust="spacing" textLength="187.2" x="309" y="240.8273">Grade : takeExam(exam)</text><ellipse cx="298.2" cy="258.0164" fill="#84BE84" rx="3.6" ry="3.6" style="stroke:#038048;stroke-width:1.2;"/><text fill="#000000" font-family="sans-serif" font-size="16.8" lengthAdjust="spacing" textLength="242.4" x="309" y="263.1727">Grade : takeManualExam(exam)</text><ellipse cx="298.2" cy="280.3617" fill="#84BE84" rx="3.6" ry="3.6" style="stroke:#038048;stroke-width:1.2;"/><text fill="#000000" font-family="sans-serif" font-size="16.8" lengthAdjust="spacing" textLength="234" x="309" y="285.518">Grade : takeExamByFile(exam)</text><ellipse cx="298.2" cy="302.707" fill="#84BE84" rx="3.6" ry="3.6" style="stroke:#038048;stroke-width:1.2;"/><text fill="#000000" font-family="sans-serif" font-size="16.8" lengthAdjust="spacing" textLength="302.4" x="309" y="307.8633">String : askForStudentAnswer(question)</text><ellipse cx="298.2" cy="325.0523" fill="#84BE84" rx="3.6" ry="3.6" style="stroke:#038048;stroke-width:1.2;"/><text fill="#000000" font-family="sans-serif" font-size="16.8" lengthAdjust="spacing" textLength="252" x="309" y="330.2086">String : askfForMatchingAnswer()</text><ellipse cx="298.2" cy="347.3977" fill="#84BE84" rx="3.6" ry="3.6" style="stroke:#038048;stroke-width:1.2;"/><text fill="#000000" font-family="sans-serif" font-size="16.8" lengthAdjust="spacing" textLength="280.8" x="309" y="352.5539">String : askfForMissingWordAnswer()</text><ellipse cx="298.2" cy="369.743" fill="#84BE84" rx="3.6" ry="3.6" style="stroke:#038048;stroke-width:1.2;"/><text fill="#000000" font-family="sans-serif" font-size="16.8" lengthAdjust="spacing" textLength="294" x="309" y="374.8992">String : askfForMultipleChoiceAnswer()</text><ellipse cx="298.2" cy="392.0883" fill="#84BE84" rx="3.6" ry="3.6" style="stroke:#038048;stroke-width:1.2;"/><text fill="#000000" font-family="sans-serif" font-size="16.8" lengthAdjust="spacing" textLength="224.4" x="309" y="397.2445">String : askfForShortAnswer()</text><ellipse cx="298.2" cy="414.4336" fill="#84BE84" rx="3.6" ry="3.6" style="stroke:#038048;stroke-width:1.2;"/><text fill="#000000" font-family="sans-serif" font-size="16.8" lengthAdjust="spacing" textLength="244.8" x="309" y="419.5898">String : askfForNumericAnswer()</text><ellipse cx="298.2" cy="436.7789" fill="#84BE84" rx="3.6" ry="3.6" style="stroke:#038048;stroke-width:1.2;"/><text fill="#000000" font-family="sans-serif" font-size="16.8" lengthAdjust="spacing" textLength="280.8" x="309" y="441.9352">String : askfForTrueOrFalseAnswer()</text></g><!--class CommonTakeExamController--><g id="elem_CommonTakeExamController"><rect codeLine="21" fill="#F1F1F1" height="139.7344" id="CommonTakeExamController" rx="3" ry="3" style="stroke:#181818;stroke-width:0.6;" width="368.4" x="153.6" y="524.4"/><ellipse cx="222.3" cy="551.1492" fill="#ADD1B2" rx="13.2" ry="13.2" style="stroke:#181818;stroke-width:1.2;"/><path d="M225.6188,546.1992 Q225.8063,545.9367 226.0313,545.8055 Q226.2563,545.6742 226.5187,545.6742 Q226.9688,545.6742 227.25,545.993 Q227.5313,546.293 227.5313,547.0242 L227.5313,548.768 Q227.5313,549.4992 227.25,549.818 Q226.9688,550.1367 226.5187,550.1367 Q226.1063,550.1367 225.8625,549.893 Q225.6188,549.668 225.4875,549.0492 Q225.4313,548.618 225.2062,548.393 Q224.8125,547.943 224.0812,547.6805 Q223.35,547.418 222.6,547.418 Q221.6813,547.418 220.9125,547.8117 Q220.1625,548.2055 219.5625,549.1055 Q218.9813,550.0055 218.9813,551.243 L218.9813,552.5555 Q218.9813,554.0367 220.05,555.0305 Q221.1188,556.0055 223.0313,556.0055 Q224.1563,556.0055 224.9438,555.7055 Q225.4125,555.518 225.9188,554.993 Q226.2375,554.6742 226.4063,554.5805 Q226.5938,554.4867 226.8375,554.4867 Q227.2313,554.4867 227.5313,554.8055 Q227.85,555.1055 227.85,555.518 Q227.85,555.9305 227.4375,556.418 Q226.8375,557.1117 225.8813,557.5055 Q224.5875,558.0492 223.0313,558.0492 Q221.2125,558.0492 219.7687,557.2992 Q218.5875,556.6992 217.7625,555.4242 Q216.9375,554.1305 216.9375,552.593 L216.9375,551.2055 Q216.9375,549.6117 217.6688,548.243 Q218.4188,546.8555 219.7313,546.1242 Q221.0438,545.3742 222.525,545.3742 Q223.4063,545.3742 224.175,545.5805 Q224.9625,545.768 225.6188,546.1992 Z " fill="#000000"/><text fill="#000000" font-family="sans-serif" font-size="14.4" font-style="italic" lengthAdjust="spacing" textLength="81.6" x="316.5" y="545.9391">&#171;Controller&#187;</text><text fill="#000000" font-family="sans-serif" font-size="16.8" lengthAdjust="spacing" textLength="220.8" x="246.9" y="567.682">CommonTakeExamController</text><line style="stroke:#181818;stroke-width:0.6;" x1="154.8" x2="520.8" y1="577.8984" y2="577.8984"/><line style="stroke:#181818;stroke-width:0.6;" x1="154.8" x2="520.8" y1="587.4984" y2="587.4984"/><ellipse cx="166.8" cy="605.2711" fill="#84BE84" rx="3.6" ry="3.6" style="stroke:#038048;stroke-width:1.2;"/><text fill="#000000" font-family="sans-serif" font-size="16.8" lengthAdjust="spacing" textLength="162" x="177.6" y="610.4273">File : importFile(path)</text><ellipse cx="166.8" cy="627.6164" fill="#84BE84" rx="3.6" ry="3.6" style="stroke:#038048;stroke-width:1.2;"/><text fill="#000000" font-family="sans-serif" font-size="16.8" lengthAdjust="spacing" textLength="337.2" x="177.6" y="632.7727">boolean : correctQuestion(question, answer)</text><ellipse cx="166.8" cy="649.9617" fill="#84BE84" rx="3.6" ry="3.6" style="stroke:#038048;stroke-width:1.2;"/><text fill="#000000" font-family="sans-serif" font-size="16.8" lengthAdjust="spacing" textLength="285.6" x="177.6" y="655.118">Grade : correctExamByFile(exam, file)</text></g><!--class CommonTakeExamService--><g id="elem_CommonTakeExamService"><rect codeLine="27" fill="#F1F1F1" height="139.7344" id="CommonTakeExamService" rx="3" ry="3" style="stroke:#181818;stroke-width:0.6;" width="368.4" x="564" y="524.4"/><ellipse cx="641.7" cy="551.1492" fill="#ADD1B2" rx="13.2" ry="13.2" style="stroke:#181818;stroke-width:1.2;"/><path d="M645.0188,546.1992 Q645.2063,545.9367 645.4313,545.8055 Q645.6563,545.6742 645.9187,545.6742 Q646.3688,545.6742 646.65,545.993 Q646.9313,546.293 646.9313,547.0242 L646.9313,548.768 Q646.9313,549.4992 646.65,549.818 Q646.3688,550.1367 645.9187,550.1367 Q645.5063,550.1367 645.2625,549.893 Q645.0188,549.668 644.8875,549.0492 Q644.8313,548.618 644.6062,548.393 Q644.2125,547.943 643.4812,547.6805 Q642.75,547.418 642,547.418 Q641.0813,547.418 640.3125,547.8117 Q639.5625,548.2055 638.9625,549.1055 Q638.3813,550.0055 638.3813,551.243 L638.3813,552.5555 Q638.3813,554.0367 639.45,555.0305 Q640.5188,556.0055 642.4313,556.0055 Q643.5563,556.0055 644.3438,555.7055 Q644.8125,555.518 645.3188,554.993 Q645.6375,554.6742 645.8063,554.5805 Q645.9938,554.4867 646.2375,554.4867 Q646.6313,554.4867 646.9313,554.8055 Q647.25,555.1055 647.25,555.518 Q647.25,555.9305 646.8375,556.418 Q646.2375,557.1117 645.2813,557.5055 Q643.9875,558.0492 642.4313,558.0492 Q640.6125,558.0492 639.1687,557.2992 Q637.9875,556.6992 637.1625,555.4242 Q636.3375,554.1305 636.3375,552.593 L636.3375,551.2055 Q636.3375,549.6117 637.0688,548.243 Q637.8188,546.8555 639.1313,546.1242 Q640.4438,545.3742 641.925,545.3742 Q642.8063,545.3742 643.575,545.5805 Q644.3625,545.768 645.0188,546.1992 Z " fill="#000000"/><text fill="#000000" font-family="sans-serif" font-size="14.4" font-style="italic" lengthAdjust="spacing" textLength="66" x="734.7" y="545.9391">&#171;Service&#187;</text><text fill="#000000" font-family="sans-serif" font-size="16.8" lengthAdjust="spacing" textLength="202.8" x="666.3" y="567.682">CommonTakeExamService</text><line style="stroke:#181818;stroke-width:0.6;" x1="565.2" x2="931.2" y1="577.8984" y2="577.8984"/><line style="stroke:#181818;stroke-width:0.6;" x1="565.2" x2="931.2" y1="587.4984" y2="587.4984"/><ellipse cx="577.2" cy="605.2711" fill="#84BE84" rx="3.6" ry="3.6" style="stroke:#038048;stroke-width:1.2;"/><text fill="#000000" font-family="sans-serif" font-size="16.8" lengthAdjust="spacing" textLength="162" x="588" y="610.4273">File : importFile(path)</text><ellipse cx="577.2" cy="627.6164" fill="#84BE84" rx="3.6" ry="3.6" style="stroke:#038048;stroke-width:1.2;"/><text fill="#000000" font-family="sans-serif" font-size="16.8" lengthAdjust="spacing" textLength="337.2" x="588" y="632.7727">boolean : correctQuestion(question, answer)</text><ellipse cx="577.2" cy="649.9617" fill="#84BE84" rx="3.6" ry="3.6" style="stroke:#038048;stroke-width:1.2;"/><text fill="#000000" font-family="sans-serif" font-size="16.8" lengthAdjust="spacing" textLength="285.6" x="588" y="655.118">Grade : correctExamByFile(exam, file)</text></g><!--class TakeExamEvalVisitor--><g id="elem_TakeExamEvalVisitor"><rect codeLine="33" fill="#F1F1F1" height="95.0438" id="TakeExamEvalVisitor" rx="3" ry="3" style="stroke:#181818;stroke-width:0.6;" width="278.4" x="609" y="736.8"/><ellipse cx="663.9" cy="763.5492" fill="#ADD1B2" rx="13.2" ry="13.2" style="stroke:#181818;stroke-width:1.2;"/><path d="M667.2188,758.5992 Q667.4063,758.3367 667.6313,758.2055 Q667.8562,758.0742 668.1188,758.0742 Q668.5688,758.0742 668.85,758.393 Q669.1313,758.693 669.1313,759.4242 L669.1313,761.168 Q669.1313,761.8992 668.85,762.218 Q668.5688,762.5367 668.1188,762.5367 Q667.7063,762.5367 667.4625,762.293 Q667.2188,762.068 667.0875,761.4492 Q667.0313,761.018 666.8063,760.793 Q666.4125,760.343 665.6813,760.0805 Q664.95,759.818 664.2,759.818 Q663.2813,759.818 662.5125,760.2117 Q661.7625,760.6055 661.1625,761.5055 Q660.5813,762.4055 660.5813,763.643 L660.5813,764.9555 Q660.5813,766.4367 661.65,767.4305 Q662.7188,768.4055 664.6313,768.4055 Q665.7563,768.4055 666.5437,768.1055 Q667.0125,767.918 667.5188,767.393 Q667.8375,767.0742 668.0063,766.9805 Q668.1938,766.8867 668.4375,766.8867 Q668.8313,766.8867 669.1313,767.2055 Q669.45,767.5055 669.45,767.918 Q669.45,768.3305 669.0375,768.818 Q668.4375,769.5117 667.4812,769.9055 Q666.1875,770.4492 664.6313,770.4492 Q662.8125,770.4492 661.3688,769.6992 Q660.1875,769.0992 659.3625,767.8242 Q658.5375,766.5305 658.5375,764.993 L658.5375,763.6055 Q658.5375,762.0117 659.2688,760.643 Q660.0188,759.2555 661.3313,758.5242 Q662.6438,757.7742 664.125,757.7742 Q665.0063,757.7742 665.775,757.9805 Q666.5625,758.168 667.2188,758.5992 Z " fill="#000000"/><text fill="#000000" font-family="sans-serif" font-size="14.4" font-style="italic" lengthAdjust="spacing" textLength="57.6" x="738.9" y="758.3391">&#171;Visitor&#187;</text><text fill="#000000" font-family="sans-serif" font-size="16.8" lengthAdjust="spacing" textLength="158.4" x="688.5" y="780.082">TakeExamEvalVisitor</text><line style="stroke:#181818;stroke-width:0.6;" x1="610.2" x2="886.2" y1="790.2984" y2="790.2984"/><line style="stroke:#181818;stroke-width:0.6;" x1="610.2" x2="886.2" y1="799.8984" y2="799.8984"/><ellipse cx="622.2" cy="817.6711" fill="#84BE84" rx="3.6" ry="3.6" style="stroke:#038048;stroke-width:1.2;"/><text fill="#000000" font-family="sans-serif" font-size="16.8" lengthAdjust="spacing" textLength="247.2" x="633" y="822.8273">Grade : correctExam(tree, exam)</text></g><!--class Exam--><g id="elem_Exam"><rect codeLine="37" fill="#F1F1F1" height="273.8063" id="Exam" rx="3" ry="3" style="stroke:#181818;stroke-width:0.6;" width="223.2" x="539.4" y="926.4"/><ellipse cx="613.5" cy="953.1492" fill="#ADD1B2" rx="13.2" ry="13.2" style="stroke:#181818;stroke-width:1.2;"/><path d="M616.8188,948.1992 Q617.0063,947.9367 617.2312,947.8055 Q617.4563,947.6742 617.7188,947.6742 Q618.1687,947.6742 618.45,947.993 Q618.7312,948.293 618.7312,949.0242 L618.7312,950.768 Q618.7312,951.4992 618.45,951.818 Q618.1687,952.1367 617.7188,952.1367 Q617.3063,952.1367 617.0625,951.893 Q616.8188,951.668 616.6875,951.0492 Q616.6313,950.618 616.4063,950.393 Q616.0125,949.943 615.2813,949.6805 Q614.55,949.418 613.8,949.418 Q612.8813,949.418 612.1125,949.8117 Q611.3625,950.2055 610.7625,951.1055 Q610.1813,952.0055 610.1813,953.243 L610.1813,954.5555 Q610.1813,956.0367 611.25,957.0305 Q612.3188,958.0055 614.2312,958.0055 Q615.3562,958.0055 616.1438,957.7055 Q616.6125,957.518 617.1188,956.993 Q617.4375,956.6742 617.6062,956.5805 Q617.7937,956.4867 618.0375,956.4867 Q618.4313,956.4867 618.7312,956.8055 Q619.05,957.1055 619.05,957.518 Q619.05,957.9305 618.6375,958.418 Q618.0375,959.1117 617.0813,959.5055 Q615.7875,960.0492 614.2312,960.0492 Q612.4125,960.0492 610.9688,959.2992 Q609.7875,958.6992 608.9625,957.4242 Q608.1375,956.1305 608.1375,954.593 L608.1375,953.2055 Q608.1375,951.6117 608.8688,950.243 Q609.6188,948.8555 610.9313,948.1242 Q612.2438,947.3742 613.725,947.3742 Q614.6062,947.3742 615.375,947.5805 Q616.1625,947.768 616.8188,948.1992 Z " fill="#000000"/><text fill="#000000" font-family="sans-serif" font-size="14.4" font-style="italic" lengthAdjust="spacing" textLength="69.6" x="635.7" y="947.9391">&#171;Domain&#187;</text><text fill="#000000" font-family="sans-serif" font-size="16.8" lengthAdjust="spacing" textLength="40.8" x="650.1" y="969.682">Exam</text><line style="stroke:#181818;stroke-width:0.6;" x1="540.6" x2="761.4" y1="979.8984" y2="979.8984"/><rect fill="none" height="7.2" style="stroke:#C82930;stroke-width:1.2;" width="7.2" x="549" y="994.0711"/><text fill="#000000" font-family="sans-serif" font-size="16.8" lengthAdjust="spacing" textLength="108" x="563.4" y="1002.8273">Long : examID</text><rect fill="none" height="7.2" style="stroke:#C82930;stroke-width:1.2;" width="7.2" x="549" y="1016.4164"/><text fill="#000000" font-family="sans-serif" font-size="16.8" lengthAdjust="spacing" textLength="121.2" x="563.4" y="1025.1727">Course : course</text><rect fill="none" height="7.2" style="stroke:#C82930;stroke-width:1.2;" width="7.2" x="549" y="1038.7617"/><text fill="#000000" font-family="sans-serif" font-size="16.8" lengthAdjust="spacing" textLength="141.6" x="563.4" y="1047.518">String : description</text><rect fill="none" height="7.2" style="stroke:#C82930;stroke-width:1.2;" width="7.2" x="549" y="1061.107"/><text fill="#000000" font-family="sans-serif" font-size="16.8" lengthAdjust="spacing" textLength="124.8" x="563.4" y="1069.8633">Date : openDate</text><rect fill="none" height="7.2" style="stroke:#C82930;stroke-width:1.2;" width="7.2" x="549" y="1083.4523"/><text fill="#000000" font-family="sans-serif" font-size="16.8" lengthAdjust="spacing" textLength="126" x="563.4" y="1092.2086">Date : closeDate</text><rect fill="none" height="7.2" style="stroke:#C82930;stroke-width:1.2;" width="7.2" x="549" y="1105.7977"/><text fill="#000000" font-family="sans-serif" font-size="16.8" lengthAdjust="spacing" textLength="162" x="563.4" y="1114.5539">Language : language</text><rect fill="none" height="7.2" style="stroke:#C82930;stroke-width:1.2;" width="7.2" x="549" y="1128.143"/><text fill="#000000" font-family="sans-serif" font-size="16.8" lengthAdjust="spacing" textLength="123.6" x="563.4" y="1136.8992">Header : header</text><rect fill="none" height="7.2" style="stroke:#C82930;stroke-width:1.2;" width="7.2" x="549" y="1150.4883"/><text fill="#000000" font-family="sans-serif" font-size="16.8" lengthAdjust="spacing" textLength="151.2" x="563.4" y="1159.2445">Structure : structure</text><rect fill="none" height="7.2" style="stroke:#C82930;stroke-width:1.2;" width="7.2" x="549" y="1172.8336"/><text fill="#000000" font-family="sans-serif" font-size="16.8" lengthAdjust="spacing" textLength="192" x="563.4" y="1181.5898">ExamStatus : ExamStatus</text><line style="stroke:#181818;stroke-width:0.6;" x1="540.6" x2="761.4" y1="1190.6063" y2="1190.6063"/></g><!--class Grade--><g id="elem_Grade"><rect codeLine="49" fill="#F1F1F1" height="95.0438" id="Grade" rx="3" ry="3" style="stroke:#181818;stroke-width:0.6;" width="128.4" x="684" y="1294.8"/><ellipse cx="718.74" cy="1321.5492" fill="#ADD1B2" rx="13.2" ry="13.2" style="stroke:#181818;stroke-width:1.2;"/><path d="M722.0588,1316.5992 Q722.2463,1316.3367 722.4713,1316.2055 Q722.6963,1316.0742 722.9588,1316.0742 Q723.4088,1316.0742 723.69,1316.393 Q723.9713,1316.693 723.9713,1317.4242 L723.9713,1319.168 Q723.9713,1319.8992 723.69,1320.218 Q723.4088,1320.5367 722.9588,1320.5367 Q722.5463,1320.5367 722.3025,1320.293 Q722.0588,1320.068 721.9275,1319.4492 Q721.8713,1319.018 721.6463,1318.793 Q721.2525,1318.343 720.5213,1318.0805 Q719.79,1317.818 719.04,1317.818 Q718.1213,1317.818 717.3525,1318.2117 Q716.6025,1318.6055 716.0025,1319.5055 Q715.4213,1320.4055 715.4213,1321.643 L715.4213,1322.9555 Q715.4213,1324.4367 716.49,1325.4305 Q717.5588,1326.4055 719.4713,1326.4055 Q720.5963,1326.4055 721.3838,1326.1055 Q721.8525,1325.918 722.3588,1325.393 Q722.6775,1325.0742 722.8463,1324.9805 Q723.0338,1324.8867 723.2775,1324.8867 Q723.6713,1324.8867 723.9713,1325.2055 Q724.29,1325.5055 724.29,1325.918 Q724.29,1326.3305 723.8775,1326.818 Q723.2775,1327.5117 722.3213,1327.9055 Q721.0275,1328.4492 719.4713,1328.4492 Q717.6525,1328.4492 716.2088,1327.6992 Q715.0275,1327.0992 714.2025,1325.8242 Q713.3775,1324.5305 713.3775,1322.993 L713.3775,1321.6055 Q713.3775,1320.0117 714.1088,1318.643 Q714.8588,1317.2555 716.1713,1316.5242 Q717.4838,1315.7742 718.965,1315.7742 Q719.8463,1315.7742 720.615,1315.9805 Q721.4025,1316.168 722.0588,1316.5992 Z " fill="#000000"/><text fill="#000000" font-family="sans-serif" font-size="14.4" font-style="italic" lengthAdjust="spacing" textLength="57.6" x="736.86" y="1316.3391">&#171;Grade&#187;</text><text fill="#000000" font-family="sans-serif" font-size="16.8" lengthAdjust="spacing" textLength="48" x="741.66" y="1338.082">Grade</text><line style="stroke:#181818;stroke-width:0.6;" x1="685.2" x2="811.2" y1="1348.2984" y2="1348.2984"/><rect fill="none" height="7.2" style="stroke:#C82930;stroke-width:1.2;" width="7.2" x="693.6" y="1362.4711"/><text fill="#000000" font-family="sans-serif" font-size="16.8" lengthAdjust="spacing" textLength="97.2" x="708" y="1371.2273">Float : grade</text><line style="stroke:#181818;stroke-width:0.6;" x1="685.2" x2="811.2" y1="1380.2437" y2="1380.2437"/></g><!--link TakeAutoExamUI to CreateUpdateAutoExamUI--><g id="link_TakeAutoExamUI_CreateUpdateAutoExamUI"><path codeLine="54" d="M146.064,81.744 C141.684,128.436 133.992,210.324 129.324,259.968 " fill="none" id="TakeAutoExamUI-to-CreateUpdateAutoExamUI" style="stroke:#181818;stroke-width:1.2;stroke-dasharray:7.0,7.0;"/><polygon fill="#181818" points="128.748,266.148,134.5434,255.8478,129.3128,260.1746,124.986,254.9441,128.748,266.148" style="stroke:#181818;stroke-width:1.2;"/></g><!--link TakeAutoExamUI to CommonTakeExamUI--><g id="link_TakeAutoExamUI_CommonTakeExamUI"><path codeLine="55" d="M191.448,81.744 C215.34,101.94 247.032,128.724 280.056,156.636 " fill="none" id="TakeAutoExamUI-to-CommonTakeExamUI" style="stroke:#181818;stroke-width:1.2;stroke-dasharray:7.0,7.0;"/><polygon fill="#181818" points="284.94,160.764,279.7977,150.1227,280.3603,156.8876,273.5955,157.4502,284.94,160.764" style="stroke:#181818;stroke-width:1.2;"/></g><!--link CommonTakeExamUI to CommonTakeExamController--><g id="link_CommonTakeExamUI_CommonTakeExamController"><path codeLine="56" d="M393.636,451.464 C384.444,474.708 375.312,497.844 367.164,518.472 " fill="none" id="CommonTakeExamUI-to-CommonTakeExamController" style="stroke:#181818;stroke-width:1.2;stroke-dasharray:7.0,7.0;"/><polygon fill="#181818" points="364.884,524.22,373.2991,515.9214,367.0769,518.6351,364.3632,512.4129,364.884,524.22" style="stroke:#181818;stroke-width:1.2;"/></g><!--link CommonTakeExamUI to CommonTakeExamService--><g id="link_CommonTakeExamUI_CommonTakeExamService"><path codeLine="57" d="M603.036,451.464 C627.324,475.104 651.492,498.636 672.948,519.528 " fill="none" id="CommonTakeExamUI-to-CommonTakeExamService" style="stroke:#181818;stroke-width:1.2;stroke-dasharray:7.0,7.0;"/><polygon fill="#181818" points="677.772,524.22,673.3962,513.2413,673.4784,520.029,666.6906,520.1111,677.772,524.22" style="stroke:#181818;stroke-width:1.2;"/></g><!--link CommonTakeExamService to TakeExamEvalVisitor--><g id="link_CommonTakeExamService_TakeExamEvalVisitor"><path codeLine="58" d="M748.2,664.068 C748.2,685.884 748.2,709.644 748.2,730.164 " fill="none" id="CommonTakeExamService-to-TakeExamEvalVisitor" style="stroke:#181818;stroke-width:1.2;"/><polygon fill="#181818" points="748.2,736.416,753,725.616,748.2,730.416,743.4,725.616,748.2,736.416" style="stroke:#181818;stroke-width:1.2;"/></g><!--link TakeExamEvalVisitor to Exam--><g id="link_TakeExamEvalVisitor_Exam"><path codeLine="59" d="M731.928,831.696 C723.276,856.308 712.128,888.036 700.896,920.028 " fill="none" id="TakeExamEvalVisitor-to-Exam" style="stroke:#181818;stroke-width:1.2;"/><polygon fill="#181818" points="698.796,926.004,706.9059,917.4069,700.7857,920.3435,697.8492,914.2234,698.796,926.004" style="stroke:#181818;stroke-width:1.2;"/><polygon fill="#000000" points="721.0113,884.8354,727.9363,875.7638,721.2815,873.426,721.0113,884.8354" style="stroke:#000000;stroke-width:1.2;"/><text fill="#000000" font-family="sans-serif" font-size="15.6" lengthAdjust="spacing" textLength="56.4" x="733.8" y="885.634">corrects</text></g><!--link TakeExamEvalVisitor to Grade--><g id="link_TakeExamEvalVisitor_Grade"><path codeLine="60" d="M784.416,831.828 C791.244,842.964 797.364,855.228 801,867.6 C803.856,877.32 801.3,880.272 801,890.4 C797.004,1028.172 802.164,1063.5 783,1200 C778.812,1229.832 770.952,1262.52 763.764,1288.908 " fill="none" id="TakeExamEvalVisitor-to-Grade" style="stroke:#181818;stroke-width:1.2;"/><polygon fill="#181818" points="762.144,1294.788,769.6371,1285.6484,763.7357,1289.003,760.3811,1283.1016,762.144,1294.788" style="stroke:#181818;stroke-width:1.2;"/><polygon fill="#000000" points="806.7292,1069.3685,810.7422,1058.6846,803.696,1058.3663,806.7292,1069.3685" style="stroke:#000000;stroke-width:1.2;"/><text fill="#000000" font-family="sans-serif" font-size="15.6" lengthAdjust="spacing" textLength="68.4" x="817.8" y="1069.834">generates</text></g><!--link Exam to Grade--><g id="link_Exam_Grade"><path codeLine="61" d="M698.748,1200.264 C709.812,1231.764 720.936,1263.42 729.828,1288.716 " fill="none" id="Exam-to-Grade" style="stroke:#181818;stroke-width:1.2;"/><polygon fill="#181818" points="731.916,1294.68,732.8628,1282.8994,729.9263,1289.0195,723.8061,1286.0829,731.916,1294.68" style="stroke:#181818;stroke-width:1.2;"/><polygon fill="#000000" points="724.989,1253.2353,724.7181,1241.8259,718.0635,1244.1641,724.989,1253.2353" style="stroke:#000000;stroke-width:1.2;"/><text fill="#000000" font-family="sans-serif" font-size="15.6" lengthAdjust="spacing" textLength="25.2" x="733.8" y="1254.034">has</text></g><!--SRC=[pPHHRzCm4CVVyodyM4Ix3u2gIADTeT86GbtXsJYtn9hZ2sTxW13VdNFg9bb8LXxfGtgv_y-NyztPoaZdnBryXElWyUQ7h8zxiLuVztakVcM_iqorm8P0UZWs1JzV1h6kqSPuOqJmxxLuHx80yKRuH2o07wycn3jfWpGl8b5y-tEd3Jn33fwqBPcHxd67TF2X0EklhViEjFWMm7cDTWf-OFfEUbMn9-6pc7QE7L-GYajaC5ut1ZOLQWKNu4E5v2ym7q8DfDK5wfu2VAITDAx_vaoJDcWzeJ50tAp-PT2qM68EhUk6qslhtKXVdJ_z5T60j0me90BbFwKQTyLU2jdcC6vYuaTzN8e7DcVJFG0zSIKvrsJzFucUKxnvakQpTjfZBAb8viGf6CHTU09OYjCWTn6ZmY6sM4jjkm0hSOjjioEztoRV1WEvKzHe96yt60KuHRg9sqpIbWyp2zY0ZUPphpBeOE2-bROCieoIIMPItWDlXjXVjKR_tQ1yeBZ0dUsajMtqqWV7Ol_IR_jKd_Mw_HziUsTGUbvJHd_4iz7DTNMLpznLa-Jeiih-khqYDNjS_WbFGvfD3_5gbKzDJJOrIP5jvw6R6oVoMV8yOYLO8Av4PDlLGx6IqVq7]--></g></svg>