<?xml version="1.0" encoding="us-ascii" standalone="no"?><svg xmlns="http://www.w3.org/2000/svg" xmlns:xlink="http://www.w3.org/1999/xlink" contentStyleType="text/css" height="779px" preserveAspectRatio="none" style="width:465px;height:779px;background:#FFFFFF;" version="1.1" viewBox="0 0 465 779" width="465px" zoomAndPan="magnify"><defs/><g><rect fill="#FFFFFF" height="577.5" style="stroke:#181818;stroke-width:1.0;" width="10" x="72.5" y="93.6211"/><rect fill="#FFFFFF" height="74.873" style="stroke:#181818;stroke-width:1.0;" width="10" x="384.5" y="116.9121"/><rect fill="#FFFFFF" height="31.291" style="stroke:#181818;stroke-width:1.0;" width="10" x="384.5" y="364.5313"/><rect fill="none" height="547.209" style="stroke:#000000;stroke-width:1.5;" width="449.5" x="10" y="131.9121"/><rect fill="none" height="402.7539" style="stroke:#000000;stroke-width:1.5;" width="429.5" x="20" y="238.0762"/><rect fill="none" height="146.4551" style="stroke:#000000;stroke-width:1.5;" width="409.5" x="30" y="264.3672"/><rect fill="none" height="81.873" style="stroke:#000000;stroke-width:1.5;" width="389.5" x="40" y="321.9492"/><rect fill="none" height="98.5039" style="stroke:#000000;stroke-width:1.5;" width="389.5" x="40" y="535.3262"/><line style="stroke:#181818;stroke-width:0.5;stroke-dasharray:5.0,5.0;" x1="77" x2="77" y1="83.6211" y2="696.1211"/><line style="stroke:#181818;stroke-width:0.5;stroke-dasharray:5.0,5.0;" x1="389.5" x2="389.5" y1="83.6211" y2="696.1211"/><text fill="#000000" font-family="FG Virgil" font-size="14" lengthAdjust="spacing" textLength="49" x="50" y="80.1074">Student</text><ellipse cx="77.5" cy="13.5" fill="#E3E3E3" rx="8" ry="8" style="stroke:#181818;stroke-width:0.5;"/><path d="M77.5,21.5 L77.5,48.5 M64.5,29.5 L90.5,29.5 M77.5,48.5 L64.5,63.5 M77.5,48.5 L90.5,63.5 " fill="none" style="stroke:#181818;stroke-width:0.5;"/><text fill="#000000" font-family="FG Virgil" font-size="14" lengthAdjust="spacing" textLength="49" x="50" y="710.2285">Student</text><ellipse cx="77.5" cy="722.2422" fill="#E3E3E3" rx="8" ry="8" style="stroke:#181818;stroke-width:0.5;"/><path d="M77.5,730.2422 L77.5,757.2422 M64.5,738.2422 L90.5,738.2422 M77.5,757.2422 L64.5,772.2422 M77.5,757.2422 L90.5,772.2422 " fill="none" style="stroke:#181818;stroke-width:0.5;"/><rect fill="#E3E3E3" height="32.6211" rx="2.5" ry="2.5" style="stroke:#181818;stroke-width:0.5;" width="60" x="359.5" y="50"/><text fill="#000000" font-family="FG Virgil" font-size="14" lengthAdjust="spacing" textLength="46" x="366.5" y="72.1074">System</text><rect fill="#E3E3E3" height="32.6211" rx="2.5" ry="2.5" style="stroke:#181818;stroke-width:0.5;" width="60" x="359.5" y="695.1211"/><text fill="#000000" font-family="FG Virgil" font-size="14" lengthAdjust="spacing" textLength="46" x="366.5" y="717.2285">System</text><rect fill="#FFFFFF" height="577.5" style="stroke:#181818;stroke-width:1.0;" width="10" x="72.5" y="93.6211"/><rect fill="#FFFFFF" height="74.873" style="stroke:#181818;stroke-width:1.0;" width="10" x="384.5" y="116.9121"/><rect fill="#FFFFFF" height="31.291" style="stroke:#181818;stroke-width:1.0;" width="10" x="384.5" y="364.5313"/><polygon fill="#181818" points="372.5,112.9121,382.5,116.9121,372.5,120.9121,376.5,116.9121" style="stroke:#181818;stroke-width:1.0;"/><line style="stroke:#181818;stroke-width:1.0;" x1="82.5" x2="378.5" y1="116.9121" y2="116.9121"/><text fill="#000000" font-family="FG Virgil" font-size="13" font-weight="bold" lengthAdjust="spacing" textLength="7" x="89.5" y="111.6494">1</text><text fill="#000000" font-family="FG Virgil" font-size="13" lengthAdjust="spacing" textLength="197" x="100.5" y="111.6494">Wants to take an automatic exam</text><path d="M10,131.9121 L71,131.9121 L71,141.2031 L61,151.2031 L10,151.2031 L10,131.9121 " fill="#EEEEEE" style="stroke:#000000;stroke-width:1.5;"/><rect fill="none" height="547.209" style="stroke:#000000;stroke-width:1.5;" width="449.5" x="10" y="131.9121"/><text fill="#000000" font-family="FG Virgil" font-size="13" font-weight="bold" lengthAdjust="spacing" textLength="16" x="25" y="146.9404">alt</text><text fill="#000000" font-family="FG Virgil" font-size="11" font-weight="bold" lengthAdjust="spacing" textLength="105" x="86" y="145.7822">[if exam is not null]</text><polygon fill="#181818" points="93.5,187.7852,83.5,191.7852,93.5,195.7852,89.5,191.7852" style="stroke:#181818;stroke-width:1.0;"/><line style="stroke:#181818;stroke-width:1.0;stroke-dasharray:2.0,2.0;" x1="87.5" x2="388.5" y1="191.7852" y2="191.7852"/><text fill="#000000" font-family="FG Virgil" font-size="13" font-weight="bold" lengthAdjust="spacing" textLength="7" x="99.5" y="177.877">2</text><text fill="#000000" font-family="FG Virgil" font-size="13" lengthAdjust="spacing" textLength="180" x="110.5" y="169.2314">Asks if student wants to do the</text><text fill="#000000" font-family="FG Virgil" font-size="13" lengthAdjust="spacing" textLength="174" x="114.5" y="186.5225">exam manually or import a file</text><polygon fill="#181818" points="377.5,219.0762,387.5,223.0762,377.5,227.0762,381.5,223.0762" style="stroke:#181818;stroke-width:1.0;"/><line style="stroke:#181818;stroke-width:1.0;" x1="82.5" x2="383.5" y1="223.0762" y2="223.0762"/><text fill="#000000" font-family="FG Virgil" font-size="13" font-weight="bold" lengthAdjust="spacing" textLength="7" x="89.5" y="217.8135">3</text><text fill="#000000" font-family="FG Virgil" font-size="13" lengthAdjust="spacing" textLength="83" x="100.5" y="217.8135">Selects option</text><path d="M20,238.0762 L81,238.0762 L81,247.3672 L71,257.3672 L20,257.3672 L20,238.0762 " fill="#EEEEEE" style="stroke:#000000;stroke-width:1.5;"/><rect fill="none" height="402.7539" style="stroke:#000000;stroke-width:1.5;" width="429.5" x="20" y="238.0762"/><text fill="#000000" font-family="FG Virgil" font-size="13" font-weight="bold" lengthAdjust="spacing" textLength="16" x="35" y="253.1045">alt</text><text fill="#000000" font-family="FG Virgil" font-size="11" font-weight="bold" lengthAdjust="spacing" textLength="109" x="96" y="251.9463">[if option is manual]</text><path d="M30,264.3672 L103,264.3672 L103,273.6582 L93,283.6582 L30,283.6582 L30,264.3672 " fill="#EEEEEE" style="stroke:#000000;stroke-width:1.5;"/><rect fill="none" height="146.4551" style="stroke:#000000;stroke-width:1.5;" width="409.5" x="30" y="264.3672"/><text fill="#000000" font-family="FG Virgil" font-size="13" font-weight="bold" lengthAdjust="spacing" textLength="28" x="45" y="279.3955">loop</text><text fill="#000000" font-family="FG Virgil" font-size="11" font-weight="bold" lengthAdjust="spacing" textLength="174" x="118" y="278.2373">[for each section in section list]</text><polygon fill="#181818" points="93.5,302.9492,83.5,306.9492,93.5,310.9492,89.5,306.9492" style="stroke:#181818;stroke-width:1.0;"/><line style="stroke:#181818;stroke-width:1.0;stroke-dasharray:2.0,2.0;" x1="87.5" x2="388.5" y1="306.9492" y2="306.9492"/><text fill="#000000" font-family="FG Virgil" font-size="13" font-weight="bold" lengthAdjust="spacing" textLength="7" x="99.5" y="301.6865">4</text><text fill="#000000" font-family="FG Virgil" font-size="13" lengthAdjust="spacing" textLength="150" x="110.5" y="301.6865">shows section information</text><path d="M40,321.9492 L113,321.9492 L113,331.2402 L103,341.2402 L40,341.2402 L40,321.9492 " fill="#EEEEEE" style="stroke:#000000;stroke-width:1.5;"/><rect fill="none" height="81.873" style="stroke:#000000;stroke-width:1.5;" width="389.5" x="40" y="321.9492"/><text fill="#000000" font-family="FG Virgil" font-size="13" font-weight="bold" lengthAdjust="spacing" textLength="28" x="55" y="336.9775">loop</text><text fill="#000000" font-family="FG Virgil" font-size="11" font-weight="bold" lengthAdjust="spacing" textLength="190" x="128" y="335.8193">[for each question in question list]</text><polygon fill="#181818" points="372.5,360.5313,382.5,364.5313,372.5,368.5313,376.5,364.5313" style="stroke:#181818;stroke-width:1.0;"/><line style="stroke:#181818;stroke-width:1.0;" x1="82.5" x2="378.5" y1="364.5313" y2="364.5313"/><text fill="#000000" font-family="FG Virgil" font-size="13" font-weight="bold" lengthAdjust="spacing" textLength="7" x="89.5" y="359.2686">5</text><text fill="#000000" font-family="FG Virgil" font-size="13" lengthAdjust="spacing" textLength="272" x="100.5" y="359.2686">shows question and asks for student to answer</text><polygon fill="#181818" points="93.5,391.8223,83.5,395.8223,93.5,399.8223,89.5,395.8223" style="stroke:#181818;stroke-width:1.0;"/><line style="stroke:#181818;stroke-width:1.0;stroke-dasharray:2.0,2.0;" x1="87.5" x2="388.5" y1="395.8223" y2="395.8223"/><text fill="#000000" font-family="FG Virgil" font-size="13" font-weight="bold" lengthAdjust="spacing" textLength="7" x="99.5" y="390.5596">6</text><text fill="#000000" font-family="FG Virgil" font-size="13" lengthAdjust="spacing" textLength="101" x="110.5" y="390.5596">answers question</text><line style="stroke:#000000;stroke-width:1.0;stroke-dasharray:2.0,2.0;" x1="20" x2="449.5" y1="418.8223" y2="418.8223"/><text fill="#000000" font-family="FG Virgil" font-size="11" font-weight="bold" lengthAdjust="spacing" textLength="86" x="25" y="430.6924">[if option is file]</text><polygon fill="#181818" points="93.5,453.7441,83.5,457.7441,93.5,461.7441,89.5,457.7441" style="stroke:#181818;stroke-width:1.0;"/><line style="stroke:#181818;stroke-width:1.0;stroke-dasharray:2.0,2.0;" x1="87.5" x2="388.5" y1="457.7441" y2="457.7441"/><text fill="#000000" font-family="FG Virgil" font-size="13" font-weight="bold" lengthAdjust="spacing" textLength="7" x="99.5" y="452.4814">7</text><text fill="#000000" font-family="FG Virgil" font-size="13" lengthAdjust="spacing" textLength="211" x="110.5" y="452.4814">shows exam sections and questions</text><polygon fill="#181818" points="93.5,485.0352,83.5,489.0352,93.5,493.0352,89.5,489.0352" style="stroke:#181818;stroke-width:1.0;"/><line style="stroke:#181818;stroke-width:1.0;stroke-dasharray:2.0,2.0;" x1="87.5" x2="388.5" y1="489.0352" y2="489.0352"/><text fill="#000000" font-family="FG Virgil" font-size="13" font-weight="bold" lengthAdjust="spacing" textLength="7" x="99.5" y="483.7725">8</text><text fill="#000000" font-family="FG Virgil" font-size="13" lengthAdjust="spacing" textLength="88" x="110.5" y="483.7725">ask for file path</text><polygon fill="#181818" points="377.5,516.3262,387.5,520.3262,377.5,524.3262,381.5,520.3262" style="stroke:#181818;stroke-width:1.0;"/><line style="stroke:#181818;stroke-width:1.0;" x1="82.5" x2="383.5" y1="520.3262" y2="520.3262"/><text fill="#000000" font-family="FG Virgil" font-size="13" font-weight="bold" lengthAdjust="spacing" textLength="7" x="89.5" y="515.0635">9</text><text fill="#000000" font-family="FG Virgil" font-size="13" lengthAdjust="spacing" textLength="88" x="100.5" y="515.0635">inserts file path</text><path d="M40,535.3262 L101,535.3262 L101,544.6172 L91,554.6172 L40,554.6172 L40,535.3262 " fill="#EEEEEE" style="stroke:#000000;stroke-width:1.5;"/><rect fill="none" height="98.5039" style="stroke:#000000;stroke-width:1.5;" width="389.5" x="40" y="535.3262"/><text fill="#000000" font-family="FG Virgil" font-size="13" font-weight="bold" lengthAdjust="spacing" textLength="16" x="55" y="550.3545">alt</text><text fill="#000000" font-family="FG Virgil" font-size="11" font-weight="bold" lengthAdjust="spacing" textLength="92" x="116" y="549.1963">[if file is not null]</text><polygon fill="#181818" points="93.5,573.9082,83.5,577.9082,93.5,581.9082,89.5,577.9082" style="stroke:#181818;stroke-width:1.0;"/><line style="stroke:#181818;stroke-width:1.0;stroke-dasharray:2.0,2.0;" x1="87.5" x2="388.5" y1="577.9082" y2="577.9082"/><text fill="#000000" font-family="FG Virgil" font-size="13" font-weight="bold" lengthAdjust="spacing" textLength="14" x="99.5" y="572.6455">10</text><text fill="#000000" font-family="FG Virgil" font-size="13" lengthAdjust="spacing" textLength="155" x="117.5" y="572.6455">inform about exam finished</text><line style="stroke:#000000;stroke-width:1.0;stroke-dasharray:2.0,2.0;" x1="40" x2="429.5" y1="586.9082" y2="586.9082"/><text fill="#000000" font-family="FG Virgil" font-size="11" font-weight="bold" lengthAdjust="spacing" textLength="71" x="45" y="598.7783">[if file is null]</text><polygon fill="#181818" points="93.5,621.8301,83.5,625.8301,93.5,629.8301,89.5,625.8301" style="stroke:#181818;stroke-width:1.0;"/><line style="stroke:#181818;stroke-width:1.0;stroke-dasharray:2.0,2.0;" x1="87.5" x2="388.5" y1="625.8301" y2="625.8301"/><text fill="#000000" font-family="FG Virgil" font-size="13" font-weight="bold" lengthAdjust="spacing" textLength="14" x="99.5" y="620.5674">11</text><text fill="#000000" font-family="FG Virgil" font-size="13" lengthAdjust="spacing" textLength="149" x="117.5" y="620.5674">informs about file not valid</text><polygon fill="#181818" points="88.5,667.1211,78.5,671.1211,88.5,675.1211,84.5,671.1211" style="stroke:#181818;stroke-width:1.0;"/><line style="stroke:#181818;stroke-width:1.0;stroke-dasharray:2.0,2.0;" x1="82.5" x2="388.5" y1="671.1211" y2="671.1211"/><text fill="#000000" font-family="FG Virgil" font-size="13" font-weight="bold" lengthAdjust="spacing" textLength="14" x="94.5" y="665.8584">12</text><text fill="#000000" font-family="FG Virgil" font-size="13" lengthAdjust="spacing" textLength="93" x="112.5" y="665.8584">shows feedback</text><!--SRC=[TLCzZzim3DtzAxXrShCRnG5ThbkNeDUb2sFHiH1PSatgSldtfJxiyxcjWGIooFVu-4X_6aLcxawdsQ6NEBdFVPXEJByZ-PvQO_6wuDJmpVePzGHJyA4Vbp0Ho19f5vcnl-6Lpl9m10lrieiP6Z0wUGvUlgD2dx_1YrskrkroU4GJxjPVOK37r62KuEDqeQLfi9Umm5cY8I-033zOh_NMlg9GUKj_q3x1-S52KmS_jI462I1u8q0FYN12iJtGc_QqeGkWGITWXnm3o-23W8_EDIKChLBd4XryvHkdLAvwxcibeyL6-kKBoOG-edCFKEbsciEYoc6mZXf3n-97yMTowY13cCK6lsehRqbTuMvS23CCog-48x12SjnlHsTPQWVQGAhIgT7XphjanITRjCn7Ejq1NlcsSoPCF3knXN1BGMzqH6fHObezKdVGytq_jThwGLt9UgVxXrdaJVdfcdoq9RiB-cG_lxHjXS0gCW-cjivPwLg7_uFJJd8ZYLftNCRtlCq2JRDURuGFQNLk-NA_Kr2VmsvrTHg0bn2bY1sijpoIoPYruurmJ_QtziB6bIw3aeHNTBRoLIUt6QmhNjmQYCn5F-lz3FAtbZ3D7m00]--></g></svg>