<?xml version="1.0" encoding="us-ascii" standalone="no"?><svg xmlns="http://www.w3.org/2000/svg" xmlns:xlink="http://www.w3.org/1999/xlink" contentStyleType="text/css" height="624px" preserveAspectRatio="none" style="width:1038px;height:624px;background:#FFFFFF;" version="1.1" viewBox="0 0 1038 624" width="1038px" zoomAndPan="magnify"><defs/><g><rect fill="#FFFFFF" height="412.3477" style="stroke:#181818;stroke-width:1.0;" width="10" x="187.5" y="112.7988"/><rect fill="#FFFFFF" height="353.7266" style="stroke:#181818;stroke-width:1.0;" width="10" x="399.5" y="142.1094"/><rect fill="#FFFFFF" height="29.3105" style="stroke:#181818;stroke-width:1.0;" width="10" x="633.5" y="200.7305"/><rect fill="#FFFFFF" height="82.9316" style="stroke:#181818;stroke-width:1.0;" width="10" x="770.5" y="259.3516"/><rect fill="#FFFFFF" height="29.3105" style="stroke:#181818;stroke-width:1.0;" width="10" x="871.5" y="371.5938"/><rect fill="#FFFFFF" height="29.3105" style="stroke:#181818;stroke-width:1.0;" width="10" x="970.5" y="430.2148"/><rect fill="none" height="163.8633" style="stroke:#000000;stroke-width:1.5;" width="744.5" x="287.5" y="303.6621"/><line style="stroke:#181818;stroke-width:0.5;stroke-dasharray:5.0,5.0;" x1="34" x2="34" y1="81.4883" y2="543.1465"/><line style="stroke:#181818;stroke-width:0.5;stroke-dasharray:5.0,5.0;" x1="192.5" x2="192.5" y1="81.4883" y2="543.1465"/><line style="stroke:#181818;stroke-width:0.5;stroke-dasharray:5.0,5.0;" x1="404.5" x2="404.5" y1="81.4883" y2="543.1465"/><line style="stroke:#181818;stroke-width:0.5;stroke-dasharray:5.0,5.0;" x1="638" x2="638" y1="81.4883" y2="543.1465"/><line style="stroke:#181818;stroke-width:0.5;stroke-dasharray:5.0,5.0;" x1="775" x2="775" y1="81.4883" y2="543.1465"/><line style="stroke:#181818;stroke-width:0.5;stroke-dasharray:5.0,5.0;" x1="876" x2="876" y1="81.4883" y2="543.1465"/><line style="stroke:#181818;stroke-width:0.5;stroke-dasharray:5.0,5.0;" x1="975" x2="975" y1="81.4883" y2="543.1465"/><text fill="#000000" font-family="FG Virgil" font-size="14" lengthAdjust="spacing" textLength="53" x="5" y="78.5352">Student</text><ellipse cx="34.5" cy="13.5" fill="#E3E3E3" rx="8" ry="8" style="stroke:#181818;stroke-width:0.5;"/><path d="M34.5,21.5 L34.5,48.5 M21.5,29.5 L47.5,29.5 M34.5,48.5 L21.5,63.5 M34.5,48.5 L47.5,63.5 " fill="none" style="stroke:#181818;stroke-width:0.5;"/><text fill="#000000" font-family="FG Virgil" font-size="14" lengthAdjust="spacing" textLength="53" x="5" y="555.6816">Student</text><ellipse cx="34.5" cy="567.1348" fill="#E3E3E3" rx="8" ry="8" style="stroke:#181818;stroke-width:0.5;"/><path d="M34.5,575.1348 L34.5,602.1348 M21.5,583.1348 L47.5,583.1348 M34.5,602.1348 L21.5,617.1348 M34.5,602.1348 L47.5,617.1348 " fill="none" style="stroke:#181818;stroke-width:0.5;"/><rect fill="#E3E3E3" height="30.4883" rx="2.5" ry="2.5" style="stroke:#181818;stroke-width:0.5;" width="158" x="113.5" y="50"/><text fill="#000000" font-family="FG Virgil" font-size="14" lengthAdjust="spacing" textLength="144" x="120.5" y="70.5352">RequestEnrollmentUI</text><rect fill="#E3E3E3" height="30.4883" rx="2.5" ry="2.5" style="stroke:#181818;stroke-width:0.5;" width="158" x="113.5" y="542.1465"/><text fill="#000000" font-family="FG Virgil" font-size="14" lengthAdjust="spacing" textLength="144" x="120.5" y="562.6816">RequestEnrollmentUI</text><rect fill="#E3E3E3" height="30.4883" rx="2.5" ry="2.5" style="stroke:#181818;stroke-width:0.5;" width="214" x="297.5" y="50"/><text fill="#000000" font-family="FG Virgil" font-size="14" lengthAdjust="spacing" textLength="200" x="304.5" y="70.5352">RequestEnrollmentController</text><rect fill="#E3E3E3" height="30.4883" rx="2.5" ry="2.5" style="stroke:#181818;stroke-width:0.5;" width="214" x="297.5" y="542.1465"/><text fill="#000000" font-family="FG Virgil" font-size="14" lengthAdjust="spacing" textLength="200" x="304.5" y="562.6816">RequestEnrollmentController</text><rect fill="#E3E3E3" height="30.4883" rx="2.5" ry="2.5" style="stroke:#181818;stroke-width:0.5;" width="157" x="560" y="50"/><text fill="#000000" font-family="FG Virgil" font-size="14" lengthAdjust="spacing" textLength="143" x="567" y="70.5352">AuthorizationService</text><rect fill="#E3E3E3" height="30.4883" rx="2.5" ry="2.5" style="stroke:#181818;stroke-width:0.5;" width="157" x="560" y="542.1465"/><text fill="#000000" font-family="FG Virgil" font-size="14" lengthAdjust="spacing" textLength="143" x="567" y="562.6816">AuthorizationService</text><rect fill="#E3E3E3" height="30.4883" rx="2.5" ry="2.5" style="stroke:#181818;stroke-width:0.5;" width="97" x="727" y="50"/><text fill="#000000" font-family="FG Virgil" font-size="14" lengthAdjust="spacing" textLength="83" x="734" y="70.5352">UserSession</text><rect fill="#E3E3E3" height="30.4883" rx="2.5" ry="2.5" style="stroke:#181818;stroke-width:0.5;" width="97" x="727" y="542.1465"/><text fill="#000000" font-family="FG Virgil" font-size="14" lengthAdjust="spacing" textLength="83" x="734" y="562.6816">UserSession</text><rect fill="#E3E3E3" height="30.4883" rx="2.5" ry="2.5" style="stroke:#181818;stroke-width:0.5;" width="85" x="834" y="50"/><text fill="#000000" font-family="FG Virgil" font-size="14" lengthAdjust="spacing" textLength="71" x="841" y="70.5352">ClientUser</text><rect fill="#E3E3E3" height="30.4883" rx="2.5" ry="2.5" style="stroke:#181818;stroke-width:0.5;" width="85" x="834" y="542.1465"/><text fill="#000000" font-family="FG Virgil" font-size="14" lengthAdjust="spacing" textLength="71" x="841" y="562.6816">ClientUser</text><rect fill="#E3E3E3" height="30.4883" rx="2.5" ry="2.5" style="stroke:#181818;stroke-width:0.5;" width="93" x="929" y="50"/><text fill="#000000" font-family="FG Virgil" font-size="14" lengthAdjust="spacing" textLength="79" x="936" y="70.5352">SystemUser</text><rect fill="#E3E3E3" height="30.4883" rx="2.5" ry="2.5" style="stroke:#181818;stroke-width:0.5;" width="93" x="929" y="542.1465"/><text fill="#000000" font-family="FG Virgil" font-size="14" lengthAdjust="spacing" textLength="79" x="936" y="562.6816">SystemUser</text><rect fill="#FFFFFF" height="412.3477" style="stroke:#181818;stroke-width:1.0;" width="10" x="187.5" y="112.7988"/><rect fill="#FFFFFF" height="353.7266" style="stroke:#181818;stroke-width:1.0;" width="10" x="399.5" y="142.1094"/><rect fill="#FFFFFF" height="29.3105" style="stroke:#181818;stroke-width:1.0;" width="10" x="633.5" y="200.7305"/><rect fill="#FFFFFF" height="82.9316" style="stroke:#181818;stroke-width:1.0;" width="10" x="770.5" y="259.3516"/><rect fill="#FFFFFF" height="29.3105" style="stroke:#181818;stroke-width:1.0;" width="10" x="871.5" y="371.5938"/><rect fill="#FFFFFF" height="29.3105" style="stroke:#181818;stroke-width:1.0;" width="10" x="970.5" y="430.2148"/><polygon fill="#181818" points="175.5,108.7988,185.5,112.7988,175.5,116.7988,179.5,112.7988" style="stroke:#181818;stroke-width:1.0;"/><line style="stroke:#181818;stroke-width:1.0;" x1="34.5" x2="181.5" y1="112.7988" y2="112.7988"/><text fill="#000000" font-family="FG Virgil" font-size="13" font-weight="bold" lengthAdjust="spacing" textLength="9" x="41.5" y="108.0566">1</text><text fill="#000000" font-family="FG Virgil" font-size="13" lengthAdjust="spacing" textLength="121" x="54.5" y="108.0566">login in the system</text><polygon fill="#181818" points="387.5,138.1094,397.5,142.1094,387.5,146.1094,391.5,142.1094" style="stroke:#181818;stroke-width:1.0;"/><line style="stroke:#181818;stroke-width:1.0;" x1="197.5" x2="393.5" y1="142.1094" y2="142.1094"/><text fill="#000000" font-family="FG Virgil" font-size="13" font-weight="bold" lengthAdjust="spacing" textLength="9" x="204.5" y="137.3672">2</text><text fill="#000000" font-family="FG Virgil" font-size="13" lengthAdjust="spacing" textLength="147" x="217.5" y="137.3672">theController = create()</text><polygon fill="#181818" points="387.5,167.4199,397.5,171.4199,387.5,175.4199,391.5,171.4199" style="stroke:#181818;stroke-width:1.0;"/><line style="stroke:#181818;stroke-width:1.0;" x1="197.5" x2="393.5" y1="171.4199" y2="171.4199"/><text fill="#000000" font-family="FG Virgil" font-size="13" font-weight="bold" lengthAdjust="spacing" textLength="9" x="204.5" y="166.6777">3</text><text fill="#000000" font-family="FG Virgil" font-size="13" lengthAdjust="spacing" textLength="165" x="217.5" y="166.6777">student = loggedStudent()</text><polygon fill="#181818" points="621.5,196.7305,631.5,200.7305,621.5,204.7305,625.5,200.7305" style="stroke:#181818;stroke-width:1.0;"/><line style="stroke:#181818;stroke-width:1.0;" x1="409.5" x2="627.5" y1="200.7305" y2="200.7305"/><text fill="#000000" font-family="FG Virgil" font-size="13" font-weight="bold" lengthAdjust="spacing" textLength="9" x="416.5" y="195.9883">4</text><text fill="#000000" font-family="FG Virgil" font-size="13" lengthAdjust="spacing" textLength="192" x="429.5" y="195.9883">authorizationService = create()</text><polygon fill="#181818" points="626.5,226.041,636.5,230.041,626.5,234.041,630.5,230.041" style="stroke:#181818;stroke-width:1.0;"/><line style="stroke:#181818;stroke-width:1.0;" x1="409.5" x2="632.5" y1="230.041" y2="230.041"/><text fill="#000000" font-family="FG Virgil" font-size="13" font-weight="bold" lengthAdjust="spacing" textLength="9" x="416.5" y="225.2988">5</text><text fill="#000000" font-family="FG Virgil" font-size="13" lengthAdjust="spacing" textLength="149" x="429.5" y="225.2988">userSession = session()</text><polygon fill="#181818" points="758.5,255.3516,768.5,259.3516,758.5,263.3516,762.5,259.3516" style="stroke:#181818;stroke-width:1.0;"/><line style="stroke:#181818;stroke-width:1.0;" x1="409.5" x2="764.5" y1="259.3516" y2="259.3516"/><text fill="#000000" font-family="FG Virgil" font-size="13" font-weight="bold" lengthAdjust="spacing" textLength="9" x="416.5" y="254.6094">6</text><text fill="#000000" font-family="FG Virgil" font-size="13" lengthAdjust="spacing" textLength="139" x="429.5" y="254.6094">userSession = create()</text><polygon fill="#181818" points="758.5,284.6621,768.5,288.6621,758.5,292.6621,762.5,288.6621" style="stroke:#181818;stroke-width:1.0;"/><line style="stroke:#181818;stroke-width:1.0;" x1="409.5" x2="764.5" y1="288.6621" y2="288.6621"/><text fill="#000000" font-family="FG Virgil" font-size="13" font-weight="bold" lengthAdjust="spacing" textLength="9" x="416.5" y="283.9199">7</text><text fill="#000000" font-family="FG Virgil" font-size="13" lengthAdjust="spacing" textLength="130" x="429.5" y="283.9199">present = isPresent()</text><path d="M287.5,303.6621 L349.5,303.6621 L349.5,310.9727 L339.5,320.9727 L287.5,320.9727 L287.5,303.6621 " fill="#EEEEEE" style="stroke:#000000;stroke-width:1.5;"/><rect fill="none" height="163.8633" style="stroke:#000000;stroke-width:1.5;" width="744.5" x="287.5" y="303.6621"/><text fill="#000000" font-family="FG Virgil" font-size="13" font-weight="bold" lengthAdjust="spacing" textLength="17" x="302.5" y="317.2305">alt</text><text fill="#000000" font-family="FG Virgil" font-size="11" font-weight="bold" lengthAdjust="spacing" textLength="89" x="364.5" y="316.2969">[present is true]</text><polygon fill="#181818" points="763.5,338.2832,773.5,342.2832,763.5,346.2832,767.5,342.2832" style="stroke:#181818;stroke-width:1.0;"/><line style="stroke:#181818;stroke-width:1.0;" x1="409.5" x2="769.5" y1="342.2832" y2="342.2832"/><text fill="#000000" font-family="FG Virgil" font-size="13" font-weight="bold" lengthAdjust="spacing" textLength="9" x="416.5" y="337.541">8</text><text fill="#000000" font-family="FG Virgil" font-size="13" lengthAdjust="spacing" textLength="109" x="429.5" y="337.541">clientUser = get()</text><polygon fill="#181818" points="859.5,367.5938,869.5,371.5938,859.5,375.5938,863.5,371.5938" style="stroke:#181818;stroke-width:1.0;"/><line style="stroke:#181818;stroke-width:1.0;" x1="409.5" x2="865.5" y1="371.5938" y2="371.5938"/><text fill="#000000" font-family="FG Virgil" font-size="13" font-weight="bold" lengthAdjust="spacing" textLength="9" x="416.5" y="366.8516">9</text><text fill="#000000" font-family="FG Virgil" font-size="13" lengthAdjust="spacing" textLength="127" x="429.5" y="366.8516">clientUser = create()</text><polygon fill="#181818" points="864.5,396.9043,874.5,400.9043,864.5,404.9043,868.5,400.9043" style="stroke:#181818;stroke-width:1.0;"/><line style="stroke:#181818;stroke-width:1.0;" x1="409.5" x2="870.5" y1="400.9043" y2="400.9043"/><text fill="#000000" font-family="FG Virgil" font-size="13" font-weight="bold" lengthAdjust="spacing" textLength="18" x="416.5" y="396.1621">10</text><text fill="#000000" font-family="FG Virgil" font-size="13" lengthAdjust="spacing" textLength="188" x="438.5" y="396.1621">student = authenticatedUser()</text><polygon fill="#181818" points="958.5,426.2148,968.5,430.2148,958.5,434.2148,962.5,430.2148" style="stroke:#181818;stroke-width:1.0;"/><line style="stroke:#181818;stroke-width:1.0;" x1="409.5" x2="964.5" y1="430.2148" y2="430.2148"/><text fill="#000000" font-family="FG Virgil" font-size="13" font-weight="bold" lengthAdjust="spacing" textLength="18" x="416.5" y="425.4727">11</text><text fill="#000000" font-family="FG Virgil" font-size="13" lengthAdjust="spacing" textLength="112" x="438.5" y="425.4727">student = create()</text><polygon fill="#181818" points="420.5,455.5254,410.5,459.5254,420.5,463.5254,416.5,459.5254" style="stroke:#181818;stroke-width:1.0;"/><line style="stroke:#181818;stroke-width:1.0;stroke-dasharray:2.0,2.0;" x1="414.5" x2="974.5" y1="459.5254" y2="459.5254"/><text fill="#000000" font-family="FG Virgil" font-size="13" font-weight="bold" lengthAdjust="spacing" textLength="18" x="426.5" y="454.7832">12</text><text fill="#000000" font-family="FG Virgil" font-size="13" lengthAdjust="spacing" textLength="48" x="448.5" y="454.7832">student</text><polygon fill="#181818" points="208.5,491.8359,198.5,495.8359,208.5,499.8359,204.5,495.8359" style="stroke:#181818;stroke-width:1.0;"/><line style="stroke:#181818;stroke-width:1.0;stroke-dasharray:2.0,2.0;" x1="202.5" x2="403.5" y1="495.8359" y2="495.8359"/><text fill="#000000" font-family="FG Virgil" font-size="13" font-weight="bold" lengthAdjust="spacing" textLength="18" x="214.5" y="491.0938">13</text><text fill="#000000" font-family="FG Virgil" font-size="13" lengthAdjust="spacing" textLength="4" x="236.5" y="491.0938">&#160;</text><polygon fill="#181818" points="45.5,521.1465,35.5,525.1465,45.5,529.1465,41.5,525.1465" style="stroke:#181818;stroke-width:1.0;"/><line style="stroke:#181818;stroke-width:1.0;stroke-dasharray:2.0,2.0;" x1="39.5" x2="191.5" y1="525.1465" y2="525.1465"/><text fill="#000000" font-family="FG Virgil" font-size="13" font-weight="bold" lengthAdjust="spacing" textLength="18" x="51.5" y="520.4043">14</text><text fill="#000000" font-family="FG Virgil" font-size="13" lengthAdjust="spacing" textLength="4" x="73.5" y="520.4043">&#160;</text><!--SRC=[fPHDRy8m38Rl-HMvRJi0zqfCcj2Ok4pJAdRFKjD6vADB72RswvVGgkrAL053FJYsyxonSN9N8TRPOb5Bfj4hEUT6BTnUw9fPfkOLAacw9LL66rvPeu2YzJ28r8plMGav7YLG2nm7iG9sp4jS6uslB6nTlz0FOKin9BkA5UPRw9Bkc7H02FDej5UVO8FDqLYQeoz08o6jGMUFz1s-F3XyrjP8gO9pkyceDANGD7nO0NL7Xw1E375W2AajX2ISIVmgr11ji5cazqkwfDn2uDy_J4Zr-JSfkhRmPIonXA9jH90a4_iYzibZPQpuOIYCpi4U18UCieGtMKXg-usQte7DmRdW2rAkiO9M0VzJs_RSiSXvFOFawy2r1TVy0yAzDNRiFfFOXOHhxWQXuNSDcqiHny2TXgc428w8GMF-7Fi2_AeZZkXTHoAam_VfLzFxoOmp5Ip10x68mVCohjJ9JpTuh9CkeSzjqFsQpYwyNUFJ3f6WY-bnIJz9m-6UUXFIZq9iGNkqASvsymi0]--></g></svg>