<?xml version="1.0" encoding="us-ascii" standalone="no"?><svg xmlns="http://www.w3.org/2000/svg" xmlns:xlink="http://www.w3.org/1999/xlink" contentStyleType="text/css" height="711px" preserveAspectRatio="none" style="width:1857px;height:711px;background:#FFFFFF;" version="1.1" viewBox="0 0 1857 711" width="1857px" zoomAndPan="magnify"><defs/><g><!--class UserMeetingInvitationUI--><g id="elem_UserMeetingInvitationUI"><rect codeLine="2" fill="#F1F1F1" height="60.582" id="UserMeetingInvitationUI" rx="2.5" ry="2.5" style="stroke:#181818;stroke-width:0.5;" width="179" x="455.5" y="7"/><ellipse cx="470.5" cy="29.291" fill="#ADD1B2" rx="11" ry="11" style="stroke:#181818;stroke-width:1.0;"/><path d="M473.2656,25.166 Q473.4219,24.9473 473.6094,24.8379 Q473.7969,24.7285 474.0156,24.7285 Q474.3906,24.7285 474.625,24.9941 Q474.8594,25.2441 474.8594,25.8535 L474.8594,27.3066 Q474.8594,27.916 474.625,28.1816 Q474.3906,28.4473 474.0156,28.4473 Q473.6719,28.4473 473.4688,28.2441 Q473.2656,28.0566 473.1563,27.541 Q473.1094,27.1816 472.9219,26.9941 Q472.5938,26.6191 471.9844,26.4004 Q471.375,26.1816 470.75,26.1816 Q469.9844,26.1816 469.3438,26.5098 Q468.7188,26.8379 468.2188,27.5879 Q467.7344,28.3379 467.7344,29.3691 L467.7344,30.4629 Q467.7344,31.6973 468.625,32.5254 Q469.5156,33.3379 471.1094,33.3379 Q472.0469,33.3379 472.7031,33.0879 Q473.0938,32.9316 473.5156,32.4941 Q473.7813,32.2285 473.9219,32.1504 Q474.0781,32.0723 474.2813,32.0723 Q474.6094,32.0723 474.8594,32.3379 Q475.125,32.5879 475.125,32.9316 Q475.125,33.2754 474.7813,33.6816 Q474.2813,34.2598 473.4844,34.5879 Q472.4063,35.041 471.1094,35.041 Q469.5938,35.041 468.3906,34.416 Q467.4063,33.916 466.7188,32.8535 Q466.0313,31.7754 466.0313,30.4941 L466.0313,29.3379 Q466.0313,28.0098 466.6406,26.8691 Q467.2656,25.7129 468.3594,25.1035 Q469.4531,24.4785 470.6875,24.4785 Q471.4219,24.4785 472.0625,24.6504 Q472.7188,24.8066 473.2656,25.166 Z " fill="#000000"/><text fill="#000000" font-family="sans-serif" font-size="12" font-style="italic" lengthAdjust="spacing" textLength="27" x="544.5" y="24.9492">&#171;UI&#187;</text><text fill="#000000" font-family="sans-serif" font-size="14" lengthAdjust="spacing" textLength="147" x="484.5" y="43.0684">UserMeetingInvitationUI</text><line style="stroke:#181818;stroke-width:0.5;" x1="456.5" x2="633.5" y1="51.582" y2="51.582"/><line style="stroke:#181818;stroke-width:0.5;" x1="456.5" x2="633.5" y1="59.582" y2="59.582"/></g><!--class UserMeetingInvitationController--><g id="elem_UserMeetingInvitationController"><rect codeLine="5" fill="#F1F1F1" height="116.4453" id="UserMeetingInvitationController" rx="2.5" ry="2.5" style="stroke:#181818;stroke-width:0.5;" width="696" x="598" y="166.5"/><ellipse cx="843.25" cy="188.791" fill="#ADD1B2" rx="11" ry="11" style="stroke:#181818;stroke-width:1.0;"/><path d="M846.0156,184.666 Q846.1719,184.4473 846.3594,184.3379 Q846.5469,184.2285 846.7656,184.2285 Q847.1406,184.2285 847.375,184.4941 Q847.6094,184.7441 847.6094,185.3535 L847.6094,186.8066 Q847.6094,187.416 847.375,187.6816 Q847.1406,187.9473 846.7656,187.9473 Q846.4219,187.9473 846.2188,187.7441 Q846.0156,187.5566 845.9063,187.041 Q845.8594,186.6816 845.6719,186.4941 Q845.3438,186.1191 844.7344,185.9004 Q844.125,185.6816 843.5,185.6816 Q842.7344,185.6816 842.0938,186.0098 Q841.4688,186.3379 840.9688,187.0879 Q840.4844,187.8379 840.4844,188.8691 L840.4844,189.9629 Q840.4844,191.1973 841.375,192.0254 Q842.2656,192.8379 843.8594,192.8379 Q844.7969,192.8379 845.4531,192.5879 Q845.8438,192.4316 846.2656,191.9941 Q846.5313,191.7285 846.6719,191.6504 Q846.8281,191.5723 847.0313,191.5723 Q847.3594,191.5723 847.6094,191.8379 Q847.875,192.0879 847.875,192.4316 Q847.875,192.7754 847.5313,193.1816 Q847.0313,193.7598 846.2344,194.0879 Q845.1563,194.541 843.8594,194.541 Q842.3438,194.541 841.1406,193.916 Q840.1563,193.416 839.4688,192.3535 Q838.7813,191.2754 838.7813,189.9941 L838.7813,188.8379 Q838.7813,187.5098 839.3906,186.3691 Q840.0156,185.2129 841.1094,184.6035 Q842.2031,183.9785 843.4375,183.9785 Q844.1719,183.9785 844.8125,184.1504 Q845.4688,184.3066 846.0156,184.666 Z " fill="#000000"/><text fill="#000000" font-family="sans-serif" font-size="12" font-style="italic" lengthAdjust="spacing" textLength="68" x="928.25" y="184.4492">&#171;Controller&#187;</text><text fill="#000000" font-family="sans-serif" font-size="14" lengthAdjust="spacing" textLength="197" x="863.75" y="202.5684">UserMeetingInvitationController</text><line style="stroke:#181818;stroke-width:0.5;" x1="599" x2="1293" y1="211.082" y2="211.082"/><rect fill="none" height="6" style="stroke:#C82930;stroke-width:1.0;" width="6" x="606" y="222.8926"/><text fill="#000000" font-family="sans-serif" font-size="14" lengthAdjust="spacing" textLength="170" x="618" y="230.1895">void: saveMeetingInvitation</text><line style="stroke:#181818;stroke-width:0.5;" x1="599" x2="1293" y1="237.7031" y2="237.7031"/><ellipse cx="609" cy="252.5137" fill="#84BE84" rx="3" ry="3" style="stroke:#038048;stroke-width:1.0;"/><text fill="#000000" font-family="sans-serif" font-size="14" lengthAdjust="spacing" textLength="338" x="618" y="256.8105">List&lt;MeetingInvitation&gt;: getMeetingInvitationList(user)</text><rect fill="#F24D5C" height="6" style="stroke:#C82930;stroke-width:1.0;" width="6" x="606" y="268.1348"/><text fill="#000000" font-family="sans-serif" font-size="14" lengthAdjust="spacing" textLength="670" x="618" y="275.4316">boolean : checkMeeting(SystemUser user, Date dateOfMeeting, LocalTime startTime, LocalTime endTime)</text></g><!--class MeetingInvitationRepository--><g id="elem_MeetingInvitationRepository"><rect codeLine="11" fill="#F1F1F1" height="97.8242" id="MeetingInvitationRepository" rx="2.5" ry="2.5" style="stroke:#181818;stroke-width:0.5;" width="364" x="669" y="393"/><ellipse cx="759.75" cy="415.291" fill="#ADD1B2" rx="11" ry="11" style="stroke:#181818;stroke-width:1.0;"/><path d="M762.5156,411.166 Q762.6719,410.9473 762.8594,410.8379 Q763.0469,410.7285 763.2656,410.7285 Q763.6406,410.7285 763.875,410.9941 Q764.1094,411.2441 764.1094,411.8535 L764.1094,413.3066 Q764.1094,413.916 763.875,414.1816 Q763.6406,414.4473 763.2656,414.4473 Q762.9219,414.4473 762.7188,414.2441 Q762.5156,414.0566 762.4063,413.541 Q762.3594,413.1816 762.1719,412.9941 Q761.8438,412.6191 761.2344,412.4004 Q760.625,412.1816 760,412.1816 Q759.2344,412.1816 758.5938,412.5098 Q757.9688,412.8379 757.4688,413.5879 Q756.9844,414.3379 756.9844,415.3691 L756.9844,416.4629 Q756.9844,417.6973 757.875,418.5254 Q758.7656,419.3379 760.3594,419.3379 Q761.2969,419.3379 761.9531,419.0879 Q762.3438,418.9316 762.7656,418.4941 Q763.0313,418.2285 763.1719,418.1504 Q763.3281,418.0723 763.5313,418.0723 Q763.8594,418.0723 764.1094,418.3379 Q764.375,418.5879 764.375,418.9316 Q764.375,419.2754 764.0313,419.6816 Q763.5313,420.2598 762.7344,420.5879 Q761.6563,421.041 760.3594,421.041 Q758.8438,421.041 757.6406,420.416 Q756.6563,419.916 755.9688,418.8535 Q755.2813,417.7754 755.2813,416.4941 L755.2813,415.3379 Q755.2813,414.0098 755.8906,412.8691 Q756.5156,411.7129 757.6094,411.1035 Q758.7031,410.4785 759.9375,410.4785 Q760.6719,410.4785 761.3125,410.6504 Q761.9688,410.8066 762.5156,411.166 Z " fill="#000000"/><text fill="#000000" font-family="sans-serif" font-size="12" font-style="italic" lengthAdjust="spacing" textLength="73" x="830.75" y="410.9492">&#171;Repository&#187;</text><text fill="#000000" font-family="sans-serif" font-size="14" lengthAdjust="spacing" textLength="174" x="780.25" y="429.0684">MeetingInvitationRepository</text><line style="stroke:#181818;stroke-width:0.5;" x1="670" x2="1032" y1="437.582" y2="437.582"/><line style="stroke:#181818;stroke-width:0.5;" x1="670" x2="1032" y1="445.582" y2="445.582"/><ellipse cx="680" cy="460.3926" fill="#84BE84" rx="3" ry="3" style="stroke:#038048;stroke-width:1.0;"/><text fill="#000000" font-family="sans-serif" font-size="14" lengthAdjust="spacing" textLength="338" x="689" y="464.6895">List&lt;MeetingInvitation&gt;: getMeetingInvitationList(user)</text><rect fill="#F24D5C" height="6" style="stroke:#C82930;stroke-width:1.0;" width="6" x="677" y="476.0137"/><text fill="#000000" font-family="sans-serif" font-size="14" lengthAdjust="spacing" textLength="184" x="689" y="483.3105">void : save(meetingInvitation)</text></g><!--class Meeting--><g id="elem_Meeting"><rect codeLine="17" fill="#F1F1F1" height="190.9297" id="Meeting" rx="2.5" ry="2.5" style="stroke:#181818;stroke-width:0.5;" width="292" x="200" y="129"/><ellipse cx="293.75" cy="151.291" fill="#ADD1B2" rx="11" ry="11" style="stroke:#181818;stroke-width:1.0;"/><path d="M296.5156,147.166 Q296.6719,146.9473 296.8594,146.8379 Q297.0469,146.7285 297.2656,146.7285 Q297.6406,146.7285 297.875,146.9941 Q298.1094,147.2441 298.1094,147.8535 L298.1094,149.3066 Q298.1094,149.916 297.875,150.1816 Q297.6406,150.4473 297.2656,150.4473 Q296.9219,150.4473 296.7188,150.2441 Q296.5156,150.0566 296.4063,149.541 Q296.3594,149.1816 296.1719,148.9941 Q295.8438,148.6191 295.2344,148.4004 Q294.625,148.1816 294,148.1816 Q293.2344,148.1816 292.5938,148.5098 Q291.9688,148.8379 291.4688,149.5879 Q290.9844,150.3379 290.9844,151.3691 L290.9844,152.4629 Q290.9844,153.6973 291.875,154.5254 Q292.7656,155.3379 294.3594,155.3379 Q295.2969,155.3379 295.9531,155.0879 Q296.3438,154.9316 296.7656,154.4941 Q297.0313,154.2285 297.1719,154.1504 Q297.3281,154.0723 297.5313,154.0723 Q297.8594,154.0723 298.1094,154.3379 Q298.375,154.5879 298.375,154.9316 Q298.375,155.2754 298.0313,155.6816 Q297.5313,156.2598 296.7344,156.5879 Q295.6563,157.041 294.3594,157.041 Q292.8438,157.041 291.6406,156.416 Q290.6563,155.916 289.9688,154.8535 Q289.2813,153.7754 289.2813,152.4941 L289.2813,151.3379 Q289.2813,150.0098 289.8906,148.8691 Q290.5156,147.7129 291.6094,147.1035 Q292.7031,146.4785 293.9375,146.4785 Q294.6719,146.4785 295.3125,146.6504 Q295.9688,146.8066 296.5156,147.166 Z " fill="#000000"/><text fill="#000000" font-family="sans-serif" font-size="12" font-style="italic" lengthAdjust="spacing" textLength="100" x="312.25" y="146.9492">&#171;Aggregate Root&#187;</text><text fill="#000000" font-family="sans-serif" font-size="14" lengthAdjust="spacing" textLength="50" x="337.25" y="165.0684">Meeting</text><line style="stroke:#181818;stroke-width:0.5;" x1="201" x2="491" y1="173.582" y2="173.582"/><text fill="#000000" font-family="sans-serif" font-size="14" lengthAdjust="spacing" textLength="114" x="206" y="192.6895">String: description</text><text fill="#000000" font-family="sans-serif" font-size="14" lengthAdjust="spacing" textLength="132" x="206" y="211.3105">LocalTime: startTime</text><text fill="#000000" font-family="sans-serif" font-size="14" lengthAdjust="spacing" textLength="128" x="206" y="229.9316">LocalTime: endTime</text><text fill="#000000" font-family="sans-serif" font-size="14" lengthAdjust="spacing" textLength="151" x="206" y="248.5527">DateInterval: timePeriod</text><text fill="#000000" font-family="sans-serif" font-size="14" lengthAdjust="spacing" textLength="66" x="206" y="267.1738">Date: date</text><text fill="#000000" font-family="sans-serif" font-size="14" lengthAdjust="spacing" textLength="96" x="206" y="285.7949">User: organizer</text><text fill="#000000" font-family="sans-serif" font-size="14" lengthAdjust="spacing" textLength="280" x="206" y="304.416">List&lt;MeetingInvitation&gt;: meetingInvitationList</text><line style="stroke:#181818;stroke-width:0.5;" x1="201" x2="491" y1="311.9297" y2="311.9297"/></g><!--class CheckIfUserIsFreeService--><g id="elem_CheckIfUserIsFreeService"><rect codeLine="27" fill="#F1F1F1" height="122.4844" id="CheckIfUserIsFreeService" rx="2.5" ry="2.5" style="stroke:#181818;stroke-width:0.5;" width="782" x="1068" y="381"/><ellipse cx="1373.25" cy="397" fill="#ADD1B2" rx="11" ry="11" style="stroke:#181818;stroke-width:1.0;"/><path d="M1376.0156,392.875 Q1376.1719,392.6563 1376.3594,392.5469 Q1376.5469,392.4375 1376.7656,392.4375 Q1377.1406,392.4375 1377.375,392.7031 Q1377.6094,392.9531 1377.6094,393.5625 L1377.6094,395.0156 Q1377.6094,395.625 1377.375,395.8906 Q1377.1406,396.1563 1376.7656,396.1563 Q1376.4219,396.1563 1376.2188,395.9531 Q1376.0156,395.7656 1375.9063,395.25 Q1375.8594,394.8906 1375.6719,394.7031 Q1375.3438,394.3281 1374.7344,394.1094 Q1374.125,393.8906 1373.5,393.8906 Q1372.7344,393.8906 1372.0938,394.2188 Q1371.4688,394.5469 1370.9688,395.2969 Q1370.4844,396.0469 1370.4844,397.0781 L1370.4844,398.1719 Q1370.4844,399.4063 1371.375,400.2344 Q1372.2656,401.0469 1373.8594,401.0469 Q1374.7969,401.0469 1375.4531,400.7969 Q1375.8438,400.6406 1376.2656,400.2031 Q1376.5313,399.9375 1376.6719,399.8594 Q1376.8281,399.7813 1377.0313,399.7813 Q1377.3594,399.7813 1377.6094,400.0469 Q1377.875,400.2969 1377.875,400.6406 Q1377.875,400.9844 1377.5313,401.3906 Q1377.0313,401.9688 1376.2344,402.2969 Q1375.1563,402.75 1373.8594,402.75 Q1372.3438,402.75 1371.1406,402.125 Q1370.1563,401.625 1369.4688,400.5625 Q1368.7813,399.4844 1368.7813,398.2031 L1368.7813,397.0469 Q1368.7813,395.7188 1369.3906,394.5781 Q1370.0156,393.4219 1371.1094,392.8125 Q1372.2031,392.1875 1373.4375,392.1875 Q1374.1719,392.1875 1374.8125,392.3594 Q1375.4688,392.5156 1376.0156,392.875 Z " fill="#000000"/><text fill="#000000" font-family="sans-serif" font-size="14" lengthAdjust="spacing" textLength="163" x="1393.75" y="402.7969">CheckIfUserIsFreeService</text><line style="stroke:#181818;stroke-width:0.5;" x1="1069" x2="1849" y1="413" y2="413"/><line style="stroke:#181818;stroke-width:0.5;" x1="1069" x2="1849" y1="421" y2="421"/><ellipse cx="1079" cy="435.8105" fill="#84BE84" rx="3" ry="3" style="stroke:#038048;stroke-width:1.0;"/><text fill="#000000" font-family="sans-serif" font-size="14" lengthAdjust="spacing" textLength="177" x="1088" y="440.1074">CheckIfUserIsFreeService():</text><rect fill="#F24D5C" height="6" style="stroke:#C82930;stroke-width:1.0;" width="6" x="1076" y="451.4316"/><text fill="#000000" font-family="sans-serif" font-size="14" lengthAdjust="spacing" textLength="756" x="1088" y="458.7285">checkIfDatesCoincide(Date, LocalTime, LocalTime, List&lt;CourseClass&gt;, List&lt;Meeting&gt;, List&lt;MeetingInvitation&gt;): boolean</text><rect fill="#F24D5C" height="6" style="stroke:#C82930;stroke-width:1.0;" width="6" x="1076" y="470.0527"/><text fill="#000000" font-family="sans-serif" font-size="14" lengthAdjust="spacing" textLength="444" x="1088" y="477.3496">isTimeOverlap(LocalTime, LocalTime, LocalTime, LocalTime): boolean</text><ellipse cx="1079" cy="491.6738" fill="#84BE84" rx="3" ry="3" style="stroke:#038048;stroke-width:1.0;"/><text fill="#000000" font-family="sans-serif" font-size="14" lengthAdjust="spacing" textLength="462" x="1088" y="495.9707">checkIfUserIsNotFree(SystemUser, Date, LocalTime, LocalTime): boolean</text></g><!--class MeetingInvitation--><g id="elem_MeetingInvitation"><rect codeLine="34" fill="#F1F1F1" height="116.4453" id="MeetingInvitation" rx="2.5" ry="2.5" style="stroke:#181818;stroke-width:0.5;" width="277" x="441.5" y="585"/><ellipse cx="522.75" cy="607.291" fill="#ADD1B2" rx="11" ry="11" style="stroke:#181818;stroke-width:1.0;"/><path d="M525.5156,603.166 Q525.6719,602.9473 525.8594,602.8379 Q526.0469,602.7285 526.2656,602.7285 Q526.6406,602.7285 526.875,602.9941 Q527.1094,603.2441 527.1094,603.8535 L527.1094,605.3066 Q527.1094,605.916 526.875,606.1816 Q526.6406,606.4473 526.2656,606.4473 Q525.9219,606.4473 525.7188,606.2441 Q525.5156,606.0566 525.4063,605.541 Q525.3594,605.1816 525.1719,604.9941 Q524.8438,604.6191 524.2344,604.4004 Q523.625,604.1816 523,604.1816 Q522.2344,604.1816 521.5938,604.5098 Q520.9688,604.8379 520.4688,605.5879 Q519.9844,606.3379 519.9844,607.3691 L519.9844,608.4629 Q519.9844,609.6973 520.875,610.5254 Q521.7656,611.3379 523.3594,611.3379 Q524.2969,611.3379 524.9531,611.0879 Q525.3438,610.9316 525.7656,610.4941 Q526.0313,610.2285 526.1719,610.1504 Q526.3281,610.0723 526.5313,610.0723 Q526.8594,610.0723 527.1094,610.3379 Q527.375,610.5879 527.375,610.9316 Q527.375,611.2754 527.0313,611.6816 Q526.5313,612.2598 525.7344,612.5879 Q524.6563,613.041 523.3594,613.041 Q521.8438,613.041 520.6406,612.416 Q519.6563,611.916 518.9688,610.8535 Q518.2813,609.7754 518.2813,608.4941 L518.2813,607.3379 Q518.2813,606.0098 518.8906,604.8691 Q519.5156,603.7129 520.6094,603.1035 Q521.7031,602.4785 522.9375,602.4785 Q523.6719,602.4785 524.3125,602.6504 Q524.9688,602.8066 525.5156,603.166 Z " fill="#000000"/><text fill="#000000" font-family="sans-serif" font-size="12" font-style="italic" lengthAdjust="spacing" textLength="44" x="574.25" y="602.9492">&#171;Entity&#187;</text><text fill="#000000" font-family="sans-serif" font-size="14" lengthAdjust="spacing" textLength="106" x="543.25" y="621.0684">MeetingInvitation</text><line style="stroke:#181818;stroke-width:0.5;" x1="442.5" x2="717.5" y1="629.582" y2="629.582"/><text fill="#000000" font-family="sans-serif" font-size="14" lengthAdjust="spacing" textLength="69" x="447.5" y="648.6895">int: inviteID</text><text fill="#000000" font-family="sans-serif" font-size="14" lengthAdjust="spacing" textLength="108" x="447.5" y="667.3105">Meeting: meeting</text><line style="stroke:#181818;stroke-width:0.5;" x1="442.5" x2="717.5" y1="674.8242" y2="674.8242"/><rect fill="#F24D5C" height="6" style="stroke:#C82930;stroke-width:1.0;" width="6" x="449.5" y="686.6348"/><text fill="#000000" font-family="sans-serif" font-size="14" lengthAdjust="spacing" textLength="251" x="461.5" y="693.9316">void : setMeetingInvitationStatus(status)</text></g><!--class MeetingInvitationStatus--><g id="elem_MeetingInvitationStatus"><rect codeLine="41" fill="#F1F1F1" height="122.4844" id="MeetingInvitationStatus" rx="2.5" ry="2.5" style="stroke:#181818;stroke-width:0.5;" width="178" x="789" y="582"/><ellipse cx="804" cy="598" fill="#EB937F" rx="11" ry="11" style="stroke:#181818;stroke-width:1.0;"/><path d="M802.8594,598.7969 L802.8594,601.2969 L807.1875,601.2969 L807.1875,600.375 Q807.1875,599.7656 807.4219,599.5 Q807.6719,599.2344 808.0469,599.2344 Q808.4219,599.2344 808.6563,599.5 Q808.8906,599.7656 808.8906,600.375 L808.8906,603 L800.8906,603 Q800.2656,603 800,602.7656 Q799.75,602.5313 799.75,602.1406 Q799.75,601.7656 800.0156,601.5313 Q800.2813,601.2969 800.8906,601.2969 L801.1563,601.2969 L801.1563,594.6406 L800.8906,594.6406 Q800.2656,594.6406 800,594.4063 Q799.75,594.1719 799.75,593.7813 Q799.75,593.4063 800,593.1719 Q800.2656,592.9375 800.8906,592.9375 L808.5156,592.9375 L808.5156,595.5313 Q808.5156,596.1406 808.2813,596.4063 Q808.0625,596.6563 807.6719,596.6563 Q807.2969,596.6563 807.0625,596.4063 Q806.8281,596.1406 806.8281,595.5313 L806.8281,594.6406 L802.8594,594.6406 L802.8594,597.0938 L804.3438,597.0938 Q804.3438,596.4375 804.4688,596.25 Q804.7344,595.8438 805.2031,595.8438 Q805.5781,595.8438 805.8125,596.1094 Q806.0469,596.3594 806.0469,596.9688 L806.0469,598.9375 Q806.0469,599.4844 805.9219,599.6719 Q805.6563,600.0625 805.2031,600.0625 Q804.7344,600.0625 804.4688,599.6563 Q804.3438,599.4688 804.3438,598.7969 L802.8594,598.7969 Z " fill="#000000"/><text fill="#000000" font-family="sans-serif" font-size="14" lengthAdjust="spacing" textLength="146" x="818" y="603.7969">MeetingInvitationStatus</text><line style="stroke:#181818;stroke-width:0.5;" x1="790" x2="966" y1="614" y2="614"/><text fill="#000000" font-family="sans-serif" font-size="14" lengthAdjust="spacing" textLength="60" x="795" y="633.1074">PENDING</text><text fill="#000000" font-family="sans-serif" font-size="14" lengthAdjust="spacing" textLength="75" x="795" y="651.7285">ACCEPTED</text><text fill="#000000" font-family="sans-serif" font-size="14" lengthAdjust="spacing" textLength="68" x="795" y="670.3496">DECLINED</text><text fill="#000000" font-family="sans-serif" font-size="14" lengthAdjust="spacing" textLength="74" x="795" y="688.9707">CANCELED</text><line style="stroke:#181818;stroke-width:0.5;" x1="790" x2="966" y1="696.4844" y2="696.4844"/></g><!--class MeetingStatus--><g id="elem_MeetingStatus"><rect codeLine="48" fill="#F1F1F1" height="85.2422" id="MeetingStatus" rx="2.5" ry="2.5" style="stroke:#181818;stroke-width:0.5;" width="122" x="7" y="182"/><ellipse cx="22" cy="198" fill="#EB937F" rx="11" ry="11" style="stroke:#181818;stroke-width:1.0;"/><path d="M20.8594,198.7969 L20.8594,201.2969 L25.1875,201.2969 L25.1875,200.375 Q25.1875,199.7656 25.4219,199.5 Q25.6719,199.2344 26.0469,199.2344 Q26.4219,199.2344 26.6563,199.5 Q26.8906,199.7656 26.8906,200.375 L26.8906,203 L18.8906,203 Q18.2656,203 18,202.7656 Q17.75,202.5313 17.75,202.1406 Q17.75,201.7656 18.0156,201.5313 Q18.2813,201.2969 18.8906,201.2969 L19.1563,201.2969 L19.1563,194.6406 L18.8906,194.6406 Q18.2656,194.6406 18,194.4063 Q17.75,194.1719 17.75,193.7813 Q17.75,193.4063 18,193.1719 Q18.2656,192.9375 18.8906,192.9375 L26.5156,192.9375 L26.5156,195.5313 Q26.5156,196.1406 26.2813,196.4063 Q26.0625,196.6563 25.6719,196.6563 Q25.2969,196.6563 25.0625,196.4063 Q24.8281,196.1406 24.8281,195.5313 L24.8281,194.6406 L20.8594,194.6406 L20.8594,197.0938 L22.3438,197.0938 Q22.3438,196.4375 22.4688,196.25 Q22.7344,195.8438 23.2031,195.8438 Q23.5781,195.8438 23.8125,196.1094 Q24.0469,196.3594 24.0469,196.9688 L24.0469,198.9375 Q24.0469,199.4844 23.9219,199.6719 Q23.6563,200.0625 23.2031,200.0625 Q22.7344,200.0625 22.4688,199.6563 Q22.3438,199.4688 22.3438,198.7969 L20.8594,198.7969 Z " fill="#000000"/><text fill="#000000" font-family="sans-serif" font-size="14" lengthAdjust="spacing" textLength="90" x="36" y="203.7969">MeetingStatus</text><line style="stroke:#181818;stroke-width:0.5;" x1="8" x2="128" y1="214" y2="214"/><text fill="#000000" font-family="sans-serif" font-size="14" lengthAdjust="spacing" textLength="66" x="13" y="233.1074">CREATED</text><text fill="#000000" font-family="sans-serif" font-size="14" lengthAdjust="spacing" textLength="74" x="13" y="251.7285">CANCELED</text><line style="stroke:#181818;stroke-width:0.5;" x1="8" x2="128" y1="259.2422" y2="259.2422"/></g><!--link Meeting to MeetingInvitation--><g id="link_Meeting_MeetingInvitation"><path codeLine="53" d="M388.4,320.17 C413.88,374.7 448.07,443.92 483,503 C498.5,529.22 517.33,556.96 534.25,580.71 " fill="none" id="Meeting-to-MeetingInvitation" style="stroke:#181818;stroke-width:1.0;"/><polygon fill="#181818" points="537.17,584.79,535.1681,575.1467,534.253,580.7291,528.6707,579.8139,537.17,584.79" style="stroke:#181818;stroke-width:1.0;"/><polygon fill="#000000" points="490.4423,446.5084,488.5885,437.1803,483.4596,440.0514,490.4423,446.5084" style="stroke:#000000;stroke-width:1.0;"/><text fill="#000000" font-family="sans-serif" font-size="13" lengthAdjust="spacing" textLength="21" x="497" y="447.5283">has</text><text fill="#000000" font-family="sans-serif" font-size="13" lengthAdjust="spacing" textLength="7" x="384.2567" y="341.8616">1</text><text fill="#000000" font-family="sans-serif" font-size="13" lengthAdjust="spacing" textLength="5" x="526.6454" y="573.6786">*</text></g><!--link MeetingInvitation to MeetingInvitationStatus--><g id="link_MeetingInvitation_MeetingInvitationStatus"><path codeLine="54" d="M718.53,643 C740.53,643 762.83,643 783.51,643 " fill="none" id="MeetingInvitation-to-MeetingInvitationStatus" style="stroke:#181818;stroke-width:1.0;"/><polygon fill="#181818" points="788.74,643,779.74,639,783.74,643,779.74,647,788.74,643" style="stroke:#181818;stroke-width:1.0;"/><polygon fill="#000000" points="745.75,630.6455,736.7049,627.7066,736.7049,633.5844,745.75,630.6455" style="stroke:#000000;stroke-width:1.0;"/><text fill="#000000" font-family="sans-serif" font-size="13" lengthAdjust="spacing" textLength="21" x="749.75" y="636.0283">has</text><text fill="#000000" font-family="sans-serif" font-size="13" lengthAdjust="spacing" textLength="7" x="726.2973" y="639.5593">1</text><text fill="#000000" font-family="sans-serif" font-size="13" lengthAdjust="spacing" textLength="7" x="774.0583" y="639.3164">1</text></g><!--reverse link MeetingStatus to Meeting--><g id="link_MeetingStatus_Meeting"><path codeLine="55" d="M134.04,224.5 C154.05,224.5 176.89,224.5 199.99,224.5 " fill="none" id="MeetingStatus-backto-Meeting" style="stroke:#181818;stroke-width:1.0;"/><polygon fill="#181818" points="129.01,224.5,138.01,228.5,134.01,224.5,138.01,220.5,129.01,224.5" style="stroke:#181818;stroke-width:1.0;"/><polygon fill="#000000" points="146.5,212.1455,155.5451,215.0844,155.5451,209.2066,146.5,212.1455" style="stroke:#000000;stroke-width:1.0;"/><text fill="#000000" font-family="sans-serif" font-size="13" lengthAdjust="spacing" textLength="21" x="160.5" y="217.5283">has</text><text fill="#000000" font-family="sans-serif" font-size="13" lengthAdjust="spacing" textLength="7" x="136.8722" y="220.4954">1</text><text fill="#000000" font-family="sans-serif" font-size="13" lengthAdjust="spacing" textLength="7" x="184.8137" y="221.0734">1</text></g><!--link UserMeetingInvitationController to CheckIfUserIsFreeService--><g id="link_UserMeetingInvitationController_CheckIfUserIsFreeService"><path codeLine="57" d="M1081.79,282.54 C1152.37,312.19 1238.75,348.48 1311.03,378.84 " fill="none" id="UserMeetingInvitationController-to-CheckIfUserIsFreeService" style="stroke:#181818;stroke-width:1.0;stroke-dasharray:7.0,7.0;"/><polygon fill="#181818" points="1315.78,380.83,1309.0186,373.6687,1311.1667,378.9019,1305.9336,381.05,1315.78,380.83" style="stroke:#181818;stroke-width:1.0;"/></g><!--link UserMeetingInvitationUI to UserMeetingInvitationController--><g id="link_UserMeetingInvitationUI_UserMeetingInvitationController"><path codeLine="59" d="M608.98,68.02 C665.02,93.87 748.16,132.23 817.84,164.37 " fill="none" id="UserMeetingInvitationUI-to-UserMeetingInvitationController" style="stroke:#181818;stroke-width:1.0;stroke-dasharray:7.0,7.0;"/><polygon fill="#181818" points="822.41,166.48,815.9279,159.065,817.874,164.3765,812.5624,166.3226,822.41,166.48" style="stroke:#181818;stroke-width:1.0;"/></g><!--link UserMeetingInvitationUI to Meeting--><g id="link_UserMeetingInvitationUI_Meeting"><path codeLine="60" d="M513.03,68.22 C496.1,83.96 474.23,104.29 451.93,125.02 " fill="none" id="UserMeetingInvitationUI-to-Meeting" style="stroke:#181818;stroke-width:1.0;stroke-dasharray:7.0,7.0;"/><polygon fill="#181818" points="448.06,128.62,457.375,125.4215,451.7219,125.2156,451.9279,119.5624,448.06,128.62" style="stroke:#181818;stroke-width:1.0;"/></g><!--link UserMeetingInvitationUI to MeetingInvitation--><g id="link_UserMeetingInvitationUI_MeetingInvitation"><path codeLine="61" d="M546.71,68.02 C552.12,161.27 568.92,450.95 576.37,579.48 " fill="none" id="UserMeetingInvitationUI-to-MeetingInvitation" style="stroke:#181818;stroke-width:1.0;stroke-dasharray:7.0,7.0;"/><polygon fill="#181818" points="576.68,584.74,580.1338,575.5166,576.3805,579.749,572.1482,575.9957,576.68,584.74" style="stroke:#181818;stroke-width:1.0;"/></g><!--link UserMeetingInvitationController to MeetingInvitationRepository--><g id="link_UserMeetingInvitationController_MeetingInvitationRepository"><path codeLine="62" d="M920.79,282.68 C906.38,315.37 888.44,356.08 874.35,388.03 " fill="none" id="UserMeetingInvitationController-to-MeetingInvitationRepository" style="stroke:#181818;stroke-width:1.0;stroke-dasharray:7.0,7.0;"/><polygon fill="#181818" points="872.3,392.68,879.5894,386.0569,874.3161,388.1045,872.2685,382.8312,872.3,392.68" style="stroke:#181818;stroke-width:1.0;"/></g><!--link UserMeetingInvitationController to MeetingInvitation--><g id="link_UserMeetingInvitationController_MeetingInvitation"><path codeLine="64" d="M781.62,282.67 C733.59,306.46 684.94,338.65 651,381 C605.17,438.18 588.83,522.62 583.06,579.85 " fill="none" id="UserMeetingInvitationController-to-MeetingInvitation" style="stroke:#181818;stroke-width:1.0;stroke-dasharray:7.0,7.0;"/><polygon fill="#181818" points="582.57,584.95,587.4262,576.3816,583.0562,579.9737,579.4641,575.6037,582.57,584.95" style="stroke:#181818;stroke-width:1.0;"/></g><!--link MeetingInvitationRepository to MeetingInvitation--><g id="link_MeetingInvitationRepository_MeetingInvitation"><path codeLine="66" d="M785.4,491.17 C748.37,518.36 701.75,552.6 662.29,581.57 " fill="none" id="MeetingInvitationRepository-to-MeetingInvitation" style="stroke:#181818;stroke-width:1.0;"/><polygon fill="#181818" points="658,584.72,667.6221,582.6189,662.0307,581.7613,662.8882,576.1699,658,584.72" style="stroke:#181818;stroke-width:1.0;"/><polygon fill="#000000" points="724.9698,545.6049,733.9999,542.6202,730.521,537.8825,724.9698,545.6049" style="stroke:#000000;stroke-width:1.0;"/><text fill="#000000" font-family="sans-serif" font-size="13" lengthAdjust="spacing" textLength="33" x="738" y="548.0283">saves</text></g><!--SRC=[hLJRZjem47tFLunu2WLMsbSBHK8cMqMYBEBo0MuoPAq66za6YLRzzzfEk2GaiAes3ud7CsTyvdWoQS6qXer6zGFHS94duiWDCroAJGBZyIQ98lWJ_0s2j3kIIc6KB0fK5d4rF1BiCu0PrsPyXui8v6ZkjbrmUB07zJrw14V9CmAQ7V4kjehuAMM1J021z0FJNrLOk3ffWpl76Lo-8KoPGSZiwtrRnGnX9bDMhFaEGHkcZ5lTRgB8tBT_rU2En1BtKdCZrSdMVpM-j7ue1GXtpMXFhCxCifZakSBSLRkKqaHHIMHbb7KJo52dYkyl0bwg9LSDcevA1x_jP4o4GNLa1G5ZjnUekCmkJk95zgPJdu1KEHFyDweoRPSSkpOjhifJTxd9rgLCz9j2N5aAF4Mlyw3J7VP9u7HCIxyZgAda8kKPXiwwkU_wql6ayg0qKaSW6jQeDyoRIlhat9B-OAvTllSZgeBjmuwpMfQrD8Cp_xA-kJIkn9iUBzlxQQRkFhPz4ml3pUdSBrmOOb_MZydKxrIOoqq5ZHPjQUUL_HnqgFt7TokAmmuwugfVPX7FfydykrzFA8qNwxWaC8tfB9bN1ftCQJopHYDfcQhCH9VnPDqIV_vNUgyz64NG-zPh4OJ01zCG1VUUC-orrrb90rn22joQEguH7JmRiIylKMUdTw3jA7Ue9vaVOglzpyJSJEVFrF9Wd0R_bo087eteqIXglMatNjq5_0C0]--></g></svg>