<?xml version="1.0" encoding="us-ascii" standalone="no"?><svg xmlns="http://www.w3.org/2000/svg" xmlns:xlink="http://www.w3.org/1999/xlink" contentStyleType="text/css" height="1553px" preserveAspectRatio="none" style="width:2155px;height:1553px;background:#FFFFFF;" version="1.1" viewBox="0 0 2155 1553" width="2155px" zoomAndPan="magnify"><defs/><g><rect fill="#FFFFFF" height="1345.5918" style="stroke:#181818;stroke-width:1.0;" width="10" x="42.5" y="98.2422"/><rect fill="#FFFFFF" height="1323.3008" style="stroke:#181818;stroke-width:1.0;" width="10" x="344.5" y="121.5332"/><rect fill="#FFFFFF" height="93.873" style="stroke:#181818;stroke-width:1.0;" width="10" x="617.5" y="232.0664"/><rect fill="#FFFFFF" height="454.3652" style="stroke:#181818;stroke-width:1.0;" width="10" x="617.5" y="503.6855"/><rect fill="#FFFFFF" height="92.582" style="stroke:#181818;stroke-width:1.0;" width="10" x="617.5" y="1020.6328"/><rect fill="#FFFFFF" height="92.582" style="stroke:#181818;stroke-width:1.0;" width="10" x="617.5" y="1240.3789"/><rect fill="#FFFFFF" height="391.7832" style="stroke:#181818;stroke-width:1.0;" width="10" x="1081.5" y="534.9766"/><rect fill="#FFFFFF" height="62.582" style="stroke:#181818;stroke-width:1.0;" width="10" x="1557.5" y="660.1406"/><rect fill="#FFFFFF" height="31.291" style="stroke:#181818;stroke-width:1.0;" width="10" x="1719.5" y="263.3574"/><rect fill="#FFFFFF" height="62.582" style="stroke:#181818;stroke-width:1.0;" width="10" x="1719.5" y="754.0137"/><rect fill="#FFFFFF" height="30" style="stroke:#181818;stroke-width:1.0;" width="10" x="1719.5" y="1083.2148"/><rect fill="#FFFFFF" height="30" style="stroke:#181818;stroke-width:1.0;" width="10" x="1719.5" y="1302.9609"/><rect fill="#FFFFFF" height="62.582" style="stroke:#181818;stroke-width:1.0;" width="10" x="1874" y="566.2676"/><rect fill="#FFFFFF" height="62.582" style="stroke:#181818;stroke-width:1.0;" width="10" x="2066" y="566.2676"/><rect fill="#FFFFFF" height="62.582" style="stroke:#181818;stroke-width:1.0;" width="10" x="2066" y="660.1406"/><rect fill="#FFFFFF" height="62.582" style="stroke:#181818;stroke-width:1.0;" width="10" x="2066" y="754.0137"/><rect fill="#FFFFFF" height="61.291" style="stroke:#181818;stroke-width:1.0;" width="10" x="2066" y="1051.9238"/><rect fill="#FFFFFF" height="61.291" style="stroke:#181818;stroke-width:1.0;" width="10" x="2066" y="1271.6699"/><rect fill="none" height="691.4023" style="stroke:#000000;stroke-width:1.5;" width="2129" x="20" y="461.1035"/><rect fill="none" height="205.7461" style="stroke:#000000;stroke-width:1.5;" width="2129" x="20" y="1166.5059"/><rect fill="none" height="50.582" style="stroke:#000000;stroke-width:1.5;" width="420" x="20" y="1386.252"/><line style="stroke:#181818;stroke-width:0.5;stroke-dasharray:5.0,5.0;" x1="47" x2="47" y1="88.2422" y2="1453.834"/><line style="stroke:#181818;stroke-width:0.5;stroke-dasharray:5.0,5.0;" x1="349" x2="349" y1="88.2422" y2="1453.834"/><line style="stroke:#181818;stroke-width:0.5;stroke-dasharray:5.0,5.0;" x1="622" x2="622" y1="179.1543" y2="1453.834"/><line style="stroke:#181818;stroke-width:0.5;stroke-dasharray:5.0,5.0;" x1="861" x2="861" y1="88.2422" y2="1453.834"/><line style="stroke:#181818;stroke-width:0.5;stroke-dasharray:5.0,5.0;" x1="1086" x2="1086" y1="88.2422" y2="1453.834"/><line style="stroke:#181818;stroke-width:0.5;stroke-dasharray:5.0,5.0;" x1="1562.5" x2="1562.5" y1="88.2422" y2="1453.834"/><line style="stroke:#181818;stroke-width:0.5;stroke-dasharray:5.0,5.0;" x1="1724.5" x2="1724.5" y1="88.2422" y2="1453.834"/><line style="stroke:#181818;stroke-width:0.5;stroke-dasharray:5.0,5.0;" x1="1878.5" x2="1878.5" y1="88.2422" y2="1453.834"/><line style="stroke:#181818;stroke-width:0.5;stroke-dasharray:5.0,5.0;" x1="2071" x2="2071" y1="88.2422" y2="1453.834"/><text fill="#000000" font-family="FG Virgil" font-size="14" lengthAdjust="spacing" textLength="29" x="30" y="84.7285">User</text><ellipse cx="47.5" cy="18.1211" fill="#E3E3E3" rx="8" ry="8" style="stroke:#181818;stroke-width:0.5;"/><path d="M47.5,26.1211 L47.5,53.1211 M34.5,34.1211 L60.5,34.1211 M47.5,53.1211 L34.5,68.1211 M47.5,53.1211 L60.5,68.1211 " fill="none" style="stroke:#181818;stroke-width:0.5;"/><text fill="#000000" font-family="FG Virgil" font-size="14" lengthAdjust="spacing" textLength="29" x="30" y="1467.9414">User</text><ellipse cx="47.5" cy="1479.9551" fill="#E3E3E3" rx="8" ry="8" style="stroke:#181818;stroke-width:0.5;"/><path d="M47.5,1487.9551 L47.5,1514.9551 M34.5,1495.9551 L60.5,1495.9551 M47.5,1514.9551 L34.5,1529.9551 M47.5,1514.9551 L60.5,1529.9551 " fill="none" style="stroke:#181818;stroke-width:0.5;"/><rect fill="#E3E3E3" height="51.2422" rx="2.5" ry="2.5" style="stroke:#181818;stroke-width:0.5;" width="161" x="269" y="36"/><text fill="#000000" font-family="FG Virgil" font-size="14" font-style="italic" lengthAdjust="spacing" textLength="95" x="302" y="58.1074">&#171;presentation&#187;</text><text fill="#000000" font-family="FG Virgil" font-size="14" lengthAdjust="spacing" textLength="147" x="276" y="76.7285">UserMeetingInvitationUI</text><rect fill="#E3E3E3" height="51.2422" rx="2.5" ry="2.5" style="stroke:#181818;stroke-width:0.5;" width="161" x="269" y="1452.834"/><text fill="#000000" font-family="FG Virgil" font-size="14" font-style="italic" lengthAdjust="spacing" textLength="95" x="302" y="1474.9414">&#171;presentation&#187;</text><text fill="#000000" font-family="FG Virgil" font-size="14" lengthAdjust="spacing" textLength="147" x="276" y="1493.5625">UserMeetingInvitationUI</text><text fill="#000000" font-family="FG Virgil" font-size="14" font-style="italic" lengthAdjust="spacing" textLength="84" x="577.5" y="1467.9414">&#171;application&#187;</text><text fill="#000000" font-family="FG Virgil" font-size="14" lengthAdjust="spacing" textLength="197" x="521" y="1486.5625">UserMeetingInvitationController</text><ellipse cx="622.5" cy="1506.0762" fill="#E3E3E3" rx="12" ry="12" style="stroke:#181818;stroke-width:0.5;"/><polygon fill="#181818" points="618.5,1494.0762,624.5,1489.0762,622.5,1494.0762,624.5,1499.0762,618.5,1494.0762" style="stroke:#181818;stroke-width:1.0;"/><rect fill="#E3E3E3" height="51.2422" rx="2.5" ry="2.5" style="stroke:#181818;stroke-width:0.5;" width="254" x="734" y="36"/><text fill="#000000" font-family="FG Virgil" font-size="14" font-style="italic" lengthAdjust="spacing" textLength="62" x="830" y="58.1074">&#171;domain&#187;</text><text fill="#000000" font-family="FG Virgil" font-size="14" lengthAdjust="spacing" textLength="240" x="741" y="76.7285">theMeetingInvitation :MeetingInvitation</text><rect fill="#E3E3E3" height="51.2422" rx="2.5" ry="2.5" style="stroke:#181818;stroke-width:0.5;" width="254" x="734" y="1452.834"/><text fill="#000000" font-family="FG Virgil" font-size="14" font-style="italic" lengthAdjust="spacing" textLength="62" x="830" y="1474.9414">&#171;domain&#187;</text><text fill="#000000" font-family="FG Virgil" font-size="14" lengthAdjust="spacing" textLength="240" x="741" y="1493.5625">theMeetingInvitation :MeetingInvitation</text><rect fill="#E3E3E3" height="51.2422" rx="2.5" ry="2.5" style="stroke:#181818;stroke-width:0.5;" width="177" x="998" y="36"/><text fill="#000000" font-family="FG Virgil" font-size="14" font-style="italic" lengthAdjust="spacing" textLength="60" x="1056.5" y="58.1074">&#171;service&#187;</text><text fill="#000000" font-family="FG Virgil" font-size="14" lengthAdjust="spacing" textLength="163" x="1005" y="76.7285">CheckIfUserIsFreeService</text><rect fill="#E3E3E3" height="51.2422" rx="2.5" ry="2.5" style="stroke:#181818;stroke-width:0.5;" width="177" x="998" y="1452.834"/><text fill="#000000" font-family="FG Virgil" font-size="14" font-style="italic" lengthAdjust="spacing" textLength="60" x="1056.5" y="1474.9414">&#171;service&#187;</text><text fill="#000000" font-family="FG Virgil" font-size="14" lengthAdjust="spacing" textLength="163" x="1005" y="1493.5625">CheckIfUserIsFreeService</text><text fill="#000000" font-family="FG Virgil" font-size="14" font-style="italic" lengthAdjust="spacing" textLength="79" x="1520" y="66.1074">&#171;repository&#187;</text><text fill="#000000" font-family="FG Virgil" font-size="14" lengthAdjust="spacing" textLength="118" x="1500.5" y="84.7285">MeetingRepository</text><path d="M1544.5,15 C1544.5,5 1562.5,5 1562.5,5 C1562.5,5 1580.5,5 1580.5,15 L1580.5,41 C1580.5,51 1562.5,51 1562.5,51 C1562.5,51 1544.5,51 1544.5,41 L1544.5,15 " fill="#E3E3E3" style="stroke:#181818;stroke-width:1.5;"/><path d="M1544.5,15 C1544.5,25 1562.5,25 1562.5,25 C1562.5,25 1580.5,25 1580.5,15 " fill="none" style="stroke:#181818;stroke-width:1.5;"/><text fill="#000000" font-family="FG Virgil" font-size="14" font-style="italic" lengthAdjust="spacing" textLength="79" x="1520" y="1467.9414">&#171;repository&#187;</text><text fill="#000000" font-family="FG Virgil" font-size="14" lengthAdjust="spacing" textLength="118" x="1500.5" y="1486.5625">MeetingRepository</text><path d="M1544.5,1500.0762 C1544.5,1490.0762 1562.5,1490.0762 1562.5,1490.0762 C1562.5,1490.0762 1580.5,1490.0762 1580.5,1500.0762 L1580.5,1526.0762 C1580.5,1536.0762 1562.5,1536.0762 1562.5,1536.0762 C1562.5,1536.0762 1544.5,1536.0762 1544.5,1526.0762 L1544.5,1500.0762 " fill="#E3E3E3" style="stroke:#181818;stroke-width:1.5;"/><path d="M1544.5,1500.0762 C1544.5,1510.0762 1562.5,1510.0762 1562.5,1510.0762 C1562.5,1510.0762 1580.5,1510.0762 1580.5,1500.0762 " fill="none" style="stroke:#181818;stroke-width:1.5;"/><text fill="#000000" font-family="FG Virgil" font-size="14" font-style="italic" lengthAdjust="spacing" textLength="79" x="1682" y="66.1074">&#171;repository&#187;</text><text fill="#000000" font-family="FG Virgil" font-size="14" lengthAdjust="spacing" textLength="174" x="1634.5" y="84.7285">MeetingInvitationRepository</text><path d="M1706.5,15 C1706.5,5 1724.5,5 1724.5,5 C1724.5,5 1742.5,5 1742.5,15 L1742.5,41 C1742.5,51 1724.5,51 1724.5,51 C1724.5,51 1706.5,51 1706.5,41 L1706.5,15 " fill="#E3E3E3" style="stroke:#181818;stroke-width:1.5;"/><path d="M1706.5,15 C1706.5,25 1724.5,25 1724.5,25 C1724.5,25 1742.5,25 1742.5,15 " fill="none" style="stroke:#181818;stroke-width:1.5;"/><text fill="#000000" font-family="FG Virgil" font-size="14" font-style="italic" lengthAdjust="spacing" textLength="79" x="1682" y="1467.9414">&#171;repository&#187;</text><text fill="#000000" font-family="FG Virgil" font-size="14" lengthAdjust="spacing" textLength="174" x="1634.5" y="1486.5625">MeetingInvitationRepository</text><path d="M1706.5,1500.0762 C1706.5,1490.0762 1724.5,1490.0762 1724.5,1490.0762 C1724.5,1490.0762 1742.5,1490.0762 1742.5,1500.0762 L1742.5,1526.0762 C1742.5,1536.0762 1724.5,1536.0762 1724.5,1536.0762 C1724.5,1536.0762 1706.5,1536.0762 1706.5,1526.0762 L1706.5,1500.0762 " fill="#E3E3E3" style="stroke:#181818;stroke-width:1.5;"/><path d="M1706.5,1500.0762 C1706.5,1510.0762 1724.5,1510.0762 1724.5,1510.0762 C1724.5,1510.0762 1742.5,1510.0762 1742.5,1500.0762 " fill="none" style="stroke:#181818;stroke-width:1.5;"/><text fill="#000000" font-family="FG Virgil" font-size="14" font-style="italic" lengthAdjust="spacing" textLength="79" x="1836.5" y="66.1074">&#171;repository&#187;</text><text fill="#000000" font-family="FG Virgil" font-size="14" lengthAdjust="spacing" textLength="103" x="1824.5" y="84.7285">ClassRepository</text><path d="M1861,15 C1861,5 1879,5 1879,5 C1879,5 1897,5 1897,15 L1897,41 C1897,51 1879,51 1879,51 C1879,51 1861,51 1861,41 L1861,15 " fill="#E3E3E3" style="stroke:#181818;stroke-width:1.5;"/><path d="M1861,15 C1861,25 1879,25 1879,25 C1879,25 1897,25 1897,15 " fill="none" style="stroke:#181818;stroke-width:1.5;"/><text fill="#000000" font-family="FG Virgil" font-size="14" font-style="italic" lengthAdjust="spacing" textLength="79" x="1836.5" y="1467.9414">&#171;repository&#187;</text><text fill="#000000" font-family="FG Virgil" font-size="14" lengthAdjust="spacing" textLength="103" x="1824.5" y="1486.5625">ClassRepository</text><path d="M1861,1500.0762 C1861,1490.0762 1879,1490.0762 1879,1490.0762 C1879,1490.0762 1897,1490.0762 1897,1500.0762 L1897,1526.0762 C1897,1536.0762 1879,1536.0762 1879,1536.0762 C1879,1536.0762 1861,1536.0762 1861,1526.0762 L1861,1500.0762 " fill="#E3E3E3" style="stroke:#181818;stroke-width:1.5;"/><path d="M1861,1500.0762 C1861,1510.0762 1879,1510.0762 1879,1510.0762 C1879,1510.0762 1897,1510.0762 1897,1500.0762 " fill="none" style="stroke:#181818;stroke-width:1.5;"/><rect fill="#E3E3E3" height="51.2422" rx="2.5" ry="2.5" style="stroke:#181818;stroke-width:0.5;" width="136" x="2003" y="36"/><text fill="#000000" font-family="FG Virgil" font-size="14" font-style="italic" lengthAdjust="spacing" textLength="89" x="2026.5" y="58.1074">&#171;persistence&#187;</text><text fill="#000000" font-family="FG Virgil" font-size="14" lengthAdjust="spacing" textLength="122" x="2010" y="76.7285">PersistenceContext</text><rect fill="#E3E3E3" height="51.2422" rx="2.5" ry="2.5" style="stroke:#181818;stroke-width:0.5;" width="136" x="2003" y="1452.834"/><text fill="#000000" font-family="FG Virgil" font-size="14" font-style="italic" lengthAdjust="spacing" textLength="89" x="2026.5" y="1474.9414">&#171;persistence&#187;</text><text fill="#000000" font-family="FG Virgil" font-size="14" lengthAdjust="spacing" textLength="122" x="2010" y="1493.5625">PersistenceContext</text><rect fill="#FFFFFF" height="1345.5918" style="stroke:#181818;stroke-width:1.0;" width="10" x="42.5" y="98.2422"/><rect fill="#FFFFFF" height="1323.3008" style="stroke:#181818;stroke-width:1.0;" width="10" x="344.5" y="121.5332"/><rect fill="#FFFFFF" height="93.873" style="stroke:#181818;stroke-width:1.0;" width="10" x="617.5" y="232.0664"/><rect fill="#FFFFFF" height="454.3652" style="stroke:#181818;stroke-width:1.0;" width="10" x="617.5" y="503.6855"/><rect fill="#FFFFFF" height="92.582" style="stroke:#181818;stroke-width:1.0;" width="10" x="617.5" y="1020.6328"/><rect fill="#FFFFFF" height="92.582" style="stroke:#181818;stroke-width:1.0;" width="10" x="617.5" y="1240.3789"/><rect fill="#FFFFFF" height="391.7832" style="stroke:#181818;stroke-width:1.0;" width="10" x="1081.5" y="534.9766"/><rect fill="#FFFFFF" height="62.582" style="stroke:#181818;stroke-width:1.0;" width="10" x="1557.5" y="660.1406"/><rect fill="#FFFFFF" height="31.291" style="stroke:#181818;stroke-width:1.0;" width="10" x="1719.5" y="263.3574"/><rect fill="#FFFFFF" height="62.582" style="stroke:#181818;stroke-width:1.0;" width="10" x="1719.5" y="754.0137"/><rect fill="#FFFFFF" height="30" style="stroke:#181818;stroke-width:1.0;" width="10" x="1719.5" y="1083.2148"/><rect fill="#FFFFFF" height="30" style="stroke:#181818;stroke-width:1.0;" width="10" x="1719.5" y="1302.9609"/><rect fill="#FFFFFF" height="62.582" style="stroke:#181818;stroke-width:1.0;" width="10" x="1874" y="566.2676"/><rect fill="#FFFFFF" height="62.582" style="stroke:#181818;stroke-width:1.0;" width="10" x="2066" y="566.2676"/><rect fill="#FFFFFF" height="62.582" style="stroke:#181818;stroke-width:1.0;" width="10" x="2066" y="660.1406"/><rect fill="#FFFFFF" height="62.582" style="stroke:#181818;stroke-width:1.0;" width="10" x="2066" y="754.0137"/><rect fill="#FFFFFF" height="61.291" style="stroke:#181818;stroke-width:1.0;" width="10" x="2066" y="1051.9238"/><rect fill="#FFFFFF" height="61.291" style="stroke:#181818;stroke-width:1.0;" width="10" x="2066" y="1271.6699"/><polygon fill="#181818" points="332.5,117.5332,342.5,121.5332,332.5,125.5332,336.5,121.5332" style="stroke:#181818;stroke-width:1.0;"/><line style="stroke:#181818;stroke-width:1.0;" x1="52.5" x2="338.5" y1="121.5332" y2="121.5332"/><text fill="#000000" font-family="FG Virgil" font-size="13" font-weight="bold" lengthAdjust="spacing" textLength="7" x="59.5" y="116.2705">1</text><text fill="#000000" font-family="FG Virgil" font-size="13" lengthAdjust="spacing" textLength="258" x="70.5" y="116.2705">wants to accept or reject a meeting invitation</text><polygon fill="#181818" points="509,148.8242,519,152.8242,509,156.8242,513,152.8242" style="stroke:#181818;stroke-width:1.0;"/><line style="stroke:#181818;stroke-width:1.0;" x1="354.5" x2="515" y1="152.8242" y2="152.8242"/><text fill="#000000" font-family="FG Virgil" font-size="13" font-weight="bold" lengthAdjust="spacing" textLength="7" x="361.5" y="147.5615">2</text><text fill="#000000" font-family="FG Virgil" font-size="13" lengthAdjust="spacing" textLength="44" x="372.5" y="147.5615">create()</text><text fill="#000000" font-family="FG Virgil" font-size="14" font-style="italic" lengthAdjust="spacing" textLength="84" x="577.5" y="176.6406">&#171;application&#187;</text><text fill="#000000" font-family="FG Virgil" font-size="14" lengthAdjust="spacing" textLength="197" x="521" y="195.2617">UserMeetingInvitationController</text><ellipse cx="622.5" cy="145.5332" fill="#E3E3E3" rx="12" ry="12" style="stroke:#181818;stroke-width:0.5;"/><polygon fill="#181818" points="618.5,133.5332,624.5,128.5332,622.5,133.5332,624.5,138.5332,618.5,133.5332" style="stroke:#181818;stroke-width:1.0;"/><polygon fill="#181818" points="605.5,228.0664,615.5,232.0664,605.5,236.0664,609.5,232.0664" style="stroke:#181818;stroke-width:1.0;"/><line style="stroke:#181818;stroke-width:1.0;" x1="354.5" x2="611.5" y1="232.0664" y2="232.0664"/><text fill="#000000" font-family="FG Virgil" font-size="13" font-weight="bold" lengthAdjust="spacing" textLength="7" x="361.5" y="226.8037">3</text><text fill="#000000" font-family="FG Virgil" font-size="13" lengthAdjust="spacing" textLength="143" x="372.5" y="226.8037">getMeetingInvitationList()</text><polygon fill="#181818" points="1707.5,259.3574,1717.5,263.3574,1707.5,267.3574,1711.5,263.3574" style="stroke:#181818;stroke-width:1.0;"/><line style="stroke:#181818;stroke-width:1.0;" x1="627.5" x2="1713.5" y1="263.3574" y2="263.3574"/><text fill="#000000" font-family="FG Virgil" font-size="13" font-weight="bold" lengthAdjust="spacing" textLength="7" x="634.5" y="258.0947">4</text><text fill="#000000" font-family="FG Virgil" font-size="13" lengthAdjust="spacing" textLength="301" x="645.5" y="258.0947">findMeetingInvitationOfUserWithStatusPending(user)</text><polygon fill="#181818" points="638.5,290.6484,628.5,294.6484,638.5,298.6484,634.5,294.6484" style="stroke:#181818;stroke-width:1.0;"/><line style="stroke:#181818;stroke-width:1.0;stroke-dasharray:2.0,2.0;" x1="632.5" x2="1723.5" y1="294.6484" y2="294.6484"/><text fill="#000000" font-family="FG Virgil" font-size="13" font-weight="bold" lengthAdjust="spacing" textLength="7" x="644.5" y="289.3857">5</text><text fill="#000000" font-family="FG Virgil" font-size="13" lengthAdjust="spacing" textLength="117" x="655.5" y="289.3857">meetingInvitationList</text><polygon fill="#181818" points="365.5,321.9395,355.5,325.9395,365.5,329.9395,361.5,325.9395" style="stroke:#181818;stroke-width:1.0;"/><line style="stroke:#181818;stroke-width:1.0;" x1="359.5" x2="621.5" y1="325.9395" y2="325.9395"/><text fill="#000000" font-family="FG Virgil" font-size="13" font-weight="bold" lengthAdjust="spacing" textLength="7" x="371.5" y="320.6768">6</text><text fill="#000000" font-family="FG Virgil" font-size="13" lengthAdjust="spacing" textLength="117" x="382.5" y="320.6768">meetingInvitationList</text><polygon fill="#181818" points="63.5,379.5215,53.5,383.5215,63.5,387.5215,59.5,383.5215" style="stroke:#181818;stroke-width:1.0;"/><line style="stroke:#181818;stroke-width:1.0;stroke-dasharray:2.0,2.0;" x1="57.5" x2="343.5" y1="383.5215" y2="383.5215"/><text fill="#000000" font-family="FG Virgil" font-size="13" font-weight="bold" lengthAdjust="spacing" textLength="7" x="69.5" y="378.2588">7</text><text fill="#000000" font-family="FG Virgil" font-size="13" lengthAdjust="spacing" textLength="257" x="80.5" y="378.2588">shows meetings invitation to accept or reject</text><polygon fill="#181818" points="332.5,410.8125,342.5,414.8125,332.5,418.8125,336.5,414.8125" style="stroke:#181818;stroke-width:1.0;"/><line style="stroke:#181818;stroke-width:1.0;" x1="52.5" x2="338.5" y1="414.8125" y2="414.8125"/><text fill="#000000" font-family="FG Virgil" font-size="13" font-weight="bold" lengthAdjust="spacing" textLength="7" x="59.5" y="409.5498">8</text><text fill="#000000" font-family="FG Virgil" font-size="13" lengthAdjust="spacing" textLength="212" x="70.5" y="409.5498">selects a meeting to accept or reject</text><polygon fill="#181818" points="332.5,442.1035,342.5,446.1035,332.5,450.1035,336.5,446.1035" style="stroke:#181818;stroke-width:1.0;"/><line style="stroke:#181818;stroke-width:1.0;" x1="52.5" x2="338.5" y1="446.1035" y2="446.1035"/><text fill="#000000" font-family="FG Virgil" font-size="13" font-weight="bold" lengthAdjust="spacing" textLength="7" x="59.5" y="440.8408">9</text><text fill="#000000" font-family="FG Virgil" font-size="13" lengthAdjust="spacing" textLength="146" x="70.5" y="440.8408">clicks on accept or reject</text><path d="M20,461.1035 L81,461.1035 L81,470.3945 L71,480.3945 L20,480.3945 L20,461.1035 " fill="#EEEEEE" style="stroke:#000000;stroke-width:1.5;"/><rect fill="none" height="691.4023" style="stroke:#000000;stroke-width:1.5;" width="2129" x="20" y="461.1035"/><text fill="#000000" font-family="FG Virgil" font-size="13" font-weight="bold" lengthAdjust="spacing" textLength="16" x="35" y="476.1318">alt</text><text fill="#000000" font-family="FG Virgil" font-size="11" font-weight="bold" lengthAdjust="spacing" textLength="90" x="96" y="474.9736">[if user accepts]</text><polygon fill="#181818" points="605.5,499.6855,615.5,503.6855,605.5,507.6855,609.5,503.6855" style="stroke:#181818;stroke-width:1.0;"/><line style="stroke:#181818;stroke-width:1.0;" x1="354.5" x2="611.5" y1="503.6855" y2="503.6855"/><text fill="#000000" font-family="FG Virgil" font-size="13" font-weight="bold" lengthAdjust="spacing" textLength="14" x="361.5" y="498.4229">10</text><text fill="#000000" font-family="FG Virgil" font-size="13" lengthAdjust="spacing" textLength="81" x="379.5" y="498.4229">checkMeeting</text><polygon fill="#181818" points="1069.5,530.9766,1079.5,534.9766,1069.5,538.9766,1073.5,534.9766" style="stroke:#181818;stroke-width:1.0;"/><line style="stroke:#181818;stroke-width:1.0;" x1="627.5" x2="1075.5" y1="534.9766" y2="534.9766"/><text fill="#000000" font-family="FG Virgil" font-size="13" font-weight="bold" lengthAdjust="spacing" textLength="14" x="634.5" y="529.7139">11</text><text fill="#000000" font-family="FG Virgil" font-size="13" lengthAdjust="spacing" textLength="309" x="652.5" y="529.7139">checkIfUserIsNotFree(user, date, startTime, endTime)</text><polygon fill="#181818" points="2054,562.2676,2064,566.2676,2054,570.2676,2058,566.2676" style="stroke:#181818;stroke-width:1.0;"/><line style="stroke:#181818;stroke-width:1.0;" x1="1091.5" x2="2060" y1="566.2676" y2="566.2676"/><text fill="#000000" font-family="FG Virgil" font-size="13" font-weight="bold" lengthAdjust="spacing" textLength="14" x="1098.5" y="561.0049">12</text><text fill="#000000" font-family="FG Virgil" font-size="13" lengthAdjust="spacing" textLength="140" x="1116.5" y="561.0049">findClassesOfUser(user)</text><polygon fill="#181818" points="1895,593.5586,1885,597.5586,1895,601.5586,1891,597.5586" style="stroke:#181818;stroke-width:1.0;"/><line style="stroke:#181818;stroke-width:1.0;" x1="1889" x2="2065" y1="597.5586" y2="597.5586"/><text fill="#000000" font-family="FG Virgil" font-size="13" font-weight="bold" lengthAdjust="spacing" textLength="14" x="1901" y="592.2959">13</text><text fill="#000000" font-family="FG Virgil" font-size="13" lengthAdjust="spacing" textLength="140" x="1919" y="592.2959">findClassesOfUser(user)</text><polygon fill="#181818" points="1102.5,624.8496,1092.5,628.8496,1102.5,632.8496,1098.5,628.8496" style="stroke:#181818;stroke-width:1.0;"/><line style="stroke:#181818;stroke-width:1.0;" x1="1096.5" x2="1878" y1="628.8496" y2="628.8496"/><text fill="#000000" font-family="FG Virgil" font-size="13" font-weight="bold" lengthAdjust="spacing" textLength="14" x="1108.5" y="623.5869">14</text><text fill="#000000" font-family="FG Virgil" font-size="13" lengthAdjust="spacing" textLength="45" x="1126.5" y="623.5869">classes</text><polygon fill="#181818" points="2054,656.1406,2064,660.1406,2054,664.1406,2058,660.1406" style="stroke:#181818;stroke-width:1.0;"/><line style="stroke:#181818;stroke-width:1.0;" x1="1091.5" x2="2060" y1="660.1406" y2="660.1406"/><text fill="#000000" font-family="FG Virgil" font-size="13" font-weight="bold" lengthAdjust="spacing" textLength="14" x="1098.5" y="654.8779">15</text><text fill="#000000" font-family="FG Virgil" font-size="13" lengthAdjust="spacing" textLength="146" x="1116.5" y="654.8779">findMeetingsOfUser(user)</text><polygon fill="#181818" points="1578.5,687.4316,1568.5,691.4316,1578.5,695.4316,1574.5,691.4316" style="stroke:#181818;stroke-width:1.0;"/><line style="stroke:#181818;stroke-width:1.0;" x1="1572.5" x2="2065" y1="691.4316" y2="691.4316"/><text fill="#000000" font-family="FG Virgil" font-size="13" font-weight="bold" lengthAdjust="spacing" textLength="14" x="1584.5" y="686.1689">16</text><text fill="#000000" font-family="FG Virgil" font-size="13" lengthAdjust="spacing" textLength="146" x="1602.5" y="686.1689">findMeetingsOfUser(user)</text><polygon fill="#181818" points="1102.5,718.7227,1092.5,722.7227,1102.5,726.7227,1098.5,722.7227" style="stroke:#181818;stroke-width:1.0;"/><line style="stroke:#181818;stroke-width:1.0;" x1="1096.5" x2="1561.5" y1="722.7227" y2="722.7227"/><text fill="#000000" font-family="FG Virgil" font-size="13" font-weight="bold" lengthAdjust="spacing" textLength="14" x="1108.5" y="717.46">17</text><text fill="#000000" font-family="FG Virgil" font-size="13" lengthAdjust="spacing" textLength="53" x="1126.5" y="717.46">meetings</text><polygon fill="#181818" points="2054,750.0137,2064,754.0137,2054,758.0137,2058,754.0137" style="stroke:#181818;stroke-width:1.0;"/><line style="stroke:#181818;stroke-width:1.0;" x1="1091.5" x2="2060" y1="754.0137" y2="754.0137"/><text fill="#000000" font-family="FG Virgil" font-size="13" font-weight="bold" lengthAdjust="spacing" textLength="14" x="1098.5" y="748.751">18</text><text fill="#000000" font-family="FG Virgil" font-size="13" lengthAdjust="spacing" textLength="196" x="1116.5" y="748.751">findMeetingInvitationsOfUser(user)</text><polygon fill="#181818" points="1740.5,781.3047,1730.5,785.3047,1740.5,789.3047,1736.5,785.3047" style="stroke:#181818;stroke-width:1.0;"/><line style="stroke:#181818;stroke-width:1.0;" x1="1734.5" x2="2065" y1="785.3047" y2="785.3047"/><text fill="#000000" font-family="FG Virgil" font-size="13" font-weight="bold" lengthAdjust="spacing" textLength="14" x="1746.5" y="780.042">19</text><text fill="#000000" font-family="FG Virgil" font-size="13" lengthAdjust="spacing" textLength="196" x="1764.5" y="780.042">findMeetingInvitationsOfUser(user)</text><polygon fill="#181818" points="1102.5,812.5957,1092.5,816.5957,1102.5,820.5957,1098.5,816.5957" style="stroke:#181818;stroke-width:1.0;"/><line style="stroke:#181818;stroke-width:1.0;" x1="1096.5" x2="1723.5" y1="816.5957" y2="816.5957"/><text fill="#000000" font-family="FG Virgil" font-size="13" font-weight="bold" lengthAdjust="spacing" textLength="14" x="1108.5" y="811.333">20</text><text fill="#000000" font-family="FG Virgil" font-size="13" lengthAdjust="spacing" textLength="103" x="1126.5" y="811.333">meetingInvitations</text><line style="stroke:#181818;stroke-width:1.0;" x1="1091.5" x2="1133.5" y1="882.4688" y2="882.4688"/><line style="stroke:#181818;stroke-width:1.0;" x1="1133.5" x2="1133.5" y1="882.4688" y2="895.4688"/><line style="stroke:#181818;stroke-width:1.0;" x1="1092.5" x2="1133.5" y1="895.4688" y2="895.4688"/><polygon fill="#181818" points="1102.5,891.4688,1092.5,895.4688,1102.5,899.4688,1098.5,895.4688" style="stroke:#181818;stroke-width:1.0;"/><text fill="#000000" font-family="FG Virgil" font-size="13" font-weight="bold" lengthAdjust="spacing" textLength="14" x="1098.5" y="859.915">21</text><text fill="#000000" font-family="FG Virgil" font-size="13" lengthAdjust="spacing" textLength="434" x="1116.5" y="842.624">checkIfDatesCoincide(Date date, LocalTime startTime, LocalTime endTime,</text><text fill="#000000" font-family="FG Virgil" font-size="13" lengthAdjust="spacing" textLength="310" x="1116.5" y="859.915">List&lt;CourseClass&gt; classLst, List&lt;Meeting&gt; meetLst,</text><text fill="#000000" font-family="FG Virgil" font-size="13" lengthAdjust="spacing" textLength="203" x="1120.5" y="877.2061">List&lt;MeetingInvitation&gt; meetInvLst)</text><polygon fill="#181818" points="638.5,922.7598,628.5,926.7598,638.5,930.7598,634.5,926.7598" style="stroke:#181818;stroke-width:1.0;"/><line style="stroke:#181818;stroke-width:1.0;" x1="632.5" x2="1085.5" y1="926.7598" y2="926.7598"/><text fill="#000000" font-family="FG Virgil" font-size="13" font-weight="bold" lengthAdjust="spacing" textLength="14" x="644.5" y="921.4971">22</text><text fill="#000000" font-family="FG Virgil" font-size="13" lengthAdjust="spacing" textLength="36" x="662.5" y="921.4971">isFree</text><polygon fill="#181818" points="365.5,954.0508,355.5,958.0508,365.5,962.0508,361.5,958.0508" style="stroke:#181818;stroke-width:1.0;"/><line style="stroke:#181818;stroke-width:1.0;" x1="359.5" x2="621.5" y1="958.0508" y2="958.0508"/><text fill="#000000" font-family="FG Virgil" font-size="13" font-weight="bold" lengthAdjust="spacing" textLength="14" x="371.5" y="952.7881">23</text><text fill="#000000" font-family="FG Virgil" font-size="13" lengthAdjust="spacing" textLength="36" x="389.5" y="952.7881">isFree</text><polygon fill="#181818" points="849,985.3418,859,989.3418,849,993.3418,853,989.3418" style="stroke:#181818;stroke-width:1.0;"/><line style="stroke:#181818;stroke-width:1.0;" x1="354.5" x2="855" y1="989.3418" y2="989.3418"/><text fill="#000000" font-family="FG Virgil" font-size="13" font-weight="bold" lengthAdjust="spacing" textLength="14" x="361.5" y="984.0791">24</text><text fill="#000000" font-family="FG Virgil" font-size="13" lengthAdjust="spacing" textLength="230" x="379.5" y="984.0791">setMeetingInvitationStatus(ACCEPTED)</text><polygon fill="#181818" points="605.5,1016.6328,615.5,1020.6328,605.5,1024.6328,609.5,1020.6328" style="stroke:#181818;stroke-width:1.0;"/><line style="stroke:#181818;stroke-width:1.0;" x1="354.5" x2="611.5" y1="1020.6328" y2="1020.6328"/><text fill="#000000" font-family="FG Virgil" font-size="13" font-weight="bold" lengthAdjust="spacing" textLength="14" x="361.5" y="1015.3701">25</text><text fill="#000000" font-family="FG Virgil" font-size="13" lengthAdjust="spacing" textLength="226" x="379.5" y="1015.3701">saveMeetingInvitation(meetingInvitation)</text><polygon fill="#181818" points="2054,1047.9238,2064,1051.9238,2054,1055.9238,2058,1051.9238" style="stroke:#181818;stroke-width:1.0;"/><line style="stroke:#181818;stroke-width:1.0;" x1="627.5" x2="2060" y1="1051.9238" y2="1051.9238"/><text fill="#000000" font-family="FG Virgil" font-size="13" font-weight="bold" lengthAdjust="spacing" textLength="14" x="634.5" y="1046.6611">26</text><text fill="#000000" font-family="FG Virgil" font-size="13" lengthAdjust="spacing" textLength="226" x="652.5" y="1046.6611">saveMeetingInvitation(meetingInvitation)</text><polygon fill="#181818" points="1740.5,1079.2148,1730.5,1083.2148,1740.5,1087.2148,1736.5,1083.2148" style="stroke:#181818;stroke-width:1.0;"/><line style="stroke:#181818;stroke-width:1.0;" x1="1734.5" x2="2065" y1="1083.2148" y2="1083.2148"/><text fill="#000000" font-family="FG Virgil" font-size="13" font-weight="bold" lengthAdjust="spacing" textLength="14" x="1746.5" y="1077.9521">27</text><text fill="#000000" font-family="FG Virgil" font-size="13" lengthAdjust="spacing" textLength="130" x="1764.5" y="1077.9521">save(meetingInvitation)</text><polygon fill="#181818" points="63.5,1140.5059,53.5,1144.5059,63.5,1148.5059,59.5,1144.5059" style="stroke:#181818;stroke-width:1.0;"/><line style="stroke:#181818;stroke-width:1.0;" x1="57.5" x2="343.5" y1="1144.5059" y2="1144.5059"/><text fill="#000000" font-family="FG Virgil" font-size="13" font-weight="bold" lengthAdjust="spacing" textLength="14" x="69.5" y="1139.2432">28</text><text fill="#000000" font-family="FG Virgil" font-size="13" lengthAdjust="spacing" textLength="144" x="87.5" y="1139.2432">shows meeting accepted</text><path d="M20,1166.5059 L81,1166.5059 L81,1175.7969 L71,1185.7969 L20,1185.7969 L20,1166.5059 " fill="#EEEEEE" style="stroke:#000000;stroke-width:1.5;"/><rect fill="none" height="205.7461" style="stroke:#000000;stroke-width:1.5;" width="2129" x="20" y="1166.5059"/><text fill="#000000" font-family="FG Virgil" font-size="13" font-weight="bold" lengthAdjust="spacing" textLength="16" x="35" y="1181.5342">alt</text><text fill="#000000" font-family="FG Virgil" font-size="11" font-weight="bold" lengthAdjust="spacing" textLength="86" x="96" y="1180.376">[if user rejects]</text><polygon fill="#181818" points="849,1205.0879,859,1209.0879,849,1213.0879,853,1209.0879" style="stroke:#181818;stroke-width:1.0;"/><line style="stroke:#181818;stroke-width:1.0;" x1="354.5" x2="855" y1="1209.0879" y2="1209.0879"/><text fill="#000000" font-family="FG Virgil" font-size="13" font-weight="bold" lengthAdjust="spacing" textLength="14" x="361.5" y="1203.8252">29</text><text fill="#000000" font-family="FG Virgil" font-size="13" lengthAdjust="spacing" textLength="227" x="379.5" y="1203.8252">setMeetingInvitationStatus(REJECTED)</text><polygon fill="#181818" points="605.5,1236.3789,615.5,1240.3789,605.5,1244.3789,609.5,1240.3789" style="stroke:#181818;stroke-width:1.0;"/><line style="stroke:#181818;stroke-width:1.0;" x1="354.5" x2="611.5" y1="1240.3789" y2="1240.3789"/><text fill="#000000" font-family="FG Virgil" font-size="13" font-weight="bold" lengthAdjust="spacing" textLength="14" x="361.5" y="1235.1162">30</text><text fill="#000000" font-family="FG Virgil" font-size="13" lengthAdjust="spacing" textLength="226" x="379.5" y="1235.1162">saveMeetingInvitation(meetingInvitation)</text><polygon fill="#181818" points="2054,1267.6699,2064,1271.6699,2054,1275.6699,2058,1271.6699" style="stroke:#181818;stroke-width:1.0;"/><line style="stroke:#181818;stroke-width:1.0;" x1="627.5" x2="2060" y1="1271.6699" y2="1271.6699"/><text fill="#000000" font-family="FG Virgil" font-size="13" font-weight="bold" lengthAdjust="spacing" textLength="14" x="634.5" y="1266.4072">31</text><text fill="#000000" font-family="FG Virgil" font-size="13" lengthAdjust="spacing" textLength="226" x="652.5" y="1266.4072">saveMeetingInvitation(meetingInvitation)</text><polygon fill="#181818" points="1740.5,1298.9609,1730.5,1302.9609,1740.5,1306.9609,1736.5,1302.9609" style="stroke:#181818;stroke-width:1.0;"/><line style="stroke:#181818;stroke-width:1.0;" x1="1734.5" x2="2065" y1="1302.9609" y2="1302.9609"/><text fill="#000000" font-family="FG Virgil" font-size="13" font-weight="bold" lengthAdjust="spacing" textLength="14" x="1746.5" y="1297.6982">32</text><text fill="#000000" font-family="FG Virgil" font-size="13" lengthAdjust="spacing" textLength="130" x="1764.5" y="1297.6982">save(meetingInvitation)</text><polygon fill="#181818" points="63.5,1360.252,53.5,1364.252,63.5,1368.252,59.5,1364.252" style="stroke:#181818;stroke-width:1.0;"/><line style="stroke:#181818;stroke-width:1.0;" x1="57.5" x2="343.5" y1="1364.252" y2="1364.252"/><text fill="#000000" font-family="FG Virgil" font-size="13" font-weight="bold" lengthAdjust="spacing" textLength="14" x="69.5" y="1358.9893">33</text><text fill="#000000" font-family="FG Virgil" font-size="13" lengthAdjust="spacing" textLength="137" x="87.5" y="1358.9893">shows meeting rejected</text><path d="M20,1386.252 L81,1386.252 L81,1395.543 L71,1405.543 L20,1405.543 L20,1386.252 " fill="#EEEEEE" style="stroke:#000000;stroke-width:1.5;"/><rect fill="none" height="50.582" style="stroke:#000000;stroke-width:1.5;" width="420" x="20" y="1386.252"/><text fill="#000000" font-family="FG Virgil" font-size="13" font-weight="bold" lengthAdjust="spacing" textLength="16" x="35" y="1401.2803">alt</text><text fill="#000000" font-family="FG Virgil" font-size="11" font-weight="bold" lengthAdjust="spacing" textLength="173" x="96" y="1400.1221">[if meetingInvitationList empty]</text><polygon fill="#181818" points="63.5,1424.834,53.5,1428.834,63.5,1432.834,59.5,1428.834" style="stroke:#181818;stroke-width:1.0;"/><line style="stroke:#181818;stroke-width:1.0;stroke-dasharray:2.0,2.0;" x1="57.5" x2="343.5" y1="1428.834" y2="1428.834"/><text fill="#000000" font-family="FG Virgil" font-size="13" font-weight="bold" lengthAdjust="spacing" textLength="14" x="69.5" y="1423.5713">34</text><text fill="#000000" font-family="FG Virgil" font-size="13" lengthAdjust="spacing" textLength="214" x="87.5" y="1423.5713">shows no meeting to accept or reject</text><!--SRC=[jLTBSzem4BxpApIv53eXkJCUPZg4TEYaQIQFzfAB8Y-WObiUIIRDl-zADbZ6yWEISC5UxNxxqATT-SjQwtHoUPb6DD5P75qm4L-g3KzIAcbyiTPnDDY_abWaWgsbY85ecO6pabAseIjuq6yH40bCEsiXB6aMwMkHw5kAfjVVoMykLzn5LciQYbUUhCYIHWe60vffaMJn2qXyPbf8ygH04ghi_m2jD6SynQYju2U0Hkj5ikMQQYwIfuNLNP0WI2KeI7BnT3fW68SKaTzibYz6kIldBGXecaQSxL0g4PpfDTIWoAGcEZEWfAuP1A68AJUuBkni3MopM9f05-fQ0Zo0t786DhIcjI1G-HE2XLJJ5wfWv_8UKg4u5lFDGDI5GI3tBnxpCc8la7Uv2N8MKQMgC8UY0rEtCdSW5LSQ4WPcZ-2VDW0UAUv-AJJRPiZ4jrH3pYDBgl7K46L2NX5Q4Iq8PGnIJP1q4luYcGabSPuZuViaNQZ5WE0FGH2g9CtNhmZA9A3AS5HeL1GcP0MwLhqR3BVGttieRQoyV1rFMwe_8KkUX3M5NvOsVxXUFw0WKtUGXAWmp51wuBS5t2gsh8_7KpVJs9UcnGYXjpitxwT5Jz23sj584xxqcv94Q09ngdDtkqqr154c2RKMhsfdgXmo-5XJGhWaKn3Xcd8erTkKOV_PA8BU6lMBv3BRAwsIgcHIPHypJQIeUGdHKBTg_IrKGmygW7ShjqARHKklSu8T0Cw9qdYQ7tcCZqW-yp3o1D20NuRJr0Gnk7epo4-3xJAWyZFWKBxYkMxiYQxQhlOAdYvaQbNLxexbi1ksrpi7sXixx6z9nJqZ3ScSKk62K1zGujg4wYXoJRz7GFKfs5hftTa_lTJDIRsZs6KR-xYoDtRXpWquOXQrRehtHj5dUnpyTs-Kjmo3NflMsI2lq8-Q2Pum7iBGl1NzyKOm6fcsw7RAKbZqpFDdExM2cSYa0dk6ftalk54QzSrQaSNKbiQ8dvFAGfbUheBlg3NgbvypIxXTzFQMhZRURsUgiyTC_nQNzT6LJxzQqcOWrwzW-Rre-6qsczyzpgz6BJDKqMtzxZ-iyN1qmdprdVdJtRMKzeJ3REBevRPFCpdY1dZQT6kYW-TMLroR8Dohuc7ptg_ogvTw5yFkvp_cimh3Ff1fVHZtYSmxXe6VoCIJ67aYCuzZQ3-cTZCs9wB3s4FcjdxoT7xk9ABpKyKu6ZXfs6zh_Fq7]--></g></svg>