<?xml version="1.0" encoding="us-ascii" standalone="no"?><svg xmlns="http://www.w3.org/2000/svg" xmlns:xlink="http://www.w3.org/1999/xlink" contentStyleType="text/css" height="341px" preserveAspectRatio="none" style="width:338px;height:341px;background:#FFFFFF;" version="1.1" viewBox="0 0 338 341" width="338px" zoomAndPan="magnify"><defs/><g><line style="stroke:#181818;stroke-width:0.5;stroke-dasharray:5.0,5.0;" x1="27" x2="27" y1="36.4883" y2="306.2832"/><line style="stroke:#181818;stroke-width:0.5;stroke-dasharray:5.0,5.0;" x1="301.5" x2="301.5" y1="36.4883" y2="306.2832"/><rect fill="#E2E2F0" height="30.4883" rx="2.5" ry="2.5" style="stroke:#181818;stroke-width:0.5;" width="45" x="5" y="5"/><text fill="#000000" font-family="sans-serif" font-size="14" lengthAdjust="spacing" textLength="31" x="12" y="25.5352">User</text><rect fill="#E2E2F0" height="30.4883" rx="2.5" ry="2.5" style="stroke:#181818;stroke-width:0.5;" width="45" x="5" y="305.2832"/><text fill="#000000" font-family="sans-serif" font-size="14" lengthAdjust="spacing" textLength="31" x="12" y="325.8184">User</text><rect fill="#E2E2F0" height="30.4883" rx="2.5" ry="2.5" style="stroke:#181818;stroke-width:0.5;" width="62" x="270.5" y="5"/><text fill="#000000" font-family="sans-serif" font-size="14" lengthAdjust="spacing" textLength="48" x="277.5" y="25.5352">System</text><rect fill="#E2E2F0" height="30.4883" rx="2.5" ry="2.5" style="stroke:#181818;stroke-width:0.5;" width="62" x="270.5" y="305.2832"/><text fill="#000000" font-family="sans-serif" font-size="14" lengthAdjust="spacing" textLength="48" x="277.5" y="325.8184">System</text><polygon fill="#181818" points="289.5,63.7988,299.5,67.7988,289.5,71.7988,293.5,67.7988" style="stroke:#181818;stroke-width:1.0;"/><line style="stroke:#181818;stroke-width:1.0;" x1="27.5" x2="295.5" y1="67.7988" y2="67.7988"/><text fill="#000000" font-family="sans-serif" font-size="13" font-weight="bold" lengthAdjust="spacing" textLength="9" x="34.5" y="63.0566">1</text><text fill="#000000" font-family="sans-serif" font-size="13" lengthAdjust="spacing" textLength="147" x="47.5" y="63.0566">Authentication Request</text><polygon fill="#181818" points="38.5,93.1094,28.5,97.1094,38.5,101.1094,34.5,97.1094" style="stroke:#181818;stroke-width:1.0;"/><line style="stroke:#181818;stroke-width:1.0;stroke-dasharray:2.0,2.0;" x1="32.5" x2="300.5" y1="97.1094" y2="97.1094"/><text fill="#000000" font-family="sans-serif" font-size="13" font-weight="bold" lengthAdjust="spacing" textLength="9" x="44.5" y="92.3672">2</text><text fill="#000000" font-family="sans-serif" font-size="13" lengthAdjust="spacing" textLength="157" x="57.5" y="92.3672">Authentication Response</text><polygon fill="#181818" points="289.5,122.4199,299.5,126.4199,289.5,130.4199,293.5,126.4199" style="stroke:#181818;stroke-width:1.0;"/><line style="stroke:#181818;stroke-width:1.0;" x1="27.5" x2="295.5" y1="126.4199" y2="126.4199"/><text fill="#000000" font-family="sans-serif" font-size="13" font-weight="bold" lengthAdjust="spacing" textLength="9" x="34.5" y="121.6777">3</text><text fill="#000000" font-family="sans-serif" font-size="13" lengthAdjust="spacing" textLength="237" x="47.5" y="121.6777">Asks for permission to create a board</text><polygon fill="#181818" points="38.5,151.7305,28.5,155.7305,38.5,159.7305,34.5,155.7305" style="stroke:#181818;stroke-width:1.0;"/><line style="stroke:#181818;stroke-width:1.0;stroke-dasharray:2.0,2.0;" x1="32.5" x2="300.5" y1="155.7305" y2="155.7305"/><text fill="#000000" font-family="sans-serif" font-size="13" font-weight="bold" lengthAdjust="spacing" textLength="9" x="44.5" y="150.9883">4</text><text fill="#000000" font-family="sans-serif" font-size="13" lengthAdjust="spacing" textLength="136" x="57.5" y="150.9883">Operation (in)success</text><polygon fill="#181818" points="289.5,181.041,299.5,185.041,289.5,189.041,293.5,185.041" style="stroke:#181818;stroke-width:1.0;"/><line style="stroke:#181818;stroke-width:1.0;" x1="27.5" x2="295.5" y1="185.041" y2="185.041"/><text fill="#000000" font-family="sans-serif" font-size="13" font-weight="bold" lengthAdjust="spacing" textLength="9" x="34.5" y="180.2988">5</text><text fill="#000000" font-family="sans-serif" font-size="13" lengthAdjust="spacing" textLength="180" x="47.5" y="180.2988">Ask to create a shared board</text><polygon fill="#181818" points="38.5,210.3516,28.5,214.3516,38.5,218.3516,34.5,214.3516" style="stroke:#181818;stroke-width:1.0;"/><line style="stroke:#181818;stroke-width:1.0;stroke-dasharray:2.0,2.0;" x1="32.5" x2="300.5" y1="214.3516" y2="214.3516"/><text fill="#000000" font-family="sans-serif" font-size="13" font-weight="bold" lengthAdjust="spacing" textLength="9" x="44.5" y="209.6094">6</text><text fill="#000000" font-family="sans-serif" font-size="13" lengthAdjust="spacing" textLength="188" x="57.5" y="209.6094">Ask shared board information</text><polygon fill="#181818" points="289.5,254.9727,299.5,258.9727,289.5,262.9727,293.5,258.9727" style="stroke:#181818;stroke-width:1.0;"/><line style="stroke:#181818;stroke-width:1.0;" x1="27.5" x2="295.5" y1="258.9727" y2="258.9727"/><text fill="#000000" font-family="sans-serif" font-size="13" font-weight="bold" lengthAdjust="spacing" textLength="9" x="34.5" y="246.5752">7</text><text fill="#000000" font-family="sans-serif" font-size="13" lengthAdjust="spacing" textLength="162" x="47.5" y="238.9199">title, maxNumberOfRows,</text><text fill="#000000" font-family="sans-serif" font-size="13" lengthAdjust="spacing" textLength="148" x="47.5" y="254.2305">maxNumberOfColumns</text><polygon fill="#181818" points="38.5,284.2832,28.5,288.2832,38.5,292.2832,34.5,288.2832" style="stroke:#181818;stroke-width:1.0;"/><line style="stroke:#181818;stroke-width:1.0;stroke-dasharray:2.0,2.0;" x1="32.5" x2="300.5" y1="288.2832" y2="288.2832"/><text fill="#000000" font-family="sans-serif" font-size="13" font-weight="bold" lengthAdjust="spacing" textLength="9" x="44.5" y="283.541">8</text><text fill="#000000" font-family="sans-serif" font-size="13" lengthAdjust="spacing" textLength="160" x="57.5" y="283.541">display shared board info</text><!--SRC=[TP6nJiD038RtUmflWDHhzWeX8NOg5R6nk1UNd8ZjSFO9-lOaZOIA4bRx-pzRzatdFjYkQOOUnIltswJS67rMaaInpVXUa4F0wYgLZrH2U3Kg41_WvMnEl8F7wXs9vuIULU0mXSt3t8OuabDYXRD1nMX5Q1y69oqmKE5iDj6ka0gX4o0S5Kixf-vZ_8tjHtnMtsQviveIcQtQ_zYimqBjVzA9lYOWoxWPN-OitPwzfmqmVZzVZhK_7VJBDl0cLwKdxIkBBG_KPXlVS5xE-m40]--></g></svg>