<?xml version="1.0" encoding="us-ascii" standalone="no"?><svg xmlns="http://www.w3.org/2000/svg" xmlns:xlink="http://www.w3.org/1999/xlink" contentStyleType="text/css" height="638px" preserveAspectRatio="none" style="width:375px;height:638px;background:#FFFFFF;" version="1.1" viewBox="0 0 375 638" width="375px" zoomAndPan="magnify"><defs/><g><!--class AcceptRejectRequestEnrollmentUI--><g id="elem_AcceptRejectRequestEnrollmentUI"><rect codeLine="2" fill="#F1F1F1" height="56.6211" id="AcceptRejectRequestEnrollmentUI" rx="2.5" ry="2.5" style="stroke:#181818;stroke-width:0.5;" width="263" x="56" y="7"/><ellipse cx="71" cy="27.3105" fill="#ADD1B2" rx="11" ry="11" style="stroke:#181818;stroke-width:1.0;"/><path d="M73.9731,32.9536 Q73.3921,33.2524 72.7529,33.4019 Q72.1138,33.5513 71.4082,33.5513 Q68.9014,33.5513 67.5815,31.8994 Q66.2617,30.2476 66.2617,27.1265 Q66.2617,23.9971 67.5815,22.3452 Q68.9014,20.6934 71.4082,20.6934 Q72.1138,20.6934 72.7612,20.8428 Q73.4087,20.9922 73.9731,21.291 L73.9731,24.0137 Q73.3423,23.4326 72.7488,23.1628 Q72.1553,22.8931 71.5244,22.8931 Q70.1797,22.8931 69.4949,23.9597 Q68.8101,25.0264 68.8101,27.1265 Q68.8101,29.2183 69.4949,30.2849 Q70.1797,31.3516 71.5244,31.3516 Q72.1553,31.3516 72.7488,31.0818 Q73.3423,30.812 73.9731,30.231 Z " fill="#000000"/><text fill="#000000" font-family="sans-serif" font-size="12" font-style="italic" lengthAdjust="spacing" textLength="23" x="189" y="23.6016">&#171;UI&#187;</text><text fill="#000000" font-family="sans-serif" font-size="14" lengthAdjust="spacing" textLength="231" x="85" y="39.668">AcceptRejectRequestEnrollmentUI</text><line style="stroke:#181818;stroke-width:0.5;" x1="57" x2="318" y1="47.6211" y2="47.6211"/><line style="stroke:#181818;stroke-width:0.5;" x1="57" x2="318" y1="55.6211" y2="55.6211"/></g><!--class AcceptRejectRequestEnrollmentController--><g id="elem_AcceptRejectRequestEnrollmentController"><rect codeLine="5" fill="#F1F1F1" height="106.0859" id="AcceptRejectRequestEnrollmentController" rx="2.5" ry="2.5" style="stroke:#181818;stroke-width:0.5;" width="361" x="7" y="125"/><ellipse cx="40.9" cy="145.3105" fill="#ADD1B2" rx="11" ry="11" style="stroke:#181818;stroke-width:1.0;"/><path d="M43.8731,150.9536 Q43.2921,151.2524 42.6529,151.4019 Q42.0138,151.5513 41.3082,151.5513 Q38.8014,151.5513 37.4815,149.8994 Q36.1617,148.2476 36.1617,145.1265 Q36.1617,141.9971 37.4815,140.3452 Q38.8014,138.6934 41.3082,138.6934 Q42.0138,138.6934 42.6612,138.8428 Q43.3087,138.9922 43.8731,139.291 L43.8731,142.0137 Q43.2423,141.4326 42.6488,141.1628 Q42.0553,140.8931 41.4244,140.8931 Q40.0797,140.8931 39.3949,141.9597 Q38.7101,143.0264 38.7101,145.1265 Q38.7101,147.2183 39.3949,148.2849 Q40.0797,149.3516 41.4244,149.3516 Q42.0553,149.3516 42.6488,149.0818 Q43.2423,148.812 43.8731,148.231 Z " fill="#000000"/><text fill="#000000" font-family="sans-serif" font-size="12" font-style="italic" lengthAdjust="spacing" textLength="68" x="168.6" y="141.6016">&#171;Controller&#187;</text><text fill="#000000" font-family="sans-serif" font-size="14" lengthAdjust="spacing" textLength="287" x="59.1" y="157.668">AcceptRejectRequestEnrollmentController</text><line style="stroke:#181818;stroke-width:0.5;" x1="8" x2="367" y1="165.6211" y2="165.6211"/><line style="stroke:#181818;stroke-width:0.5;" x1="8" x2="367" y1="173.6211" y2="173.6211"/><ellipse cx="18" cy="187.3652" fill="#84BE84" rx="3" ry="3" style="stroke:#038048;stroke-width:1.0;"/><text fill="#000000" font-family="sans-serif" font-size="14" lengthAdjust="spacing" textLength="335" x="27" y="191.1563">Iterable&lt;Enrollment&gt; : findEnrollmentRequests()</text><ellipse cx="18" cy="203.8535" fill="#84BE84" rx="3" ry="3" style="stroke:#038048;stroke-width:1.0;"/><text fill="#000000" font-family="sans-serif" font-size="14" lengthAdjust="spacing" textLength="245" x="27" y="207.6445">void : acceptEnrollment(enrollment)</text><ellipse cx="18" cy="220.3418" fill="#84BE84" rx="3" ry="3" style="stroke:#038048;stroke-width:1.0;"/><text fill="#000000" font-family="sans-serif" font-size="14" lengthAdjust="spacing" textLength="239" x="27" y="224.1328">void : rejectEnrollment(enrollment)</text></g><!--class Enrollment--><g id="elem_Enrollment"><rect codeLine="11" fill="#F1F1F1" height="172.0391" id="Enrollment" rx="2.5" ry="2.5" style="stroke:#181818;stroke-width:0.5;" width="347" x="14" y="459"/><ellipse cx="145.75" cy="479.3105" fill="#ADD1B2" rx="11" ry="11" style="stroke:#181818;stroke-width:1.0;"/><path d="M148.7231,484.9536 Q148.1421,485.2524 147.5029,485.4019 Q146.8638,485.5513 146.1582,485.5513 Q143.6514,485.5513 142.3315,483.8994 Q141.0117,482.2476 141.0117,479.1265 Q141.0117,475.9971 142.3315,474.3452 Q143.6514,472.6934 146.1582,472.6934 Q146.8638,472.6934 147.5112,472.8428 Q148.1587,472.9922 148.7231,473.291 L148.7231,476.0137 Q148.0923,475.4326 147.4988,475.1628 Q146.9053,474.8931 146.2744,474.8931 Q144.9297,474.8931 144.2449,475.9597 Q143.5601,477.0264 143.5601,479.1265 Q143.5601,481.2183 144.2449,482.2849 Q144.9297,483.3516 146.2744,483.3516 Q146.9053,483.3516 147.4988,483.0818 Q148.0923,482.812 148.7231,482.231 Z " fill="#000000"/><text fill="#000000" font-family="sans-serif" font-size="12" font-style="italic" lengthAdjust="spacing" textLength="56" x="175.75" y="475.6016">&#171;Domain&#187;</text><text fill="#000000" font-family="sans-serif" font-size="14" lengthAdjust="spacing" textLength="75" x="166.25" y="491.668">Enrollment</text><line style="stroke:#181818;stroke-width:0.5;" x1="15" x2="360" y1="499.6211" y2="499.6211"/><rect fill="none" height="6" style="stroke:#C82930;stroke-width:1.0;" width="6" x="22" y="510.3652"/><text fill="#000000" font-family="sans-serif" font-size="14" lengthAdjust="spacing" textLength="117" x="34" y="517.1563">Student : student</text><rect fill="none" height="6" style="stroke:#C82930;stroke-width:1.0;" width="6" x="22" y="526.8535"/><text fill="#000000" font-family="sans-serif" font-size="14" lengthAdjust="spacing" textLength="107" x="34" y="533.6445">Course : course</text><rect fill="none" height="6" style="stroke:#C82930;stroke-width:1.0;" width="6" x="22" y="543.3418"/><text fill="#000000" font-family="sans-serif" font-size="14" lengthAdjust="spacing" textLength="246" x="34" y="550.1328">EnrollmentStatus : enrollmentStatus</text><rect fill="none" height="6" style="stroke:#C82930;stroke-width:1.0;" width="6" x="22" y="559.8301"/><text fill="#000000" font-family="sans-serif" font-size="14" lengthAdjust="spacing" textLength="93" x="34" y="566.6211">Grade : grade</text><rect fill="none" height="6" style="stroke:#C82930;stroke-width:1.0;" width="6" x="22" y="576.3184"/><text fill="#000000" font-family="sans-serif" font-size="14" lengthAdjust="spacing" textLength="321" x="34" y="583.1094">List&lt;ExamEnrollment&gt; : exameEnrollmentsList</text><line style="stroke:#181818;stroke-width:0.5;" x1="15" x2="360" y1="590.0625" y2="590.0625"/><ellipse cx="25" cy="603.8066" fill="#84BE84" rx="3" ry="3" style="stroke:#038048;stroke-width:1.0;"/><text fill="#000000" font-family="sans-serif" font-size="14" lengthAdjust="spacing" textLength="170" x="34" y="607.5977">void : acceptEnrollment()</text><ellipse cx="25" cy="620.2949" fill="#84BE84" rx="3" ry="3" style="stroke:#038048;stroke-width:1.0;"/><text fill="#000000" font-family="sans-serif" font-size="14" lengthAdjust="spacing" textLength="164" x="34" y="624.0859">void : rejectEnrollment()</text></g><!--class EnrollmentRepository--><g id="elem_EnrollmentRepository"><rect codeLine="21" fill="#F1F1F1" height="89.5977" id="EnrollmentRepository" rx="2.5" ry="2.5" style="stroke:#181818;stroke-width:0.5;" width="361" x="7" y="292"/><ellipse cx="109.25" cy="312.3105" fill="#ADD1B2" rx="11" ry="11" style="stroke:#181818;stroke-width:1.0;"/><path d="M112.2231,317.9536 Q111.6421,318.2524 111.0029,318.4019 Q110.3638,318.5513 109.6582,318.5513 Q107.1514,318.5513 105.8315,316.8994 Q104.5117,315.2476 104.5117,312.1265 Q104.5117,308.9971 105.8315,307.3452 Q107.1514,305.6934 109.6582,305.6934 Q110.3638,305.6934 111.0112,305.8428 Q111.6587,305.9922 112.2231,306.291 L112.2231,309.0137 Q111.5923,308.4326 110.9988,308.1628 Q110.4053,307.8931 109.7744,307.8931 Q108.4297,307.8931 107.7449,308.9597 Q107.0601,310.0264 107.0601,312.1265 Q107.0601,314.2183 107.7449,315.2849 Q108.4297,316.3516 109.7744,316.3516 Q110.4053,316.3516 110.9988,316.0818 Q111.5923,315.812 112.2231,315.231 Z " fill="#000000"/><text fill="#000000" font-family="sans-serif" font-size="12" font-style="italic" lengthAdjust="spacing" textLength="73" x="167.25" y="308.6016">&#171;Repository&#187;</text><text fill="#000000" font-family="sans-serif" font-size="14" lengthAdjust="spacing" textLength="148" x="129.75" y="324.668">EnrollmentRepository</text><line style="stroke:#181818;stroke-width:0.5;" x1="8" x2="367" y1="332.6211" y2="332.6211"/><line style="stroke:#181818;stroke-width:0.5;" x1="8" x2="367" y1="340.6211" y2="340.6211"/><ellipse cx="18" cy="354.3652" fill="#84BE84" rx="3" ry="3" style="stroke:#038048;stroke-width:1.0;"/><text fill="#000000" font-family="sans-serif" font-size="14" lengthAdjust="spacing" textLength="335" x="27" y="358.1563">Iterable&lt;Enrollment&gt; : findEnrollmentRequests()</text><ellipse cx="18" cy="370.8535" fill="#84BE84" rx="3" ry="3" style="stroke:#038048;stroke-width:1.0;"/><text fill="#000000" font-family="sans-serif" font-size="14" lengthAdjust="spacing" textLength="160" x="27" y="374.6445">void : save (enrollment)</text></g><!--link AcceptRejectRequestEnrollmentUI to AcceptRejectRequestEnrollmentController--><g id="link_AcceptRejectRequestEnrollmentUI_AcceptRejectRequestEnrollmentController"><path codeLine="26" d="M187.5,64.26 C187.5,79.84 187.5,99.89 187.5,118.75 " fill="none" id="AcceptRejectRequestEnrollmentUI-to-AcceptRejectRequestEnrollmentController" style="stroke:#181818;stroke-width:1.0;stroke-dasharray:7.0,7.0;"/><polygon fill="#181818" points="187.5,123.56,191.5,114.56,187.5,118.56,183.5,114.56,187.5,123.56" style="stroke:#181818;stroke-width:1.0;"/></g><!--link AcceptRejectRequestEnrollmentController to EnrollmentRepository--><g id="link_AcceptRejectRequestEnrollmentController_EnrollmentRepository"><path codeLine="27" d="M187.5,231.28 C187.5,248.83 187.5,268.36 187.5,285.75 " fill="none" id="AcceptRejectRequestEnrollmentController-to-EnrollmentRepository" style="stroke:#181818;stroke-width:1.0;"/><polygon fill="#181818" points="187.5,290.56,191.5,281.56,187.5,285.56,183.5,281.56,187.5,290.56" style="stroke:#181818;stroke-width:1.0;"/></g><!--link EnrollmentRepository to Enrollment--><g id="link_EnrollmentRepository_Enrollment"><path codeLine="28" d="M187.5,382.45 C187.5,403.03 187.5,428.29 187.5,452.67 " fill="none" id="EnrollmentRepository-to-Enrollment" style="stroke:#181818;stroke-width:1.0;"/><polygon fill="#181818" points="187.5,457.51,191.5,448.51,187.5,452.51,183.5,448.51,187.5,457.51" style="stroke:#181818;stroke-width:1.0;"/><polygon fill="#000000" points="192.5,425.6553,195.4389,416.6102,189.5611,416.6102,192.5,425.6553" style="stroke:#000000;stroke-width:1.0;"/><text fill="#000000" font-family="sans-serif" font-size="13" lengthAdjust="spacing" textLength="35" x="201.5" y="425.5684">saves</text></g><!--SRC=[hLB1QiCm3BtxAtJi6Ea7b60ONHc1dLhw0QwZ3O_4RYsbR9J-U-tCn3Haf8VbaCXFxodIitIZYE15Qppo5hzGX_UfG-ADzQvfMhIyhw0izvMKS15N8VIyOkqinnXzKEP3Nm72ymmLerU71iiiah223sFhZAIwj7XAghCpTM2f_j-Pjy0X735ztzyVp66Md0_jlhfM6JkqMi2EkpgcLa2_KSBNhlE40TPzaD1SQyUAEmfv7469-UPL7UMVyPkmTqDSRhvLUsyB1WGpH94sOycS4PFZR_7eoB3pFy68VFYlUoDrHXXVmTpgBPVoqMKJZovbKSZ9gSMa5VViD0U15E86]--></g></svg>