<?xml version="1.0" encoding="us-ascii" standalone="no"?><svg xmlns="http://www.w3.org/2000/svg" xmlns:xlink="http://www.w3.org/1999/xlink" contentStyleType="text/css" height="568px" preserveAspectRatio="none" style="width:349px;height:568px;background:#FFFFFF;" version="1.1" viewBox="0 0 349 568" width="349px" zoomAndPan="magnify"><defs/><g><rect fill="none" height="179.7168" style="stroke:#000000;stroke-width:1.5;" width="332.5" x="10" y="288.3672"/><rect fill="none" height="98.5039" style="stroke:#000000;stroke-width:1.5;" width="312.5" x="20" y="314.6582"/><line style="stroke:#181818;stroke-width:0.5;stroke-dasharray:5.0,5.0;" x1="57" x2="57" y1="83.6211" y2="485.084"/><line style="stroke:#181818;stroke-width:0.5;stroke-dasharray:5.0,5.0;" x1="292.5" x2="292.5" y1="83.6211" y2="485.084"/><text fill="#000000" font-family="sans-serif" font-size="14" lengthAdjust="spacing" textLength="49" x="30" y="80.1074">Student</text><ellipse cx="57.5" cy="13.5" fill="#E2E2F0" rx="8" ry="8" style="stroke:#181818;stroke-width:0.5;"/><path d="M57.5,21.5 L57.5,48.5 M44.5,29.5 L70.5,29.5 M57.5,48.5 L44.5,63.5 M57.5,48.5 L70.5,63.5 " fill="none" style="stroke:#181818;stroke-width:0.5;"/><text fill="#000000" font-family="sans-serif" font-size="14" lengthAdjust="spacing" textLength="49" x="30" y="499.1914">Student</text><ellipse cx="57.5" cy="511.2051" fill="#E2E2F0" rx="8" ry="8" style="stroke:#181818;stroke-width:0.5;"/><path d="M57.5,519.2051 L57.5,546.2051 M44.5,527.2051 L70.5,527.2051 M57.5,546.2051 L44.5,561.2051 M57.5,546.2051 L70.5,561.2051 " fill="none" style="stroke:#181818;stroke-width:0.5;"/><rect fill="#E2E2F0" height="32.6211" rx="2.5" ry="2.5" style="stroke:#181818;stroke-width:0.5;" width="60" x="262.5" y="50"/><text fill="#000000" font-family="sans-serif" font-size="14" lengthAdjust="spacing" textLength="46" x="269.5" y="72.1074">System</text><rect fill="#E2E2F0" height="32.6211" rx="2.5" ry="2.5" style="stroke:#181818;stroke-width:0.5;" width="60" x="262.5" y="484.084"/><text fill="#000000" font-family="sans-serif" font-size="14" lengthAdjust="spacing" textLength="46" x="269.5" y="506.1914">System</text><polygon fill="#181818" points="280.5,112.9121,290.5,116.9121,280.5,120.9121,284.5,116.9121" style="stroke:#181818;stroke-width:1.0;"/><line style="stroke:#181818;stroke-width:1.0;" x1="57.5" x2="286.5" y1="116.9121" y2="116.9121"/><text fill="#000000" font-family="sans-serif" font-size="13" font-weight="bold" lengthAdjust="spacing" textLength="7" x="64.5" y="111.6494">1</text><text fill="#000000" font-family="sans-serif" font-size="13" lengthAdjust="spacing" textLength="137" x="75.5" y="111.6494">asks to create an exam</text><polygon fill="#181818" points="68.5,144.2031,58.5,148.2031,68.5,152.2031,64.5,148.2031" style="stroke:#181818;stroke-width:1.0;"/><line style="stroke:#181818;stroke-width:1.0;stroke-dasharray:2.0,2.0;" x1="62.5" x2="291.5" y1="148.2031" y2="148.2031"/><text fill="#000000" font-family="sans-serif" font-size="13" font-weight="bold" lengthAdjust="spacing" textLength="7" x="74.5" y="142.9404">2</text><text fill="#000000" font-family="sans-serif" font-size="13" lengthAdjust="spacing" textLength="81" x="85.5" y="142.9404">selects option</text><polygon fill="#181818" points="280.5,175.4941,290.5,179.4941,280.5,183.4941,284.5,179.4941" style="stroke:#181818;stroke-width:1.0;"/><line style="stroke:#181818;stroke-width:1.0;" x1="57.5" x2="286.5" y1="179.4941" y2="179.4941"/><text fill="#000000" font-family="sans-serif" font-size="13" font-weight="bold" lengthAdjust="spacing" textLength="7" x="64.5" y="174.2314">3</text><text fill="#000000" font-family="sans-serif" font-size="13" lengthAdjust="spacing" textLength="143" x="75.5" y="174.2314">asks to choose a course</text><polygon fill="#181818" points="68.5,206.7852,58.5,210.7852,68.5,214.7852,64.5,210.7852" style="stroke:#181818;stroke-width:1.0;"/><line style="stroke:#181818;stroke-width:1.0;stroke-dasharray:2.0,2.0;" x1="62.5" x2="291.5" y1="210.7852" y2="210.7852"/><text fill="#000000" font-family="sans-serif" font-size="13" font-weight="bold" lengthAdjust="spacing" textLength="7" x="74.5" y="205.5225">4</text><text fill="#000000" font-family="sans-serif" font-size="13" lengthAdjust="spacing" textLength="85" x="85.5" y="205.5225">selects course</text><polygon fill="#181818" points="68.5,238.0762,58.5,242.0762,68.5,246.0762,64.5,242.0762" style="stroke:#181818;stroke-width:1.0;"/><line style="stroke:#181818;stroke-width:1.0;stroke-dasharray:2.0,2.0;" x1="62.5" x2="291.5" y1="242.0762" y2="242.0762"/><text fill="#000000" font-family="sans-serif" font-size="13" font-weight="bold" lengthAdjust="spacing" textLength="7" x="74.5" y="236.8135">5</text><text fill="#000000" font-family="sans-serif" font-size="13" lengthAdjust="spacing" textLength="95" x="85.5" y="236.8135">asks for file path</text><polygon fill="#181818" points="280.5,269.3672,290.5,273.3672,280.5,277.3672,284.5,273.3672" style="stroke:#181818;stroke-width:1.0;"/><line style="stroke:#181818;stroke-width:1.0;" x1="57.5" x2="286.5" y1="273.3672" y2="273.3672"/><text fill="#000000" font-family="sans-serif" font-size="13" font-weight="bold" lengthAdjust="spacing" textLength="7" x="64.5" y="268.1045">6</text><text fill="#000000" font-family="sans-serif" font-size="13" lengthAdjust="spacing" textLength="88" x="75.5" y="268.1045">inserts file path</text><path d="M10,288.3672 L71,288.3672 L71,297.6582 L61,307.6582 L10,307.6582 L10,288.3672 " fill="#EEEEEE" style="stroke:#000000;stroke-width:1.5;"/><rect fill="none" height="179.7168" style="stroke:#000000;stroke-width:1.5;" width="332.5" x="10" y="288.3672"/><text fill="#000000" font-family="sans-serif" font-size="13" font-weight="bold" lengthAdjust="spacing" textLength="16" x="25" y="303.3955">alt</text><text fill="#000000" font-family="sans-serif" font-size="11" font-weight="bold" lengthAdjust="spacing" textLength="92" x="86" y="302.2373">[if file is not null]</text><path d="M20,314.6582 L81,314.6582 L81,323.9492 L71,333.9492 L20,333.9492 L20,314.6582 " fill="#EEEEEE" style="stroke:#000000;stroke-width:1.5;"/><rect fill="none" height="98.5039" style="stroke:#000000;stroke-width:1.5;" width="312.5" x="20" y="314.6582"/><text fill="#000000" font-family="sans-serif" font-size="13" font-weight="bold" lengthAdjust="spacing" textLength="16" x="35" y="329.6865">alt</text><text fill="#000000" font-family="sans-serif" font-size="11" font-weight="bold" lengthAdjust="spacing" textLength="105" x="96" y="328.5283">[if exam is not null]</text><polygon fill="#181818" points="68.5,353.2402,58.5,357.2402,68.5,361.2402,64.5,357.2402" style="stroke:#181818;stroke-width:1.0;"/><line style="stroke:#181818;stroke-width:1.0;stroke-dasharray:2.0,2.0;" x1="62.5" x2="291.5" y1="357.2402" y2="357.2402"/><text fill="#000000" font-family="sans-serif" font-size="13" font-weight="bold" lengthAdjust="spacing" textLength="7" x="74.5" y="351.9775">7</text><text fill="#000000" font-family="sans-serif" font-size="13" lengthAdjust="spacing" textLength="142" x="85.5" y="351.9775">shows the exam created</text><line style="stroke:#000000;stroke-width:1.0;stroke-dasharray:2.0,2.0;" x1="20" x2="332.5" y1="366.2402" y2="366.2402"/><text fill="#000000" font-family="sans-serif" font-size="11" font-weight="bold" lengthAdjust="spacing" textLength="84" x="25" y="378.1104">[if exam is null]</text><polygon fill="#181818" points="68.5,401.1621,58.5,405.1621,68.5,409.1621,64.5,405.1621" style="stroke:#181818;stroke-width:1.0;"/><line style="stroke:#181818;stroke-width:1.0;stroke-dasharray:2.0,2.0;" x1="62.5" x2="291.5" y1="405.1621" y2="405.1621"/><text fill="#000000" font-family="sans-serif" font-size="13" font-weight="bold" lengthAdjust="spacing" textLength="7" x="74.5" y="399.8994">8</text><text fill="#000000" font-family="sans-serif" font-size="13" lengthAdjust="spacing" textLength="200" x="85.5" y="399.8994">informs about exam not being valid</text><line style="stroke:#000000;stroke-width:1.0;stroke-dasharray:2.0,2.0;" x1="10" x2="342.5" y1="421.1621" y2="421.1621"/><text fill="#000000" font-family="sans-serif" font-size="11" font-weight="bold" lengthAdjust="spacing" textLength="71" x="15" y="433.0322">[if file is null]</text><polygon fill="#181818" points="68.5,456.084,58.5,460.084,68.5,464.084,64.5,460.084" style="stroke:#181818;stroke-width:1.0;"/><line style="stroke:#181818;stroke-width:1.0;stroke-dasharray:2.0,2.0;" x1="62.5" x2="291.5" y1="460.084" y2="460.084"/><text fill="#000000" font-family="sans-serif" font-size="13" font-weight="bold" lengthAdjust="spacing" textLength="7" x="74.5" y="454.8213">9</text><text fill="#000000" font-family="sans-serif" font-size="13" lengthAdjust="spacing" textLength="184" x="85.5" y="454.8213">informs about file not being valid</text><!--SRC=[ZP11JiGm34NtFOLth4ht8pGIPvWJkAaxZKZiKZi3t7xI1eOWbO6iek_lz_FpC9dDUkYwEI1RYk7HIUoKNXEnetRmU5umDWqwamLEbWPY0rHuNeMi9nDEiQTytoHeZt3wKAC8X-nxKJ01jn0Q0JBGUwOLurFRVZj1AP0p1PdD2zzZJIAQMU0aBKftOPyMo6V7jX77h8u-4CneK-MiepqhBHdtquV1m8z5z0ei1fn2s6RLV6syE__bLJh9MouwKTaiNpVSjYZayZNs7qZFkMLKm5wIbStrDJrvFiC5Ww_mNEvVCRTsTSoV4TlMNiIARwu0]--></g></svg>