<?xml version="1.0" encoding="us-ascii" standalone="no"?><svg xmlns="http://www.w3.org/2000/svg" xmlns:xlink="http://www.w3.org/1999/xlink" contentStyleType="text/css" height="618.1px" preserveAspectRatio="none" style="width:870px;height:618px;background:#FFFFFF;" version="1.1" viewBox="0 0 870 618" width="870.8px" zoomAndPan="magnify"><defs/><g><!--class CreatePostItUI--><g id="elem_CreatePostItUI"><rect codeLine="2" fill="#F1F1F1" height="42.4074" id="CreatePostItUI" rx="1.75" ry="1.75" style="stroke:#181818;stroke-width:0.3499999999999999;" width="85.4" x="196.7" y="4.9"/><ellipse cx="207.2" cy="20.5037" fill="#ADD1B2" rx="7.7" ry="7.7" style="stroke:#181818;stroke-width:0.6999999999999998;"/><path d="M209.1359,17.6162 Q209.2453,17.4631 209.3766,17.3865 Q209.5078,17.31 209.6609,17.31 Q209.9234,17.31 210.0875,17.4959 Q210.2516,17.6709 210.2516,18.0975 L210.2516,19.1146 Q210.2516,19.5412 210.0875,19.7271 Q209.9234,19.9131 209.6609,19.9131 Q209.4203,19.9131 209.2781,19.7709 Q209.1359,19.6396 209.0594,19.2787 Q209.0266,19.0271 208.8953,18.8959 Q208.6656,18.6334 208.2391,18.4803 Q207.8125,18.3271 207.375,18.3271 Q206.8391,18.3271 206.3906,18.5568 Q205.9531,18.7865 205.6031,19.3115 Q205.2641,19.8365 205.2641,20.5584 L205.2641,21.324 Q205.2641,22.1881 205.8875,22.7678 Q206.5109,23.3365 207.6266,23.3365 Q208.2828,23.3365 208.7422,23.1615 Q209.0156,23.0521 209.3109,22.7459 Q209.4969,22.56 209.5953,22.5053 Q209.7047,22.4506 209.8469,22.4506 Q210.0766,22.4506 210.2516,22.6365 Q210.4375,22.8115 210.4375,23.0521 Q210.4375,23.2928 210.1969,23.5771 Q209.8469,23.9818 209.2891,24.2115 Q208.5344,24.5287 207.6266,24.5287 Q206.5656,24.5287 205.7234,24.0912 Q205.0344,23.7412 204.5531,22.9975 Q204.0719,22.2428 204.0719,21.3459 L204.0719,20.5365 Q204.0719,19.6068 204.4984,18.8084 Q204.9359,17.999 205.7016,17.5725 Q206.4672,17.135 207.3312,17.135 Q207.8453,17.135 208.2937,17.2553 Q208.7531,17.3646 209.1359,17.6162 Z " fill="#000000"/><text fill="#000000" font-family="sans-serif" font-size="8.4" font-style="italic" lengthAdjust="spacing" textLength="18.9" x="239.05" y="17.4645">&#171;UI&#187;</text><text fill="#000000" font-family="sans-serif" font-size="9.8" lengthAdjust="spacing" textLength="63" x="217" y="30.1479">CreatePostItUI</text><line style="stroke:#181818;stroke-width:0.3499999999999999;" x1="197.4" x2="281.4" y1="36.1074" y2="36.1074"/><line style="stroke:#181818;stroke-width:0.3499999999999999;" x1="197.4" x2="281.4" y1="41.7074" y2="41.7074"/></g><!--class ShareSharedBoardController--><g id="elem_ShareSharedBoardController"><rect codeLine="5" fill="#F1F1F1" height="68.477" id="ShareSharedBoardController" rx="1.75" ry="1.75" style="stroke:#181818;stroke-width:0.3499999999999999;" width="321.3" x="64.75" y="255.5"/><ellipse cx="158.025" cy="271.1037" fill="#ADD1B2" rx="7.7" ry="7.7" style="stroke:#181818;stroke-width:0.6999999999999998;"/><path d="M159.9609,268.2162 Q160.0703,268.0631 160.2016,267.9865 Q160.3328,267.91 160.4859,267.91 Q160.7484,267.91 160.9125,268.0959 Q161.0766,268.2709 161.0766,268.6975 L161.0766,269.7146 Q161.0766,270.1412 160.9125,270.3271 Q160.7484,270.5131 160.4859,270.5131 Q160.2453,270.5131 160.1031,270.3709 Q159.9609,270.2396 159.8844,269.8787 Q159.8516,269.6271 159.7203,269.4959 Q159.4906,269.2334 159.0641,269.0803 Q158.6375,268.9271 158.2,268.9271 Q157.6641,268.9271 157.2156,269.1568 Q156.7781,269.3865 156.4281,269.9115 Q156.0891,270.4365 156.0891,271.1584 L156.0891,271.924 Q156.0891,272.7881 156.7125,273.3678 Q157.3359,273.9365 158.4516,273.9365 Q159.1078,273.9365 159.5672,273.7615 Q159.8406,273.6521 160.1359,273.3459 Q160.3219,273.16 160.4203,273.1053 Q160.5297,273.0506 160.6719,273.0506 Q160.9016,273.0506 161.0766,273.2365 Q161.2625,273.4115 161.2625,273.6521 Q161.2625,273.8928 161.0219,274.1771 Q160.6719,274.5818 160.1141,274.8115 Q159.3594,275.1287 158.4516,275.1287 Q157.3906,275.1287 156.5484,274.6912 Q155.8594,274.3412 155.3781,273.5975 Q154.8969,272.8428 154.8969,271.9459 L154.8969,271.1365 Q154.8969,270.2068 155.3234,269.4084 Q155.7609,268.599 156.5266,268.1725 Q157.2922,267.735 158.1562,267.735 Q158.6703,267.735 159.1187,267.8553 Q159.5781,267.9646 159.9609,268.2162 Z " fill="#000000"/><text fill="#000000" font-family="sans-serif" font-size="8.4" font-style="italic" lengthAdjust="spacing" textLength="47.6" x="212.975" y="268.0645">&#171;Controller&#187;</text><text fill="#000000" font-family="sans-serif" font-size="9.8" lengthAdjust="spacing" textLength="128.8" x="172.375" y="280.7479">ShareSharedBoardController</text><line style="stroke:#181818;stroke-width:0.3499999999999999;" x1="65.45" x2="385.35" y1="286.7074" y2="286.7074"/><line style="stroke:#181818;stroke-width:0.3499999999999999;" x1="65.45" x2="385.35" y1="292.3074" y2="292.3074"/><ellipse cx="72.45" cy="302.6748" fill="#84BE84" rx="2.1" ry="2.1" style="stroke:#038048;stroke-width:0.6999999999999998;"/><text fill="#000000" font-family="sans-serif" font-size="9.8" lengthAdjust="spacing" textLength="303.1" x="78.75" y="305.6826">String: chooseSharedBoard(message, List&lt;String&gt; sharedBoardList)</text><ellipse cx="72.45" cy="315.7096" fill="#84BE84" rx="2.1" ry="2.1" style="stroke:#038048;stroke-width:0.6999999999999998;"/><text fill="#000000" font-family="sans-serif" font-size="9.8" lengthAdjust="spacing" textLength="148.4" x="78.75" y="318.7174">List&lt;String&gt; extractList(response)</text></g><!--class CreatePostItController--><g id="elem_CreatePostItController"><rect codeLine="10" fill="#F1F1F1" height="120.616" id="CreatePostItController" rx="1.75" ry="1.75" style="stroke:#181818;stroke-width:0.3499999999999999;" width="236.6" x="121.1" y="90.3"/><ellipse cx="187.425" cy="105.9037" fill="#ADD1B2" rx="7.7" ry="7.7" style="stroke:#181818;stroke-width:0.6999999999999998;"/><path d="M189.3609,103.0162 Q189.4703,102.8631 189.6016,102.7865 Q189.7328,102.71 189.8859,102.71 Q190.1484,102.71 190.3125,102.8959 Q190.4766,103.0709 190.4766,103.4975 L190.4766,104.5146 Q190.4766,104.9412 190.3125,105.1271 Q190.1484,105.3131 189.8859,105.3131 Q189.6453,105.3131 189.5031,105.1709 Q189.3609,105.0396 189.2844,104.6787 Q189.2516,104.4271 189.1203,104.2959 Q188.8906,104.0334 188.4641,103.8803 Q188.0375,103.7271 187.6,103.7271 Q187.0641,103.7271 186.6156,103.9568 Q186.1781,104.1865 185.8281,104.7115 Q185.4891,105.2365 185.4891,105.9584 L185.4891,106.724 Q185.4891,107.5881 186.1125,108.1678 Q186.7359,108.7365 187.8516,108.7365 Q188.5078,108.7365 188.9672,108.5615 Q189.2406,108.4521 189.5359,108.1459 Q189.7219,107.96 189.8203,107.9053 Q189.9297,107.8506 190.0719,107.8506 Q190.3016,107.8506 190.4766,108.0365 Q190.6625,108.2115 190.6625,108.4521 Q190.6625,108.6928 190.4219,108.9771 Q190.0719,109.3818 189.5141,109.6115 Q188.7594,109.9287 187.8516,109.9287 Q186.7906,109.9287 185.9484,109.4912 Q185.2594,109.1412 184.7781,108.3975 Q184.2969,107.6428 184.2969,106.7459 L184.2969,105.9365 Q184.2969,105.0068 184.7234,104.2084 Q185.1609,103.399 185.9266,102.9725 Q186.6922,102.535 187.5562,102.535 Q188.0703,102.535 188.5187,102.6553 Q188.9781,102.7646 189.3609,103.0162 Z " fill="#000000"/><text fill="#000000" font-family="sans-serif" font-size="8.4" font-style="italic" lengthAdjust="spacing" textLength="47.6" x="226.975" y="102.8645">&#171;Controller&#187;</text><text fill="#000000" font-family="sans-serif" font-size="9.8" lengthAdjust="spacing" textLength="98" x="201.775" y="115.5479">CreatePostItController</text><line style="stroke:#181818;stroke-width:0.3499999999999999;" x1="121.8" x2="357" y1="121.5074" y2="121.5074"/><line style="stroke:#181818;stroke-width:0.3499999999999999;" x1="121.8" x2="357" y1="127.1074" y2="127.1074"/><ellipse cx="128.8" cy="137.4748" fill="#84BE84" rx="2.1" ry="2.1" style="stroke:#038048;stroke-width:0.6999999999999998;"/><text fill="#000000" font-family="sans-serif" font-size="9.8" lengthAdjust="spacing" textLength="143.5" x="135.1" y="140.4826">boolean listSharedBoards (user)</text><ellipse cx="128.8" cy="150.5096" fill="#84BE84" rx="2.1" ry="2.1" style="stroke:#038048;stroke-width:0.6999999999999998;"/><text fill="#000000" font-family="sans-serif" font-size="9.8" lengthAdjust="spacing" textLength="164.5" x="135.1" y="153.5174">boolean listCells (sharedBoardName)</text><ellipse cx="128.8" cy="163.5443" fill="#84BE84" rx="2.1" ry="2.1" style="stroke:#038048;stroke-width:0.6999999999999998;"/><text fill="#000000" font-family="sans-serif" font-size="9.8" lengthAdjust="spacing" textLength="218.4" x="135.1" y="166.5521">String: chooseCell(message, List&lt;String&gt; cellList)</text><ellipse cx="128.8" cy="176.5791" fill="#84BE84" rx="2.1" ry="2.1" style="stroke:#038048;stroke-width:0.6999999999999998;"/><text fill="#000000" font-family="sans-serif" font-size="9.8" lengthAdjust="spacing" textLength="148.4" x="135.1" y="179.5869">List&lt;String&gt; extractList(response)</text><ellipse cx="128.8" cy="189.6139" fill="#84BE84" rx="2.1" ry="2.1" style="stroke:#038048;stroke-width:0.6999999999999998;"/><text fill="#000000" font-family="sans-serif" font-size="9.8" lengthAdjust="spacing" textLength="165.2" x="135.1" y="192.6217">List&lt;String&gt; extractCellList(response)</text><ellipse cx="128.8" cy="202.6486" fill="#84BE84" rx="2.1" ry="2.1" style="stroke:#038048;stroke-width:0.6999999999999998;"/><text fill="#000000" font-family="sans-serif" font-size="9.8" lengthAdjust="spacing" textLength="176.4" x="135.1" y="205.6564">boolean createPostIt(user, content, cell)</text></g><!--class TcpServerMessageHandler--><g id="elem_TcpServerMessageHandler"><rect codeLine="19" fill="#F1F1F1" height="72.7043" id="TcpServerMessageHandler" rx="1.75" ry="1.75" style="stroke:#181818;stroke-width:0.3499999999999999;" width="236.6" x="410.9" y="253.4"/><ellipse cx="466.025" cy="264.6" fill="#ADD1B2" rx="7.7" ry="7.7" style="stroke:#181818;stroke-width:0.6999999999999998;"/><path d="M467.9609,261.7125 Q468.0703,261.5594 468.2016,261.4828 Q468.3328,261.4062 468.4859,261.4062 Q468.7484,261.4062 468.9125,261.5922 Q469.0766,261.7672 469.0766,262.1937 L469.0766,263.2109 Q469.0766,263.6375 468.9125,263.8234 Q468.7484,264.0094 468.4859,264.0094 Q468.2453,264.0094 468.1031,263.8672 Q467.9609,263.7359 467.8844,263.375 Q467.8516,263.1234 467.7203,262.9922 Q467.4906,262.7297 467.0641,262.5766 Q466.6375,262.4234 466.2,262.4234 Q465.6641,262.4234 465.2156,262.6531 Q464.7781,262.8828 464.4281,263.4078 Q464.0891,263.9328 464.0891,264.6547 L464.0891,265.4203 Q464.0891,266.2844 464.7125,266.8641 Q465.3359,267.4328 466.4516,267.4328 Q467.1078,267.4328 467.5672,267.2578 Q467.8406,267.1484 468.1359,266.8422 Q468.3219,266.6562 468.4203,266.6016 Q468.5297,266.5469 468.6719,266.5469 Q468.9016,266.5469 469.0766,266.7328 Q469.2625,266.9078 469.2625,267.1484 Q469.2625,267.3891 469.0219,267.6734 Q468.6719,268.0781 468.1141,268.3078 Q467.3594,268.625 466.4516,268.625 Q465.3906,268.625 464.5484,268.1875 Q463.8594,267.8375 463.3781,267.0937 Q462.8969,266.3391 462.8969,265.4422 L462.8969,264.6328 Q462.8969,263.7031 463.3234,262.9047 Q463.7609,262.0953 464.5266,261.6687 Q465.2922,261.2312 466.1562,261.2312 Q466.6703,261.2312 467.1187,261.3516 Q467.5781,261.4609 467.9609,261.7125 Z " fill="#000000"/><text fill="#000000" font-family="sans-serif" font-size="9.8" lengthAdjust="spacing" textLength="120.4" x="480.375" y="268.6578">TcpServerMessageHandler</text><line style="stroke:#181818;stroke-width:0.3499999999999999;" x1="411.6" x2="646.8" y1="275.8" y2="275.8"/><line style="stroke:#181818;stroke-width:0.3499999999999999;" x1="411.6" x2="646.8" y1="281.4" y2="281.4"/><ellipse cx="418.6" cy="291.7674" fill="#84BE84" rx="2.1" ry="2.1" style="stroke:#038048;stroke-width:0.6999999999999998;"/><text fill="#000000" font-family="sans-serif" font-size="9.8" lengthAdjust="spacing" textLength="218.4" x="424.9" y="294.7752">void: findSharedBoardsOfUser(version, data, out)</text><ellipse cx="418.6" cy="304.8021" fill="#84BE84" rx="2.1" ry="2.1" style="stroke:#038048;stroke-width:0.6999999999999998;"/><text fill="#000000" font-family="sans-serif" font-size="9.8" lengthAdjust="spacing" textLength="169.4" x="424.9" y="307.81">void: findFreeCells(version, data, out);</text><ellipse cx="418.6" cy="317.8369" fill="#84BE84" rx="2.1" ry="2.1" style="stroke:#038048;stroke-width:0.6999999999999998;"/><text fill="#000000" font-family="sans-serif" font-size="9.8" lengthAdjust="spacing" textLength="139.3" x="424.9" y="320.8447">createPostIt(version, data, out);</text></g><!--class UserRepository--><g id="elem_UserRepository"><rect codeLine="26" fill="#F1F1F1" height="55.4422" id="UserRepository" rx="1.75" ry="1.75" style="stroke:#181818;stroke-width:0.3499999999999999;" width="103.6" x="4.9" y="388.5"/><ellipse cx="21.385" cy="404.1037" fill="#ADD1B2" rx="7.7" ry="7.7" style="stroke:#181818;stroke-width:0.6999999999999998;"/><path d="M23.3209,401.2162 Q23.4303,401.0631 23.5616,400.9865 Q23.6928,400.91 23.8459,400.91 Q24.1084,400.91 24.2725,401.0959 Q24.4366,401.2709 24.4366,401.6975 L24.4366,402.7146 Q24.4366,403.1412 24.2725,403.3271 Q24.1084,403.5131 23.8459,403.5131 Q23.6053,403.5131 23.4631,403.3709 Q23.3209,403.2396 23.2444,402.8787 Q23.2116,402.6271 23.0803,402.4959 Q22.8506,402.2334 22.4241,402.0803 Q21.9975,401.9271 21.56,401.9271 Q21.0241,401.9271 20.5756,402.1568 Q20.1381,402.3865 19.7881,402.9115 Q19.4491,403.4365 19.4491,404.1584 L19.4491,404.924 Q19.4491,405.7881 20.0725,406.3678 Q20.6959,406.9365 21.8116,406.9365 Q22.4678,406.9365 22.9272,406.7615 Q23.2006,406.6521 23.4959,406.3459 Q23.6819,406.16 23.7803,406.1053 Q23.8897,406.0506 24.0319,406.0506 Q24.2616,406.0506 24.4366,406.2365 Q24.6225,406.4115 24.6225,406.6521 Q24.6225,406.8928 24.3819,407.1771 Q24.0319,407.5818 23.4741,407.8115 Q22.7194,408.1287 21.8116,408.1287 Q20.7506,408.1287 19.9084,407.6912 Q19.2194,407.3412 18.7381,406.5975 Q18.2569,405.8428 18.2569,404.9459 L18.2569,404.1365 Q18.2569,403.2068 18.6834,402.4084 Q19.1209,401.599 19.8866,401.1725 Q20.6522,400.735 21.5162,400.735 Q22.0303,400.735 22.4787,400.8553 Q22.9381,400.9646 23.3209,401.2162 Z " fill="#000000"/><text fill="#000000" font-family="sans-serif" font-size="8.4" font-style="italic" lengthAdjust="spacing" textLength="51.1" x="40.915" y="401.0645">&#171;Repository&#187;</text><text fill="#000000" font-family="sans-serif" font-size="9.8" lengthAdjust="spacing" textLength="67.9" x="32.515" y="413.7479">UserRepository</text><line style="stroke:#181818;stroke-width:0.3499999999999999;" x1="5.6" x2="107.8" y1="419.7074" y2="419.7074"/><line style="stroke:#181818;stroke-width:0.3499999999999999;" x1="5.6" x2="107.8" y1="425.3074" y2="425.3074"/><ellipse cx="12.6" cy="435.6748" fill="#84BE84" rx="2.1" ry="2.1" style="stroke:#038048;stroke-width:0.6999999999999998;"/><text fill="#000000" font-family="sans-serif" font-size="9.8" lengthAdjust="spacing" textLength="85.4" x="18.9" y="438.6826">void: findById(user)</text></g><!--class SharedBoardRepository--><g id="elem_SharedBoardRepository"><rect codeLine="30" fill="#F1F1F1" height="68.477" id="SharedBoardRepository" rx="1.75" ry="1.75" style="stroke:#181818;stroke-width:0.3499999999999999;" width="288.4" x="133" y="381.85"/><ellipse cx="221.025" cy="397.4537" fill="#ADD1B2" rx="7.7" ry="7.7" style="stroke:#181818;stroke-width:0.6999999999999998;"/><path d="M222.9609,394.5662 Q223.0703,394.4131 223.2016,394.3365 Q223.3328,394.26 223.4859,394.26 Q223.7484,394.26 223.9125,394.4459 Q224.0766,394.6209 224.0766,395.0475 L224.0766,396.0646 Q224.0766,396.4912 223.9125,396.6771 Q223.7484,396.8631 223.4859,396.8631 Q223.2453,396.8631 223.1031,396.7209 Q222.9609,396.5896 222.8844,396.2287 Q222.8516,395.9771 222.7203,395.8459 Q222.4906,395.5834 222.0641,395.4303 Q221.6375,395.2771 221.2,395.2771 Q220.6641,395.2771 220.2156,395.5068 Q219.7781,395.7365 219.4281,396.2615 Q219.0891,396.7865 219.0891,397.5084 L219.0891,398.274 Q219.0891,399.1381 219.7125,399.7178 Q220.3359,400.2865 221.4516,400.2865 Q222.1078,400.2865 222.5672,400.1115 Q222.8406,400.0021 223.1359,399.6959 Q223.3219,399.51 223.4203,399.4553 Q223.5297,399.4006 223.6719,399.4006 Q223.9016,399.4006 224.0766,399.5865 Q224.2625,399.7615 224.2625,400.0021 Q224.2625,400.2428 224.0219,400.5271 Q223.6719,400.9318 223.1141,401.1615 Q222.3594,401.4787 221.4516,401.4787 Q220.3906,401.4787 219.5484,401.0412 Q218.8594,400.6912 218.3781,399.9475 Q217.8969,399.1928 217.8969,398.2959 L217.8969,397.4865 Q217.8969,396.5568 218.3234,395.7584 Q218.7609,394.949 219.5266,394.5225 Q220.2922,394.085 221.1562,394.085 Q221.6703,394.085 222.1187,394.2053 Q222.5781,394.3146 222.9609,394.5662 Z " fill="#000000"/><text fill="#000000" font-family="sans-serif" font-size="8.4" font-style="italic" lengthAdjust="spacing" textLength="51.1" x="263.025" y="394.4145">&#171;Repository&#187;</text><text fill="#000000" font-family="sans-serif" font-size="9.8" lengthAdjust="spacing" textLength="106.4" x="235.375" y="407.0979">SharedBoardRepository</text><line style="stroke:#181818;stroke-width:0.3499999999999999;" x1="133.7" x2="420.7" y1="413.0574" y2="413.0574"/><line style="stroke:#181818;stroke-width:0.3499999999999999;" x1="133.7" x2="420.7" y1="418.6574" y2="418.6574"/><ellipse cx="140.7" cy="429.0248" fill="#84BE84" rx="2.1" ry="2.1" style="stroke:#038048;stroke-width:0.6999999999999998;"/><text fill="#000000" font-family="sans-serif" font-size="9.8" lengthAdjust="spacing" textLength="220.5" x="147" y="432.0326">List&lt;SharedBoard&gt; findSharedBoardOfUser(user)</text><ellipse cx="140.7" cy="442.0596" fill="#84BE84" rx="2.1" ry="2.1" style="stroke:#038048;stroke-width:0.6999999999999998;"/><text fill="#000000" font-family="sans-serif" font-size="9.8" lengthAdjust="spacing" textLength="270.2" x="147" y="445.0674">List&lt;SharedBoard&gt; findSharedBoardsAvailableForUser(user)</text></g><!--class CellRepoitory--><g id="elem_CellRepoitory"><rect codeLine="35" fill="#F1F1F1" height="68.477" id="CellRepoitory" rx="1.75" ry="1.75" style="stroke:#181818;stroke-width:0.3499999999999999;" width="166.6" x="445.9" y="381.85"/><ellipse cx="496.475" cy="397.4537" fill="#ADD1B2" rx="7.7" ry="7.7" style="stroke:#181818;stroke-width:0.6999999999999998;"/><path d="M498.4109,394.5662 Q498.5203,394.4131 498.6516,394.3365 Q498.7828,394.26 498.9359,394.26 Q499.1984,394.26 499.3625,394.4459 Q499.5266,394.6209 499.5266,395.0475 L499.5266,396.0646 Q499.5266,396.4912 499.3625,396.6771 Q499.1984,396.8631 498.9359,396.8631 Q498.6953,396.8631 498.5531,396.7209 Q498.4109,396.5896 498.3344,396.2287 Q498.3016,395.9771 498.1703,395.8459 Q497.9406,395.5834 497.5141,395.4303 Q497.0875,395.2771 496.65,395.2771 Q496.1141,395.2771 495.6656,395.5068 Q495.2281,395.7365 494.8781,396.2615 Q494.5391,396.7865 494.5391,397.5084 L494.5391,398.274 Q494.5391,399.1381 495.1625,399.7178 Q495.7859,400.2865 496.9016,400.2865 Q497.5578,400.2865 498.0172,400.1115 Q498.2906,400.0021 498.5859,399.6959 Q498.7719,399.51 498.8703,399.4553 Q498.9797,399.4006 499.1219,399.4006 Q499.3516,399.4006 499.5266,399.5865 Q499.7125,399.7615 499.7125,400.0021 Q499.7125,400.2428 499.4719,400.5271 Q499.1219,400.9318 498.5641,401.1615 Q497.8094,401.4787 496.9016,401.4787 Q495.8406,401.4787 494.9984,401.0412 Q494.3094,400.6912 493.8281,399.9475 Q493.3469,399.1928 493.3469,398.2959 L493.3469,397.4865 Q493.3469,396.5568 493.7734,395.7584 Q494.2109,394.949 494.9766,394.5225 Q495.7422,394.085 496.6062,394.085 Q497.1203,394.085 497.5687,394.2053 Q498.0281,394.3146 498.4109,394.5662 Z " fill="#000000"/><text fill="#000000" font-family="sans-serif" font-size="8.4" font-style="italic" lengthAdjust="spacing" textLength="51.1" x="515.025" y="394.4145">&#171;Repository&#187;</text><text fill="#000000" font-family="sans-serif" font-size="9.8" lengthAdjust="spacing" textLength="59.5" x="510.825" y="407.0979">CellRepoitory</text><line style="stroke:#181818;stroke-width:0.3499999999999999;" x1="446.6" x2="611.8" y1="413.0574" y2="413.0574"/><line style="stroke:#181818;stroke-width:0.3499999999999999;" x1="446.6" x2="611.8" y1="418.6574" y2="418.6574"/><ellipse cx="453.6" cy="429.0248" fill="#84BE84" rx="2.1" ry="2.1" style="stroke:#038048;stroke-width:0.6999999999999998;"/><text fill="#000000" font-family="sans-serif" font-size="9.8" lengthAdjust="spacing" textLength="66.5" x="459.9" y="432.0326">void: save(cell)</text><ellipse cx="453.6" cy="442.0596" fill="#84BE84" rx="2.1" ry="2.1" style="stroke:#038048;stroke-width:0.6999999999999998;"/><text fill="#000000" font-family="sans-serif" font-size="9.8" lengthAdjust="spacing" textLength="148.4" x="459.9" y="445.0674">void: finCell(rowTitle, columnTitle)</text></g><!--class Cell--><g id="elem_Cell"><rect codeLine="40" fill="#F1F1F1" height="94.5465" id="Cell" rx="1.75" ry="1.75" style="stroke:#181818;stroke-width:0.3499999999999999;" width="176.4" x="441" y="518.7"/><ellipse cx="512.225" cy="534.3037" fill="#ADD1B2" rx="7.7" ry="7.7" style="stroke:#181818;stroke-width:0.6999999999999998;"/><path d="M514.1609,531.4162 Q514.2703,531.2631 514.4016,531.1865 Q514.5328,531.11 514.6859,531.11 Q514.9484,531.11 515.1125,531.2959 Q515.2766,531.4709 515.2766,531.8975 L515.2766,532.9146 Q515.2766,533.3412 515.1125,533.5271 Q514.9484,533.7131 514.6859,533.7131 Q514.4453,533.7131 514.3031,533.5709 Q514.1609,533.4396 514.0844,533.0787 Q514.0516,532.8271 513.9203,532.6959 Q513.6906,532.4334 513.2641,532.2803 Q512.8375,532.1271 512.4,532.1271 Q511.8641,532.1271 511.4156,532.3568 Q510.9781,532.5865 510.6281,533.1115 Q510.2891,533.6365 510.2891,534.3584 L510.2891,535.124 Q510.2891,535.9881 510.9125,536.5678 Q511.5359,537.1365 512.6516,537.1365 Q513.3078,537.1365 513.7672,536.9615 Q514.0406,536.8521 514.3359,536.5459 Q514.5219,536.36 514.6203,536.3053 Q514.7297,536.2506 514.8719,536.2506 Q515.1016,536.2506 515.2766,536.4365 Q515.4625,536.6115 515.4625,536.8521 Q515.4625,537.0928 515.2219,537.3771 Q514.8719,537.7818 514.3141,538.0115 Q513.5594,538.3287 512.6516,538.3287 Q511.5906,538.3287 510.7484,537.8912 Q510.0594,537.5412 509.5781,536.7975 Q509.0969,536.0428 509.0969,535.1459 L509.0969,534.3365 Q509.0969,533.4068 509.5234,532.6084 Q509.9609,531.799 510.7266,531.3725 Q511.4922,530.935 512.3562,530.935 Q512.8703,530.935 513.3187,531.0553 Q513.7781,531.1646 514.1609,531.4162 Z " fill="#000000"/><text fill="#000000" font-family="sans-serif" font-size="8.4" font-style="italic" lengthAdjust="spacing" textLength="30.8" x="525.175" y="531.2645">&#171;Entity&#187;</text><text fill="#000000" font-family="sans-serif" font-size="9.8" lengthAdjust="spacing" textLength="16.8" x="532.175" y="543.9479">Cell</text><line style="stroke:#181818;stroke-width:0.3499999999999999;" x1="441.7" x2="616.7" y1="549.9074" y2="549.9074"/><text fill="#000000" font-family="sans-serif" font-size="9.8" lengthAdjust="spacing" textLength="55.3" x="445.2" y="563.2826">String: cellID</text><text fill="#000000" font-family="sans-serif" font-size="9.8" lengthAdjust="spacing" textLength="65.8" x="445.2" y="576.3174">int: rowNumber</text><text fill="#000000" font-family="sans-serif" font-size="9.8" lengthAdjust="spacing" textLength="81.9" x="445.2" y="589.3521">int: columnNumber</text><line style="stroke:#181818;stroke-width:0.3499999999999999;" x1="441.7" x2="616.7" y1="594.6117" y2="594.6117"/><ellipse cx="448.7" cy="604.9791" fill="#84BE84" rx="2.1" ry="2.1" style="stroke:#038048;stroke-width:0.6999999999999998;"/><text fill="#000000" font-family="sans-serif" font-size="9.8" lengthAdjust="spacing" textLength="158.2" x="455" y="607.9869">void: changeTheFreeStatus(isFree)</text></g><!--class PostItRepository--><g id="elem_PostItRepository"><rect codeLine="48" fill="#F1F1F1" height="55.4422" id="PostItRepository" rx="1.75" ry="1.75" style="stroke:#181818;stroke-width:0.3499999999999999;" width="94.5" x="637.35" y="388.5"/><ellipse cx="647.85" cy="404.1037" fill="#ADD1B2" rx="7.7" ry="7.7" style="stroke:#181818;stroke-width:0.6999999999999998;"/><path d="M649.7859,401.2162 Q649.8953,401.0631 650.0266,400.9865 Q650.1578,400.91 650.3109,400.91 Q650.5734,400.91 650.7375,401.0959 Q650.9016,401.2709 650.9016,401.6975 L650.9016,402.7146 Q650.9016,403.1412 650.7375,403.3271 Q650.5734,403.5131 650.3109,403.5131 Q650.0703,403.5131 649.9281,403.3709 Q649.7859,403.2396 649.7094,402.8787 Q649.6766,402.6271 649.5453,402.4959 Q649.3156,402.2334 648.8891,402.0803 Q648.4625,401.9271 648.025,401.9271 Q647.4891,401.9271 647.0406,402.1568 Q646.6031,402.3865 646.2531,402.9115 Q645.9141,403.4365 645.9141,404.1584 L645.9141,404.924 Q645.9141,405.7881 646.5375,406.3678 Q647.1609,406.9365 648.2766,406.9365 Q648.9328,406.9365 649.3922,406.7615 Q649.6656,406.6521 649.9609,406.3459 Q650.1469,406.16 650.2453,406.1053 Q650.3547,406.0506 650.4969,406.0506 Q650.7266,406.0506 650.9016,406.2365 Q651.0875,406.4115 651.0875,406.6521 Q651.0875,406.8928 650.8469,407.1771 Q650.4969,407.5818 649.9391,407.8115 Q649.1844,408.1287 648.2766,408.1287 Q647.2156,408.1287 646.3734,407.6912 Q645.6844,407.3412 645.2031,406.5975 Q644.7219,405.8428 644.7219,404.9459 L644.7219,404.1365 Q644.7219,403.2068 645.1484,402.4084 Q645.5859,401.599 646.3516,401.1725 Q647.1172,400.735 647.9812,400.735 Q648.4953,400.735 648.9437,400.8553 Q649.4031,400.9646 649.7859,401.2162 Z " fill="#000000"/><text fill="#000000" font-family="sans-serif" font-size="8.4" font-style="italic" lengthAdjust="spacing" textLength="51.1" x="668.15" y="401.0645">&#171;Repository&#187;</text><text fill="#000000" font-family="sans-serif" font-size="9.8" lengthAdjust="spacing" textLength="72.1" x="657.65" y="413.7479">PostItRepository</text><line style="stroke:#181818;stroke-width:0.3499999999999999;" x1="638.05" x2="731.15" y1="419.7074" y2="419.7074"/><line style="stroke:#181818;stroke-width:0.3499999999999999;" x1="638.05" x2="731.15" y1="425.3074" y2="425.3074"/><ellipse cx="645.05" cy="435.6748" fill="#84BE84" rx="2.1" ry="2.1" style="stroke:#038048;stroke-width:0.6999999999999998;"/><text fill="#000000" font-family="sans-serif" font-size="9.8" lengthAdjust="spacing" textLength="75.6" x="651.35" y="438.6826">void: save(postIt)</text></g><!--class PostItBuilder--><g id="elem_PostItBuilder"><rect codeLine="52" fill="#F1F1F1" height="94.5465" id="PostItBuilder" rx="1.75" ry="1.75" style="stroke:#181818;stroke-width:0.3499999999999999;" width="109.9" x="756.35" y="368.9"/><ellipse cx="781.34" cy="384.5037" fill="#ADD1B2" rx="7.7" ry="7.7" style="stroke:#181818;stroke-width:0.6999999999999998;"/><path d="M783.2759,381.6162 Q783.3853,381.4631 783.5166,381.3865 Q783.6478,381.31 783.8009,381.31 Q784.0634,381.31 784.2275,381.4959 Q784.3916,381.6709 784.3916,382.0975 L784.3916,383.1146 Q784.3916,383.5412 784.2275,383.7271 Q784.0634,383.9131 783.8009,383.9131 Q783.5603,383.9131 783.4181,383.7709 Q783.2759,383.6396 783.1994,383.2787 Q783.1666,383.0271 783.0353,382.8959 Q782.8056,382.6334 782.3791,382.4803 Q781.9525,382.3271 781.515,382.3271 Q780.9791,382.3271 780.5306,382.5568 Q780.0931,382.7865 779.7431,383.3115 Q779.4041,383.8365 779.4041,384.5584 L779.4041,385.324 Q779.4041,386.1881 780.0275,386.7678 Q780.6509,387.3365 781.7666,387.3365 Q782.4228,387.3365 782.8822,387.1615 Q783.1556,387.0521 783.4509,386.7459 Q783.6369,386.56 783.7353,386.5053 Q783.8447,386.4506 783.9869,386.4506 Q784.2166,386.4506 784.3916,386.6365 Q784.5775,386.8115 784.5775,387.0521 Q784.5775,387.2928 784.3369,387.5771 Q783.9869,387.9818 783.4291,388.2115 Q782.6744,388.5287 781.7666,388.5287 Q780.7056,388.5287 779.8634,388.0912 Q779.1744,387.7412 778.6931,386.9975 Q778.2119,386.2428 778.2119,385.3459 L778.2119,384.5365 Q778.2119,383.6068 778.6384,382.8084 Q779.0759,381.999 779.8416,381.5725 Q780.6072,381.135 781.4712,381.135 Q781.9853,381.135 782.4337,381.2553 Q782.8931,381.3646 783.2759,381.6162 Z " fill="#000000"/><text fill="#000000" font-family="sans-serif" font-size="8.4" font-style="italic" lengthAdjust="spacing" textLength="37.1" x="803.46" y="381.4645">&#171;builder&#187;</text><text fill="#000000" font-family="sans-serif" font-size="9.8" lengthAdjust="spacing" textLength="55.3" x="794.36" y="394.1479">PostItBuilder</text><line style="stroke:#181818;stroke-width:0.3499999999999999;" x1="757.05" x2="865.55" y1="400.1074" y2="400.1074"/><line style="stroke:#181818;stroke-width:0.3499999999999999;" x1="757.05" x2="865.55" y1="405.7074" y2="405.7074"/><ellipse cx="764.05" cy="416.0748" fill="#84BE84" rx="2.1" ry="2.1" style="stroke:#038048;stroke-width:0.6999999999999998;"/><text fill="#000000" font-family="sans-serif" font-size="9.8" lengthAdjust="spacing" textLength="72.1" x="770.35" y="419.0826">withOwner(user)</text><ellipse cx="764.05" cy="429.1096" fill="#84BE84" rx="2.1" ry="2.1" style="stroke:#038048;stroke-width:0.6999999999999998;"/><text fill="#000000" font-family="sans-serif" font-size="9.8" lengthAdjust="spacing" textLength="91.7" x="770.35" y="432.1174">withContent(content)</text><ellipse cx="764.05" cy="442.1443" fill="#84BE84" rx="2.1" ry="2.1" style="stroke:#038048;stroke-width:0.6999999999999998;"/><text fill="#000000" font-family="sans-serif" font-size="9.8" lengthAdjust="spacing" textLength="55.3" x="770.35" y="445.1521">withCell(cell)</text><ellipse cx="764.05" cy="455.1791" fill="#84BE84" rx="2.1" ry="2.1" style="stroke:#038048;stroke-width:0.6999999999999998;"/><text fill="#000000" font-family="sans-serif" font-size="9.8" lengthAdjust="spacing" textLength="28" x="770.35" y="458.1869">build()</text></g><!--link CreatePostItUI to CreatePostItController--><g id="link_CreatePostItUI_CreatePostItController"><path codeLine="61" d="M239.4,47.789 C239.4,58.646 239.4,72.562 239.4,86.597 " fill="none" id="CreatePostItUI-to-CreatePostItController" style="stroke:#181818;stroke-width:0.6999999999999998;stroke-dasharray:7.0,7.0;"/><polygon fill="#181818" points="239.4,90.167,242.2,83.867,239.4,86.667,236.6,83.867,239.4,90.167" style="stroke:#181818;stroke-width:0.6999999999999998;"/></g><!--link CreatePostItController to ShareSharedBoardController--><g id="link_CreatePostItController_ShareSharedBoardController"><path codeLine="62" d="M233.338,210.882 C231.931,224.791 230.468,239.204 229.187,251.818 " fill="none" id="CreatePostItController-to-ShareSharedBoardController" style="stroke:#181818;stroke-width:0.6999999999999998;stroke-dasharray:7.0,7.0;"/><polygon fill="#181818" points="228.83,255.325,232.2464,249.3368,229.1802,251.8426,226.6745,248.7764,228.83,255.325" style="stroke:#181818;stroke-width:0.6999999999999998;"/></g><!--link CreatePostItController to TcpServerMessageHandler--><g id="link_CreatePostItController_TcpServerMessageHandler"><path codeLine="63" d="M357.903,207.585 C389.165,222.467 422.121,238.147 450.688,251.741 " fill="none" id="CreatePostItController-to-TcpServerMessageHandler" style="stroke:#181818;stroke-width:0.6999999999999998;stroke-dasharray:7.0,7.0;"/><polygon fill="#181818" points="454.153,253.386,449.656,248.1604,450.9893,251.889,447.2607,253.2223,454.153,253.386" style="stroke:#181818;stroke-width:0.6999999999999998;"/></g><!--link TcpServerMessageHandler to UserRepository--><g id="link_TcpServerMessageHandler_UserRepository"><path codeLine="65" d="M410.725,323.449 C406.539,324.408 402.388,325.332 398.3,326.2 C276.066,352.17 235.893,321.188 120.4,368.9 C110.047,373.177 99.813,379.47 90.671,386.057 " fill="none" id="TcpServerMessageHandler-to-UserRepository" style="stroke:#181818;stroke-width:0.6999999999999998;stroke-dasharray:7.0,7.0;"/><polygon fill="#181818" points="87.619,388.297,94.3545,386.8262,90.4405,386.2259,91.0408,382.3119,87.619,388.297" style="stroke:#181818;stroke-width:0.6999999999999998;"/></g><!--link TcpServerMessageHandler to SharedBoardRepository--><g id="link_TcpServerMessageHandler_SharedBoardRepository"><path codeLine="66" d="M456.988,326.305 C422.891,343.21 382.326,363.328 348.362,380.163 " fill="none" id="TcpServerMessageHandler-to-SharedBoardRepository" style="stroke:#181818;stroke-width:0.6999999999999998;stroke-dasharray:7.0,7.0;"/><polygon fill="#181818" points="345.1,381.787,351.9882,381.5004,348.2365,380.2338,349.5031,376.482,345.1,381.787" style="stroke:#181818;stroke-width:0.6999999999999998;"/></g><!--link TcpServerMessageHandler to CellRepoitory--><g id="link_TcpServerMessageHandler_CellRepoitory"><path codeLine="67" d="M529.2,326.305 C529.2,342.531 529.2,361.711 529.2,378.112 " fill="none" id="TcpServerMessageHandler-to-CellRepoitory" style="stroke:#181818;stroke-width:0.6999999999999998;stroke-dasharray:7.0,7.0;"/><polygon fill="#181818" points="529.2,381.787,532,375.487,529.2,378.287,526.4,375.487,529.2,381.787" style="stroke:#181818;stroke-width:0.6999999999999998;"/></g><!--link TcpServerMessageHandler to PostItRepository--><g id="link_TcpServerMessageHandler_PostItRepository"><path codeLine="68" d="M573.734,326.305 C597.247,345.219 625.758,368.137 647.976,386.008 " fill="none" id="TcpServerMessageHandler-to-PostItRepository" style="stroke:#181818;stroke-width:0.6999999999999998;stroke-dasharray:7.0,7.0;"/><polygon fill="#181818" points="650.93,388.381,647.7679,382.2547,648.1999,386.1909,644.2637,386.6229,650.93,388.381" style="stroke:#181818;stroke-width:0.6999999999999998;"/></g><!--link TcpServerMessageHandler to PostItBuilder--><g id="link_TcpServerMessageHandler_PostItBuilder"><path codeLine="69" d="M643.888,326.214 C676.977,338.135 712.628,352.604 744.1,368.9 C747.124,370.468 750.176,372.148 753.214,373.912 " fill="none" id="TcpServerMessageHandler-to-PostItBuilder" style="stroke:#181818;stroke-width:0.6999999999999998;stroke-dasharray:7.0,7.0;"/><polygon fill="#181818" points="756.252,375.697,752.2545,370.0801,753.2394,373.9154,749.404,374.9003,756.252,375.697" style="stroke:#181818;stroke-width:0.6999999999999998;"/></g><!--link CellRepoitory to Cell--><g id="link_CellRepoitory_Cell"><path codeLine="70" d="M529.2,450.527 C529.2,469.525 529.2,493.633 529.2,514.843 " fill="none" id="CellRepoitory-to-Cell" style="stroke:#181818;stroke-width:0.6999999999999998;"/><polygon fill="#181818" points="529.2,518.49,532,512.19,529.2,514.99,526.4,512.19,529.2,518.49" style="stroke:#181818;stroke-width:0.6999999999999998;"/><polygon fill="#000000" points="532.7,494.6519,534.7572,488.3203,530.6428,488.3203,532.7,494.6519" style="stroke:#000000;stroke-width:0.6999999999999998;"/><text fill="#000000" font-family="sans-serif" font-size="9.1" lengthAdjust="spacing" textLength="14.7" x="539" y="494.9198">has</text></g><!--SRC=[bLJjRjem5Ftlf_3FeAPz08eY3RPgaRfs6l009habbeoDV1rOLUtTvwyH9qr0uqU4hy-vzzmlLu8XqfK6Pk2dGbEQRKaNYsrP5FI3_26aye1rmpJuJxrKJDSh9OrMGe2suExWITJ-xkZQQ2xtSrerIc5ApGw0oFQGqsUEPX5m1SKEuUopwAQ7WTz6iyeuMwO1ZqeYp3gHQHQt1UwK4i0a5TPR8WzfrYBesGXg1KBOwqJf2pl0R3HXXvt8jB9N_vdYD70LdNq2_nDU9KNncUMqikK0QNAl9AdVfZgkGPz0_mYwlpDPkmA6Yj6xa-BrdBvnMQVrUdtRMg-PfI5NCgSrCoodgetvfRGd3RumE8P-ZF2Uu56S5HmLkyY_uAYG6wNVRQUxGzBfJi3olQnZU_kZ7NAPTFNHwq17A8RLYCL89-Wc1x-S61Ti9-19wOJUpRKjcLDpJLd84Ta9ij3LGUf-7hKwRxWHu4P0j0Vf3uD0rlytQRYv-BxCjRqilteJbsPEhRENzh03tPc2rsWbIVEhXiazR1fm4x0spBIOSNI797fe-SqU99aUFUEJYsNBHUqNVnV-NSXdRfhNi-nto1bNOIMok1hfZIjSKbBlClCn2HcycmyFnSGZHCRDbZ3ziavmV9I9LILaQeSTgRyjLw6ZIp75i8JUY5x13Njy4nfxINe1xkzzG3gd3KDQ4F8N]--></g></svg>