<?xml version="1.0" encoding="us-ascii" standalone="no"?><svg xmlns="http://www.w3.org/2000/svg" xmlns:xlink="http://www.w3.org/1999/xlink" contentStyleType="text/css" height="396.5px" preserveAspectRatio="none" style="width:691px;height:396px;background:#FFFFFF;" version="1.1" viewBox="0 0 691 396" width="691px" zoomAndPan="magnify"><defs/><g><!--class SetTeachersCourseUI--><g id="elem_SetTeachersCourseUI"><rect codeLine="2" fill="#F1F1F1" height="30.291" id="SetTeachersCourseUI" rx="1.25" ry="1.25" style="stroke:#181818;stroke-width:0.25;" width="85.5" x="209.5" y="3.5"/><ellipse cx="217" cy="14.6455" fill="#ADD1B2" rx="5.5" ry="5.5" style="stroke:#181818;stroke-width:0.5;"/><path d="M218.3828,12.583 Q218.4609,12.4736 218.5547,12.4189 Q218.6484,12.3643 218.7578,12.3643 Q218.9453,12.3643 219.0625,12.4971 Q219.1797,12.6221 219.1797,12.9268 L219.1797,13.6533 Q219.1797,13.958 219.0625,14.0908 Q218.9453,14.2236 218.7578,14.2236 Q218.5859,14.2236 218.4844,14.1221 Q218.3828,14.0283 218.3281,13.7705 Q218.3047,13.5908 218.2109,13.4971 Q218.0469,13.3096 217.7422,13.2002 Q217.4375,13.0908 217.125,13.0908 Q216.7422,13.0908 216.4219,13.2549 Q216.1094,13.4189 215.8594,13.7939 Q215.6172,14.1689 215.6172,14.6846 L215.6172,15.2314 Q215.6172,15.8486 216.0625,16.2627 Q216.5078,16.6689 217.3047,16.6689 Q217.7734,16.6689 218.1016,16.5439 Q218.2969,16.4658 218.5078,16.2471 Q218.6406,16.1143 218.7109,16.0752 Q218.7891,16.0361 218.8906,16.0361 Q219.0547,16.0361 219.1797,16.1689 Q219.3125,16.2939 219.3125,16.4658 Q219.3125,16.6377 219.1406,16.8408 Q218.8906,17.1299 218.4922,17.2939 Q217.9531,17.5205 217.3047,17.5205 Q216.5469,17.5205 215.9453,17.208 Q215.4531,16.958 215.1094,16.4268 Q214.7656,15.8877 214.7656,15.2471 L214.7656,14.6689 Q214.7656,14.0049 215.0703,13.4346 Q215.3828,12.8564 215.9297,12.5518 Q216.4766,12.2393 217.0938,12.2393 Q217.4609,12.2393 217.7813,12.3252 Q218.1094,12.4033 218.3828,12.583 Z " fill="#000000"/><text fill="#000000" font-family="sans-serif" font-size="6" font-style="italic" lengthAdjust="spacing" textLength="13.5" x="252" y="12.4746">&#171;UI&#187;</text><text fill="#000000" font-family="sans-serif" font-size="7" lengthAdjust="spacing" textLength="69.5" x="224" y="21.5342">SetTeachersCourseUI</text><line style="stroke:#181818;stroke-width:0.25;" x1="210" x2="294.5" y1="25.791" y2="25.791"/><line style="stroke:#181818;stroke-width:0.25;" x1="210" x2="294.5" y1="29.791" y2="29.791"/></g><!--class SetTeachersCourseController--><g id="elem_SetTeachersCourseController"><rect codeLine="5" fill="#F1F1F1" height="76.8438" id="SetTeachersCourseController" rx="1.25" ry="1.25" style="stroke:#181818;stroke-width:0.25;" width="160.5" x="172" y="64.5"/><ellipse cx="202.875" cy="75.6455" fill="#ADD1B2" rx="5.5" ry="5.5" style="stroke:#181818;stroke-width:0.5;"/><path d="M204.2578,73.583 Q204.3359,73.4736 204.4297,73.4189 Q204.5234,73.3643 204.6328,73.3643 Q204.8203,73.3643 204.9375,73.4971 Q205.0547,73.6221 205.0547,73.9268 L205.0547,74.6533 Q205.0547,74.958 204.9375,75.0908 Q204.8203,75.2236 204.6328,75.2236 Q204.4609,75.2236 204.3594,75.1221 Q204.2578,75.0283 204.2031,74.7705 Q204.1797,74.5908 204.0859,74.4971 Q203.9219,74.3096 203.6172,74.2002 Q203.3125,74.0908 203,74.0908 Q202.6172,74.0908 202.2969,74.2549 Q201.9844,74.4189 201.7344,74.7939 Q201.4922,75.1689 201.4922,75.6846 L201.4922,76.2314 Q201.4922,76.8486 201.9375,77.2627 Q202.3828,77.6689 203.1797,77.6689 Q203.6484,77.6689 203.9766,77.5439 Q204.1719,77.4658 204.3828,77.2471 Q204.5156,77.1143 204.5859,77.0752 Q204.6641,77.0361 204.7656,77.0361 Q204.9297,77.0361 205.0547,77.1689 Q205.1875,77.2939 205.1875,77.4658 Q205.1875,77.6377 205.0156,77.8408 Q204.7656,78.1299 204.3672,78.2939 Q203.8281,78.5205 203.1797,78.5205 Q202.4219,78.5205 201.8203,78.208 Q201.3281,77.958 200.9844,77.4268 Q200.6406,76.8877 200.6406,76.2471 L200.6406,75.6689 Q200.6406,75.0049 200.9453,74.4346 Q201.2578,73.8564 201.8047,73.5518 Q202.3516,73.2393 202.9688,73.2393 Q203.3359,73.2393 203.6563,73.3252 Q203.9844,73.4033 204.2578,73.583 Z " fill="#000000"/><text fill="#000000" font-family="sans-serif" font-size="6" font-style="italic" lengthAdjust="spacing" textLength="34" x="243.375" y="73.4746">&#171;Controller&#187;</text><text fill="#000000" font-family="sans-serif" font-size="7" lengthAdjust="spacing" textLength="94.5" x="213.125" y="82.5342">SetTeachersCourseController</text><line style="stroke:#181818;stroke-width:0.25;" x1="172.5" x2="332" y1="86.791" y2="86.791"/><line style="stroke:#181818;stroke-width:0.25;" x1="172.5" x2="332" y1="90.791" y2="90.791"/><ellipse cx="177.5" cy="98.1963" fill="#84BE84" rx="1.5" ry="1.5" style="stroke:#038048;stroke-width:0.5;"/><text fill="#000000" font-family="sans-serif" font-size="7" lengthAdjust="spacing" textLength="129" x="182" y="100.3447">List&lt;Course&gt;: findCourseListNotClosed()</text><ellipse cx="177.5" cy="107.5068" fill="#84BE84" rx="1.5" ry="1.5" style="stroke:#038048;stroke-width:0.5;"/><text fill="#000000" font-family="sans-serif" font-size="7" lengthAdjust="spacing" textLength="102" x="182" y="109.6553">List&lt;Teacher&gt; : findAllTeacher()</text><ellipse cx="177.5" cy="116.8174" fill="#84BE84" rx="1.5" ry="1.5" style="stroke:#038048;stroke-width:0.5;"/><text fill="#000000" font-family="sans-serif" font-size="7" lengthAdjust="spacing" textLength="136" x="182" y="118.9658">Teacher: findTeacherByAcronym(acronym)</text><ellipse cx="177.5" cy="126.1279" fill="#84BE84" rx="1.5" ry="1.5" style="stroke:#038048;stroke-width:0.5;"/><text fill="#000000" font-family="sans-serif" font-size="7" lengthAdjust="spacing" textLength="147.5" x="182" y="128.2764">void : saveTeacherInCharge(teacherInCharge)</text><ellipse cx="177.5" cy="135.4385" fill="#84BE84" rx="1.5" ry="1.5" style="stroke:#038048;stroke-width:0.5;"/><text fill="#000000" font-family="sans-serif" font-size="7" lengthAdjust="spacing" textLength="115" x="182" y="137.5869">void : saveTeacher(teacher, course)</text></g><!--class CourseRepository--><g id="elem_CourseRepository"><rect codeLine="13" fill="#F1F1F1" height="39.6016" id="CourseRepository" rx="1.25" ry="1.25" style="stroke:#181818;stroke-width:0.25;" width="142" x="181.25" y="186"/><ellipse cx="221.625" cy="197.1455" fill="#ADD1B2" rx="5.5" ry="5.5" style="stroke:#181818;stroke-width:0.5;"/><path d="M223.0078,195.083 Q223.0859,194.9736 223.1797,194.9189 Q223.2734,194.8643 223.3828,194.8643 Q223.5703,194.8643 223.6875,194.9971 Q223.8047,195.1221 223.8047,195.4268 L223.8047,196.1533 Q223.8047,196.458 223.6875,196.5908 Q223.5703,196.7236 223.3828,196.7236 Q223.2109,196.7236 223.1094,196.6221 Q223.0078,196.5283 222.9531,196.2705 Q222.9297,196.0908 222.8359,195.9971 Q222.6719,195.8096 222.3672,195.7002 Q222.0625,195.5908 221.75,195.5908 Q221.3672,195.5908 221.0469,195.7549 Q220.7344,195.9189 220.4844,196.2939 Q220.2422,196.6689 220.2422,197.1846 L220.2422,197.7314 Q220.2422,198.3486 220.6875,198.7627 Q221.1328,199.1689 221.9297,199.1689 Q222.3984,199.1689 222.7266,199.0439 Q222.9219,198.9658 223.1328,198.7471 Q223.2656,198.6143 223.3359,198.5752 Q223.4141,198.5361 223.5156,198.5361 Q223.6797,198.5361 223.8047,198.6689 Q223.9375,198.7939 223.9375,198.9658 Q223.9375,199.1377 223.7656,199.3408 Q223.5156,199.6299 223.1172,199.7939 Q222.5781,200.0205 221.9297,200.0205 Q221.1719,200.0205 220.5703,199.708 Q220.0781,199.458 219.7344,198.9268 Q219.3906,198.3877 219.3906,197.7471 L219.3906,197.1689 Q219.3906,196.5049 219.6953,195.9346 Q220.0078,195.3564 220.5547,195.0518 Q221.1016,194.7393 221.7188,194.7393 Q222.0859,194.7393 222.4063,194.8252 Q222.7344,194.9033 223.0078,195.083 Z " fill="#000000"/><text fill="#000000" font-family="sans-serif" font-size="6" font-style="italic" lengthAdjust="spacing" textLength="36.5" x="242.125" y="194.9746">&#171;Repository&#187;</text><text fill="#000000" font-family="sans-serif" font-size="7" lengthAdjust="spacing" textLength="57" x="231.875" y="204.0342">CourseRepository</text><line style="stroke:#181818;stroke-width:0.25;" x1="181.75" x2="322.75" y1="208.291" y2="208.291"/><line style="stroke:#181818;stroke-width:0.25;" x1="181.75" x2="322.75" y1="212.291" y2="212.291"/><ellipse cx="186.75" cy="219.6963" fill="#84BE84" rx="1.5" ry="1.5" style="stroke:#038048;stroke-width:0.5;"/><text fill="#000000" font-family="sans-serif" font-size="7" lengthAdjust="spacing" textLength="129" x="191.25" y="221.8447">List&lt;Course&gt;: findCourseListNotClosed()</text></g><!--class TeacherRepository--><g id="elem_TeacherRepository"><rect codeLine="17" fill="#F1F1F1" height="48.9121" id="TeacherRepository" rx="1.25" ry="1.25" style="stroke:#181818;stroke-width:0.25;" width="122.5" x="3.5" y="181.25"/><ellipse cx="32.375" cy="192.3955" fill="#ADD1B2" rx="5.5" ry="5.5" style="stroke:#181818;stroke-width:0.5;"/><path d="M33.7578,190.333 Q33.8359,190.2236 33.9297,190.1689 Q34.0234,190.1143 34.1328,190.1143 Q34.3203,190.1143 34.4375,190.2471 Q34.5547,190.3721 34.5547,190.6768 L34.5547,191.4033 Q34.5547,191.708 34.4375,191.8408 Q34.3203,191.9736 34.1328,191.9736 Q33.9609,191.9736 33.8594,191.8721 Q33.7578,191.7783 33.7031,191.5205 Q33.6797,191.3408 33.5859,191.2471 Q33.4219,191.0596 33.1172,190.9502 Q32.8125,190.8408 32.5,190.8408 Q32.1172,190.8408 31.7969,191.0049 Q31.4844,191.1689 31.2344,191.5439 Q30.9922,191.9189 30.9922,192.4346 L30.9922,192.9814 Q30.9922,193.5986 31.4375,194.0127 Q31.8828,194.4189 32.6797,194.4189 Q33.1484,194.4189 33.4766,194.2939 Q33.6719,194.2158 33.8828,193.9971 Q34.0156,193.8643 34.0859,193.8252 Q34.1641,193.7861 34.2656,193.7861 Q34.4297,193.7861 34.5547,193.9189 Q34.6875,194.0439 34.6875,194.2158 Q34.6875,194.3877 34.5156,194.5908 Q34.2656,194.8799 33.8672,195.0439 Q33.3281,195.2705 32.6797,195.2705 Q31.9219,195.2705 31.3203,194.958 Q30.8281,194.708 30.4844,194.1768 Q30.1406,193.6377 30.1406,192.9971 L30.1406,192.4189 Q30.1406,191.7549 30.4453,191.1846 Q30.7578,190.6064 31.3047,190.3018 Q31.8516,189.9893 32.4688,189.9893 Q32.8359,189.9893 33.1563,190.0752 Q33.4844,190.1533 33.7578,190.333 Z " fill="#000000"/><text fill="#000000" font-family="sans-serif" font-size="6" font-style="italic" lengthAdjust="spacing" textLength="36.5" x="54.625" y="190.2246">&#171;Repository&#187;</text><text fill="#000000" font-family="sans-serif" font-size="7" lengthAdjust="spacing" textLength="60.5" x="42.625" y="199.2842">TeacherRepository</text><line style="stroke:#181818;stroke-width:0.25;" x1="4" x2="125.5" y1="203.541" y2="203.541"/><line style="stroke:#181818;stroke-width:0.25;" x1="4" x2="125.5" y1="207.541" y2="207.541"/><ellipse cx="9" cy="214.9463" fill="#84BE84" rx="1.5" ry="1.5" style="stroke:#038048;stroke-width:0.5;"/><text fill="#000000" font-family="sans-serif" font-size="7" lengthAdjust="spacing" textLength="75.5" x="13.5" y="217.0947">List&lt;Teacher&gt; : findAll()</text><ellipse cx="9" cy="224.2568" fill="#84BE84" rx="1.5" ry="1.5" style="stroke:#038048;stroke-width:0.5;"/><text fill="#000000" font-family="sans-serif" font-size="7" lengthAdjust="spacing" textLength="109.5" x="13.5" y="226.4053">Teacher: findByAcronym(acronym)</text></g><!--class TeachingRepository--><g id="elem_TeachingRepository"><rect codeLine="22" fill="#F1F1F1" height="48.9121" id="TeachingRepository" rx="1.25" ry="1.25" style="stroke:#181818;stroke-width:0.25;" width="206.5" x="481" y="181.25"/><ellipse cx="550.375" cy="192.3955" fill="#ADD1B2" rx="5.5" ry="5.5" style="stroke:#181818;stroke-width:0.5;"/><path d="M551.7578,190.333 Q551.8359,190.2236 551.9297,190.1689 Q552.0234,190.1143 552.1328,190.1143 Q552.3203,190.1143 552.4375,190.2471 Q552.5547,190.3721 552.5547,190.6768 L552.5547,191.4033 Q552.5547,191.708 552.4375,191.8408 Q552.3203,191.9736 552.1328,191.9736 Q551.9609,191.9736 551.8594,191.8721 Q551.7578,191.7783 551.7031,191.5205 Q551.6797,191.3408 551.5859,191.2471 Q551.4219,191.0596 551.1172,190.9502 Q550.8125,190.8408 550.5,190.8408 Q550.1172,190.8408 549.7969,191.0049 Q549.4844,191.1689 549.2344,191.5439 Q548.9922,191.9189 548.9922,192.4346 L548.9922,192.9814 Q548.9922,193.5986 549.4375,194.0127 Q549.8828,194.4189 550.6797,194.4189 Q551.1484,194.4189 551.4766,194.2939 Q551.6719,194.2158 551.8828,193.9971 Q552.0156,193.8643 552.0859,193.8252 Q552.1641,193.7861 552.2656,193.7861 Q552.4297,193.7861 552.5547,193.9189 Q552.6875,194.0439 552.6875,194.2158 Q552.6875,194.3877 552.5156,194.5908 Q552.2656,194.8799 551.8672,195.0439 Q551.3281,195.2705 550.6797,195.2705 Q549.9219,195.2705 549.3203,194.958 Q548.8281,194.708 548.4844,194.1768 Q548.1406,193.6377 548.1406,192.9971 L548.1406,192.4189 Q548.1406,191.7549 548.4453,191.1846 Q548.7578,190.6064 549.3047,190.3018 Q549.8516,189.9893 550.4688,189.9893 Q550.8359,189.9893 551.1563,190.0752 Q551.4844,190.1533 551.7578,190.333 Z " fill="#000000"/><text fill="#000000" font-family="sans-serif" font-size="6" font-style="italic" lengthAdjust="spacing" textLength="62" x="561.375" y="190.2246">&#171;TeachingRepository&#187;</text><text fill="#000000" font-family="sans-serif" font-size="7" lengthAdjust="spacing" textLength="63.5" x="560.625" y="199.2842">TeachingRepository</text><line style="stroke:#181818;stroke-width:0.25;" x1="481.5" x2="687" y1="203.541" y2="203.541"/><line style="stroke:#181818;stroke-width:0.25;" x1="481.5" x2="687" y1="207.541" y2="207.541"/><ellipse cx="486.5" cy="214.9463" fill="#84BE84" rx="1.5" ry="1.5" style="stroke:#038048;stroke-width:0.5;"/><text fill="#000000" font-family="sans-serif" font-size="7" lengthAdjust="spacing" textLength="68" x="491" y="217.0947">void : save (teaching)</text><ellipse cx="486.5" cy="224.2568" fill="#84BE84" rx="1.5" ry="1.5" style="stroke:#038048;stroke-width:0.5;"/><text fill="#000000" font-family="sans-serif" font-size="7" lengthAdjust="spacing" textLength="193.5" x="491" y="226.4053">Teaching : findTeachingOfTeacherInCourse(teacher, course)</text></g><!--class TeachingBuilder--><g id="elem_TeachingBuilder"><rect codeLine="27" fill="#F1F1F1" height="67.5332" id="TeachingBuilder" rx="1.25" ry="1.25" style="stroke:#181818;stroke-width:0.25;" width="122.5" x="341" y="172"/><ellipse cx="374.375" cy="183.1455" fill="#ADD1B2" rx="5.5" ry="5.5" style="stroke:#181818;stroke-width:0.5;"/><path d="M375.7578,181.083 Q375.8359,180.9736 375.9297,180.9189 Q376.0234,180.8643 376.1328,180.8643 Q376.3203,180.8643 376.4375,180.9971 Q376.5547,181.1221 376.5547,181.4268 L376.5547,182.1533 Q376.5547,182.458 376.4375,182.5908 Q376.3203,182.7236 376.1328,182.7236 Q375.9609,182.7236 375.8594,182.6221 Q375.7578,182.5283 375.7031,182.2705 Q375.6797,182.0908 375.5859,181.9971 Q375.4219,181.8096 375.1172,181.7002 Q374.8125,181.5908 374.5,181.5908 Q374.1172,181.5908 373.7969,181.7549 Q373.4844,181.9189 373.2344,182.2939 Q372.9922,182.6689 372.9922,183.1846 L372.9922,183.7314 Q372.9922,184.3486 373.4375,184.7627 Q373.8828,185.1689 374.6797,185.1689 Q375.1484,185.1689 375.4766,185.0439 Q375.6719,184.9658 375.8828,184.7471 Q376.0156,184.6143 376.0859,184.5752 Q376.1641,184.5361 376.2656,184.5361 Q376.4297,184.5361 376.5547,184.6689 Q376.6875,184.7939 376.6875,184.9658 Q376.6875,185.1377 376.5156,185.3408 Q376.2656,185.6299 375.8672,185.7939 Q375.3281,186.0205 374.6797,186.0205 Q373.9219,186.0205 373.3203,185.708 Q372.8281,185.458 372.4844,184.9268 Q372.1406,184.3877 372.1406,183.7471 L372.1406,183.1689 Q372.1406,182.5049 372.4453,181.9346 Q372.7578,181.3564 373.3047,181.0518 Q373.8516,180.7393 374.4688,180.7393 Q374.8359,180.7393 375.1563,180.8252 Q375.4844,180.9033 375.7578,181.083 Z " fill="#000000"/><text fill="#000000" font-family="sans-serif" font-size="6" font-style="italic" lengthAdjust="spacing" textLength="26.5" x="397.125" y="180.9746">&#171;Builder&#187;</text><text fill="#000000" font-family="sans-serif" font-size="7" lengthAdjust="spacing" textLength="51.5" x="384.625" y="190.0342">TeachingBuilder</text><line style="stroke:#181818;stroke-width:0.25;" x1="341.5" x2="463" y1="194.291" y2="194.291"/><line style="stroke:#181818;stroke-width:0.25;" x1="341.5" x2="463" y1="198.291" y2="198.291"/><ellipse cx="346.5" cy="205.6963" fill="#84BE84" rx="1.5" ry="1.5" style="stroke:#038048;stroke-width:0.5;"/><text fill="#000000" font-family="sans-serif" font-size="7" lengthAdjust="spacing" textLength="109.5" x="351" y="207.8447">void : ofTeacher(teacherInCharge)</text><ellipse cx="346.5" cy="215.0068" fill="#84BE84" rx="1.5" ry="1.5" style="stroke:#038048;stroke-width:0.5;"/><text fill="#000000" font-family="sans-serif" font-size="7" lengthAdjust="spacing" textLength="74" x="351" y="217.1553">void : inCourse(course)</text><ellipse cx="346.5" cy="224.3174" fill="#84BE84" rx="1.5" ry="1.5" style="stroke:#038048;stroke-width:0.5;"/><text fill="#000000" font-family="sans-serif" font-size="7" lengthAdjust="spacing" textLength="68" x="351" y="226.4658">void : asPrimary(true)</text><ellipse cx="346.5" cy="233.6279" fill="#84BE84" rx="1.5" ry="1.5" style="stroke:#038048;stroke-width:0.5;"/><text fill="#000000" font-family="sans-serif" font-size="7" lengthAdjust="spacing" textLength="55.5" x="351" y="235.7764">Teaching : build()</text></g><!--class Course--><g id="elem_Course"><rect codeLine="35" fill="#F1F1F1" height="114.0859" id="Course" rx="1.25" ry="1.25" style="stroke:#181818;stroke-width:0.25;" width="160.5" x="172" y="279"/><ellipse cx="238.625" cy="290.1455" fill="#ADD1B2" rx="5.5" ry="5.5" style="stroke:#181818;stroke-width:0.5;"/><path d="M240.0078,288.083 Q240.0859,287.9736 240.1797,287.9189 Q240.2734,287.8643 240.3828,287.8643 Q240.5703,287.8643 240.6875,287.9971 Q240.8047,288.1221 240.8047,288.4268 L240.8047,289.1533 Q240.8047,289.458 240.6875,289.5908 Q240.5703,289.7236 240.3828,289.7236 Q240.2109,289.7236 240.1094,289.6221 Q240.0078,289.5283 239.9531,289.2705 Q239.9297,289.0908 239.8359,288.9971 Q239.6719,288.8096 239.3672,288.7002 Q239.0625,288.5908 238.75,288.5908 Q238.3672,288.5908 238.0469,288.7549 Q237.7344,288.9189 237.4844,289.2939 Q237.2422,289.6689 237.2422,290.1846 L237.2422,290.7314 Q237.2422,291.3486 237.6875,291.7627 Q238.1328,292.1689 238.9297,292.1689 Q239.3984,292.1689 239.7266,292.0439 Q239.9219,291.9658 240.1328,291.7471 Q240.2656,291.6143 240.3359,291.5752 Q240.4141,291.5361 240.5156,291.5361 Q240.6797,291.5361 240.8047,291.6689 Q240.9375,291.7939 240.9375,291.9658 Q240.9375,292.1377 240.7656,292.3408 Q240.5156,292.6299 240.1172,292.7939 Q239.5781,293.0205 238.9297,293.0205 Q238.1719,293.0205 237.5703,292.708 Q237.0781,292.458 236.7344,291.9268 Q236.3906,291.3877 236.3906,290.7471 L236.3906,290.1689 Q236.3906,289.5049 236.6953,288.9346 Q237.0078,288.3564 237.5547,288.0518 Q238.1016,287.7393 238.7188,287.7393 Q239.0859,287.7393 239.4063,287.8252 Q239.7344,287.9033 240.0078,288.083 Z " fill="#000000"/><text fill="#000000" font-family="sans-serif" font-size="6" font-style="italic" lengthAdjust="spacing" textLength="22" x="249.375" y="287.9746">&#171;Entity&#187;</text><text fill="#000000" font-family="sans-serif" font-size="7" lengthAdjust="spacing" textLength="23" x="248.875" y="297.0342">Course</text><line style="stroke:#181818;stroke-width:0.25;" x1="172.5" x2="332" y1="301.291" y2="301.291"/><rect fill="none" height="3" style="stroke:#C82930;stroke-width:0.5;" width="3" x="176" y="307.1963"/><text fill="#000000" font-family="sans-serif" font-size="7" lengthAdjust="spacing" textLength="61.5" x="182" y="310.8447">CourseID: courseID</text><rect fill="none" height="3" style="stroke:#C82930;stroke-width:0.5;" width="3" x="176" y="316.5068"/><text fill="#000000" font-family="sans-serif" font-size="7" lengthAdjust="spacing" textLength="65" x="182" y="320.1553">Integer: minStudents</text><rect fill="none" height="3" style="stroke:#C82930;stroke-width:0.5;" width="3" x="176" y="325.8174"/><text fill="#000000" font-family="sans-serif" font-size="7" lengthAdjust="spacing" textLength="66.5" x="182" y="329.4658">Integer: maxStudents</text><rect fill="none" height="3" style="stroke:#C82930;stroke-width:0.5;" width="3" x="176" y="335.1279"/><text fill="#000000" font-family="sans-serif" font-size="7" lengthAdjust="spacing" textLength="83.5" x="182" y="338.7764">Teacher: teacherInCharge</text><rect fill="none" height="3" style="stroke:#C82930;stroke-width:0.5;" width="3" x="176" y="344.4385"/><text fill="#000000" font-family="sans-serif" font-size="7" lengthAdjust="spacing" textLength="73" x="182" y="348.0869">Date: courseOpenDate</text><rect fill="none" height="3" style="stroke:#C82930;stroke-width:0.5;" width="3" x="176" y="353.749"/><text fill="#000000" font-family="sans-serif" font-size="7" lengthAdjust="spacing" textLength="73.5" x="182" y="357.3975">Date: courseCloseDate</text><rect fill="none" height="3" style="stroke:#C82930;stroke-width:0.5;" width="3" x="176" y="363.0596"/><text fill="#000000" font-family="sans-serif" font-size="7" lengthAdjust="spacing" textLength="84.5" x="182" y="366.708">Date: enrollmentOpenDate</text><rect fill="none" height="3" style="stroke:#C82930;stroke-width:0.5;" width="3" x="176" y="372.3701"/><text fill="#000000" font-family="sans-serif" font-size="7" lengthAdjust="spacing" textLength="85" x="182" y="376.0186">Date: enrollmentCloseDate</text><line style="stroke:#181818;stroke-width:0.25;" x1="172.5" x2="332" y1="379.7754" y2="379.7754"/><ellipse cx="177.5" cy="387.1807" fill="#84BE84" rx="1.5" ry="1.5" style="stroke:#038048;stroke-width:0.5;"/><text fill="#000000" font-family="sans-serif" font-size="7" lengthAdjust="spacing" textLength="147.5" x="182" y="389.3291">void : saveTeacherInCharge(teacherInCharge)</text></g><!--class Teacher--><g id="elem_Teacher"><rect codeLine="48" fill="#F1F1F1" height="30.291" id="Teacher" rx="1.25" ry="1.25" style="stroke:#181818;stroke-width:0.25;" width="42.5" x="38" y="320.75"/><ellipse cx="45.5" cy="331.8955" fill="#ADD1B2" rx="5.5" ry="5.5" style="stroke:#181818;stroke-width:0.5;"/><path d="M46.8828,329.833 Q46.9609,329.7236 47.0547,329.6689 Q47.1484,329.6143 47.2578,329.6143 Q47.4453,329.6143 47.5625,329.7471 Q47.6797,329.8721 47.6797,330.1768 L47.6797,330.9033 Q47.6797,331.208 47.5625,331.3408 Q47.4453,331.4736 47.2578,331.4736 Q47.0859,331.4736 46.9844,331.3721 Q46.8828,331.2783 46.8281,331.0205 Q46.8047,330.8408 46.7109,330.7471 Q46.5469,330.5596 46.2422,330.4502 Q45.9375,330.3408 45.625,330.3408 Q45.2422,330.3408 44.9219,330.5049 Q44.6094,330.6689 44.3594,331.0439 Q44.1172,331.4189 44.1172,331.9346 L44.1172,332.4814 Q44.1172,333.0986 44.5625,333.5127 Q45.0078,333.9189 45.8047,333.9189 Q46.2734,333.9189 46.6016,333.7939 Q46.7969,333.7158 47.0078,333.4971 Q47.1406,333.3643 47.2109,333.3252 Q47.2891,333.2861 47.3906,333.2861 Q47.5547,333.2861 47.6797,333.4189 Q47.8125,333.5439 47.8125,333.7158 Q47.8125,333.8877 47.6406,334.0908 Q47.3906,334.3799 46.9922,334.5439 Q46.4531,334.7705 45.8047,334.7705 Q45.0469,334.7705 44.4453,334.458 Q43.9531,334.208 43.6094,333.6768 Q43.2656,333.1377 43.2656,332.4971 L43.2656,331.9189 Q43.2656,331.2549 43.5703,330.6846 Q43.8828,330.1064 44.4297,329.8018 Q44.9766,329.4893 45.5938,329.4893 Q45.9609,329.4893 46.2813,329.5752 Q46.6094,329.6533 46.8828,329.833 Z " fill="#000000"/><text fill="#000000" font-family="sans-serif" font-size="6" font-style="italic" lengthAdjust="spacing" textLength="22" x="54.75" y="329.7246">&#171;Entity&#187;</text><text fill="#000000" font-family="sans-serif" font-size="7" lengthAdjust="spacing" textLength="26.5" x="52.5" y="338.7842">Teacher</text><line style="stroke:#181818;stroke-width:0.25;" x1="38.5" x2="80" y1="343.041" y2="343.041"/><line style="stroke:#181818;stroke-width:0.25;" x1="38.5" x2="80" y1="347.041" y2="347.041"/></g><!--class Teaching--><g id="elem_Teaching"><rect codeLine="51" fill="#F1F1F1" height="58.2227" id="Teaching" rx="1.25" ry="1.25" style="stroke:#181818;stroke-width:0.25;" width="64" x="461.25" y="307"/><ellipse cx="468.75" cy="318.1455" fill="#ADD1B2" rx="5.5" ry="5.5" style="stroke:#181818;stroke-width:0.5;"/><path d="M470.1328,316.083 Q470.2109,315.9736 470.3047,315.9189 Q470.3984,315.8643 470.5078,315.8643 Q470.6953,315.8643 470.8125,315.9971 Q470.9297,316.1221 470.9297,316.4268 L470.9297,317.1533 Q470.9297,317.458 470.8125,317.5908 Q470.6953,317.7236 470.5078,317.7236 Q470.3359,317.7236 470.2344,317.6221 Q470.1328,317.5283 470.0781,317.2705 Q470.0547,317.0908 469.9609,316.9971 Q469.7969,316.8096 469.4922,316.7002 Q469.1875,316.5908 468.875,316.5908 Q468.4922,316.5908 468.1719,316.7549 Q467.8594,316.9189 467.6094,317.2939 Q467.3672,317.6689 467.3672,318.1846 L467.3672,318.7314 Q467.3672,319.3486 467.8125,319.7627 Q468.2578,320.1689 469.0547,320.1689 Q469.5234,320.1689 469.8516,320.0439 Q470.0469,319.9658 470.2578,319.7471 Q470.3906,319.6143 470.4609,319.5752 Q470.5391,319.5361 470.6406,319.5361 Q470.8047,319.5361 470.9297,319.6689 Q471.0625,319.7939 471.0625,319.9658 Q471.0625,320.1377 470.8906,320.3408 Q470.6406,320.6299 470.2422,320.7939 Q469.7031,321.0205 469.0547,321.0205 Q468.2969,321.0205 467.6953,320.708 Q467.2031,320.458 466.8594,319.9268 Q466.5156,319.3877 466.5156,318.7471 L466.5156,318.1689 Q466.5156,317.5049 466.8203,316.9346 Q467.1328,316.3564 467.6797,316.0518 Q468.2266,315.7393 468.8438,315.7393 Q469.2109,315.7393 469.5313,315.8252 Q469.8594,315.9033 470.1328,316.083 Z " fill="#000000"/><text fill="#000000" font-family="sans-serif" font-size="6" font-style="italic" lengthAdjust="spacing" textLength="50" x="474.75" y="315.9746">&#171;Aggregate Root&#187;</text><text fill="#000000" font-family="sans-serif" font-size="7" lengthAdjust="spacing" textLength="29.5" x="485" y="325.0342">Teaching</text><line style="stroke:#181818;stroke-width:0.25;" x1="461.75" x2="524.75" y1="329.291" y2="329.291"/><text fill="#000000" font-family="sans-serif" font-size="7" lengthAdjust="spacing" textLength="54.5" x="464.25" y="338.8447">Teacher: teacher</text><text fill="#000000" font-family="sans-serif" font-size="7" lengthAdjust="spacing" textLength="48.5" x="464.25" y="348.1553">Course: course</text><text fill="#000000" font-family="sans-serif" font-size="7" lengthAdjust="spacing" textLength="46.5" x="464.25" y="357.4658">bool: isPrimary</text><line style="stroke:#181818;stroke-width:0.25;" x1="461.75" x2="524.75" y1="361.2227" y2="361.2227"/></g><!--class Acronym--><g id="elem_Acronym"><rect codeLine="57" fill="#F1F1F1" height="39.6016" id="Acronym" rx="1.25" ry="1.25" style="stroke:#181818;stroke-width:0.25;" width="56.5" x="98" y="316.25"/><ellipse cx="105.5" cy="327.3955" fill="#ADD1B2" rx="5.5" ry="5.5" style="stroke:#181818;stroke-width:0.5;"/><path d="M106.8828,325.333 Q106.9609,325.2236 107.0547,325.1689 Q107.1484,325.1143 107.2578,325.1143 Q107.4453,325.1143 107.5625,325.2471 Q107.6797,325.3721 107.6797,325.6768 L107.6797,326.4033 Q107.6797,326.708 107.5625,326.8408 Q107.4453,326.9736 107.2578,326.9736 Q107.0859,326.9736 106.9844,326.8721 Q106.8828,326.7783 106.8281,326.5205 Q106.8047,326.3408 106.7109,326.2471 Q106.5469,326.0596 106.2422,325.9502 Q105.9375,325.8408 105.625,325.8408 Q105.2422,325.8408 104.9219,326.0049 Q104.6094,326.1689 104.3594,326.5439 Q104.1172,326.9189 104.1172,327.4346 L104.1172,327.9814 Q104.1172,328.5986 104.5625,329.0127 Q105.0078,329.4189 105.8047,329.4189 Q106.2734,329.4189 106.6016,329.2939 Q106.7969,329.2158 107.0078,328.9971 Q107.1406,328.8643 107.2109,328.8252 Q107.2891,328.7861 107.3906,328.7861 Q107.5547,328.7861 107.6797,328.9189 Q107.8125,329.0439 107.8125,329.2158 Q107.8125,329.3877 107.6406,329.5908 Q107.3906,329.8799 106.9922,330.0439 Q106.4531,330.2705 105.8047,330.2705 Q105.0469,330.2705 104.4453,329.958 Q103.9531,329.708 103.6094,329.1768 Q103.2656,328.6377 103.2656,327.9971 L103.2656,327.4189 Q103.2656,326.7549 103.5703,326.1846 Q103.8828,325.6064 104.4297,325.3018 Q104.9766,324.9893 105.5938,324.9893 Q105.9609,324.9893 106.2813,325.0752 Q106.6094,325.1533 106.8828,325.333 Z " fill="#000000"/><text fill="#000000" font-family="sans-serif" font-size="6" font-style="italic" lengthAdjust="spacing" textLength="42.5" x="111.5" y="325.2246">&#171;Value Object&#187;</text><text fill="#000000" font-family="sans-serif" font-size="7" lengthAdjust="spacing" textLength="27.5" x="119" y="334.2842">Acronym</text><line style="stroke:#181818;stroke-width:0.25;" x1="98.5" x2="154" y1="338.541" y2="338.541"/><text fill="#000000" font-family="sans-serif" font-size="7" lengthAdjust="spacing" textLength="49.5" x="101" y="348.0947">String: acronym</text><line style="stroke:#181818;stroke-width:0.25;" x1="98.5" x2="154" y1="351.8516" y2="351.8516"/></g><!--link Teacher to Acronym--><g id="link_Teacher_Acronym"><path codeLine="62" d="M80.58,336 C84.14,336 87.7,336 91.26,336 " fill="none" id="Teacher-to-Acronym" style="stroke:#181818;stroke-width:0.5;"/><polygon fill="#181818" points="97.885,336,94.885,334,91.885,336,94.885,338,97.885,336" style="stroke:#181818;stroke-width:0.5;"/></g><!--link TeachingRepository to Teaching--><g id="link_TeachingRepository_Teaching"><path codeLine="64" d="M567.345,230.26 C552.56,251.265 530.99,281.895 514.935,304.7 " fill="none" id="TeachingRepository-to-Teaching" style="stroke:#181818;stroke-width:0.5;"/><polygon fill="#181818" points="513.4,306.88,517.6196,304.3414,514.8341,304.8323,514.3432,302.0468,513.4,306.88" style="stroke:#181818;stroke-width:0.5;"/><polygon fill="#000000" points="550.3108,261.3669,554.1159,258.5149,551.7128,256.823,550.3108,261.3669" style="stroke:#000000;stroke-width:0.5;"/><text fill="#000000" font-family="sans-serif" font-size="6.5" lengthAdjust="spacing" textLength="16.5" x="556.25" y="262.0142">saves</text></g><!--link TeachingBuilder to Teaching--><g id="link_TeachingBuilder_Teaching"><path codeLine="65" d="M425.685,239.535 C439.86,259.67 457.805,285.16 471.64,304.81 " fill="none" id="TeachingBuilder-to-Teaching" style="stroke:#181818;stroke-width:0.5;"/><polygon fill="#181818" points="473.135,306.93,472.1838,302.0983,471.6975,304.8846,468.9112,304.3983,473.135,306.93" style="stroke:#181818;stroke-width:0.5;"/><polygon fill="#000000" points="446.1892,261.367,444.7872,256.823,442.3841,258.5149,446.1892,261.367" style="stroke:#000000;stroke-width:0.5;"/><text fill="#000000" font-family="sans-serif" font-size="6.5" lengthAdjust="spacing" textLength="21.5" x="449.25" y="262.0142">creates</text></g><!--link SetTeachersCourseUI to SetTeachersCourseController--><g id="link_SetTeachersCourseUI_SetTeachersCourseController"><path codeLine="68" d="M252.25,34.135 C252.25,41.935 252.25,51.915 252.25,61.825 " fill="none" id="SetTeachersCourseUI-to-SetTeachersCourseController" style="stroke:#181818;stroke-width:0.5;stroke-dasharray:7.0,7.0;"/><polygon fill="#181818" points="252.25,64.34,254.25,59.84,252.25,61.84,250.25,59.84,252.25,64.34" style="stroke:#181818;stroke-width:0.5;"/></g><!--link SetTeachersCourseController to CourseRepository--><g id="link_SetTeachersCourseController_CourseRepository"><path codeLine="69" d="M252.25,141.535 C252.25,155.655 252.25,171.19 252.25,183.385 " fill="none" id="SetTeachersCourseController-to-CourseRepository" style="stroke:#181818;stroke-width:0.5;stroke-dasharray:7.0,7.0;"/><polygon fill="#181818" points="252.25,185.935,254.25,181.435,252.25,183.435,250.25,181.435,252.25,185.935" style="stroke:#181818;stroke-width:0.5;"/></g><!--link SetTeachersCourseController to TeacherRepository--><g id="link_SetTeachersCourseController_TeacherRepository"><path codeLine="70" d="M171.865,140.69 C161.635,145.82 151.38,151.165 141.75,156.5 C128.915,163.61 115.275,171.965 103.1,179.73 " fill="none" id="SetTeachersCourseController-to-TeacherRepository" style="stroke:#181818;stroke-width:0.5;stroke-dasharray:7.0,7.0;"/><polygon fill="#181818" points="100.845,181.17,105.7147,180.4382,102.9533,179.8264,103.565,177.0649,100.845,181.17" style="stroke:#181818;stroke-width:0.5;"/></g><!--link SetTeachersCourseController to TeachingBuilder--><g id="link_SetTeachersCourseController_TeachingBuilder"><path codeLine="71" d="M308.32,141.535 C322.3,151.015 337.22,161.135 350.955,170.455 " fill="none" id="SetTeachersCourseController-to-TeachingBuilder" style="stroke:#181818;stroke-width:0.5;stroke-dasharray:7.0,7.0;"/><polygon fill="#181818" points="353.15,171.945,350.5416,167.7681,351.0787,170.5451,348.3017,171.0822,353.15,171.945" style="stroke:#181818;stroke-width:0.5;"/></g><!--link SetTeachersCourseController to TeachingRepository--><g id="link_SetTeachersCourseController_TeachingRepository"><path codeLine="72" d="M332.62,128.13 C384.425,144.01 451.56,164.585 503.45,180.485 " fill="none" id="SetTeachersCourseController-to-TeachingRepository" style="stroke:#181818;stroke-width:0.5;stroke-dasharray:7.0,7.0;"/><polygon fill="#181818" points="505.91,181.24,502.1877,178.016,503.5184,180.5118,501.0226,181.8425,505.91,181.24" style="stroke:#181818;stroke-width:0.5;"/></g><!--link SetTeachersCourseController to Course--><g id="link_SetTeachersCourseController_Course"><path codeLine="74" d="M194.795,141.6 C185.65,150.43 177.485,160.62 172.25,172 C159.705,199.25 162.035,211.29 172.25,239.5 C177.015,252.655 184.45,265.275 192.92,276.79 " fill="none" id="SetTeachersCourseController-to-Course" style="stroke:#181818;stroke-width:0.5;stroke-dasharray:7.0,7.0;"/><polygon fill="#181818" points="194.51,278.93,193.4182,274.1281,193.0134,276.9274,190.2141,276.5226,194.51,278.93" style="stroke:#181818;stroke-width:0.5;"/></g><!--link CourseRepository to Course--><g id="link_CourseRepository_Course"><path codeLine="76" d="M252.25,225.6 C252.25,239.125 252.25,257.965 252.25,276.235 " fill="none" id="CourseRepository-to-Course" style="stroke:#181818;stroke-width:0.5;"/><polygon fill="#181818" points="252.25,278.925,254.25,274.425,252.25,276.425,250.25,274.425,252.25,278.925" style="stroke:#181818;stroke-width:0.5;"/><polygon fill="#000000" points="254.75,261.8228,256.2195,257.3002,253.2805,257.3002,254.75,261.8228" style="stroke:#000000;stroke-width:0.5;"/><text fill="#000000" font-family="sans-serif" font-size="6.5" lengthAdjust="spacing" textLength="16.5" x="259.25" y="262.0142">saves</text></g><!--link TeacherRepository to Teacher--><g id="link_TeacherRepository_Teacher"><path codeLine="77" d="M63.73,230.26 C62.645,255.775 60.95,295.5 59.99,318.14 " fill="none" id="TeacherRepository-to-Teacher" style="stroke:#181818;stroke-width:0.5;"/><polygon fill="#181818" points="59.88,320.68,62.0714,316.27,59.9874,318.1823,58.0751,316.0983,59.88,320.68" style="stroke:#181818;stroke-width:0.5;"/><polygon fill="#000000" points="65.1437,261.8205,66.8041,257.3645,63.8679,257.2396,65.1437,261.8205" style="stroke:#000000;stroke-width:0.5;"/><text fill="#000000" font-family="sans-serif" font-size="6.5" lengthAdjust="spacing" textLength="16.5" x="69.75" y="262.0142">saves</text></g><!--SRC=[dLJ1Rjim3BthAtHCjwKVK0G2qcG70yCoDElkYisu6XIfaEHYmR1_7sr9bcKxQJPV4egFVE8ZnL9oQ-aUt7VWvGiOkz6DiV1SqDNgkM2C_YP_22ddKHkjdD5IWa5qCheeYjz7-aLOj_9Wza2FGbNUQC-_QhUHsaArk1kY0mMZ7h-MCfpqi61xVp0Up-lIQ7K-BRZ_ZU0tBIfCPVaR16YXDY_SrB1mkNqv8Y8_qRAx_LtIn9Vp1A_Q2gVD6OL8ndy8qISEr3TcdeeshzQCJ3cZK7L6EJqSK0-KebuZH6QyQDD1dz3S7LCREWMkY1jZ7XiXgsx8mh_f7VHnrAiBNHMHDP9bNcw_6N7Yvhnmfe6PIWujlszJDW1ujS_A2PVKQRzby1RRXr1SiHqu2-MWRZjp4chlcWgKixDk_cl6tVTrLF00ikKE8lFk5LHhNt1t0pZh1zM-wXEoNqoH8DCq__O2awu1cWixcGnqh-lQG8sKz4bhnvYNVwnET-Yx4KlkZWvQIvoAsFV44Du94lpWiW6wE_o4ia-_TmRPSM0yghjtlF7oGmmEP_cRMYvPVtslYgMCZ4TzY4BnIWDOOGiaP6vPtz-pQ-kPN5lTRUnuZRqRC5bFjqMa2c_63oXkB8EGoLPkvGmlTQHvjc9xrJ5Vmlq5]--></g></svg>