<?xml version="1.0" encoding="us-ascii" standalone="no"?><svg xmlns="http://www.w3.org/2000/svg" xmlns:xlink="http://www.w3.org/1999/xlink" contentStyleType="text/css" height="1855px" preserveAspectRatio="none" style="width:1350px;height:1855px;background:#FFFFFF;" version="1.1" viewBox="0 0 1350 1855" width="1350px" zoomAndPan="magnify"><defs/><g><rect fill="#FFFFFF" height="1640.1328" style="stroke:#181818;stroke-width:1.0;" width="10" x="46" y="98.2422"/><rect fill="#FFFFFF" height="187.7461" style="stroke:#181818;stroke-width:1.0;" width="10" x="324" y="121.5332"/><rect fill="#FFFFFF" height="156.4551" style="stroke:#181818;stroke-width:1.0;" width="10" x="324" y="340.5703"/><rect fill="#FFFFFF" height="502.6563" style="stroke:#181818;stroke-width:1.0;" width="10" x="324" y="528.3164"/><rect fill="#FFFFFF" height="649.8203" style="stroke:#181818;stroke-width:1.0;" width="10" x="324" y="1088.5547"/><rect fill="#FFFFFF" height="93.873" style="stroke:#181818;stroke-width:1.0;" width="10" x="602" y="184.1152"/><rect fill="#FFFFFF" height="93.873" style="stroke:#181818;stroke-width:1.0;" width="10" x="602" y="371.8613"/><rect fill="#FFFFFF" height="93.873" style="stroke:#181818;stroke-width:1.0;" width="10" x="602" y="559.6074"/><rect fill="#FFFFFF" height="250.3281" style="stroke:#181818;stroke-width:1.0;" width="10" x="602" y="711.0625"/><rect fill="#FFFFFF" height="93.873" style="stroke:#181818;stroke-width:1.0;" width="10" x="602" y="1119.8457"/><rect fill="#FFFFFF" height="353.2012" style="stroke:#181818;stroke-width:1.0;" width="10" x="602" y="1271.3008"/><rect fill="#FFFFFF" height="31.291" style="stroke:#181818;stroke-width:1.0;" width="10" x="792" y="215.4063"/><rect fill="#FFFFFF" height="31.291" style="stroke:#181818;stroke-width:1.0;" width="10" x="925.5" y="403.1523"/><rect fill="#FFFFFF" height="31.291" style="stroke:#181818;stroke-width:1.0;" width="10" x="925.5" y="590.8984"/><rect fill="#FFFFFF" height="31.291" style="stroke:#181818;stroke-width:1.0;" width="10" x="925.5" y="1151.1367"/><rect fill="#FFFFFF" height="31.291" style="stroke:#181818;stroke-width:1.0;" width="10" x="1057.5" y="898.8086"/><rect fill="#FFFFFF" height="31.291" style="stroke:#181818;stroke-width:1.0;" width="10" x="1057.5" y="1516.6289"/><rect fill="#FFFFFF" height="31.291" style="stroke:#181818;stroke-width:1.0;" width="10" x="1192.5" y="1302.5918"/><rect fill="none" height="300.9102" style="stroke:#000000;stroke-width:1.5;" width="1100.5" x="243.5" y="668.4805"/><rect fill="none" height="617.8203" style="stroke:#000000;stroke-width:1.5;" width="1284" x="10" y="1045.9727"/><rect fill="none" height="365.4922" style="stroke:#000000;stroke-width:1.5;" width="1040.5" x="243.5" y="1228.7188"/><rect fill="none" height="238.3281" style="stroke:#000000;stroke-width:1.5;" width="773.5" x="500.5" y="1348.8828"/><line style="stroke:#181818;stroke-width:0.5;stroke-dasharray:5.0,5.0;" x1="51" x2="51" y1="88.2422" y2="1756.375"/><line style="stroke:#181818;stroke-width:0.5;stroke-dasharray:5.0,5.0;" x1="328.5" x2="328.5" y1="88.2422" y2="1756.375"/><line style="stroke:#181818;stroke-width:0.5;stroke-dasharray:5.0,5.0;" x1="606.5" x2="606.5" y1="88.2422" y2="1756.375"/><line style="stroke:#181818;stroke-width:0.5;stroke-dasharray:5.0,5.0;" x1="797" x2="797" y1="88.2422" y2="1756.375"/><line style="stroke:#181818;stroke-width:0.5;stroke-dasharray:5.0,5.0;" x1="930" x2="930" y1="88.2422" y2="1756.375"/><line style="stroke:#181818;stroke-width:0.5;stroke-dasharray:5.0,5.0;" x1="1062" x2="1062" y1="88.2422" y2="1756.375"/><line style="stroke:#181818;stroke-width:0.5;stroke-dasharray:5.0,5.0;" x1="1197" x2="1197" y1="88.2422" y2="1756.375"/><line style="stroke:#181818;stroke-width:0.5;stroke-dasharray:5.0,5.0;" x1="1304" x2="1304" y1="88.2422" y2="1756.375"/><text fill="#000000" font-family="FG Virgil" font-size="14" lengthAdjust="spacing" textLength="56" x="20" y="84.7285">Manager</text><ellipse cx="51" cy="18.1211" fill="#E3E3E3" rx="8" ry="8" style="stroke:#181818;stroke-width:0.5;"/><path d="M51,26.1211 L51,53.1211 M38,34.1211 L64,34.1211 M51,53.1211 L38,68.1211 M51,53.1211 L64,68.1211 " fill="none" style="stroke:#181818;stroke-width:0.5;"/><text fill="#000000" font-family="FG Virgil" font-size="14" lengthAdjust="spacing" textLength="56" x="20" y="1770.4824">Manager</text><ellipse cx="51" cy="1782.4961" fill="#E3E3E3" rx="8" ry="8" style="stroke:#181818;stroke-width:0.5;"/><path d="M51,1790.4961 L51,1817.4961 M38,1798.4961 L64,1798.4961 M51,1817.4961 L38,1832.4961 M51,1817.4961 L64,1832.4961 " fill="none" style="stroke:#181818;stroke-width:0.5;"/><rect fill="#E3E3E3" height="51.2422" rx="2.5" ry="2.5" style="stroke:#181818;stroke-width:0.5;" width="151" x="253.5" y="36"/><text fill="#000000" font-family="FG Virgil" font-size="14" font-style="italic" lengthAdjust="spacing" textLength="95" x="281.5" y="58.1074">&#171;presentation&#187;</text><text fill="#000000" font-family="FG Virgil" font-size="14" lengthAdjust="spacing" textLength="137" x="260.5" y="76.7285">setTeachersCourseUI</text><rect fill="#E3E3E3" height="51.2422" rx="2.5" ry="2.5" style="stroke:#181818;stroke-width:0.5;" width="151" x="253.5" y="1755.375"/><text fill="#000000" font-family="FG Virgil" font-size="14" font-style="italic" lengthAdjust="spacing" textLength="95" x="281.5" y="1777.4824">&#171;presentation&#187;</text><text fill="#000000" font-family="FG Virgil" font-size="14" lengthAdjust="spacing" textLength="137" x="260.5" y="1796.1035">setTeachersCourseUI</text><text fill="#000000" font-family="FG Virgil" font-size="14" font-style="italic" lengthAdjust="spacing" textLength="84" x="562" y="66.1074">&#171;application&#187;</text><text fill="#000000" font-family="FG Virgil" font-size="14" lengthAdjust="spacing" textLength="187" x="510.5" y="84.7285">setTeachersCourseController</text><ellipse cx="607" cy="35" fill="#E3E3E3" rx="12" ry="12" style="stroke:#181818;stroke-width:0.5;"/><polygon fill="#181818" points="603,23,609,18,607,23,609,28,603,23" style="stroke:#181818;stroke-width:1.0;"/><text fill="#000000" font-family="FG Virgil" font-size="14" font-style="italic" lengthAdjust="spacing" textLength="84" x="562" y="1770.4824">&#171;application&#187;</text><text fill="#000000" font-family="FG Virgil" font-size="14" lengthAdjust="spacing" textLength="187" x="510.5" y="1789.1035">setTeachersCourseController</text><ellipse cx="607" cy="1808.6172" fill="#E3E3E3" rx="12" ry="12" style="stroke:#181818;stroke-width:0.5;"/><polygon fill="#181818" points="603,1796.6172,609,1791.6172,607,1796.6172,609,1801.6172,603,1796.6172" style="stroke:#181818;stroke-width:1.0;"/><text fill="#000000" font-family="FG Virgil" font-size="14" font-style="italic" lengthAdjust="spacing" textLength="79" x="754.5" y="66.1074">&#171;repository&#187;</text><text fill="#000000" font-family="FG Virgil" font-size="14" lengthAdjust="spacing" textLength="114" x="737" y="84.7285">CourseRepository</text><path d="M779,15 C779,5 797,5 797,5 C797,5 815,5 815,15 L815,41 C815,51 797,51 797,51 C797,51 779,51 779,41 L779,15 " fill="#E3E3E3" style="stroke:#181818;stroke-width:1.5;"/><path d="M779,15 C779,25 797,25 797,25 C797,25 815,25 815,15 " fill="none" style="stroke:#181818;stroke-width:1.5;"/><text fill="#000000" font-family="FG Virgil" font-size="14" font-style="italic" lengthAdjust="spacing" textLength="79" x="754.5" y="1770.4824">&#171;repository&#187;</text><text fill="#000000" font-family="FG Virgil" font-size="14" lengthAdjust="spacing" textLength="114" x="737" y="1789.1035">CourseRepository</text><path d="M779,1802.6172 C779,1792.6172 797,1792.6172 797,1792.6172 C797,1792.6172 815,1792.6172 815,1802.6172 L815,1828.6172 C815,1838.6172 797,1838.6172 797,1838.6172 C797,1838.6172 779,1838.6172 779,1828.6172 L779,1802.6172 " fill="#E3E3E3" style="stroke:#181818;stroke-width:1.5;"/><path d="M779,1802.6172 C779,1812.6172 797,1812.6172 797,1812.6172 C797,1812.6172 815,1812.6172 815,1802.6172 " fill="none" style="stroke:#181818;stroke-width:1.5;"/><text fill="#000000" font-family="FG Virgil" font-size="14" font-style="italic" lengthAdjust="spacing" textLength="79" x="888" y="66.1074">&#171;repository&#187;</text><text fill="#000000" font-family="FG Virgil" font-size="14" lengthAdjust="spacing" textLength="121" x="867" y="84.7285">TeacherRepository</text><path d="M912.5,15 C912.5,5 930.5,5 930.5,5 C930.5,5 948.5,5 948.5,15 L948.5,41 C948.5,51 930.5,51 930.5,51 C930.5,51 912.5,51 912.5,41 L912.5,15 " fill="#E3E3E3" style="stroke:#181818;stroke-width:1.5;"/><path d="M912.5,15 C912.5,25 930.5,25 930.5,25 C930.5,25 948.5,25 948.5,15 " fill="none" style="stroke:#181818;stroke-width:1.5;"/><text fill="#000000" font-family="FG Virgil" font-size="14" font-style="italic" lengthAdjust="spacing" textLength="79" x="888" y="1770.4824">&#171;repository&#187;</text><text fill="#000000" font-family="FG Virgil" font-size="14" lengthAdjust="spacing" textLength="121" x="867" y="1789.1035">TeacherRepository</text><path d="M912.5,1802.6172 C912.5,1792.6172 930.5,1792.6172 930.5,1792.6172 C930.5,1792.6172 948.5,1792.6172 948.5,1802.6172 L948.5,1828.6172 C948.5,1838.6172 930.5,1838.6172 930.5,1838.6172 C930.5,1838.6172 912.5,1838.6172 912.5,1828.6172 L912.5,1802.6172 " fill="#E3E3E3" style="stroke:#181818;stroke-width:1.5;"/><path d="M912.5,1802.6172 C912.5,1812.6172 930.5,1812.6172 930.5,1812.6172 C930.5,1812.6172 948.5,1812.6172 948.5,1802.6172 " fill="none" style="stroke:#181818;stroke-width:1.5;"/><rect fill="#E3E3E3" height="51.2422" rx="2.5" ry="2.5" style="stroke:#181818;stroke-width:0.5;" width="117" x="1004" y="36"/><text fill="#000000" font-family="FG Virgil" font-size="14" font-style="italic" lengthAdjust="spacing" textLength="59" x="1033" y="58.1074">&#171;builder&#187;</text><text fill="#000000" font-family="FG Virgil" font-size="14" lengthAdjust="spacing" textLength="103" x="1011" y="76.7285">TeachingBuilder</text><rect fill="#E3E3E3" height="51.2422" rx="2.5" ry="2.5" style="stroke:#181818;stroke-width:0.5;" width="117" x="1004" y="1755.375"/><text fill="#000000" font-family="FG Virgil" font-size="14" font-style="italic" lengthAdjust="spacing" textLength="59" x="1033" y="1777.4824">&#171;builder&#187;</text><text fill="#000000" font-family="FG Virgil" font-size="14" lengthAdjust="spacing" textLength="103" x="1011" y="1796.1035">TeachingBuilder</text><text fill="#000000" font-family="FG Virgil" font-size="14" font-style="italic" lengthAdjust="spacing" textLength="79" x="1155" y="66.1074">&#171;repository&#187;</text><text fill="#000000" font-family="FG Virgil" font-size="14" lengthAdjust="spacing" textLength="127" x="1131" y="84.7285">TeachingRepository</text><path d="M1179.5,15 C1179.5,5 1197.5,5 1197.5,5 C1197.5,5 1215.5,5 1215.5,15 L1215.5,41 C1215.5,51 1197.5,51 1197.5,51 C1197.5,51 1179.5,51 1179.5,41 L1179.5,15 " fill="#E3E3E3" style="stroke:#181818;stroke-width:1.5;"/><path d="M1179.5,15 C1179.5,25 1197.5,25 1197.5,25 C1197.5,25 1215.5,25 1215.5,15 " fill="none" style="stroke:#181818;stroke-width:1.5;"/><text fill="#000000" font-family="FG Virgil" font-size="14" font-style="italic" lengthAdjust="spacing" textLength="79" x="1155" y="1770.4824">&#171;repository&#187;</text><text fill="#000000" font-family="FG Virgil" font-size="14" lengthAdjust="spacing" textLength="127" x="1131" y="1789.1035">TeachingRepository</text><path d="M1179.5,1802.6172 C1179.5,1792.6172 1197.5,1792.6172 1197.5,1792.6172 C1197.5,1792.6172 1215.5,1792.6172 1215.5,1802.6172 L1215.5,1828.6172 C1215.5,1838.6172 1197.5,1838.6172 1197.5,1838.6172 C1197.5,1838.6172 1179.5,1838.6172 1179.5,1828.6172 L1179.5,1802.6172 " fill="#E3E3E3" style="stroke:#181818;stroke-width:1.5;"/><path d="M1179.5,1802.6172 C1179.5,1812.6172 1197.5,1812.6172 1197.5,1812.6172 C1197.5,1812.6172 1215.5,1812.6172 1215.5,1802.6172 " fill="none" style="stroke:#181818;stroke-width:1.5;"/><rect fill="#E3E3E3" height="32.6211" rx="2.5" ry="2.5" style="stroke:#181818;stroke-width:0.5;" width="60" x="1274" y="54.6211"/><text fill="#000000" font-family="FG Virgil" font-size="14" lengthAdjust="spacing" textLength="46" x="1281" y="76.7285">Course</text><rect fill="#E3E3E3" height="32.6211" rx="2.5" ry="2.5" style="stroke:#181818;stroke-width:0.5;" width="60" x="1274" y="1755.375"/><text fill="#000000" font-family="FG Virgil" font-size="14" lengthAdjust="spacing" textLength="46" x="1281" y="1777.4824">Course</text><rect fill="#FFFFFF" height="1640.1328" style="stroke:#181818;stroke-width:1.0;" width="10" x="46" y="98.2422"/><rect fill="#FFFFFF" height="187.7461" style="stroke:#181818;stroke-width:1.0;" width="10" x="324" y="121.5332"/><rect fill="#FFFFFF" height="156.4551" style="stroke:#181818;stroke-width:1.0;" width="10" x="324" y="340.5703"/><rect fill="#FFFFFF" height="502.6563" style="stroke:#181818;stroke-width:1.0;" width="10" x="324" y="528.3164"/><rect fill="#FFFFFF" height="649.8203" style="stroke:#181818;stroke-width:1.0;" width="10" x="324" y="1088.5547"/><rect fill="#FFFFFF" height="93.873" style="stroke:#181818;stroke-width:1.0;" width="10" x="602" y="184.1152"/><rect fill="#FFFFFF" height="93.873" style="stroke:#181818;stroke-width:1.0;" width="10" x="602" y="371.8613"/><rect fill="#FFFFFF" height="93.873" style="stroke:#181818;stroke-width:1.0;" width="10" x="602" y="559.6074"/><rect fill="#FFFFFF" height="250.3281" style="stroke:#181818;stroke-width:1.0;" width="10" x="602" y="711.0625"/><rect fill="#FFFFFF" height="93.873" style="stroke:#181818;stroke-width:1.0;" width="10" x="602" y="1119.8457"/><rect fill="#FFFFFF" height="353.2012" style="stroke:#181818;stroke-width:1.0;" width="10" x="602" y="1271.3008"/><rect fill="#FFFFFF" height="31.291" style="stroke:#181818;stroke-width:1.0;" width="10" x="792" y="215.4063"/><rect fill="#FFFFFF" height="31.291" style="stroke:#181818;stroke-width:1.0;" width="10" x="925.5" y="403.1523"/><rect fill="#FFFFFF" height="31.291" style="stroke:#181818;stroke-width:1.0;" width="10" x="925.5" y="590.8984"/><rect fill="#FFFFFF" height="31.291" style="stroke:#181818;stroke-width:1.0;" width="10" x="925.5" y="1151.1367"/><rect fill="#FFFFFF" height="31.291" style="stroke:#181818;stroke-width:1.0;" width="10" x="1057.5" y="898.8086"/><rect fill="#FFFFFF" height="31.291" style="stroke:#181818;stroke-width:1.0;" width="10" x="1057.5" y="1516.6289"/><rect fill="#FFFFFF" height="31.291" style="stroke:#181818;stroke-width:1.0;" width="10" x="1192.5" y="1302.5918"/><polygon fill="#181818" points="312,117.5332,322,121.5332,312,125.5332,316,121.5332" style="stroke:#181818;stroke-width:1.0;"/><line style="stroke:#181818;stroke-width:1.0;" x1="56" x2="318" y1="121.5332" y2="121.5332"/><text fill="#000000" font-family="FG Virgil" font-size="13" font-weight="bold" lengthAdjust="spacing" textLength="7" x="63" y="116.2705">1</text><text fill="#000000" font-family="FG Virgil" font-size="13" lengthAdjust="spacing" textLength="137" x="74" y="116.2705">Asks the list of courses</text><polygon fill="#181818" points="595,148.8242,605,152.8242,595,156.8242,599,152.8242" style="stroke:#181818;stroke-width:1.0;"/><line style="stroke:#181818;stroke-width:1.0;" x1="334" x2="601" y1="152.8242" y2="152.8242"/><text fill="#000000" font-family="FG Virgil" font-size="13" font-weight="bold" lengthAdjust="spacing" textLength="7" x="341" y="147.5615">2</text><text fill="#000000" font-family="FG Virgil" font-size="13" lengthAdjust="spacing" textLength="44" x="352" y="147.5615">create()</text><polygon fill="#181818" points="590,180.1152,600,184.1152,590,188.1152,594,184.1152" style="stroke:#181818;stroke-width:1.0;"/><line style="stroke:#181818;stroke-width:1.0;" x1="334" x2="596" y1="184.1152" y2="184.1152"/><text fill="#000000" font-family="FG Virgil" font-size="13" font-weight="bold" lengthAdjust="spacing" textLength="7" x="341" y="178.8525">3</text><text fill="#000000" font-family="FG Virgil" font-size="13" lengthAdjust="spacing" textLength="150" x="352" y="178.8525">findCourseListNotClosed()</text><polygon fill="#181818" points="780,211.4063,790,215.4063,780,219.4063,784,215.4063" style="stroke:#181818;stroke-width:1.0;"/><line style="stroke:#181818;stroke-width:1.0;" x1="612" x2="786" y1="215.4063" y2="215.4063"/><text fill="#000000" font-family="FG Virgil" font-size="13" font-weight="bold" lengthAdjust="spacing" textLength="7" x="619" y="210.1436">4</text><text fill="#000000" font-family="FG Virgil" font-size="13" lengthAdjust="spacing" textLength="150" x="630" y="210.1436">findCourseListNotClosed()</text><polygon fill="#181818" points="623,242.6973,613,246.6973,623,250.6973,619,246.6973" style="stroke:#181818;stroke-width:1.0;"/><line style="stroke:#181818;stroke-width:1.0;stroke-dasharray:2.0,2.0;" x1="617" x2="796" y1="246.6973" y2="246.6973"/><text fill="#000000" font-family="FG Virgil" font-size="13" font-weight="bold" lengthAdjust="spacing" textLength="7" x="629" y="241.4346">5</text><text fill="#000000" font-family="FG Virgil" font-size="13" lengthAdjust="spacing" textLength="67" x="640" y="241.4346">coursesList</text><polygon fill="#181818" points="345,273.9883,335,277.9883,345,281.9883,341,277.9883" style="stroke:#181818;stroke-width:1.0;"/><line style="stroke:#181818;stroke-width:1.0;stroke-dasharray:2.0,2.0;" x1="339" x2="606" y1="277.9883" y2="277.9883"/><text fill="#000000" font-family="FG Virgil" font-size="13" font-weight="bold" lengthAdjust="spacing" textLength="7" x="351" y="272.7256">6</text><text fill="#000000" font-family="FG Virgil" font-size="13" lengthAdjust="spacing" textLength="67" x="362" y="272.7256">coursesList</text><polygon fill="#181818" points="67,305.2793,57,309.2793,67,313.2793,63,309.2793" style="stroke:#181818;stroke-width:1.0;"/><line style="stroke:#181818;stroke-width:1.0;stroke-dasharray:2.0,2.0;" x1="61" x2="328" y1="309.2793" y2="309.2793"/><text fill="#000000" font-family="FG Virgil" font-size="13" font-weight="bold" lengthAdjust="spacing" textLength="7" x="73" y="304.0166">7</text><text fill="#000000" font-family="FG Virgil" font-size="13" lengthAdjust="spacing" textLength="67" x="84" y="304.0166">coursesList</text><polygon fill="#181818" points="312,336.5703,322,340.5703,312,344.5703,316,340.5703" style="stroke:#181818;stroke-width:1.0;"/><line style="stroke:#181818;stroke-width:1.0;" x1="56" x2="318" y1="340.5703" y2="340.5703"/><text fill="#000000" font-family="FG Virgil" font-size="13" font-weight="bold" lengthAdjust="spacing" textLength="7" x="63" y="335.3076">8</text><text fill="#000000" font-family="FG Virgil" font-size="13" lengthAdjust="spacing" textLength="96" x="74" y="335.3076">selects a course</text><polygon fill="#181818" points="590,367.8613,600,371.8613,590,375.8613,594,371.8613" style="stroke:#181818;stroke-width:1.0;"/><line style="stroke:#181818;stroke-width:1.0;" x1="334" x2="596" y1="371.8613" y2="371.8613"/><text fill="#000000" font-family="FG Virgil" font-size="13" font-weight="bold" lengthAdjust="spacing" textLength="7" x="341" y="366.5986">9</text><text fill="#000000" font-family="FG Virgil" font-size="13" lengthAdjust="spacing" textLength="89" x="352" y="366.5986">findAllTeacher()</text><polygon fill="#181818" points="913.5,399.1523,923.5,403.1523,913.5,407.1523,917.5,403.1523" style="stroke:#181818;stroke-width:1.0;"/><line style="stroke:#181818;stroke-width:1.0;" x1="612" x2="919.5" y1="403.1523" y2="403.1523"/><text fill="#000000" font-family="FG Virgil" font-size="13" font-weight="bold" lengthAdjust="spacing" textLength="14" x="619" y="397.8896">10</text><text fill="#000000" font-family="FG Virgil" font-size="13" lengthAdjust="spacing" textLength="43" x="637" y="397.8896">findAll()</text><polygon fill="#181818" points="623,430.4434,613,434.4434,623,438.4434,619,434.4434" style="stroke:#181818;stroke-width:1.0;"/><line style="stroke:#181818;stroke-width:1.0;stroke-dasharray:2.0,2.0;" x1="617" x2="929.5" y1="434.4434" y2="434.4434"/><text fill="#000000" font-family="FG Virgil" font-size="13" font-weight="bold" lengthAdjust="spacing" textLength="14" x="629" y="429.1807">11</text><text fill="#000000" font-family="FG Virgil" font-size="13" lengthAdjust="spacing" textLength="64" x="647" y="429.1807">teacherList</text><polygon fill="#181818" points="345,461.7344,335,465.7344,345,469.7344,341,465.7344" style="stroke:#181818;stroke-width:1.0;"/><line style="stroke:#181818;stroke-width:1.0;stroke-dasharray:2.0,2.0;" x1="339" x2="606" y1="465.7344" y2="465.7344"/><text fill="#000000" font-family="FG Virgil" font-size="13" font-weight="bold" lengthAdjust="spacing" textLength="14" x="351" y="460.4717">12</text><text fill="#000000" font-family="FG Virgil" font-size="13" lengthAdjust="spacing" textLength="64" x="369" y="460.4717">teacherList</text><polygon fill="#181818" points="67,493.0254,57,497.0254,67,501.0254,63,497.0254" style="stroke:#181818;stroke-width:1.0;"/><line style="stroke:#181818;stroke-width:1.0;stroke-dasharray:2.0,2.0;" x1="61" x2="328" y1="497.0254" y2="497.0254"/><text fill="#000000" font-family="FG Virgil" font-size="13" font-weight="bold" lengthAdjust="spacing" textLength="14" x="73" y="491.7627">13</text><text fill="#000000" font-family="FG Virgil" font-size="13" lengthAdjust="spacing" textLength="64" x="91" y="491.7627">teacherList</text><polygon fill="#181818" points="312,524.3164,322,528.3164,312,532.3164,316,528.3164" style="stroke:#181818;stroke-width:1.0;"/><line style="stroke:#181818;stroke-width:1.0;" x1="56" x2="318" y1="528.3164" y2="528.3164"/><text fill="#000000" font-family="FG Virgil" font-size="13" font-weight="bold" lengthAdjust="spacing" textLength="14" x="63" y="523.0537">14</text><text fill="#000000" font-family="FG Virgil" font-size="13" lengthAdjust="spacing" textLength="157" x="81" y="523.0537">selects a teacher in charge</text><polygon fill="#181818" points="590,555.6074,600,559.6074,590,563.6074,594,559.6074" style="stroke:#181818;stroke-width:1.0;"/><line style="stroke:#181818;stroke-width:1.0;" x1="334" x2="596" y1="559.6074" y2="559.6074"/><text fill="#000000" font-family="FG Virgil" font-size="13" font-weight="bold" lengthAdjust="spacing" textLength="14" x="341" y="554.3447">15</text><text fill="#000000" font-family="FG Virgil" font-size="13" lengthAdjust="spacing" textLength="192" x="359" y="554.3447">findTeacherByAcronym(acronym)</text><polygon fill="#181818" points="913.5,586.8984,923.5,590.8984,913.5,594.8984,917.5,590.8984" style="stroke:#181818;stroke-width:1.0;"/><line style="stroke:#181818;stroke-width:1.0;" x1="612" x2="919.5" y1="590.8984" y2="590.8984"/><text fill="#000000" font-family="FG Virgil" font-size="13" font-weight="bold" lengthAdjust="spacing" textLength="14" x="619" y="585.6357">16</text><text fill="#000000" font-family="FG Virgil" font-size="13" lengthAdjust="spacing" textLength="146" x="637" y="585.6357">findByAcronym(acronym)</text><polygon fill="#181818" points="623,618.1895,613,622.1895,623,626.1895,619,622.1895" style="stroke:#181818;stroke-width:1.0;"/><line style="stroke:#181818;stroke-width:1.0;stroke-dasharray:2.0,2.0;" x1="617" x2="929.5" y1="622.1895" y2="622.1895"/><text fill="#000000" font-family="FG Virgil" font-size="13" font-weight="bold" lengthAdjust="spacing" textLength="14" x="629" y="616.9268">17</text><text fill="#000000" font-family="FG Virgil" font-size="13" lengthAdjust="spacing" textLength="80" x="647" y="616.9268">return teacher</text><polygon fill="#181818" points="345,649.4805,335,653.4805,345,657.4805,341,653.4805" style="stroke:#181818;stroke-width:1.0;"/><line style="stroke:#181818;stroke-width:1.0;stroke-dasharray:2.0,2.0;" x1="339" x2="606" y1="653.4805" y2="653.4805"/><text fill="#000000" font-family="FG Virgil" font-size="13" font-weight="bold" lengthAdjust="spacing" textLength="14" x="351" y="648.2178">18</text><text fill="#000000" font-family="FG Virgil" font-size="13" lengthAdjust="spacing" textLength="80" x="369" y="648.2178">return teacher</text><path d="M243.5,668.4805 L304.5,668.4805 L304.5,677.7715 L294.5,687.7715 L243.5,687.7715 L243.5,668.4805 " fill="#EEEEEE" style="stroke:#000000;stroke-width:1.5;"/><rect fill="none" height="300.9102" style="stroke:#000000;stroke-width:1.5;" width="1100.5" x="243.5" y="668.4805"/><text fill="#000000" font-family="FG Virgil" font-size="13" font-weight="bold" lengthAdjust="spacing" textLength="16" x="258.5" y="683.5088">alt</text><text fill="#000000" font-family="FG Virgil" font-size="11" font-weight="bold" lengthAdjust="spacing" textLength="167" x="319.5" y="682.3506">[if teacherInCharge is not null]</text><polygon fill="#181818" points="590,707.0625,600,711.0625,590,715.0625,594,711.0625" style="stroke:#181818;stroke-width:1.0;"/><line style="stroke:#181818;stroke-width:1.0;" x1="334" x2="596" y1="711.0625" y2="711.0625"/><text fill="#000000" font-family="FG Virgil" font-size="13" font-weight="bold" lengthAdjust="spacing" textLength="14" x="341" y="705.7998">19</text><text fill="#000000" font-family="FG Virgil" font-size="13" lengthAdjust="spacing" textLength="228" x="359" y="705.7998">saveTeacherInCharge(acronym, course)</text><polygon fill="#181818" points="1292,738.3535,1302,742.3535,1292,746.3535,1296,742.3535" style="stroke:#181818;stroke-width:1.0;"/><line style="stroke:#181818;stroke-width:1.0;" x1="612" x2="1298" y1="742.3535" y2="742.3535"/><text fill="#000000" font-family="FG Virgil" font-size="13" font-weight="bold" lengthAdjust="spacing" textLength="14" x="619" y="737.0908">20</text><text fill="#000000" font-family="FG Virgil" font-size="13" lengthAdjust="spacing" textLength="225" x="637" y="737.0908">saveTeacherInCharge(teacherInCharge)</text><polygon fill="#181818" points="1050.5,769.6445,1060.5,773.6445,1050.5,777.6445,1054.5,773.6445" style="stroke:#181818;stroke-width:1.0;"/><line style="stroke:#181818;stroke-width:1.0;" x1="612" x2="1056.5" y1="773.6445" y2="773.6445"/><text fill="#000000" font-family="FG Virgil" font-size="13" font-weight="bold" lengthAdjust="spacing" textLength="14" x="619" y="768.3818">21</text><text fill="#000000" font-family="FG Virgil" font-size="13" lengthAdjust="spacing" textLength="36" x="637" y="768.3818">create</text><polygon fill="#181818" points="1050.5,800.9355,1060.5,804.9355,1050.5,808.9355,1054.5,804.9355" style="stroke:#181818;stroke-width:1.0;"/><line style="stroke:#181818;stroke-width:1.0;" x1="612" x2="1056.5" y1="804.9355" y2="804.9355"/><text fill="#000000" font-family="FG Virgil" font-size="13" font-weight="bold" lengthAdjust="spacing" textLength="14" x="619" y="799.6729">22</text><text fill="#000000" font-family="FG Virgil" font-size="13" lengthAdjust="spacing" textLength="158" x="637" y="799.6729">ofTeacher(teacherInCharge)</text><polygon fill="#181818" points="1050.5,832.2266,1060.5,836.2266,1050.5,840.2266,1054.5,836.2266" style="stroke:#181818;stroke-width:1.0;"/><line style="stroke:#181818;stroke-width:1.0;" x1="612" x2="1056.5" y1="836.2266" y2="836.2266"/><text fill="#000000" font-family="FG Virgil" font-size="13" font-weight="bold" lengthAdjust="spacing" textLength="14" x="619" y="830.9639">23</text><text fill="#000000" font-family="FG Virgil" font-size="13" lengthAdjust="spacing" textLength="98" x="637" y="830.9639">inCourse(course)</text><polygon fill="#181818" points="1050.5,863.5176,1060.5,867.5176,1050.5,871.5176,1054.5,867.5176" style="stroke:#181818;stroke-width:1.0;"/><line style="stroke:#181818;stroke-width:1.0;" x1="612" x2="1056.5" y1="867.5176" y2="867.5176"/><text fill="#000000" font-family="FG Virgil" font-size="13" font-weight="bold" lengthAdjust="spacing" textLength="14" x="619" y="862.2549">24</text><text fill="#000000" font-family="FG Virgil" font-size="13" lengthAdjust="spacing" textLength="89" x="637" y="862.2549">asPrimary(true)</text><polygon fill="#181818" points="1045.5,894.8086,1055.5,898.8086,1045.5,902.8086,1049.5,898.8086" style="stroke:#181818;stroke-width:1.0;"/><line style="stroke:#181818;stroke-width:1.0;" x1="612" x2="1051.5" y1="898.8086" y2="898.8086"/><text fill="#000000" font-family="FG Virgil" font-size="13" font-weight="bold" lengthAdjust="spacing" textLength="14" x="619" y="893.5459">25</text><text fill="#000000" font-family="FG Virgil" font-size="13" lengthAdjust="spacing" textLength="35" x="637" y="893.5459">build()</text><polygon fill="#181818" points="623,926.0996,613,930.0996,623,934.0996,619,930.0996" style="stroke:#181818;stroke-width:1.0;"/><line style="stroke:#181818;stroke-width:1.0;stroke-dasharray:2.0,2.0;" x1="617" x2="1061.5" y1="930.0996" y2="930.0996"/><text fill="#000000" font-family="FG Virgil" font-size="13" font-weight="bold" lengthAdjust="spacing" textLength="14" x="629" y="924.8369">26</text><text fill="#000000" font-family="FG Virgil" font-size="13" lengthAdjust="spacing" textLength="86" x="647" y="924.8369">return teaching</text><polygon fill="#181818" points="1185.5,957.3906,1195.5,961.3906,1185.5,965.3906,1189.5,961.3906" style="stroke:#181818;stroke-width:1.0;"/><line style="stroke:#181818;stroke-width:1.0;" x1="607" x2="1191.5" y1="961.3906" y2="961.3906"/><text fill="#000000" font-family="FG Virgil" font-size="13" font-weight="bold" lengthAdjust="spacing" textLength="14" x="614" y="956.1279">27</text><text fill="#000000" font-family="FG Virgil" font-size="13" lengthAdjust="spacing" textLength="83" x="632" y="956.1279">save(teaching)</text><polygon fill="#181818" points="345,995.6816,335,999.6816,345,1003.6816,341,999.6816" style="stroke:#181818;stroke-width:1.0;"/><line style="stroke:#181818;stroke-width:1.0;stroke-dasharray:2.0,2.0;" x1="339" x2="606" y1="999.6816" y2="999.6816"/><text fill="#000000" font-family="FG Virgil" font-size="13" font-weight="bold" lengthAdjust="spacing" textLength="14" x="351" y="994.4189">28</text><text fill="#000000" font-family="FG Virgil" font-size="13" lengthAdjust="spacing" textLength="147" x="369" y="994.4189">shows operation success</text><polygon fill="#181818" points="67,1026.9727,57,1030.9727,67,1034.9727,63,1030.9727" style="stroke:#181818;stroke-width:1.0;"/><line style="stroke:#181818;stroke-width:1.0;stroke-dasharray:2.0,2.0;" x1="61" x2="328" y1="1030.9727" y2="1030.9727"/><text fill="#000000" font-family="FG Virgil" font-size="13" font-weight="bold" lengthAdjust="spacing" textLength="14" x="73" y="1025.71">29</text><text fill="#000000" font-family="FG Virgil" font-size="13" lengthAdjust="spacing" textLength="147" x="91" y="1025.71">shows operation success</text><path d="M10,1045.9727 L83,1045.9727 L83,1055.2637 L73,1065.2637 L10,1065.2637 L10,1045.9727 " fill="#EEEEEE" style="stroke:#000000;stroke-width:1.5;"/><rect fill="none" height="617.8203" style="stroke:#000000;stroke-width:1.5;" width="1284" x="10" y="1045.9727"/><text fill="#000000" font-family="FG Virgil" font-size="13" font-weight="bold" lengthAdjust="spacing" textLength="28" x="25" y="1061.001">loop</text><text fill="#000000" font-family="FG Virgil" font-size="11" font-weight="bold" lengthAdjust="spacing" textLength="90" x="98" y="1059.8428">[while (not exit)]</text><polygon fill="#181818" points="312,1084.5547,322,1088.5547,312,1092.5547,316,1088.5547" style="stroke:#181818;stroke-width:1.0;"/><line style="stroke:#181818;stroke-width:1.0;" x1="56" x2="318" y1="1088.5547" y2="1088.5547"/><text fill="#000000" font-family="FG Virgil" font-size="13" font-weight="bold" lengthAdjust="spacing" textLength="14" x="63" y="1083.292">30</text><text fill="#000000" font-family="FG Virgil" font-size="13" lengthAdjust="spacing" textLength="97" x="81" y="1083.292">inserts a teacher</text><polygon fill="#181818" points="590,1115.8457,600,1119.8457,590,1123.8457,594,1119.8457" style="stroke:#181818;stroke-width:1.0;"/><line style="stroke:#181818;stroke-width:1.0;" x1="334" x2="596" y1="1119.8457" y2="1119.8457"/><text fill="#000000" font-family="FG Virgil" font-size="13" font-weight="bold" lengthAdjust="spacing" textLength="14" x="341" y="1114.583">31</text><text fill="#000000" font-family="FG Virgil" font-size="13" lengthAdjust="spacing" textLength="192" x="359" y="1114.583">findTeacherByAcronym(acronym)</text><polygon fill="#181818" points="913.5,1147.1367,923.5,1151.1367,913.5,1155.1367,917.5,1151.1367" style="stroke:#181818;stroke-width:1.0;"/><line style="stroke:#181818;stroke-width:1.0;" x1="612" x2="919.5" y1="1151.1367" y2="1151.1367"/><text fill="#000000" font-family="FG Virgil" font-size="13" font-weight="bold" lengthAdjust="spacing" textLength="14" x="619" y="1145.874">32</text><text fill="#000000" font-family="FG Virgil" font-size="13" lengthAdjust="spacing" textLength="146" x="637" y="1145.874">findByAcronym(acronym)</text><polygon fill="#181818" points="623,1178.4277,613,1182.4277,623,1186.4277,619,1182.4277" style="stroke:#181818;stroke-width:1.0;"/><line style="stroke:#181818;stroke-width:1.0;stroke-dasharray:2.0,2.0;" x1="617" x2="929.5" y1="1182.4277" y2="1182.4277"/><text fill="#000000" font-family="FG Virgil" font-size="13" font-weight="bold" lengthAdjust="spacing" textLength="14" x="629" y="1177.165">33</text><text fill="#000000" font-family="FG Virgil" font-size="13" lengthAdjust="spacing" textLength="80" x="647" y="1177.165">return teacher</text><polygon fill="#181818" points="345,1209.7188,335,1213.7188,345,1217.7188,341,1213.7188" style="stroke:#181818;stroke-width:1.0;"/><line style="stroke:#181818;stroke-width:1.0;stroke-dasharray:2.0,2.0;" x1="339" x2="606" y1="1213.7188" y2="1213.7188"/><text fill="#000000" font-family="FG Virgil" font-size="13" font-weight="bold" lengthAdjust="spacing" textLength="14" x="351" y="1208.4561">34</text><text fill="#000000" font-family="FG Virgil" font-size="13" lengthAdjust="spacing" textLength="80" x="369" y="1208.4561">return teacher</text><path d="M243.5,1228.7188 L304.5,1228.7188 L304.5,1238.0098 L294.5,1248.0098 L243.5,1248.0098 L243.5,1228.7188 " fill="#EEEEEE" style="stroke:#000000;stroke-width:1.5;"/><rect fill="none" height="365.4922" style="stroke:#000000;stroke-width:1.5;" width="1040.5" x="243.5" y="1228.7188"/><text fill="#000000" font-family="FG Virgil" font-size="13" font-weight="bold" lengthAdjust="spacing" textLength="16" x="258.5" y="1243.7471">alt</text><text fill="#000000" font-family="FG Virgil" font-size="11" font-weight="bold" lengthAdjust="spacing" textLength="117" x="319.5" y="1242.5889">[if teacher is not null]</text><polygon fill="#181818" points="590,1267.3008,600,1271.3008,590,1275.3008,594,1271.3008" style="stroke:#181818;stroke-width:1.0;"/><line style="stroke:#181818;stroke-width:1.0;" x1="334" x2="596" y1="1271.3008" y2="1271.3008"/><text fill="#000000" font-family="FG Virgil" font-size="13" font-weight="bold" lengthAdjust="spacing" textLength="14" x="341" y="1266.0381">35</text><text fill="#000000" font-family="FG Virgil" font-size="13" lengthAdjust="spacing" textLength="170" x="359" y="1266.0381">saveTeacher(teacher, course)</text><polygon fill="#181818" points="1180.5,1298.5918,1190.5,1302.5918,1180.5,1306.5918,1184.5,1302.5918" style="stroke:#181818;stroke-width:1.0;"/><line style="stroke:#181818;stroke-width:1.0;" x1="612" x2="1186.5" y1="1302.5918" y2="1302.5918"/><text fill="#000000" font-family="FG Virgil" font-size="13" font-weight="bold" lengthAdjust="spacing" textLength="14" x="619" y="1297.3291">36</text><text fill="#000000" font-family="FG Virgil" font-size="13" lengthAdjust="spacing" textLength="280" x="637" y="1297.3291">findTeachingOfTeacherInCourse(teacher, course)</text><polygon fill="#181818" points="623,1329.8828,613,1333.8828,623,1337.8828,619,1333.8828" style="stroke:#181818;stroke-width:1.0;"/><line style="stroke:#181818;stroke-width:1.0;stroke-dasharray:2.0,2.0;" x1="617" x2="1196.5" y1="1333.8828" y2="1333.8828"/><text fill="#000000" font-family="FG Virgil" font-size="13" font-weight="bold" lengthAdjust="spacing" textLength="14" x="629" y="1328.6201">37</text><text fill="#000000" font-family="FG Virgil" font-size="13" lengthAdjust="spacing" textLength="86" x="647" y="1328.6201">return teaching</text><path d="M500.5,1348.8828 L561.5,1348.8828 L561.5,1358.1738 L551.5,1368.1738 L500.5,1368.1738 L500.5,1348.8828 " fill="#EEEEEE" style="stroke:#000000;stroke-width:1.5;"/><rect fill="none" height="238.3281" style="stroke:#000000;stroke-width:1.5;" width="773.5" x="500.5" y="1348.8828"/><text fill="#000000" font-family="FG Virgil" font-size="13" font-weight="bold" lengthAdjust="spacing" textLength="16" x="515.5" y="1363.9111">alt</text><text fill="#000000" font-family="FG Virgil" font-size="11" font-weight="bold" lengthAdjust="spacing" textLength="122" x="576.5" y="1362.7529">[if teaching is not null]</text><polygon fill="#181818" points="1050.5,1387.4648,1060.5,1391.4648,1050.5,1395.4648,1054.5,1391.4648" style="stroke:#181818;stroke-width:1.0;"/><line style="stroke:#181818;stroke-width:1.0;" x1="612" x2="1056.5" y1="1391.4648" y2="1391.4648"/><text fill="#000000" font-family="FG Virgil" font-size="13" font-weight="bold" lengthAdjust="spacing" textLength="14" x="619" y="1386.2021">38</text><text fill="#000000" font-family="FG Virgil" font-size="13" lengthAdjust="spacing" textLength="36" x="637" y="1386.2021">create</text><polygon fill="#181818" points="1050.5,1418.7559,1060.5,1422.7559,1050.5,1426.7559,1054.5,1422.7559" style="stroke:#181818;stroke-width:1.0;"/><line style="stroke:#181818;stroke-width:1.0;" x1="612" x2="1056.5" y1="1422.7559" y2="1422.7559"/><text fill="#000000" font-family="FG Virgil" font-size="13" font-weight="bold" lengthAdjust="spacing" textLength="14" x="619" y="1417.4932">39</text><text fill="#000000" font-family="FG Virgil" font-size="13" lengthAdjust="spacing" textLength="107" x="637" y="1417.4932">ofTeacher(teacher)</text><polygon fill="#181818" points="1050.5,1450.0469,1060.5,1454.0469,1050.5,1458.0469,1054.5,1454.0469" style="stroke:#181818;stroke-width:1.0;"/><line style="stroke:#181818;stroke-width:1.0;" x1="612" x2="1056.5" y1="1454.0469" y2="1454.0469"/><text fill="#000000" font-family="FG Virgil" font-size="13" font-weight="bold" lengthAdjust="spacing" textLength="14" x="619" y="1448.7842">40</text><text fill="#000000" font-family="FG Virgil" font-size="13" lengthAdjust="spacing" textLength="98" x="637" y="1448.7842">inCourse(course)</text><polygon fill="#181818" points="1050.5,1481.3379,1060.5,1485.3379,1050.5,1489.3379,1054.5,1485.3379" style="stroke:#181818;stroke-width:1.0;"/><line style="stroke:#181818;stroke-width:1.0;" x1="612" x2="1056.5" y1="1485.3379" y2="1485.3379"/><text fill="#000000" font-family="FG Virgil" font-size="13" font-weight="bold" lengthAdjust="spacing" textLength="14" x="619" y="1480.0752">41</text><text fill="#000000" font-family="FG Virgil" font-size="13" lengthAdjust="spacing" textLength="89" x="637" y="1480.0752">asPrimary(true)</text><polygon fill="#181818" points="1045.5,1512.6289,1055.5,1516.6289,1045.5,1520.6289,1049.5,1516.6289" style="stroke:#181818;stroke-width:1.0;"/><line style="stroke:#181818;stroke-width:1.0;" x1="612" x2="1051.5" y1="1516.6289" y2="1516.6289"/><text fill="#000000" font-family="FG Virgil" font-size="13" font-weight="bold" lengthAdjust="spacing" textLength="14" x="619" y="1511.3662">42</text><text fill="#000000" font-family="FG Virgil" font-size="13" lengthAdjust="spacing" textLength="35" x="637" y="1511.3662">build()</text><polygon fill="#181818" points="623,1543.9199,613,1547.9199,623,1551.9199,619,1547.9199" style="stroke:#181818;stroke-width:1.0;"/><line style="stroke:#181818;stroke-width:1.0;stroke-dasharray:2.0,2.0;" x1="617" x2="1061.5" y1="1547.9199" y2="1547.9199"/><text fill="#000000" font-family="FG Virgil" font-size="13" font-weight="bold" lengthAdjust="spacing" textLength="14" x="629" y="1542.6572">43</text><text fill="#000000" font-family="FG Virgil" font-size="13" lengthAdjust="spacing" textLength="86" x="647" y="1542.6572">return teaching</text><polygon fill="#181818" points="1185.5,1575.2109,1195.5,1579.2109,1185.5,1583.2109,1189.5,1579.2109" style="stroke:#181818;stroke-width:1.0;"/><line style="stroke:#181818;stroke-width:1.0;" x1="612" x2="1191.5" y1="1579.2109" y2="1579.2109"/><text fill="#000000" font-family="FG Virgil" font-size="13" font-weight="bold" lengthAdjust="spacing" textLength="14" x="619" y="1573.9482">44</text><text fill="#000000" font-family="FG Virgil" font-size="13" lengthAdjust="spacing" textLength="83" x="637" y="1573.9482">save(teaching)</text><polygon fill="#181818" points="345,1620.502,335,1624.502,345,1628.502,341,1624.502" style="stroke:#181818;stroke-width:1.0;"/><line style="stroke:#181818;stroke-width:1.0;stroke-dasharray:2.0,2.0;" x1="339" x2="606" y1="1624.502" y2="1624.502"/><text fill="#000000" font-family="FG Virgil" font-size="13" font-weight="bold" lengthAdjust="spacing" textLength="14" x="351" y="1619.2393">45</text><text fill="#000000" font-family="FG Virgil" font-size="13" lengthAdjust="spacing" textLength="226" x="369" y="1619.2393">show operation choose teacher succes</text><polygon fill="#181818" points="67,1651.793,57,1655.793,67,1659.793,63,1655.793" style="stroke:#181818;stroke-width:1.0;"/><line style="stroke:#181818;stroke-width:1.0;stroke-dasharray:2.0,2.0;" x1="61" x2="323" y1="1655.793" y2="1655.793"/><text fill="#000000" font-family="FG Virgil" font-size="13" font-weight="bold" lengthAdjust="spacing" textLength="14" x="73" y="1650.5303">46</text><text fill="#000000" font-family="FG Virgil" font-size="13" lengthAdjust="spacing" textLength="226" x="91" y="1650.5303">show operation choose teacher succes</text><line style="stroke:#181818;stroke-width:1.0;" x1="334" x2="376" y1="1694.084" y2="1694.084"/><line style="stroke:#181818;stroke-width:1.0;" x1="376" x2="376" y1="1694.084" y2="1707.084"/><line style="stroke:#181818;stroke-width:1.0;" x1="335" x2="376" y1="1707.084" y2="1707.084"/><polygon fill="#181818" points="345,1703.084,335,1707.084,345,1711.084,341,1707.084" style="stroke:#181818;stroke-width:1.0;"/><text fill="#000000" font-family="FG Virgil" font-size="13" font-weight="bold" lengthAdjust="spacing" textLength="14" x="341" y="1688.8213">47</text><text fill="#000000" font-family="FG Virgil" font-size="13" lengthAdjust="spacing" textLength="151" x="359" y="1688.8213">output Operation Success</text><polygon fill="#181818" points="62,1734.375,52,1738.375,62,1742.375,58,1738.375" style="stroke:#181818;stroke-width:1.0;"/><line style="stroke:#181818;stroke-width:1.0;stroke-dasharray:2.0,2.0;" x1="56" x2="328" y1="1738.375" y2="1738.375"/><text fill="#000000" font-family="FG Virgil" font-size="13" font-weight="bold" lengthAdjust="spacing" textLength="14" x="68" y="1733.1123">48</text><text fill="#000000" font-family="FG Virgil" font-size="13" lengthAdjust="spacing" textLength="147" x="86" y="1733.1123">shows operation success</text><!--SRC=[hLTDR-CW4BtdLynj4sdJtYChKXgfgqgxxMhRxfrY4gDYi02tct-_O6m7y4VY9ZwqCV3Uu7dC6_jRfdMnkhqj6EAwpDaD5lcjUgUyG1BbDvdEsQozXLnmWJCfSW9QbiIRAH1-Htloh0-CW2HOUtCfsQ6IwNl1zICoqFiVy9VAFVMPLOPIyKdv7dQ8AJAReL8BNkPlH9hVM0i9ln0t4IGW1HixC3D8JJ4jpCv14Vr24Cw8L5jHIaLU7-n2ypT92aaKuHffAlXwFSDc7rAmBcJh9fYBuTqb2IeAHd73a2ADtf0Yu71_I24KDJiwM1oEnv94jZS-k0uUedLdC8Bx3rqnc9pTbPIbRjSw6agID_Uh4zaiwWaTZaQnhH3q0sbI2r3zXUNQfda56_LkI382Z2eDObTdGXrHhmypC9TPRJ1UVbU09J4BvekX-HtbgKlsJqF-AFIM2KLI0wWGROGZo4ru98Qo8yqOSS0R8wlP3jsoyrWk0vRQxISbuvJ-Vfky-YGHX_UuBd4Mv5GPnTL2XFefmapTAa0rCin0grsVD1l6wjCyKP7kSMy9OmawIwlfBa57X7f9hmZzf7qg-2nJLF1n0meirr7-QmnG3ZX3SjylnL2Tr4hS7JPO2dx8vyZzNmmA0_LrdZO3n6U8rLodH5kP3g9BoPk5BVYaSaFgzV0TkLnUc0QwQrOyy6sLUA0AkD30IyRQ0BO6_Cqgz45UGboJckzrBVMaA2wCVX6SDq5_a6YpYn6Uk2yqbZi98dPDbLyKcNBtLFCuD-U0aVejQOxaOMxVGAPXgrOu3p7XWJekxnvOZwhZCVxvCki2S7ne1sBqRpweFdi6vitCegygeg8cF8qCRMdDnZ1bubE1A8Yitcb0bHWJfOx-LHdJ-BhGpMPCY08-CshU_-QsPCW_gXSTawDS4UcRt42N-OApdNAtgpZS19UxoEdEThi9ZZT-NZmN2hrmgWSsvl05xvjG2-rvC1DFkwCpEcSPtC9ewOy8wRl0STcOcB4DZDZ1YRY-7FOBgK-Fyp8uwluNTOB5bwb6ky6rEiEbNM9onxXQz_X29xbELsalsqJwHqUZjPyLfeLu7GHdmdnWjTxY6igfGXdpY_1r-wnepTvTcx7zK9IwA3KyjS3de25MJnF4EBCfUhVkazbS_m40]--></g></svg>