<?xml version="1.0" encoding="us-ascii" standalone="no"?><svg xmlns="http://www.w3.org/2000/svg" xmlns:xlink="http://www.w3.org/1999/xlink" contentStyleType="text/css" height="300.6px" preserveAspectRatio="none" style="width:176px;height:300px;background:#FFFFFF;" version="1.1" viewBox="0 0 176 300" width="176.4px" zoomAndPan="magnify"><defs/><g><rect fill="#FFFFFF" height="189.5461" style="stroke:#181818;stroke-width:0.6;" width="6" x="27.6" y="56.1727"/><rect fill="#FFFFFF" height="18.7746" style="stroke:#181818;stroke-width:0.6;" width="6" x="145.8" y="70.1473"/><rect fill="#FFFFFF" height="18.7746" style="stroke:#181818;stroke-width:0.6;" width="6" x="145.8" y="107.6965"/><rect fill="#FFFFFF" height="18.7746" style="stroke:#181818;stroke-width:0.6;" width="6" x="145.8" y="145.2457"/><rect fill="#FFFFFF" height="18.7746" style="stroke:#181818;stroke-width:0.6;" width="6" x="145.8" y="198.5695"/><rect fill="none" height="49.1238" style="stroke:#000000;stroke-width:0.8999999999999999;" width="166.8" x="6" y="173.0203"/><line style="stroke:#181818;stroke-width:0.3;stroke-dasharray:5.0,5.0;" x1="30.6" x2="30.6" y1="50.1727" y2="251.1187"/><line style="stroke:#181818;stroke-width:0.3;stroke-dasharray:5.0,5.0;" x1="148.8" x2="148.8" y1="50.1727" y2="251.1187"/><text fill="#000000" font-family="FG Virgil" font-size="8.4" lengthAdjust="spacing" textLength="33.6" x="12" y="48.0645">Manager</text><ellipse cx="30.6" cy="8.1" fill="#E3E3E3" rx="4.8" ry="4.8" style="stroke:#181818;stroke-width:0.3;"/><path d="M30.6,12.9 L30.6,29.1 M22.8,17.7 L38.4,17.7 M30.6,29.1 L22.8,38.1 M30.6,29.1 L38.4,38.1 " fill="none" style="stroke:#181818;stroke-width:0.3;"/><text fill="#000000" font-family="FG Virgil" font-size="8.4" lengthAdjust="spacing" textLength="33.6" x="12" y="259.5832">Manager</text><ellipse cx="30.6" cy="266.7914" fill="#E3E3E3" rx="4.8" ry="4.8" style="stroke:#181818;stroke-width:0.3;"/><path d="M30.6,271.5914 L30.6,287.7914 M22.8,276.3914 L38.4,276.3914 M30.6,287.7914 L22.8,296.7914 M30.6,287.7914 L38.4,296.7914 " fill="none" style="stroke:#181818;stroke-width:0.3;"/><rect fill="#E3E3E3" height="19.5727" rx="1.5" ry="1.5" style="stroke:#181818;stroke-width:0.3;" width="36" x="130.8" y="30"/><text fill="#000000" font-family="FG Virgil" font-size="8.4" lengthAdjust="spacing" textLength="27.6" x="135" y="43.2645">System</text><rect fill="#E3E3E3" height="19.5727" rx="1.5" ry="1.5" style="stroke:#181818;stroke-width:0.3;" width="36" x="130.8" y="250.5187"/><text fill="#000000" font-family="FG Virgil" font-size="8.4" lengthAdjust="spacing" textLength="27.6" x="135" y="263.7832">System</text><rect fill="#FFFFFF" height="189.5461" style="stroke:#181818;stroke-width:0.6;" width="6" x="27.6" y="56.1727"/><rect fill="#FFFFFF" height="18.7746" style="stroke:#181818;stroke-width:0.6;" width="6" x="145.8" y="70.1473"/><rect fill="#FFFFFF" height="18.7746" style="stroke:#181818;stroke-width:0.6;" width="6" x="145.8" y="107.6965"/><rect fill="#FFFFFF" height="18.7746" style="stroke:#181818;stroke-width:0.6;" width="6" x="145.8" y="145.2457"/><rect fill="#FFFFFF" height="18.7746" style="stroke:#181818;stroke-width:0.6;" width="6" x="145.8" y="198.5695"/><polygon fill="#181818" points="138.6,67.7473,144.6,70.1473,138.6,72.5473,141,70.1473" style="stroke:#181818;stroke-width:0.6;"/><line style="stroke:#181818;stroke-width:0.6;" x1="33.6" x2="142.2" y1="70.1473" y2="70.1473"/><text fill="#000000" font-family="FG Virgil" font-size="7.8" font-weight="bold" lengthAdjust="spacing" textLength="4.2" x="37.8" y="66.9896">1</text><text fill="#000000" font-family="FG Virgil" font-size="7.8" lengthAdjust="spacing" textLength="82.2" x="44.4" y="66.9896">Asks the list of courses</text><polygon fill="#181818" points="40.2,86.5219,34.2,88.9219,40.2,91.3219,37.8,88.9219" style="stroke:#181818;stroke-width:0.6;"/><line style="stroke:#181818;stroke-width:0.6;stroke-dasharray:2.0,2.0;" x1="36.6" x2="148.2" y1="88.9219" y2="88.9219"/><text fill="#000000" font-family="FG Virgil" font-size="7.8" font-weight="bold" lengthAdjust="spacing" textLength="4.2" x="43.8" y="85.7643">2</text><text fill="#000000" font-family="FG Virgil" font-size="7.8" lengthAdjust="spacing" textLength="74.4" x="50.4" y="85.7643">Shows list of courses</text><polygon fill="#181818" points="138.6,105.2965,144.6,107.6965,138.6,110.0965,141,107.6965" style="stroke:#181818;stroke-width:0.6;"/><line style="stroke:#181818;stroke-width:0.6;" x1="33.6" x2="142.2" y1="107.6965" y2="107.6965"/><text fill="#000000" font-family="FG Virgil" font-size="7.8" font-weight="bold" lengthAdjust="spacing" textLength="4.2" x="37.8" y="104.5389">3</text><text fill="#000000" font-family="FG Virgil" font-size="7.8" lengthAdjust="spacing" textLength="58.8" x="44.4" y="104.5389">Selects a course</text><polygon fill="#181818" points="40.2,124.0711,34.2,126.4711,40.2,128.8711,37.8,126.4711" style="stroke:#181818;stroke-width:0.6;"/><line style="stroke:#181818;stroke-width:0.6;stroke-dasharray:2.0,2.0;" x1="36.6" x2="148.2" y1="126.4711" y2="126.4711"/><text fill="#000000" font-family="FG Virgil" font-size="7.8" font-weight="bold" lengthAdjust="spacing" textLength="4.2" x="43.8" y="123.3135">4</text><text fill="#000000" font-family="FG Virgil" font-size="7.8" lengthAdjust="spacing" textLength="83.4" x="50.4" y="123.3135">Shows a list of teachers</text><polygon fill="#181818" points="138.6,142.8457,144.6,145.2457,138.6,147.6457,141,145.2457" style="stroke:#181818;stroke-width:0.6;"/><line style="stroke:#181818;stroke-width:0.6;" x1="33.6" x2="142.2" y1="145.2457" y2="145.2457"/><text fill="#000000" font-family="FG Virgil" font-size="7.8" font-weight="bold" lengthAdjust="spacing" textLength="4.2" x="37.8" y="142.0881">5</text><text fill="#000000" font-family="FG Virgil" font-size="7.8" lengthAdjust="spacing" textLength="94.2" x="44.4" y="142.0881">selects a teacher in charge</text><polygon fill="#181818" points="40.2,161.6203,34.2,164.0203,40.2,166.4203,37.8,164.0203" style="stroke:#181818;stroke-width:0.6;"/><line style="stroke:#181818;stroke-width:0.6;stroke-dasharray:2.0,2.0;" x1="36.6" x2="148.2" y1="164.0203" y2="164.0203"/><text fill="#000000" font-family="FG Virgil" font-size="7.8" font-weight="bold" lengthAdjust="spacing" textLength="4.2" x="43.8" y="160.8627">6</text><text fill="#000000" font-family="FG Virgil" font-size="7.8" lengthAdjust="spacing" textLength="88.2" x="50.4" y="160.8627">shows operation success</text><path d="M6,173.0203 L49.8,173.0203 L49.8,178.5949 L43.8,184.5949 L6,184.5949 L6,173.0203 " fill="#EEEEEE" style="stroke:#000000;stroke-width:0.8999999999999999;"/><rect fill="none" height="49.1238" style="stroke:#000000;stroke-width:0.8999999999999999;" width="166.8" x="6" y="173.0203"/><text fill="#000000" font-family="FG Virgil" font-size="7.8" font-weight="bold" lengthAdjust="spacing" textLength="16.8" x="15" y="182.0373">loop</text><text fill="#000000" font-family="FG Virgil" font-size="6.6" font-weight="bold" lengthAdjust="spacing" textLength="54" x="58.8" y="181.3424">[while (not exit)]</text><polygon fill="#181818" points="138.6,196.1695,144.6,198.5695,138.6,200.9695,141,198.5695" style="stroke:#181818;stroke-width:0.6;"/><line style="stroke:#181818;stroke-width:0.6;" x1="33.6" x2="142.2" y1="198.5695" y2="198.5695"/><text fill="#000000" font-family="FG Virgil" font-size="7.8" font-weight="bold" lengthAdjust="spacing" textLength="4.2" x="37.8" y="195.4119">7</text><text fill="#000000" font-family="FG Virgil" font-size="7.8" lengthAdjust="spacing" textLength="60" x="44.4" y="195.4119">selects a teacher</text><polygon fill="#181818" points="40.2,214.9441,34.2,217.3441,40.2,219.7441,37.8,217.3441" style="stroke:#181818;stroke-width:0.6;"/><line style="stroke:#181818;stroke-width:0.6;stroke-dasharray:2.0,2.0;" x1="36.6" x2="148.2" y1="217.3441" y2="217.3441"/><text fill="#000000" font-family="FG Virgil" font-size="7.8" font-weight="bold" lengthAdjust="spacing" textLength="4.2" x="43.8" y="214.1865">8</text><text fill="#000000" font-family="FG Virgil" font-size="7.8" lengthAdjust="spacing" textLength="88.2" x="50.4" y="214.1865">shows operation success</text><polygon fill="#181818" points="40.2,237.9188,34.2,240.3188,40.2,242.7188,37.8,240.3188" style="stroke:#181818;stroke-width:0.6;"/><line style="stroke:#181818;stroke-width:0.6;stroke-dasharray:2.0,2.0;" x1="36.6" x2="148.2" y1="240.3188" y2="240.3188"/><text fill="#000000" font-family="FG Virgil" font-size="7.8" font-weight="bold" lengthAdjust="spacing" textLength="4.2" x="43.8" y="237.1611">9</text><text fill="#000000" font-family="FG Virgil" font-size="7.8" lengthAdjust="spacing" textLength="88.2" x="50.4" y="237.1611">shows opeartion success</text><!--SRC=[hP6nJWCn38RtUmflm71qxr29fKomdCHkSkubQX8VjaFfsnDehvnAGGnCiVBxysSbLzvirELYCKRCLbAyTPmMIY-5igEs3pW8faQt8OzOAqYSsNdXH61IQ9QCwBOuK6VxI23aR9RrjC4IRStP7h6Ywtju2ZA4EEjHZptlGXvWWr6fmMASItecQHfqnW8FcAj007KgFuBmYaQdYwcdNK6tLwEqX3lTAfWdY44DU0EEYoZf5tpeR0u7j9MTnYoXyxpJRsXFv_05SKUnFeC27h4VXDLtX2SRddnMFPxa5s6xcdHwqXqf21cSHnd-OjPFCuyaQ84pQ76Ez98uCe-myw5-ytLc0teBTdE-3bpOvr-teDn_us4s06K-u1q0]--></g></svg>