<?xml version="1.0" encoding="us-ascii" standalone="no"?><svg xmlns="http://www.w3.org/2000/svg" xmlns:xlink="http://www.w3.org/1999/xlink" contentStyleType="text/css" height="419px" preserveAspectRatio="none" style="width:777px;height:419px;background:#FFFFFF;" version="1.1" viewBox="0 0 777 419" width="777px" zoomAndPan="magnify"><defs/><g><rect fill="#FFFFFF" height="190.9082" style="stroke:#181818;stroke-width:1.0;" width="10" x="257.5" y="115.2871"/><rect fill="#FFFFFF" height="57.3105" style="stroke:#181818;stroke-width:1.0;" width="10" x="425.5" y="219.5742"/><rect fill="#FFFFFF" height="14" style="stroke:#181818;stroke-width:1.0;" width="10" x="675.5" y="248.8848"/><line style="stroke:#181818;stroke-width:0.5;stroke-dasharray:5.0,5.0;" x1="34" x2="34" y1="83.9766" y2="324.1953"/><line style="stroke:#181818;stroke-width:0.5;stroke-dasharray:5.0,5.0;" x1="262.5" x2="262.5" y1="83.9766" y2="324.1953"/><line style="stroke:#181818;stroke-width:0.5;stroke-dasharray:5.0,5.0;" x1="430.5" x2="430.5" y1="170.7754" y2="324.1953"/><line style="stroke:#181818;stroke-width:0.5;stroke-dasharray:5.0,5.0;" x1="680.5" x2="680.5" y1="83.9766" y2="324.1953"/><text fill="#000000" font-family="FG Virgil" font-size="14" lengthAdjust="spacing" textLength="53" x="5" y="81.0234">Student</text><ellipse cx="34.5" cy="15.9883" fill="#E3E3E3" rx="8" ry="8" style="stroke:#181818;stroke-width:0.5;"/><path d="M34.5,23.9883 L34.5,50.9883 M21.5,31.9883 L47.5,31.9883 M34.5,50.9883 L21.5,65.9883 M34.5,50.9883 L47.5,65.9883 " fill="none" style="stroke:#181818;stroke-width:0.5;"/><text fill="#000000" font-family="FG Virgil" font-size="14" lengthAdjust="spacing" textLength="53" x="5" y="336.7305">Student</text><ellipse cx="34.5" cy="348.1836" fill="#E3E3E3" rx="8" ry="8" style="stroke:#181818;stroke-width:0.5;"/><path d="M34.5,356.1836 L34.5,383.1836 M21.5,364.1836 L47.5,364.1836 M34.5,383.1836 L21.5,398.1836 M34.5,383.1836 L47.5,398.1836 " fill="none" style="stroke:#181818;stroke-width:0.5;"/><rect fill="#E3E3E3" height="46.9766" rx="2.5" ry="2.5" style="stroke:#181818;stroke-width:0.5;" width="134" x="195.5" y="36"/><text fill="#000000" font-family="FG Virgil" font-size="14" font-style="italic" lengthAdjust="spacing" textLength="101" x="212" y="56.5352">&#171;presentation&#187;</text><text fill="#000000" font-family="FG Virgil" font-size="14" lengthAdjust="spacing" textLength="120" x="202.5" y="73.0234">ListOfMyGradesUI</text><rect fill="#E3E3E3" height="46.9766" rx="2.5" ry="2.5" style="stroke:#181818;stroke-width:0.5;" width="134" x="195.5" y="323.1953"/><text fill="#000000" font-family="FG Virgil" font-size="14" font-style="italic" lengthAdjust="spacing" textLength="101" x="212" y="343.7305">&#171;presentation&#187;</text><text fill="#000000" font-family="FG Virgil" font-size="14" lengthAdjust="spacing" textLength="120" x="202.5" y="360.2188">ListOfMyGradesUI</text><text fill="#000000" font-family="FG Virgil" font-size="14" font-style="italic" lengthAdjust="spacing" textLength="90" x="382.5" y="336.7305">&#171;application&#187;</text><text fill="#000000" font-family="FG Virgil" font-size="14" lengthAdjust="spacing" textLength="176" x="339.5" y="353.2188">ListOfMyGradesController</text><ellipse cx="430.5" cy="372.1719" fill="#E3E3E3" rx="12" ry="12" style="stroke:#181818;stroke-width:0.5;"/><polygon fill="#181818" points="426.5,360.1719,432.5,355.1719,430.5,360.1719,432.5,365.1719,426.5,360.1719" style="stroke:#181818;stroke-width:1.0;"/><text fill="#000000" font-family="FG Virgil" font-size="14" font-style="italic" lengthAdjust="spacing" textLength="84" x="635.5" y="64.5352">&#171;repository&#187;</text><text fill="#000000" font-family="FG Virgil" font-size="14" lengthAdjust="spacing" textLength="186" x="584.5" y="81.0234">ExamEnrollmentRepository</text><path d="M662.5,15 C662.5,5 680.5,5 680.5,5 C680.5,5 698.5,5 698.5,15 L698.5,41 C698.5,51 680.5,51 680.5,51 C680.5,51 662.5,51 662.5,41 L662.5,15 " fill="#E3E3E3" style="stroke:#181818;stroke-width:1.5;"/><path d="M662.5,15 C662.5,25 680.5,25 680.5,25 C680.5,25 698.5,25 698.5,15 " fill="none" style="stroke:#181818;stroke-width:1.5;"/><text fill="#000000" font-family="FG Virgil" font-size="14" font-style="italic" lengthAdjust="spacing" textLength="84" x="635.5" y="336.7305">&#171;repository&#187;</text><text fill="#000000" font-family="FG Virgil" font-size="14" lengthAdjust="spacing" textLength="186" x="584.5" y="353.2188">ExamEnrollmentRepository</text><path d="M662.5,366.1719 C662.5,356.1719 680.5,356.1719 680.5,356.1719 C680.5,356.1719 698.5,356.1719 698.5,366.1719 L698.5,392.1719 C698.5,402.1719 680.5,402.1719 680.5,402.1719 C680.5,402.1719 662.5,402.1719 662.5,392.1719 L662.5,366.1719 " fill="#E3E3E3" style="stroke:#181818;stroke-width:1.5;"/><path d="M662.5,366.1719 C662.5,376.1719 680.5,376.1719 680.5,376.1719 C680.5,376.1719 698.5,376.1719 698.5,366.1719 " fill="none" style="stroke:#181818;stroke-width:1.5;"/><rect fill="#FFFFFF" height="190.9082" style="stroke:#181818;stroke-width:1.0;" width="10" x="257.5" y="115.2871"/><rect fill="#FFFFFF" height="57.3105" style="stroke:#181818;stroke-width:1.0;" width="10" x="425.5" y="219.5742"/><rect fill="#FFFFFF" height="14" style="stroke:#181818;stroke-width:1.0;" width="10" x="675.5" y="248.8848"/><polygon fill="#181818" points="245.5,111.2871,255.5,115.2871,245.5,119.2871,249.5,115.2871" style="stroke:#181818;stroke-width:1.0;"/><line style="stroke:#181818;stroke-width:1.0;" x1="34.5" x2="251.5" y1="115.2871" y2="115.2871"/><text fill="#000000" font-family="FG Virgil" font-size="13" lengthAdjust="spacing" textLength="204" x="41.5" y="110.5449">Wants view the list of his grades</text><polygon fill="#181818" points="327.5,140.5977,337.5,144.5977,327.5,148.5977,331.5,144.5977" style="stroke:#181818;stroke-width:1.0;"/><line style="stroke:#181818;stroke-width:1.0;" x1="267.5" x2="333.5" y1="144.5977" y2="144.5977"/><text fill="#000000" font-family="FG Virgil" font-size="13" lengthAdjust="spacing" textLength="46" x="274.5" y="139.8555">create()</text><text fill="#000000" font-family="FG Virgil" font-size="14" font-style="italic" lengthAdjust="spacing" textLength="90" x="382.5" y="168.8223">&#171;application&#187;</text><text fill="#000000" font-family="FG Virgil" font-size="14" lengthAdjust="spacing" textLength="176" x="339.5" y="185.3105">ListOfMyGradesController</text><ellipse cx="430.5" cy="139.2871" fill="#E3E3E3" rx="12" ry="12" style="stroke:#181818;stroke-width:0.5;"/><polygon fill="#181818" points="426.5,127.2871,432.5,122.2871,430.5,127.2871,432.5,132.2871,426.5,127.2871" style="stroke:#181818;stroke-width:1.0;"/><polygon fill="#181818" points="413.5,215.5742,423.5,219.5742,413.5,223.5742,417.5,219.5742" style="stroke:#181818;stroke-width:1.0;"/><line style="stroke:#181818;stroke-width:1.0;" x1="267.5" x2="419.5" y1="219.5742" y2="219.5742"/><text fill="#000000" font-family="FG Virgil" font-size="13" lengthAdjust="spacing" textLength="137" x="274.5" y="214.832">listMyGrades(student)</text><polygon fill="#181818" points="663.5,244.8848,673.5,248.8848,663.5,252.8848,667.5,248.8848" style="stroke:#181818;stroke-width:1.0;"/><line style="stroke:#181818;stroke-width:1.0;" x1="435.5" x2="669.5" y1="248.8848" y2="248.8848"/><text fill="#000000" font-family="FG Virgil" font-size="13" lengthAdjust="spacing" textLength="221" x="442.5" y="244.1426">findExamGradesOfStudent(student)</text><polygon fill="#181818" points="446.5,258.8848,436.5,262.8848,446.5,266.8848,442.5,262.8848" style="stroke:#181818;stroke-width:1.0;"/><line style="stroke:#181818;stroke-width:1.0;stroke-dasharray:2.0,2.0;" x1="440.5" x2="679.5" y1="262.8848" y2="262.8848"/><polygon fill="#181818" points="278.5,272.8848,268.5,276.8848,278.5,280.8848,274.5,276.8848" style="stroke:#181818;stroke-width:1.0;"/><line style="stroke:#181818;stroke-width:1.0;stroke-dasharray:2.0,2.0;" x1="272.5" x2="429.5" y1="276.8848" y2="276.8848"/><polygon fill="#181818" points="45.5,302.1953,35.5,306.1953,45.5,310.1953,41.5,306.1953" style="stroke:#181818;stroke-width:1.0;"/><line style="stroke:#181818;stroke-width:1.0;stroke-dasharray:2.0,2.0;" x1="39.5" x2="261.5" y1="306.1953" y2="306.1953"/><text fill="#000000" font-family="FG Virgil" font-size="13" lengthAdjust="spacing" textLength="93" x="51.5" y="301.4531">display the list</text><!--SRC=[ZLFTIyCm47_FNt5lJi7jlPI1YCh03r3KvpEzhc5f4fARsl_UIwTb6qIMXqBkxlTnT-bPnnognI9OTBpjxLpxVf4snWMCsCyxxgsQhj1xvtKNVK_0SKjxcO1wWsjwuS4IHDAybskenQtbM-_u4GLwUmTl9gxDFdFgiF5VngsXHPj8ATJi8xpmjY77W0ckSa19DHjjWhY5UvFugNqOxY8sb5vNkKg-THqY9K4X6- -MIwL5E7fxL7-zYrgA6LVCrJM6O8t-8skGyGCJmSqtzZSkL_MYzKp19oCEXynMpDLrd2v2fiQcu78flYjubwOIV1hw0ku8h5W2tq9d4gn7MtaevXEPf5o17EbMi4Nl5nTGWOuaYDdv2O1grFoBpz9k-3la95q2ZrNv5Es8Scam5RJ6DJcxGpsrlvi_D75WfCGrLUPJtCJbFtEO61ewNQtSzhXUTSJthtPUaw36rr51OvBydiFqADGUpUlg1m00]--></g></svg>