<?xml version="1.0" encoding="us-ascii" standalone="no"?><svg xmlns="http://www.w3.org/2000/svg" xmlns:xlink="http://www.w3.org/1999/xlink" contentStyleType="text/css" height="775px" preserveAspectRatio="none" style="width:957px;height:775px;background:#FFFFFF;" version="1.1" viewBox="0 0 957 775" width="957px" zoomAndPan="magnify"><defs/><g><rect fill="#FFFFFF" height="536.5781" style="stroke:#181818;stroke-width:1.0;" width="10" x="306" y="121.5332"/><rect fill="#FFFFFF" height="93.873" style="stroke:#181818;stroke-width:1.0;" width="10" x="566" y="152.8242"/><rect fill="#FFFFFF" height="62.582" style="stroke:#181818;stroke-width:1.0;" width="10" x="566" y="446.7344"/><rect fill="#FFFFFF" height="62.582" style="stroke:#181818;stroke-width:1.0;" width="10" x="566" y="557.2383"/><rect fill="#FFFFFF" height="31.291" style="stroke:#181818;stroke-width:1.0;" width="10" x="782" y="184.1152"/><rect fill="none" height="223.668" style="stroke:#000000;stroke-width:1.5;" width="764" x="186.5" y="404.1523"/><line style="stroke:#181818;stroke-width:0.5;stroke-dasharray:5.0,5.0;" x1="36" x2="36" y1="88.2422" y2="676.1113"/><line style="stroke:#181818;stroke-width:0.5;stroke-dasharray:5.0,5.0;" x1="310.5" x2="310.5" y1="88.2422" y2="676.1113"/><line style="stroke:#181818;stroke-width:0.5;stroke-dasharray:5.0,5.0;" x1="570.5" x2="570.5" y1="88.2422" y2="676.1113"/><line style="stroke:#181818;stroke-width:0.5;stroke-dasharray:5.0,5.0;" x1="786.5" x2="786.5" y1="88.2422" y2="676.1113"/><line style="stroke:#181818;stroke-width:0.5;stroke-dasharray:5.0,5.0;" x1="903.5" x2="903.5" y1="88.2422" y2="676.1113"/><text fill="#000000" font-family="FG Virgil" font-size="14" lengthAdjust="spacing" textLength="56" x="5" y="84.7285">Manager</text><ellipse cx="36" cy="18.1211" fill="#E3E3E3" rx="8" ry="8" style="stroke:#181818;stroke-width:0.5;"/><path d="M36,26.1211 L36,53.1211 M23,34.1211 L49,34.1211 M36,53.1211 L23,68.1211 M36,53.1211 L49,68.1211 " fill="none" style="stroke:#181818;stroke-width:0.5;"/><text fill="#000000" font-family="FG Virgil" font-size="14" lengthAdjust="spacing" textLength="56" x="5" y="690.2188">Manager</text><ellipse cx="36" cy="702.2324" fill="#E3E3E3" rx="8" ry="8" style="stroke:#181818;stroke-width:0.5;"/><path d="M36,710.2324 L36,737.2324 M23,718.2324 L49,718.2324 M36,737.2324 L23,752.2324 M36,737.2324 L49,752.2324 " fill="none" style="stroke:#181818;stroke-width:0.5;"/><rect fill="#E3E3E3" height="51.2422" rx="2.5" ry="2.5" style="stroke:#181818;stroke-width:0.5;" width="229" x="196.5" y="36"/><text fill="#000000" font-family="FG Virgil" font-size="14" font-style="italic" lengthAdjust="spacing" textLength="95" x="263.5" y="58.1074">&#171;presentation&#187;</text><text fill="#000000" font-family="FG Virgil" font-size="14" lengthAdjust="spacing" textLength="215" x="203.5" y="76.7285">AcceptRejectEnrollmentRequestUI</text><rect fill="#E3E3E3" height="51.2422" rx="2.5" ry="2.5" style="stroke:#181818;stroke-width:0.5;" width="229" x="196.5" y="675.1113"/><text fill="#000000" font-family="FG Virgil" font-size="14" font-style="italic" lengthAdjust="spacing" textLength="95" x="263.5" y="697.2188">&#171;presentation&#187;</text><text fill="#000000" font-family="FG Virgil" font-size="14" lengthAdjust="spacing" textLength="215" x="203.5" y="715.8398">AcceptRejectEnrollmentRequestUI</text><text fill="#000000" font-family="FG Virgil" font-size="14" font-style="italic" lengthAdjust="spacing" textLength="84" x="526" y="66.1074">&#171;application&#187;</text><text fill="#000000" font-family="FG Virgil" font-size="14" lengthAdjust="spacing" textLength="265" x="435.5" y="84.7285">AcceptRejectEnrollmentRequestController</text><ellipse cx="571" cy="35" fill="#E3E3E3" rx="12" ry="12" style="stroke:#181818;stroke-width:0.5;"/><polygon fill="#181818" points="567,23,573,18,571,23,573,28,567,23" style="stroke:#181818;stroke-width:1.0;"/><text fill="#000000" font-family="FG Virgil" font-size="14" font-style="italic" lengthAdjust="spacing" textLength="84" x="526" y="690.2188">&#171;application&#187;</text><text fill="#000000" font-family="FG Virgil" font-size="14" lengthAdjust="spacing" textLength="265" x="435.5" y="708.8398">AcceptRejectEnrollmentRequestController</text><ellipse cx="571" cy="728.3535" fill="#E3E3E3" rx="12" ry="12" style="stroke:#181818;stroke-width:0.5;"/><polygon fill="#181818" points="567,716.3535,573,711.3535,571,716.3535,573,721.3535,567,716.3535" style="stroke:#181818;stroke-width:1.0;"/><text fill="#000000" font-family="FG Virgil" font-size="14" font-style="italic" lengthAdjust="spacing" textLength="79" x="744.5" y="66.1074">&#171;repository&#187;</text><text fill="#000000" font-family="FG Virgil" font-size="14" lengthAdjust="spacing" textLength="135" x="716.5" y="84.7285">EnrollmentRepository</text><path d="M769,15 C769,5 787,5 787,5 C787,5 805,5 805,15 L805,41 C805,51 787,51 787,51 C787,51 769,51 769,41 L769,15 " fill="#E3E3E3" style="stroke:#181818;stroke-width:1.5;"/><path d="M769,15 C769,25 787,25 787,25 C787,25 805,25 805,15 " fill="none" style="stroke:#181818;stroke-width:1.5;"/><text fill="#000000" font-family="FG Virgil" font-size="14" font-style="italic" lengthAdjust="spacing" textLength="79" x="744.5" y="690.2188">&#171;repository&#187;</text><text fill="#000000" font-family="FG Virgil" font-size="14" lengthAdjust="spacing" textLength="135" x="716.5" y="708.8398">EnrollmentRepository</text><path d="M769,722.3535 C769,712.3535 787,712.3535 787,712.3535 C787,712.3535 805,712.3535 805,722.3535 L805,748.3535 C805,758.3535 787,758.3535 787,758.3535 C787,758.3535 769,758.3535 769,748.3535 L769,722.3535 " fill="#E3E3E3" style="stroke:#181818;stroke-width:1.5;"/><path d="M769,722.3535 C769,732.3535 787,732.3535 787,732.3535 C787,732.3535 805,732.3535 805,722.3535 " fill="none" style="stroke:#181818;stroke-width:1.5;"/><text fill="#000000" font-family="FG Virgil" font-size="14" font-style="italic" lengthAdjust="spacing" textLength="64" x="869" y="66.1074">&#171;Domain&#187;</text><text fill="#000000" font-family="FG Virgil" font-size="14" lengthAdjust="spacing" textLength="67" x="867.5" y="84.7285">Enrollment</text><ellipse cx="904" cy="35" fill="#E3E3E3" rx="12" ry="12" style="stroke:#181818;stroke-width:0.5;"/><line style="stroke:#181818;stroke-width:0.5;" x1="892" x2="916" y1="49" y2="49"/><text fill="#000000" font-family="FG Virgil" font-size="14" font-style="italic" lengthAdjust="spacing" textLength="64" x="869" y="690.2188">&#171;Domain&#187;</text><text fill="#000000" font-family="FG Virgil" font-size="14" lengthAdjust="spacing" textLength="67" x="867.5" y="708.8398">Enrollment</text><ellipse cx="904" cy="728.3535" fill="#E3E3E3" rx="12" ry="12" style="stroke:#181818;stroke-width:0.5;"/><line style="stroke:#181818;stroke-width:0.5;" x1="892" x2="916" y1="742.3535" y2="742.3535"/><rect fill="#FFFFFF" height="536.5781" style="stroke:#181818;stroke-width:1.0;" width="10" x="306" y="121.5332"/><rect fill="#FFFFFF" height="93.873" style="stroke:#181818;stroke-width:1.0;" width="10" x="566" y="152.8242"/><rect fill="#FFFFFF" height="62.582" style="stroke:#181818;stroke-width:1.0;" width="10" x="566" y="446.7344"/><rect fill="#FFFFFF" height="62.582" style="stroke:#181818;stroke-width:1.0;" width="10" x="566" y="557.2383"/><rect fill="#FFFFFF" height="31.291" style="stroke:#181818;stroke-width:1.0;" width="10" x="782" y="184.1152"/><polygon fill="#181818" points="294,117.5332,304,121.5332,294,125.5332,298,121.5332" style="stroke:#181818;stroke-width:1.0;"/><line style="stroke:#181818;stroke-width:1.0;" x1="36" x2="300" y1="121.5332" y2="121.5332"/><text fill="#000000" font-family="FG Virgil" font-size="13" font-weight="bold" lengthAdjust="spacing" textLength="7" x="43" y="116.2705">1</text><text fill="#000000" font-family="FG Virgil" font-size="13" lengthAdjust="spacing" textLength="240" x="54" y="116.2705">asks to accept/reject enrollment requests</text><polygon fill="#181818" points="554,148.8242,564,152.8242,554,156.8242,558,152.8242" style="stroke:#181818;stroke-width:1.0;"/><line style="stroke:#181818;stroke-width:1.0;" x1="316" x2="560" y1="152.8242" y2="152.8242"/><text fill="#000000" font-family="FG Virgil" font-size="13" font-weight="bold" lengthAdjust="spacing" textLength="7" x="323" y="147.5615">2</text><text fill="#000000" font-family="FG Virgil" font-size="13" lengthAdjust="spacing" textLength="145" x="334" y="147.5615">findEnrollmentRequests()</text><polygon fill="#181818" points="770,180.1152,780,184.1152,770,188.1152,774,184.1152" style="stroke:#181818;stroke-width:1.0;"/><line style="stroke:#181818;stroke-width:1.0;" x1="576" x2="776" y1="184.1152" y2="184.1152"/><text fill="#000000" font-family="FG Virgil" font-size="13" font-weight="bold" lengthAdjust="spacing" textLength="7" x="583" y="178.8525">3</text><text fill="#000000" font-family="FG Virgil" font-size="13" lengthAdjust="spacing" textLength="137" x="594" y="178.8525">findEnrollmentRequests</text><polygon fill="#181818" points="587,211.4063,577,215.4063,587,219.4063,583,215.4063" style="stroke:#181818;stroke-width:1.0;"/><line style="stroke:#181818;stroke-width:1.0;stroke-dasharray:2.0,2.0;" x1="581" x2="786" y1="215.4063" y2="215.4063"/><text fill="#000000" font-family="FG Virgil" font-size="13" font-weight="bold" lengthAdjust="spacing" textLength="7" x="593" y="210.1436">4</text><text fill="#000000" font-family="FG Virgil" font-size="13" lengthAdjust="spacing" textLength="4" x="604" y="210.1436">&#160;</text><polygon fill="#181818" points="327,242.6973,317,246.6973,327,250.6973,323,246.6973" style="stroke:#181818;stroke-width:1.0;"/><line style="stroke:#181818;stroke-width:1.0;stroke-dasharray:2.0,2.0;" x1="321" x2="570" y1="246.6973" y2="246.6973"/><text fill="#000000" font-family="FG Virgil" font-size="13" font-weight="bold" lengthAdjust="spacing" textLength="7" x="333" y="241.4346">5</text><text fill="#000000" font-family="FG Virgil" font-size="13" lengthAdjust="spacing" textLength="4" x="344" y="241.4346">&#160;</text><polygon fill="#181818" points="47,291.2793,37,295.2793,47,299.2793,43,295.2793" style="stroke:#181818;stroke-width:1.0;"/><line style="stroke:#181818;stroke-width:1.0;stroke-dasharray:2.0,2.0;" x1="41" x2="305" y1="295.2793" y2="295.2793"/><text fill="#000000" font-family="FG Virgil" font-size="13" font-weight="bold" lengthAdjust="spacing" textLength="7" x="53" y="281.3711">6</text><text fill="#000000" font-family="FG Virgil" font-size="13" lengthAdjust="spacing" textLength="176" x="64" y="272.7256">shows enrollment requests list</text><text fill="#000000" font-family="FG Virgil" font-size="13" lengthAdjust="spacing" textLength="200" x="64" y="290.0166">asks to choose enrollment request</text><polygon fill="#181818" points="294,322.5703,304,326.5703,294,330.5703,298,326.5703" style="stroke:#181818;stroke-width:1.0;"/><line style="stroke:#181818;stroke-width:1.0;" x1="36" x2="300" y1="326.5703" y2="326.5703"/><text fill="#000000" font-family="FG Virgil" font-size="13" font-weight="bold" lengthAdjust="spacing" textLength="7" x="43" y="321.3076">7</text><text fill="#000000" font-family="FG Virgil" font-size="13" lengthAdjust="spacing" textLength="160" x="54" y="321.3076">chooses enrollment request</text><polygon fill="#181818" points="47,353.8613,37,357.8613,47,361.8613,43,357.8613" style="stroke:#181818;stroke-width:1.0;"/><line style="stroke:#181818;stroke-width:1.0;stroke-dasharray:2.0,2.0;" x1="41" x2="305" y1="357.8613" y2="357.8613"/><text fill="#000000" font-family="FG Virgil" font-size="13" font-weight="bold" lengthAdjust="spacing" textLength="7" x="53" y="352.5986">8</text><text fill="#000000" font-family="FG Virgil" font-size="13" lengthAdjust="spacing" textLength="233" x="64" y="352.5986">asks to accept/reject enrollment request</text><polygon fill="#181818" points="294,385.1523,304,389.1523,294,393.1523,298,389.1523" style="stroke:#181818;stroke-width:1.0;"/><line style="stroke:#181818;stroke-width:1.0;" x1="36" x2="300" y1="389.1523" y2="389.1523"/><text fill="#000000" font-family="FG Virgil" font-size="13" font-weight="bold" lengthAdjust="spacing" textLength="7" x="43" y="383.8896">9</text><text fill="#000000" font-family="FG Virgil" font-size="13" lengthAdjust="spacing" textLength="186" x="54" y="383.8896">accept/reject enrollment request</text><path d="M186.5,404.1523 L247.5,404.1523 L247.5,413.4434 L237.5,423.4434 L186.5,423.4434 L186.5,404.1523 " fill="#EEEEEE" style="stroke:#000000;stroke-width:1.5;"/><rect fill="none" height="223.668" style="stroke:#000000;stroke-width:1.5;" width="764" x="186.5" y="404.1523"/><text fill="#000000" font-family="FG Virgil" font-size="13" font-weight="bold" lengthAdjust="spacing" textLength="16" x="201.5" y="419.1807">alt</text><text fill="#000000" font-family="FG Virgil" font-size="11" font-weight="bold" lengthAdjust="spacing" textLength="105" x="262.5" y="418.0225">[if option is accept]</text><polygon fill="#181818" points="554,442.7344,564,446.7344,554,450.7344,558,446.7344" style="stroke:#181818;stroke-width:1.0;"/><line style="stroke:#181818;stroke-width:1.0;" x1="316" x2="560" y1="446.7344" y2="446.7344"/><text fill="#000000" font-family="FG Virgil" font-size="13" font-weight="bold" lengthAdjust="spacing" textLength="14" x="323" y="441.4717">10</text><text fill="#000000" font-family="FG Virgil" font-size="13" lengthAdjust="spacing" textLength="169" x="341" y="441.4717">acceptEnrollment(enrollment)</text><polygon fill="#181818" points="892,474.0254,902,478.0254,892,482.0254,896,478.0254" style="stroke:#181818;stroke-width:1.0;"/><line style="stroke:#181818;stroke-width:1.0;" x1="576" x2="898" y1="478.0254" y2="478.0254"/><text fill="#000000" font-family="FG Virgil" font-size="13" font-weight="bold" lengthAdjust="spacing" textLength="14" x="583" y="472.7627">11</text><text fill="#000000" font-family="FG Virgil" font-size="13" lengthAdjust="spacing" textLength="47" x="601" y="472.7627">accept()</text><polygon fill="#181818" points="775,505.3164,785,509.3164,775,513.3164,779,509.3164" style="stroke:#181818;stroke-width:1.0;"/><line style="stroke:#181818;stroke-width:1.0;" x1="571" x2="781" y1="509.3164" y2="509.3164"/><text fill="#000000" font-family="FG Virgil" font-size="13" font-weight="bold" lengthAdjust="spacing" textLength="14" x="578" y="504.0537">12</text><text fill="#000000" font-family="FG Virgil" font-size="13" lengthAdjust="spacing" textLength="94" x="596" y="504.0537">save(enrollment)</text><line style="stroke:#000000;stroke-width:1.0;stroke-dasharray:2.0,2.0;" x1="186.5" x2="950.5" y1="518.3164" y2="518.3164"/><text fill="#000000" font-family="FG Virgil" font-size="11" font-weight="bold" lengthAdjust="spacing" textLength="101" x="191.5" y="530.1865">[if option is reject]</text><polygon fill="#181818" points="554,553.2383,564,557.2383,554,561.2383,558,557.2383" style="stroke:#181818;stroke-width:1.0;"/><line style="stroke:#181818;stroke-width:1.0;" x1="316" x2="560" y1="557.2383" y2="557.2383"/><text fill="#000000" font-family="FG Virgil" font-size="13" font-weight="bold" lengthAdjust="spacing" textLength="14" x="323" y="551.9756">13</text><text fill="#000000" font-family="FG Virgil" font-size="13" lengthAdjust="spacing" textLength="162" x="341" y="551.9756">rejectEnrollment(enrollment)</text><polygon fill="#181818" points="892,584.5293,902,588.5293,892,592.5293,896,588.5293" style="stroke:#181818;stroke-width:1.0;"/><line style="stroke:#181818;stroke-width:1.0;" x1="576" x2="898" y1="588.5293" y2="588.5293"/><text fill="#000000" font-family="FG Virgil" font-size="13" font-weight="bold" lengthAdjust="spacing" textLength="14" x="583" y="583.2666">14</text><text fill="#000000" font-family="FG Virgil" font-size="13" lengthAdjust="spacing" textLength="40" x="601" y="583.2666">reject()</text><polygon fill="#181818" points="775,615.8203,785,619.8203,775,623.8203,779,619.8203" style="stroke:#181818;stroke-width:1.0;"/><line style="stroke:#181818;stroke-width:1.0;" x1="571" x2="781" y1="619.8203" y2="619.8203"/><text fill="#000000" font-family="FG Virgil" font-size="13" font-weight="bold" lengthAdjust="spacing" textLength="14" x="578" y="614.5576">15</text><text fill="#000000" font-family="FG Virgil" font-size="13" lengthAdjust="spacing" textLength="94" x="596" y="614.5576">save(enrollment)</text><polygon fill="#181818" points="47,654.1113,37,658.1113,47,662.1113,43,658.1113" style="stroke:#181818;stroke-width:1.0;"/><line style="stroke:#181818;stroke-width:1.0;stroke-dasharray:2.0,2.0;" x1="41" x2="310" y1="658.1113" y2="658.1113"/><text fill="#000000" font-family="FG Virgil" font-size="13" font-weight="bold" lengthAdjust="spacing" textLength="14" x="53" y="652.8486">16</text><text fill="#000000" font-family="FG Virgil" font-size="13" lengthAdjust="spacing" textLength="188" x="71" y="652.8486">informs about operation success</text><!--SRC=[lLHDZzCm4BtxLyoDzh3RUnLLGi0Y3d00mOdBr74QKtzXJtRLVyyuOHEdJQiU43v4ylYzDvut4xzfYS9sima67NNMF4flD-ceNS28zh4bQyIu1UkTbstqLW75JXKd0UKH3-eRdOo2g2GLPxLgi3Fqv1rzGQO-VOGVEXvqgPnQhFsBTWTeq2Gbi2FlEhjNKGYKv2DyHiS98c22jpaWc4XQwi0NvuXKWRwgNvpvWulU6AiSxtztAj7tJvd4tweAKIK-GDBUxNP2yfKOV9l-RW2P8NUngoeCmMZvgbOZuHwJWb8Y-AJvjgVCNOnNLHmtBCA7cau5T4va-7jlKUTyelS17dPSsvPXnmJa0VjQDh4l1jJ4Z4CvAVkfdv4KqmJmOcTOeoXi2urszOKHQRNkyID_elJnl0eLrbmi-9hwg37gBz57L5wB-W-pOYPyhUuJBalelHLdx3FnR1_Z-cPiUP3zIrgo7OnEzDEzjacstlEeN09xpLbd1sYwXYtpm_rpS9udK- -Xe27G3VYGfnvq-iiQxLkOfW4ncRwQfDUNNL_gtOt96lLNwxlmiqbC-AmMRtEztOgVfxa1Wr-t38XdByk_Dc3G_ry6k5ei3PvsZO-Mvs7lEs9xLEmVHaWTjoSbKIZoF_K7]--></g></svg>