<?xml version="1.0" encoding="us-ascii" standalone="no"?><svg xmlns="http://www.w3.org/2000/svg" xmlns:xlink="http://www.w3.org/1999/xlink" contentStyleType="text/css" height="810px" preserveAspectRatio="none" style="width:408px;height:810px;background:#FFFFFF;" version="1.1" viewBox="0 0 408 810" width="408px" zoomAndPan="magnify"><defs/><g><rect fill="none" height="547.1797" style="stroke:#000000;stroke-width:1.5;" width="391.5" x="10" y="163.2031"/><rect fill="none" height="179.7168" style="stroke:#000000;stroke-width:1.5;" width="371.5" x="20" y="252.0762"/><rect fill="none" height="98.5039" style="stroke:#000000;stroke-width:1.5;" width="351.5" x="30" y="278.3672"/><rect fill="none" height="98.5039" style="stroke:#000000;stroke-width:1.5;" width="351.5" x="30" y="604.8789"/><line style="stroke:#181818;stroke-width:0.5;stroke-dasharray:5.0,5.0;" x1="69" x2="69" y1="83.6211" y2="727.3828"/><line style="stroke:#181818;stroke-width:0.5;stroke-dasharray:5.0,5.0;" x1="341.5" x2="341.5" y1="83.6211" y2="727.3828"/><text fill="#000000" font-family="sans-serif" font-size="14" lengthAdjust="spacing" textLength="53" x="40" y="80.1074">Teacher</text><ellipse cx="69.5" cy="13.5" fill="#E2E2F0" rx="8" ry="8" style="stroke:#181818;stroke-width:0.5;"/><path d="M69.5,21.5 L69.5,48.5 M56.5,29.5 L82.5,29.5 M69.5,48.5 L56.5,63.5 M69.5,48.5 L82.5,63.5 " fill="none" style="stroke:#181818;stroke-width:0.5;"/><text fill="#000000" font-family="sans-serif" font-size="14" lengthAdjust="spacing" textLength="53" x="40" y="741.4902">Teacher</text><ellipse cx="69.5" cy="753.5039" fill="#E2E2F0" rx="8" ry="8" style="stroke:#181818;stroke-width:0.5;"/><path d="M69.5,761.5039 L69.5,788.5039 M56.5,769.5039 L82.5,769.5039 M69.5,788.5039 L56.5,803.5039 M69.5,788.5039 L82.5,803.5039 " fill="none" style="stroke:#181818;stroke-width:0.5;"/><rect fill="#E2E2F0" height="32.6211" rx="2.5" ry="2.5" style="stroke:#181818;stroke-width:0.5;" width="60" x="311.5" y="50"/><text fill="#000000" font-family="sans-serif" font-size="14" lengthAdjust="spacing" textLength="46" x="318.5" y="72.1074">System</text><rect fill="#E2E2F0" height="32.6211" rx="2.5" ry="2.5" style="stroke:#181818;stroke-width:0.5;" width="60" x="311.5" y="726.3828"/><text fill="#000000" font-family="sans-serif" font-size="14" lengthAdjust="spacing" textLength="46" x="318.5" y="748.4902">System</text><polygon fill="#181818" points="329.5,112.9121,339.5,116.9121,329.5,120.9121,333.5,116.9121" style="stroke:#181818;stroke-width:1.0;"/><line style="stroke:#181818;stroke-width:1.0;" x1="69.5" x2="335.5" y1="116.9121" y2="116.9121"/><text fill="#000000" font-family="sans-serif" font-size="13" font-weight="bold" lengthAdjust="spacing" textLength="7" x="76.5" y="111.6494">1</text><text fill="#000000" font-family="sans-serif" font-size="13" lengthAdjust="spacing" textLength="180" x="87.5" y="111.6494">asks to create/update an exam</text><polygon fill="#181818" points="80.5,144.2031,70.5,148.2031,80.5,152.2031,76.5,148.2031" style="stroke:#181818;stroke-width:1.0;"/><line style="stroke:#181818;stroke-width:1.0;stroke-dasharray:2.0,2.0;" x1="74.5" x2="340.5" y1="148.2031" y2="148.2031"/><text fill="#000000" font-family="sans-serif" font-size="13" font-weight="bold" lengthAdjust="spacing" textLength="7" x="86.5" y="142.9404">2</text><text fill="#000000" font-family="sans-serif" font-size="13" lengthAdjust="spacing" textLength="237" x="97.5" y="142.9404">asks to select one option (create/update)</text><path d="M10,163.2031 L71,163.2031 L71,172.4941 L61,182.4941 L10,182.4941 L10,163.2031 " fill="#EEEEEE" style="stroke:#000000;stroke-width:1.5;"/><rect fill="none" height="547.1797" style="stroke:#000000;stroke-width:1.5;" width="391.5" x="10" y="163.2031"/><text fill="#000000" font-family="sans-serif" font-size="13" font-weight="bold" lengthAdjust="spacing" textLength="16" x="25" y="178.2314">alt</text><text fill="#000000" font-family="sans-serif" font-size="11" font-weight="bold" lengthAdjust="spacing" textLength="137" x="86" y="177.0732">[if option is create exam]</text><polygon fill="#181818" points="80.5,201.7852,70.5,205.7852,80.5,209.7852,76.5,205.7852" style="stroke:#181818;stroke-width:1.0;"/><line style="stroke:#181818;stroke-width:1.0;stroke-dasharray:2.0,2.0;" x1="74.5" x2="340.5" y1="205.7852" y2="205.7852"/><text fill="#000000" font-family="sans-serif" font-size="13" font-weight="bold" lengthAdjust="spacing" textLength="7" x="86.5" y="200.5225">3</text><text fill="#000000" font-family="sans-serif" font-size="13" lengthAdjust="spacing" textLength="95" x="97.5" y="200.5225">asks for file path</text><polygon fill="#181818" points="329.5,233.0762,339.5,237.0762,329.5,241.0762,333.5,237.0762" style="stroke:#181818;stroke-width:1.0;"/><line style="stroke:#181818;stroke-width:1.0;" x1="69.5" x2="335.5" y1="237.0762" y2="237.0762"/><text fill="#000000" font-family="sans-serif" font-size="13" font-weight="bold" lengthAdjust="spacing" textLength="7" x="76.5" y="231.8135">4</text><text fill="#000000" font-family="sans-serif" font-size="13" lengthAdjust="spacing" textLength="88" x="87.5" y="231.8135">inserts file path</text><path d="M20,252.0762 L81,252.0762 L81,261.3672 L71,271.3672 L20,271.3672 L20,252.0762 " fill="#EEEEEE" style="stroke:#000000;stroke-width:1.5;"/><rect fill="none" height="179.7168" style="stroke:#000000;stroke-width:1.5;" width="371.5" x="20" y="252.0762"/><text fill="#000000" font-family="sans-serif" font-size="13" font-weight="bold" lengthAdjust="spacing" textLength="16" x="35" y="267.1045">alt</text><text fill="#000000" font-family="sans-serif" font-size="11" font-weight="bold" lengthAdjust="spacing" textLength="92" x="96" y="265.9463">[if file is not null]</text><path d="M30,278.3672 L91,278.3672 L91,287.6582 L81,297.6582 L30,297.6582 L30,278.3672 " fill="#EEEEEE" style="stroke:#000000;stroke-width:1.5;"/><rect fill="none" height="98.5039" style="stroke:#000000;stroke-width:1.5;" width="351.5" x="30" y="278.3672"/><text fill="#000000" font-family="sans-serif" font-size="13" font-weight="bold" lengthAdjust="spacing" textLength="16" x="45" y="293.3955">alt</text><text fill="#000000" font-family="sans-serif" font-size="11" font-weight="bold" lengthAdjust="spacing" textLength="105" x="106" y="292.2373">[if exam is not null]</text><polygon fill="#181818" points="80.5,316.9492,70.5,320.9492,80.5,324.9492,76.5,320.9492" style="stroke:#181818;stroke-width:1.0;"/><line style="stroke:#181818;stroke-width:1.0;stroke-dasharray:2.0,2.0;" x1="74.5" x2="340.5" y1="320.9492" y2="320.9492"/><text fill="#000000" font-family="sans-serif" font-size="13" font-weight="bold" lengthAdjust="spacing" textLength="7" x="86.5" y="315.6865">5</text><text fill="#000000" font-family="sans-serif" font-size="13" lengthAdjust="spacing" textLength="142" x="97.5" y="315.6865">shows the exam created</text><line style="stroke:#000000;stroke-width:1.0;stroke-dasharray:2.0,2.0;" x1="30" x2="381.5" y1="329.9492" y2="329.9492"/><text fill="#000000" font-family="sans-serif" font-size="11" font-weight="bold" lengthAdjust="spacing" textLength="84" x="35" y="341.8193">[if exam is null]</text><polygon fill="#181818" points="80.5,364.8711,70.5,368.8711,80.5,372.8711,76.5,368.8711" style="stroke:#181818;stroke-width:1.0;"/><line style="stroke:#181818;stroke-width:1.0;stroke-dasharray:2.0,2.0;" x1="74.5" x2="340.5" y1="368.8711" y2="368.8711"/><text fill="#000000" font-family="sans-serif" font-size="13" font-weight="bold" lengthAdjust="spacing" textLength="7" x="86.5" y="363.6084">6</text><text fill="#000000" font-family="sans-serif" font-size="13" lengthAdjust="spacing" textLength="200" x="97.5" y="363.6084">informs about exam not being valid</text><line style="stroke:#000000;stroke-width:1.0;stroke-dasharray:2.0,2.0;" x1="20" x2="391.5" y1="384.8711" y2="384.8711"/><text fill="#000000" font-family="sans-serif" font-size="11" font-weight="bold" lengthAdjust="spacing" textLength="71" x="25" y="396.7412">[if file is null]</text><polygon fill="#181818" points="80.5,419.793,70.5,423.793,80.5,427.793,76.5,423.793" style="stroke:#181818;stroke-width:1.0;"/><line style="stroke:#181818;stroke-width:1.0;stroke-dasharray:2.0,2.0;" x1="74.5" x2="340.5" y1="423.793" y2="423.793"/><text fill="#000000" font-family="sans-serif" font-size="13" font-weight="bold" lengthAdjust="spacing" textLength="7" x="86.5" y="418.5303">7</text><text fill="#000000" font-family="sans-serif" font-size="13" lengthAdjust="spacing" textLength="184" x="97.5" y="418.5303">informs about file not being valid</text><line style="stroke:#000000;stroke-width:1.0;stroke-dasharray:2.0,2.0;" x1="10" x2="401.5" y1="439.793" y2="439.793"/><text fill="#000000" font-family="sans-serif" font-size="11" font-weight="bold" lengthAdjust="spacing" textLength="140" x="15" y="451.6631">[if option is update exam]</text><polygon fill="#181818" points="80.5,492.0059,70.5,496.0059,80.5,500.0059,76.5,496.0059" style="stroke:#181818;stroke-width:1.0;"/><line style="stroke:#181818;stroke-width:1.0;stroke-dasharray:2.0,2.0;" x1="74.5" x2="340.5" y1="496.0059" y2="496.0059"/><text fill="#000000" font-family="sans-serif" font-size="13" font-weight="bold" lengthAdjust="spacing" textLength="7" x="86.5" y="482.0977">8</text><text fill="#000000" font-family="sans-serif" font-size="13" lengthAdjust="spacing" textLength="154" x="97.5" y="473.4521">shows avaliable exams list</text><text fill="#000000" font-family="sans-serif" font-size="13" lengthAdjust="spacing" textLength="183" x="97.5" y="490.7432">asks to choose exam to update</text><polygon fill="#181818" points="329.5,523.2969,339.5,527.2969,329.5,531.2969,333.5,527.2969" style="stroke:#181818;stroke-width:1.0;"/><line style="stroke:#181818;stroke-width:1.0;" x1="69.5" x2="335.5" y1="527.2969" y2="527.2969"/><text fill="#000000" font-family="sans-serif" font-size="13" font-weight="bold" lengthAdjust="spacing" textLength="7" x="76.5" y="522.0342">9</text><text fill="#000000" font-family="sans-serif" font-size="13" lengthAdjust="spacing" textLength="143" x="87.5" y="522.0342">chooses exam to update</text><polygon fill="#181818" points="80.5,554.5879,70.5,558.5879,80.5,562.5879,76.5,558.5879" style="stroke:#181818;stroke-width:1.0;"/><line style="stroke:#181818;stroke-width:1.0;stroke-dasharray:2.0,2.0;" x1="74.5" x2="340.5" y1="558.5879" y2="558.5879"/><text fill="#000000" font-family="sans-serif" font-size="13" font-weight="bold" lengthAdjust="spacing" textLength="14" x="86.5" y="553.3252">10</text><text fill="#000000" font-family="sans-serif" font-size="13" lengthAdjust="spacing" textLength="95" x="104.5" y="553.3252">asks for file path</text><polygon fill="#181818" points="329.5,585.8789,339.5,589.8789,329.5,593.8789,333.5,589.8789" style="stroke:#181818;stroke-width:1.0;"/><line style="stroke:#181818;stroke-width:1.0;" x1="69.5" x2="335.5" y1="589.8789" y2="589.8789"/><text fill="#000000" font-family="sans-serif" font-size="13" font-weight="bold" lengthAdjust="spacing" textLength="14" x="76.5" y="584.6162">11</text><text fill="#000000" font-family="sans-serif" font-size="13" lengthAdjust="spacing" textLength="88" x="94.5" y="584.6162">inserts file path</text><path d="M30,604.8789 L91,604.8789 L91,614.1699 L81,624.1699 L30,624.1699 L30,604.8789 " fill="#EEEEEE" style="stroke:#000000;stroke-width:1.5;"/><rect fill="none" height="98.5039" style="stroke:#000000;stroke-width:1.5;" width="351.5" x="30" y="604.8789"/><text fill="#000000" font-family="sans-serif" font-size="13" font-weight="bold" lengthAdjust="spacing" textLength="16" x="45" y="619.9072">alt</text><text fill="#000000" font-family="sans-serif" font-size="11" font-weight="bold" lengthAdjust="spacing" textLength="132" x="106" y="618.749">[if new exam is not null]</text><polygon fill="#181818" points="80.5,643.4609,70.5,647.4609,80.5,651.4609,76.5,647.4609" style="stroke:#181818;stroke-width:1.0;"/><line style="stroke:#181818;stroke-width:1.0;stroke-dasharray:2.0,2.0;" x1="74.5" x2="340.5" y1="647.4609" y2="647.4609"/><text fill="#000000" font-family="sans-serif" font-size="13" font-weight="bold" lengthAdjust="spacing" textLength="14" x="86.5" y="642.1982">12</text><text fill="#000000" font-family="sans-serif" font-size="13" lengthAdjust="spacing" textLength="169" x="104.5" y="642.1982">shows the new exam created</text><line style="stroke:#000000;stroke-width:1.0;stroke-dasharray:2.0,2.0;" x1="30" x2="381.5" y1="656.4609" y2="656.4609"/><text fill="#000000" font-family="sans-serif" font-size="11" font-weight="bold" lengthAdjust="spacing" textLength="111" x="35" y="668.3311">[if new exam is null]</text><polygon fill="#181818" points="80.5,691.3828,70.5,695.3828,80.5,699.3828,76.5,695.3828" style="stroke:#181818;stroke-width:1.0;"/><line style="stroke:#181818;stroke-width:1.0;stroke-dasharray:2.0,2.0;" x1="74.5" x2="340.5" y1="695.3828" y2="695.3828"/><text fill="#000000" font-family="sans-serif" font-size="13" font-weight="bold" lengthAdjust="spacing" textLength="14" x="86.5" y="690.1201">13</text><text fill="#000000" font-family="sans-serif" font-size="13" lengthAdjust="spacing" textLength="227" x="104.5" y="690.1201">informs about new exam not being valid</text><!--SRC=[jLBDJeH03Bxp5Bsf1-I-CIO-Wnwz52ZBnA63jBEhR-_000i6LZr8GXZQxwUTzgPMRUMGPQr5Lj_O-y8rcT2x9oueBGqUEsoI10jr7RmG5ZLrW09FVI34lJhsJKxXF8GWVOJdJr5gu11mRmBgeEW8bJBVbk43o40VGJJY7zBqGfWPGfOA1SS4hbNZ66vN8dS9MWLJJLaZeqcKXl1io0_gLOXMnXAqgFK2kIpSi52dyWqtMWx1OCXEWRsrGswHxolOpEzK9RKxXwRhMFlOHpcpo0gjP7yXQJXqsGXWxhn6PbzDJeQFS49h5l8SpvFDtDtIvaUBWRLbqSjFqfTPZPjmRLRZjM0lXRcDO05hH5zvNgpQEHdlBVn6sPsPHgpiW_zXLPZE- -jmTHLcvd8TfejSoVvfJZDpTrRX_G80]--></g></svg>