<?xml version="1.0" encoding="us-ascii" standalone="no"?><svg xmlns="http://www.w3.org/2000/svg" xmlns:xlink="http://www.w3.org/1999/xlink" contentStyleType="text/css" height="612px" preserveAspectRatio="none" style="width:335px;height:612px;background:#FFFFFF;" version="1.1" viewBox="0 0 335 612" width="335px" zoomAndPan="magnify"><defs/><g><rect fill="#FFFFFF" height="417.4141" style="stroke:#181818;stroke-width:1.0;" width="10" x="32.5" y="93.6211"/><rect fill="#FFFFFF" height="31.291" style="stroke:#181818;stroke-width:1.0;" width="10" x="258.5" y="116.9121"/><rect fill="#FFFFFF" height="31.291" style="stroke:#181818;stroke-width:1.0;" width="10" x="258.5" y="179.4941"/><rect fill="#FFFFFF" height="31.291" style="stroke:#181818;stroke-width:1.0;" width="10" x="258.5" y="242.0762"/><rect fill="#FFFFFF" height="215.377" style="stroke:#181818;stroke-width:1.0;" width="10" x="258.5" y="304.6582"/><rect fill="none" height="161.0859" style="stroke:#000000;stroke-width:1.5;" width="318" x="10" y="319.6582"/><line style="stroke:#181818;stroke-width:0.5;stroke-dasharray:5.0,5.0;" x1="37" x2="37" y1="83.6211" y2="529.0352"/><line style="stroke:#181818;stroke-width:0.5;stroke-dasharray:5.0,5.0;" x1="263" x2="263" y1="83.6211" y2="529.0352"/><text fill="#000000" font-family="FG Virgil" font-size="14" lengthAdjust="spacing" textLength="29" x="20" y="80.1074">User</text><ellipse cx="37.5" cy="13.5" fill="#E3E3E3" rx="8" ry="8" style="stroke:#181818;stroke-width:0.5;"/><path d="M37.5,21.5 L37.5,48.5 M24.5,29.5 L50.5,29.5 M37.5,48.5 L24.5,63.5 M37.5,48.5 L50.5,63.5 " fill="none" style="stroke:#181818;stroke-width:0.5;"/><text fill="#000000" font-family="FG Virgil" font-size="14" lengthAdjust="spacing" textLength="29" x="20" y="543.1426">User</text><ellipse cx="37.5" cy="555.1563" fill="#E3E3E3" rx="8" ry="8" style="stroke:#181818;stroke-width:0.5;"/><path d="M37.5,563.1563 L37.5,590.1563 M24.5,571.1563 L50.5,571.1563 M37.5,590.1563 L24.5,605.1563 M37.5,590.1563 L50.5,605.1563 " fill="none" style="stroke:#181818;stroke-width:0.5;"/><rect fill="#E3E3E3" height="51.2422" rx="2.5" ry="2.5" style="stroke:#181818;stroke-width:0.5;" width="109" x="209" y="31.3789"/><text fill="#000000" font-family="FG Virgil" font-size="14" font-style="italic" lengthAdjust="spacing" textLength="95" x="216" y="53.4863">&#171;presentation&#187;</text><text fill="#000000" font-family="FG Virgil" font-size="14" lengthAdjust="spacing" textLength="46" x="240.5" y="72.1074">System</text><rect fill="#E3E3E3" height="51.2422" rx="2.5" ry="2.5" style="stroke:#181818;stroke-width:0.5;" width="109" x="209" y="528.0352"/><text fill="#000000" font-family="FG Virgil" font-size="14" font-style="italic" lengthAdjust="spacing" textLength="95" x="216" y="550.1426">&#171;presentation&#187;</text><text fill="#000000" font-family="FG Virgil" font-size="14" lengthAdjust="spacing" textLength="46" x="240.5" y="568.7637">System</text><rect fill="#FFFFFF" height="417.4141" style="stroke:#181818;stroke-width:1.0;" width="10" x="32.5" y="93.6211"/><rect fill="#FFFFFF" height="31.291" style="stroke:#181818;stroke-width:1.0;" width="10" x="258.5" y="116.9121"/><rect fill="#FFFFFF" height="31.291" style="stroke:#181818;stroke-width:1.0;" width="10" x="258.5" y="179.4941"/><rect fill="#FFFFFF" height="31.291" style="stroke:#181818;stroke-width:1.0;" width="10" x="258.5" y="242.0762"/><rect fill="#FFFFFF" height="215.377" style="stroke:#181818;stroke-width:1.0;" width="10" x="258.5" y="304.6582"/><polygon fill="#181818" points="246.5,112.9121,256.5,116.9121,246.5,120.9121,250.5,116.9121" style="stroke:#181818;stroke-width:1.0;"/><line style="stroke:#181818;stroke-width:1.0;" x1="42.5" x2="252.5" y1="116.9121" y2="116.9121"/><text fill="#000000" font-family="FG Virgil" font-size="13" font-weight="bold" lengthAdjust="spacing" textLength="7" x="49.5" y="111.6494">1</text><text fill="#000000" font-family="FG Virgil" font-size="13" lengthAdjust="spacing" textLength="150" x="60.5" y="111.6494">Wants to change a post-it</text><polygon fill="#181818" points="53.5,144.2031,43.5,148.2031,53.5,152.2031,49.5,148.2031" style="stroke:#181818;stroke-width:1.0;"/><line style="stroke:#181818;stroke-width:1.0;stroke-dasharray:2.0,2.0;" x1="47.5" x2="262.5" y1="148.2031" y2="148.2031"/><text fill="#000000" font-family="FG Virgil" font-size="13" font-weight="bold" lengthAdjust="spacing" textLength="7" x="59.5" y="142.9404">2</text><text fill="#000000" font-family="FG Virgil" font-size="13" lengthAdjust="spacing" textLength="181" x="70.5" y="142.9404">Asks to choose a shared board</text><polygon fill="#181818" points="246.5,175.4941,256.5,179.4941,246.5,183.4941,250.5,179.4941" style="stroke:#181818;stroke-width:1.0;"/><line style="stroke:#181818;stroke-width:1.0;" x1="42.5" x2="252.5" y1="179.4941" y2="179.4941"/><text fill="#000000" font-family="FG Virgil" font-size="13" font-weight="bold" lengthAdjust="spacing" textLength="7" x="49.5" y="174.2314">3</text><text fill="#000000" font-family="FG Virgil" font-size="13" lengthAdjust="spacing" textLength="134" x="60.5" y="174.2314">Selects a shared board</text><polygon fill="#181818" points="53.5,206.7852,43.5,210.7852,53.5,214.7852,49.5,210.7852" style="stroke:#181818;stroke-width:1.0;"/><line style="stroke:#181818;stroke-width:1.0;stroke-dasharray:2.0,2.0;" x1="47.5" x2="262.5" y1="210.7852" y2="210.7852"/><text fill="#000000" font-family="FG Virgil" font-size="13" font-weight="bold" lengthAdjust="spacing" textLength="7" x="59.5" y="205.5225">4</text><text fill="#000000" font-family="FG Virgil" font-size="13" lengthAdjust="spacing" textLength="135" x="70.5" y="205.5225">Asks to select a post-it</text><polygon fill="#181818" points="246.5,238.0762,256.5,242.0762,246.5,246.0762,250.5,242.0762" style="stroke:#181818;stroke-width:1.0;"/><line style="stroke:#181818;stroke-width:1.0;" x1="42.5" x2="252.5" y1="242.0762" y2="242.0762"/><text fill="#000000" font-family="FG Virgil" font-size="13" font-weight="bold" lengthAdjust="spacing" textLength="7" x="49.5" y="236.8135">5</text><text fill="#000000" font-family="FG Virgil" font-size="13" lengthAdjust="spacing" textLength="95" x="60.5" y="236.8135">Selects a post-it</text><polygon fill="#181818" points="53.5,269.3672,43.5,273.3672,53.5,277.3672,49.5,273.3672" style="stroke:#181818;stroke-width:1.0;"/><line style="stroke:#181818;stroke-width:1.0;stroke-dasharray:2.0,2.0;" x1="47.5" x2="262.5" y1="273.3672" y2="273.3672"/><text fill="#000000" font-family="FG Virgil" font-size="13" font-weight="bold" lengthAdjust="spacing" textLength="7" x="59.5" y="268.1045">6</text><text fill="#000000" font-family="FG Virgil" font-size="13" lengthAdjust="spacing" textLength="180" x="70.5" y="268.1045">Asks to select a change option</text><polygon fill="#181818" points="246.5,300.6582,256.5,304.6582,246.5,308.6582,250.5,304.6582" style="stroke:#181818;stroke-width:1.0;"/><line style="stroke:#181818;stroke-width:1.0;" x1="42.5" x2="252.5" y1="304.6582" y2="304.6582"/><text fill="#000000" font-family="FG Virgil" font-size="13" font-weight="bold" lengthAdjust="spacing" textLength="7" x="49.5" y="299.3955">7</text><text fill="#000000" font-family="FG Virgil" font-size="13" lengthAdjust="spacing" textLength="83" x="60.5" y="299.3955">Selects option</text><path d="M10,319.6582 L71,319.6582 L71,328.9492 L61,338.9492 L10,338.9492 L10,319.6582 " fill="#EEEEEE" style="stroke:#000000;stroke-width:1.5;"/><rect fill="none" height="161.0859" style="stroke:#000000;stroke-width:1.5;" width="318" x="10" y="319.6582"/><text fill="#000000" font-family="FG Virgil" font-size="13" font-weight="bold" lengthAdjust="spacing" textLength="16" x="25" y="334.6865">alt</text><text fill="#000000" font-family="FG Virgil" font-size="11" font-weight="bold" lengthAdjust="spacing" textLength="140" x="86" y="333.5283">[if option is change a cell]</text><polygon fill="#181818" points="53.5,358.2402,43.5,362.2402,53.5,366.2402,49.5,362.2402" style="stroke:#181818;stroke-width:1.0;"/><line style="stroke:#181818;stroke-width:1.0;stroke-dasharray:2.0,2.0;" x1="47.5" x2="257.5" y1="362.2402" y2="362.2402"/><text fill="#000000" font-family="FG Virgil" font-size="13" font-weight="bold" lengthAdjust="spacing" textLength="7" x="59.5" y="356.9775">8</text><text fill="#000000" font-family="FG Virgil" font-size="13" lengthAdjust="spacing" textLength="119" x="70.5" y="356.9775">Asks to select a cell</text><polygon fill="#181818" points="246.5,389.5313,256.5,393.5313,246.5,397.5313,250.5,393.5313" style="stroke:#181818;stroke-width:1.0;"/><line style="stroke:#181818;stroke-width:1.0;" x1="42.5" x2="252.5" y1="393.5313" y2="393.5313"/><text fill="#000000" font-family="FG Virgil" font-size="13" font-weight="bold" lengthAdjust="spacing" textLength="7" x="49.5" y="388.2686">9</text><text fill="#000000" font-family="FG Virgil" font-size="13" lengthAdjust="spacing" textLength="79" x="60.5" y="388.2686">Selects a cell</text><line style="stroke:#000000;stroke-width:1.0;stroke-dasharray:2.0,2.0;" x1="10" x2="328" y1="402.5313" y2="402.5313"/><text fill="#000000" font-family="FG Virgil" font-size="11" font-weight="bold" lengthAdjust="spacing" textLength="154" x="15" y="414.4014">[if option is change content]</text><polygon fill="#181818" points="53.5,437.4531,43.5,441.4531,53.5,445.4531,49.5,441.4531" style="stroke:#181818;stroke-width:1.0;"/><line style="stroke:#181818;stroke-width:1.0;stroke-dasharray:2.0,2.0;" x1="47.5" x2="257.5" y1="441.4531" y2="441.4531"/><text fill="#000000" font-family="FG Virgil" font-size="13" font-weight="bold" lengthAdjust="spacing" textLength="14" x="59.5" y="436.1904">10</text><text fill="#000000" font-family="FG Virgil" font-size="13" lengthAdjust="spacing" textLength="128" x="77.5" y="436.1904">Asks to insert content</text><polygon fill="#181818" points="246.5,468.7441,256.5,472.7441,246.5,476.7441,250.5,472.7441" style="stroke:#181818;stroke-width:1.0;"/><line style="stroke:#181818;stroke-width:1.0;" x1="42.5" x2="252.5" y1="472.7441" y2="472.7441"/><text fill="#000000" font-family="FG Virgil" font-size="13" font-weight="bold" lengthAdjust="spacing" textLength="14" x="49.5" y="467.4814">11</text><text fill="#000000" font-family="FG Virgil" font-size="13" lengthAdjust="spacing" textLength="86" x="67.5" y="467.4814">Inserts content</text><polygon fill="#181818" points="48.5,507.0352,38.5,511.0352,48.5,515.0352,44.5,511.0352" style="stroke:#181818;stroke-width:1.0;"/><line style="stroke:#181818;stroke-width:1.0;stroke-dasharray:2.0,2.0;" x1="42.5" x2="257.5" y1="511.0352" y2="511.0352"/><text fill="#000000" font-family="FG Virgil" font-size="13" font-weight="bold" lengthAdjust="spacing" textLength="14" x="54.5" y="505.7725">12</text><text fill="#000000" font-family="FG Virgil" font-size="13" lengthAdjust="spacing" textLength="152" x="72.5" y="505.7725">Informs operation success</text><!--SRC=[ZL8xRy8m4DxpAsxh5DWHYiH2nT85jPqFvv9O-2NVfHN_lawm88L0cyMsxdlSVRcNJYIibijWq4blpK9vk-IZTW4ZsaKdrXIN9rZllEgYjmGIUvfK0geZjhINao68f6HIgwd1tiZMEtd3HDs-meUEhPugSuUr_zQkXGODKr5WBzxrza0ntPNu2EzC4P1XCxoAH1EjT4Xjm_x4GdQevTjw7I8nEK7HtbNLAA6_K2Yp8NtZ3SegarRmcRGOn8FgqBK42C6pb5gkx3Dqf6UhCWcCIYlOy37JlUU1deQALCF1OwoBckPKxfhOaqdfyItxSGUfWHj_7YKcxJ-nBgjxux-dVkAPi_DXIFwvyztCcJH7GIEWcum0pTT_fCYO4VA_zgReXmbSK9HsSTPNfMLE-_MdiNPfQ-KEVkEy6r7y2qQk7exPr7UkyT4EWL4SLnouLugOfu6VD_q7]--></g></svg>