<?xml version="1.0" encoding="us-ascii" standalone="no"?><svg xmlns="http://www.w3.org/2000/svg" xmlns:xlink="http://www.w3.org/1999/xlink" contentStyleType="text/css" height="762px" preserveAspectRatio="none" style="width:344px;height:762px;background:#FFFFFF;" version="1.1" viewBox="0 0 344 762" width="344px" zoomAndPan="magnify"><defs/><g><rect fill="#FFFFFF" height="582.9453" style="stroke:#181818;stroke-width:1.0;" width="10" x="64.5" y="90.6406"/><rect fill="#FFFFFF" height="28.5234" style="stroke:#181818;stroke-width:1.0;" width="10" x="277.5" y="111.1641"/><rect fill="#FFFFFF" height="28.5234" style="stroke:#181818;stroke-width:1.0;" width="10" x="277.5" y="191.7344"/><rect fill="#FFFFFF" height="28.5234" style="stroke:#181818;stroke-width:1.0;" width="10" x="277.5" y="248.7813"/><rect fill="#FFFFFF" height="30" style="stroke:#181818;stroke-width:1.0;" width="10" x="277.5" y="305.8281"/><rect fill="#FFFFFF" height="28.5234" style="stroke:#181818;stroke-width:1.0;" width="10" x="277.5" y="387.875"/><rect fill="#FFFFFF" height="28.5234" style="stroke:#181818;stroke-width:1.0;" width="10" x="277.5" y="444.9219"/><rect fill="#FFFFFF" height="28.5234" style="stroke:#181818;stroke-width:1.0;" width="10" x="277.5" y="501.9688"/><rect fill="#FFFFFF" height="75.0469" style="stroke:#181818;stroke-width:1.0;" width="10" x="277.5" y="582.5391"/><rect fill="none" height="510.8984" style="stroke:#000000;stroke-width:1.5;" width="327" x="10" y="154.6875"/><rect fill="none" height="277.2344" style="stroke:#000000;stroke-width:1.5;" width="307" x="20" y="350.8281"/><rect fill="none" height="75.5703" style="stroke:#000000;stroke-width:1.5;" width="287" x="30" y="545.4922"/><line style="stroke:#181818;stroke-width:0.5;stroke-dasharray:5.0,5.0;" x1="69" x2="69" y1="80.6406" y2="682.5859"/><line style="stroke:#181818;stroke-width:0.5;stroke-dasharray:5.0,5.0;" x1="282" x2="282" y1="80.6406" y2="682.5859"/><text fill="#000000" font-family="sans-serif" font-size="14" lengthAdjust="spacing" textLength="53" x="40" y="77.6738">Teacher</text><ellipse cx="69.5" cy="13.5" fill="#E2E2F0" rx="8" ry="8" style="stroke:#181818;stroke-width:0.5;"/><path d="M69.5,21.5 L69.5,48.5 M56.5,29.5 L82.5,29.5 M69.5,48.5 L56.5,63.5 M69.5,48.5 L82.5,63.5 " fill="none" style="stroke:#181818;stroke-width:0.5;"/><text fill="#000000" font-family="sans-serif" font-size="14" lengthAdjust="spacing" textLength="53" x="40" y="694.2598">Teacher</text><ellipse cx="69.5" cy="705.7266" fill="#E2E2F0" rx="8" ry="8" style="stroke:#181818;stroke-width:0.5;"/><path d="M69.5,713.7266 L69.5,740.7266 M56.5,721.7266 L82.5,721.7266 M69.5,740.7266 L56.5,755.7266 M69.5,740.7266 L82.5,755.7266 " fill="none" style="stroke:#181818;stroke-width:0.5;"/><text fill="#000000" font-family="sans-serif" font-size="14" lengthAdjust="spacing" textLength="12" x="273.5" y="77.6738">UI</text><path d="M262,37 L262,61 M262,49 L279,49 " fill="none" style="stroke:#181818;stroke-width:0.5;"/><ellipse cx="291" cy="49" fill="#E2E2F0" rx="12" ry="12" style="stroke:#181818;stroke-width:0.5;"/><text fill="#000000" font-family="sans-serif" font-size="14" lengthAdjust="spacing" textLength="12" x="273.5" y="694.2598">UI</text><path d="M262,701.2266 L262,725.2266 M262,713.2266 L279,713.2266 " fill="none" style="stroke:#181818;stroke-width:0.5;"/><ellipse cx="291" cy="713.2266" fill="#E2E2F0" rx="12" ry="12" style="stroke:#181818;stroke-width:0.5;"/><rect fill="#FFFFFF" height="582.9453" style="stroke:#181818;stroke-width:1.0;" width="10" x="64.5" y="90.6406"/><rect fill="#FFFFFF" height="28.5234" style="stroke:#181818;stroke-width:1.0;" width="10" x="277.5" y="111.1641"/><rect fill="#FFFFFF" height="28.5234" style="stroke:#181818;stroke-width:1.0;" width="10" x="277.5" y="191.7344"/><rect fill="#FFFFFF" height="28.5234" style="stroke:#181818;stroke-width:1.0;" width="10" x="277.5" y="248.7813"/><rect fill="#FFFFFF" height="30" style="stroke:#181818;stroke-width:1.0;" width="10" x="277.5" y="305.8281"/><rect fill="#FFFFFF" height="28.5234" style="stroke:#181818;stroke-width:1.0;" width="10" x="277.5" y="387.875"/><rect fill="#FFFFFF" height="28.5234" style="stroke:#181818;stroke-width:1.0;" width="10" x="277.5" y="444.9219"/><rect fill="#FFFFFF" height="28.5234" style="stroke:#181818;stroke-width:1.0;" width="10" x="277.5" y="501.9688"/><rect fill="#FFFFFF" height="75.0469" style="stroke:#181818;stroke-width:1.0;" width="10" x="277.5" y="582.5391"/><polygon fill="#181818" points="265.5,107.1641,275.5,111.1641,265.5,115.1641,269.5,111.1641" style="stroke:#181818;stroke-width:1.0;"/><line style="stroke:#181818;stroke-width:1.0;" x1="74.5" x2="271.5" y1="111.1641" y2="111.1641"/><text fill="#000000" font-family="sans-serif" font-size="13" lengthAdjust="spacing" textLength="184" x="81.5" y="106.4092">Change the Schedule of a class</text><polygon fill="#181818" points="85.5,135.6875,75.5,139.6875,85.5,143.6875,81.5,139.6875" style="stroke:#181818;stroke-width:1.0;"/><line style="stroke:#181818;stroke-width:1.0;" x1="79.5" x2="281.5" y1="139.6875" y2="139.6875"/><text fill="#000000" font-family="sans-serif" font-size="13" lengthAdjust="spacing" textLength="116" x="91.5" y="134.9326">Authorization status</text><path d="M10,154.6875 L71,154.6875 L71,161.2109 L61,171.2109 L10,171.2109 L10,154.6875 " fill="#EEEEEE" style="stroke:#000000;stroke-width:1.5;"/><rect fill="none" height="510.8984" style="stroke:#000000;stroke-width:1.5;" width="327" x="10" y="154.6875"/><text fill="#000000" font-family="sans-serif" font-size="13" font-weight="bold" lengthAdjust="spacing" textLength="16" x="25" y="167.4561">alt</text><text fill="#000000" font-family="sans-serif" font-size="11" font-weight="bold" lengthAdjust="spacing" textLength="77" x="86" y="166.6455">[if authorized]</text><polygon fill="#181818" points="85.5,187.7344,75.5,191.7344,85.5,195.7344,81.5,191.7344" style="stroke:#181818;stroke-width:1.0;"/><line style="stroke:#181818;stroke-width:1.0;" x1="79.5" x2="276.5" y1="191.7344" y2="191.7344"/><text fill="#000000" font-family="sans-serif" font-size="13" lengthAdjust="spacing" textLength="165" x="91.5" y="186.9795">Asks for Class title to match</text><polygon fill="#181818" points="270.5,216.2578,280.5,220.2578,270.5,224.2578,274.5,220.2578" style="stroke:#181818;stroke-width:1.0;"/><line style="stroke:#181818;stroke-width:1.0;" x1="74.5" x2="276.5" y1="220.2578" y2="220.2578"/><text fill="#000000" font-family="sans-serif" font-size="13" lengthAdjust="spacing" textLength="58" x="81.5" y="215.5029">Class title</text><polygon fill="#181818" points="85.5,244.7813,75.5,248.7813,85.5,252.7813,81.5,248.7813" style="stroke:#181818;stroke-width:1.0;"/><line style="stroke:#181818;stroke-width:1.0;" x1="79.5" x2="276.5" y1="248.7813" y2="248.7813"/><text fill="#000000" font-family="sans-serif" font-size="13" lengthAdjust="spacing" textLength="113" x="91.5" y="244.0264">Asks for Class Title</text><polygon fill="#181818" points="270.5,273.3047,280.5,277.3047,270.5,281.3047,274.5,277.3047" style="stroke:#181818;stroke-width:1.0;"/><line style="stroke:#181818;stroke-width:1.0;" x1="74.5" x2="276.5" y1="277.3047" y2="277.3047"/><text fill="#000000" font-family="sans-serif" font-size="13" lengthAdjust="spacing" textLength="171" x="81.5" y="272.5498">Asks for Class Date to match</text><polygon fill="#181818" points="85.5,301.8281,75.5,305.8281,85.5,309.8281,81.5,305.8281" style="stroke:#181818;stroke-width:1.0;"/><line style="stroke:#181818;stroke-width:1.0;" x1="79.5" x2="276.5" y1="305.8281" y2="305.8281"/><text fill="#000000" font-family="sans-serif" font-size="13" lengthAdjust="spacing" textLength="129" x="91.5" y="301.0732">Informs if Class Found</text><path d="M20,350.8281 L81,350.8281 L81,357.3516 L71,367.3516 L20,367.3516 L20,350.8281 " fill="#EEEEEE" style="stroke:#000000;stroke-width:1.5;"/><rect fill="none" height="277.2344" style="stroke:#000000;stroke-width:1.5;" width="307" x="20" y="350.8281"/><text fill="#000000" font-family="sans-serif" font-size="13" font-weight="bold" lengthAdjust="spacing" textLength="16" x="35" y="363.5967">alt</text><text fill="#000000" font-family="sans-serif" font-size="11" font-weight="bold" lengthAdjust="spacing" textLength="86" x="96" y="362.7861">[if Class Found]</text><polygon fill="#181818" points="85.5,383.875,75.5,387.875,85.5,391.875,81.5,387.875" style="stroke:#181818;stroke-width:1.0;"/><line style="stroke:#181818;stroke-width:1.0;" x1="79.5" x2="276.5" y1="387.875" y2="387.875"/><text fill="#000000" font-family="sans-serif" font-size="13" lengthAdjust="spacing" textLength="141" x="91.5" y="383.1201">Asks for new Class date</text><polygon fill="#181818" points="270.5,412.3984,280.5,416.3984,270.5,420.3984,274.5,416.3984" style="stroke:#181818;stroke-width:1.0;"/><line style="stroke:#181818;stroke-width:1.0;" x1="74.5" x2="276.5" y1="416.3984" y2="416.3984"/><text fill="#000000" font-family="sans-serif" font-size="13" lengthAdjust="spacing" textLength="64" x="81.5" y="411.6436">Class Date</text><polygon fill="#181818" points="85.5,440.9219,75.5,444.9219,85.5,448.9219,81.5,444.9219" style="stroke:#181818;stroke-width:1.0;"/><line style="stroke:#181818;stroke-width:1.0;" x1="79.5" x2="276.5" y1="444.9219" y2="444.9219"/><text fill="#000000" font-family="sans-serif" font-size="13" lengthAdjust="spacing" textLength="176" x="91.5" y="440.167">Asks for new Class Start Time</text><polygon fill="#181818" points="270.5,469.4453,280.5,473.4453,270.5,477.4453,274.5,473.4453" style="stroke:#181818;stroke-width:1.0;"/><line style="stroke:#181818;stroke-width:1.0;" x1="74.5" x2="276.5" y1="473.4453" y2="473.4453"/><text fill="#000000" font-family="sans-serif" font-size="13" lengthAdjust="spacing" textLength="97" x="81.5" y="468.6904">Class Start Time</text><polygon fill="#181818" points="85.5,497.9688,75.5,501.9688,85.5,505.9688,81.5,501.9688" style="stroke:#181818;stroke-width:1.0;"/><line style="stroke:#181818;stroke-width:1.0;" x1="79.5" x2="276.5" y1="501.9688" y2="501.9688"/><text fill="#000000" font-family="sans-serif" font-size="13" lengthAdjust="spacing" textLength="171" x="91.5" y="497.2139">Asks for new Class End Time</text><polygon fill="#181818" points="270.5,526.4922,280.5,530.4922,270.5,534.4922,274.5,530.4922" style="stroke:#181818;stroke-width:1.0;"/><line style="stroke:#181818;stroke-width:1.0;" x1="74.5" x2="276.5" y1="530.4922" y2="530.4922"/><text fill="#000000" font-family="sans-serif" font-size="13" lengthAdjust="spacing" textLength="92" x="81.5" y="525.7373">Class End Time</text><path d="M30,545.4922 L91,545.4922 L91,552.0156 L81,562.0156 L30,562.0156 L30,545.4922 " fill="#EEEEEE" style="stroke:#000000;stroke-width:1.5;"/><rect fill="none" height="75.5703" style="stroke:#000000;stroke-width:1.5;" width="287" x="30" y="545.4922"/><text fill="#000000" font-family="sans-serif" font-size="13" font-weight="bold" lengthAdjust="spacing" textLength="16" x="45" y="558.2607">alt</text><text fill="#000000" font-family="sans-serif" font-size="11" font-weight="bold" lengthAdjust="spacing" textLength="107" x="106" y="557.4502">[if user is available]</text><polygon fill="#181818" points="85.5,578.5391,75.5,582.5391,85.5,586.5391,81.5,582.5391" style="stroke:#181818;stroke-width:1.0;"/><line style="stroke:#181818;stroke-width:1.0;" x1="79.5" x2="276.5" y1="582.5391" y2="582.5391"/><text fill="#000000" font-family="sans-serif" font-size="13" lengthAdjust="spacing" textLength="149" x="91.5" y="577.7842">Change schedule of class</text><line style="stroke:#000000;stroke-width:1.0;stroke-dasharray:2.0,2.0;" x1="30" x2="317" y1="591.5391" y2="591.5391"/><polygon fill="#181818" points="85.5,609.0625,75.5,613.0625,85.5,617.0625,81.5,613.0625" style="stroke:#181818;stroke-width:1.0;"/><line style="stroke:#181818;stroke-width:1.0;" x1="79.5" x2="276.5" y1="613.0625" y2="613.0625"/><text fill="#000000" font-family="sans-serif" font-size="13" lengthAdjust="spacing" textLength="153" x="91.5" y="608.3076">Inform user is not available</text><line style="stroke:#000000;stroke-width:1.0;stroke-dasharray:2.0,2.0;" x1="10" x2="337" y1="636.0625" y2="636.0625"/><polygon fill="#181818" points="85.5,653.5859,75.5,657.5859,85.5,661.5859,81.5,657.5859" style="stroke:#181818;stroke-width:1.0;"/><line style="stroke:#181818;stroke-width:1.0;" x1="79.5" x2="281.5" y1="657.5859" y2="657.5859"/><text fill="#000000" font-family="sans-serif" font-size="13" lengthAdjust="spacing" textLength="164" x="91.5" y="652.8311">Inform user is not authorized</text><!--SRC=[bPD1ReCm44NtFiLSe1V8ebAKf1Bh90UOu4cm2hR43AdQqzS61p2aXR2nmF__Dnupc8khuKIO5rG3Ccp31tLnZTLOVyCvKmfpCNSKYdkgNU3jtMzkO5UWlH58GN3q6Ref2TmL4F8IcGUl3pfdmTIwDx1jf72r-K4npW8BIiDAqrYFfO3nKL59MYdmJnh3dmnNNyuku42CUBuug53oefMF4yDxMltWQZVJ0fPefzxtBsJYsWTTKk82DRFUN77eHPVm4MxdANUU59iuDJu_bgMlgDG-OctxzW_jskuDcADWBRwFrMhOnF4wyc3rIy14d-B63MxOpuzXm3kQ4Y_nlvWL5CU5HwFI3Sf3FQs8IluZglijUh1rCe5JlEkmzZ6B4SEqpGySadu1]--></g></svg>